<svg width="14" height="14" viewBox="0 0 14 14" fill="none" xmlns="http://www.w3.org/2000/svg">
<path d="M6.99857 3.75496C7.89047 3.75496 8.6202 3.02523 8.6202 2.13334C8.6202 1.24145 7.89047 0.511719 6.99857 0.511719C6.10668 0.511719 5.37695 1.24145 5.37695 2.13334C5.37695 3.02523 6.10668 3.75496 6.99857 3.75496ZM6.99857 5.37658C6.10668 5.37658 5.37695 6.10631 5.37695 6.99821C5.37695 7.8901 6.10668 8.61983 6.99857 8.61983C7.89047 8.61983 8.6202 7.8901 8.6202 6.99821C8.6202 6.10631 7.89047 5.37658 6.99857 5.37658ZM6.99857 10.2414C6.10668 10.2414 5.37695 10.9712 5.37695 11.8631C5.37695 12.755 6.10668 13.4847 6.99857 13.4847C7.89047 13.4847 8.6202 12.755 8.6202 11.8631C8.6202 10.9712 7.89047 10.2414 6.99857 10.2414Z" fill="currentColor"/>
</svg>
