<svg width="16" height="16" viewBox="0 0 16 16" fill="none" xmlns="http://www.w3.org/2000/svg">
<path d="M12.1953 3.17773C12.1953 3.08495 12.176 2.9927 12.1393 2.90625C12.1025 2.81975 12.0484 2.74004 11.9791 2.67253C11.9099 2.60507 11.8271 2.55087 11.735 2.51367C11.6428 2.47644 11.5432 2.45703 11.4427 2.45703H4.55725C4.35377 2.45709 4.16087 2.53599 4.02079 2.67253C3.88116 2.80868 3.8053 2.99089 3.8053 3.17773V13.0293L5.19527 11.9141C5.30901 11.8211 5.45072 11.7709 5.59566 11.7708L5.65295 11.7734C5.77088 11.7841 5.88427 11.8282 5.97978 11.901L8.04228 13.4206L9.8385 11.9212L9.84892 11.9128C9.96384 11.8218 10.1056 11.7734 10.25 11.7734L10.3574 11.7826C10.459 11.7997 10.5556 11.8416 10.6393 11.9049L10.6399 11.9043L12.1953 13.0664V3.17773ZM12.75 13.4818C12.7541 13.4847 12.7589 13.4865 12.763 13.4896C12.7576 13.4855 12.7517 13.4822 12.7461 13.4785L12.75 13.4818ZM10.5592 8.84505L10.6106 8.84766C10.8628 8.87327 11.0592 9.08618 11.0592 9.34505C11.0591 9.60383 10.8627 9.81686 10.6106 9.84245L10.5592 9.84505H4.92639C4.65034 9.84505 4.42653 9.62107 4.42639 9.34505C4.42639 9.06891 4.65025 8.84505 4.92639 8.84505H10.5592ZM8.05595 6.4043L8.10738 6.4069C8.35928 6.43261 8.55579 6.64564 8.55595 6.9043C8.55595 7.1631 8.35939 7.37662 8.10738 7.40234L8.05595 7.4043H4.92639C4.65025 7.4043 4.42639 7.18044 4.42639 6.9043C4.42657 6.6283 4.65036 6.4043 4.92639 6.4043H8.05595ZM9.93355 3.96419L9.98433 3.9668C10.2365 3.99229 10.4334 4.20535 10.4336 4.46419C10.4336 4.72314 10.2365 4.93606 9.98433 4.96159L9.93355 4.96419H4.92639C4.65025 4.96419 4.42639 4.74034 4.42639 4.46419C4.42653 4.18817 4.65034 3.96419 4.92639 3.96419H9.93355ZM13.1953 13.7858C13.1938 13.9074 13.1574 14.0255 13.0918 14.1263C13.0263 14.2269 12.9345 14.3064 12.8281 14.3568C12.7216 14.4071 12.6034 14.427 12.4869 14.4154C12.385 14.4052 12.2871 14.3699 12.2005 14.3138C12.1882 14.3062 12.1751 14.2998 12.1634 14.291L10.2617 12.8698L8.47001 14.3665C8.35296 14.4642 8.20602 14.5163 8.05595 14.5163C7.91572 14.5163 7.77955 14.4692 7.66663 14.3835L7.66598 14.3854L5.60478 12.8665L3.85608 14.2715L3.83134 14.2897C3.7372 14.3562 3.6277 14.3959 3.51428 14.4062C3.40071 14.4165 3.28579 14.397 3.1816 14.349C3.07733 14.3009 2.98648 14.2256 2.91988 14.1296C2.86994 14.0575 2.835 13.976 2.81767 13.89L2.80595 13.8021C2.80534 13.792 2.8053 13.7816 2.8053 13.7715V3.17773C2.8053 2.71726 2.99295 2.27799 3.32288 1.95638C3.65235 1.63525 4.0967 1.45709 4.55725 1.45703H11.4427C11.671 1.45703 11.8977 1.50115 12.1093 1.58659C12.3208 1.67201 12.5139 1.79737 12.677 1.95638C12.8403 2.11554 12.9708 2.30532 13.0599 2.51497C13.149 2.72465 13.1953 2.95 13.1953 3.17773V13.7858Z" fill="#461B02"/>
</svg>
