<svg width="16" height="16" viewBox="0 0 16 16" fill="none" xmlns="http://www.w3.org/2000/svg">
<path d="M4.37225 7.30512C3.97781 7.30512 3.57781 7.16068 3.27225 6.86623C2.25003 5.89401 1.83892 4.8329 2.07781 3.79401C2.36114 2.57179 3.43337 2.02734 4.37225 2.02734C5.31114 2.02734 6.38892 2.57734 6.6667 3.79401C6.90559 4.8329 6.48892 5.89401 5.47225 6.86623C5.1667 7.16068 4.77225 7.30512 4.37225 7.30512ZM2.88892 3.9829C2.67781 4.91068 3.29448 5.7329 3.85003 6.26068C4.14448 6.54401 4.60559 6.53846 4.90003 6.26068C5.45559 5.7329 6.07225 4.91068 5.85559 3.97734C5.6667 3.15512 4.93892 2.86068 4.37781 2.86068C3.81114 2.86068 3.08337 3.15512 2.88892 3.9829Z" fill="#461B02"/>
<path d="M4.39442 4.77517C4.08887 4.77517 3.83887 4.52517 3.83887 4.21962C3.83887 3.91406 4.08331 3.66406 4.39442 3.66406H4.39998C4.70553 3.66406 4.95553 3.91406 4.95553 4.21962C4.95553 4.52517 4.70553 4.77517 4.39442 4.77517Z" fill="#461B02"/>
<path d="M11.6056 13.9708C11.2112 13.9708 10.8112 13.8264 10.5 13.5319C9.47226 12.5597 9.0556 11.4986 9.30004 10.4542C9.58337 9.2375 10.6612 8.6875 11.6056 8.6875C12.55 8.6875 13.6278 9.2375 13.9112 10.4542C14.15 11.4931 13.7334 12.5597 12.7056 13.5264C12.4 13.8264 12.0056 13.9708 11.6056 13.9708ZM11.6056 9.52639C11.0389 9.52639 10.3056 9.82083 10.1112 10.6486C9.89448 11.5764 10.5167 12.4042 11.0723 12.9319C11.3667 13.2153 11.8334 13.2153 12.1334 12.9319C12.6889 12.4042 13.3112 11.5819 13.0945 10.6542C12.9112 9.82083 12.1778 9.52639 11.6056 9.52639Z" fill="#461B02"/>
<path d="M11.6278 11.4431C11.3223 11.4431 11.0723 11.1931 11.0723 10.8876C11.0723 10.582 11.3167 10.332 11.6278 10.332H11.6334C11.9389 10.332 12.1889 10.582 12.1889 10.8876C12.1889 11.1931 11.9334 11.4431 11.6278 11.4431Z" fill="#461B02"/>
<path d="M8.00006 12.3025H6.51117C5.86673 12.3025 5.30562 11.9136 5.0834 11.3136C4.85562 10.7136 5.02228 10.0525 5.50562 9.62474L9.94451 5.74141C10.2112 5.50807 10.2167 5.19141 10.139 4.97474C10.0556 4.75807 9.84451 4.52474 9.48895 4.52474H8.00006C7.77228 4.52474 7.5834 4.33585 7.5834 4.10807C7.5834 3.8803 7.77228 3.69141 8.00006 3.69141H9.48895C10.1334 3.69141 10.6945 4.0803 10.9167 4.6803C11.1445 5.2803 10.9778 5.94141 10.4945 6.36918L6.05562 10.2525C5.78895 10.4858 5.7834 10.8025 5.86117 11.0192C5.94451 11.2359 6.15562 11.4692 6.51117 11.4692H8.00006C8.22784 11.4692 8.41673 11.6581 8.41673 11.8858C8.41673 12.1136 8.22784 12.3025 8.00006 12.3025Z" fill="#461B02"/>
<path d="M8.00006 12.3025H6.51117C5.86673 12.3025 5.30562 11.9136 5.0834 11.3136C4.85562 10.7136 5.02228 10.0525 5.50562 9.62474L9.94451 5.74141C10.2112 5.50807 10.2167 5.19141 10.139 4.97474C10.0556 4.75807 9.84451 4.52474 9.48895 4.52474H8.00006C7.77228 4.52474 7.5834 4.33585 7.5834 4.10807C7.5834 3.8803 7.77228 3.69141 8.00006 3.69141H9.48895C10.1334 3.69141 10.6945 4.0803 10.9167 4.6803C11.1445 5.2803 10.9778 5.94141 10.4945 6.36918L6.05562 10.2525C5.78895 10.4858 5.7834 10.8025 5.86117 11.0192C5.94451 11.2359 6.15562 11.4692 6.51117 11.4692H8.00006C8.22784 11.4692 8.41673 11.6581 8.41673 11.8858C8.41673 12.1136 8.22784 12.3025 8.00006 12.3025Z" fill="#461B02"/>
</svg>
