<svg width="17" height="16" viewBox="0 0 17 16" fill="none" xmlns="http://www.w3.org/2000/svg">
<path d="M5.50391 10.4707C5.03988 10.4707 4.66348 10.8465 4.66341 11.3105C4.66341 11.3262 4.66452 11.3419 4.66536 11.3574C4.66725 11.3731 4.66887 11.3889 4.66927 11.4049C4.71615 11.8246 5.07172 12.151 5.50391 12.151C5.88422 12.151 6.20504 11.8981 6.30859 11.5514C6.29062 11.4999 6.2793 11.4451 6.2793 11.3874C6.2793 11.3087 6.29836 11.2348 6.33073 11.1686C6.26314 10.7723 5.91944 10.4707 5.50391 10.4707ZM11.1836 10.4707C10.7196 10.4707 10.3432 10.8465 10.3431 11.3105C10.347 11.3356 10.3496 11.3612 10.3496 11.3874C10.3496 11.3928 10.3485 11.3982 10.3483 11.4036C10.3946 11.824 10.751 12.151 11.1836 12.151C11.6477 12.151 12.0241 11.7746 12.0241 11.3105C12.024 10.8465 11.6476 10.4707 11.1836 10.4707ZM10.2448 8.66406V5.66602C10.2354 5.62781 10.2292 5.58796 10.2292 5.54688C10.2292 5.50569 10.2354 5.46602 10.2448 5.42773V4.5293C10.2448 4.43774 10.2271 4.34695 10.1921 4.26237C10.1571 4.17787 10.1057 4.10116 10.041 4.03646C9.97628 3.97172 9.89904 3.92045 9.81445 3.88542C9.75111 3.85919 9.68452 3.84201 9.61654 3.83529L9.54818 3.83203H3.69727C3.51237 3.83203 3.33517 3.90572 3.20443 4.03646C3.07368 4.1672 3 4.3444 3 4.5293V10.2207C3.00002 10.4056 3.0737 10.5828 3.20443 10.7135C3.33516 10.8442 3.51241 10.918 3.69727 10.918H3.70703C3.88706 10.0904 4.62244 9.4707 5.50391 9.4707C6.37437 9.47074 7.10158 10.0753 7.29297 10.8874H9.39453C9.58593 10.0753 10.3131 9.47072 11.1836 9.4707C12.0459 9.4707 12.7672 10.0641 12.9668 10.8646H14.0156V8.25586L14.0078 8.16406C13.9927 8.07365 13.9563 7.98764 13.901 7.91341L12.5573 6.1263L12.5247 6.0931C12.5126 6.08325 12.4992 6.07459 12.485 6.06771C12.4569 6.05407 12.4258 6.04685 12.3945 6.04688H11.2448V8.66406C11.2448 8.94021 11.0209 9.16406 10.7448 9.16406C10.4688 9.16391 10.2448 8.94011 10.2448 8.66406ZM11.2448 5.04688H12.3939L12.5299 5.05469C12.6657 5.06999 12.7984 5.10866 12.9219 5.16862C13.0452 5.22852 13.1573 5.30853 13.2533 5.4056L13.3438 5.50846L13.3503 5.51693L14.7005 7.3125L14.7012 7.3138L14.7728 7.41732C14.9294 7.66591 15.0137 7.95451 15.0156 8.25V11.2448C15.0156 11.4092 14.9502 11.5667 14.834 11.6829C14.7178 11.7991 14.5602 11.8646 14.3958 11.8646H12.9388C12.7037 12.6102 12.0069 13.151 11.1836 13.151C10.3688 13.151 9.67893 12.621 9.43685 11.8874H7.25C7.00787 12.6209 6.31859 13.151 5.50391 13.151C4.7006 13.151 4.01931 12.6356 3.76823 11.918H3.69727C3.24719 11.918 2.81567 11.7388 2.4974 11.4206C2.17913 11.1023 2.00002 10.6708 2 10.2207V4.5293C2 4.07918 2.17912 3.64771 2.4974 3.32943C2.81567 3.01115 3.24715 2.83203 3.69727 2.83203H9.54818L9.71419 2.84049C9.87995 2.85682 10.0428 2.89699 10.1973 2.96094C10.4032 3.04623 10.5905 3.17183 10.748 3.32943C10.9055 3.48695 11.0306 3.67378 11.1159 3.87956C11.2012 4.08547 11.2448 4.30642 11.2448 4.5293V5.04688Z" fill="#461B02"/>
</svg>
