<svg width="110" height="110" viewBox="0 0 110 110" fill="none" xmlns="http://www.w3.org/2000/svg">
<path d="M54.9995 2.82031C41.1606 2.82031 27.8885 8.3178 18.1029 18.1034C8.31731 27.889 2.81982 41.1611 2.81982 55C2.81982 68.8389 8.31731 82.111 18.1029 91.8966C27.8885 101.682 41.1606 107.18 54.9995 107.18C68.8384 107.18 82.1105 101.682 91.8961 91.8966C101.682 82.111 107.179 68.8389 107.179 55C107.179 41.1611 101.682 27.889 91.8961 18.1034C82.1105 8.3178 68.8384 2.82031 54.9995 2.82031Z" fill="#F84848" fill-opacity="0.4"/>
<path d="M2.82003 22.5664C2.07199 22.5664 1.35457 22.8636 0.825624 23.3925C0.296674 23.9215 -0.000488281 24.6389 -0.000488281 25.3869C-0.000488281 26.135 0.296674 26.8524 0.825624 27.3813C1.35457 27.9103 2.07199 28.2075 2.82003 28.2075C3.56808 28.2075 4.28549 27.9103 4.81444 27.3813C5.3434 26.8524 5.64056 26.135 5.64056 25.3869C5.64056 24.6389 5.3434 23.9215 4.81444 23.3925C4.28549 22.8636 3.56808 22.5664 2.82003 22.5664Z" fill="#F84848"/>
<path d="M93.0777 1.41026C92.7037 1.41026 92.345 1.55884 92.0805 1.82332C91.8161 2.08779 91.6675 2.4465 91.6675 2.82052C91.6675 3.19455 91.8161 3.55325 92.0805 3.81773C92.345 4.0822 92.7037 4.23078 93.0777 4.23078C93.4518 4.23078 93.8105 4.0822 94.0749 3.81773C94.3394 3.55325 94.488 3.19455 94.488 2.82052C94.488 2.4465 94.3394 2.08779 94.0749 1.82332C93.8105 1.55884 93.4518 1.41026 93.0777 1.41026ZM101.539 0C100.043 0 98.6084 0.594323 97.5505 1.65222C96.4926 2.71012 95.8983 4.14495 95.8983 5.64105C95.8983 7.13714 96.4926 8.57197 97.5505 9.62987C98.6084 10.6878 100.043 11.2821 101.539 11.2821C103.035 11.2821 104.47 10.6878 105.528 9.62987C106.586 8.57197 107.18 7.13714 107.18 5.64105C107.18 4.14495 106.586 2.71012 105.528 1.65222C104.47 0.594323 103.035 0 101.539 0Z" fill="#F84848"/>
<path d="M107.179 15.5117C106.431 15.5117 105.714 15.8089 105.185 16.3378C104.656 16.8668 104.359 17.5842 104.359 18.3322C104.359 19.0803 104.656 19.7977 105.185 20.3267C105.714 20.8556 106.431 21.1528 107.179 21.1528C107.927 21.1528 108.645 20.8556 109.174 20.3267C109.703 19.7977 110 19.0803 110 18.3322C110 17.5842 109.703 16.8668 109.174 16.3378C108.645 15.8089 107.927 15.5117 107.179 15.5117Z" fill="#F84848"/>
<path d="M98.7178 88.8453C97.9698 88.8453 97.2524 89.1425 96.7234 89.6714C96.1945 90.2004 95.8973 90.9178 95.8973 91.6659C95.8973 92.4139 96.1945 93.1313 96.7234 93.6603C97.2524 94.1892 97.9698 94.4864 98.7178 94.4864C99.4659 94.4864 100.183 94.1892 100.712 93.6603C101.241 93.1313 101.538 92.4139 101.538 91.6659C101.538 90.9178 101.241 90.2004 100.712 89.6714C100.183 89.1425 99.4659 88.8453 98.7178 88.8453ZM5.64056 67.6914C4.14446 67.6914 2.70964 68.2857 1.65174 69.3436C0.593834 70.4015 -0.000488281 71.8364 -0.000488281 73.3325C-0.000488281 74.8286 0.593834 76.2634 1.65174 77.3213C2.70964 78.3792 4.14446 78.9735 5.64056 78.9735C7.13666 78.9735 8.57148 78.3792 9.62938 77.3213C10.6873 76.2634 11.2816 74.8286 11.2816 73.3325C11.2816 71.8364 10.6873 70.4015 9.62938 69.3436C8.57148 68.2857 7.13666 67.6914 5.64056 67.6914Z" fill="#F84848"/>
<path d="M19.7429 104.359C18.9948 104.359 18.2774 104.657 17.7485 105.185C17.2195 105.714 16.9224 106.432 16.9224 107.18C16.9224 107.928 17.2195 108.645 17.7485 109.174C18.2774 109.703 18.9948 110 19.7429 110C20.4909 110 21.2083 109.703 21.7373 109.174C22.2662 108.645 22.5634 107.928 22.5634 107.18C22.5634 106.432 22.2662 105.714 21.7373 105.185C21.2083 104.657 20.4909 104.359 19.7429 104.359Z" fill="#F84848"/>
<path d="M10.5769 56.4102C9.64186 56.4102 8.7451 56.7816 8.08391 57.4428C7.42272 58.104 7.05127 59.0007 7.05127 59.9358C7.05127 60.8709 7.42272 61.7676 8.08391 62.4288C8.7451 63.09 9.64186 63.4615 10.5769 63.4615C11.512 63.4615 12.4087 63.09 13.0699 62.4288C13.7311 61.7676 14.1026 60.8709 14.1026 59.9358C14.1026 59.0007 13.7311 58.104 13.0699 57.4428C12.4087 56.7816 11.512 56.4102 10.5769 56.4102Z" fill="white"/>
<path d="M14.1026 77.5625C13.7286 77.5625 13.3699 77.7111 13.1054 77.9756C12.841 78.24 12.6924 78.5987 12.6924 78.9728C12.6924 79.3468 12.841 79.7055 13.1054 79.97C13.3699 80.2344 13.7286 80.383 14.1026 80.383C14.4767 80.383 14.8354 80.2344 15.0999 79.97C15.3643 79.7055 15.5129 79.3468 15.5129 78.9728C15.5129 78.5987 15.3643 78.24 15.0999 77.9756C14.8354 77.7111 14.4767 77.5625 14.1026 77.5625Z" fill="#F84848"/>
<path d="M97.3063 31.0273C96.9322 31.0273 96.5735 31.1759 96.3091 31.4404C96.0446 31.7049 95.896 32.0636 95.896 32.4376C95.896 32.8116 96.0446 33.1703 96.3091 33.4348C96.5735 33.6993 96.9322 33.8479 97.3063 33.8479C97.6803 33.8479 98.039 33.6993 98.3035 33.4348C98.5679 33.1703 98.7165 32.8116 98.7165 32.4376C98.7165 32.0636 98.5679 31.7049 98.3035 31.4404C98.039 31.1759 97.6803 31.0273 97.3063 31.0273Z" fill="white"/>
<path d="M55.0004 21.2148C46.0395 21.2148 37.4457 24.7745 31.1094 31.1108C24.7731 37.4471 21.2134 46.041 21.2134 55.0019C21.2134 63.9628 24.7731 72.5566 31.1094 78.8929C37.4457 85.2292 46.0395 88.7889 55.0004 88.7889C63.9613 88.7889 72.5552 85.2292 78.8915 78.8929C85.2278 72.5566 88.7875 63.9628 88.7875 55.0019C88.7875 46.041 85.2278 37.4471 78.8915 31.1108C72.5552 24.7745 63.9613 21.2148 55.0004 21.2148Z" fill="url(#paint0_linear_1397_702460)"/>
<rect x="58.4834" y="61.0977" width="6.9668" height="22.6421" rx="3.4834" transform="rotate(180 58.4834 61.0977)" fill="white"/>
<rect x="58.4834" y="71.5469" width="6.9668" height="6.9668" rx="3.4834" transform="rotate(180 58.4834 71.5469)" fill="white"/>
<defs>
<linearGradient id="paint0_linear_1397_702460" x1="67.7405" y1="27.7572" x2="24.8211" y2="79.984" gradientUnits="userSpaceOnUse">
<stop stop-color="#FF4B4B"/>
<stop offset="1" stop-color="#B22929"/>
</linearGradient>
</defs>
</svg>
