<svg width="16" height="16" viewBox="0 0 16 16" fill="none" xmlns="http://www.w3.org/2000/svg">
<path d="M6.91642 0.915006C10.1629 0.4171 13.3529 2.19715 14.6202 5.2568L14.7361 5.55433C15.8217 8.54186 14.8046 11.8938 12.2419 13.7744L11.9809 13.9573C9.22715 15.7971 5.58572 15.5045 3.16317 13.2868L2.93205 13.066C1.67221 11.8061 0.929938 10.125 0.842204 8.35381L0.83374 7.99834C0.834052 4.57975 3.24905 1.63714 6.60197 0.970345L6.91642 0.915006ZM10.9796 5.42347C11.1749 5.22829 11.4914 5.22821 11.6866 5.42347C11.8816 5.61872 11.8817 5.9353 11.6866 6.1305L7.24194 10.5739C7.04668 10.769 6.73015 10.7691 6.53491 10.5739L4.31291 8.35186C4.11796 8.15659 4.11781 7.83999 4.31291 7.64482C4.50817 7.44956 4.82533 7.44956 5.02059 7.64482L6.88843 9.51331L10.9796 5.42347ZM1.84155 8.30433C1.91706 9.82837 2.55568 11.2749 3.63973 12.359L3.83765 12.5485C5.9221 14.4571 9.05528 14.709 11.4249 13.1259L11.6501 12.9684C13.8551 11.3502 14.7301 8.46605 13.796 5.89548L13.6964 5.63962C12.6059 3.00678 9.86102 1.47541 7.06746 1.90394L6.79728 1.95146C3.9122 2.52514 1.83405 5.0568 1.83374 7.99834L1.84155 8.30433Z" fill="#461B02"/>
</svg>
