<svg width="16" height="16" viewBox="0 0 16 16" fill="none" xmlns="http://www.w3.org/2000/svg">
<path d="M10.2223 11.2057C11.1436 11.2057 11.9158 11.835 12.1377 12.6868H14.6656C14.9417 12.687 15.1656 12.9108 15.1656 13.1868C15.1656 13.4629 14.9417 13.6867 14.6656 13.6868H12.1377C11.9159 14.5388 11.1437 15.1686 10.2223 15.1686C9.30099 15.1685 8.52931 14.5387 8.30758 13.6868H1.33362C1.05748 13.6868 0.833613 13.463 0.833618 13.1868C0.833644 12.9107 1.05749 12.6868 1.33362 12.6868H8.30758C8.52943 11.8351 9.30112 11.2058 10.2223 11.2057ZM10.2223 12.2057C9.68043 12.2058 9.24127 12.645 9.24117 13.1868C9.24117 13.7288 9.68037 14.1685 10.2223 14.1686C10.7602 14.1686 11.1962 13.7356 11.2028 13.1992V13.1738C11.1957 12.6379 10.7599 12.2057 10.2223 12.2057ZM5.03674 6.02083C5.95803 6.02083 6.73027 6.65013 6.95211 7.50195H14.6663L14.7177 7.50456C14.9698 7.53015 15.1662 7.74315 15.1663 8.00195C15.1663 8.26082 14.9698 8.47373 14.7177 8.49935L14.6663 8.50195H6.95211C6.73035 9.35389 5.95811 9.98372 5.03674 9.98372C4.11552 9.98358 3.34376 9.35379 3.12203 8.50195H1.33362C1.05748 8.50195 0.833627 8.27809 0.833618 8.00195C0.83372 7.7259 1.05754 7.50196 1.33362 7.50195H3.12203C3.34384 6.65023 4.1156 6.02098 5.03674 6.02083ZM5.03674 7.02083C4.49493 7.02101 4.05569 7.46011 4.05562 8.00195C4.05562 8.54385 4.49489 8.98355 5.03674 8.98372C5.57874 8.98372 6.01851 8.54395 6.01851 8.00195C6.01845 7.46001 5.5787 7.02083 5.03674 7.02083ZM9.4814 0.835938C10.4025 0.83603 11.1742 1.46538 11.3961 2.31706L14.6663 2.31771C14.9424 2.31771 15.1663 2.54157 15.1663 2.81771C15.1661 3.09371 14.9423 3.31771 14.6663 3.31771L11.3961 3.31706C11.1744 4.16899 10.4027 4.79874 9.4814 4.79883C8.55992 4.79883 7.78704 4.16916 7.56539 3.31706L1.33362 3.31771L1.28219 3.3151C1.0303 3.28938 0.833781 3.07635 0.833618 2.81771C0.833615 2.54157 1.05748 2.31771 1.33362 2.31771L7.56539 2.31706C7.78721 1.4652 8.5601 0.835938 9.4814 0.835938ZM9.4814 1.83594C8.93949 1.83594 8.49977 2.27518 8.49963 2.81706C8.49963 3.35906 8.9394 3.79883 9.4814 3.79883C10.0233 3.79872 10.4625 3.35899 10.4625 2.81706C10.4624 2.27524 10.0232 1.83605 9.4814 1.83594Z" fill="#461B02"/>
</svg>
