<svg width="24" height="25" viewBox="0 0 24 25" fill="none" xmlns="http://www.w3.org/2000/svg">
<g opacity="0.9">
<path d="M14.9999 10.3514C14.9192 10.3514 14.8423 10.336 14.7694 10.3124C14.751 10.3064 14.7318 10.3022 14.7138 10.2948C14.6903 10.2851 14.6687 10.2716 14.6464 10.2596C14.5835 10.2258 14.5228 10.1848 14.4696 10.1317C14.4385 10.1005 14.4112 10.0669 14.3866 10.0321C14.3553 9.98752 14.3287 9.93951 14.3075 9.88854C14.2868 9.83855 14.272 9.78682 14.2626 9.73424C14.2549 9.69113 14.2499 9.64676 14.2499 9.60143V5.60143C14.25 5.18732 14.5858 4.85151 14.9999 4.85143C15.4141 4.85143 15.7498 5.18727 15.7499 5.60143V7.79088L20.4696 3.07115C20.7625 2.77832 21.2373 2.77841 21.5302 3.07115C21.8231 3.36404 21.8231 3.83881 21.5302 4.1317L16.8105 8.85143H18.9999C19.4141 8.85143 19.7498 9.18727 19.7499 9.60143C19.7499 10.0156 19.4141 10.3514 18.9999 10.3514H14.9999Z" fill="#461B02"/>
<path d="M3.53019 22.1317C3.2373 22.4246 2.76253 22.4246 2.46964 22.1317C2.17681 21.8388 2.17677 21.364 2.46964 21.0712L7.18937 16.3514H4.99992C4.5857 16.3514 4.24992 16.0156 4.24992 15.6014C4.24998 15.1873 4.58574 14.8514 4.99992 14.8514H8.99992L9.07706 14.8553L9.1796 14.8758C9.20323 14.8817 9.22626 14.8883 9.24894 14.8963C9.26945 14.9036 9.28954 14.9117 9.30949 14.9208C9.33511 14.9324 9.35972 14.9455 9.3837 14.9598C9.40482 14.9725 9.42615 14.985 9.4462 14.9999C9.45106 15.0035 9.45609 15.0069 9.46085 15.0106C9.48475 15.0293 9.50819 15.0492 9.53019 15.0712C9.53639 15.0774 9.54183 15.0843 9.54777 15.0907C9.55263 15.0959 9.5577 15.101 9.56242 15.1063C9.58707 15.1343 9.60904 15.1637 9.62882 15.1942C9.64767 15.2232 9.6629 15.2544 9.67765 15.286C9.68368 15.2989 9.69193 15.3109 9.69718 15.3241C9.70644 15.3473 9.71174 15.372 9.71867 15.3963C9.73777 15.4635 9.7499 15.5321 9.74992 15.6014V19.6014C9.74992 20.0156 9.41413 20.3514 8.99992 20.3514C8.5857 20.3514 8.24992 20.0156 8.24992 19.6014V17.412L3.53019 22.1317Z" fill="#461B02"/>
</g>
</svg>
