<svg width="24" height="24" viewBox="0 0 24 24" fill="none" xmlns="http://www.w3.org/2000/svg">
<path fill-rule="evenodd" clip-rule="evenodd" d="M8.08121 12.5182C7.94545 12.3824 7.8613 12.195 7.86201 11.9878C7.86201 11.5735 8.19718 11.2383 8.61154 11.2383H15.3885C15.8028 11.2383 16.138 11.5735 16.138 11.9878C16.138 12.4022 15.8028 12.7374 15.3885 12.7374H8.61154C8.40436 12.7381 8.21698 12.6539 8.08121 12.5182Z" fill="#461B02"/>
<path fill-rule="evenodd" clip-rule="evenodd" d="M7.66499 3.5C5.13499 3.5 3.49999 5.233 3.49999 7.916V16.084C3.49999 18.767 5.13499 20.5 7.66499 20.5H16.333C18.864 20.5 20.5 18.767 20.5 16.084V7.916C20.5 5.233 18.864 3.5 16.334 3.5H7.66499ZM16.333 22H7.665C4.276 22 2 19.622 2 16.084V7.916C2 4.378 4.276 2 7.665 2H16.334C19.723 2 22 4.378 22 7.916V16.084C22 19.622 19.723 22 16.333 22Z" fill="#461B02"/>
</svg>
