<svg width="12" height="14" viewBox="0 0 12 14" fill="none" xmlns="http://www.w3.org/2000/svg">
<path d="M5.29395 0.335938C8.21765 0.335938 10.5876 2.69208 10.5879 5.59863C10.5879 6.9886 10.0445 8.25146 9.15918 9.19238L11.8457 12.5293C12.0889 12.8319 12.0396 13.2736 11.7354 13.5156C11.4311 13.7576 10.9868 13.7086 10.7432 13.4062L8.06738 10.082C7.26075 10.5764 6.31107 10.8623 5.29395 10.8623C2.37016 10.8622 0 8.50534 0 5.59863C0.000247339 2.69214 2.37032 0.336027 5.29395 0.335938ZM5.29395 1.73926C3.15001 1.73935 1.41236 3.46727 1.41211 5.59863C1.41211 7.7302 3.14986 9.4589 5.29395 9.45898C7.43811 9.45898 9.17676 7.73026 9.17676 5.59863C9.17651 3.46722 7.43795 1.73926 5.29395 1.73926Z" fill="#555555"/>
</svg>
