<svg width="7" height="13" viewBox="0 0 7 13" fill="none" xmlns="http://www.w3.org/2000/svg">
<path d="M5.37481 6.44212C5.3748 6.34672 5.33475 6.24437 5.24541 6.16054L0.700327 1.95888C0.446936 1.72456 0.431856 1.32934 0.666148 1.07591C0.900473 0.822457 1.29567 0.806593 1.54912 1.04092L6.09339 5.24258L6.09502 5.2442L6.21302 5.36546C6.47376 5.66135 6.62481 6.04036 6.62481 6.44212C6.62481 6.90113 6.42776 7.33051 6.09502 7.64004L6.09339 7.64166L1.4238 11.9589C1.17034 12.193 0.77509 12.1773 0.540822 11.9239C0.306681 11.6704 0.322426 11.2752 0.575816 11.0409L5.24541 6.7237C5.33475 6.63987 5.37481 6.53752 5.37481 6.44212Z" fill="currentColor"/>
</svg>
