<svg width="25" height="27" viewBox="0 0 25 27" fill="none" xmlns="http://www.w3.org/2000/svg">
<rect x="4.25" y="19.7917" width="16.5" height="3.66667" rx="0.916667" fill="#28283F"/>
<path d="M6.08398 11.5417C6.08398 7.99785 8.95682 5.125 12.5007 5.125C16.0445 5.125 18.9173 7.99784 18.9173 11.5417V19.7917H6.08398V11.5417Z" fill="#EE4343"/>
<path d="M11.2618 9.24318C11.1886 8.51064 11.7638 7.875 12.5 7.875C13.2362 7.875 13.8114 8.51064 13.7382 9.24318L13.2559 14.0659C13.2171 14.4543 12.8903 14.75 12.5 14.75C12.1097 14.75 11.7829 14.4543 11.7441 14.0659L11.2618 9.24318Z" fill="white"/>
<circle cx="12.4987" cy="16.125" r="0.916667" fill="white"/>
<rect x="1.5" y="11.5417" width="3.66667" height="1.83333" rx="0.916667" fill="#EE4343"/>
<rect x="19.834" y="11.5417" width="3.66667" height="1.83333" rx="0.916667" fill="#EE4343"/>
<rect x="17.9531" y="5.70806" width="3.66667" height="1.83333" rx="0.916667" transform="rotate(-45 17.9531 5.70806)" fill="#EE4343"/>
<rect x="11.584" y="4.20833" width="3.66667" height="1.83333" rx="0.916667" transform="rotate(-90 11.584 4.20833)" fill="#EE4343"/>
<rect x="5.75" y="7.00443" width="3.66667" height="1.83333" rx="0.916667" transform="rotate(-135 5.75 7.00443)" fill="#EE4343"/>
<mask id="mask0_2476_45386" style="mask-type:alpha" maskUnits="userSpaceOnUse" x="6" y="5" width="13" height="15">
<path d="M6.08398 11.5417C6.08398 7.99785 8.95682 5.125 12.5007 5.125C16.0445 5.125 18.9173 7.99784 18.9173 11.5417V19.7917H6.08398V11.5417Z" fill="#EE4343"/>
</mask>
<g mask="url(#mask0_2476_45386)">
<path d="M7.00929 19.7917C6.68385 19.8025 6.37408 19.802 6.08398 19.7917H7.00929C11.4828 19.642 18.9173 17.3367 18.9173 8.79166V19.7917H7.00929Z" fill="#F22C25"/>
</g>
</svg>
