<svg width="201" height="221" viewBox="0 0 201 221" fill="none" xmlns="http://www.w3.org/2000/svg">
<path d="M200.152 27.4993C200.58 24.9065 200.229 22.2451 199.144 19.8518C198.059 17.4586 196.288 15.4412 194.055 14.0549C191.823 12.6686 189.229 11.9758 186.603 12.0642C183.977 12.1525 181.436 13.0181 179.301 14.5513C177.167 16.0845 175.536 18.2165 174.614 20.6773C173.692 23.1381 173.521 25.8171 174.122 28.3752C174.723 30.9333 176.07 33.2556 177.991 35.048C179.913 36.8404 182.323 38.0224 184.917 38.4444C186.636 38.729 188.395 38.6714 190.092 38.275C191.789 37.8786 193.391 37.1511 194.807 36.1343C196.222 35.1175 197.423 33.8313 198.34 32.3496C199.257 30.8678 199.873 29.2195 200.152 27.4993Z" fill="#FFC217"/>
<path d="M162.833 6.36334C163.009 5.2949 162.865 4.19819 162.417 3.21201C161.97 2.22584 161.24 1.39453 160.32 0.823312C159.4 0.252096 158.332 -0.0333504 157.249 0.00310265C156.167 0.0395557 155.12 0.396269 154.24 1.02809C153.361 1.65992 152.689 2.53845 152.309 3.55249C151.929 4.56653 151.858 5.67049 152.106 6.72464C152.354 7.7788 152.909 8.73575 153.701 9.47438C154.493 10.213 155.486 10.7001 156.555 10.874C157.263 10.9913 157.988 10.9676 158.687 10.8042C159.387 10.6409 160.047 10.3411 160.63 9.92202C161.213 9.50296 161.708 8.97291 162.086 8.36224C162.464 7.75156 162.718 7.07228 162.833 6.36334Z" fill="#FFC217"/>
<path opacity="0.1" d="M97.4117 221C115.752 220.944 133.665 215.454 148.887 205.223C164.11 194.993 175.959 180.481 182.939 163.52C189.919 146.559 191.715 127.91 188.103 109.929C184.49 91.9471 175.63 75.4394 162.641 62.4904C149.652 49.5414 133.118 40.7319 115.125 37.1744C97.1325 33.617 78.4893 35.4712 61.55 42.5029C44.6106 49.5346 30.1349 61.4284 19.9511 76.6821C9.76729 91.9358 4.33212 109.865 4.33203 128.206C4.37027 152.854 14.1982 176.478 31.6539 193.88C49.1097 211.282 72.7634 221.038 97.4117 221Z" fill="#2626BC"/>
<path d="M162.022 161.957C174.894 149.045 183.652 132.608 187.188 114.722C190.725 96.8356 188.882 78.3026 181.891 61.4634C174.901 44.6242 163.078 30.2341 147.914 20.1105C132.751 9.98696 114.927 4.58398 96.6947 4.58398C78.4623 4.58398 60.6388 9.98696 45.4753 20.1105C30.3117 30.2341 18.4882 44.6242 11.4981 61.4634C4.50795 78.3026 2.6647 96.8356 6.20112 114.722C9.73755 132.608 18.495 149.045 31.3675 161.957C39.9139 170.593 50.0881 177.45 61.3013 182.129C72.5146 186.808 84.5443 189.217 96.6947 189.217C108.845 189.217 120.875 186.808 132.088 182.129C143.301 177.45 153.476 170.593 162.022 161.957Z" fill="#FFC217"/>
<path d="M50.0059 93.8365C50.0361 92.1579 50.3969 90.5018 51.0679 88.9629C51.7388 87.424 52.7066 86.0325 53.9159 84.868C55.1252 83.7036 56.5522 82.789 58.1154 82.1766C59.6785 81.5643 61.3471 81.2662 63.0255 81.2994C64.6923 81.2695 66.3484 81.5714 67.8973 82.1877C69.4463 82.8039 70.8571 83.7221 72.0478 84.8889C73.2385 86.0556 74.1851 87.4476 74.8327 88.9837C75.4803 90.5198 75.8158 92.1694 75.8197 93.8365V106.478C75.8889 111.97 78.1191 117.213 82.027 121.072C85.935 124.931 91.206 127.095 96.6982 127.095C102.19 127.095 107.461 124.931 111.369 121.072C115.277 117.213 117.508 111.97 117.577 106.478V93.8365C117.607 92.1579 117.968 90.5018 118.639 88.9629C119.31 87.424 120.278 86.0325 121.487 84.868C122.696 83.7036 124.123 82.789 125.686 82.1766C127.249 81.5643 128.918 81.2662 130.596 81.2994C132.263 81.2695 133.919 81.5714 135.468 82.1877C137.017 82.8039 138.428 83.7221 139.619 84.8889C140.809 86.0556 141.756 87.4476 142.404 88.9837C143.051 90.5198 143.387 92.1694 143.391 93.8365V106.478C143.309 112.527 142.036 118.501 139.645 124.058C137.253 129.615 133.791 134.647 129.455 138.866C125.118 143.084 119.994 146.407 114.373 148.645C108.752 150.883 102.746 151.991 96.6966 151.907C90.6477 151.991 84.6416 150.882 79.0212 148.644C73.4009 146.406 68.2765 143.083 63.9407 138.864C59.6048 134.646 56.1426 129.614 53.7516 124.057C51.3606 118.5 50.0878 112.527 50.0059 106.478V93.8365Z" fill="#176CF7"/>
<path d="M63.004 75.4908C65.5652 75.4829 68.0666 74.7162 70.1923 73.2876C72.3181 71.8589 73.9728 69.8324 74.9475 67.4639C75.9222 65.0954 76.1731 62.4912 75.6686 59.9801C75.1641 57.4691 73.9268 55.1639 72.113 53.3556C70.2992 51.5473 67.9902 50.3171 65.4776 49.8203C62.965 49.3235 60.3616 49.5825 57.9961 50.5644C55.6306 51.5464 53.6091 53.2073 52.187 55.3374C50.7649 57.4675 50.0059 59.9713 50.0059 62.5325C50.0085 64.2368 50.3467 65.9239 51.0014 67.4975C51.656 69.0711 52.6142 70.5003 53.8212 71.7036C55.0281 72.9069 56.4603 73.8607 58.0359 74.5105C59.6115 75.1603 61.2996 75.4934 63.004 75.4908Z" fill="#176CF7"/>
<path d="M130.391 75.4908C132.952 75.4829 135.453 74.7162 137.579 73.2876C139.705 71.8589 141.36 69.8324 142.334 67.4639C143.309 65.0954 143.56 62.4912 143.055 59.9801C142.551 57.4691 141.314 55.1639 139.5 53.3556C137.686 51.5473 135.377 50.3171 132.864 49.8203C130.352 49.3235 127.748 49.5825 125.383 50.5644C123.017 51.5464 120.996 53.2073 119.574 55.3374C118.152 57.4675 117.393 59.9713 117.393 62.5325C117.395 64.2368 117.733 65.9239 118.388 67.4975C119.043 69.0711 120.001 70.5003 121.208 71.7036C122.415 72.9069 123.847 73.8607 125.423 74.5105C126.998 75.1603 128.686 75.4934 130.391 75.4908Z" fill="#176CF7"/>
<path d="M50.0059 93.8365C50.0361 92.1579 50.3969 90.5018 51.0679 88.9629C51.7388 87.424 52.7066 86.0325 53.9159 84.868C55.1252 83.7036 56.5522 82.789 58.1154 82.1766C59.6785 81.5643 61.3471 81.2662 63.0255 81.2994C64.6923 81.2695 66.3484 81.5714 67.8973 82.1877C69.4463 82.8039 70.8571 83.7221 72.0478 84.8889C73.2385 86.0556 74.1851 87.4476 74.8327 88.9837C75.4803 90.5198 75.8158 92.1694 75.8197 93.8365V106.478C75.8889 111.97 78.1191 117.213 82.027 121.072C85.935 124.931 91.206 127.095 96.6982 127.095C102.19 127.095 107.461 124.931 111.369 121.072C115.277 117.213 117.508 111.97 117.577 106.478V93.8365C117.607 92.1579 117.968 90.5018 118.639 88.9629C119.31 87.424 120.278 86.0325 121.487 84.868C122.696 83.7036 124.123 82.789 125.686 82.1766C127.249 81.5643 128.918 81.2662 130.596 81.2994C132.263 81.2695 133.919 81.5714 135.468 82.1877C137.017 82.8039 138.428 83.7221 139.619 84.8889C140.809 86.0556 141.756 87.4476 142.404 88.9837C143.051 90.5198 143.387 92.1694 143.391 93.8365V106.478C143.309 112.527 142.036 118.501 139.645 124.058C137.253 129.615 133.791 134.647 129.455 138.866C125.118 143.084 119.994 146.407 114.373 148.645C108.752 150.883 102.746 151.991 96.6966 151.907C90.6477 151.991 84.6416 150.882 79.0212 148.644C73.4009 146.406 68.2765 143.083 63.9407 138.864C59.6048 134.646 56.1426 129.614 53.7516 124.057C51.3606 118.5 50.0878 112.527 50.0059 106.478V93.8365Z" fill="#307CFE"/>
<path d="M63.004 75.4908C65.5652 75.4829 68.0666 74.7162 70.1923 73.2876C72.3181 71.8589 73.9728 69.8324 74.9475 67.4639C75.9222 65.0954 76.1731 62.4912 75.6686 59.9801C75.1641 57.4691 73.9268 55.1639 72.113 53.3556C70.2992 51.5473 67.9902 50.3171 65.4776 49.8203C62.965 49.3235 60.3616 49.5825 57.9961 50.5644C55.6306 51.5464 53.6091 53.2073 52.187 55.3374C50.7649 57.4675 50.0059 59.9713 50.0059 62.5325C50.0085 64.2368 50.3467 65.9239 51.0014 67.4975C51.656 69.0711 52.6142 70.5003 53.8212 71.7036C55.0281 72.9069 56.4603 73.8607 58.0359 74.5105C59.6115 75.1603 61.2996 75.4934 63.004 75.4908Z" fill="#307CFE"/>
<path d="M130.391 75.4908C132.952 75.4829 135.453 74.7162 137.579 73.2876C139.705 71.8589 141.36 69.8324 142.334 67.4639C143.309 65.0954 143.56 62.4912 143.055 59.9801C142.551 57.4691 141.314 55.1639 139.5 53.3556C137.686 51.5473 135.377 50.3171 132.864 49.8203C130.352 49.3235 127.748 49.5825 125.383 50.5644C123.017 51.5464 120.996 53.2073 119.574 55.3374C118.152 57.4675 117.393 59.9713 117.393 62.5325C117.395 64.2368 117.733 65.9239 118.388 67.4975C119.043 69.0711 120.001 70.5003 121.208 71.7036C122.415 72.9069 123.847 73.8607 125.423 74.5105C126.998 75.1603 128.686 75.4934 130.391 75.4908Z" fill="#307CFE"/>
<path d="M96.6968 193.155C77.6582 193.096 59.0642 187.396 43.2631 176.776C27.462 166.155 15.1626 151.091 7.91804 133.484C0.673535 115.878 -1.19106 96.5193 2.55976 77.8538C6.31058 59.1883 15.5086 42.0529 28.9921 28.6118C42.4756 15.1706 59.6398 6.0266 78.317 2.33452C96.9942 -1.35756 116.347 0.567914 133.93 7.86777C151.514 15.1676 166.54 27.5144 177.11 43.3489C187.681 59.1833 193.322 77.7951 193.322 96.8338C193.254 122.412 183.042 146.918 164.928 164.976C146.813 183.033 122.275 193.168 96.6968 193.155ZM96.6968 8.95305C79.3268 9.00648 62.3622 14.2061 47.9456 23.8952C33.529 33.5844 22.307 47.3284 15.6969 63.3916C9.08674 79.4547 7.38499 97.1164 10.8065 114.146C14.2281 131.176 22.6195 146.81 34.9209 159.073C47.2224 171.337 62.8821 179.68 79.9223 183.049C96.9625 186.418 114.619 184.661 130.661 178.001C146.704 171.342 160.413 160.077 170.058 145.631C179.702 131.184 184.85 114.204 184.849 96.8338C184.787 73.4982 175.471 51.1403 158.945 34.6649C142.419 18.1895 120.032 8.94208 96.6968 8.95139V8.95305Z" fill="white"/>
<path d="M37.4414 195.556C37.8693 192.963 37.5184 190.302 36.4331 187.908C35.3478 185.515 33.5769 183.498 31.3445 182.112C29.1122 180.725 26.5187 180.032 23.8925 180.121C21.2662 180.209 18.7251 181.075 16.5909 182.608C14.4567 184.141 12.8253 186.272 11.9032 188.733C10.981 191.194 10.8096 193.873 11.4106 196.431C12.0116 198.989 13.3581 201.311 15.2795 203.104C17.2009 204.896 19.6109 206.078 22.2046 206.501C23.924 206.785 25.6826 206.727 27.3797 206.331C29.0767 205.934 30.6789 205.207 32.0944 204.19C33.5098 203.173 34.7107 201.887 35.6282 200.406C36.5458 198.924 37.162 197.276 37.4414 195.556Z" fill="#FFC217"/>
<path d="M59.9502 199.193C60.1265 198.125 59.9818 197.028 59.5345 196.042C59.0872 195.056 58.3574 194.225 57.4374 193.653C56.5175 193.082 55.4487 192.797 54.3664 192.833C53.2842 192.87 52.2371 193.226 51.3576 193.858C50.4782 194.49 49.8059 195.369 49.426 196.383C49.0461 197.397 48.9755 198.501 49.2233 199.555C49.4711 200.609 50.026 201.566 50.8178 202.304C51.6097 203.043 52.6029 203.53 53.6717 203.704C54.3803 203.821 55.105 203.798 55.8044 203.634C56.5038 203.471 57.1641 203.171 57.7473 202.752C58.3306 202.333 58.8254 201.803 59.2035 201.192C59.5815 200.582 59.8352 199.902 59.9502 199.193Z" fill="#FFC217"/>
</svg>
