<svg width="40" height="41" viewBox="0 0 40 41" fill="none" xmlns="http://www.w3.org/2000/svg">
<g clip-path="url(#clip0_685_137854)">
<path d="M19.2897 6.26786C19.2898 5.85803 19.1271 5.46494 18.8374 5.17507C18.5477 4.8852 18.1547 4.72228 17.7449 4.72217C17.542 4.72211 17.341 4.76202 17.1535 4.83963C16.966 4.91723 16.7956 5.031 16.6521 5.17445C16.3622 5.46416 16.1993 5.85715 16.1992 6.26698C16.1992 7.12011 17.7444 10.0006 17.7444 10.0006C17.7444 10.0006 19.2897 7.12098 19.2897 6.26786ZM17.0059 6.26786C17.0025 6.1688 17.019 6.07005 17.0545 5.97751C17.09 5.88496 17.1437 5.80051 17.2126 5.72919C17.2814 5.65786 17.3639 5.60112 17.4551 5.56235C17.5463 5.52358 17.6444 5.50356 17.7435 5.50351C17.8427 5.50345 17.9408 5.52334 18.0321 5.56201C18.1233 5.60067 18.2059 5.65731 18.2748 5.72856C18.3437 5.7998 18.3976 5.88419 18.4332 5.97669C18.4688 6.06919 18.4854 6.16792 18.4821 6.26698C18.4756 6.45833 18.395 6.63969 18.2574 6.77281C18.1198 6.90592 17.9359 6.98039 17.7444 6.9805C17.553 6.98062 17.3689 6.90637 17.2312 6.77342C17.0934 6.64046 17.0126 6.4592 17.0059 6.26786ZM21.1211 19.1829C20.6311 19.1829 20.1612 19.224 19.7298 19.2905L8.71269 15.2287C8.88769 15.0712 8.98569 14.8962 8.98569 14.7125C8.98355 14.6156 8.95707 14.5208 8.90869 14.4369L16.2674 12.4786C16.6699 12.5985 17.1626 12.6711 17.7077 12.6711C19.0377 12.6711 20.1139 12.2476 20.1139 11.7244C20.1139 11.1994 19.0377 10.7767 17.7077 10.7767C16.3777 10.7767 15.3014 11.2011 15.3014 11.7244C15.3026 11.7856 15.3184 11.8445 15.3487 11.9011L7.65919 13.6747C7.01465 13.492 6.34722 13.4027 5.67731 13.4096C3.85119 13.4096 2.36981 13.9932 2.36981 14.7134C2.36981 15.4335 3.85119 16.0171 5.67731 16.0171C6.17956 16.0171 6.64856 15.969 7.07556 15.8902L17.5668 20.148C17.4006 20.316 17.2991 20.498 17.2991 20.6931C17.2991 20.8594 17.3831 21.0116 17.5056 21.1595L6.60831 25.2379C6.47064 25.2326 6.33152 25.2297 6.19094 25.2291C3.35594 25.2291 1.05469 26.1356 1.05469 27.2504C1.05469 28.3677 3.35594 29.2742 6.19094 29.2742C9.02594 29.2742 11.3272 28.3695 11.3272 27.2512C11.3272 27.0587 11.2546 26.8732 11.1259 26.6974L20.1087 22.1351C20.4324 22.1701 20.7676 22.192 21.1193 22.192C23.2307 22.192 24.9431 21.5182 24.9431 20.6844C24.9431 19.8584 23.2307 19.1829 21.1193 19.1829H21.1211Z" fill="url(#paint0_linear_685_137854)"/>
<rect x="32.2178" y="32.2646" width="1.86609" height="1.06634" fill="white"/>
<circle cx="11.557" cy="37.2838" r="0.999424" fill="white"/>
<circle cx="16.8881" cy="37.2838" r="0.999424" fill="white"/>
<circle cx="29.3266" cy="37.2838" r="0.999424" fill="white"/>
<rect x="30.6592" y="32.1748" width="1.77675" height="2.33199" fill="#FFC217"/>
<path d="M26.4385 31.6213V27.0684H29.7144L32.1019 31.1771V31.6213H26.4385Z" fill="white"/>
<path fill-rule="evenodd" clip-rule="evenodd" d="M26.0321 26.3982L29.6222 26.4278L29.7953 26.5563C29.9139 26.6502 30.3293 27.3025 31.2442 28.8541C31.9513 30.045 32.5546 31.053 32.5892 31.0975C32.6436 31.1519 32.6535 31.6855 32.6584 33.6424C32.6584 35.7326 32.6486 36.1427 32.5843 36.3206C32.5447 36.4343 32.4458 36.6122 32.3716 36.711C32.2975 36.8098 32.1244 36.9531 31.9909 37.0322C31.8524 37.1112 31.704 37.1705 31.6546 37.1705C31.5903 37.1755 31.5705 37.131 31.5705 37.0124C31.5705 36.9235 31.526 36.7209 31.4667 36.5578C31.4123 36.3947 31.2936 36.1477 31.2095 36.0142C31.1205 35.8808 30.9524 35.6881 30.8288 35.5794C30.7051 35.4756 30.4727 35.3224 30.3095 35.2434C30.1365 35.1594 29.8645 35.0803 29.6667 35.0507C29.4491 35.026 29.2018 35.026 28.9991 35.0556C28.8211 35.0803 28.5343 35.1742 28.3562 35.2631C28.1832 35.3472 27.9211 35.53 27.7826 35.6683C27.6145 35.8265 27.4612 36.0439 27.3474 36.286C27.2387 36.5133 27.1546 36.7752 27.0952 37.2743H26.0321V26.3982ZM26.8678 31.2408C30.7892 31.2408 31.615 31.226 31.615 31.1914C31.615 31.1667 31.1403 30.3415 30.5667 29.3631L29.5134 27.5891L26.8678 27.5841V31.2408ZM31.2095 33.2322C31.2145 33.6028 31.2343 33.7066 31.3035 33.7758C31.3727 33.84 31.4815 33.8598 31.7535 33.8598H32.1095V32.6244C31.5557 32.6244 31.4024 32.6491 31.3233 32.7035C31.2145 32.7727 31.2046 32.8072 31.2095 33.2322ZM27.1595 33.2569C27.1645 33.3162 27.2189 33.4249 27.2881 33.4892C27.4018 33.6028 27.4463 33.6127 27.8815 33.6127C28.1584 33.6127 28.4057 33.588 28.4799 33.5534C28.5491 33.5188 28.6183 33.4348 28.6381 33.3656C28.6529 33.3014 28.6628 33.2124 28.6529 33.168C28.648 33.1284 28.6035 33.0543 28.559 33.0049C28.4898 32.9308 28.3909 32.9209 27.8963 32.9209C27.3573 32.9209 27.3128 32.9308 27.2387 33.0346C27.1941 33.0939 27.1595 33.1927 27.1595 33.2569ZM11.6122 35.6041C11.9139 35.614 12.0721 35.6486 12.2798 35.7474C12.4381 35.8265 12.6408 35.9747 12.7644 36.118C12.8831 36.2465 13.0216 36.459 13.0809 36.5776C13.1452 36.7209 13.1947 36.9383 13.2095 37.1705C13.2243 37.4621 13.2095 37.6005 13.1304 37.8129C13.071 37.9661 12.9573 38.1737 12.8683 38.2824C12.7842 38.3911 12.6309 38.5393 12.532 38.6134C12.4331 38.6826 12.2304 38.7913 12.082 38.8457C11.9188 38.9099 11.6963 38.9495 11.5282 38.9495C11.3155 38.9495 11.1573 38.9099 10.91 38.8012C10.7221 38.7172 10.4897 38.569 10.3809 38.4652C10.2771 38.3664 10.1287 38.149 10.0496 37.9859C9.97047 37.8228 9.8963 37.5807 9.87652 37.4423C9.86168 37.304 9.87157 37.0668 9.91113 36.8988C9.95069 36.7159 10.0397 36.5084 10.1485 36.3503C10.2474 36.2119 10.4056 36.034 10.4996 35.9549C10.5936 35.8759 10.7914 35.7622 10.9447 35.698C11.1672 35.609 11.2908 35.5893 11.6122 35.6041ZM10.9298 36.9729C10.8754 37.0767 10.8507 37.215 10.8606 37.3188C10.8705 37.4176 10.9249 37.5609 10.9793 37.64C11.0337 37.724 11.1672 37.8327 11.271 37.8821C11.4045 37.9464 11.5183 37.9661 11.637 37.9414C11.7309 37.9266 11.8595 37.8772 11.9238 37.8376C11.9831 37.7981 12.0771 37.6943 12.1315 37.6054C12.1859 37.5164 12.2304 37.3682 12.2304 37.2694C12.2304 37.1755 12.1908 37.0223 12.1364 36.9235C12.087 36.8296 11.9683 36.711 11.8793 36.6665C11.7853 36.6171 11.632 36.5776 11.5331 36.5776C11.4342 36.5776 11.2859 36.627 11.187 36.6912C11.093 36.7505 10.9793 36.879 10.9298 36.9729ZM16.9035 35.609C17.1655 35.6189 17.3782 35.6634 17.5364 35.7326C17.665 35.7919 17.8776 35.9451 18.0062 36.0735C18.1348 36.202 18.293 36.4194 18.3573 36.5529C18.4364 36.7209 18.4859 36.9185 18.5007 37.1705C18.5156 37.4621 18.5007 37.6005 18.4216 37.8129C18.3623 37.9661 18.2485 38.1737 18.1595 38.2824C18.0754 38.3911 17.9221 38.5393 17.8232 38.6134C17.7243 38.6826 17.5216 38.7913 17.3732 38.8457C17.2101 38.9099 16.9875 38.9495 16.8194 38.9495C16.6068 38.9495 16.4485 38.9099 16.2013 38.8012C16.0133 38.7172 15.7809 38.569 15.6721 38.4652C15.5683 38.3664 15.4199 38.149 15.3408 37.9859C15.2617 37.8228 15.1875 37.5807 15.1677 37.4423C15.1529 37.304 15.1628 37.0668 15.2024 36.8988C15.2419 36.7159 15.3309 36.5084 15.4397 36.3503C15.5386 36.2119 15.6969 36.034 15.7908 35.9549C15.8848 35.8759 16.0826 35.7622 16.2359 35.698C16.4633 35.6041 16.5721 35.5893 16.9035 35.609ZM16.2606 36.8889C16.221 36.9482 16.1765 37.0668 16.1568 37.1458C16.1419 37.2298 16.1518 37.3781 16.1815 37.4819C16.2112 37.5856 16.3051 37.719 16.3991 37.7882C16.4831 37.8574 16.6463 37.9266 16.7551 37.9414C16.8936 37.9612 17.0073 37.9414 17.126 37.8772C17.2199 37.8278 17.3485 37.7141 17.4128 37.6153C17.4771 37.5164 17.5216 37.3682 17.5216 37.2694C17.5216 37.1755 17.482 37.0223 17.4276 36.9235C17.3782 36.8296 17.2595 36.711 17.1705 36.6665C17.0765 36.6171 16.9232 36.5776 16.8293 36.5776C16.7353 36.5776 16.582 36.622 16.498 36.6764C16.409 36.7308 16.3002 36.8246 16.2606 36.8889ZM29.4145 35.609C29.6914 35.6189 29.8793 35.6585 30.0326 35.7276C30.1562 35.7869 30.3442 35.9105 30.4529 35.9994C30.5617 36.0933 30.7299 36.3107 30.8238 36.4837C30.987 36.7802 30.9969 36.8296 30.9969 37.2447C30.9969 37.6301 30.9771 37.7289 30.8634 37.9612C30.7892 38.1144 30.6804 38.2923 30.6161 38.3565C30.5518 38.4257 30.4233 38.5393 30.3293 38.6134C30.2354 38.6876 30.0326 38.7913 29.8843 38.8457C29.726 38.9099 29.4985 38.9495 29.3304 38.9495C29.1128 38.9495 28.9595 38.9099 28.6876 38.7864C28.4205 38.6678 28.2623 38.5542 28.0892 38.3565C27.9062 38.149 27.8271 38.0057 27.748 37.7388C27.6689 37.472 27.654 37.3287 27.6788 37.0964C27.6985 36.9334 27.7628 36.6912 27.8222 36.5529C27.8865 36.4194 28.0299 36.2119 28.1436 36.0983C28.2573 35.9797 28.4452 35.8413 28.559 35.782C28.6727 35.7227 28.826 35.6535 28.8952 35.6338C28.9645 35.609 29.1969 35.5992 29.4145 35.609ZM28.7321 36.9729C28.6727 37.0964 28.6529 37.2101 28.6678 37.3435C28.6826 37.4522 28.7321 37.5906 28.7716 37.6548C28.8112 37.7141 28.8953 37.7981 28.9595 37.8376C29.0189 37.8821 29.1573 37.9266 29.2661 37.9414C29.4046 37.9612 29.5183 37.9414 29.637 37.8772C29.731 37.8278 29.8595 37.7141 29.9238 37.6153C29.9881 37.5164 30.0326 37.3682 30.0326 37.2694C30.0326 37.1755 29.9931 37.0223 29.9387 36.9235C29.8892 36.8296 29.7705 36.711 29.6815 36.6665C29.5876 36.6171 29.4343 36.5776 29.3354 36.5776C29.2365 36.5776 29.0881 36.627 28.9892 36.6912C28.8952 36.7505 28.7815 36.879 28.7321 36.9729ZM8.66992 34.5022H26.0384V37.2694H19.104L19.0842 37.1607C19.0694 37.0964 19.0447 36.9482 19.0298 36.8246C19.015 36.706 18.9309 36.459 18.8469 36.2811C18.7529 36.0884 18.5798 35.8512 18.4167 35.6881C18.2535 35.525 18.0062 35.3472 17.8183 35.2533C17.6403 35.1693 17.3535 35.0754 17.1754 35.0507C16.9925 35.026 16.7254 35.021 16.5573 35.0457C16.3941 35.0704 16.1617 35.1248 16.0381 35.1742C15.9144 35.2236 15.7265 35.3175 15.6177 35.3867C15.509 35.4559 15.321 35.614 15.2024 35.7375C15.0837 35.8611 14.9304 36.0735 14.8611 36.207C14.7919 36.3453 14.7079 36.5677 14.6732 36.7011C14.6337 36.8395 14.604 37.0223 14.604 37.2694H14.2084C13.8375 37.2694 13.8128 37.2644 13.793 37.1607C13.7782 37.0964 13.7584 36.9482 13.7436 36.8246C13.7287 36.706 13.6447 36.459 13.5556 36.2811C13.4666 36.0983 13.2837 35.8462 13.1254 35.6881C12.9622 35.525 12.715 35.3472 12.5271 35.2533C12.3491 35.1693 12.0622 35.0754 11.8842 35.0507C11.7012 35.026 11.4342 35.021 11.2661 35.0457C11.1029 35.0704 10.8705 35.1248 10.7469 35.1742C10.6232 35.2236 10.4353 35.3175 10.3265 35.3867C10.2177 35.4559 10.0298 35.614 9.91113 35.7375C9.79245 35.8611 9.63916 36.0735 9.56992 36.207C9.50069 36.3453 9.41663 36.5677 9.38201 36.7011C9.34245 36.8395 9.31278 37.0124 9.31278 37.0865C9.31278 37.1804 9.28806 37.22 9.22871 37.22C9.17926 37.22 9.07542 37.1804 8.99135 37.131C8.91223 37.0816 8.80344 36.9581 8.75893 36.8592C8.68476 36.706 8.66992 36.5232 8.66992 35.5893V34.5022Z" fill="url(#paint1_linear_685_137854)"/>
<path d="M25.6253 22.7368L7.87897 22.7421L7.67836 22.9127C7.5652 23.0086 7.44689 23.1685 7.40574 23.2645C7.3543 23.4031 7.33887 24.4744 7.33887 28.8608L7.34401 34.2813C7.56005 34.5638 7.71437 34.6917 7.82754 34.745C8.023 34.8356 8.50653 34.841 17.1225 34.841H26.2169C26.2169 23.8188 26.2117 23.4244 26.1294 23.2378C26.078 23.1312 25.9443 22.9713 25.8311 22.8914L25.6253 22.7368Z" fill="url(#paint2_linear_685_137854)"/>
<path d="M9.2168 28.3545C9.2168 25.444 9.22669 24.9449 9.29097 24.8214C9.33053 24.7374 9.42449 24.6386 9.49867 24.599C9.57284 24.5595 9.73108 24.5249 9.84482 24.5249C10.0179 24.5249 10.0921 24.5546 10.4283 24.8609L10.4382 28.2606C10.4531 30.9241 10.4382 31.6949 10.3888 31.8086C10.3542 31.8877 10.2652 32.0013 10.191 32.0655C10.097 32.1446 9.99317 32.1841 9.85966 32.1841C9.75086 32.1841 9.59262 32.1446 9.5135 32.0952C9.43438 32.0458 9.33548 31.947 9.29097 31.8728C9.22669 31.7542 9.2168 31.3046 9.2168 28.3545Z" fill="white"/>
<path d="M12.4805 28.3792C12.4805 26.3779 12.5003 25.0685 12.53 24.9548C12.5597 24.851 12.6437 24.7176 12.7327 24.6484C12.8465 24.5496 12.9404 24.5249 13.1283 24.5249C13.336 24.5249 13.3904 24.5447 13.7168 24.8708V28.3051C13.7168 31.2552 13.7069 31.7592 13.6426 31.8877C13.6031 31.9667 13.4992 32.0655 13.4201 32.11C13.336 32.1496 13.1976 32.1841 13.1086 32.1841C13.0196 32.1841 12.8712 32.1347 12.7772 32.0705C12.6734 32.0013 12.5794 31.8877 12.5448 31.7839C12.5003 31.6603 12.4855 30.7511 12.4805 28.3792Z" fill="white"/>
<path d="M15.8036 28.4188C15.7937 25.7356 15.8036 24.9597 15.8531 24.8461C15.8877 24.767 15.9817 24.6633 16.0657 24.6138C16.1448 24.5644 16.2981 24.5249 16.397 24.5249C16.5009 24.5249 16.6492 24.5595 16.7333 24.6089C16.8174 24.6583 16.9163 24.767 16.9558 24.856C17.0201 24.9943 17.03 25.5083 17.03 28.3545C17.03 31.2206 17.0201 31.7098 16.9558 31.8382C16.9163 31.9173 16.8174 32.031 16.7432 32.0853C16.6542 32.1496 16.5355 32.1841 16.397 32.1841C16.2289 32.1841 16.1498 32.1496 15.8185 31.8432L15.8036 28.4188Z" fill="white"/>
<path d="M19.0575 28.3792C19.0575 26.3779 19.0773 25.0685 19.1069 24.9548C19.1366 24.851 19.2207 24.7176 19.3097 24.6484C19.4234 24.5496 19.5174 24.5249 19.7053 24.5249C19.913 24.5249 19.9674 24.5447 20.2938 24.8708V28.3298C20.2938 31.5418 20.2888 31.7938 20.2047 31.9173C20.1602 31.9865 20.0564 32.0754 19.9822 32.115C19.908 32.1496 19.7745 32.1841 19.6855 32.1841C19.5965 32.1841 19.4481 32.1347 19.3542 32.0705C19.2503 32.0013 19.1564 31.8877 19.1218 31.7839C19.0773 31.6603 19.0624 30.7511 19.0575 28.3792Z" fill="white"/>
<path d="M22.3806 28.4286C22.3707 25.4934 22.3806 24.9943 22.4449 24.856C22.4844 24.767 22.5784 24.6583 22.6525 24.6089C22.7267 24.5644 22.8751 24.5249 22.974 24.5249C23.0778 24.5249 23.2262 24.5595 23.3102 24.6089C23.3943 24.6583 23.4932 24.767 23.5328 24.856C23.5971 24.9943 23.602 25.5033 23.5822 31.8432L23.3943 32.0112C23.241 32.1545 23.1718 32.1841 22.9888 32.1841C22.8009 32.1841 22.7317 32.1545 22.3954 31.8432L22.3806 28.4286Z" fill="white"/>
</g>
<defs>
<linearGradient id="paint0_linear_685_137854" x1="9.61469" y1="34.9401" x2="30.038" y2="24.1343" gradientUnits="userSpaceOnUse">
<stop stop-color="#176CF7"/>
<stop offset="1" stop-color="#0C36C1"/>
</linearGradient>
<linearGradient id="paint1_linear_685_137854" x1="20.6642" y1="26.3982" x2="20.6642" y2="38.9495" gradientUnits="userSpaceOnUse">
<stop stop-color="#00286A"/>
<stop offset="1" stop-color="#2B7CFF"/>
</linearGradient>
<linearGradient id="paint2_linear_685_137854" x1="16.7779" y1="22.7368" x2="16.7779" y2="34.841" gradientUnits="userSpaceOnUse">
<stop stop-color="#FFCF4A"/>
<stop offset="1" stop-color="#E5A900"/>
</linearGradient>
<clipPath id="clip0_685_137854">
<rect width="40" height="40" fill="white" transform="translate(0 0.5)"/>
</clipPath>
</defs>
</svg>
