<svg width="40" height="40" viewBox="0 0 40 40" fill="none" xmlns="http://www.w3.org/2000/svg">
<g clip-path="url(#clip0_2000_96452)">
<g clip-path="url(#clip1_2000_96452)">
<path d="M22.5781 0.490704C22.8253 0.579667 23.0735 0.665991 23.3215 0.752709C25.5947 1.54827 25.5947 1.54827 26.6775 1.97332C26.7674 2.00858 26.8572 2.04385 26.9498 2.08017C27.8435 2.48389 28.4571 3.26162 28.8885 4.11841C29.1432 4.80065 29.1627 5.48251 29.162 6.20366C29.162 6.37653 29.163 6.54936 29.1643 6.72222C29.1679 7.21309 29.1698 7.70395 29.1703 8.19483C29.1707 8.49664 29.1726 8.79842 29.1755 9.10021C29.1762 9.21439 29.1764 9.32857 29.176 9.44275C29.1738 10.0678 29.1944 10.551 29.5312 11.0938C29.5312 11.1454 29.5312 11.1969 29.5312 11.2501C29.3508 11.2501 29.1703 11.2501 28.9843 11.2501C28.9824 11.2934 28.9804 11.3367 28.9784 11.3814C28.9693 11.5785 28.9597 11.7756 28.9502 11.9727C28.9456 12.075 28.9456 12.075 28.9409 12.1793C28.9376 12.2453 28.9343 12.3112 28.9309 12.3792C28.9281 12.4398 28.9252 12.5003 28.9223 12.5627C28.9065 12.7311 28.8736 12.8843 28.8281 13.0469C28.9087 13.0518 28.9892 13.0566 29.0722 13.0616C29.4699 13.145 29.7036 13.3033 29.9331 13.6512C30.2116 14.3887 29.9738 15.3214 29.6875 16.0157C29.4651 16.4959 29.2383 16.9202 28.8281 17.2657C28.7814 17.3108 28.7346 17.3559 28.6865 17.4024C28.5156 17.5001 28.5156 17.5001 28.2092 17.5107C28.0414 17.5247 28.0414 17.5247 27.8906 17.5782C27.7607 17.7757 27.6952 17.9119 27.622 18.1299C27.5774 18.2449 27.5322 18.3596 27.4865 18.4742C27.4634 18.5331 27.4403 18.592 27.4165 18.6527C27.301 18.9312 27.163 19.1947 27.0166 19.4581C26.9881 19.51 26.9597 19.5619 26.9304 19.6153C26.7717 19.892 26.603 20.1294 26.3846 20.3623C25.921 20.8589 25.6482 21.1825 25.6667 21.8886C25.691 22.2 25.7299 22.5044 25.7812 22.8126C25.8328 22.7868 25.8843 22.761 25.9375 22.7344C26.195 22.684 26.3153 22.6665 26.5625 22.7344C26.8699 22.9591 27.1228 23.2289 27.3828 23.5059C27.4545 23.5791 27.5262 23.6523 27.6001 23.7278C28.125 24.2706 28.125 24.2706 28.125 24.4532C28.1931 24.4707 28.1931 24.4707 28.2627 24.4887C28.9231 24.6635 29.5737 24.8669 30.2241 25.0757C30.3508 25.1163 30.4777 25.1564 30.6047 25.1961C32.3987 25.7578 33.9203 26.6016 35 28.2032C35.0498 28.2761 35.0997 28.349 35.151 28.4241C35.8433 29.4867 36.274 30.6547 36.2727 31.9303C36.2732 32.0026 36.2737 32.0748 36.2743 32.1493C36.2757 32.3859 36.276 32.6226 36.2762 32.8592C36.2767 33.0249 36.2772 33.1906 36.2778 33.3562C36.2787 33.7025 36.279 34.0487 36.2789 34.395C36.2789 34.8378 36.281 35.2806 36.2837 35.7234C36.2855 36.0651 36.2858 36.4069 36.2857 36.7486C36.2859 36.9119 36.2866 37.0751 36.2878 37.2384C36.2893 37.4668 36.2889 37.6952 36.2879 37.9237C36.2888 37.9904 36.2897 38.0572 36.2906 38.126C36.285 38.6605 36.1382 39.0679 35.784 39.4721C35.7331 39.5142 35.6823 39.5563 35.6299 39.5997C35.5792 39.643 35.5285 39.6863 35.4763 39.7309C35.1277 39.9711 34.8289 40.0196 34.4094 40.0202C34.3335 40.0206 34.3335 40.0206 34.256 40.021C34.086 40.0217 33.9161 40.0213 33.7461 40.021C33.6231 40.0212 33.5001 40.0216 33.3771 40.022C33.0389 40.023 32.7008 40.023 32.3626 40.0228C31.9979 40.0227 31.6333 40.0236 31.2687 40.0243C30.5542 40.0256 29.8397 40.0261 29.1252 40.0262C28.5445 40.0262 27.9638 40.0266 27.3831 40.0271C25.7371 40.0284 24.0911 40.0291 22.445 40.029C22.3119 40.029 22.3119 40.029 22.1761 40.029C22.0872 40.029 21.9984 40.029 21.9068 40.029C20.4664 40.0289 19.026 40.0304 17.5857 40.0326C16.1071 40.0349 14.6285 40.0359 13.15 40.0358C12.3197 40.0358 11.4894 40.0362 10.6592 40.0379C9.95229 40.0393 9.24542 40.0396 8.53853 40.0386C8.17785 40.0381 7.81719 40.0381 7.45651 40.0394C7.12625 40.0406 6.79603 40.0404 6.46576 40.0391C6.34637 40.0388 6.22697 40.0391 6.10758 40.04C5.39059 40.0448 4.84142 40.0279 4.27792 39.5341C4.23583 39.4832 4.19373 39.4323 4.15036 39.3799C4.10706 39.3293 4.06375 39.2786 4.01914 39.2264C3.73477 38.8137 3.72676 38.4428 3.72727 37.9577C3.72675 37.8864 3.72622 37.8151 3.72568 37.7416C3.7242 37.5058 3.72389 37.2701 3.72373 37.0344C3.72322 36.8696 3.7227 36.7048 3.72215 36.54C3.72121 36.1942 3.72092 35.8483 3.72102 35.5025C3.72103 35.0622 3.71891 34.6219 3.71621 34.1816C3.71446 33.8408 3.71416 33.5 3.71424 33.1593C3.71405 32.9971 3.71337 32.835 3.71215 32.6729C3.69694 30.4368 4.40489 28.6712 5.98561 27.0616C7.06929 25.9749 8.41875 25.5098 9.85087 25.0502C10.085 24.975 10.3189 24.899 10.5528 24.8229C10.7015 24.7748 10.8501 24.7267 10.9988 24.6787C11.0688 24.656 11.1388 24.6333 11.2109 24.6099C11.2753 24.5893 11.3398 24.5686 11.4062 24.5474C11.463 24.5291 11.5197 24.5109 11.5782 24.4921C11.7187 24.4532 11.7187 24.4532 11.875 24.4532C11.9043 24.3863 11.9043 24.3863 11.9343 24.3181C12.1254 23.9683 12.4284 23.7013 12.705 23.418C12.7967 23.3195 12.7967 23.3195 12.8903 23.2191C13.4062 22.692 13.4062 22.692 13.786 22.6868C14.0625 22.7344 14.0625 22.7344 14.2187 22.8126C14.4045 21.8409 14.4045 21.8409 14.1208 20.9348C13.9635 20.7387 13.792 20.5568 13.6206 20.373C13.3381 20.069 13.1404 19.7392 12.9443 19.3751C12.9127 19.3165 12.8811 19.258 12.8486 19.1978C12.5546 18.6421 12.287 18.0742 12.0312 17.5001C11.9595 17.5152 11.8878 17.5303 11.8139 17.5458C11.5327 17.582 11.3886 17.5347 11.1508 17.382C10.6992 16.9936 10.4439 16.4053 10.2343 15.8594C10.1991 15.7733 10.1991 15.7733 10.1632 15.6855C10.0144 15.2715 9.97608 14.8716 9.97067 14.4337C9.96959 14.381 9.96851 14.3284 9.96739 14.2742C9.97137 13.8508 10.0759 13.5296 10.3662 13.2178C10.6284 13.0832 10.8793 13.0792 11.1718 13.0469C11.1549 12.9211 11.1549 12.9211 11.1377 12.7927C11.123 12.6805 11.1084 12.5683 11.0937 12.4561C11.0863 12.4011 11.0788 12.346 11.0711 12.2893C11.026 11.9396 11.0082 11.6027 11.0156 11.2501C10.8351 11.2501 10.6547 11.2501 10.4687 11.2501C10.5059 11.1344 10.5434 11.0189 10.581 10.9034C10.6019 10.839 10.6227 10.7747 10.6442 10.7084C10.7031 10.5469 10.7031 10.5469 10.7812 10.4688C10.7897 10.3056 10.7927 10.1421 10.7935 9.97873C10.7939 9.92753 10.7943 9.87632 10.7947 9.82356C10.7956 9.71187 10.7963 9.60018 10.7968 9.48849C10.7977 9.31103 10.7992 9.13358 10.8009 8.95613C10.8057 8.45137 10.81 7.94662 10.8126 7.44185C10.8142 7.13325 10.817 6.82468 10.8204 6.5161C10.8215 6.39906 10.8222 6.28202 10.8225 6.16498C10.8256 4.85848 11.0905 3.8415 11.9711 2.85315C12.5067 2.36592 13.064 2.03482 13.7451 1.79693C13.8598 1.75537 13.8598 1.75537 13.9769 1.71297C14.2086 1.62968 14.4406 1.54772 14.6729 1.4663C14.8637 1.39928 15.0544 1.33175 15.245 1.26417C15.692 1.10575 16.1394 0.948232 16.5869 0.791074C16.697 0.752326 16.697 0.752326 16.8094 0.712796C18.8696 -0.0105544 20.4745 -0.273129 22.5781 0.490704Z" fill="url(#paint0_linear_2000_96452)"/>
<path d="M22.578 0.490704C22.8252 0.579667 23.0733 0.665991 23.3214 0.752709C25.5945 1.54827 25.5945 1.54827 26.6774 1.97332C26.7673 2.00858 26.8571 2.04385 26.9496 2.08017C27.8433 2.48389 28.457 3.26162 28.8884 4.11841C29.1431 4.80065 29.1626 5.48251 29.1619 6.20366C29.1618 6.37653 29.1629 6.54936 29.1642 6.72222C29.1678 7.21309 29.1697 7.70395 29.1702 8.19483C29.1706 8.49664 29.1725 8.79842 29.1753 9.10021C29.1761 9.21439 29.1763 9.32857 29.1759 9.44275C29.1737 10.0678 29.1943 10.551 29.5311 11.0938C29.5311 11.1454 29.5311 11.1969 29.5311 11.2501C29.3506 11.2501 29.1702 11.2501 28.9842 11.2501C28.9813 11.3151 28.9813 11.3151 28.9783 11.3814C28.9692 11.5785 28.9596 11.7756 28.9501 11.9727C28.947 12.0409 28.9439 12.1091 28.9408 12.1793C28.9375 12.2453 28.9342 12.3112 28.9308 12.3792C28.9265 12.47 28.9265 12.47 28.9222 12.5627C28.9064 12.7311 28.8735 12.8843 28.828 13.0469C28.9086 13.0518 28.9891 13.0566 29.0721 13.0616C29.4698 13.145 29.7035 13.3033 29.933 13.6512C30.2115 14.3887 29.9737 15.3214 29.6874 16.0157C29.4649 16.4959 29.2382 16.9202 28.828 17.2657C28.7813 17.3108 28.7345 17.3559 28.6864 17.4024C28.5155 17.5001 28.5155 17.5001 28.2091 17.5107C28.0413 17.5247 28.0413 17.5247 27.8905 17.5782C27.7606 17.7757 27.6951 17.9119 27.6219 18.1299C27.5773 18.2449 27.5321 18.3596 27.4864 18.4742C27.4633 18.5331 27.4402 18.592 27.4164 18.6527C27.3009 18.9313 27.1629 19.1947 27.0165 19.4581C26.988 19.5101 26.9596 19.5621 26.9303 19.6157C26.7721 19.892 26.605 20.1267 26.3844 20.3568C25.8999 20.8332 25.8999 20.8332 25.6857 21.4536C25.7006 21.7544 25.7376 22.0502 25.7754 22.3487C25.8101 22.721 25.8292 22.9685 25.5858 23.2679C25.3731 23.4774 25.1389 23.6529 24.8919 23.8199C24.732 23.9292 24.5909 24.054 24.4481 24.1846C24.4005 24.2258 24.3528 24.267 24.3038 24.3094C24.0902 24.4975 23.881 24.6901 23.6717 24.8829C23.3663 25.1641 23.0578 25.441 22.744 25.7129C22.5297 25.9021 22.3195 26.0955 22.1092 26.2891C21.8025 26.5715 21.494 26.8509 21.1772 27.1219C21.0484 27.2364 20.9235 27.3552 20.8 27.4753C20.7622 27.5117 20.7243 27.548 20.6853 27.5855C20.5762 27.6905 20.4682 27.7967 20.3603 27.9029C20.1561 28.0469 20.1561 28.0469 19.9661 28.0322C19.7441 27.9621 19.6415 27.8856 19.4759 27.7241C19.4236 27.6739 19.3712 27.6238 19.3173 27.5721C19.2638 27.5193 19.2103 27.4665 19.1551 27.4122C19.0489 27.3093 18.9426 27.2066 18.8362 27.1039C18.7834 27.0528 18.7306 27.0017 18.6761 26.949C18.4681 26.7521 18.253 26.5644 18.0365 26.377C17.8277 26.1955 17.6249 26.0081 17.4217 25.8204C17.164 25.5829 16.9054 25.3468 16.6405 25.1172C16.3756 24.8877 16.1171 24.6515 15.8592 24.4141C15.2704 23.8441 15.2704 23.8441 14.6237 23.3465C14.459 23.2308 14.3381 23.1313 14.2186 22.9688C14.1852 22.69 14.2376 22.4291 14.2821 22.1534C14.3387 21.6103 14.3588 21.221 14.0077 20.7825C13.8365 20.5951 13.6618 20.4111 13.4871 20.227C13.2642 19.9676 13.1055 19.6753 12.9442 19.3751C12.9126 19.3165 12.881 19.258 12.8485 19.1977C12.5544 18.6421 12.2868 18.0742 12.0311 17.5001C11.9594 17.5152 11.8877 17.5303 11.8138 17.5458C11.5326 17.582 11.3885 17.5347 11.1507 17.382C10.6991 16.9936 10.4438 16.4053 10.2342 15.8594C10.2108 15.802 10.1873 15.7446 10.1631 15.6855C10.0143 15.2715 9.97597 14.8716 9.97057 14.4337C9.96948 14.381 9.9684 14.3284 9.96729 14.2742C9.97126 13.8508 10.0758 13.5296 10.3661 13.2178C10.6282 13.0832 10.8792 13.0792 11.1717 13.0469C11.1605 12.963 11.1492 12.8792 11.1376 12.7927C11.1229 12.6805 11.1082 12.5683 11.0936 12.4561C11.0862 12.4011 11.0787 12.346 11.071 12.2893C11.0259 11.9396 11.0081 11.6027 11.0155 11.2501C10.835 11.2501 10.6546 11.2501 10.4686 11.2501C10.5058 11.1344 10.5433 11.0189 10.5809 10.9034C10.6018 10.839 10.6226 10.7747 10.6441 10.7084C10.703 10.5469 10.703 10.5469 10.7811 10.4688C10.7896 10.3056 10.7925 10.1421 10.7934 9.97873C10.7938 9.92753 10.7942 9.87632 10.7946 9.82356C10.7955 9.71187 10.7961 9.60018 10.7967 9.48849C10.7976 9.31103 10.7991 9.13358 10.8008 8.95613C10.8056 8.45137 10.8098 7.94662 10.8125 7.44185C10.8141 7.13325 10.8169 6.82468 10.8203 6.5161C10.8214 6.39906 10.8221 6.28202 10.8224 6.16498C10.8255 4.85848 11.0904 3.8415 11.971 2.85315C12.5066 2.36592 13.0639 2.03482 13.745 1.79693C13.8215 1.76923 13.898 1.74152 13.9768 1.71297C14.2085 1.62968 14.4405 1.54772 14.6728 1.4663C14.8636 1.39928 15.0542 1.33175 15.2448 1.26417C15.6919 1.10575 16.1393 0.948232 16.5868 0.791074C16.6602 0.765242 16.7336 0.739411 16.8093 0.712796C18.8695 -0.0105544 20.4744 -0.273129 22.578 0.490704Z" fill="#FEE0B1"/>
<path d="M22.5781 0.490704C22.8253 0.579667 23.0735 0.665991 23.3215 0.752709C25.5947 1.54827 25.5947 1.54827 26.6776 1.97332C26.7674 2.00858 26.8572 2.04385 26.9498 2.08017C27.8435 2.48389 28.4571 3.26162 28.8885 4.11841C29.1433 4.80065 29.1628 5.48251 29.1621 6.20366C29.162 6.37653 29.163 6.54936 29.1643 6.72222C29.1679 7.21309 29.1699 7.70395 29.1704 8.19483C29.1708 8.49664 29.1727 8.79842 29.1755 9.10021C29.1762 9.21439 29.1764 9.32857 29.176 9.44275C29.1738 10.0678 29.1944 10.551 29.5312 11.0938C29.5312 11.1454 29.5312 11.1969 29.5312 11.2501C29.3508 11.2501 29.1703 11.2501 28.9844 11.2501C28.9786 11.3945 28.9786 11.3945 28.9728 11.5418C28.9586 11.8771 28.9384 12.2118 28.9165 12.5468C28.9079 12.7052 28.9056 12.8639 28.9047 13.0225C28.8906 13.2804 28.873 13.444 28.75 13.6719C28.4049 13.9198 27.9381 14.2188 27.5 14.2188C27.3884 13.9957 27.3778 13.7786 27.3459 13.5312C27.3391 13.4786 27.3322 13.426 27.3252 13.3718C27.3108 13.2604 27.2966 13.149 27.2825 13.0375C27.2609 12.8677 27.2388 12.698 27.2166 12.5283C27.2027 12.4199 27.1888 12.3115 27.175 12.2031C27.1624 12.1047 27.1498 12.0063 27.1368 11.9049C27.1094 11.6407 27.1094 11.6407 27.1094 11.2501C22.4172 11.2501 17.725 11.2501 12.8906 11.2501C12.8648 11.5852 12.8391 11.9204 12.8125 12.2657C12.7758 12.5837 12.7375 12.9006 12.6953 13.2178C12.6851 13.2976 12.675 13.3775 12.6645 13.4597C12.6545 13.5357 12.6445 13.6117 12.6343 13.6899C12.6254 13.7579 12.6165 13.8259 12.6073 13.896C12.5781 14.0626 12.5781 14.0626 12.5 14.2188C12.3418 14.173 12.1861 14.1186 12.0312 14.0626C11.9654 14.0413 11.8995 14.0201 11.8317 13.9982C11.3045 13.7926 11.3045 13.7926 11.1679 13.49C11.1215 13.2362 11.1047 12.9924 11.0938 12.7344C11.0857 12.604 11.0774 12.4736 11.069 12.3432C11.0468 11.9789 11.0301 11.6147 11.0156 11.2501C10.8352 11.2501 10.6547 11.2501 10.4688 11.2501C10.5059 11.1344 10.5434 11.0189 10.5811 10.9034C10.6019 10.839 10.6227 10.7747 10.6442 10.7084C10.7031 10.5469 10.7031 10.5469 10.7812 10.4688C10.7897 10.3056 10.7927 10.1421 10.7936 9.97873C10.794 9.92753 10.7944 9.87632 10.7948 9.82356C10.7956 9.71187 10.7963 9.60018 10.7968 9.48849C10.7977 9.31103 10.7993 9.13358 10.801 8.95613C10.8058 8.45137 10.81 7.94662 10.8126 7.44185C10.8143 7.13325 10.817 6.82468 10.8205 6.5161C10.8216 6.39906 10.8223 6.28202 10.8225 6.16498C10.8256 4.85848 11.0905 3.8415 11.9711 2.85315C12.5067 2.36592 13.0641 2.03482 13.7451 1.79693C13.8216 1.76923 13.8981 1.74152 13.977 1.71297C14.2086 1.62968 14.4407 1.54772 14.673 1.4663C14.8638 1.39928 15.0544 1.33175 15.245 1.26417C15.692 1.10575 16.1394 0.948232 16.5869 0.791074C16.6603 0.765242 16.7338 0.739411 16.8094 0.712796C18.8697 -0.0105544 20.4746 -0.273129 22.5781 0.490704Z" fill="url(#paint1_linear_2000_96452)"/>
<path d="M33.2031 26.4062C33.9097 26.9046 34.5156 27.4846 35 28.2031C35.0499 28.276 35.0997 28.349 35.1511 28.4241C35.8433 29.4867 36.2741 30.6546 36.2727 31.9303C36.2732 32.0025 36.2737 32.0748 36.2743 32.1492C36.2758 32.3859 36.2761 32.6225 36.2762 32.8592C36.2767 33.0248 36.2773 33.1905 36.2778 33.3561C36.2788 33.7024 36.279 34.0487 36.279 34.3949C36.2789 34.8377 36.2811 35.2805 36.2838 35.7233C36.2855 36.0651 36.2858 36.4068 36.2857 36.7486C36.2859 36.9118 36.2866 37.0751 36.2878 37.2383C36.2894 37.4668 36.2889 37.6951 36.288 37.9236C36.2888 37.9904 36.2897 38.0572 36.2906 38.126C36.2851 38.6604 36.1382 39.0678 35.784 39.472C35.7331 39.5141 35.6823 39.5562 35.6299 39.5996C35.5539 39.6646 35.5539 39.6646 35.4764 39.7308C35.1685 39.943 34.8937 40.0196 34.522 40.0188C34.4432 40.019 34.3644 40.0192 34.2833 40.0194C34.1978 40.0189 34.1122 40.0183 34.0241 40.0177C33.888 40.0178 33.888 40.0178 33.7492 40.0178C33.4494 40.0177 33.1497 40.0165 32.85 40.0153C32.6422 40.015 32.4343 40.0147 32.2264 40.0146C31.7353 40.0141 31.2442 40.0128 30.7531 40.0113C30.1938 40.0095 29.6346 40.0086 29.0753 40.0079C27.9252 40.0062 26.7751 40.0035 25.625 40C25.6983 39.8522 25.7717 39.7046 25.8452 39.5569C25.8861 39.4747 25.927 39.3924 25.9691 39.3077C26.1539 38.9442 26.3548 38.5909 26.5576 38.2373C26.6471 38.0802 26.7365 37.923 26.8259 37.7658C26.8722 37.6843 26.9185 37.6028 26.9662 37.5189C27.2118 37.0843 27.4535 36.6476 27.6953 36.2109C28.0977 35.485 28.5036 34.7613 28.913 34.0393C29.2394 33.4628 29.5616 32.8841 29.8828 32.3047C30.2848 31.5794 30.6903 30.8562 31.0994 30.1349C31.331 29.7261 31.561 29.3163 31.7889 28.9053C31.8148 28.8587 31.8407 28.812 31.8674 28.7639C31.9928 28.5376 32.1181 28.3112 32.2432 28.0847C32.5555 27.5205 32.8759 26.9619 33.2031 26.4062Z" fill="url(#paint2_linear_2000_96452)"/>
<path d="M20.8594 8.12508C20.9314 8.12799 21.0034 8.1309 21.0776 8.13389C22.0757 8.18087 23.0521 8.32317 24.0332 8.50594C24.1111 8.52034 24.1111 8.52034 24.1907 8.53503C25.1794 8.71986 26.1419 8.97575 27.085 9.32625C27.148 9.34966 27.211 9.37307 27.2759 9.39719C27.7667 9.58378 28.2271 9.7973 28.6719 10.0782C28.732 10.1141 28.7921 10.1499 28.8541 10.1868C29.2822 10.4676 29.4253 10.7535 29.5312 11.2501C29.3508 11.2501 29.1703 11.2501 28.9844 11.2501C28.9786 11.3945 28.9786 11.3945 28.9728 11.5418C28.9586 11.8772 28.9384 12.2119 28.9165 12.5468C28.9079 12.7052 28.9056 12.8639 28.9047 13.0225C28.8906 13.2804 28.873 13.444 28.75 13.672C28.4049 13.9199 27.9381 14.2188 27.5 14.2188C27.3884 13.9957 27.3778 13.7786 27.3459 13.5313C27.3356 13.4524 27.3356 13.4524 27.3252 13.3719C27.3108 13.2604 27.2966 13.149 27.2825 13.0375C27.2609 12.8677 27.2388 12.698 27.2166 12.5283C27.2027 12.4199 27.1888 12.3115 27.175 12.2031C27.1624 12.1047 27.1498 12.0063 27.1368 11.9049C27.1094 11.6407 27.1094 11.6407 27.1094 11.2501C22.4172 11.2501 17.725 11.2501 12.8906 11.2501C12.8648 11.5852 12.8391 11.9204 12.8125 12.2657C12.7758 12.5837 12.7375 12.9006 12.6953 13.2179C12.6851 13.2977 12.675 13.3775 12.6645 13.4597C12.6545 13.5357 12.6445 13.6117 12.6343 13.69C12.6254 13.758 12.6165 13.826 12.6073 13.896C12.5781 14.0626 12.5781 14.0626 12.5 14.2188C12.3418 14.173 12.1861 14.1187 12.0312 14.0626C11.9654 14.0413 11.8995 14.0201 11.8317 13.9982C11.3045 13.7927 11.3045 13.7927 11.1679 13.4901C11.1215 13.2362 11.1047 12.9924 11.0938 12.7345C11.0857 12.604 11.0774 12.4736 11.069 12.3432C11.0468 11.979 11.0301 11.6147 11.0156 11.2501C10.8352 11.2501 10.6547 11.2501 10.4688 11.2501C10.5617 10.7176 10.7189 10.4951 11.1621 10.1807C12.4352 9.35168 13.92 8.92327 15.3906 8.59383C15.48 8.57309 15.5693 8.55234 15.6613 8.53097C17.349 8.17547 19.1384 8.05215 20.8594 8.12508Z" fill="url(#paint3_linear_2000_96452)"/>
<path d="M26.3762 22.6822C26.8018 22.8012 27.0912 23.2019 27.3828 23.5156C27.4551 23.591 27.5275 23.6663 27.6001 23.7414C27.7766 23.9252 27.9514 24.1103 28.125 24.2968C28.0261 24.5034 27.919 24.6913 27.7869 24.8782C27.7326 24.9551 27.7326 24.9551 27.6773 25.0335C27.6381 25.0885 27.599 25.1435 27.5586 25.2001C27.5173 25.2583 27.4761 25.3165 27.4336 25.3764C27.0781 25.8758 26.7151 26.3695 26.3505 26.8623C26.0393 27.2829 25.7309 27.7054 25.4248 28.1298C25.3836 28.187 25.3423 28.2441 25.2998 28.303C25.083 28.6036 24.867 28.9049 24.6518 29.2068C24.6071 29.2693 24.5624 29.3318 24.5163 29.3961C24.4318 29.5142 24.3476 29.6325 24.2637 29.7509C23.5291 30.7763 23.5291 30.7763 23.1299 30.9716C22.3989 30.8672 21.6415 29.7747 21.1328 29.2626C21.0303 29.1597 20.9278 29.0568 20.8252 28.954C20.576 28.7039 20.327 28.4535 20.0781 28.2031C20.1854 27.9595 20.3061 27.8032 20.5011 27.6229C20.5542 27.5735 20.6072 27.5241 20.6619 27.4732C20.7174 27.4224 20.7729 27.3716 20.8301 27.3193C20.8838 27.2694 20.9374 27.2195 20.9927 27.1681C21.3116 26.8728 21.6361 26.5846 21.9639 26.2993C22.1719 26.117 22.375 25.9298 22.5781 25.7421C22.8835 25.4608 23.1921 25.184 23.5059 24.9121C23.7202 24.723 23.9304 24.5295 24.1406 24.3359C24.5831 23.9287 25.0296 23.5276 25.4932 23.1445C25.6983 22.986 25.6983 22.986 25.8105 22.8271C25.9896 22.6963 26.1581 22.679 26.3762 22.6822Z" fill="url(#paint4_linear_2000_96452)"/>
<path d="M13.7759 22.6768C14.0614 22.7342 14.1779 22.7717 14.3799 22.9737C14.4315 23.0237 14.4832 23.0738 14.5364 23.1254C14.6112 23.2026 14.6112 23.2026 14.6875 23.2813C14.7562 23.35 14.7562 23.35 14.8264 23.4202C14.9168 23.5107 15.007 23.6015 15.0967 23.6927C15.2836 23.8766 15.4811 24.0464 15.6796 24.2176C15.899 24.4098 16.1136 24.6071 16.3281 24.8047C16.5859 25.0422 16.8445 25.2783 17.1094 25.5079C17.4165 25.774 17.715 26.0493 18.0139 26.3245C18.2777 26.567 18.5452 26.8043 18.8159 27.0389C19.19 27.3689 19.5551 27.7089 19.9219 28.0469C19.8176 28.2777 19.7028 28.4427 19.5258 28.6232C19.4773 28.6729 19.4288 28.7227 19.3788 28.774C19.3264 28.8268 19.274 28.8797 19.22 28.9341C19.1658 28.9889 19.1117 29.0438 19.0559 29.1003C18.9413 29.216 18.8265 29.3315 18.7115 29.4468C18.5359 29.6233 18.3619 29.8012 18.1879 29.9792C18.0763 30.0915 17.9646 30.2038 17.8528 30.3159C17.801 30.3692 17.7492 30.4225 17.6959 30.4774C17.4692 30.7019 17.3175 30.8425 17.0104 30.9425C16.7337 30.9361 16.6 30.8309 16.4032 30.6431C16.0983 30.2963 15.8417 29.9145 15.5799 29.5349C15.3837 29.2528 15.1819 28.9747 14.9805 28.6964C14.9379 28.6374 14.8953 28.5785 14.8515 28.5177C14.494 28.0233 14.1321 27.5322 13.7695 27.0415C13.4062 26.5495 13.0472 26.0544 12.6904 25.5576C12.4232 25.186 12.151 24.8184 11.875 24.4532C12.0592 24.0336 12.389 23.7417 12.7051 23.418C12.7662 23.3524 12.8273 23.2867 12.8903 23.2191C13.4064 22.6918 13.4064 22.6918 13.7759 22.6768Z" fill="url(#paint5_linear_2000_96452)"/>
<path d="M21.6406 2.10943C21.7065 2.13119 21.7725 2.15294 21.8405 2.17535C22.5923 2.44083 23.1802 2.90982 23.5937 3.59381C23.8261 4.11139 23.7985 4.60553 23.6062 5.13037C23.2465 5.85335 22.5881 6.31216 21.8447 6.57965C21.5955 6.65779 21.3462 6.73022 21.0937 6.79693C21.0201 6.81745 21.0201 6.81745 20.945 6.83838C19.7481 7.10645 18.4571 6.84101 17.4169 6.22565C16.8116 5.80415 16.3979 5.34503 16.25 4.60943C16.1951 4.0882 16.3117 3.68803 16.6061 3.26086C17.762 1.84543 19.97 1.46242 21.6406 2.10943Z" fill="url(#paint6_linear_2000_96452)"/>
<path d="M25.5469 21.25C25.8407 21.7241 25.9045 22.4324 25.7812 22.9688C25.5699 23.331 25.2277 23.5737 24.892 23.8148C24.7349 23.9285 24.5919 24.0544 24.4482 24.1846C24.4006 24.2258 24.353 24.2669 24.3039 24.3094C24.0903 24.4974 23.8812 24.6901 23.6719 24.8828C23.3672 25.1633 23.0596 25.4395 22.7466 25.7108C22.3725 26.0407 22.0074 26.3807 21.6406 26.7188C21.6148 26.6672 21.5891 26.6156 21.5625 26.5625C21.5101 26.5531 21.4578 26.5438 21.4038 26.5341C21.0751 26.4636 20.8036 26.3139 20.5078 26.1572C20.4433 26.1231 20.3788 26.0889 20.3123 26.0538C18.507 25.0758 16.9018 23.8079 15.4688 22.3438C15.7448 22.3438 15.8298 22.4073 16.0596 22.5537C17.8633 23.6669 19.8755 23.944 21.943 23.48C23.3316 23.1256 24.5681 22.2802 25.5469 21.25Z" fill="#FCC78E"/>
<path d="M14.375 21.25C14.4524 21.3177 14.5297 21.3854 14.6094 21.4551C14.8668 21.6773 15.1351 21.8768 15.4141 22.0709C15.5469 22.1875 15.5469 22.1875 15.6146 22.3279C15.7479 22.587 15.9522 22.7755 16.1572 22.9785C16.2024 23.0234 16.2476 23.0682 16.2941 23.1144C16.7047 23.5146 17.1407 23.8665 17.6044 24.2027C17.7371 24.2988 17.8686 24.3964 18.0002 24.494C19.0637 25.2762 20.3044 26.1431 21.5625 26.5625C21.3994 26.926 21.1463 27.1524 20.8594 27.4219C20.7796 27.4982 20.7796 27.4982 20.6983 27.576C20.6451 27.625 20.5919 27.6741 20.5371 27.7246C20.4886 27.7695 20.44 27.8144 20.39 27.8607C20.2018 27.9914 20.0728 28.036 19.8438 28.0469C19.708 27.9541 19.708 27.9541 19.585 27.8125C19.4004 27.6112 19.2165 27.4236 19.0088 27.2461C18.7354 27.0104 18.4686 26.7681 18.2031 26.5234C17.9453 26.286 17.6868 26.0499 17.4219 25.8203C17.1148 25.5542 16.8163 25.2789 16.5173 25.0037C16.2531 24.7607 15.9852 24.523 15.7138 24.288C15.4538 24.0584 15.1994 23.8226 14.9452 23.5864C14.764 23.4189 14.5971 23.2738 14.3851 23.1458C14.1917 22.94 14.1941 22.8934 14.195 22.6218C14.2041 22.4882 14.2153 22.3549 14.2285 22.2217C14.2334 22.1543 14.2382 22.0868 14.2432 22.0174C14.2644 21.7445 14.2881 21.5108 14.375 21.25Z" fill="#FED5A2"/>
<path d="M27.1094 11.25C27.7281 11.25 28.3469 11.25 28.9844 11.25C28.9519 12.0069 28.9519 12.0069 28.9297 12.3438C28.9149 12.5712 28.9059 12.7942 28.9047 13.0225C28.8906 13.2803 28.873 13.4439 28.75 13.6719C28.4049 13.9198 27.9381 14.2188 27.5 14.2188C27.3884 13.9956 27.3778 13.7785 27.3459 13.5312C27.3356 13.4523 27.3356 13.4523 27.3252 13.3718C27.3108 13.2603 27.2966 13.1489 27.2825 13.0374C27.2609 12.8676 27.2388 12.6979 27.2166 12.5282C27.2027 12.4198 27.1888 12.3115 27.175 12.2031C27.1561 12.0554 27.1561 12.0554 27.1368 11.9048C27.1094 11.6406 27.1094 11.6406 27.1094 11.25Z" fill="#424242"/>
<path d="M11.0156 11.25C11.6344 11.25 12.2531 11.25 12.8906 11.25C12.8499 11.91 12.7799 12.562 12.6953 13.2178C12.6851 13.2981 12.6749 13.3784 12.6644 13.4612C12.6545 13.5366 12.6445 13.6121 12.6343 13.6899C12.6209 13.7919 12.6209 13.7919 12.6073 13.8959C12.5781 14.0625 12.5781 14.0625 12.5 14.2188C12.3418 14.173 12.1861 14.1186 12.0312 14.0625C11.9654 14.0413 11.8995 14.02 11.8317 13.9981C11.3045 13.7926 11.3045 13.7926 11.1679 13.49C11.1215 13.2362 11.1047 12.9924 11.0938 12.7344C11.0857 12.604 11.0774 12.4735 11.069 12.3431C11.046 11.9787 11.0313 11.6151 11.0156 11.25Z" fill="#424242"/>
<path d="M20.0049 33.7061C20.2925 33.7611 20.3805 33.8221 20.5469 34.0625C20.6299 34.3311 20.6299 34.3311 20.625 34.6094C20.4373 34.8768 20.3213 34.9819 20 35.0488C19.6817 34.9825 19.5669 34.869 19.375 34.6094C19.3262 34.375 19.3262 34.375 19.375 34.1406C19.5692 33.8779 19.6808 33.7656 20.0049 33.7061Z" fill="url(#paint7_linear_2000_96452)"/>
<path d="M20.0049 33.7061C20.2925 33.7611 20.3805 33.8221 20.5469 34.0625C20.6299 34.3311 20.6299 34.3311 20.625 34.6094C20.4373 34.8768 20.3213 34.9819 20 35.0488C19.6817 34.9825 19.5669 34.869 19.375 34.6094C19.3262 34.375 19.3262 34.375 19.375 34.1406C19.5692 33.8779 19.6808 33.7656 20.0049 33.7061Z" fill="url(#paint8_linear_2000_96452)"/>
<path d="M20.0049 30.5811C20.2925 30.6361 20.3805 30.6971 20.5469 30.9375C20.6299 31.2061 20.6299 31.2061 20.625 31.4844C20.4373 31.7518 20.3213 31.8569 20 31.9238C19.6817 31.8575 19.5669 31.744 19.375 31.4844C19.3262 31.25 19.3262 31.25 19.375 31.0156C19.5692 30.7529 19.6808 30.6406 20.0049 30.5811Z" fill="url(#paint9_linear_2000_96452)"/>
<path d="M20.0049 30.5811C20.2925 30.6361 20.3805 30.6971 20.5469 30.9375C20.6299 31.2061 20.6299 31.2061 20.625 31.4844C20.4373 31.7518 20.3213 31.8569 20 31.9238C19.6817 31.8575 19.5669 31.744 19.375 31.4844C19.3262 31.25 19.3262 31.25 19.375 31.0156C19.5692 30.7529 19.6808 30.6406 20.0049 30.5811Z" fill="url(#paint10_linear_2000_96452)"/>
<circle cx="32" cy="33" r="7" fill="url(#paint11_linear_2000_96452)"/>
<path d="M29 33.0002H32M32 33.0002H35M32 33.0002L31.9998 36M32 33.0002L31.9998 30" stroke="white" stroke-width="1.50006" stroke-linecap="round" stroke-linejoin="round"/>
</g>
</g>
<defs>
<linearGradient id="paint0_linear_2000_96452" x1="20.0013" y1="0.029541" x2="20.0013" y2="40.0405" gradientUnits="userSpaceOnUse">
<stop stop-color="#FFCF4A"/>
<stop offset="1" stop-color="#E5A900"/>
</linearGradient>
<linearGradient id="paint1_linear_2000_96452" x1="20" y1="0.029541" x2="20" y2="14.2188" gradientUnits="userSpaceOnUse">
<stop stop-color="#FFCF4A"/>
<stop offset="1" stop-color="#E5A900"/>
</linearGradient>
<linearGradient id="paint2_linear_2000_96452" x1="32.9297" y1="25" x2="30.9578" y2="40.0194" gradientUnits="userSpaceOnUse">
<stop stop-color="#FFCF4A"/>
<stop offset="1" stop-color="#E5A900"/>
</linearGradient>
<linearGradient id="paint3_linear_2000_96452" x1="17.2995" y1="15.6297" x2="22.683" y2="6.50191" gradientUnits="userSpaceOnUse">
<stop stop-color="#176CF7"/>
<stop offset="1" stop-color="#0C36C1"/>
</linearGradient>
<linearGradient id="paint4_linear_2000_96452" x1="22.9616" y1="32.8846" x2="29.8483" y2="29.2495" gradientUnits="userSpaceOnUse">
<stop stop-color="#176CF7"/>
<stop offset="1" stop-color="#0C36C1"/>
</linearGradient>
<linearGradient id="paint5_linear_2000_96452" x1="14.7585" y1="32.85" x2="21.6364" y2="29.2089" gradientUnits="userSpaceOnUse">
<stop stop-color="#176CF7"/>
<stop offset="1" stop-color="#0C36C1"/>
</linearGradient>
<linearGradient id="paint6_linear_2000_96452" x1="18.9324" y1="8.12817" x2="23.9704" y2="4.117" gradientUnits="userSpaceOnUse">
<stop stop-color="#176CF7"/>
<stop offset="1" stop-color="#0C36C1"/>
</linearGradient>
<linearGradient id="paint7_linear_2000_96452" x1="19.9825" y1="33.7061" x2="19.9825" y2="35.0488" gradientUnits="userSpaceOnUse">
<stop stop-color="#FBC428"/>
<stop offset="1" stop-color="#FFDF84"/>
</linearGradient>
<linearGradient id="paint8_linear_2000_96452" x1="19.9825" y1="33.7061" x2="19.9825" y2="35.0488" gradientUnits="userSpaceOnUse">
<stop stop-color="#85B3FF"/>
<stop offset="1" stop-color="#2172F8"/>
</linearGradient>
<linearGradient id="paint9_linear_2000_96452" x1="19.9825" y1="30.5811" x2="19.9825" y2="31.9238" gradientUnits="userSpaceOnUse">
<stop stop-color="#FBC428"/>
<stop offset="1" stop-color="#FFDF84"/>
</linearGradient>
<linearGradient id="paint10_linear_2000_96452" x1="19.9825" y1="30.5811" x2="19.9825" y2="31.9238" gradientUnits="userSpaceOnUse">
<stop stop-color="#85B3FF"/>
<stop offset="1" stop-color="#2172F8"/>
</linearGradient>
<linearGradient id="paint11_linear_2000_96452" x1="30.0167" y1="43.2308" x2="41.8403" y2="36.8012" gradientUnits="userSpaceOnUse">
<stop stop-color="#176CF7"/>
<stop offset="1" stop-color="#0C36C1"/>
</linearGradient>
<clipPath id="clip0_2000_96452">
<rect width="40" height="40" fill="white"/>
</clipPath>
<clipPath id="clip1_2000_96452">
<rect width="40" height="40" fill="white"/>
</clipPath>
</defs>
</svg>
