<svg width="40" height="41" viewBox="0 0 40 41" fill="none" xmlns="http://www.w3.org/2000/svg">
<path d="M15.4945 18.0813H1V30.611H15.4945V18.0813Z" fill="url(#paint0_linear_1097_90598)"/>
<path d="M15.4945 18.0813H1V30.611H15.4945V18.0813Z" fill="url(#paint1_linear_1097_90598)"/>
<path d="M18.4191 14.6211V27.0605L15.4863 30.6049V18.1192L18.4191 14.6211Z" fill="url(#paint2_linear_1097_90598)"/>
<path d="M18.4191 14.6211V27.0605L15.4863 30.6049V18.1192L18.4191 14.6211Z" fill="url(#paint3_linear_1097_90598)"/>
<path d="M3.36621 18.0918V22.6214L4.56669 22.0335L5.89983 22.6214L7.27811 21.8952L8.3337 22.6214V18.0918H3.36621Z" fill="url(#paint4_linear_1097_90598)"/>
<path d="M3.36621 18.0918V22.6214L4.56669 22.0335L5.89983 22.6214L7.27811 21.8952L8.3337 22.6214V18.0918H3.36621Z" fill="url(#paint5_linear_1097_90598)"/>
<path d="M15.4946 18.1188H1L5.04872 14.6484H18.4447L15.4946 18.1188Z" fill="url(#paint6_linear_1097_90598)"/>
<path d="M15.4946 18.1188H1L5.04872 14.6484H18.4447L15.4946 18.1188Z" fill="url(#paint7_linear_1097_90598)"/>
<path d="M3.36816 18.0934L7.14747 14.623H11.9936L8.33668 18.0934H3.36816Z" fill="url(#paint8_linear_1097_90598)"/>
<path d="M3.36816 18.0934L7.14747 14.623H11.9936L8.33668 18.0934H3.36816Z" fill="url(#paint9_linear_1097_90598)"/>
<path d="M9.10422 27.333H3.05762V27.933H9.10422V27.333Z" fill="url(#paint10_linear_1097_90598)"/>
<path d="M7.01471 28.991H3.05762V29.591H7.01471V28.991Z" fill="url(#paint11_linear_1097_90598)"/>
<path d="M35.1181 14.9465H17V30.6086H35.1181V14.9465Z" fill="url(#paint12_linear_1097_90598)"/>
<path d="M35.1181 14.9465H17V30.6086H35.1181V14.9465Z" fill="url(#paint13_linear_1097_90598)"/>
<path d="M38.7733 10.6211V26.1704L35.2277 30.6211L35.1074 14.9937L38.7733 10.6211Z" fill="url(#paint14_linear_1097_90598)"/>
<path d="M38.7733 10.6211V26.1704L35.2277 30.6211L35.1074 14.9937L38.7733 10.6211Z" fill="url(#paint15_linear_1097_90598)"/>
<path d="M19.958 14.96V20.622L21.4586 19.8871L23.125 20.622L24.8479 19.7142L26.1674 20.622V14.96H19.958Z" fill="url(#paint16_linear_1097_90598)"/>
<path d="M19.958 14.96V20.622L21.4586 19.8871L23.125 20.622L24.8479 19.7142L26.1674 20.622V14.96H19.958Z" fill="url(#paint17_linear_1097_90598)"/>
<path d="M35.1182 14.9932H17L22.0609 10.6553H38.8059L35.1182 14.9932Z" fill="url(#paint18_linear_1097_90598)"/>
<path d="M35.1182 14.9932H17L22.0609 10.6553H38.8059L35.1182 14.9932Z" fill="url(#paint19_linear_1097_90598)"/>
<path d="M19.957 14.9961L24.6841 10.623H30.7417L26.168 14.9961H19.957Z" fill="url(#paint20_linear_1097_90598)"/>
<path d="M19.957 14.9961L24.6841 10.623H30.7417L26.168 14.9961H19.957Z" fill="url(#paint21_linear_1097_90598)"/>
<path d="M27.1295 26.5107H19.5713V27.1107H27.1295V26.5107Z" fill="url(#paint22_linear_1097_90598)"/>
<path d="M24.5177 28.583H19.5713V29.183H24.5177V28.583Z" fill="url(#paint23_linear_1097_90598)"/>
<path d="M37.9889 33.1171L36.4846 24.2322C36.4241 23.8745 36.1301 23.6141 35.7868 23.6141H33.2851C33.7542 23.125 34.0457 22.4455 34.0457 21.695C34.0457 20.209 32.9037 19 31.5 19C30.0963 19 28.9543 20.209 28.9543 21.695C28.9543 22.4455 29.2458 23.125 29.7149 23.6141H27.2132C26.8699 23.6141 26.576 23.8745 26.5154 24.2322L25.0111 33.1171C24.9741 33.3359 25.0305 33.5607 25.1652 33.7311C25.2999 33.9015 25.499 34 25.7089 34H37.2911C37.501 34 37.7001 33.9015 37.8348 33.7311C37.9695 33.5607 38.0259 33.3359 37.9889 33.1171ZM31.5 20.501C32.1219 20.501 32.6278 21.0366 32.6278 21.695C32.6278 22.3534 32.1219 22.8891 31.5 22.8891C30.8781 22.8891 30.3722 22.3534 30.3722 21.695C30.3722 21.0366 30.8781 20.501 31.5 20.501Z" fill="url(#paint24_linear_1097_90598)"/>
<path d="M30.396 27.605H29.5568V29.9337H28.8392V27.605H28V27H30.396V27.605Z" fill="white"/>
<path d="M32.4998 28.8936C32.4998 29.5691 31.9711 30 31.3374 30C30.708 30 30.1793 29.5691 30.1793 28.8936C30.1793 28.2182 30.708 27.8039 31.3374 27.8039C31.9711 27.8039 32.4998 28.2182 32.4998 28.8936ZM31.8368 28.8936C31.8368 28.6285 31.6605 28.3674 31.3374 28.3674C31.0143 28.3674 30.8465 28.6285 30.8465 28.8936C30.8465 29.1588 31.0185 29.4282 31.3416 29.4282C31.6647 29.4282 31.8368 29.1588 31.8368 28.8936Z" fill="white"/>
<path d="M35 29.9337H34.3076V28.8066C34.3076 28.5787 34.2447 28.3715 33.9971 28.3715C33.7537 28.3715 33.6279 28.5787 33.6279 28.8149V29.9337H32.9355V27.8702H33.6027V28.1561H33.6111C33.7076 27.9738 33.9468 27.8122 34.2363 27.8122C34.7986 27.8122 35 28.2431 35 28.6575V29.9337Z" fill="white"/>
<defs>
<linearGradient id="paint0_linear_1097_90598" x1="1.28138" y1="17.3209" x2="1.28138" y2="31.9181" gradientUnits="userSpaceOnUse">
<stop stop-color="#0060FF"/>
<stop offset="1" stop-color="#3581FF"/>
</linearGradient>
<linearGradient id="paint1_linear_1097_90598" x1="8.24726" y1="18.0813" x2="8.24726" y2="30.611" gradientUnits="userSpaceOnUse">
<stop stop-color="#FFD66D"/>
<stop offset="1" stop-color="#CA9100"/>
</linearGradient>
<linearGradient id="paint2_linear_1097_90598" x1="15.5433" y1="13.6501" x2="15.5433" y2="32.2903" gradientUnits="userSpaceOnUse">
<stop stop-color="#002D84"/>
<stop offset="1" stop-color="#4785EB"/>
</linearGradient>
<linearGradient id="paint3_linear_1097_90598" x1="16.9527" y1="14.6211" x2="16.9527" y2="30.6211" gradientUnits="userSpaceOnUse">
<stop stop-color="#E1A200"/>
<stop offset="1" stop-color="#FFD466"/>
</linearGradient>
<linearGradient id="paint4_linear_1097_90598" x1="5.84996" y1="18.0918" x2="5.84996" y2="22.6214" gradientUnits="userSpaceOnUse">
<stop stop-color="#FBC428"/>
<stop offset="1" stop-color="#FFDF84"/>
</linearGradient>
<linearGradient id="paint5_linear_1097_90598" x1="5.84996" y1="18.0918" x2="5.84996" y2="22.6214" gradientUnits="userSpaceOnUse">
<stop stop-color="#0B5FE9"/>
<stop offset="1" stop-color="#5185F2"/>
</linearGradient>
<linearGradient id="paint6_linear_1097_90598" x1="1" y1="16.3836" x2="18.4447" y2="16.3836" gradientUnits="userSpaceOnUse">
<stop stop-color="#176CF7"/>
<stop offset="1" stop-color="#0052B4"/>
</linearGradient>
<linearGradient id="paint7_linear_1097_90598" x1="5.65975" y1="15.4378" x2="8.44321" y2="20.4571" gradientUnits="userSpaceOnUse">
<stop stop-color="#FFB800"/>
<stop offset="1" stop-color="#FFC122"/>
</linearGradient>
<linearGradient id="paint8_linear_1097_90598" x1="7.68087" y1="14.623" x2="7.68087" y2="18.0934" gradientUnits="userSpaceOnUse">
<stop stop-color="#FBC428"/>
<stop offset="1" stop-color="#FFDF84"/>
</linearGradient>
<linearGradient id="paint9_linear_1097_90598" x1="7.68087" y1="14.623" x2="7.68087" y2="18.0934" gradientUnits="userSpaceOnUse">
<stop stop-color="#85B3FF"/>
<stop offset="1" stop-color="#2172F8"/>
</linearGradient>
<linearGradient id="paint10_linear_1097_90598" x1="5.22432" y1="28.0715" x2="5.43754" y2="26.903" gradientUnits="userSpaceOnUse">
<stop stop-color="#176CF7"/>
<stop offset="1" stop-color="#0C36C1"/>
</linearGradient>
<linearGradient id="paint11_linear_1097_90598" x1="4.47557" y1="29.7294" x2="4.78795" y2="28.6091" gradientUnits="userSpaceOnUse">
<stop stop-color="#176CF7"/>
<stop offset="1" stop-color="#0C36C1"/>
</linearGradient>
<linearGradient id="paint12_linear_1097_90598" x1="17.3517" y1="13.996" x2="17.3517" y2="32.2426" gradientUnits="userSpaceOnUse">
<stop stop-color="#0060FF"/>
<stop offset="1" stop-color="#3581FF"/>
</linearGradient>
<linearGradient id="paint13_linear_1097_90598" x1="26.0591" y1="14.9465" x2="26.0591" y2="30.6086" gradientUnits="userSpaceOnUse">
<stop stop-color="#FFD66D"/>
<stop offset="1" stop-color="#CA9100"/>
</linearGradient>
<linearGradient id="paint14_linear_1097_90598" x1="35.1786" y1="9.40731" x2="35.1786" y2="32.7076" gradientUnits="userSpaceOnUse">
<stop stop-color="#002D84"/>
<stop offset="1" stop-color="#4785EB"/>
</linearGradient>
<linearGradient id="paint15_linear_1097_90598" x1="36.9404" y1="10.6211" x2="36.9404" y2="30.6211" gradientUnits="userSpaceOnUse">
<stop stop-color="#E1A200"/>
<stop offset="1" stop-color="#FFD466"/>
</linearGradient>
<linearGradient id="paint16_linear_1097_90598" x1="23.0627" y1="14.96" x2="23.0627" y2="20.622" gradientUnits="userSpaceOnUse">
<stop stop-color="#FBC428"/>
<stop offset="1" stop-color="#FFDF84"/>
</linearGradient>
<linearGradient id="paint17_linear_1097_90598" x1="23.0627" y1="14.96" x2="23.0627" y2="20.622" gradientUnits="userSpaceOnUse">
<stop stop-color="#0B5FE9"/>
<stop offset="1" stop-color="#5185F2"/>
</linearGradient>
<linearGradient id="paint18_linear_1097_90598" x1="17" y1="12.8242" x2="38.8059" y2="12.8242" gradientUnits="userSpaceOnUse">
<stop stop-color="#176CF7"/>
<stop offset="1" stop-color="#0052B4"/>
</linearGradient>
<linearGradient id="paint19_linear_1097_90598" x1="22.8247" y1="11.6419" x2="26.304" y2="17.9161" gradientUnits="userSpaceOnUse">
<stop stop-color="#FFB800"/>
<stop offset="1" stop-color="#FFC122"/>
</linearGradient>
<linearGradient id="paint20_linear_1097_90598" x1="25.3508" y1="10.623" x2="25.3508" y2="14.961" gradientUnits="userSpaceOnUse">
<stop stop-color="#FBC428"/>
<stop offset="1" stop-color="#FFDF84"/>
</linearGradient>
<linearGradient id="paint21_linear_1097_90598" x1="25.3508" y1="10.623" x2="25.3508" y2="14.961" gradientUnits="userSpaceOnUse">
<stop stop-color="#85B3FF"/>
<stop offset="1" stop-color="#2172F8"/>
</linearGradient>
<linearGradient id="paint22_linear_1097_90598" x1="22.2797" y1="27.2492" x2="22.4522" y2="26.067" gradientUnits="userSpaceOnUse">
<stop stop-color="#176CF7"/>
<stop offset="1" stop-color="#0C36C1"/>
</linearGradient>
<linearGradient id="paint23_linear_1097_90598" x1="21.3437" y1="29.3215" x2="21.6003" y2="28.1713" gradientUnits="userSpaceOnUse">
<stop stop-color="#176CF7"/>
<stop offset="1" stop-color="#0C36C1"/>
</linearGradient>
<linearGradient id="paint24_linear_1097_90598" x1="29.6583" y1="37.4615" x2="41.2986" y2="31.9757" gradientUnits="userSpaceOnUse">
<stop stop-color="#176CF7"/>
<stop offset="1" stop-color="#0C36C1"/>
</linearGradient>
</defs>
</svg>
