<svg width="20" height="20" viewBox="0 0 20 20" fill="none" xmlns="http://www.w3.org/2000/svg">
<path d="M10.0007 14.375C10.3458 14.375 10.6257 14.6548 10.6257 15C10.6257 15.3452 10.3458 15.625 10.0007 15.625H6.66732C6.32214 15.625 6.04232 15.3452 6.04232 15C6.04232 14.6548 6.32214 14.375 6.66732 14.375H10.0007Z" fill="currentColor"/>
<path d="M13.334 11.0417C13.6792 11.0417 13.959 11.3215 13.959 11.6667C13.959 12.0119 13.6792 12.2917 13.334 12.2917H6.66732C6.32214 12.2917 6.04232 12.0119 6.04232 11.6667C6.04232 11.3215 6.32214 11.0417 6.66732 11.0417H13.334Z" fill="currentColor"/>
<path d="M13.334 7.70834C13.6792 7.70834 13.959 7.98816 13.959 8.33334C13.959 8.67852 13.6792 8.95834 13.334 8.95834H6.66732C6.32214 8.95834 6.04232 8.67852 6.04232 8.33334C6.04232 7.98816 6.32214 7.70834 6.66732 7.70834H13.334Z" fill="currentColor"/>
<path fill-rule="evenodd" clip-rule="evenodd" d="M12.5007 1.04167C13.3059 1.04189 13.959 1.69473 13.959 2.50001V2.70834H15.0015C15.6091 2.70845 16.1921 2.95005 16.6217 3.37973C17.0514 3.80948 17.2931 4.39231 17.2931 5.00001V16.6667C17.2931 17.2744 17.0514 17.8572 16.6217 18.287C16.1921 18.7166 15.6091 18.9582 15.0015 18.9583H5.00146C4.39377 18.9583 3.81094 18.7166 3.38118 18.287C2.95141 17.8572 2.70898 17.2745 2.70898 16.6667V5.00001C2.70898 4.39222 2.95141 3.8095 3.38118 3.37973C3.81094 2.95008 4.39377 2.70834 5.00146 2.70834H6.04232V2.50001C6.04232 1.69459 6.69524 1.04167 7.50065 1.04167H12.5007ZM5.00146 3.95834C4.72529 3.95834 4.4603 4.06829 4.26497 4.26351C4.06962 4.45886 3.9598 4.72374 3.9598 5.00001V16.6667C3.9598 16.9429 4.06962 17.2078 4.26497 17.4032C4.46031 17.5984 4.72529 17.7083 5.00146 17.7083H15.0015C15.2776 17.7082 15.5427 17.5984 15.738 17.4032C15.9332 17.2078 16.0431 16.9428 16.0431 16.6667V5.00001C16.0431 4.72383 15.9332 4.45885 15.738 4.26351C15.5427 4.06826 15.2776 3.95845 15.0015 3.95834H13.959V4.16667C13.959 4.97195 13.3059 5.62479 12.5007 5.62501H7.50065C6.69524 5.62501 6.04232 4.97209 6.04232 4.16667V3.95834H5.00146ZM7.50065 2.29167C7.38559 2.29167 7.29232 2.38495 7.29232 2.50001V3.31706C7.29246 3.32247 7.29313 3.32789 7.29313 3.33334C7.29313 3.33851 7.29244 3.34366 7.29232 3.3488V4.16667C7.29232 4.28173 7.38559 4.37501 7.50065 4.37501H12.5007C12.6155 4.37479 12.709 4.2816 12.709 4.16667V2.50001C12.709 2.38508 12.6155 2.29189 12.5007 2.29167H7.50065Z" fill="currentColor"/>
</svg>
