<svg width="20" height="20" viewBox="0 0 20 20" fill="none" xmlns="http://www.w3.org/2000/svg">
<path d="M8.32819 5.2889C8.31749 5.18047 8.29028 5.07415 8.24844 4.97314C8.19263 4.83844 8.11142 4.71565 8.00837 4.61263L8.00592 4.611L6.85439 3.44971C6.75145 3.3466 6.62919 3.26542 6.49469 3.20964C6.36025 3.15391 6.21621 3.125 6.0707 3.125C5.92518 3.12501 5.78117 3.15389 5.64671 3.20964C5.5122 3.26543 5.38997 3.34739 5.28701 3.45052L5.28457 3.45215L3.19554 5.52409L3.19635 5.5249C3.15675 5.56429 3.13211 5.61647 3.12637 5.6722C3.12078 5.72715 3.13387 5.78218 3.1638 5.82845L3.71637 6.63981C6.34132 10.3905 9.60192 13.6527 13.3502 16.2793L14.1607 16.8327L14.1632 16.8343L14.199 16.8538C14.2368 16.8707 14.2786 16.8782 14.3202 16.8742C14.3616 16.8702 14.4011 16.8554 14.435 16.8319L14.4667 16.805L16.5411 14.7298L16.616 14.6484C16.6867 14.5638 16.7447 14.469 16.7877 14.3669C16.8449 14.2306 16.8747 14.0842 16.8747 13.9364C16.8747 13.7885 16.845 13.6421 16.7877 13.5059C16.7304 13.3696 16.6466 13.2462 16.5411 13.1429L15.357 11.958C15.2541 11.8549 15.1318 11.7729 14.9973 11.7171C14.8963 11.6753 14.7899 11.6488 14.6815 11.6382L14.5733 11.6325C14.4277 11.6325 14.283 11.6613 14.1485 11.7171C14.014 11.7729 13.8917 11.8549 13.7888 11.958L13.7864 11.9605L13.0059 12.7327C12.803 12.9334 12.4898 12.9715 12.245 12.8247C10.1489 11.5678 8.3941 9.81407 7.13434 7.71891C6.98589 7.47193 7.02558 7.15584 7.23037 6.95313L8.00999 6.18083C8.11205 6.07825 8.19302 5.95654 8.24844 5.82275C8.30421 5.68807 8.33307 5.54376 8.33307 5.39795L8.32819 5.2889ZM9.57168 5.62988C9.54893 5.86035 9.49217 6.08654 9.40322 6.30127C9.28457 6.58768 9.1106 6.8479 8.89134 7.06706L8.88971 7.0695L8.46572 7.48779C9.5087 9.08998 10.8753 10.4555 12.4786 11.4958L12.9042 11.075L13.0759 10.9188C13.2549 10.7717 13.4553 10.6522 13.67 10.5632C13.9563 10.4444 14.2633 10.3825 14.5733 10.3825L14.8044 10.3939C15.0351 10.4166 15.2618 10.474 15.4766 10.5632C15.7628 10.6819 16.0227 10.8558 16.2416 11.075L17.4151 12.2493L17.5746 12.4219C17.7252 12.6019 17.8486 12.8036 17.94 13.0208C18.0618 13.3105 18.1247 13.6221 18.1247 13.9364C18.1247 14.2505 18.0618 14.5615 17.94 14.8511C17.819 15.1387 17.6416 15.3989 17.4192 15.6177L17.42 15.6185L15.3464 17.6937L15.3456 17.6929C15.1011 17.9349 14.7807 18.0858 14.4382 18.1185C14.0957 18.151 13.7523 18.0643 13.4665 17.8727C8.96626 14.8835 5.10902 11.0227 2.12213 6.51937L2.12132 6.51855C1.93175 6.23095 1.84755 5.88624 1.88288 5.54362C1.91821 5.201 2.07071 4.88071 2.31501 4.63786L4.40404 2.5651C4.62261 2.34668 4.88195 2.17326 5.16738 2.05485C5.45371 1.93608 5.76073 1.87501 6.0707 1.875C6.38068 1.875 6.68769 1.93608 6.97402 2.05485C7.18887 2.14397 7.38907 2.26412 7.5681 2.4113L7.73981 2.56755L7.74062 2.56836L8.89378 3.73047C9.11233 3.9493 9.28484 4.20889 9.40322 4.49463C9.52187 4.78102 9.58306 5.08795 9.58307 5.39795L9.57168 5.62988Z" fill="currentColor"/>
</svg>
