<svg width="16" height="17" viewBox="0 0 16 17" fill="none" xmlns="http://www.w3.org/2000/svg">
<path d="M6.91642 1.41696C10.1629 0.919053 13.3529 2.6991 14.6202 5.75876L14.7361 6.05628C15.8217 9.04381 14.8046 12.3957 12.2419 14.2763L11.9809 14.4593C9.22715 16.299 5.58572 16.0065 3.16317 13.7887L2.93205 13.568C1.67221 12.308 0.929938 10.627 0.842204 8.85576L0.83374 8.50029C0.834052 5.08171 3.24905 2.13909 6.60197 1.4723L6.91642 1.41696ZM10.9796 5.92542C11.1749 5.73024 11.4914 5.73016 11.6866 5.92542C11.8816 6.12067 11.8817 6.43726 11.6866 6.63245L7.24194 11.0758C7.04668 11.271 6.73015 11.271 6.53491 11.0758L4.31291 8.85381C4.11796 8.65855 4.11781 8.34195 4.31291 8.14678C4.50817 7.95151 4.82533 7.95151 5.02059 8.14678L6.88843 10.0153L10.9796 5.92542ZM1.84155 8.80628C1.91706 10.3303 2.55568 11.7768 3.63973 12.861L3.83765 13.0504C5.9221 14.959 9.05528 15.2109 11.4249 13.6279L11.6501 13.4703C13.8551 11.8521 14.7301 8.968 13.796 6.39743L13.6964 6.14157C12.6059 3.50874 9.86102 1.97736 7.06746 2.40589L6.79728 2.45342C3.9122 3.0271 1.83405 5.55875 1.83374 8.50029L1.84155 8.80628Z" fill="#555555"/>
</svg>
