<svg width="16" height="17" viewBox="0 0 16 17" fill="none" xmlns="http://www.w3.org/2000/svg">
<path d="M4.70439 12.8875C4.19535 12.8875 3.78244 13.2997 3.78237 13.8088C3.78237 13.826 3.78358 13.8432 3.78451 13.8602C3.78658 13.8774 3.78835 13.8947 3.78879 13.9123C3.84022 14.3727 4.23028 14.7308 4.70439 14.7308C5.1216 14.7308 5.47354 14.4533 5.58714 14.073C5.56741 14.0165 5.555 13.9563 5.555 13.893C5.555 13.8067 5.57591 13.7257 5.61142 13.6531C5.53727 13.2184 5.16023 12.8875 4.70439 12.8875ZM10.935 12.8875C10.426 12.8875 10.0131 13.2998 10.013 13.8088C10.0172 13.8363 10.0201 13.8644 10.0201 13.893C10.0201 13.899 10.0189 13.905 10.0187 13.9109C10.0695 14.372 10.4604 14.7308 10.935 14.7308C11.4441 14.7308 11.857 14.3179 11.857 13.8088C11.857 13.2997 11.4441 12.8875 10.935 12.8875ZM9.90516 10.9056V7.6167C9.8949 7.57479 9.88802 7.53108 9.88802 7.486C9.88804 7.44083 9.89483 7.3973 9.90516 7.35531V6.36972C9.90516 6.26928 9.88574 6.16969 9.84731 6.0769C9.80891 5.9842 9.75253 5.90005 9.68161 5.82907C9.6106 5.75806 9.52586 5.70181 9.43307 5.66338C9.36358 5.63461 9.29053 5.61576 9.21596 5.60839L9.14097 5.60482H2.7225C2.51967 5.60482 2.32528 5.68565 2.18186 5.82907C2.03843 5.9725 1.9576 6.16688 1.9576 6.36972V12.6132C1.95762 12.816 2.03845 13.0104 2.18186 13.1539C2.32527 13.2972 2.51971 13.3781 2.7225 13.3781H2.73321C2.9307 12.4703 3.73742 11.7905 4.70439 11.7905C5.6593 11.7905 6.45704 12.4537 6.667 13.3445H8.97242C9.18239 12.4537 9.9801 11.7905 10.935 11.7905C11.881 11.7905 12.6722 12.4414 12.8912 13.3195H14.0418V10.4578L14.0332 10.3571C14.0166 10.2579 13.9767 10.1635 13.9161 10.0821L12.442 8.12164L12.4063 8.08521C12.3929 8.07441 12.3783 8.06491 12.3627 8.05736C12.3318 8.04239 12.2977 8.03447 12.2634 8.0345H11.0022V10.9056C11.0022 11.2085 10.7566 11.4541 10.4537 11.4541C10.1509 11.4539 9.90516 11.2084 9.90516 10.9056ZM11.0022 6.9375H12.2627L12.412 6.94607C12.5609 6.96285 12.7064 7.00528 12.8419 7.07106C12.9772 7.13677 13.1002 7.22454 13.2054 7.33102L13.3047 7.44387L13.3119 7.45315L14.7931 9.4229L14.7938 9.42433L14.8724 9.53788C15.0442 9.81059 15.1367 10.1272 15.1388 10.4513V13.7366C15.1388 13.9169 15.067 14.0898 14.9395 14.2173C14.812 14.3448 14.6391 14.4165 14.4589 14.4165H12.8605C12.6026 15.2345 11.8382 15.8278 10.935 15.8278C10.0412 15.8278 9.28441 15.2464 9.01884 14.4415H6.61986C6.35424 15.2463 5.5981 15.8278 4.70439 15.8278C3.82316 15.8278 3.07578 15.2623 2.80035 14.4751H2.7225C2.22877 14.4751 1.75538 14.2786 1.40624 13.9295C1.05711 13.5803 0.860616 13.107 0.860596 12.6132V6.36972C0.860596 5.87594 1.05709 5.40261 1.40624 5.05346C1.75539 4.7043 2.22872 4.50781 2.7225 4.50781H9.14097L9.32309 4.5171C9.50492 4.535 9.68359 4.57907 9.85302 4.64922C10.0789 4.74279 10.2843 4.88057 10.4572 5.05346C10.63 5.22626 10.7672 5.43121 10.8607 5.65695C10.9543 5.88283 11.0022 6.12522 11.0022 6.36972V6.9375Z" fill="#555555"/>
<g clip-path="url(#clip0_4032_350406)">
<circle cx="5.29269" cy="4.79587" r="3.22204" fill="white" stroke="#555555" stroke-width="0.8"/>
<path d="M6.72042 4.97483C6.72777 4.91602 6.73153 4.85613 6.73153 4.79533C6.73153 4.00227 6.08864 3.35938 5.29558 3.35938C4.84674 3.35938 4.44599 3.5653 4.18267 3.88784M4.18267 3.88784V3.35938M4.18267 3.88784V3.89785L4.72116 3.89786M3.87073 4.61584C3.8634 4.67464 3.85962 4.73454 3.85962 4.79533C3.85962 5.58839 4.50252 6.23129 5.29558 6.23129C5.72446 6.23129 6.10942 6.04327 6.37254 5.74515M6.37254 5.74515V5.69281H5.83406M6.37254 5.74515V6.23129" stroke="#555555" stroke-width="0.6" stroke-linecap="round" stroke-linejoin="round"/>
</g>
<defs>
<clipPath id="clip0_4032_350406">
<rect width="7.24407" height="7.24407" fill="white" transform="translate(1.67065 1.17383)"/>
</clipPath>
</defs>
</svg>
