<svg width="16" height="16" viewBox="0 0 16 16" fill="none" xmlns="http://www.w3.org/2000/svg">
<path d="M14.1673 6.53125H1.83398V12.6699C1.83415 13.1273 2.20613 13.5 2.66732 13.5H13.334C13.7952 13.5 14.1672 13.1273 14.1673 12.6699V6.53125ZM7.57422 9.51562H8.57422V8.52018H7.57422V9.51562ZM3.74089 9.51562H4.74089V8.52018H3.74089V9.51562ZM14.1673 4.6875C14.1673 4.22994 13.7953 3.85677 13.334 3.85677H2.66732C2.20603 3.85677 1.83398 4.22994 1.83398 4.6875V5.53125H14.1673V4.6875ZM5.74089 9.68294C5.74088 10.1437 5.36663 10.5155 4.90755 10.5156H3.57422C3.11503 10.5156 2.74089 10.1438 2.74089 9.68294V8.35286C2.74089 7.89199 3.11503 7.52018 3.57422 7.52018H4.90755C5.36663 7.52031 5.74089 7.89207 5.74089 8.35286V9.68294ZM9.57422 9.68294C9.57421 10.1437 9.19998 10.5155 8.74089 10.5156H7.40755C6.94837 10.5156 6.57423 10.1438 6.57422 9.68294V8.35286C6.57422 7.89199 6.94836 7.52018 7.40755 7.52018H8.74089C9.19998 7.52029 9.57422 7.89206 9.57422 8.35286V9.68294ZM15.1673 12.6699C15.1672 13.6817 14.3454 14.5 13.334 14.5H2.66732C1.65594 14.5 0.834145 13.6817 0.833984 12.6699V4.6875C0.833984 3.67557 1.65584 2.85677 2.66732 2.85677H3.54036V2C3.54036 1.72395 3.76435 1.50015 4.04036 1.5C4.31651 1.5 4.54036 1.72386 4.54036 2V2.85677H11.6276V2C11.6276 1.72386 11.8515 1.5 12.1276 1.5C12.4036 1.50016 12.6276 1.72396 12.6276 2V2.85677H13.334C14.3455 2.85677 15.1673 3.67557 15.1673 4.6875V12.6699Z" fill="white"/>
</svg>
