<svg width="18" height="18" viewBox="0 0 18 18" fill="none" xmlns="http://www.w3.org/2000/svg">
<path d="M16.0197 6.90797H1.91675" stroke="#FFC217" stroke-width="1.0625" stroke-linecap="round" stroke-linejoin="bevel"/>
<path d="M4.79248 4.0668V2.625" stroke="#FFC217" stroke-width="1.0625" stroke-linecap="round" stroke-linejoin="bevel"/>
<path d="M13.3848 4.0668V2.625" stroke="#FFC217" stroke-width="1.0625" stroke-linecap="round" stroke-linejoin="bevel"/>
<path d="M14.6667 4.0668H3.33341C2.55101 4.0668 1.91675 4.69966 1.91675 5.48033V13.9615C1.91675 14.7421 2.55101 15.375 3.33341 15.375H14.6667C15.4492 15.375 16.0834 14.7421 16.0834 13.9615V5.48033C16.0834 4.69966 15.4492 4.0668 14.6667 4.0668Z" stroke="#FFC217" stroke-width="1.0625" stroke-linecap="round" stroke-linejoin="bevel"/>
<path d="M5.71346 9.02121H4.29679C4.10119 9.02121 3.94263 9.17942 3.94263 9.37459V10.7881C3.94263 10.9833 4.10119 11.1415 4.29679 11.1415H5.71346C5.90906 11.1415 6.06763 10.9833 6.06763 10.7881V9.37459C6.06763 9.17942 5.90906 9.02121 5.71346 9.02121Z" stroke="#FFC217" stroke-width="1.0625" stroke-linecap="round" stroke-linejoin="bevel"/>
<path d="M9.78646 9.02121H8.36979C8.17419 9.02121 8.01562 9.17942 8.01562 9.37459V10.7881C8.01562 10.9833 8.17419 11.1415 8.36979 11.1415H9.78646C9.98206 11.1415 10.1406 10.9833 10.1406 10.7881V9.37459C10.1406 9.17942 9.98206 9.02121 9.78646 9.02121Z" stroke="#FFC217" stroke-width="1.0625" stroke-linecap="round" stroke-linejoin="round"/>
</svg>
