<svg width="16" height="16" viewBox="0 0 16 16" fill="none" xmlns="http://www.w3.org/2000/svg">
<path fill-rule="evenodd" clip-rule="evenodd" d="M11.808 3.34106C12.1457 3.37714 12.4594 3.5345 12.6954 3.78247C12.9643 4.06527 13.112 4.44357 13.112 4.83325V5.33325H13.8015C13.9661 5.3331 14.128 5.37233 14.2741 5.44653C14.3839 5.50231 14.4823 5.57676 14.5658 5.66528L14.6446 5.75838L15.7266 7.27075L15.7273 7.2714L15.7878 7.3632C15.9198 7.58292 15.9903 7.83585 15.9922 8.09302V10.5969C15.9922 10.7486 15.9344 10.8988 15.8256 11.0129C15.7296 11.1135 15.5997 11.1791 15.4577 11.1939L15.3965 11.1972H14.474C14.2127 11.7413 13.6583 12.1183 13.0144 12.1184C12.319 12.1183 11.7277 11.6791 11.4981 11.0637H10.0072C9.77753 11.6792 9.18512 12.1183 8.48963 12.1184C7.80343 12.1182 7.21836 11.6904 6.98247 11.0878C6.59478 11.0836 6.22803 10.9212 5.96098 10.6412C5.87448 10.5504 5.80211 10.4488 5.74158 10.3411L1.59705 12.08L1.54888 12.0969C1.3067 12.1707 1.04308 12.0507 0.942756 11.8124C0.835952 11.5578 0.95576 11.2643 1.21033 11.1575L5.54367 9.33976V4.83325C5.54367 4.44302 5.69135 4.06407 5.96098 3.78117C6.23147 3.49757 6.60422 3.33334 6.99744 3.33325H11.6622L11.808 3.34106ZM8.48963 9.87883C8.14746 9.87911 7.8699 10.1565 7.86984 10.4986C7.87001 10.8406 8.14752 11.1181 8.48963 11.1184C8.83189 11.1183 9.1099 10.8407 9.11007 10.4986C9.11001 10.1564 8.83196 9.87893 8.48963 9.87883ZM13.0144 9.87883C12.6721 9.87894 12.3946 10.1564 12.3946 10.4986C12.3946 10.5065 12.3949 10.5143 12.3952 10.5221C12.3964 10.5359 12.3998 10.5496 12.3998 10.5637C12.3998 10.5659 12.3985 10.5681 12.3985 10.5702C12.4341 10.8786 12.6964 11.1183 13.0144 11.1184C13.3566 11.1183 13.6346 10.8407 13.6348 10.4986C13.6347 10.1564 13.3567 9.87894 13.0144 9.87883ZM6.99744 4.33325C6.88519 4.33334 6.77194 4.3801 6.68494 4.47127C6.59717 4.5634 6.54367 4.69326 6.54367 4.83325V9.58911C6.54369 9.72907 6.59719 9.85898 6.68494 9.95109C6.75332 10.0227 6.83834 10.0656 6.92583 10.0813C7.10995 9.38913 7.73956 8.87906 8.48963 8.87883C9.23346 8.87891 9.85932 9.38045 10.0495 10.0637H11.4558C11.6459 9.38053 12.2706 8.87892 13.0144 8.87883C13.8059 8.87892 14.4642 9.44663 14.6055 10.1972H14.9922V8.10018L14.9864 8.03247C14.9757 7.96586 14.9499 7.90357 14.9128 7.85148L13.8444 6.35864L13.8217 6.33781C13.8148 6.33435 13.8082 6.33329 13.8028 6.33325H13.112V8.28898C13.112 8.56494 12.8879 8.78874 12.612 8.78898C12.3361 8.78881 12.1121 8.56499 12.112 8.28898V4.83325C12.112 4.69347 12.0583 4.56404 11.9707 4.47192C11.9056 4.40352 11.8259 4.35991 11.7429 4.34237L11.6596 4.33325H6.99744Z" fill="#555555"/>
<path fill-rule="evenodd" clip-rule="evenodd" d="M3.37635 6.01164C3.69901 5.91494 4.04183 6.08053 4.16346 6.40356L5.05604 8.77661L5.07687 8.84172C5.15797 9.14764 5.0152 9.47646 4.73638 9.62622L4.67518 9.65552L2.45382 10.5741L2.39002 10.5976C2.08892 10.6876 1.77015 10.5496 1.63026 10.2681L1.60356 10.205L0.710334 7.8326C0.588811 7.50959 0.731503 7.14352 1.03 6.98299L1.09184 6.95369L3.31255 6.03442L3.37635 6.01164ZM1.752 7.76229L2.4102 9.51099L4.01502 8.84692L3.35682 7.09823L1.752 7.76229Z" fill="#555555"/>
</svg>
