<svg width="28" height="28" viewBox="0 0 28 28" fill="none" xmlns="http://www.w3.org/2000/svg">
<path d="M12.1037 1.60419C17.785 0.732855 23.3675 3.84794 25.5853 9.20233L25.7881 9.72301C27.688 14.9512 25.908 20.817 21.4233 24.1081L20.9665 24.4282C16.1474 27.6478 9.77495 27.1358 5.53548 23.2547L5.13102 22.8685C2.92631 20.6635 1.62733 17.7217 1.4738 14.6221L1.45898 14C1.45953 8.0175 5.68577 2.86792 11.5534 1.70103L12.1037 1.60419ZM19.2142 9.494C19.5559 9.15243 20.1099 9.15229 20.4515 9.494C20.7928 9.83569 20.7929 10.3897 20.4515 10.7313L12.6733 18.5072C12.3316 18.8488 11.7777 18.8488 11.436 18.5072L7.54753 14.6187C7.20637 14.277 7.20611 13.7229 7.54753 13.3814C7.88923 13.0397 8.44426 13.0397 8.78597 13.3814L12.0547 16.6512L19.2142 9.494ZM3.22266 14.5355C3.35479 17.2026 4.47238 19.7339 6.36947 21.6312L6.71582 21.9628C10.3636 25.3028 15.8467 25.7437 19.9935 22.9733L20.3877 22.6976C24.2463 19.8657 25.7777 14.8185 24.1429 10.32L23.9686 9.87226C22.0603 5.2648 17.2567 2.5849 12.368 3.33482L11.8952 3.41799C6.84629 4.42193 3.20953 8.85232 3.20898 14L3.22266 14.5355Z" fill="#0FBB81"/>
</svg>
