<svg width="12" height="12" viewBox="0 0 12 12" fill="none" xmlns="http://www.w3.org/2000/svg">
<path d="M5.96527 4.87512C5.90803 4.87512 5.84662 4.89915 5.79633 4.95275L3.27533 7.6798C3.13473 7.83184 2.89761 7.84089 2.74555 7.70031C2.59347 7.55972 2.58396 7.3226 2.72455 7.17053L5.24555 4.44396L5.24652 4.44299L5.31928 4.37219C5.49681 4.21574 5.72422 4.12512 5.96527 4.12512C6.24068 4.12512 6.49831 4.24335 6.68402 4.44299L6.685 4.44396L9.27533 7.24572C9.41581 7.3978 9.40637 7.63495 9.25433 7.77551C9.10226 7.91599 8.86511 7.90654 8.72455 7.75451L6.13422 4.95275C6.08392 4.89915 6.02251 4.87512 5.96527 4.87512Z" fill="currentColor"/>
</svg>
