<svg width="28" height="28" viewBox="0 0 28 28" fill="none" xmlns="http://www.w3.org/2000/svg">
<path d="M12.1043 1.60214C17.7859 0.731079 23.3683 3.84667 25.5859 9.20142L25.7887 9.72209C27.6883 14.9503 25.9086 20.8161 21.424 24.1072L20.966 24.4273C16.1466 27.647 9.77457 27.1343 5.53499 23.2527L5.13167 22.8665C2.9267 20.6613 1.62674 17.72 1.47331 14.62L1.4585 13.9991C1.45893 8.01614 5.68593 2.8658 11.554 1.69898L12.1043 1.60214ZM17.7542 9.00432C18.0958 8.6627 18.6498 8.66281 18.9915 9.00432C19.3331 9.34592 19.333 9.89987 18.9915 10.2416L15.2363 13.998L18.9927 17.7532C19.3343 18.0947 19.3351 18.6487 18.9938 18.9905C18.6522 19.3322 18.0983 19.3321 17.7565 18.9905L14.0002 15.2353L10.2438 18.9905C9.90204 19.3321 9.34815 19.3323 9.00651 18.9905C8.66503 18.6487 8.66485 18.0948 9.00651 17.7532L12.7617 13.998L9.00651 10.2416L8.94613 10.1755C8.66586 9.83189 8.68629 9.32465 9.00651 9.00432C9.32687 8.68408 9.83412 8.66371 10.1777 8.94393L10.2438 9.00432L13.999 12.7607L17.7542 9.00432ZM3.22217 14.5335C3.35419 17.2008 4.47174 19.7317 6.36898 21.6292L6.71647 21.9618C10.3645 25.3015 15.8474 25.7428 19.9941 22.9724L20.3883 22.6967C24.2469 19.8648 25.7779 14.8176 24.1436 10.3191L23.9692 9.8702C22.0609 5.26289 17.2573 2.58316 12.3687 3.33277L11.8947 3.41594C6.84561 4.42008 3.20887 8.85115 3.2085 13.9991L3.22217 14.5335Z" fill="#9D9D9D"/>
</svg>
