<svg width="16" height="16" viewBox="0 0 16 16" fill="none" xmlns="http://www.w3.org/2000/svg">
<path d="M8.00008 11.5007C8.27622 11.5007 8.50008 11.7245 8.50008 12.0007C8.50008 12.2768 8.27622 12.5007 8.00008 12.5007H5.33341C5.05727 12.5007 4.83341 12.2768 4.83341 12.0007C4.83342 11.7245 5.05727 11.5007 5.33341 11.5007H8.00008Z" fill="#461B02"/>
<path d="M10.6667 8.83398C10.9429 8.83398 11.1667 9.05784 11.1667 9.33398C11.1667 9.61013 10.9429 9.83398 10.6667 9.83398H5.33341C5.05727 9.83398 4.83341 9.61013 4.83341 9.33398C4.83342 9.05784 5.05727 8.83398 5.33341 8.83398H10.6667Z" fill="#461B02"/>
<path d="M10.6667 6.16732C10.9429 6.16732 11.1667 6.39118 11.1667 6.66732C11.1667 6.94346 10.9429 7.16732 10.6667 7.16732H5.33341C5.05727 7.16732 4.83341 6.94346 4.83341 6.66732C4.83342 6.39118 5.05727 6.16732 5.33341 6.16732H10.6667Z" fill="#461B02"/>
<path fill-rule="evenodd" clip-rule="evenodd" d="M10.0001 0.833984C10.6443 0.83416 11.1667 1.35643 11.1667 2.00065V2.16732H12.0007C12.4868 2.1674 12.9532 2.36069 13.297 2.70443C13.6407 3.04823 13.8341 3.5145 13.8341 4.00065V13.334C13.8341 13.8201 13.6407 14.2864 13.297 14.6302C12.9532 14.9739 12.4868 15.1672 12.0007 15.1673H4.00073C3.51458 15.1673 3.04831 14.9739 2.70451 14.6302C2.36069 14.2864 2.16675 13.8202 2.16675 13.334V4.00065C2.16675 3.51442 2.36069 3.04824 2.70451 2.70443C3.04831 2.36071 3.51458 2.16732 4.00073 2.16732H4.83341V2.00065C4.83341 1.35632 5.35575 0.833984 6.00008 0.833984H10.0001ZM4.00073 3.16732C3.7798 3.16732 3.5678 3.25528 3.41154 3.41146C3.25526 3.56774 3.1674 3.77964 3.1674 4.00065V13.334C3.1674 13.555 3.25526 13.7669 3.41154 13.9232C3.5678 14.0794 3.7798 14.1673 4.00073 14.1673H12.0007C12.2216 14.1672 12.4337 14.0794 12.5899 13.9232C12.7461 13.7669 12.8341 13.5549 12.8341 13.334V4.00065C12.8341 3.77971 12.7461 3.56772 12.5899 3.41146C12.4337 3.25525 12.2216 3.1674 12.0007 3.16732H11.1667V3.33398C11.1667 3.97821 10.6443 4.50048 10.0001 4.50065H6.00008C5.35575 4.50065 4.83341 3.97832 4.83341 3.33398V3.16732H4.00073ZM6.00008 1.83398C5.90803 1.83398 5.83341 1.9086 5.83341 2.00065V2.6543C5.83353 2.65863 5.83407 2.66296 5.83407 2.66732C5.83407 2.67145 5.83351 2.67558 5.83341 2.67969V3.33398C5.83341 3.42603 5.90803 3.50065 6.00008 3.50065H10.0001C10.092 3.50048 10.1667 3.42592 10.1667 3.33398V2.00065C10.1667 1.90871 10.092 1.83416 10.0001 1.83398H6.00008Z" fill="#461B02"/>
</svg>
