<svg width="17" height="16" viewBox="0 0 17 16" fill="none" xmlns="http://www.w3.org/2000/svg">
<path d="M13.833 12C13.833 10.8034 12.8635 9.83331 11.6663 9.83331C10.4698 9.83331 9.49967 10.8035 9.49967 12C9.49967 13.1965 10.4698 14.1666 11.6663 14.1666C12.8635 14.1666 13.833 13.1966 13.833 12ZM12.4984 11.054C12.6936 10.8588 13.0101 10.8588 13.2054 11.054C13.4004 11.2493 13.4006 11.5659 13.2054 11.761L11.7236 13.2422C11.5284 13.4373 11.2118 13.4373 11.0166 13.2422L10.1273 12.3535L10.0934 12.3157C9.93309 12.1194 9.94426 11.8296 10.1273 11.6465C10.3103 11.4633 10.6001 11.4518 10.7965 11.612L10.8343 11.6465L11.3695 12.1816L12.4984 11.054ZM6.33301 10.8333L6.38444 10.8359C6.63642 10.8617 6.83301 11.0745 6.83301 11.3333C6.83301 11.5921 6.63642 11.805 6.38444 11.8307L6.33301 11.8333H4.99967C4.72353 11.8333 4.49967 11.6095 4.49967 11.3333C4.49967 11.0572 4.72353 10.8333 4.99967 10.8333H6.33301ZM7.66634 8.16665C7.94248 8.16665 8.16634 8.3905 8.16634 8.66665C8.16634 8.94279 7.94248 9.16665 7.66634 9.16665H4.99967C4.72353 9.16665 4.49967 8.94279 4.49967 8.66665C4.49967 8.3905 4.72353 8.16665 4.99967 8.16665H7.66634ZM10.333 5.49998L10.3844 5.50258C10.6364 5.52833 10.833 5.7412 10.833 5.99998C10.833 6.25876 10.6364 6.47163 10.3844 6.49738L10.333 6.49998H4.99967C4.72353 6.49998 4.49967 6.27612 4.49967 5.99998C4.49967 5.72384 4.72353 5.49998 4.99967 5.49998H10.333ZM9.83301 2.84178L9.0765 1.89581V1.89516C9.0446 1.85582 8.99672 1.83331 8.94629 1.83331H6.38704C6.33647 1.83331 6.28809 1.85562 6.25619 1.89516L6.25684 1.89581L5.49967 2.84178V3.33331C5.49967 3.42517 5.57448 3.49998 5.66634 3.49998H9.66634C9.7582 3.49998 9.83301 3.42517 9.83301 3.33331V2.84178ZM13.4997 9.41795C14.3066 9.99191 14.833 10.9344 14.833 12C14.833 13.7487 13.4159 15.1666 11.6663 15.1666C10.934 15.1666 10.2601 14.9175 9.72363 14.5H3.66634C2.65353 14.5 1.83301 13.6795 1.83301 12.6666V3.99998C1.83301 2.98717 2.65353 2.16665 3.66634 2.16665H4.75879L5.47559 1.27081H5.47624L5.56413 1.17251C5.78141 0.956551 6.07671 0.833313 6.38704 0.833313H8.94629C9.30087 0.833313 9.63566 0.994605 9.8571 1.27081H9.85775L10.5739 2.16665H11.6663L11.8538 2.17641C12.7785 2.27028 13.4997 3.05048 13.4997 3.99998V9.41795ZM10.833 3.33331C10.833 3.97746 10.3105 4.49998 9.66634 4.49998H5.66634C5.0222 4.49998 4.49967 3.97746 4.49967 3.33331V3.16665H3.66634C3.20582 3.16665 2.83301 3.53946 2.83301 3.99998V12.6666C2.83301 13.1272 3.20582 13.5 3.66634 13.5H8.87728C8.63661 13.0535 8.49967 12.5428 8.49967 12C8.49967 10.2512 9.91753 8.83331 11.6663 8.83331C11.9548 8.83331 12.2341 8.87241 12.4997 8.94464V3.99998C12.4997 3.56826 12.172 3.21388 11.7516 3.1712L11.6663 3.16665H10.833V3.33331Z" fill="#7B7B7B"/>
</svg>
