<svg width="40" height="40" viewBox="0 0 40 40" fill="none" xmlns="http://www.w3.org/2000/svg">
<g clip-path="url(#clip0_1845_591442)">
<path d="M0.00308228 25.0653C0.0149326 24.6291 0.0639915 24.1937 0.152393 23.7616C0.45582 22.2787 1.20055 21.0537 2.36146 20.0816C2.68817 19.808 3.00647 19.524 3.33934 19.2583C4.05545 18.6865 4.76149 18.7326 5.42149 19.3663C5.80899 19.7384 6.12842 20.1713 6.42224 20.6191C6.5744 20.851 6.74226 21.088 6.869 21.335C7.20934 21.9994 7.65005 22.5873 7.78722 23.3621C7.91235 24.0688 7.73116 24.6863 7.20946 25.1757C6.81295 25.5476 6.40393 25.9156 5.95771 26.2233C5.06894 26.8363 4.94588 27.6089 5.28806 28.5745C5.47096 29.0906 5.73481 29.5724 6.03717 30.0279C6.60936 30.8902 7.27505 31.6812 7.99418 32.4335C8.7888 33.2649 9.77136 34.2366 10.9317 34.5018C11.5185 34.6359 12.0162 34.4733 12.4485 34.0615C12.873 33.657 13.2956 33.2487 13.7424 32.8695C14.4774 32.2455 15.2949 32.212 16.1227 32.6522C17.2365 33.2445 18.1172 34.1255 19.0298 34.9959C19.2135 35.171 19.3585 35.3961 19.4861 35.6185C19.8307 36.2193 19.7931 36.8104 19.3013 37.291C18.6286 37.9484 17.9603 38.6194 17.136 39.1003C16.0985 39.7053 14.982 40.0024 13.7805 40.0002C12.3124 39.9976 10.9618 39.5682 9.681 38.8866C8.14213 38.0677 6.81798 36.9659 5.60215 35.7305C4.19149 34.2971 2.91356 32.7546 1.86748 31.0311C1.00994 29.6182 0.343716 28.1275 0.0923729 26.4778C0.0209751 26.0082 -0.00971603 25.5363 0.00308228 25.0653Z" fill="url(#paint0_linear_1845_591442)"/>
<path d="M0.0918255 26.4775C0.343584 28.1272 1.00957 29.618 1.86735 31.0313C2.91337 32.7549 4.19095 34.297 5.60178 35.7305C6.81767 36.9659 8.1417 38.0675 9.68081 38.8862C10.9615 39.5681 12.3124 39.9976 13.78 40.0001C14.9818 40.0025 16.0981 39.705 17.1356 39.1001C17.9464 38.6272 18.6068 37.9697 19.2686 37.3227C18.9184 37.6282 18.5506 37.9111 18.1437 38.1488C17.1062 38.7537 15.9899 39.0506 14.7887 39.0488C13.3205 39.0457 11.9696 38.6162 10.689 37.935C9.14986 37.1162 7.82583 36.014 6.60994 34.7785C5.19917 33.3451 3.92153 31.803 2.87551 30.0794C2.01767 28.6668 1.35169 27.1759 1.09999 25.5262C1.02847 25.0563 0.997957 24.5846 1.01081 24.1136C1.02302 23.6773 1.0719 23.2423 1.16048 22.8097C1.3902 21.6842 1.87476 20.7073 2.60301 19.877C2.52297 19.9454 2.44232 20.0138 2.36109 20.0817C1.20018 21.0537 0.455391 22.2788 0.151728 23.7617C0.0637398 24.1937 0.014267 24.6293 0.00265312 25.0656C-0.0102043 25.5366 0.0203686 26.0083 0.0918255 26.4775Z" fill="url(#paint1_linear_1845_591442)"/>
<g clip-path="url(#clip1_1845_591442)">
<path d="M24.656 30.5591C16.2173 30.5591 9.37644 23.7182 9.37644 15.2796C9.37644 6.84089 16.2173 0 24.656 0C33.0947 0 39.9355 6.84089 39.9355 15.2796C39.9355 23.7182 33.0947 30.5591 24.656 30.5591Z" fill="#E2F2FF"/>
<g clip-path="url(#clip2_1845_591442)">
<path d="M31.2558 31.2843C31.4486 31.2843 31.6051 31.1278 31.6051 30.9351C31.6051 30.822 31.551 30.7216 31.4678 30.6576C32.4972 29.3152 36.2967 23.4784 36.3948 23.3403C36.5065 23.1838 36.4695 22.9662 36.313 22.8545C36.0953 22.7001 35.867 22.5607 35.628 22.4376C35.3939 22.3167 35.1478 22.2114 34.8917 22.1217L31.0523 20.7858L27.9066 19.6902C27.8405 19.6675 27.7729 19.6653 27.7096 19.681L27.7032 19.6824L27.6982 19.6838L27.6939 19.6853H27.6932L27.6875 19.6874L27.6861 19.6881L27.6818 19.6895L27.6783 19.691C27.674 19.6924 27.669 19.6945 27.6647 19.6959L27.6626 19.6966L27.6576 19.6988L27.6541 19.7002L27.6498 19.7023L27.6455 19.7045L27.6427 19.7059L27.6377 19.7087L27.6356 19.7095C27.6206 19.7166 27.6064 19.7251 27.5929 19.7344L24.561 21.7589L21.5284 19.7344C21.5148 19.7251 21.5006 19.7166 21.4857 19.7095L21.4835 19.7087L21.4786 19.7059L21.4757 19.7045L21.4714 19.7023L21.4672 19.7002L21.4636 19.6988L21.4586 19.6966L21.4565 19.6959C21.4522 19.6945 21.4473 19.6924 21.443 19.691L21.4394 19.6895L21.4352 19.6881L21.4337 19.6874L21.4281 19.6853H21.4273L21.4231 19.6838L21.4181 19.6824L21.4117 19.681C21.3484 19.6653 21.2808 19.6675 21.2146 19.6902L14.2296 22.1232C13.085 22.5223 12.1282 23.2621 11.458 24.2054C10.7865 25.1501 10.4023 26.2969 10.4023 27.509V30.1625C10.4023 30.472 10.5283 30.7529 10.731 30.9564C10.9337 31.1591 11.2147 31.2851 11.5249 31.2851H24.551H31.2558V31.2843Z" fill="url(#paint2_linear_1845_591442)"/>
<path d="M24.9115 21.5242L24.5622 21.7575L24.2129 21.5242V31.2843H24.5515H24.9115V21.5242Z" fill="url(#paint3_linear_1845_591442)"/>
<path d="M21.4867 19.7087L21.4845 19.7073L21.4796 19.7044L21.4767 19.703L21.4725 19.7009L21.4682 19.6987L21.4646 19.6973L21.4596 19.6952L21.4575 19.6945C21.4532 19.693 21.4483 19.6909 21.444 19.6895L21.4404 19.6881L21.4362 19.6866L21.4347 19.6859L21.4291 19.6838H21.4283L21.4241 19.6824L21.4191 19.681L21.4127 19.6795C21.3494 19.6639 21.2818 19.666 21.2156 19.6888L17.3877 21.0219L21.6681 23.7252C21.8545 23.8425 22.0672 23.9002 22.2799 23.8973C22.484 23.8945 22.6875 23.8368 22.8646 23.7252C22.8725 23.7209 22.8803 23.7159 22.8881 23.7109V23.7095L24.7498 22.4674C24.7661 22.4568 24.7818 22.4447 24.7967 22.4312L24.7975 22.4304L24.8024 22.4255L24.8046 22.4233L24.8067 22.4212C24.8359 22.392 24.8593 22.3579 24.8764 22.3216V22.3209L24.88 22.3138L24.8835 22.306C24.8978 22.2718 24.9056 22.2362 24.9084 22.2007L24.9091 22.1943V22.1914V22.1872V22.1822V22.18C24.9098 22.1238 24.8978 22.0669 24.8707 22.015L24.8693 22.0122L24.8686 22.0107V22.01C24.8551 21.9844 24.838 21.9602 24.8181 21.9389L24.8174 21.9382L24.8131 21.9332L24.811 21.9311L24.8088 21.9289C24.7903 21.9104 24.7704 21.8948 24.7491 21.8805L21.4867 19.7087Z" fill="url(#paint4_linear_1845_591442)"/>
<path d="M31.7346 21.0241L31.0524 20.7865L27.9067 19.691C27.8405 19.6682 27.7729 19.6661 27.7096 19.6817L27.7032 19.6832L27.6982 19.6846L27.694 19.686H27.6933L27.6876 19.6881L27.6862 19.6888L27.6819 19.6903L27.6783 19.6917C27.6741 19.6931 27.6691 19.6952 27.6648 19.6967L27.6627 19.6974L27.6577 19.6995L27.6541 19.7009L27.6499 19.7031L27.6456 19.7052L27.6428 19.7066L27.6378 19.7088L24.374 21.8842C24.3526 21.8977 24.3327 21.914 24.3142 21.9325L24.3121 21.9347L24.3099 21.9368L24.3057 21.9418L24.305 21.9425C24.285 21.9646 24.268 21.9887 24.2544 22.0136V22.0144L24.2537 22.0158L24.2523 22.0186C24.2253 22.0713 24.2132 22.1275 24.2139 22.1837V22.1858V22.1908V22.195V22.1979L24.2146 22.2043C24.2175 22.2399 24.2253 22.2754 24.2395 22.3096L24.2431 22.3174L24.2466 22.3245V22.3252C24.2637 22.3615 24.2872 22.3957 24.3163 22.4248L24.3185 22.427L24.3206 22.4291L24.3256 22.4341L24.3263 22.4348C24.3412 22.4483 24.3569 22.4604 24.3732 22.4711L26.2349 23.7131V23.7146C26.2428 23.7195 26.2506 23.7245 26.2584 23.7288C26.4363 23.8412 26.639 23.8988 26.8432 23.9009C27.0559 23.9038 27.2686 23.8462 27.455 23.7288L31.7346 21.0241Z" fill="url(#paint5_linear_1845_591442)"/>
<path d="M20.9816 19.7721L24.5513 22.5237H24.5521H24.5577H24.5599H24.562H24.5641H24.5698H24.5705L28.1396 19.7721V17.8976C28.1396 17.7048 27.983 17.5483 27.7903 17.5483C25.6326 17.5483 23.49 17.5491 21.3288 17.5491C21.136 17.5491 20.9795 17.7056 20.9795 17.8983V19.7721H20.9816Z" fill="#F9C5B8"/>
<path d="M28.1415 18.7534V17.8976C28.1415 17.7048 27.985 17.5483 27.7922 17.5483C25.6346 17.5483 23.4919 17.5491 21.3307 17.5491C21.1379 17.5491 20.9814 17.7056 20.9814 17.8983V18.7428C21.5662 19.2165 22.2249 19.5993 22.9363 19.8746C23.1946 19.9749 23.462 20.051 23.7345 20.1015C24.007 20.152 24.2837 20.179 24.5611 20.179C24.8378 20.179 25.1146 20.1527 25.3863 20.1015C25.6403 20.0538 25.8843 19.9756 26.129 19.8959C26.2044 19.871 26.1617 19.8881 26.2357 19.8554C26.6106 19.6903 26.9841 19.5231 27.3348 19.3104C27.5532 19.1781 27.7645 19.0344 27.9679 18.88L27.9807 18.8943L28.1415 18.7534Z" fill="#FAB1A6"/>
<path d="M14.3848 31.2844H15.0833V27.4643C15.0833 27.2715 14.9268 27.115 14.7341 27.115C14.5413 27.115 14.3848 27.2715 14.3848 27.4643V31.2844Z" fill="#F24441"/>
<path d="M20.2126 26.8923C20.0198 26.8923 19.8633 27.0488 19.8633 27.2416C19.8633 27.4344 20.0198 27.5909 20.2126 27.5909H21.8957C22.0885 27.5909 22.245 27.4344 22.245 27.2416C22.245 27.0488 22.0885 26.8923 21.8957 26.8923H20.2126Z" fill="url(#paint6_linear_1845_591442)"/>
<path d="M19.1618 11.2783C18.969 11.2783 18.8125 11.4348 18.8125 11.6276V13.0973C18.8125 14.4895 19.2408 15.8105 19.9941 16.9096C20.7475 18.0087 21.8259 18.8844 23.1249 19.3874C23.354 19.4763 23.5909 19.5432 23.8299 19.588C24.0746 19.6335 24.3193 19.6563 24.5605 19.6563C24.8009 19.6563 25.0449 19.6335 25.2896 19.588C25.5187 19.5453 25.7449 19.482 25.9654 19.3995C25.9861 19.3938 26.006 19.3859 26.0245 19.3767C26.3873 19.2344 26.7345 19.0623 27.0631 18.8631C27.4088 18.6532 27.729 18.4185 28.0213 18.1609C28.0277 18.1553 28.0341 18.1496 28.0398 18.1439C28.7512 17.5136 29.321 16.7389 29.7123 15.8738C30.0993 15.0181 30.3106 14.0748 30.3106 13.0973V11.6283C30.3106 11.4355 30.1541 11.279 29.9613 11.279C26.3638 11.279 22.7649 11.2783 19.1618 11.2783Z" fill="#F9C5B8"/>
<path d="M18.0251 11.0235C18.0251 11.2163 18.1816 11.3728 18.3744 11.3728H30.7475C30.9403 11.3728 31.0968 11.2163 31.0968 11.0235V9.23726C31.0968 7.74123 30.4907 6.38747 29.5104 5.40718C28.5301 4.4269 27.1756 3.8208 25.6796 3.8208V3.82222H23.4416V3.8208C21.9456 3.8208 20.5911 4.4269 19.6108 5.40718C18.6305 6.38747 18.0244 7.74123 18.0244 9.23726V11.0235H18.0251Z" fill="url(#paint7_linear_1845_591442)"/>
<path d="M18.0258 11.0236C18.0258 11.2164 18.1823 11.3729 18.3751 11.3729H30.7482C30.941 11.3729 31.0975 11.2164 31.0975 11.0236V10.2347C30.3029 9.84909 29.3959 9.56454 28.5692 9.38029C27.3727 9.11352 26.1292 8.98476 24.9035 8.9997C24.7897 9.00112 24.6751 9.00041 24.5613 9.00041C24.4475 9.00041 24.333 9.00112 24.2184 8.9997C22.9927 8.98476 21.7499 9.11352 20.5534 9.38029C19.7659 9.556 18.8119 9.83415 18.0244 10.2219V11.0236H18.0258Z" fill="url(#paint8_linear_1845_591442)"/>
<path d="M28.4562 9.89168C29.7417 10.1784 30.771 10.591 31.3515 10.963C31.36 10.968 31.3686 10.973 31.3771 10.9787V10.9794C31.4981 11.0583 31.5713 11.17 31.6041 11.291C31.6304 11.3898 31.6275 11.4937 31.5991 11.5883C31.5706 11.6822 31.5158 11.7704 31.439 11.8394C31.3444 11.9241 31.2213 11.9774 31.0769 11.9774V11.976H18.0465V11.9774C17.9028 11.9774 17.7798 11.9234 17.6852 11.8394C17.6083 11.7704 17.5535 11.6822 17.5251 11.5883C17.4966 11.4937 17.4938 11.3898 17.5201 11.291C17.5507 11.1771 17.6176 11.0719 17.7264 10.9936C17.7335 10.9886 17.7399 10.9836 17.747 10.9787L17.7485 10.9794C18.3247 10.6038 19.3654 10.1833 20.6687 9.89239C21.7094 9.66048 22.9245 9.50824 24.2135 9.5246C24.2533 9.52531 24.3686 9.52531 24.5621 9.52531C24.7556 9.52531 24.8708 9.52531 24.9107 9.5246C26.199 9.50682 27.4147 9.65905 28.4562 9.89168Z" fill="url(#paint9_linear_1845_591442)"/>
<path d="M30.9063 30.9045C30.9063 30.9138 30.9062 30.9223 30.907 30.9315V30.9351C30.907 31.1279 31.0635 31.2844 31.2562 31.2844H40.1258C40.4046 31.2844 40.6565 31.1713 40.8386 30.9892C41.0214 30.8063 41.1338 30.5545 41.1338 30.2756V23.7971C41.1338 23.5182 41.0207 23.2664 40.8386 23.0843C40.6557 22.9015 40.4039 22.7891 40.125 22.7891H31.9143C31.6354 22.7891 31.3836 22.9022 31.2015 23.0843C31.0186 23.2671 30.9063 23.5189 30.9063 23.7978V30.9045Z" fill="#FFD164"/>
<path d="M37.4058 22.7883H34.6328V25.7043C34.6328 25.8067 34.6648 25.8992 34.7182 25.976C34.763 26.0408 34.8228 26.0927 34.891 26.1283C34.96 26.1646 35.0369 26.1845 35.113 26.1845C35.1912 26.1845 35.2702 26.1653 35.3449 26.1233C35.3591 26.1162 35.3734 26.1076 35.3869 26.0984L36.0193 25.658L36.6403 26.0906C36.6439 26.0934 36.6474 26.0955 36.651 26.0984L36.6524 26.0991C36.7385 26.1589 36.8331 26.1859 36.9256 26.1859C37.0038 26.1859 37.08 26.1667 37.1468 26.1311C37.203 26.1019 37.2535 26.0614 37.2948 26.0116C37.3033 26.0016 37.3112 25.9917 37.319 25.981L37.3183 25.9796C37.3723 25.9021 37.4058 25.8089 37.4058 25.7057V22.7883Z" fill="#E6646E"/>
<path d="M32.8786 27.77C32.6858 27.77 32.5293 27.9265 32.5293 28.1193C32.5293 28.3121 32.6858 28.4686 32.8786 28.4686H33.7699C33.9627 28.4686 34.1192 28.3121 34.1192 28.1193C34.1192 27.9265 33.9627 27.77 33.7699 27.77H32.8786Z" fill="white"/>
<path d="M32.8786 29.1316C32.6858 29.1316 32.5293 29.2881 32.5293 29.4809C32.5293 29.6737 32.6858 29.8302 32.8786 29.8302H33.7699C33.9627 29.8302 34.1192 29.6737 34.1192 29.4809C34.1192 29.2881 33.9627 29.1316 33.7699 29.1316H32.8786Z" fill="white"/>
<g filter="url(#filter0_f_1845_591442)">
<ellipse cx="32.1299" cy="25.5443" rx="3.28613" ry="3.32361" fill="#1767EB" fill-opacity="0.8"/>
</g>
</g>
</g>
<path d="M30.749 30.1286C30.749 30.137 30.749 30.1447 30.7497 30.153V30.1563C30.7497 30.3306 30.8912 30.4722 31.0656 30.4722H39.0873C39.3395 30.4722 39.5673 30.3699 39.732 30.2052C39.8974 30.0398 39.999 29.8121 39.999 29.5598V23.7005C39.999 23.4483 39.8967 23.2205 39.732 23.0558C39.5667 22.8905 39.3389 22.7888 39.0867 22.7888H31.6607C31.4085 22.7888 31.1807 22.8911 31.016 23.0558C30.8507 23.2212 30.749 23.4489 30.749 23.7011V30.1286Z" fill="url(#paint10_linear_1845_591442)"/>
<path d="M36.6271 22.7883H34.1191V25.4256C34.1191 25.5182 34.1481 25.6019 34.1963 25.6714C34.2369 25.7299 34.2909 25.7769 34.3527 25.809C34.4151 25.8419 34.4846 25.8599 34.5534 25.8599C34.6242 25.8599 34.6956 25.8425 34.7632 25.8045C34.776 25.7981 34.7889 25.7904 34.8011 25.782L35.3731 25.3838L35.9348 25.7749C35.938 25.7775 35.9412 25.7794 35.9444 25.782L35.9457 25.7827C36.0236 25.8367 36.1091 25.8612 36.1928 25.8612C36.2636 25.8612 36.3324 25.8438 36.3929 25.8116C36.4437 25.7852 36.4894 25.7486 36.5267 25.7035C36.5344 25.6945 36.5415 25.6855 36.5486 25.6759L36.5479 25.6746C36.5968 25.6044 36.6271 25.5202 36.6271 25.4269V22.7883Z" fill="url(#paint11_linear_1845_591442)"/>
<path d="M32.5316 27.2939C32.3573 27.2939 32.2158 27.4354 32.2158 27.6097C32.2158 27.784 32.3573 27.9254 32.5316 27.9254H33.3374C33.5116 27.9254 33.6531 27.784 33.6531 27.6097C33.6531 27.4354 33.5116 27.2939 33.3374 27.2939H32.5316Z" fill="url(#paint12_linear_1845_591442)"/>
<path d="M32.5316 28.5251C32.3573 28.5251 32.2158 28.6666 32.2158 28.8409C32.2158 29.0152 32.3573 29.1566 32.5316 29.1566H33.3374C33.5116 29.1566 33.6531 29.0152 33.6531 28.8409C33.6531 28.6666 33.5116 28.5251 33.3374 28.5251H32.5316Z" fill="url(#paint13_linear_1845_591442)"/>
</g>
<defs>
<filter id="filter0_f_1845_591442" x="20.4438" y="13.8207" width="23.3723" height="23.4472" filterUnits="userSpaceOnUse" color-interpolation-filters="sRGB">
<feFlood flood-opacity="0" result="BackgroundImageFix"/>
<feBlend mode="normal" in="SourceGraphic" in2="BackgroundImageFix" result="shape"/>
<feGaussianBlur stdDeviation="4.2" result="effect1_foregroundBlur_1845_591442"/>
</filter>
<linearGradient id="paint0_linear_1845_591442" x1="9.85657" y1="18.8584" x2="9.85657" y2="40.0002" gradientUnits="userSpaceOnUse">
<stop stop-color="#176CF7"/>
<stop offset="1" stop-color="#0C36C1"/>
</linearGradient>
<linearGradient id="paint1_linear_1845_591442" x1="12.3639" y1="44.6439" x2="-4.22403" y2="36.0065" gradientUnits="userSpaceOnUse">
<stop stop-color="#176CF7"/>
<stop offset="1" stop-color="#0C36C1"/>
</linearGradient>
<linearGradient id="paint2_linear_1845_591442" x1="19.7394" y1="33.9653" x2="31.1978" y2="19.9857" gradientUnits="userSpaceOnUse">
<stop stop-color="#176CF7"/>
<stop offset="1" stop-color="#0C36C1"/>
</linearGradient>
<linearGradient id="paint3_linear_1845_591442" x1="24.4632" y1="33.5367" x2="25.2265" y2="33.507" gradientUnits="userSpaceOnUse">
<stop stop-color="#FFBC00"/>
<stop offset="1" stop-color="#FFD14F"/>
</linearGradient>
<linearGradient id="paint4_linear_1845_591442" x1="21.1484" y1="19.6694" x2="21.1484" y2="23.8974" gradientUnits="userSpaceOnUse">
<stop stop-color="#FBC428"/>
<stop offset="1" stop-color="#FFDF84"/>
</linearGradient>
<linearGradient id="paint5_linear_1845_591442" x1="27.9742" y1="19.6716" x2="27.9742" y2="23.901" gradientUnits="userSpaceOnUse">
<stop stop-color="#FBC428"/>
<stop offset="1" stop-color="#FFDF84"/>
</linearGradient>
<linearGradient id="paint6_linear_1845_591442" x1="20.7167" y1="27.7521" x2="21.3041" y2="26.6632" gradientUnits="userSpaceOnUse">
<stop stop-color="#FFBC00"/>
<stop offset="1" stop-color="#FFD14F"/>
</linearGradient>
<linearGradient id="paint7_linear_1845_591442" x1="28.4279" y1="10.5693" x2="32.0153" y2="7.16267" gradientUnits="userSpaceOnUse">
<stop stop-color="#307CFE"/>
<stop offset="1" stop-color="#1D4A98"/>
</linearGradient>
<linearGradient id="paint8_linear_1845_591442" x1="18.2782" y1="8.85444" x2="18.2782" y2="11.6206" gradientUnits="userSpaceOnUse">
<stop stop-color="#0060FF"/>
<stop offset="1" stop-color="#3581FF"/>
</linearGradient>
<linearGradient id="paint9_linear_1845_591442" x1="24.5621" y1="9.52319" x2="24.5621" y2="11.9774" gradientUnits="userSpaceOnUse">
<stop stop-color="#FBC428"/>
<stop offset="1" stop-color="#FFDF84"/>
</linearGradient>
<linearGradient id="paint10_linear_1845_591442" x1="30.9286" y1="22.3225" x2="30.9286" y2="31.2737" gradientUnits="userSpaceOnUse">
<stop stop-color="#0060FF"/>
<stop offset="1" stop-color="#3581FF"/>
</linearGradient>
<linearGradient id="paint11_linear_1845_591442" x1="35.0178" y1="26.5703" x2="37.3106" y2="25.5527" gradientUnits="userSpaceOnUse">
<stop stop-color="#FFBC00"/>
<stop offset="1" stop-color="#FFD14F"/>
</linearGradient>
<linearGradient id="paint12_linear_1845_591442" x1="32.7308" y1="28.0712" x2="33.3521" y2="27.3023" gradientUnits="userSpaceOnUse">
<stop stop-color="#FFBC00"/>
<stop offset="1" stop-color="#FFD14F"/>
</linearGradient>
<linearGradient id="paint13_linear_1845_591442" x1="32.7308" y1="29.3024" x2="33.3521" y2="28.5335" gradientUnits="userSpaceOnUse">
<stop stop-color="#FFBC00"/>
<stop offset="1" stop-color="#FFD14F"/>
</linearGradient>
<clipPath id="clip0_1845_591442">
<rect width="40" height="40" fill="white" transform="matrix(-1 0 0 1 40 0)"/>
</clipPath>
<clipPath id="clip1_1845_591442">
<rect width="30.5591" height="30.5591" rx="15.2796" transform="matrix(-1 0 0 1 39.9355 0)" fill="white"/>
</clipPath>
<clipPath id="clip2_1845_591442">
<rect width="35" height="35" fill="white" transform="translate(8.25)"/>
</clipPath>
</defs>
</svg>
