<svg width="12" height="12" viewBox="0 0 12 12" fill="none" xmlns="http://www.w3.org/2000/svg">
<path fill-rule="evenodd" clip-rule="evenodd" d="M9.19064 2.80617C8.42173 2.04128 7.39975 1.5805 6.31493 1.5096C5.23011 1.4387 4.15637 1.76251 3.29355 2.42076C2.43074 3.07901 1.83765 4.02686 1.62467 5.08786C1.4117 6.14887 1.59335 7.25074 2.13582 8.18839L1.5 10.5L3.87773 9.87948C4.5346 10.2349 5.27045 10.421 6.01813 10.4207C6.9046 10.4202 7.77105 10.1583 8.508 9.66794C9.24496 9.17761 9.81935 8.48089 10.1586 7.66582C10.4979 6.85074 10.5868 5.95387 10.4141 5.08853C10.2414 4.22318 9.8149 3.42819 9.18844 2.80398L9.19064 2.80617ZM6.02033 9.66957C5.35321 9.66961 4.69836 9.49116 4.12431 9.15291L3.98825 9.07272L2.57923 9.44082L2.9557 8.0727L2.86764 7.93247C2.42873 7.2361 2.23479 6.41431 2.31632 5.59629C2.39784 4.77827 2.75019 4.0104 3.31799 3.4134C3.88579 2.81639 4.63684 2.42411 5.45307 2.2982C6.2693 2.1723 7.10442 2.31992 7.82717 2.71786C8.54991 3.11579 9.11929 3.74148 9.4458 4.49656C9.7723 5.25165 9.83742 6.0933 9.63091 6.88923C9.42441 7.68516 8.95799 8.39022 8.30498 8.89359C7.65196 9.39695 6.84939 9.67007 6.02341 9.67001L6.02033 9.66957ZM8.06386 6.89257C7.95202 6.83692 7.40338 6.56742 7.29858 6.53017C7.19378 6.49292 7.12245 6.47451 7.04672 6.58582C6.97098 6.69713 6.75743 6.94867 6.69226 7.02404C6.62709 7.09941 6.56016 7.10774 6.44964 7.05209C6.11949 6.92119 5.81479 6.73405 5.54919 6.49905C5.30434 6.27369 5.09438 6.01349 4.92613 5.72691C4.86097 5.61516 4.92613 5.56082 4.97545 5.49947C5.07779 5.3795 5.17096 5.25205 5.25417 5.11822C5.26911 5.08746 5.27609 5.05346 5.27448 5.01933C5.27286 4.9852 5.2627 4.95201 5.24493 4.92278C5.21719 4.86712 4.99306 4.31847 4.89971 4.09498C4.80637 3.87149 4.71654 3.90698 4.64785 3.90348C4.57916 3.89997 4.50783 3.89953 4.43342 3.89953C4.37669 3.90101 4.32088 3.91415 4.2695 3.93813C4.21812 3.96211 4.17229 3.99642 4.13488 4.03889C4.00826 4.15831 3.90803 4.30267 3.84056 4.46277C3.77309 4.62287 3.73986 4.79521 3.74299 4.96879C3.77942 5.38883 3.9381 5.78919 4.1996 6.12087C4.67993 6.83751 5.33923 7.41756 6.1128 7.80407C6.32129 7.89357 6.53441 7.97198 6.75126 8.03896C6.97949 8.10784 7.22071 8.12284 7.45577 8.08278C7.61169 8.05114 7.75935 7.98773 7.88946 7.89656C8.01957 7.80538 8.12932 7.6884 8.21181 7.55297C8.28509 7.38635 8.30775 7.20202 8.27697 7.02273C8.25011 6.97627 8.17526 6.94823 8.06342 6.89257H8.06386Z" fill="currentColor"/>
</svg>
