<svg width="24" height="24" viewBox="0 0 24 24" fill="none" xmlns="http://www.w3.org/2000/svg">
<path d="M20.0001 19.649L20.0773 19.6529C20.4553 19.6915 20.7501 20.0108 20.7501 20.399C20.75 20.7871 20.4552 21.1065 20.0773 21.1451L20.0001 21.149H11.0001C10.586 21.149 10.2502 20.8131 10.2501 20.399C10.2501 19.9848 10.5859 19.649 11.0001 19.649H20.0001ZM14.256 2.45565C14.4532 2.42967 14.6529 2.48301 14.8107 2.60409L18.2775 5.26327C18.4352 5.38434 18.5386 5.56324 18.5646 5.76034C18.5906 5.95755 18.5362 6.15721 18.4152 6.31503L8.67591 19.0094C8.59949 19.1089 8.49965 19.1881 8.3849 19.2389L4.21693 21.0826C3.96621 21.1935 3.67476 21.1585 3.45716 20.9918C3.23952 20.8248 3.12978 20.5519 3.17201 20.2808L3.87416 15.7779L3.89369 15.6861C3.91951 15.5962 3.96241 15.5118 4.01966 15.4371L13.7589 2.74276L13.8595 2.63436C13.9701 2.53746 14.108 2.47516 14.256 2.45565ZM5.32533 16.1988L4.86537 19.1539L7.60267 17.943L14.3341 9.1705L12.0568 7.42343L5.32533 16.1988ZM12.9699 6.233L15.2472 7.98007L16.7687 5.99667L14.4923 4.2496L12.9699 6.233Z" fill="#555555"/>
</svg>
