<svg width="16" height="16" viewBox="0 0 16 16" fill="none" xmlns="http://www.w3.org/2000/svg">
<path d="M13.3331 13.0998L13.3845 13.1024C13.6365 13.1282 13.8331 13.341 13.8331 13.5998C13.833 13.8586 13.6365 14.0715 13.3845 14.0972L13.3331 14.0998H7.3331C7.05701 14.0998 6.83317 13.8759 6.8331 13.5998C6.8331 13.3237 7.05697 13.0998 7.3331 13.0998H13.3331ZM9.50367 1.63759C9.63514 1.62027 9.76825 1.65583 9.87346 1.73655L12.1847 3.50933C12.2898 3.59005 12.3588 3.70931 12.3761 3.84071C12.3934 3.97219 12.3572 4.10529 12.2765 4.21051L5.78362 12.6734C5.73267 12.7397 5.66611 12.7925 5.58961 12.8264L2.81096 14.0556C2.64381 14.1295 2.44952 14.1062 2.30445 13.995C2.15936 13.8837 2.0862 13.7017 2.11435 13.5211L2.58244 10.5191L2.59547 10.4579C2.61268 10.3979 2.64128 10.3417 2.67945 10.2919L9.17229 1.829L9.23935 1.75673C9.31309 1.69213 9.40504 1.6506 9.50367 1.63759ZM3.54989 10.7997L3.24325 12.7698L5.06812 11.9625L9.55575 6.11415L8.03752 4.94944L3.54989 10.7997ZM8.64625 4.15582L10.1645 5.32053L11.1788 3.99827L9.66122 2.83355L8.64625 4.15582Z" fill="#555555"/>
</svg>
