<svg width="14" height="14" viewBox="0 0 14 14" fill="none" xmlns="http://www.w3.org/2000/svg">
<path fill-rule="evenodd" clip-rule="evenodd" d="M7.11651 6.0988C7.70032 6.12833 8.25423 6.37412 8.6694 6.79036C9.11217 7.23435 9.361 7.83639 9.36154 8.46403V8.47087C9.23351 11.6032 4.767 11.6046 4.63677 8.47144V8.46403L4.63962 8.34668C4.66899 7.7617 4.91378 7.20665 5.32891 6.79036C5.77178 6.34636 6.37266 6.0965 6.99916 6.09595L7.11651 6.0988ZM7.82972 7.05811C6.88493 6.51669 5.43267 6.98588 5.36993 8.46745C5.37134 8.89943 5.54329 9.31332 5.84787 9.61873C6.1533 9.92495 6.56742 10.0973 6.99916 10.0978L7.1598 10.0893C7.53254 10.0518 7.88314 9.88673 8.15044 9.61873C8.45503 9.31332 8.6264 8.89944 8.62782 8.46745C8.61378 8.13607 8.52955 7.85566 8.39768 7.62549L7.50103 8.51701L7.50046 8.51758C7.46289 8.55461 7.41828 8.58377 7.36944 8.6036C7.32059 8.62342 7.26833 8.63352 7.21563 8.63322H7.20936C7.13386 8.63013 7.06041 8.6059 6.99802 8.56315C6.93565 8.52038 6.8867 8.46066 6.85674 8.39111C6.82677 8.32147 6.81733 8.24439 6.8294 8.16952C6.8415 8.0948 6.87442 8.02505 6.92453 7.96842L6.92795 7.96444L6.93194 7.96102L7.82972 7.05811Z" fill="currentColor"/>
<path fill-rule="evenodd" clip-rule="evenodd" d="M12.3642 1.72095C12.4642 1.72097 12.5599 1.76074 12.6303 1.83146C12.7007 1.90225 12.7402 1.99836 12.7402 2.09806V2.0992C12.7367 2.5694 12.5494 3.01969 12.2184 3.35246C11.8874 3.68516 11.4393 3.87353 10.9708 3.87712H9.46807V4.4126H10.5271C11.0304 4.41159 11.5162 4.59805 11.8903 4.93612C12.2175 5.23192 12.439 5.62521 12.5243 6.0555L12.5522 6.24235V6.24406L13.0028 11.1061C13.0177 11.2543 13.0012 11.4038 12.955 11.5453C12.9086 11.6874 12.8329 11.8184 12.7328 11.9293C12.6328 12.04 12.5108 12.1288 12.3745 12.189C12.2383 12.2492 12.0909 12.2791 11.9421 12.2785L2.05051 12.2791C1.90189 12.2781 1.75475 12.2463 1.61927 12.1851C1.48387 12.1238 1.3629 12.0345 1.26381 11.9236C1.16471 11.8126 1.08983 11.6819 1.04392 11.5402C0.998014 11.3985 0.981586 11.2486 0.996635 11.1004L1.44724 6.24634V6.24463L1.47515 6.05778C1.56002 5.627 1.78125 5.23293 2.10861 4.93669C2.4827 4.59821 2.96877 4.41164 3.47238 4.4126H4.53138V3.87712H3.02862C2.5602 3.87353 2.11202 3.68516 1.78106 3.35246C1.45007 3.01969 1.26274 2.56939 1.25925 2.0992V2.09806L1.26665 2.02401C1.28105 1.95176 1.31644 1.8845 1.36919 1.83146C1.4396 1.76074 1.53529 1.72097 1.63523 1.72095H12.3642ZM3.34991 5.17765C3.07575 5.20244 2.81525 5.31577 2.60878 5.50236C2.37296 5.71555 2.22411 6.0097 2.19121 6.32723L1.74745 11.1745L1.74688 11.1779C1.74195 11.2218 1.74659 11.2663 1.75998 11.3084C1.77339 11.3504 1.79507 11.3895 1.82435 11.4223C1.85363 11.455 1.88984 11.4809 1.92974 11.4986C1.9696 11.5163 2.0127 11.5251 2.0562 11.5248H11.9444L12.0076 11.5191C12.0283 11.5148 12.0486 11.5079 12.068 11.4992C12.1069 11.4817 12.1418 11.4558 12.17 11.4234L12.3016 11.5385L12.1734 11.4194C12.2027 11.3878 12.2253 11.3501 12.2389 11.3089C12.2525 11.2679 12.2571 11.2243 12.2526 11.1813L12.252 11.179L11.7997 6.32324C11.7659 6.00692 11.6168 5.71406 11.3816 5.50179C11.1457 5.28904 10.8402 5.17167 10.5237 5.17253H3.46783L3.34991 5.17765ZM5.28334 4.4126H8.71612V3.87712H5.28334V4.4126ZM2.08469 2.47518C2.14624 2.63155 2.2448 2.77155 2.37408 2.88135C2.55772 3.03725 2.79026 3.12267 3.03033 3.12288H10.9691C11.2089 3.12077 11.4406 3.03466 11.6242 2.87907C11.7533 2.7697 11.8521 2.63064 11.9148 2.47518H2.08469Z" fill="currentColor"/>
</svg>
