<svg width="20" height="21" viewBox="0 0 20 21" fill="none" xmlns="http://www.w3.org/2000/svg">
<path d="M18.3334 10.3969L16.1667 12.7969C15.3856 13.6562 14.4336 14.3428 13.3716 14.8126C12.3097 15.2825 11.1613 15.5252 10 15.5252C8.83878 15.5252 7.69035 15.2825 6.6284 14.8126C5.56645 14.3428 4.61441 13.6562 3.83335 12.7969L1.66669 10.3969L3.60002 8.08024C4.38211 7.14239 5.36075 6.38789 6.4667 5.87013C7.57265 5.35236 8.77887 5.08398 10 5.08398C11.2212 5.08398 12.4274 5.35236 13.5333 5.87013C14.6393 6.38789 15.6179 7.14239 16.4 8.08024L18.3334 10.3969Z" stroke="#EC6300" stroke-width="1.5" stroke-linecap="round" stroke-linejoin="round"/>
<path d="M10.075 12.1803C11.2716 12.1803 12.2417 11.2476 12.2417 10.097C12.2417 8.94641 11.2716 8.01367 10.075 8.01367C8.87837 8.01367 7.90833 8.94641 7.90833 10.097C7.90833 11.2476 8.87837 12.1803 10.075 12.1803Z" stroke="#EC6300" stroke-width="1.5" stroke-linecap="round" stroke-linejoin="bevel"/>
<line x1="3.33319" y1="16.744" x2="16.4147" y2="3.66255" stroke="#EC6300" stroke-width="1.5" stroke-linecap="round"/>
</svg>
