<svg width="24" height="24" viewBox="0 0 24 24" fill="none" xmlns="http://www.w3.org/2000/svg">
  <path d="M12 5C7.031 5 2.91 7.586 1.181 11.516C1.061 11.807 1.061 12.137 1.181 12.428C2.91 16.414 7.031 19 12 19C16.969 19 21.09 16.414 22.819 12.484C22.939 12.193 22.939 11.863 22.819 11.572C21.09 7.586 16.969 5 12 5ZM12 17C8.041 17 4.548 15.082 3.096 12C4.548 8.918 8.041 7 12 7C15.959 7 19.452 8.918 20.904 12C19.452 15.082 15.959 17 12 17Z" fill="currentColor"/>
  <path d="M12 9C10.346 9 9 10.346 9 12C9 13.654 10.346 15 12 15C13.654 15 15 13.654 15 12C15 10.346 13.654 9 12 9ZM12 13C11.449 13 11 12.551 11 12C11 11.449 11.449 11 12 11C12.551 11 13 11.449 13 12C13 12.551 12.551 13 12 13Z" fill="currentColor"/>
</svg>