<svg width="20" height="21" viewBox="0 0 20 21" fill="none" xmlns="http://www.w3.org/2000/svg">
<path d="M18.3332 10.3969L16.1665 12.7969C15.3854 13.6562 14.4334 14.3428 13.3715 14.8126C12.3095 15.2825 11.1611 15.5252 9.99984 15.5252C8.83859 15.5252 7.69017 15.2825 6.62822 14.8126C5.56627 14.3428 4.61423 13.6562 3.83317 12.7969L1.6665 10.3969L3.59984 8.08024C4.38192 7.14239 5.36056 6.38789 6.46651 5.87013C7.57246 5.35236 8.77869 5.08398 9.99984 5.08398C11.221 5.08398 12.4272 5.35236 13.5332 5.87013C14.6391 6.38789 15.6178 7.14239 16.3998 8.08024L18.3332 10.3969Z" stroke="#EC6300" stroke-width="1.5" stroke-linecap="round" stroke-linejoin="round"/>
<path d="M10.0749 12.1803C11.2715 12.1803 12.2415 11.2476 12.2415 10.097C12.2415 8.94641 11.2715 8.01367 10.0749 8.01367C8.87825 8.01367 7.9082 8.94641 7.9082 10.097C7.9082 11.2476 8.87825 12.1803 10.0749 12.1803Z" stroke="#EC6300" stroke-width="1.5" stroke-linecap="round" stroke-linejoin="bevel"/>
</svg>
