<svg width="16" height="17" viewBox="0 0 16 17" fill="none" xmlns="http://www.w3.org/2000/svg">
<path d="M7.98461 4.19952C8.94462 4.19952 9.89316 4.41035 10.7626 4.81736C11.6321 5.22441 12.4017 5.8177 13.0165 6.55499L14.4202 8.23728C14.5797 8.42844 14.5746 8.70806 14.4078 8.89288L12.8342 10.6357L12.8329 10.637C12.2189 11.3125 11.4705 11.8523 10.6357 12.2217C9.90506 12.5449 9.12232 12.7315 8.32641 12.7731L7.98461 12.7816C7.07176 12.7815 6.16903 12.591 5.33422 12.2217C4.49932 11.8523 3.75037 11.3126 3.13631 10.637L3.13566 10.6357L1.56209 8.89288C1.39525 8.70808 1.38958 8.42845 1.54907 8.23728L2.95336 6.55499L3.19099 6.28546C3.76201 5.67249 4.44591 5.17352 5.20662 4.81736C6.07605 4.41033 7.02462 4.19955 7.98461 4.19952ZM7.98461 5.19952C7.17125 5.19955 6.36775 5.37813 5.6311 5.72296C4.98646 6.02476 4.40666 6.44766 3.92277 6.9671L3.72094 7.19562L2.59464 8.54458L3.87654 9.9645L4.07706 10.1735C4.55666 10.6488 5.11957 11.0331 5.73852 11.3069C6.44593 11.6199 7.21107 11.7815 7.98461 11.7816L8.27433 11.7744C8.94869 11.7392 9.61168 11.5808 10.2307 11.3069C10.9382 10.9939 11.573 10.537 12.0933 9.9645L13.3746 8.54458L12.2483 7.19562C11.7273 6.57087 11.0755 6.06788 10.3388 5.72296C9.60201 5.37804 8.79812 5.19952 7.98461 5.19952ZM9.11287 8.3395C9.11269 7.79853 8.65067 7.32714 8.0393 7.32713C7.42792 7.32713 6.96592 7.79852 6.96573 8.3395C6.96573 8.88061 7.4278 9.35252 8.0393 9.35252C8.65079 9.3525 9.11287 8.8806 9.11287 8.3395ZM10.1129 8.3395C10.1129 9.46949 9.16575 10.3525 8.0393 10.3525C6.91285 10.3525 5.96573 9.4695 5.96573 8.3395C5.96591 7.20965 6.91295 6.32713 8.0393 6.32713C9.16564 6.32714 10.1127 7.20966 10.1129 8.3395Z" fill="#461B02"/>
</svg>
