<svg width="14" height="14" viewBox="0 0 14 14" fill="none" xmlns="http://www.w3.org/2000/svg">
<g clip-path="url(#clip0_996_893)">
<path d="M8.29608 3.75947C9.01196 3.75947 9.59229 3.17913 9.59229 2.46326C9.59229 1.74738 9.01196 1.16705 8.29608 1.16705C7.58021 1.16705 6.99988 1.74738 6.99988 2.46326C6.99988 3.17913 7.58021 3.75947 8.29608 3.75947Z" stroke="currentColor" stroke-linecap="round" stroke-linejoin="round"/>
<path d="M8.9447 12.833C9.66058 12.833 10.2409 12.2526 10.2409 11.5368C10.2409 10.8209 9.66058 10.2406 8.9447 10.2406C8.22883 10.2406 7.6485 10.8209 7.6485 11.5368C7.6485 12.2526 8.22883 12.833 8.9447 12.833Z" stroke="currentColor" stroke-linecap="round" stroke-linejoin="round"/>
<path d="M4.40747 8.29613C5.12335 8.29613 5.70368 7.7158 5.70368 6.99993C5.70368 6.28405 5.12335 5.70372 4.40747 5.70372C3.6916 5.70372 3.11127 6.28405 3.11127 6.99993C3.11127 7.7158 3.6916 8.29613 4.40747 8.29613Z" stroke="currentColor" stroke-linecap="round" stroke-linejoin="round"/>
<path d="M1.16696 2.46332H6.99989" stroke="currentColor" stroke-linecap="round" stroke-linejoin="round"/>
<path d="M9.5928 2.46332H12.8333" stroke="currentColor" stroke-linecap="round" stroke-linejoin="round"/>
<path d="M1.16696 6.99998H3.11127" stroke="currentColor" stroke-linecap="round" stroke-linejoin="round"/>
<path d="M5.70419 6.99998H12.8333" stroke="currentColor" stroke-linecap="round" stroke-linejoin="round"/>
<path d="M1.16696 11.5366H7.64799" stroke="currentColor" stroke-linecap="round" stroke-linejoin="round"/>
<path d="M10.2399 11.5366H12.8323" stroke="currentColor" stroke-linecap="round" stroke-linejoin="round"/>
</g>
<defs>
<clipPath id="clip0_996_893">
<rect width="14" height="14" fill="white"/>
</clipPath>
</defs>
</svg>
