<svg width="18" height="24" viewBox="0 0 18 24" fill="none" xmlns="http://www.w3.org/2000/svg">
<g clip-path="url(#clip0_2065_364622)">
<path d="M10.4594 1.65953L9.76482 2.55022L9.75393 22.5566C9.75393 22.6192 9.70217 22.6737 9.6368 22.6737L3.767 22.6928C3.767 22.6928 3.56544 22.5566 3.56544 22.276C3.56544 21.9955 3.54637 21.7449 3.54637 21.7421L2.34518 21.7122C2.34518 21.7122 2.06462 23.5889 3.47283 23.7796C3.47283 23.7796 3.47283 23.7796 3.47555 23.7796H14.6432C14.6568 23.7796 14.6786 23.7741 14.6922 23.7714C14.8747 23.7441 15.0762 23.6624 15.3023 23.4173C15.6074 23.0877 15.6373 22.8126 15.651 22.5484C15.6455 21.7367 15.5856 20.9114 15.6101 20.0534C15.6128 19.9608 15.67 19.8382 15.7381 19.7783L15.7763 19.7456C15.779 19.7429 15.7817 19.7402 15.7844 19.7402C15.8743 19.6748 17.2417 18.667 17.751 16.4552C18.3148 14.012 16.9992 11.7594 16.4354 10.8197C14.0494 6.84021 12.3034 4.15181 12.3034 4.15181V20.2141H13.5237V8.28383C13.5237 8.28383 14.556 9.69203 16.0595 12.6038C16.1467 12.7699 17.0919 14.5758 16.4354 16.6432C16.1113 17.6646 14.9319 18.8985 14.9319 18.8985C14.9319 18.8985 14.556 19.179 14.556 19.7429V22.1834C14.556 22.1889 14.6486 22.6519 14.1801 22.6519H10.9878V2.52025L10.4594 1.65953Z" fill="#652672"/>
<path d="M6.94841 20.2822H8.19319V5.12421L6.94841 6.94916V20.2822Z" fill="#652672"/>
<path d="M9.63408 0.496467C8.32121 2.46033 7.00561 4.42419 5.69273 6.38806C5.69273 11.0076 5.69273 15.6299 5.69273 20.2495C4.77753 20.2686 3.86506 20.2849 2.94986 20.304C2.80005 20.2413 2.60121 20.146 2.38331 20.0098C2.31521 19.9662 1.98563 19.7565 1.61792 19.3888C1.26927 19.0374 1.06226 18.7187 1.00506 18.6261C0.833464 18.3537 0.746302 18.1467 0.599216 17.7954C0.362245 17.2288 0.283255 16.8638 0.256017 16.7331C0.185198 16.379 0.171579 16.1175 0.155236 15.7879C0.127998 15.2105 0.160684 14.7828 0.166131 14.6875C0.174303 14.5949 0.212436 14.1427 0.326836 13.6143C0.531121 12.6855 0.868873 11.98 1.1576 11.3835C1.57161 10.5337 1.9584 9.93173 2.39693 9.25623C2.80822 8.62158 3.17866 8.1095 3.44287 7.75269C3.44287 8.46087 3.44559 9.17179 3.44559 9.87998C3.21952 10.1878 2.95258 10.58 2.68838 11.0594C2.58487 11.2446 2.30977 11.7512 2.0156 12.4976C1.6152 13.519 1.38912 14.0992 1.33192 14.9326C1.30741 15.2976 1.26382 16.0657 1.58796 16.9619C1.78407 17.5012 2.03194 17.8689 2.11638 17.986C2.50043 18.5281 2.93897 18.8658 3.22769 19.0565C3.65805 19.0565 4.09114 19.0565 4.5215 19.0565C4.51332 14.7311 4.50515 10.4084 4.49698 6.08299C6.65424 2.78174 8.24766 0.373895 8.41109 0.185953C8.53094 0.0443148 8.66985 0.0170768 8.66985 0.0170768C8.76246 -0.0183327 8.85507 0.00890534 8.93406 0.0306958C9.03757 0.0606577 9.10838 0.11241 9.25002 0.207743C9.33991 0.270391 9.48427 0.368448 9.63408 0.496467Z" fill="#652672"/>
</g>
<defs>
<clipPath id="clip0_2065_364622">
<rect width="18" height="24" fill="white"/>
</clipPath>
</defs>
</svg>
