<svg width="16" height="16" viewBox="0 0 16 16" fill="none" xmlns="http://www.w3.org/2000/svg">
<path d="M8.0013 11.4999C8.27744 11.4999 8.5013 11.7238 8.5013 11.9999C8.5013 12.2761 8.27744 12.4999 8.0013 12.4999H5.33464C5.05849 12.4999 4.83464 12.2761 4.83464 11.9999C4.83464 11.7238 5.05849 11.4999 5.33464 11.4999H8.0013Z" fill="currentColor"/>
<path d="M10.668 8.83325C10.9441 8.83325 11.168 9.05711 11.168 9.33325C11.168 9.6094 10.9441 9.83325 10.668 9.83325H5.33464C5.05849 9.83325 4.83464 9.6094 4.83464 9.33325C4.83464 9.05711 5.05849 8.83325 5.33464 8.83325H10.668Z" fill="currentColor"/>
<path d="M10.668 6.16659C10.9441 6.16659 11.168 6.39044 11.168 6.66659C11.168 6.94273 10.9441 7.16659 10.668 7.16659H5.33464C5.05849 7.16659 4.83464 6.94273 4.83464 6.66659C4.83464 6.39044 5.05849 6.16659 5.33464 6.16659H10.668Z" fill="currentColor"/>
<path fill-rule="evenodd" clip-rule="evenodd" d="M10.0013 0.833252C10.6455 0.833428 11.168 1.35569 11.168 1.99992V2.16659H12.002C12.4881 2.16667 12.9544 2.35995 13.2982 2.70369C13.6419 3.0475 13.8353 3.51377 13.8353 3.99992V13.3333C13.8353 13.8194 13.6419 14.2857 13.2982 14.6295C12.9544 14.9732 12.4881 15.1665 12.002 15.1666H4.00195C3.5158 15.1666 3.04953 14.9732 2.70573 14.6295C2.36191 14.2857 2.16797 13.8195 2.16797 13.3333V3.99992C2.16797 3.51369 2.36191 3.04751 2.70573 2.70369C3.04953 2.35998 3.5158 2.16659 4.00195 2.16659H4.83464V1.99992C4.83464 1.35559 5.35697 0.833252 6.0013 0.833252H10.0013ZM4.00195 3.16659C3.78102 3.16659 3.56903 3.25455 3.41276 3.41073C3.25648 3.56701 3.16862 3.7789 3.16862 3.99992V13.3333C3.16862 13.5543 3.25648 13.7662 3.41276 13.9224C3.56903 14.0786 3.78102 14.1666 4.00195 14.1666H12.002C12.2228 14.1665 12.4349 14.0786 12.5911 13.9224C12.7473 13.7662 12.8353 13.5542 12.8353 13.3333V3.99992C12.8353 3.77898 12.7473 3.56699 12.5911 3.41073C12.4349 3.25452 12.2228 3.16667 12.002 3.16659H11.168V3.33325C11.168 3.97748 10.6455 4.49974 10.0013 4.49992H6.0013C5.35697 4.49992 4.83464 3.97758 4.83464 3.33325V3.16659H4.00195ZM6.0013 1.83325C5.90925 1.83325 5.83464 1.90787 5.83464 1.99992V2.65356C5.83475 2.65789 5.83529 2.66223 5.83529 2.66659C5.83529 2.67072 5.83474 2.67484 5.83464 2.67896V3.33325C5.83464 3.4253 5.90925 3.49992 6.0013 3.49992H10.0013C10.0932 3.49974 10.168 3.42519 10.168 3.33325V1.99992C10.168 1.90798 10.0932 1.83343 10.0013 1.83325H6.0013Z" fill="currentColor"/>
</svg>
