<svg width="16" height="17" viewBox="0 0 16 17" fill="none" xmlns="http://www.w3.org/2000/svg">
<path d="M8.36523 3.74231C9.79873 2.25546 12.0883 2.20958 13.5752 3.60364L13.7168 3.74329C15.1597 5.24043 15.2046 7.64561 13.8516 9.19934L13.7168 9.3468L13.7061 9.35754L8.58496 14.67C8.27741 14.9891 7.79781 15.0088 7.46875 14.7296L7.40527 14.67L2.29102 9.36438H2.29004L2.28418 9.35754C0.841302 7.86046 0.796578 5.4562 2.14941 3.90247L2.28418 3.75403C3.76382 2.21924 6.15506 2.21934 7.63477 3.75403L7.99609 4.12903L8.35645 3.75305C8.35954 3.74982 8.36305 3.74657 8.36621 3.74329L8.36523 3.74231Z" fill="#EE4343" stroke="#EE4343"/>
</svg>
