<svg width="20" height="21" viewBox="0 0 20 21" fill="none" xmlns="http://www.w3.org/2000/svg">
<path d="M7.99383 4.84668C7.98098 4.71656 7.94833 4.58898 7.89812 4.46777C7.83116 4.30613 7.7337 4.15878 7.61004 4.03516L7.60711 4.0332L6.22527 2.63965C6.10174 2.51592 5.95502 2.41851 5.79363 2.35156C5.6323 2.28469 5.45945 2.25 5.28484 2.25C5.11022 2.25001 4.9374 2.28467 4.77605 2.35156C4.61464 2.41852 4.46796 2.51687 4.34441 2.64062L4.34148 2.64258L1.83465 5.12891L1.83562 5.12988C1.7881 5.17715 1.75854 5.23977 1.75164 5.30664C1.74493 5.37258 1.76064 5.43862 1.79656 5.49414L2.45965 6.46777C5.60958 10.9686 9.52231 14.8832 14.0202 18.0352L14.9929 18.6992L14.9958 18.7012L15.0387 18.7246C15.0841 18.7449 15.1343 18.7538 15.1843 18.749C15.2339 18.7443 15.2813 18.7265 15.322 18.6982L15.36 18.666L17.8493 16.1758L17.9391 16.0781C18.0241 15.9766 18.0936 15.8628 18.1452 15.7402C18.2139 15.5768 18.2497 15.401 18.2497 15.2236C18.2497 15.0462 18.214 14.8705 18.1452 14.707C18.0764 14.5435 17.976 14.3954 17.8493 14.2715L16.4284 12.8496C16.3049 12.7259 16.1581 12.6275 15.9968 12.5605C15.8756 12.5103 15.7479 12.4786 15.6179 12.4658L15.488 12.459C15.3132 12.459 15.1396 12.4936 14.9782 12.5605C14.8168 12.6275 14.6701 12.7259 14.5466 12.8496L14.5436 12.8525L13.6071 13.7793C13.3636 14.0201 12.9877 14.0658 12.694 13.8896C10.1787 12.3813 8.07292 10.2769 6.56121 7.7627C6.38307 7.46632 6.43069 7.08701 6.67644 6.84375L7.61199 5.91699C7.73446 5.7939 7.83162 5.64784 7.89812 5.4873C7.96505 5.32569 7.99969 5.15251 7.99969 4.97754L7.99383 4.84668ZM9.48602 5.25586C9.45872 5.53242 9.39061 5.80385 9.28387 6.06152C9.14148 6.40522 8.93272 6.71748 8.66961 6.98047L8.66766 6.9834L8.15887 7.48535C9.41044 9.40798 11.0503 11.0466 12.9743 12.2949L13.485 11.79L13.6911 11.6025C13.9058 11.4261 14.1463 11.2827 14.404 11.1758C14.7476 11.0333 15.116 10.959 15.488 10.959L15.7653 10.9727C16.0421 10.9999 16.3141 11.0688 16.572 11.1758C16.9153 11.3183 17.2272 11.5269 17.4899 11.79L18.8981 13.1992L19.0895 13.4062C19.2703 13.6223 19.4184 13.8644 19.528 14.125C19.6742 14.4726 19.7497 14.8465 19.7497 15.2236C19.7497 15.6006 19.6741 15.9738 19.528 16.3213C19.3828 16.6665 19.1699 16.9786 18.903 17.2412L18.904 17.2422L16.4157 19.7324L16.4147 19.7314C16.1213 20.0219 15.7369 20.203 15.3259 20.2422C14.9149 20.2812 14.5028 20.1771 14.1598 19.9473C8.75951 16.3602 4.13083 11.7273 0.546562 6.32324L0.545585 6.32227C0.318104 5.97714 0.21706 5.56349 0.259452 5.15234C0.301851 4.74121 0.484852 4.35686 0.778007 4.06543L3.28484 1.57812C3.54713 1.31602 3.85834 1.10791 4.20086 0.96582C4.54445 0.823296 4.91288 0.750007 5.28484 0.75C5.65682 0.75 6.02522 0.823292 6.36883 0.96582C6.62664 1.07276 6.86688 1.21695 7.08172 1.39355L7.28777 1.58105L7.28875 1.58203L8.67254 2.97656C8.93479 3.23916 9.1418 3.55067 9.28387 3.89355C9.42624 4.23722 9.49968 4.60554 9.49969 4.97754L9.48602 5.25586Z" fill="#176CF7"/>
</svg>
