<svg width="16" height="16" viewBox="0 0 16 16" fill="none" xmlns="http://www.w3.org/2000/svg">
<path d="M11.0996 11.6003V10.3001H10.3997C10.1237 10.3 9.89974 10.0762 9.89974 9.80013C9.89975 9.52406 10.1237 9.30023 10.3997 9.30013H13.5V3.19987C13.4999 2.81341 13.1866 2.50013 12.8001 2.5H8.5V6.19987C8.5 6.47594 8.27604 6.69975 8 6.69987H4.39974C4.12363 6.69983 3.89974 6.47599 3.89974 6.19987C3.89987 5.92386 4.12371 5.69991 4.39974 5.69987H7.5V2.5H3.19987C2.81337 2.50006 2.50006 2.81337 2.5 3.19987V9.30013H5.60026L5.65104 9.30273C5.90319 9.32832 6.10025 9.54124 6.10026 9.80013C6.10026 10.059 5.90319 10.2719 5.65104 10.2975L5.60026 10.3001H2.5V12.8001C2.50013 13.1866 2.81341 13.4999 3.19987 13.5H7.5V9.80013C7.50001 9.524 7.72386 9.30013 8 9.30013C8.27604 9.30024 8.49999 9.52406 8.5 9.80013V13.5H12.8001C13.1865 13.4999 13.4999 13.1865 13.5 12.8001V10.3001H12.0996V11.6003C12.0995 11.8763 11.8757 12.1003 11.5996 12.1003C11.3236 12.1002 11.0997 11.8763 11.0996 11.6003ZM14.5 12.8001C14.4999 13.7388 13.7388 14.4999 12.8001 14.5H3.19987C2.26113 14.4999 1.50013 13.7389 1.5 12.8001V3.19987C1.50006 2.26109 2.26109 1.50006 3.19987 1.5H12.8001C13.7389 1.50013 14.4999 2.26113 14.5 3.19987V12.8001Z" fill="currentColor"/>
</svg>
