<svg width="16" height="16" viewBox="0 0 16 16" fill="none" xmlns="http://www.w3.org/2000/svg">
<path d="M2.83333 2.33337C2.83333 2.16977 2.82907 1.98648 2.83594 1.84249C2.8428 1.69888 2.86192 1.50636 2.95443 1.32751C3.06213 1.11935 3.23771 0.986251 3.44531 0.914103C3.62939 0.850165 3.83938 0.833374 4.05273 0.833374H12.5788C13.6093 0.833374 14.5 1.62465 14.5 2.66671V13.3334C14.5 14.3754 13.6093 15.1667 12.5788 15.1667H4.05273C3.83938 15.1667 3.62939 15.1499 3.44531 15.086C3.23771 15.0138 3.06213 14.8807 2.95443 14.6726C2.86192 14.4937 2.8428 14.3012 2.83594 14.1576C2.82907 14.0136 2.83333 13.8303 2.83333 13.6667V11.5306H2C1.72386 11.5306 1.5 11.3068 1.5 11.0306C1.50017 10.7546 1.72396 10.5306 2 10.5306H2.83333V5.31254H2C1.72386 5.31254 1.5 5.08868 1.5 4.81254C1.50012 4.5365 1.72393 4.31254 2 4.31254H2.83333V2.33337ZM6.6582 10.8353C6.58218 11.1007 6.30513 11.2544 6.03971 11.1784C5.77425 11.1024 5.62058 10.8254 5.69661 10.5599L6.6582 10.8353ZM9.60612 6.64848C9.60609 6.20018 9.22157 5.80221 8.70312 5.80212C8.18459 5.80212 7.79951 6.20013 7.79948 6.64848C7.79948 7.09684 8.18457 7.49548 8.70312 7.49548C9.22159 7.4954 9.60612 7.09679 9.60612 6.64848ZM10.6061 6.64848C10.6061 7.13509 10.4134 7.56933 10.1042 7.89522C10.6955 8.25041 11.184 8.84135 11.4479 9.64913L11.4902 9.78585L11.7116 10.5599C11.7876 10.8253 11.6345 11.1023 11.3691 11.1784C11.1037 11.2545 10.8267 11.1007 10.7507 10.8353L10.5286 10.0619L10.4655 9.86593C10.1214 8.92358 9.38949 8.50396 8.70378 8.50395C8.0181 8.50395 7.28699 8.92367 6.94336 9.86593L6.87956 10.0612L6.6582 10.8353L5.69661 10.5599L5.91797 9.78585L5.96029 9.64913C6.22363 8.84192 6.71147 8.25116 7.30208 7.89587C6.99255 7.56992 6.79948 7.13535 6.79948 6.64848C6.79951 5.60938 7.67158 4.80212 8.70312 4.80212C9.7346 4.80221 10.6061 5.60944 10.6061 6.64848ZM3.83333 4.31254H4.52604C4.80211 4.31254 5.02592 4.5365 5.02604 4.81254C5.02604 5.08868 4.80218 5.31254 4.52604 5.31254H3.83333V10.5306H4.52604L4.57747 10.5332C4.8295 10.5588 5.02588 10.7719 5.02604 11.0306C5.02604 11.2895 4.8296 11.5031 4.57747 11.5287L4.52604 11.5306H3.83333V13.6667C3.83333 13.8713 3.82927 13.9975 3.83464 14.1101C3.83545 14.1271 3.83812 14.1417 3.83919 14.1543C3.88384 14.1604 3.95195 14.1667 4.05273 14.1667H12.5788C13.1179 14.1667 13.5 13.7641 13.5 13.3334V2.66671C13.5 2.236 13.1179 1.83337 12.5788 1.83337H4.05273C3.95201 1.83337 3.88384 1.83901 3.83919 1.84509C3.8381 1.85788 3.83547 1.87268 3.83464 1.89001C3.82927 2.00256 3.83333 2.12879 3.83333 2.33337V4.31254Z" fill="#555555"/>
</svg>
