<svg width="16" height="16" viewBox="0 0 16 16" fill="none" xmlns="http://www.w3.org/2000/svg">
<path d="M2.10709 2.97892C3.72306 1.36296 6.29778 1.29009 8.00021 2.76032C9.70154 1.29009 12.2763 1.36296 13.8922 2.97892C15.5053 4.592 15.5807 7.16042 14.1187 8.86289L8.94247 14.057C8.44541 14.554 7.65361 14.5766 7.12981 14.1247L7.05687 14.057L1.88061 8.86289C0.418529 7.16042 0.494023 4.592 2.10709 2.97892ZM3.0499 3.92173C1.9118 5.05983 1.87929 6.88482 2.95235 8.06222L3.0499 8.16436L7.99967 13.1141L11.5347 9.57809L9.17814 7.22156L8.47107 7.92869C7.69001 8.70969 6.42368 8.70969 5.64263 7.92869C4.86158 7.14762 4.86158 5.88129 5.64263 5.10024L7.04341 3.69858C5.90162 2.78451 4.24685 2.82638 3.15207 3.82418L3.0499 3.92173ZM8.70674 5.80735C8.96708 5.547 9.38921 5.547 9.64954 5.80735L12.4775 8.63529L12.9494 8.16436C14.1209 6.99282 14.1209 5.0933 12.9494 3.92173C11.8113 2.78363 9.98627 2.75112 8.80894 3.82418L8.70674 3.92173L6.58543 6.04305C6.34368 6.2848 6.32641 6.66604 6.53363 6.92769L6.58543 6.98589C6.82721 7.22762 7.20841 7.24489 7.47007 7.03769L7.52827 6.98589L8.70674 5.80735Z" fill="currentColor"/>
</svg>
