<svg width="16" height="16" viewBox="0 0 16 16" fill="none" xmlns="http://www.w3.org/2000/svg">
<g clip-path="url(#clip0_6869_19)">
<path fill-rule="evenodd" clip-rule="evenodd" d="M11.6562 2.26552C12.2143 2.2642 12.7228 2.57449 12.9772 3.06435L13.0241 3.16461L13.0247 3.16526L13.5521 4.40029L13.5527 4.40224L13.5957 4.51162C13.689 4.76854 13.7366 5.04043 13.7357 5.31435V9.3469C13.9197 9.41568 14.0916 9.5238 14.2383 9.67047L14.3314 9.77399C14.5372 10.0249 14.651 10.3405 14.651 10.6679C14.651 11.0419 14.5029 11.4009 14.2383 11.6653L14.2376 11.6646L12.8555 13.0474C12.4808 13.4221 12.0165 13.6925 11.5085 13.8339L11.2878 13.8866L9.33398 14.2772C8.94411 14.3552 8.54304 14.3566 8.15365 14.2818L7.98763 14.2453L6.2207 13.8039L6.2194 13.8033C6.08506 13.7694 5.94797 13.748 5.8099 13.7395L5.67122 13.7356H4.98698C4.82864 14.1264 4.44622 14.4028 3.9987 14.4029H2.66471C2.0757 14.4027 1.59784 13.9248 1.59766 13.3358V9.33388C1.59781 8.74485 2.07568 8.26763 2.66471 8.26748H3.9987C4.09097 8.2675 4.18029 8.27995 4.26562 8.30198V5.31305C4.26579 4.99918 4.32885 4.68776 4.45182 4.39899L4.97982 3.16526L5.02734 3.065C5.28076 2.57608 5.78699 2.2655 6.34375 2.26552V2.26422H11.6562V2.26552ZM2.66471 9.06696C2.5175 9.06711 2.39794 9.18667 2.39779 9.33388V13.3358C2.39797 13.483 2.51752 13.6026 2.66471 13.6028H3.9987C4.14587 13.6026 4.26544 13.483 4.26562 13.3358V9.33388C4.26548 9.18669 4.14588 9.06713 3.9987 9.06696H2.66471ZM7.61393 9.06696C7.07479 9.06689 6.54741 9.22664 6.09896 9.52594L5.06576 10.2147V12.9354H5.67122L5.85872 12.9413C6.04574 12.9528 6.23144 12.9815 6.41341 13.0272L8.18164 13.4693L8.30469 13.496C8.59251 13.5513 8.88891 13.5503 9.17708 13.4927L11.1309 13.1021L11.2936 13.063C11.6693 12.9586 12.0127 12.7587 12.2897 12.4817L13.6725 11.0995C13.7869 10.9852 13.8515 10.8296 13.8516 10.6679C13.8516 10.5263 13.8019 10.3897 13.7129 10.2811L13.6725 10.2362C13.4578 10.0215 13.1174 9.99683 12.8743 10.1789L12.875 10.1796L11.263 11.3879C10.963 11.6129 10.5983 11.7349 10.2233 11.7349H8.66732C8.50309 11.7349 8.36185 11.6357 8.30013 11.494C8.27891 11.4453 8.267 11.3917 8.26693 11.3352C8.26693 11.3342 8.26757 11.3329 8.26758 11.3319C8.26906 11.1123 8.44732 10.9348 8.66732 10.9348H9.65755C9.99446 10.9347 10.2673 10.6616 10.2676 10.3248V10.1242C10.2675 9.87946 10.1218 9.66225 9.90365 9.5663L9.80599 9.5331L8.27734 9.15094L8.27669 9.15029C8.0601 9.09563 7.83731 9.06757 7.61393 9.06696ZM5.57096 6.13531C5.2877 6.16434 5.06621 6.40306 5.0651 6.69391V9.25315L5.65495 8.86058L5.8776 8.72386C6.40621 8.42507 7.00444 8.26731 7.61458 8.26748V8.60472L7.61589 8.26748C7.90417 8.26825 8.19116 8.30447 8.4707 8.3749L8.47135 8.37425L10 8.75641L10.1152 8.79091C10.6807 8.98449 11.0676 9.51787 11.0677 10.1242V10.3248C11.0677 10.4011 11.0592 10.4757 11.0475 10.5487L12.3945 9.53961L12.5026 9.46604C12.6387 9.3823 12.7852 9.32418 12.9355 9.29091V6.6913L12.9323 6.63662C12.9046 6.37213 12.6943 6.16226 12.4297 6.13531L12.3724 6.13206H9.00651C9.00456 6.13209 9.00261 6.13271 9.00065 6.13271C8.99858 6.13271 8.9962 6.13209 8.99414 6.13206H5.62891L5.57096 6.13531ZM6.34375 3.06435C6.07027 3.06433 5.82303 3.22763 5.7155 3.47906L5.18815 4.71344C5.10752 4.90301 5.06525 5.10704 5.0651 5.31305V5.45563C5.2369 5.37743 5.42725 5.33272 5.62826 5.33258H8.60091V3.06435H6.34375ZM9.40104 5.33258H12.373L12.5117 5.33974C12.6617 5.35502 12.8039 5.39577 12.9355 5.45563V5.31305L12.9284 5.15875C12.9136 5.00634 12.8759 4.85646 12.8164 4.71474L12.2891 3.47972L12.2422 3.38922C12.1184 3.18879 11.8979 3.06358 11.6576 3.06435H9.40104V5.33258Z" fill="currentColor"/>
</g>
<defs>
<clipPath id="clip0_6869_19">
<rect width="16" height="16" fill="white" transform="matrix(-1 0 0 1 16 0)"/>
</clipPath>
</defs>
</svg>
