<svg width="14" height="14" viewBox="0 0 14 14" fill="none" xmlns="http://www.w3.org/2000/svg">
<path d="M10.5571 4.74975L10.5503 4.67398C10.4766 3.84397 10.0778 3.06729 9.42746 2.50129V2.50072C8.74795 1.90836 7.85372 1.58519 6.92835 1.60237C6.00307 1.61958 5.12253 1.9752 4.46799 2.59187L4.46856 2.59244C4.03943 2.99771 3.72928 3.5009 3.56621 4.05191C3.42356 4.53395 3.39731 5.03943 3.48817 5.53075L3.53431 5.74039L3.54001 5.76545C3.72421 6.71638 4.08781 7.62753 4.61325 8.45426L4.72035 8.61889L4.72718 8.62857L4.73345 8.63883C5.36389 9.69792 6.09878 10.6966 6.92722 11.6221C7.18563 11.3665 7.4318 11.0994 7.66436 10.8218L7.66721 10.8184L7.95374 10.4731C8.60793 9.65754 9.16749 8.7759 9.62228 7.84415V7.84358L9.8154 7.43513C10.0021 7.02437 10.1701 6.60602 10.319 6.18131L10.327 6.15966C10.4582 5.83957 10.5363 5.50232 10.5582 5.1599L10.5588 5.15136L10.5599 5.14281C10.5647 5.09681 10.5651 5.04885 10.5651 4.97362V4.95426C10.5651 4.88665 10.5614 4.81973 10.5571 4.74975ZM6.99842 2.85904L7.09299 2.86075C7.56459 2.88098 8.01603 3.06777 8.3582 3.39167C8.72378 3.7378 8.93503 4.21296 8.93869 4.71386V4.71671L8.93356 4.8557C8.90878 5.17748 8.79754 5.48722 8.6117 5.75463C8.39941 6.06007 8.09969 6.29625 7.75208 6.43538C7.40464 6.57441 7.0228 6.61157 6.65435 6.54304C6.28586 6.47446 5.94406 6.30248 5.67339 6.0463C5.40248 5.7898 5.21436 5.45948 5.1362 5.09667C5.05808 4.73388 5.09376 4.35717 5.23817 4.01488C5.38258 3.67276 5.62837 3.38199 5.94113 3.17748C6.2538 2.97309 6.62111 2.86307 6.99614 2.85904H6.99842ZM7.00355 3.73404C6.79371 3.73662 6.59073 3.79809 6.42022 3.9095C6.24938 4.02118 6.11987 4.17716 6.04481 4.35497C5.96985 4.53256 5.95168 4.7263 5.99183 4.91267C6.03203 5.09915 6.12941 5.27276 6.27495 5.41055C6.42072 5.54855 6.60817 5.64446 6.81442 5.68285C7.02067 5.72119 7.23407 5.70016 7.42681 5.62304C7.61948 5.54593 7.78116 5.41702 7.89336 5.25561C8.00481 5.09526 8.06316 4.90894 8.06369 4.72013L8.05799 4.62442C8.03339 4.40205 7.92904 4.19066 7.75664 4.02742C7.55921 3.84048 7.2888 3.73306 7.00355 3.73404ZM11.4401 4.97362C11.4401 5.03816 11.4393 5.12374 11.431 5.21516L11.4315 5.21573C11.4035 5.65359 11.3041 6.08424 11.137 6.49177C10.9287 7.0833 10.685 7.66269 10.4078 8.22753L10.4084 8.2281C9.85651 9.35881 9.15956 10.4184 8.33485 11.3835L8.33542 11.384C7.98499 11.8024 7.60632 12.199 7.20179 12.5701L6.88221 12.8629L6.58656 12.5467C5.59559 11.4889 4.72454 10.3328 3.98833 9.09797C3.34522 8.13704 2.90224 7.06494 2.68324 5.94091C2.50629 5.23665 2.52086 4.50043 2.7271 3.80354C2.93485 3.10157 3.32848 2.46525 3.86756 1.95613L3.86813 1.95556L4.02422 1.81542C4.82081 1.1333 5.84515 0.747232 6.91183 0.727368C8.04956 0.706198 9.1557 1.10312 10.0022 1.84106L10.1515 1.97721C10.865 2.65978 11.3129 3.56235 11.4144 4.53328C11.4231 4.56599 11.4285 4.59957 11.4298 4.63354V4.67284C11.4359 4.76481 11.4401 4.85744 11.4401 4.95426V4.97362Z" fill="#461B02"/>
</svg>
