<svg width="21" height="21" viewBox="0 0 21 21" fill="none" xmlns="http://www.w3.org/2000/svg">
<path d="M10.4883 2.16699C13.0456 2.16699 15.1035 4.17971 15.1035 6.66406V7.94141C16.5387 8.38938 17.5848 9.68853 17.585 11.2402V15.3545C17.585 17.2757 15.9919 18.8339 14.0283 18.834H6.97559C5.01105 18.834 3.41797 17.2757 3.41797 15.3545V11.2402C3.41816 9.68853 4.4651 8.38938 5.89941 7.94141V6.66406C5.90788 4.17982 7.96502 2.16716 10.4883 2.16699ZM10.4971 11.6543C10.0907 11.6543 9.76092 11.9767 9.76074 12.374V14.2129C9.76081 14.6186 10.0907 14.9414 10.4971 14.9414C10.912 14.9414 11.2421 14.6186 11.2422 14.2129V12.374C11.242 11.9767 10.9119 11.6543 10.4971 11.6543ZM10.5059 3.61621C8.78689 3.61621 7.38933 4.97467 7.38086 6.64746V7.76172H13.6221V6.66406C13.6221 4.98309 12.2247 3.61638 10.5059 3.61621Z" fill="#EC6300"/>
</svg>
