<svg width="20" height="21" viewBox="0 0 20 21" fill="none" xmlns="http://www.w3.org/2000/svg">
<path d="M15.0816 8.12192L15.0718 8.01368C14.9666 6.82795 14.3968 5.7184 13.4678 4.90984V4.90903C12.4971 4.06279 11.2196 3.60112 9.89764 3.62566C8.57581 3.65026 7.31789 4.15828 6.38283 5.03924L6.38365 5.04005C5.7706 5.61901 5.32754 6.33784 5.09458 7.12501C4.89079 7.81364 4.8533 8.53575 4.98309 9.23764L5.04901 9.53712L5.05715 9.57293C5.3203 10.9314 5.83973 12.233 6.59035 13.4141L6.74335 13.6493L6.75311 13.6631L6.76206 13.6777C7.66269 15.1907 8.71253 16.6174 9.89602 17.9396C10.2652 17.5744 10.6168 17.1929 10.9491 16.7962L10.9531 16.7914L11.3625 16.2982C12.297 15.1331 13.0964 13.8736 13.7461 12.5425V12.5417L14.022 11.9582C14.2887 11.3714 14.5286 10.7737 14.7414 10.167L14.7528 10.1361C14.9403 9.67881 15.0519 9.19702 15.0832 8.70786L15.084 8.69565L15.0856 8.68344C15.0924 8.61772 15.093 8.54921 15.093 8.44174V8.41407C15.093 8.31749 15.0877 8.2219 15.0816 8.12192ZM9.99774 5.42091L10.1328 5.42335C10.8066 5.45225 11.4515 5.7191 11.9403 6.18181C12.4625 6.67628 12.7643 7.35507 12.7696 8.07065V8.07472L12.7622 8.27329C12.7268 8.73296 12.5679 9.17545 12.3024 9.55747C11.9992 9.99381 11.571 10.3312 11.0744 10.53C10.5781 10.7286 10.0326 10.7817 9.50621 10.6838C8.97979 10.5858 8.49151 10.3401 8.10484 9.97413C7.71783 9.60771 7.44908 9.13582 7.33742 8.61752C7.22583 8.09924 7.27679 7.56109 7.48309 7.07211C7.6894 6.58336 8.04052 6.16798 8.48733 5.87582C8.93399 5.58383 9.45872 5.42666 9.99449 5.42091H9.99774ZM10.0051 6.67091C9.7053 6.6746 9.41532 6.76241 9.17173 6.92156C8.92768 7.0811 8.74267 7.30394 8.63544 7.55795C8.52835 7.81165 8.5024 8.08842 8.55975 8.35467C8.61718 8.62107 8.7563 8.86907 8.96421 9.06593C9.17245 9.26307 9.44023 9.40009 9.73488 9.45493C10.0295 9.5097 10.3344 9.47965 10.6097 9.36948C10.885 9.25933 11.1159 9.07516 11.2762 8.84457C11.4354 8.6155 11.5188 8.34934 11.5196 8.0796L11.5114 7.94288C11.4763 7.62521 11.3272 7.32322 11.0809 7.09002C10.7989 6.82297 10.4126 6.6695 10.0051 6.67091ZM16.343 8.44174C16.343 8.53394 16.3419 8.65619 16.3299 8.78679L16.3307 8.78761C16.2907 9.41312 16.1488 10.0283 15.91 10.6105C15.6124 11.4556 15.2643 12.2833 14.8683 13.0902L14.8692 13.091C14.0807 14.7063 13.0851 16.22 11.9069 17.5986L11.9077 17.5995C11.4071 18.1971 10.8662 18.7637 10.2883 19.2938L9.83173 19.7121L9.40936 19.2604C7.99369 17.7492 6.74934 16.0978 5.69761 14.3337C4.77888 12.9609 4.14605 11.4293 3.83319 9.82358C3.58041 8.8175 3.60123 7.76576 3.89585 6.77019C4.19264 5.76738 4.75496 4.85836 5.52509 4.13103L5.5259 4.13022L5.74888 3.93002C6.88687 2.95557 8.35021 2.40404 9.87404 2.37566C11.4994 2.34542 13.0796 2.91245 14.2889 3.96665L14.5021 4.16114C15.5215 5.13626 16.1612 6.42564 16.3063 7.81267C16.3187 7.8594 16.3264 7.90738 16.3283 7.9559V8.01206C16.337 8.14344 16.343 8.27577 16.343 8.41407V8.44174Z" fill="currentColor"/>
</svg>
