<svg width="20" height="20" viewBox="0 0 20 20" fill="none" xmlns="http://www.w3.org/2000/svg">
<path fill-rule="evenodd" clip-rule="evenodd" d="M7.52523 2.70915C7.76172 2.71192 7.99793 2.75061 8.2251 2.82633L9.36442 3.20557L9.42383 3.22917C9.71273 3.35918 9.86227 3.68957 9.75993 3.99658C9.65759 4.30349 9.3398 4.47838 9.03076 4.40918L8.96891 4.39209L8.125 4.11051V15.4272L11.875 16.6772V11.6667C11.875 11.3215 12.1548 11.0417 12.5 11.0417C12.8452 11.0417 13.125 11.3215 13.125 11.6667V16.6772L16.7342 15.4736L16.792 15.4435C16.8432 15.4054 16.8751 15.3447 16.875 15.2783V10.8333C16.875 10.4882 17.1548 10.2083 17.5 10.2083C17.8452 10.2083 18.125 10.4882 18.125 10.8333V15.2751L18.1209 15.3923C18.0788 15.9327 17.7383 16.4056 17.2396 16.6178L17.1297 16.6593L12.9574 18.0509C12.6591 18.1504 12.3365 18.1496 12.0386 18.0493L7.56592 16.5584C7.54453 16.5513 7.52225 16.5479 7.5 16.5479L7.43408 16.5584L3.79476 17.7718C3.35006 17.9201 2.86076 17.8457 2.48047 17.5716C2.14775 17.3318 1.93395 16.9645 1.88558 16.5625L1.875 16.3883V5.51025C1.87516 4.88275 2.2766 4.32529 2.87191 4.12679L6.7749 2.82633L6.95312 2.77425C7.12578 2.73183 7.30223 2.71065 7.47884 2.70915C7.48587 2.70891 7.49291 2.70833 7.5 2.70833C7.50845 2.70833 7.51686 2.70881 7.52523 2.70915ZM3.26742 5.31331C3.18254 5.34167 3.12516 5.42078 3.125 5.51025V16.3883L3.1307 16.4372C3.14223 16.4849 3.17065 16.5274 3.21126 16.5568C3.26557 16.5959 3.33573 16.6073 3.39925 16.5861L6.875 15.4272V4.11051L3.26742 5.31331Z" fill="currentColor"/>
<path d="M14.62 4.58577C15.0642 4.60505 15.4179 4.97048 15.4167 5.41911C15.4153 5.87871 15.0421 6.25045 14.5825 6.25C14.1516 6.24943 13.7968 5.92181 13.7541 5.50212L13.75 5.41667C13.7497 5.19503 13.8379 4.98232 13.995 4.82585L14.0568 4.77051C14.2031 4.65136 14.386 4.58557 14.576 4.58415C14.5795 4.5841 14.5831 4.58332 14.5866 4.58333L14.5874 4.58415L14.5898 4.58333L14.62 4.58577Z" fill="currentColor"/>
<path fill-rule="evenodd" clip-rule="evenodd" d="M14.5833 1.875C16.5393 1.875 18.125 3.46066 18.125 5.41667C18.125 6.30912 17.6489 7.15288 17.1452 7.81087C16.6281 8.4863 16.0051 9.06378 15.5632 9.43848C15.5599 9.44121 15.5567 9.44394 15.5534 9.44661C14.988 9.9063 14.1778 9.9063 13.6125 9.44661C13.6091 9.44388 13.6052 9.44128 13.6019 9.43848C13.1604 9.06387 12.5383 8.48614 12.0215 7.81087C11.5179 7.1529 11.0417 6.30915 11.0417 5.41667C11.0417 3.46066 12.6273 1.875 14.5833 1.875ZM14.5833 3.125C13.3177 3.125 12.2917 4.15101 12.2917 5.41667C12.2917 5.88959 12.5605 6.45781 13.0143 7.05078C13.4518 7.62239 13.995 8.13164 14.4027 8.47819C14.5079 8.56251 14.657 8.56225 14.7624 8.47819C15.1704 8.13172 15.7145 7.62269 16.1523 7.05078C16.6063 6.45785 16.875 5.88958 16.875 5.41667C16.875 4.15101 15.849 3.125 14.5833 3.125Z" fill="currentColor"/>
</svg>
