<svg width="23" height="28" viewBox="0 0 23 28" fill="none" xmlns="http://www.w3.org/2000/svg">
<path d="M22.4668 10.982C22.4668 18.444 13.0811 28 11.4669 28C9.23705 28 0.466797 18.443 0.466797 10.982C0.466797 9.53979 0.751322 8.11172 1.30413 6.77931C1.85694 5.44689 2.66722 4.23625 3.68868 3.21647C4.71014 2.1967 5.92277 1.38776 7.25737 0.835882C8.59197 0.283999 10.0224 -3.3788e-05 11.4669 3.01468e-09C14.3843 3.01474e-09 17.1821 1.15701 19.245 3.21654C21.3079 5.27606 22.4668 8.06938 22.4668 10.982Z" fill="white"/>
<path d="M11.4173 26.8946C10.6789 26.6887 8.33355 24.8083 5.88255 21.4671C3.13696 17.724 1.5625 13.9037 1.5625 10.9853C1.5655 8.36387 2.60988 5.85063 4.46655 3.99698C6.32321 2.14334 8.84054 1.10065 11.4663 1.09766C14.092 1.10065 16.6093 2.14334 18.466 3.99698C20.3226 5.85063 21.367 8.36387 21.37 10.9853C21.37 14.8192 18.6022 19.0906 16.9523 21.295C14.5438 24.5139 12.1508 26.5796 11.4173 26.8946Z" fill="#176CF7"/>
<path d="M6.45114 11.7258C6.45417 11.551 6.49248 11.3785 6.56386 11.2181C6.63524 11.0577 6.73831 10.9127 6.86716 10.7912C6.99601 10.6698 7.14811 10.5743 7.31478 10.5103C7.48145 10.4463 7.65941 10.415 7.83848 10.4182C8.01631 10.4153 8.19294 10.447 8.35809 10.5114C8.52324 10.5759 8.67363 10.6717 8.80049 10.7934C8.92735 10.9151 9.02816 11.0601 9.09705 11.2202C9.16594 11.3803 9.20155 11.5521 9.20178 11.7257L9.20175 13.0449C9.20774 13.6169 9.44471 14.1635 9.86118 14.5659C10.2776 14.9683 10.8399 15.194 11.4259 15.194C12.0119 15.194 12.5742 14.9682 12.9907 14.5658C13.4072 14.1634 13.6442 13.6168 13.6502 13.0448L13.6502 11.7256C13.6533 11.5508 13.6916 11.3783 13.763 11.218C13.8344 11.0576 13.9374 10.9126 14.0663 10.7911C14.1951 10.6697 14.3472 10.5742 14.5138 10.5102C14.6805 10.4462 14.8584 10.4148 15.0375 10.418C15.2153 10.4152 15.3919 10.4469 15.557 10.5113C15.7221 10.5758 15.8725 10.6716 15.9993 10.7933C16.1262 10.9149 16.227 11.06 16.2958 11.2201C16.3647 11.3801 16.4003 11.5519 16.4005 11.7255L16.4005 13.0447C16.369 14.3123 15.831 15.5176 14.9015 16.4033C13.972 17.2889 12.7246 17.7847 11.4258 17.7848C10.127 17.7848 8.87961 17.2891 7.95015 16.4034C7.02069 15.5178 6.48279 14.3125 6.45134 13.0449L6.45114 11.7258Z" fill="white"/>
<path d="M9.22191 8.4612C9.22188 8.72854 9.1406 8.98988 8.98836 9.21217C8.83612 9.43445 8.61975 9.6077 8.3666 9.71C8.11346 9.81231 7.83491 9.83908 7.56619 9.78692C7.29746 9.73477 7.05062 9.60603 6.85689 9.41699C6.66315 9.22796 6.53121 8.98711 6.47776 8.7249C6.42431 8.46269 6.45174 8.1909 6.55659 7.9439C6.66143 7.6969 6.83899 7.48577 7.0668 7.33722C7.29461 7.18867 7.56245 7.10937 7.83644 7.10934C8.20389 7.10936 8.55627 7.25179 8.81609 7.50531C9.07591 7.75882 9.22189 8.10266 9.22191 8.4612Z" fill="white"/>
<path d="M16.3938 8.37917C16.3938 8.64651 16.3125 8.90785 16.1602 9.13014C16.008 9.35242 15.7916 9.52567 15.5385 9.62798C15.2853 9.73028 15.0068 9.75705 14.7381 9.70489C14.4693 9.65274 14.2225 9.524 14.0288 9.33496C13.835 9.14592 13.7031 8.90507 13.6496 8.64287C13.5962 8.38066 13.6236 8.10887 13.7285 7.86187C13.8333 7.61487 14.0109 7.40374 14.2387 7.25519C14.4665 7.10664 14.7343 7.02734 15.0083 7.02731C15.3758 7.02733 15.7281 7.16976 15.988 7.42328C16.2478 7.67679 16.3938 8.02063 16.3938 8.37917Z" fill="white"/>
</svg>
