<svg width="60" height="90" viewBox="23 7 37 20" fill="none" xmlns="http://www.w3.org/2000/svg">
<g filter="url(#filter0_d_3055_347560)" transform="rotate(88, 39, 21)">
<path d="M12.4239 21.4767C12.4242 21.4691 12.4207 21.4614 12.4134 21.4535C12.2938 21.3122 12.1552 21.0791 12.1455 20.7487C12.1464 20.7259 12.1475 20.6994 12.1487 20.6691L12.312 16.5557L12.344 15.749L12.3733 15.0104C11.5309 15.876 10.8204 16.8607 10.2235 17.8499L10.0976 21.0202C10.0872 21.2815 10.1682 21.5351 10.331 21.735C10.5042 21.9582 10.8196 22.039 11.1078 21.948L12.1921 21.5813L12.3998 21.5099C12.423 21.4994 12.4239 21.4767 12.4239 21.4767Z" fill="#323433"/>
<path d="M12.5079 11.6239C12.5089 11.6012 12.5098 11.5785 12.5107 11.5558C12.5465 11.2271 12.7032 11.0057 12.8336 10.8743C12.8415 10.8671 12.8456 10.8596 12.8459 10.8521C12.8463 10.8407 12.8468 10.8293 12.8245 10.8171L12.6231 10.7294L11.5713 10.2779C11.2913 10.1644 10.9704 10.22 10.78 10.4286C10.6024 10.6037 10.5015 10.85 10.4907 11.1228L10.3103 15.6679L10.2782 16.4747L10.2236 17.8496C10.8206 16.8604 11.5311 15.8757 12.3735 15.0101L12.5079 11.6239Z" fill="#3C3D3C"/>
<path d="M13.18 10.1829L13.6232 10.485C13.6675 10.5171 13.7196 10.542 13.7796 10.5595C13.9538 10.5664 14.1396 10.57 14.3368 10.5703C14.352 10.5709 14.3671 10.5715 14.3823 10.5721C14.2274 10.4597 14.0766 10.3399 13.9299 10.2127L13.18 10.1829Z" fill="#323433"/>
<path d="M18.2818 10.3861L17.8386 10.3685C17.8273 10.368 17.8041 10.3785 17.8027 10.4126L17.8005 10.4694C17.8808 10.5484 17.9573 10.6274 18.0301 10.7061C19.03 10.7458 19.6663 10.7711 19.9613 10.7942L19.7535 10.5811C19.6549 10.4861 19.5317 10.4357 19.3953 10.4303L18.2818 10.3861Z" fill="#323433"/>
<path d="M14.3819 10.5722C15.2682 10.6074 16.0754 10.6281 16.7799 10.656C16.8935 10.6605 17.0071 10.6651 17.1208 10.6696L17.1321 10.67C17.1549 10.6709 17.1671 10.6486 17.168 10.6259L17.1775 10.3873C17.1788 10.3532 17.1566 10.3409 17.1452 10.3405L16.7816 10.3261L13.9295 10.2128C14.0762 10.34 14.227 10.4598 14.3819 10.5722Z" fill="#3C3D3C"/>
<path d="M17.7938 10.6508C17.7929 10.6736 17.8038 10.6854 17.8147 10.6972C17.8905 10.7002 17.9624 10.7031 18.0306 10.7058C17.9579 10.627 17.8813 10.5481 17.801 10.469L17.7938 10.6508Z" fill="#3C3D3C"/>
<path d="M20.7047 11.2667C20.7047 11.2667 20.7046 11.2705 20.7043 11.2781L20.5139 16.0732L20.4818 16.88L20.2915 21.6752C20.2915 21.6752 20.2913 21.6789 20.291 21.6865L20.8023 21.7068L21.216 11.287L20.7047 11.2667Z" fill="#F9A307"/>
<path d="M12.7041 22.1709L14.3517 22.2363C14.4395 22.126 14.5312 22.0158 14.6266 21.9058C14.3918 21.8965 14.1457 21.8829 13.8885 21.8651C13.6915 21.8573 13.5059 21.8499 13.3317 21.843C13.2705 21.8558 13.2165 21.8764 13.1699 21.9049L12.7041 22.1709Z" fill="#323433"/>
<path d="M16.306 22.3139L16.6696 22.3284C16.6809 22.3288 16.7046 22.307 16.7055 22.2843L16.7149 22.0456C16.7158 22.0229 16.7054 21.9997 16.6826 21.9988L16.6713 21.9984C16.5577 21.9939 16.444 21.9894 16.3304 21.9848C15.8077 21.9641 15.24 21.9302 14.6264 21.9058C14.531 22.0158 14.4394 22.126 14.3516 22.2363L16.306 22.3139Z" fill="#3C3D3C"/>
<path d="M19.5129 22.0997C19.2856 22.0907 18.8307 22.084 18.1489 22.057C18.0689 22.16 17.9926 22.267 17.9199 22.3779L18.9198 22.4176C19.0562 22.423 19.183 22.3826 19.2893 22.2843L19.5129 22.0997Z" fill="#323433"/>
<path d="M17.3649 22.0259C17.3531 22.0368 17.3413 22.0477 17.3404 22.0704L17.3309 22.309C17.33 22.3318 17.3518 22.3554 17.3632 22.3558L17.8063 22.3734L17.92 22.378C17.9927 22.267 18.069 22.16 18.1489 22.057C17.9141 22.0477 17.6528 22.0373 17.3649 22.0259Z" fill="#3C3D3C"/>
<path fill-rule="evenodd" clip-rule="evenodd" d="M19.6521 22.0144L19.7193 22.0399L19.3426 22.3549C19.2136 22.4523 19.0632 22.5146 18.9154 22.5087L17.3587 22.4469C17.3019 22.4446 17.2478 22.3742 17.2505 22.306L17.26 22.0674C17.2623 22.0106 17.2986 21.9551 17.3559 21.946C19.0376 22.0128 19.5152 22.0204 19.6521 22.0144ZM18.9191 22.4178C19.0554 22.4232 19.1822 22.3827 19.2885 22.2845L19.5121 22.0999C19.2848 22.0909 18.8299 22.0842 18.1481 22.0571C17.9133 22.0478 17.6519 22.0374 17.3641 22.026C17.3523 22.0369 17.3404 22.0478 17.3395 22.0706L17.3301 22.3092C17.3292 22.3319 17.351 22.3555 17.3624 22.356L18.9191 22.4178Z" fill="#212121"/>
<path d="M13.7501 22.77L13.7387 22.7696C13.5205 22.8178 13.256 22.887 12.9806 22.9444C13.0884 23.0966 13.2661 23.2061 13.4593 23.2137L16.3682 23.3292C16.6522 23.3405 16.8985 23.1568 16.9771 22.8982L16.8521 22.8932L13.7501 22.77Z" fill="#1E1E1E"/>
<path d="M14.2701 9.6689L17.3721 9.79206L17.4971 9.79702C17.4393 9.53296 17.2084 9.33032 16.9243 9.31904L14.0154 9.20355C13.8223 9.19588 13.6364 9.29093 13.5169 9.43414C13.7869 9.51314 14.0451 9.60306 14.2587 9.66845L14.2701 9.6689Z" fill="#1E1E1E"/>
<path d="M8.47994 21.0817C8.40052 19.9291 8.53693 17.0665 8.5907 15.9989C8.62129 14.9417 8.7127 12.066 8.88281 10.9346C8.93178 10.561 9.10476 9.93054 9.37693 9.66821C9.38481 9.66093 9.39284 9.64987 9.40101 9.63502C9.03523 9.96192 8.53183 10.602 8.48807 11.7042C8.47679 11.9883 8.15874 19.9992 8.14746 20.2832C8.1037 21.3854 8.55477 22.0634 8.89394 22.407C8.88666 22.3991 8.87939 22.3912 8.87211 22.3833C8.62205 22.0889 8.49914 21.4581 8.47994 21.0817Z" fill="#DD7B02"/>
<path d="M13.0543 9.62048C13.0237 9.62685 12.9969 9.63337 12.9739 9.64005C12.9588 9.63945 12.9474 9.639 12.9398 9.63869C12.7912 9.65556 12.6749 9.71922 12.6022 9.83014L12.5059 9.96289C12.5059 9.96289 12.6612 9.77559 12.7871 9.75782C12.9244 9.74051 13.2439 9.71905 13.293 9.62995L14.2588 9.6683C14.0452 9.60291 13.787 9.513 13.517 9.43399C13.487 9.42521 13.4532 9.41629 13.4156 9.40721C13.3856 9.39843 13.3556 9.38965 13.3256 9.38087L13.3133 9.40315C13.2634 9.51497 13.1693 9.5909 13.0543 9.62048Z" fill="#F9A307"/>
<path fill-rule="evenodd" clip-rule="evenodd" d="M12.5381 21.4826C12.5375 21.4978 12.5369 21.5129 12.5363 21.5281C12.5287 21.5278 12.5248 21.5314 12.5245 21.539C12.5242 21.5466 12.5201 21.554 12.5122 21.5613C12.5122 21.5613 12.5083 21.5649 12.5004 21.5722C12.5001 21.5797 12.496 21.5872 12.4882 21.5944C12.4806 21.5941 12.4766 21.5978 12.4763 21.6054C12.4609 21.6123 12.4456 21.6155 12.4304 21.6149L12.2341 21.6868L11.1384 22.053C10.8153 22.1654 10.4548 22.0714 10.2375 21.8124C10.0638 21.6006 9.96102 21.3234 9.9732 21.0166L10.3661 11.1195C10.3783 10.8127 10.5028 10.5445 10.6927 10.3472C10.9299 10.1062 11.2967 10.0411 11.6098 10.1787L12.6731 10.6307L12.8635 10.7065C12.8784 10.7147 12.8932 10.7229 12.9081 10.731C12.9078 10.7386 12.9114 10.7425 12.919 10.7428C12.9263 10.7507 12.9298 10.7584 12.9295 10.766C12.937 10.7663 12.9407 10.7703 12.9404 10.7778C12.9476 10.7857 12.9511 10.7934 12.9508 10.801C12.9505 10.8086 12.9542 10.8125 12.9617 10.8128C12.9611 10.828 12.9605 10.8431 12.9599 10.8583C12.9593 10.8734 12.9549 10.8884 12.9468 10.9033C12.9468 10.9033 12.9466 10.9071 12.9463 10.9146C12.9381 10.9295 12.93 10.9443 12.9218 10.9592C12.8032 11.0797 12.6587 11.2788 12.6356 11.5738C12.6271 11.5962 12.6226 11.615 12.622 11.6301L12.2629 20.675C12.262 20.6978 12.2649 20.7206 12.2716 20.7437C12.2712 21.0396 12.3994 21.2495 12.5081 21.379C12.5151 21.3945 12.522 21.4099 12.529 21.4254C12.529 21.4254 12.5289 21.4291 12.5286 21.4367C12.5355 21.4522 12.5387 21.4675 12.5381 21.4826ZM12.1927 21.5827L12.4004 21.5113C12.4236 21.5008 12.4245 21.4781 12.4245 21.4781C12.4248 21.4705 12.4213 21.4628 12.414 21.4549C12.2945 21.3136 12.1558 21.0805 12.1461 20.7501C12.147 20.7273 12.1481 20.7008 12.1493 20.6705L12.5084 11.6256C12.5093 11.6029 12.5102 11.5802 12.5111 11.5575C12.5469 11.2288 12.7036 11.0074 12.834 10.876C12.8419 10.8688 12.846 10.8613 12.8463 10.8538C12.8468 10.8424 12.8472 10.831 12.8249 10.8188L12.6236 10.7311L11.5717 10.2796C11.2917 10.1661 10.9708 10.2216 10.7804 10.4303C10.6028 10.6054 10.502 10.8517 10.4911 11.1244L10.0982 21.0216C10.0878 21.2829 10.1688 21.5365 10.3316 21.7364C10.5048 21.9596 10.8203 22.0404 11.1084 21.9494L12.1927 21.5827Z" fill="#212121"/>
<path fill-rule="evenodd" clip-rule="evenodd" d="M13.0549 10.178C13.0479 10.1626 13.0446 10.1511 13.0449 10.1435C13.0452 10.1359 13.0453 10.1321 13.0453 10.1321C13.0456 10.1246 13.0458 10.1208 13.0458 10.1208C13.0533 10.1211 13.0573 10.1174 13.0576 10.1099C13.0655 10.1026 13.0694 10.0989 13.0694 10.0989C13.0694 10.0989 13.0732 10.0991 13.0808 10.0994C13.0811 10.0918 13.085 10.0882 13.0926 10.0885L17.1491 10.2495C17.2173 10.2522 17.2605 10.3109 17.2573 10.3904L17.2478 10.629C17.2451 10.6972 17.1974 10.7522 17.1406 10.75C17.133 10.7497 17.1254 10.7494 17.1179 10.7491C17.0042 10.7445 16.8906 10.74 16.777 10.7355C15.9357 10.7135 15.0721 10.6792 14.3331 10.6613C14.1286 10.6531 13.9392 10.6456 13.7649 10.6387C13.6974 10.6208 13.634 10.5918 13.5749 10.5515L13.0653 10.2012C13.0581 10.1933 13.0546 10.1856 13.0549 10.178ZM13.1799 10.183L13.6231 10.4851C13.6673 10.5172 13.7195 10.5421 13.7795 10.5596C13.9537 10.5665 14.1394 10.5701 14.3367 10.5704C14.3518 10.571 14.367 10.5716 14.3821 10.5722C15.2684 10.6073 16.0756 10.628 16.7801 10.656C16.8938 10.6605 17.0074 10.665 17.121 10.6695L17.1324 10.67C17.1551 10.6709 17.1674 10.6486 17.1683 10.6259L17.1778 10.3872C17.1791 10.3532 17.1568 10.3409 17.1455 10.3404L13.1799 10.183Z" fill="#212121"/>
<path fill-rule="evenodd" clip-rule="evenodd" d="M17.8424 10.2777L19.3991 10.3395C19.5468 10.3454 19.6923 10.4081 19.8127 10.5267L20.1633 10.8706L20.0942 10.8906C19.9583 10.8739 19.4815 10.8435 17.7998 10.7768C17.7434 10.7632 17.7116 10.705 17.7139 10.6482L17.7233 10.4096C17.7265 10.33 17.7856 10.2755 17.8424 10.2777ZM19.7537 10.5812C19.655 10.4863 19.5318 10.4358 19.3955 10.4304L17.8388 10.3686C17.8274 10.3682 17.8042 10.3786 17.8029 10.4127L17.7934 10.6513C17.7925 10.6741 17.8034 10.6859 17.8143 10.6977C17.8901 10.7007 17.962 10.7036 18.0302 10.7063C19.0301 10.746 19.6665 10.7712 19.9614 10.7943L19.7537 10.5812Z" fill="#212121"/>
<path d="M13.1567 20.2315L13.3011 16.5954L13.3331 15.7886L13.4775 12.1525C13.5032 11.5048 14.0466 11.0028 14.6943 11.0286L14.4102 11.0173C13.7626 10.9916 13.2191 11.4935 13.1934 12.1412L13.049 15.7773L13.017 16.5841L12.8726 20.2202C12.8469 20.8679 13.3489 21.4114 13.9965 21.4371L14.2806 21.4484C13.6329 21.4227 13.131 20.8792 13.1567 20.2315Z" fill="#FFD84A"/>
<path fill-rule="evenodd" clip-rule="evenodd" d="M19.2349 21.6445L14.2807 21.4478C13.633 21.4221 13.1311 20.8787 13.1568 20.231L13.4776 12.1519C13.5033 11.5043 14.0467 11.0023 14.6944 11.028L19.6486 11.2247C20.0349 11.2401 20.3295 11.559 20.3142 11.9454L19.9555 20.9789C19.9402 21.3652 19.6212 21.6599 19.2349 21.6445ZM13.7859 12.6991C13.7886 12.6309 13.8368 12.5645 13.9295 12.5227C14.0222 12.4808 14.1485 12.4517 14.2967 12.4462L19.2949 12.3943C19.4771 12.3901 19.623 12.4415 19.7112 12.5132C19.7553 12.5491 19.7767 12.5841 19.7749 12.6296L19.8029 11.9251C19.8051 11.8683 19.7733 11.8101 19.7296 11.7628C19.6419 11.6797 19.496 11.6284 19.3251 11.633L14.3242 11.7531C14.0392 11.7645 13.8175 11.9037 13.8103 12.0855L13.7922 12.54C13.7916 12.5552 13.791 12.5703 13.7904 12.5855C13.7901 12.593 13.7897 12.6044 13.7891 12.6195L13.7859 12.6991ZM13.7115 14.574C13.7142 14.5058 13.7623 14.4394 13.855 14.3976C13.9477 14.3557 14.0741 14.3266 14.2222 14.3211L19.22 14.2805C19.3454 14.2741 19.4581 14.3014 19.5368 14.3272C19.6372 14.3768 19.7032 14.4363 19.7005 14.5045L19.7487 13.2886C19.7118 13.2644 19.6671 13.2437 19.6146 13.2264C19.5255 13.1773 19.4019 13.1383 19.2651 13.1442L14.2642 13.2644C13.9792 13.2758 13.7575 13.4149 13.7503 13.5968L13.7322 14.0513C13.7316 14.0664 13.731 14.0816 13.7304 14.0967C13.7301 14.1043 13.7297 14.1157 13.7291 14.1308L13.7115 14.574ZM13.6244 16.767C13.6731 16.9738 13.8486 17.1401 14.0749 17.1718L19.0542 17.8817C19.2011 17.9103 19.3397 17.8589 19.4346 17.7602C19.4892 17.7244 19.5364 17.6808 19.5764 17.6293L19.6707 15.2544C19.6352 15.1923 19.5916 15.1451 19.5397 15.1126C19.4529 15.0068 19.3188 14.9445 19.1702 14.9614L14.1503 15.2742C13.9221 15.2879 13.734 15.4398 13.669 15.6421C13.6518 15.6945 13.6382 15.7509 13.6282 15.8112L13.5971 16.5952C13.6022 16.6561 13.6113 16.7134 13.6244 16.767ZM13.5432 18.8123C13.536 18.9941 13.746 19.1504 14.0296 19.1731L19.0048 19.7006C19.1407 19.7174 19.267 19.6883 19.3597 19.6465C19.4134 19.6334 19.4596 19.6163 19.4983 19.5951L19.5466 18.3792C19.5439 18.4474 19.4735 18.5015 19.3699 18.5315C19.289 18.5625 19.1744 18.5807 19.0499 18.5644L14.0716 18.1163C13.9239 18.1105 13.8002 18.0714 13.7111 18.0223C13.6225 17.9619 13.5793 17.9033 13.582 17.8351L13.5644 18.2783C13.5638 18.2934 13.5633 18.3048 13.563 18.3124C13.5624 18.3275 13.5618 18.3427 13.5612 18.3578L13.5432 18.8123ZM18.9448 21.2119C19.1148 21.23 19.2647 21.1791 19.3588 21.1032C19.4061 21.0595 19.442 21.0154 19.4447 20.9472L19.4722 20.2541C19.4708 20.2882 19.4463 20.3327 19.3995 20.365C19.3063 20.4182 19.1568 20.4578 18.9755 20.4392L13.9971 19.9912C13.8494 19.9853 13.7258 19.9463 13.6367 19.8972C13.548 19.8368 13.5048 19.7782 13.5075 19.71L13.5044 19.7896C13.5041 19.7971 13.5036 19.8085 13.503 19.8236C13.5024 19.8388 13.502 19.8502 13.5017 19.8577L13.4832 20.3236C13.4764 20.4941 13.686 20.6617 13.9696 20.6843L18.9448 21.2119Z" fill="#F9A307"/>
<path d="M10.6111 9.52326C10.5884 9.52235 10.5695 9.5216 10.5543 9.521C10.5468 9.5207 10.5392 9.5204 10.5316 9.5201C10.5165 9.5195 10.5049 9.52283 10.4971 9.53011C10.4895 9.52981 10.4819 9.52951 10.4743 9.52921C10.4592 9.5286 10.4478 9.52815 10.4402 9.52785C10.4327 9.52755 10.4251 9.52725 10.4175 9.52695C10.4021 9.53392 10.3868 9.53711 10.3716 9.53651C10.3334 9.54258 10.2953 9.54865 10.2571 9.55472C10.2568 9.5623 10.2566 9.56609 10.2566 9.56609C10.2415 9.56548 10.2224 9.56852 10.1994 9.57519C10.1839 9.58217 10.1647 9.58899 10.1417 9.59566C10.1341 9.59536 10.1264 9.59885 10.1185 9.60612C10.1185 9.60612 10.1147 9.60597 10.1071 9.60567C10.0762 9.61962 10.0491 9.63372 10.0258 9.64797C9.99487 9.66191 9.96382 9.67965 9.93262 9.70117C10.1535 9.58475 10.3952 9.51468 10.668 9.52551L10.6111 9.52326Z" fill="#FFC217"/>
<path fill-rule="evenodd" clip-rule="evenodd" d="M20.2922 21.6758C20.2922 21.6758 20.292 21.6796 20.2917 21.6872C20.2624 22.4258 19.6363 23.0041 18.8863 22.9743L12.7732 22.7316C12.7313 22.6389 12.4145 22.5922 12.2791 22.564C12.1554 22.525 12.0149 22.3373 12.0149 22.3373L12.1004 22.4773C12.1645 22.5822 12.275 22.6663 12.4218 22.6949C12.4294 22.6952 12.4408 22.6956 12.4559 22.6962C12.4783 22.7047 12.5045 22.7133 12.5345 22.7221C12.6468 22.7607 12.7346 22.8439 12.776 22.9479L12.786 22.9825L13.1607 23.8623C13.1712 23.8855 13.1471 23.9187 13.1135 23.906C13.0567 23.9037 12.9439 23.8765 12.7521 23.8347C12.5717 23.7934 12.2911 23.4067 12.0551 23.0445C11.9806 22.9164 11.8942 22.7991 11.8414 22.6946C11.7346 22.5196 11.6713 22.3919 11.6713 22.3919C11.6673 22.4942 11.5728 22.5815 11.4705 22.5774L10.5956 22.5427C10.4289 22.5361 10.2709 22.5033 10.1215 22.4442C10.0991 22.4357 10.073 22.4233 10.0433 22.407C10.0433 22.407 10.0435 22.4032 10.0438 22.3956C10.0213 22.3871 9.99906 22.3749 9.97694 22.3588C9.96966 22.3509 9.96603 22.347 9.96603 22.347C9.9439 22.331 9.92178 22.3149 9.89965 22.2988C9.89965 22.2988 9.89602 22.2949 9.88874 22.287C9.86662 22.271 9.84828 22.2551 9.83373 22.2393C9.82616 22.239 9.82252 22.2351 9.82282 22.2275C9.8007 22.2115 9.78236 22.1956 9.76781 22.1798C9.76811 22.1722 9.76826 22.1684 9.76826 22.1684C9.74614 22.1524 9.72795 22.1327 9.71371 22.1094C9.71371 22.1094 9.70992 22.1092 9.70234 22.1089C9.68809 22.0856 9.67385 22.0623 9.6596 22.0389C9.6596 22.0389 9.65596 22.035 9.64869 22.0271C9.63444 22.0038 9.62383 21.9844 9.61685 21.969C9.60958 21.9611 9.60594 21.9571 9.60594 21.9571C9.59169 21.9338 9.57745 21.9105 9.5632 21.8872C9.5635 21.8796 9.56365 21.8758 9.56365 21.8758C9.5494 21.8525 9.53894 21.8293 9.53227 21.8063C9.53257 21.7987 9.53272 21.7949 9.53272 21.7949C9.51847 21.7716 9.50816 21.7446 9.50179 21.714C9.48754 21.6907 9.47723 21.6637 9.47086 21.6331C9.47086 21.6331 9.47101 21.6293 9.47131 21.6217C9.46464 21.5987 9.45796 21.5757 9.45129 21.5527C9.45159 21.5451 9.45189 21.5375 9.45219 21.5299C9.44552 21.5069 9.44264 21.484 9.44354 21.4613C9.44384 21.4537 9.44414 21.4462 9.44444 21.4386C9.43777 21.4156 9.43503 21.3889 9.43623 21.3586C9.43623 21.3586 9.43639 21.3548 9.43669 21.3472C9.43759 21.3245 9.43864 21.298 9.43984 21.2677L9.45383 20.9154C9.45969 20.7677 9.39693 20.6287 9.28736 20.5219L8.96867 20.2361C8.93548 20.212 8.92593 20.1661 8.92773 20.1207L8.94984 19.5639C8.95254 19.4957 8.9998 19.4521 9.05661 19.4543L9.12479 19.457C9.24978 19.462 9.34429 19.3747 9.3488 19.2611L9.6046 12.8183C9.60911 12.7046 9.52227 12.5988 9.39683 12.6052L9.32865 12.6025C9.27184 12.6002 9.22864 12.5416 9.2309 12.4848L9.25345 11.9166C9.25481 11.8825 9.26797 11.8375 9.30296 11.8162L9.64331 11.5565C9.761 11.4588 9.83459 11.3251 9.84045 11.1774L9.85444 10.8252C9.85564 10.7949 9.85685 10.7646 9.85805 10.7343C9.85805 10.7343 9.8582 10.7305 9.8585 10.7229C9.8594 10.7002 9.86424 10.6738 9.87302 10.6438C9.87302 10.6438 9.87317 10.64 9.87347 10.6324C9.87437 10.6097 9.87921 10.5834 9.88799 10.5534C9.88799 10.5534 9.88814 10.5496 9.88844 10.542C9.89692 10.5196 9.9054 10.4971 9.91388 10.4747C9.91418 10.4671 9.91433 10.4634 9.91433 10.4634C9.9231 10.4334 9.93552 10.4073 9.95157 10.3852C9.95157 10.3852 9.95172 10.3814 9.95202 10.3738C9.9605 10.3514 9.97277 10.3291 9.98882 10.307C9.98882 10.307 9.98897 10.3032 9.98927 10.2956C9.99775 10.2732 10.01 10.2509 10.0261 10.2288C10.0264 10.2212 10.0265 10.2174 10.0265 10.2174C10.0426 10.1953 10.0586 10.1732 10.0747 10.1511C10.0747 10.1511 10.0786 10.1474 10.0865 10.1401C10.095 10.1177 10.1071 10.0992 10.1228 10.0847C10.1307 10.0774 10.1346 10.0738 10.1346 10.0738C10.1507 10.0516 10.1668 10.0295 10.1828 10.0074C10.1904 10.0077 10.1942 10.0078 10.1942 10.0078C10.2102 9.98572 10.2301 9.96375 10.2537 9.94193C10.2694 9.92738 10.2891 9.90919 10.3128 9.88737C10.3128 9.88737 10.3165 9.88752 10.3241 9.88782C10.3402 9.86569 10.3599 9.84751 10.3832 9.83326C10.3908 9.83356 10.3946 9.83371 10.3946 9.83371C10.4179 9.81946 10.4412 9.80521 10.4645 9.79096C10.4648 9.78339 10.4688 9.77975 10.4763 9.78005C10.4997 9.7658 10.523 9.75156 10.5463 9.73731C10.5772 9.72336 10.6042 9.71305 10.6272 9.70638C10.7808 9.65936 10.941 9.63917 11.1076 9.64578L11.9825 9.68052C12.0848 9.68458 12.1726 9.76773 12.1685 9.87C12.1685 9.87 12.2412 9.75907 12.3616 9.59314C12.4225 9.49313 12.5183 9.37175 12.6028 9.24991C12.8668 8.90759 13.1771 8.54434 13.3598 8.52883C13.5543 8.50241 13.6689 8.4842 13.7261 8.47509C13.7602 8.47644 13.782 8.50007 13.7693 8.53371L13.326 9.38105L13.3137 9.40333C13.2638 9.51515 13.1697 9.59108 13.0547 9.62066C13.0241 9.62703 12.9973 9.63356 12.9743 9.64023C12.9591 9.63963 12.9478 9.63918 12.9402 9.63887C12.7916 9.65574 12.6752 9.7194 12.6025 9.83033L12.5062 9.96307C12.5062 9.96307 12.6616 9.77577 12.7875 9.758C12.9248 9.74069 13.2443 9.71923 13.2933 9.63013L19.4065 9.87284C20.1564 9.90262 20.7348 10.5288 20.7054 11.2674C20.7054 11.2674 20.7053 11.2711 20.705 11.2787L20.2922 21.6758ZM17.8427 10.2774C17.7858 10.2751 17.7268 10.3297 17.7241 10.3979L17.7146 10.6365C17.7119 10.7046 17.7442 10.7515 17.8001 10.7764C19.4822 10.8318 19.959 10.8622 20.0945 10.8903L20.1635 10.8703L19.8135 10.5149C19.6925 10.4077 19.5471 10.345 19.3994 10.3392L17.8427 10.2774ZM13.0558 10.167C13.0555 10.1746 13.059 10.1823 13.0662 10.1902L13.5754 10.5518C13.6345 10.5921 13.6978 10.6212 13.7654 10.639C13.9475 10.6387 14.137 10.6424 14.334 10.6502C15.0726 10.6795 15.9366 10.7025 16.7774 10.7358C16.8911 10.7403 17.0047 10.7449 17.1183 10.7494C17.1259 10.7497 17.1335 10.75 17.141 10.7503C17.1983 10.7412 17.246 10.6862 17.2487 10.618L17.2582 10.3794C17.2609 10.3112 17.2177 10.2526 17.1495 10.2499L13.093 10.0888C13.0855 10.0885 13.0817 10.0883 13.0817 10.0883C13.0817 10.0883 13.0779 10.0882 13.0703 10.0879C13.07 10.0955 13.0661 10.0991 13.0585 10.0988C13.0585 10.0988 13.0583 10.1026 13.058 10.1102C13.058 10.1102 13.0579 10.114 13.0576 10.1215C13.05 10.1212 13.0462 10.1211 13.0462 10.1211C13.0459 10.1287 13.0458 10.1324 13.0458 10.1324C13.0455 10.14 13.0453 10.1438 13.0453 10.1438C13.045 10.1514 13.0485 10.1591 13.0558 10.167ZM19.6533 22.0032C19.5164 22.0092 19.0388 22.0016 17.3571 21.9348C17.2998 21.9439 17.2635 21.9994 17.2608 22.0676L17.2517 22.2948C17.2486 22.3744 17.3031 22.4335 17.3599 22.4357L18.9166 22.4975C19.0757 22.5038 19.2143 22.4524 19.3438 22.3438L19.7205 22.0287L19.6533 22.0032ZM13.3242 21.752C13.2554 21.7644 13.19 21.7884 13.1279 21.8238L12.5916 22.144C12.5841 22.1437 12.5801 22.1473 12.5798 22.1549C12.572 22.1622 12.568 22.1658 12.568 22.1658C12.5677 22.1734 12.5674 22.1809 12.5671 22.1885C12.5668 22.1961 12.5665 22.2037 12.5662 22.2112C12.5735 22.2191 12.5771 22.2231 12.5771 22.2231C12.5771 22.2231 12.577 22.2268 12.5767 22.2344C12.5842 22.2347 12.588 22.2349 12.588 22.2349C12.5877 22.2424 12.5876 22.2462 12.5876 22.2462C12.5952 22.2465 12.6027 22.2468 12.6103 22.2471L16.6668 22.4082C16.7236 22.4104 16.7827 22.3559 16.7859 22.2763L16.7949 22.0491C16.7976 21.9809 16.7544 21.9223 16.698 21.9087C16.6905 21.9084 16.6829 21.9081 16.6753 21.9078C16.5617 21.9033 16.448 21.8987 16.3344 21.8942C15.4936 21.8608 14.6191 21.8147 13.8919 21.7859C13.6876 21.7702 13.4984 21.7589 13.3242 21.752ZM12.5256 21.5154C12.5337 21.5005 12.538 21.4893 12.5383 21.4818C12.5386 21.4742 12.5387 21.4704 12.5387 21.4704C12.5393 21.4552 12.5361 21.4399 12.5292 21.4245C12.5292 21.4245 12.5293 21.4207 12.5296 21.4131C12.5226 21.3977 12.5119 21.3821 12.4973 21.3663C12.3887 21.2368 12.2718 21.0273 12.2603 20.7423C12.2613 20.7196 12.2622 20.6969 12.2631 20.6742L12.6222 11.6293C12.6231 11.6066 12.624 11.5838 12.6249 11.5611C12.6589 11.2779 12.792 11.0784 12.911 10.9465C12.9265 10.9395 12.9383 10.9286 12.9465 10.9138C12.9468 10.9062 12.9469 10.9024 12.9469 10.9024C12.9554 10.88 12.9599 10.8612 12.9605 10.8461C12.9608 10.8385 12.9575 10.827 12.9505 10.8115C12.9508 10.8039 12.951 10.8002 12.951 10.8002C12.9513 10.7926 12.9479 10.7811 12.941 10.7656C12.941 10.7656 12.9373 10.7617 12.9301 10.7538C12.9228 10.7459 12.9154 10.7418 12.9078 10.7415C12.9081 10.734 12.9082 10.7302 12.9082 10.7302C12.8934 10.722 12.8785 10.7138 12.8637 10.7056L12.6737 10.6184L11.6105 10.1665C11.2973 10.0289 10.9305 10.094 10.6929 10.3463C10.5034 10.5323 10.3789 10.8005 10.3668 11.1073L9.97336 21.0157C9.96163 21.3112 10.064 21.5998 10.2381 21.8001C10.455 22.0705 10.8159 22.1531 11.1386 22.0521L12.2343 21.6859L12.4306 21.6141C12.446 21.6071 12.4615 21.6001 12.4769 21.5931C12.4769 21.5931 12.4771 21.5893 12.4774 21.5818C12.4853 21.5745 12.4931 21.5672 12.501 21.5599C12.5086 21.5602 12.5125 21.5566 12.5128 21.549C12.5207 21.5418 12.5248 21.5343 12.5251 21.5268C12.5251 21.5268 12.5253 21.523 12.5256 21.5154ZM19.235 21.6452C19.6213 21.6605 19.9408 21.3546 19.9556 20.9796L20.3148 11.9347C20.3296 11.5597 20.0355 11.2294 19.6491 11.214L14.4109 11.0061C13.7632 10.9803 13.2198 11.4823 13.1941 12.13L12.8729 20.2204C12.8476 20.8567 13.3491 21.4115 13.9968 21.4372L19.235 21.6452Z" fill="#FFC217"/>
<path d="M11.0885 9.54194L11.0203 9.53923L10.9294 9.53562L10.7803 9.56384C10.2063 9.68901 9.77696 10.1841 9.75305 10.7863L9.73771 11.1727C9.7332 11.2863 9.68369 11.3868 9.58963 11.4627L9.15477 11.8096L9.11822 12.73L9.33412 12.7386C9.42502 12.7422 9.50185 12.8135 9.49824 12.9044L9.38997 15.6315L9.35794 16.4383L9.25012 19.154C9.24651 19.2449 9.16381 19.3213 9.07291 19.3177L8.85702 19.3092L8.82047 20.2295L9.22646 20.6099C9.3142 20.693 9.35559 20.7971 9.35108 20.9107L9.33574 21.297C9.31229 21.8879 9.70059 22.4269 10.2633 22.5858L10.4092 22.6371L10.5001 22.6407L10.5683 22.6434L10.6138 22.6452L11.8409 22.6939C11.7341 22.519 11.6709 22.3913 11.6709 22.3913C11.6668 22.4935 11.5723 22.5808 11.47 22.5768L10.5951 22.542C10.4284 22.5354 10.2704 22.5026 10.121 22.4435C10.0986 22.4351 10.0725 22.4227 10.0428 22.4063C10.0428 22.4063 10.043 22.4025 10.0433 22.3949C10.0209 22.3865 9.99858 22.3742 9.97646 22.3581C9.96918 22.3503 9.96555 22.3463 9.96555 22.3463C9.94342 22.3303 9.9213 22.3142 9.89917 22.2982C9.89917 22.2982 9.89554 22.2942 9.88826 22.2864C9.86614 22.2703 9.8478 22.2544 9.83325 22.2386C9.82568 22.2383 9.82204 22.2344 9.82234 22.2268C9.80022 22.2108 9.78188 22.1949 9.76733 22.1791C9.76763 22.1715 9.76778 22.1678 9.76778 22.1678C9.74566 22.1517 9.72747 22.132 9.71322 22.1087C9.71322 22.1087 9.70944 22.1085 9.70186 22.1082C9.68761 22.0849 9.67337 22.0616 9.65912 22.0383C9.65912 22.0383 9.65548 22.0343 9.64821 22.0264C9.63396 22.0031 9.62335 21.9837 9.61637 21.9683C9.6091 21.9604 9.60546 21.9565 9.60546 21.9565C9.59121 21.9331 9.57697 21.9098 9.56272 21.8865C9.56302 21.8789 9.56317 21.8751 9.56317 21.8751C9.54892 21.8518 9.53846 21.8286 9.53179 21.8056C9.53209 21.798 9.53224 21.7942 9.53224 21.7942C9.51799 21.7709 9.50768 21.7439 9.50131 21.7133C9.48706 21.69 9.47675 21.663 9.47038 21.6324C9.47038 21.6324 9.47053 21.6286 9.47083 21.6211C9.46416 21.598 9.45748 21.575 9.45081 21.552C9.45111 21.5444 9.45141 21.5368 9.45171 21.5293C9.44504 21.5062 9.44215 21.4834 9.44306 21.4606C9.44336 21.4531 9.44366 21.4455 9.44396 21.4379C9.43729 21.4149 9.43455 21.3882 9.43575 21.3579C9.43575 21.3579 9.4359 21.3541 9.4362 21.3466C9.43711 21.3238 9.43816 21.2973 9.43936 21.267L9.45335 20.9148C9.45921 20.767 9.39645 20.628 9.28688 20.5212L8.96819 20.2354C8.935 20.2113 8.92545 20.1654 8.92725 20.12L8.94936 19.5632C8.95206 19.495 8.99932 19.4514 9.05613 19.4536L9.12431 19.4563C9.2493 19.4613 9.34381 19.374 9.34832 19.2604L9.4602 16.4424L9.49223 15.6356L9.60412 12.8176C9.60863 12.704 9.52179 12.5981 9.39634 12.6045L9.32817 12.6018C9.27135 12.5995 9.22816 12.5409 9.23041 12.4841L9.25297 11.9159C9.25432 11.8819 9.26749 11.8369 9.30248 11.8155L9.64283 11.5559C9.76052 11.4581 9.83411 11.3244 9.83997 11.1767L9.85396 10.8245C9.85516 10.7942 9.85636 10.7639 9.85757 10.7336C9.85757 10.7336 9.85772 10.7298 9.85802 10.7222C9.85892 10.6995 9.86376 10.6731 9.87254 10.6431C9.87254 10.6431 9.87269 10.6393 9.87299 10.6318C9.87389 10.609 9.87873 10.5827 9.88751 10.5527C9.88751 10.5527 9.88766 10.5489 9.88796 10.5413C9.89644 10.5189 9.90492 10.4965 9.91339 10.474C9.9137 10.4665 9.91385 10.4627 9.91385 10.4627C9.92262 10.4327 9.93504 10.4066 9.95109 10.3845C9.95109 10.3845 9.95124 10.3807 9.95154 10.3731C9.96002 10.3507 9.97229 10.3284 9.98834 10.3063C9.98834 10.3063 9.98849 10.3025 9.98879 10.2949C9.99727 10.2725 10.0095 10.2502 10.0256 10.2281C10.0259 10.2205 10.026 10.2167 10.026 10.2167C10.0421 10.1946 10.0581 10.1725 10.0742 10.1504C10.0742 10.1504 10.0781 10.1467 10.086 10.1395C10.0945 10.117 10.1066 10.0985 10.1224 10.084C10.1302 10.0767 10.1342 10.0731 10.1342 10.0731C10.1502 10.051 10.1663 10.0288 10.1823 10.0067C10.1899 10.007 10.1937 10.0072 10.1937 10.0072C10.2097 9.98504 10.2296 9.96307 10.2532 9.94125C10.269 9.9267 10.2886 9.90851 10.3123 9.88669C10.3123 9.88669 10.3161 9.88684 10.3236 9.88714C10.3397 9.86501 10.3594 9.84683 10.3827 9.83258C10.3903 9.83288 10.3941 9.83303 10.3941 9.83303C10.4174 9.81878 10.4407 9.80453 10.4641 9.79028C10.4644 9.78271 10.4683 9.77907 10.4759 9.77937C10.4992 9.76512 10.5225 9.75088 10.5458 9.73663C10.5767 9.72268 10.6037 9.71237 10.6267 9.7057C10.7803 9.65868 10.9405 9.63849 11.1071 9.6451L11.9821 9.67984C12.0843 9.6839 12.1721 9.76705 12.168 9.86932C12.168 9.86932 12.2407 9.75839 12.3611 9.59246L11.1339 9.54374L11.0885 9.54194Z" fill="#B75606"/>
<path fill-rule="evenodd" clip-rule="evenodd" d="M9.15527 11.8096L9.16339 11.605C9.1646 11.5747 9.16595 11.5406 9.16745 11.5028C9.16926 11.4573 9.175 11.4082 9.18468 11.3555C9.18468 11.3555 9.18483 11.3517 9.18513 11.3441C9.18694 11.2987 9.19238 11.2572 9.20146 11.2196C9.20206 11.2044 9.20266 11.1893 9.20326 11.1741C9.20477 11.1363 9.20991 11.1023 9.21869 11.0723C9.21959 11.0496 9.22413 11.0308 9.2323 11.016C9.23351 10.9857 9.23865 10.9517 9.24773 10.9142C9.2562 10.8917 9.26089 10.8692 9.2618 10.8464C9.27027 10.824 9.27511 10.7976 9.27632 10.7673C9.2851 10.7373 9.29781 10.7037 9.31447 10.6664C9.31507 10.6513 9.31567 10.6361 9.31627 10.621C9.35078 10.5161 9.38514 10.4151 9.41935 10.3178C9.42783 10.2954 9.43631 10.2729 9.44479 10.2505C9.44479 10.2505 9.44872 10.2469 9.4566 10.2396C9.4572 10.2244 9.46159 10.2094 9.46977 10.1946C9.46977 10.1946 9.4737 10.191 9.48158 10.1837C9.48976 10.1688 9.49808 10.1502 9.50656 10.1278C9.50656 10.1278 9.50671 10.124 9.50701 10.1164C9.52246 10.1094 9.53428 10.0985 9.54245 10.0837C9.54276 10.0761 9.54306 10.0685 9.54336 10.0609C9.55911 10.0464 9.57107 10.0317 9.57925 10.0168C9.595 10.0023 9.60697 9.9876 9.61514 9.97275C9.62302 9.96548 9.62696 9.96184 9.62696 9.96184C9.63513 9.94699 9.6471 9.93229 9.66285 9.91774C9.6786 9.90319 9.69435 9.88864 9.71011 9.87409C9.71011 9.87409 9.71026 9.87031 9.71056 9.86273C9.72601 9.85576 9.74161 9.845 9.75736 9.83045C9.75736 9.83045 9.75751 9.82666 9.75781 9.81908C9.78932 9.78999 9.82446 9.76482 9.86323 9.7436C9.87899 9.72905 9.89459 9.71829 9.91004 9.71132C9.91792 9.70404 9.92564 9.70056 9.93322 9.70086C10.1541 9.58444 10.3958 9.51437 10.6686 9.5252L10.9299 9.53557L10.7808 9.5638C10.2068 9.68896 9.77746 10.1841 9.75355 10.7863L9.73821 11.1726C9.7337 11.2863 9.68419 11.3867 9.59013 11.4626L9.15527 11.8096ZM9.26521 11.6205L9.57147 11.3595C9.6419 11.3054 9.69051 11.2276 9.69412 11.1367L9.709 10.7618C9.72931 10.2504 10.0196 9.8181 10.46 9.61934C10.2886 9.6353 10.1273 9.6858 9.9646 9.77039C9.9646 9.77039 9.96081 9.77024 9.95323 9.76994L9.95278 9.7813C9.93733 9.78827 9.92188 9.79525 9.90643 9.80222L9.90598 9.81359C9.87478 9.83511 9.84357 9.85663 9.81237 9.87815L9.81192 9.88952C9.79647 9.89649 9.78465 9.9074 9.77648 9.92225L9.76511 9.9218C9.75694 9.93665 9.74497 9.95135 9.72922 9.9659C9.71347 9.98045 9.70151 9.99515 9.69333 10.01C9.67728 10.0321 9.66531 10.0468 9.65744 10.0541C9.64926 10.0689 9.6373 10.0836 9.62154 10.0982C9.62124 10.1058 9.62109 10.1096 9.62109 10.1096C9.61292 10.1244 9.60474 10.1393 9.59656 10.1541L9.5852 10.1537L9.58475 10.165C9.57657 10.1799 9.56839 10.1947 9.56022 10.2096L9.55977 10.2209C9.55159 10.2358 9.54341 10.2506 9.53524 10.2655C9.53524 10.2655 9.53509 10.2693 9.53479 10.2768C9.52631 10.2993 9.51798 10.3179 9.5098 10.3328C9.38174 10.6919 9.29823 11.0755 9.27152 11.4614L9.27107 11.4727C9.26987 11.503 9.26867 11.5333 9.26746 11.5636L9.26521 11.6205Z" fill="#A3A3A3"/>
<path d="M9.6822 11.1369L9.69708 10.7619C9.71693 10.262 10.019 9.81873 10.4594 9.61998C10.2881 9.63593 10.1154 9.68598 9.96404 9.77102C9.95616 9.7783 9.95222 9.78193 9.95222 9.78193C9.93677 9.78891 9.92117 9.79967 9.90542 9.81422C9.87422 9.83574 9.84301 9.85726 9.81181 9.87879L9.81136 9.89015C9.79561 9.9047 9.78001 9.91546 9.76456 9.92243L9.7641 9.9338C9.75623 9.94107 9.74441 9.95198 9.72866 9.96653L9.71685 9.97744C9.70897 9.98472 9.70095 9.99578 9.69277 10.0106L9.68096 10.0215C9.67278 10.0364 9.66081 10.0511 9.64506 10.0656C9.63689 10.0805 9.62871 10.0953 9.62053 10.1102C9.62053 10.1102 9.61659 10.1138 9.60872 10.1211C9.60054 10.136 9.59252 10.147 9.58464 10.1543L9.58419 10.1657C9.57601 10.1805 9.56784 10.1954 9.55966 10.2102L9.55921 10.2216L9.54784 10.2211C9.54724 10.2363 9.54285 10.2513 9.53468 10.2661C9.53438 10.2737 9.53044 10.2773 9.52286 10.277C9.51439 10.2995 9.50985 10.3182 9.50925 10.3334C9.36982 10.692 9.29767 11.0761 9.27096 11.462L9.27006 11.4847C9.26916 11.5075 9.26811 11.534 9.2669 11.5643L9.26465 11.6211L9.57046 11.3715C9.64134 11.306 9.67859 11.2278 9.6822 11.1369Z" fill="#BCBCBC"/>
<path d="M10.6143 22.6464L10.5688 22.6446L10.5007 22.6419L10.4098 22.6383L10.1484 22.6279L10.0916 22.6256C10.0689 22.6247 10.0499 22.624 10.0348 22.6234C10.0272 22.6231 10.0196 22.6228 10.0121 22.6225C9.9972 22.6143 9.98599 22.6101 9.97842 22.6098C9.97084 22.6095 9.96327 22.6091 9.95569 22.6088C9.94054 22.6082 9.92918 22.6078 9.9216 22.6075C9.91403 22.6072 9.90645 22.6069 9.89888 22.6066C9.88403 22.5984 9.86903 22.594 9.85388 22.5934C9.8163 22.5843 9.77888 22.5715 9.7416 22.5548C9.72645 22.5542 9.70766 22.5497 9.68524 22.5412C9.67039 22.533 9.65175 22.5247 9.62933 22.5162C9.62205 22.5083 9.61463 22.5043 9.60705 22.504C9.60705 22.504 9.60342 22.5 9.59614 22.4921C9.56614 22.4834 9.54008 22.471 9.51796 22.4549C9.48826 22.4385 9.45871 22.4184 9.42931 22.3945C9.42173 22.3942 9.41431 22.3901 9.40704 22.3822C9.39249 22.3665 9.37779 22.3545 9.36294 22.3463C9.32626 22.3145 9.29323 22.2866 9.26383 22.2627C9.26413 22.2551 9.26428 22.2514 9.26428 22.2514C9.24973 22.2356 9.23518 22.2198 9.22064 22.2041C9.20609 22.1883 9.19154 22.1726 9.17699 22.1568C9.17699 22.1568 9.17714 22.1531 9.17744 22.1455C9.16259 22.1373 9.15168 22.1255 9.14471 22.11C9.14501 22.1025 9.14137 22.0985 9.13379 22.0982C9.12682 22.0828 9.11606 22.0672 9.10151 22.0514C9.09484 22.0284 9.08423 22.009 9.06968 21.9932C9.06968 21.9932 9.06983 21.9895 9.07013 21.9819C9.06315 21.9664 9.05239 21.9508 9.03784 21.9351C9.03784 21.9351 9.03799 21.9313 9.0383 21.9237C9.03132 21.9083 9.02435 21.8928 9.01737 21.8774C9.0101 21.8695 9.00646 21.8655 9.00646 21.8655C8.99949 21.8501 8.9963 21.8348 8.9969 21.8196C8.98963 21.8118 8.98614 21.804 8.98644 21.7965C8.97947 21.781 8.97265 21.7618 8.96597 21.7388C8.93958 21.6391 8.91334 21.5356 8.88725 21.4283C8.88785 21.4132 8.88846 21.398 8.88906 21.3829C8.87541 21.3444 8.8654 21.3099 8.85903 21.2793C8.86023 21.249 8.8575 21.2223 8.85082 21.1993C8.85173 21.1766 8.84899 21.1499 8.84262 21.1193C8.83625 21.0887 8.83366 21.0582 8.83487 21.0279C8.82789 21.0125 8.82486 20.9934 8.82576 20.9707C8.81969 20.9325 8.8174 20.8945 8.81891 20.8566C8.81921 20.849 8.81966 20.8377 8.82026 20.8225C8.81419 20.7843 8.81206 20.7425 8.81386 20.6971C8.81416 20.6895 8.81446 20.6819 8.81476 20.6743C8.80899 20.6286 8.80701 20.583 8.80881 20.5375C8.81032 20.4996 8.81182 20.4618 8.81333 20.4239L8.81648 20.3444L8.81919 20.2762L8.82099 20.2307L8.85754 19.3103L8.97213 16.4241L9.00416 15.6174L9.11875 12.7312L9.15529 11.8108L9.15709 11.7653L9.16025 11.6858L9.16296 11.6176L9.16341 11.6063C9.16461 11.576 9.16596 11.5419 9.16747 11.504C9.16927 11.4585 9.17502 11.4095 9.1847 11.3567C9.1847 11.3567 9.18485 11.3529 9.18515 11.3454C9.18695 11.2999 9.19239 11.2584 9.20147 11.2208C9.20207 11.2057 9.20268 11.1905 9.20328 11.1754C9.20478 11.1375 9.20992 11.1036 9.2187 11.0736C9.2196 11.0508 9.22414 11.032 9.23232 11.0172C9.23352 10.9869 9.23866 10.953 9.24774 10.9154C9.25622 10.893 9.26091 10.8704 9.26181 10.8477C9.27029 10.8252 9.27513 10.7989 9.27633 10.7686C9.28511 10.7386 9.29783 10.7049 9.31448 10.6676C9.31508 10.6525 9.31568 10.6373 9.31628 10.6222C9.3508 10.5173 9.38516 10.4163 9.41937 10.319C9.42785 10.2966 9.43632 10.2742 9.4448 10.2517C9.4448 10.2517 9.44874 10.2481 9.45661 10.2408C9.45722 10.2257 9.4616 10.2107 9.46978 10.1958C9.46978 10.1958 9.47372 10.1922 9.4816 10.1849C9.48977 10.1701 9.4981 10.1514 9.50658 10.129C9.50658 10.129 9.50673 10.1252 9.50703 10.1176C9.52248 10.1107 9.53429 10.0997 9.54247 10.0849C9.54277 10.0773 9.54307 10.0697 9.54337 10.0622C9.55912 10.0476 9.57109 10.0329 9.57926 10.0181C9.59502 10.0035 9.60698 9.98882 9.61516 9.97397C9.62303 9.9667 9.62697 9.96306 9.62697 9.96306C9.63515 9.94821 9.64711 9.93351 9.66286 9.91896C9.67862 9.90441 9.69437 9.88987 9.71012 9.87532C9.71012 9.87532 9.71027 9.87153 9.71057 9.86395C9.72602 9.85698 9.74162 9.84622 9.75738 9.83167C9.75738 9.83167 9.75753 9.82788 9.75783 9.82031C9.78933 9.79121 9.82447 9.76605 9.86325 9.74483C9.879 9.73028 9.8946 9.71952 9.91005 9.71254C9.91793 9.70527 9.92566 9.70178 9.93323 9.70208C9.96443 9.68056 9.99549 9.66282 10.0264 9.64888C10.0497 9.63463 10.0768 9.62053 10.1077 9.60658C10.1153 9.60688 10.1191 9.60703 10.1191 9.60703C10.127 9.59976 10.1347 9.59627 10.1423 9.59657C10.1653 9.5899 10.1845 9.58308 10.2 9.5761C10.223 9.56943 10.2421 9.56639 10.2573 9.567C10.2573 9.567 10.2574 9.56321 10.2577 9.55563C10.2959 9.54956 10.3341 9.54349 10.3722 9.53742C10.3874 9.53802 10.4027 9.53483 10.4181 9.52786C10.4257 9.52816 10.4333 9.52846 10.4409 9.52876C10.4484 9.52906 10.4598 9.52951 10.4749 9.53011C10.4825 9.53042 10.4901 9.53072 10.4977 9.53102C10.5056 9.52374 10.5171 9.52041 10.5322 9.52101C10.5398 9.52131 10.5474 9.52161 10.5549 9.52191C10.5701 9.52251 10.589 9.52326 10.6118 9.52416L10.6686 9.52642L10.9299 9.5368L11.0208 9.54041L11.089 9.54311L11.1344 9.54492L12.3616 9.59364C12.4225 9.49363 12.5184 9.37224 12.6029 9.25041L10.6835 9.15144C10.2403 9.13385 9.72041 9.32944 9.40098 9.63543C9.39281 9.65028 9.38478 9.66134 9.37691 9.66861C9.10474 9.93095 8.93176 10.5614 8.88278 10.935C8.71268 12.0664 8.62126 14.9421 8.59067 15.9993C8.5369 17.067 8.40049 19.9295 8.47991 21.0821C8.49911 21.4585 8.62202 22.0893 8.87208 22.3837C8.87936 22.3916 8.88663 22.3995 8.89391 22.4074C9.18762 22.7491 9.69082 22.9739 10.134 22.9915L12.0552 23.045C11.9806 22.9169 11.8942 22.7996 11.8415 22.6951L10.6143 22.6464Z" fill="#F9A307"/>
<path fill-rule="evenodd" clip-rule="evenodd" d="M13.1275 21.8344C13.1899 21.7913 13.2553 21.7674 13.3238 21.7625C13.498 21.7694 13.6874 21.7769 13.8919 21.785C14.6301 21.8257 15.4936 21.86 16.3345 21.8934C16.4481 21.8979 16.5616 21.9062 16.6749 21.9183C16.6825 21.9186 16.6901 21.9189 16.6976 21.9192C16.7544 21.9215 16.7976 21.9801 16.7949 22.0483L16.7855 22.2869C16.7827 22.3551 16.7346 22.4214 16.6664 22.4187L12.6099 22.2577C12.6023 22.2574 12.5987 22.2534 12.599 22.2458C12.5914 22.2455 12.5876 22.2454 12.5876 22.2454C12.5876 22.2454 12.584 22.2415 12.5767 22.2336C12.577 22.226 12.5734 22.2221 12.5658 22.2218C12.5661 22.2142 12.5663 22.2104 12.5663 22.2104C12.5666 22.2028 12.5667 22.199 12.5667 22.199C12.5667 22.199 12.5669 22.1953 12.5672 22.1877C12.5675 22.1801 12.5715 22.1727 12.5794 22.1654C12.5797 22.1578 12.5838 22.1504 12.5917 22.1431L13.1275 21.8344ZM13.332 21.8425C13.2784 21.8555 13.2244 21.8761 13.1702 21.9043L12.7153 22.1822L16.6696 22.3392C16.6809 22.3396 16.7046 22.3178 16.7059 22.2837L16.7149 22.0565C16.7163 22.0224 16.7054 22.0106 16.6945 21.9987L16.6831 21.9983L16.6717 21.9978C16.5581 21.9933 16.4445 21.9888 16.3309 21.9843C15.8195 21.964 15.24 21.941 14.6269 21.9053C14.3921 21.8959 14.1459 21.8862 13.8883 21.8759C13.6914 21.8681 13.5059 21.857 13.332 21.8425Z" fill="#212121"/>
<path d="M9.51767 22.4535C9.53979 22.4696 9.56585 22.482 9.59585 22.4908C9.60313 22.4987 9.60676 22.5026 9.60676 22.5026C9.61434 22.5029 9.62176 22.507 9.62904 22.5149C9.65146 22.5234 9.6701 22.5317 9.68495 22.5399C9.70737 22.5483 9.72616 22.5529 9.74131 22.5535C9.77859 22.5701 9.81601 22.583 9.85359 22.5921C9.86874 22.5927 9.88374 22.5971 9.89859 22.6052C9.90616 22.6055 9.91374 22.6058 9.92131 22.6061C9.92889 22.6064 9.94025 22.6069 9.9554 22.6075C9.96297 22.6078 9.97055 22.6081 9.97813 22.6084C9.9857 22.6087 9.99691 22.6129 10.0118 22.6211C10.0193 22.6214 10.0269 22.6217 10.0345 22.622C10.0496 22.6226 10.0686 22.6234 10.0913 22.6243L10.1481 22.6265C9.87541 22.6157 9.63995 22.5267 9.42902 22.3931C9.45842 22.4171 9.48797 22.4372 9.51767 22.4535Z" fill="#FFC217"/>
<path fill-rule="evenodd" clip-rule="evenodd" d="M9.07331 19.3181L8.85742 19.3096L9.11863 12.7304L9.33452 12.739C9.42543 12.7426 9.50226 12.8139 9.49865 12.9049L9.25052 19.1545C9.24691 19.2454 9.16422 19.3218 9.07331 19.3181ZM9.0083 19.2359L9.26319 12.8158L9.17229 12.8122L8.91739 19.2323L9.0083 19.2359ZM9.08784 19.2391C9.13329 19.2409 9.18054 19.1972 9.18235 19.1518L9.43002 12.9135C9.43228 12.8567 9.38818 12.8208 9.34273 12.819L9.08784 19.2391Z" fill="#80918C"/>
<path d="M9.15136 15.6226L9.26279 12.816L9.17188 12.8124L9.06045 15.619L9.02842 16.4258L8.91699 19.2324L9.00789 19.236L9.11933 16.4294L9.15136 15.6226Z" fill="#6A7A75"/>
<path d="M9.17104 19.1515L9.27886 16.4358L9.31089 15.629L9.41871 12.9133C9.42097 12.8564 9.38823 12.821 9.34278 12.8192L9.23135 15.6258L9.19932 16.4326L9.08789 19.2393C9.13334 19.2411 9.16923 19.197 9.17104 19.1515Z" fill="#6A7A75"/>
<path d="M12.7728 22.7319C12.731 22.6392 12.4142 22.5924 12.2787 22.5643C12.1551 22.5252 12.0146 22.3376 12.0146 22.3376L12.1001 22.4775C12.1642 22.5825 12.2747 22.6666 12.4215 22.6952C12.4291 22.6955 12.4404 22.6959 12.4556 22.6965C12.478 22.705 12.5042 22.7136 12.5342 22.7224C12.6465 22.761 12.7342 22.8441 12.7756 22.9482L12.7856 22.9828C12.8162 22.9764 12.8468 22.97 12.8774 22.9636C12.9156 22.9576 12.95 22.9513 12.9806 22.945C13.256 22.8876 13.5205 22.8185 13.7387 22.7702L12.7728 22.7319Z" fill="#F9A307"/>
<path fill-rule="evenodd" clip-rule="evenodd" d="M10.2633 22.5858L10.4092 22.6371L10.1479 22.6267C9.87518 22.6159 9.63972 22.5269 9.42879 22.3933C9.42121 22.393 9.41379 22.3889 9.40651 22.381C9.39197 22.3653 9.37727 22.3533 9.36242 22.3451C9.32574 22.3133 9.29271 22.2855 9.26331 22.2615C9.26361 22.254 9.26376 22.2502 9.26376 22.2502C9.24921 22.2344 9.23466 22.2187 9.22011 22.2029C9.20557 22.1872 9.19102 22.1714 9.17647 22.1557C9.17647 22.1557 9.17662 22.1519 9.17692 22.1443C9.16207 22.1361 9.15116 22.1243 9.14418 22.1089C9.14448 22.1013 9.14085 22.0973 9.13327 22.097C9.1263 22.0816 9.11554 22.066 9.10099 22.0502C9.09432 22.0272 9.0837 22.0078 9.06916 21.9921C9.06916 21.9921 9.06931 21.9883 9.06961 21.9807C9.06263 21.9653 9.05187 21.9497 9.03732 21.9339C9.03732 21.9339 9.03747 21.9301 9.03777 21.9225C9.0308 21.9071 9.02383 21.8916 9.01685 21.8762C9.00958 21.8683 9.00594 21.8644 9.00594 21.8644C8.99897 21.8489 8.99578 21.8336 8.99638 21.8185C8.98911 21.8106 8.98562 21.8029 8.98592 21.7953C8.97895 21.7798 8.97213 21.7606 8.96545 21.7376C8.93906 21.6379 8.91282 21.5344 8.88673 21.4272C8.88733 21.412 8.88793 21.3969 8.88854 21.3817C8.87489 21.3432 8.86488 21.3087 8.85851 21.2781C8.85971 21.2478 8.85698 21.2211 8.8503 21.1981C8.85121 21.1754 8.84847 21.1487 8.8421 21.1181C8.83573 21.0875 8.83314 21.0571 8.83434 21.0268C8.82737 21.0113 8.82434 20.9922 8.82524 20.9695C8.81917 20.9313 8.81688 20.8933 8.81839 20.8554C8.81869 20.8478 8.81914 20.8365 8.81974 20.8213C8.81367 20.7831 8.81153 20.7413 8.81334 20.6959C8.81364 20.6883 8.81394 20.6807 8.81424 20.6732C8.80847 20.6274 8.80649 20.5818 8.80829 20.5363C8.8098 20.4985 8.8113 20.4606 8.8128 20.4227L8.82047 20.2295L9.22646 20.6099C9.3142 20.693 9.35559 20.7971 9.35108 20.9107L9.33574 21.297C9.31229 21.8879 9.70059 22.4269 10.2633 22.5858ZM9.94742 22.5163C9.5242 22.2833 9.25818 21.8175 9.27803 21.3175L9.29292 20.9425C9.29652 20.8516 9.26605 20.7594 9.20012 20.6999L8.91507 20.4268L8.91281 20.4836C8.91191 20.5063 8.91086 20.5328 8.90966 20.5631L8.90875 20.5859C8.90478 20.9727 8.94625 21.3612 9.05681 21.7298C9.0562 21.745 9.05939 21.7603 9.06636 21.7757C9.07364 21.7836 9.07713 21.7913 9.07683 21.7989C9.0838 21.8144 9.08714 21.8259 9.08683 21.8334L9.09775 21.8453C9.10442 21.8683 9.11124 21.8875 9.11822 21.903C9.12519 21.9184 9.13216 21.9339 9.13914 21.9493C9.14671 21.9496 9.15035 21.9536 9.15005 21.9611C9.15702 21.9766 9.164 21.992 9.17097 22.0075C9.18552 22.0232 9.19628 22.0388 9.20325 22.0543L9.21462 22.0548L9.21416 22.0661C9.22144 22.074 9.22856 22.0857 9.23554 22.1011L9.2469 22.1016L9.24645 22.1129C9.261 22.1287 9.27191 22.1405 9.27918 22.1484C9.29373 22.1641 9.30828 22.1799 9.32283 22.1956C9.35193 22.2271 9.38118 22.2548 9.41057 22.2788C9.42542 22.2869 9.44012 22.2989 9.45467 22.3147C9.45467 22.3147 9.45846 22.3148 9.46603 22.3151C9.46573 22.3227 9.46558 22.3265 9.46558 22.3265C9.60969 22.4232 9.77788 22.4868 9.94742 22.5163Z" fill="#A3A3A3"/>
<path d="M9.27815 21.3181L9.29304 20.9431C9.29664 20.8522 9.26617 20.7599 9.20024 20.7004L8.91519 20.4273L8.91293 20.4841C8.91203 20.5069 8.91098 20.5334 8.90978 20.5637L8.90887 20.5864C8.9049 20.9732 8.94637 21.3618 9.05693 21.7304C9.05633 21.7455 9.05951 21.7608 9.06648 21.7763C9.07376 21.7842 9.07725 21.7919 9.07695 21.7995C9.08392 21.8149 9.08726 21.8264 9.08695 21.834L9.09787 21.8458C9.10454 21.8688 9.11136 21.8881 9.11834 21.9035C9.12531 21.919 9.13228 21.9344 9.13926 21.9499C9.14683 21.9502 9.15047 21.9541 9.15017 21.9617C9.15714 21.9771 9.16412 21.9926 9.17109 22.008C9.18564 22.0238 9.1964 22.0394 9.20337 22.0548L9.21474 22.0553L9.21429 22.0667C9.22156 22.0745 9.22868 22.0862 9.23566 22.1017L9.24702 22.1021L9.24657 22.1135C9.26112 22.1292 9.27203 22.141 9.2793 22.1489C9.29385 22.1647 9.3084 22.1804 9.32295 22.1962C9.35205 22.2277 9.3813 22.2554 9.41069 22.2793C9.42554 22.2875 9.44024 22.2995 9.45479 22.3152C9.45479 22.3152 9.45858 22.3154 9.46615 22.3157C9.46585 22.3232 9.4657 22.327 9.4657 22.327C9.60981 22.4238 9.778 22.4874 9.94754 22.5169C9.52432 22.2838 9.2583 21.818 9.27815 21.3181Z" fill="#BCBCBC"/>
<path d="M13.9297 12.5228L13.9351 12.3865L13.9356 12.3751L13.9441 12.1592C13.9509 11.9888 14.1727 11.8496 14.4576 11.8382L19.4699 11.7185C19.5608 11.7221 19.6512 11.7371 19.7299 11.763C19.6421 11.6798 19.4962 11.6285 19.3253 11.6331L14.3244 11.7532C14.0395 11.7647 13.8177 11.9038 13.8105 12.0856L13.8015 12.3129L13.7924 12.5401C13.7918 12.5553 13.7912 12.5704 13.7906 12.5856C13.7903 12.5932 13.7899 12.6045 13.7893 12.6197L13.7861 12.6992C13.7888 12.631 13.837 12.5647 13.9297 12.5228Z" fill="#94410C"/>
<path d="M13.8545 14.3978L13.855 14.3865L13.8559 14.3637L13.8563 14.3524L13.859 14.2842L13.8599 14.2615L13.8617 14.216L13.8622 14.2047L13.8635 14.1706C13.8641 14.1554 13.8646 14.1441 13.8649 14.1365C13.8655 14.1213 13.8661 14.1062 13.8667 14.091L13.8689 14.0342L13.873 13.9319L13.8753 13.8751L13.8757 13.8638L13.878 13.807L13.8798 13.7615L13.8802 13.7501L13.8834 13.6706L13.8843 13.6479C13.8915 13.4661 14.1133 13.3269 14.3978 13.3268L19.41 13.2072C19.4785 13.2023 19.5465 13.2088 19.6141 13.2267C19.525 13.1776 19.4014 13.1385 19.2646 13.1445L14.2637 13.2646C13.9787 13.2761 13.757 13.4152 13.7497 13.597L13.7488 13.6197L13.7457 13.6993L13.7452 13.7106L13.743 13.7674L13.7407 13.8243L13.7403 13.8356L13.7385 13.8811L13.7344 13.9833L13.7339 13.9947L13.7317 14.0515C13.7311 14.0667 13.7305 14.0818 13.7299 14.097C13.7296 14.1046 13.7291 14.1159 13.7285 14.1311L13.7272 14.1652L13.7267 14.1765L13.7249 14.222L13.724 14.2447L13.7213 14.3129L13.7209 14.3242L13.72 14.347L13.7195 14.3583L13.7173 14.4151L13.7168 14.4265L13.7118 14.5515L13.7109 14.5742C13.7136 14.506 13.7618 14.4397 13.8545 14.3978Z" fill="#94410C"/>
<path d="M19.0952 21.1386L14.1082 20.6219C13.8251 20.5879 13.615 20.4316 13.6218 20.2612L13.6308 20.0339L13.6313 20.0226L13.6362 19.8976C13.5471 19.8485 13.5044 19.7785 13.5071 19.7104L13.5039 19.7899C13.5033 19.805 13.5029 19.8164 13.5026 19.824C13.502 19.8391 13.5014 19.8543 13.5008 19.8694L13.4922 20.0853L13.4918 20.0967L13.4827 20.324C13.4755 20.5058 13.6856 20.662 13.9692 20.6847L18.9443 21.2123C19.1143 21.2304 19.2639 21.1908 19.3579 21.1149C19.2775 21.1344 19.1861 21.1422 19.0952 21.1386Z" fill="#94410C"/>
<path d="M14.0297 19.1735L19.0049 19.701C19.1408 19.7178 19.2672 19.6887 19.3599 19.6469C19.2914 19.6517 19.2231 19.6528 19.1549 19.6501L14.1679 19.1334C13.8847 19.0994 13.6747 18.9431 13.6815 18.7727L13.6828 18.7386L13.6855 18.6704L13.686 18.6591L13.6878 18.6136L13.69 18.5568L13.6905 18.5454L13.6927 18.4886L13.6968 18.3864L13.6973 18.375L13.6995 18.3182C13.6998 18.3106 13.7003 18.2992 13.7009 18.2841C13.7015 18.2689 13.7019 18.2576 13.7022 18.25L13.7036 18.2159L13.704 18.2046L13.7058 18.1591L13.7067 18.1364L13.7094 18.0682L13.7099 18.0568L13.7108 18.0341L13.7112 18.0227C13.6226 17.9623 13.5794 17.9037 13.5821 17.8355L13.5812 17.8583L13.5762 17.9832L13.5758 17.9946L13.574 18.0401L13.5735 18.0514L13.5731 18.0628L13.5722 18.0855L13.569 18.165L13.5681 18.1878L13.5663 18.2332L13.5659 18.2446L13.5645 18.2787C13.5639 18.2938 13.5635 18.3052 13.5632 18.3128C13.5626 18.3279 13.562 18.3431 13.5614 18.3582L13.5591 18.415L13.555 18.5173L13.5528 18.5741L13.5523 18.5855L13.5501 18.6423L13.5478 18.6991L13.5447 18.7786L13.5433 18.8127C13.5361 18.9945 13.7461 19.1508 14.0297 19.1735Z" fill="#94410C"/>
<path d="M14.0751 17.1725L19.0545 17.8823C19.2013 17.9109 19.3399 17.8595 19.4348 17.7609C19.3535 17.8031 19.2503 17.8218 19.1599 17.8068L14.2251 17.1215C13.9983 17.1012 13.8228 16.9349 13.7623 16.739C13.7493 16.6853 13.7438 16.632 13.7459 16.579L13.7603 16.2154L13.7612 16.1927L13.7757 15.829C13.7778 15.776 13.7873 15.7271 13.8043 15.6822C13.8806 15.4804 14.0682 15.3399 14.2964 15.3262L19.27 15.0343C19.3609 15.0379 19.4622 15.0647 19.54 15.1133C19.4531 15.0074 19.319 14.9452 19.1704 14.962L14.1505 15.2749C13.9223 15.2886 13.7342 15.4404 13.6693 15.6427C13.652 15.6951 13.6386 15.7477 13.6289 15.8005L13.6135 16.1868L13.6126 16.2095L13.5973 16.5959C13.6025 16.6568 13.6116 16.714 13.6246 16.7677C13.6733 16.9744 13.8488 17.1407 14.0751 17.1725Z" fill="#94410C"/>
<path d="M19.4699 11.7191L14.4576 11.8388C14.1726 11.8502 13.9509 11.9894 13.9441 12.1598L13.9356 12.3757L13.9351 12.3871L13.9297 12.5234C14.0224 12.4816 14.1487 12.4525 14.2969 12.447L19.2951 12.395C19.4773 12.3909 19.6233 12.4422 19.7114 12.514C19.7555 12.5499 19.7769 12.5849 19.7751 12.6303L19.7783 12.5508L19.7787 12.5394L19.7819 12.4599L19.8031 11.9258C19.8053 11.869 19.7735 11.8108 19.7299 11.7636C19.6512 11.7377 19.5608 11.7227 19.4699 11.7191Z" fill="#FFD84A"/>
<path d="M14.3978 13.3274C14.1132 13.3275 13.8915 13.4667 13.8843 13.6485L13.8834 13.6712L13.8802 13.7508L13.8798 13.7621L13.878 13.8076L13.8757 13.8644L13.8752 13.8757L13.873 13.9326L13.8689 14.0348L13.8667 14.0916C13.8661 14.1068 13.8655 14.1219 13.8649 14.1371C13.8646 14.1447 13.8641 14.156 13.8635 14.1712L13.8622 14.2053L13.8617 14.2166L13.8599 14.2621L13.859 14.2848L13.8563 14.353L13.8558 14.3643L13.8549 14.3871L13.8545 14.3984C13.9472 14.3566 14.0735 14.3275 14.2217 14.322L19.2199 14.27C19.3449 14.275 19.4581 14.2909 19.5362 14.3281C19.6367 14.3776 19.7026 14.4371 19.6999 14.5053L19.7008 14.4826L19.7031 14.4258L19.7035 14.4144L19.704 14.4031L19.7049 14.3803L19.7098 14.2553L19.7107 14.2326L19.7112 14.2213L19.713 14.1758L19.7171 14.0735L19.7175 14.0622L19.7198 14.0054L19.7211 13.9713L19.722 13.9485L19.7225 13.9372L19.7229 13.9258L19.7315 13.7099L19.7342 13.6417L19.7347 13.6304L19.7356 13.6077L19.736 13.5963L19.7387 13.5281L19.7392 13.5168L19.7414 13.4599L19.7423 13.4372L19.7482 13.2895C19.7112 13.2653 19.6665 13.2445 19.6141 13.2273C19.5465 13.2094 19.4785 13.2029 19.41 13.2078L14.3978 13.3274Z" fill="#FFD84A"/>
<path d="M13.6309 20.0346L13.6219 20.2618C13.6151 20.4323 13.8251 20.5886 14.1083 20.6226L19.0953 21.1392C19.1862 21.1429 19.2775 21.1351 19.358 21.1155C19.4052 21.0719 19.4416 21.0164 19.4438 20.9596L19.465 20.4256L19.4682 20.346L19.4686 20.3346L19.4691 20.3233L19.4718 20.2551C19.47 20.3006 19.4459 20.3337 19.3991 20.366C19.3055 20.4306 19.1564 20.4588 18.9746 20.4516L13.9963 20.0036C13.849 19.9863 13.7254 19.9473 13.6363 19.8982L13.6313 20.0232L13.6309 20.0346Z" fill="#FFD84A"/>
<path d="M13.7108 18.034L13.7099 18.0567L13.7094 18.0681L13.7067 18.1363L13.7058 18.159L13.704 18.2044L13.7035 18.2158L13.7022 18.2499C13.7019 18.2575 13.7014 18.2688 13.7008 18.284C13.7002 18.2991 13.6998 18.3105 13.6995 18.3181L13.6972 18.3749L13.6968 18.3863L13.6927 18.4885L13.6905 18.5453L13.69 18.5567L13.6878 18.6135L13.686 18.659L13.6855 18.6703L13.6828 18.7385L13.6814 18.7726C13.6747 18.943 13.8847 19.0993 14.1679 19.1333L19.1549 19.65C19.223 19.6527 19.2914 19.6516 19.3598 19.6467C19.4135 19.6337 19.4597 19.6166 19.4984 19.5953L19.5043 19.4476L19.5052 19.4249L19.5075 19.3681L19.5079 19.3567L19.5106 19.2885L19.5111 19.2772L19.512 19.2545L19.5124 19.2431L19.5151 19.1749L19.5237 18.959L19.5242 18.9477L19.5246 18.9363L19.5255 18.9136L19.5269 18.8795L19.5291 18.8227L19.5296 18.8113L19.5336 18.709L19.5359 18.6522L19.5372 18.6181L19.5422 18.4931L19.5427 18.4818L19.5431 18.4704L19.5436 18.4591L19.5458 18.4022L19.5467 18.3795C19.544 18.4477 19.4736 18.5018 19.37 18.5318C19.2891 18.5628 19.1745 18.581 19.05 18.5646L14.0717 18.1166C13.9239 18.1107 13.8003 18.0717 13.7112 18.0226L13.7108 18.034Z" fill="#FFD84A"/>
<path d="M19.2694 15.0339L14.2958 15.3258C14.0677 15.3395 13.88 15.48 13.8037 15.6818C13.7868 15.7267 13.7772 15.7756 13.7751 15.8286L13.7607 16.1922L13.7598 16.215L13.7453 16.5786C13.7432 16.6316 13.7487 16.6849 13.7618 16.7386C13.8223 16.9344 13.9977 17.1007 14.2246 17.1211L19.1593 17.8064C19.2498 17.8214 19.3529 17.8027 19.4343 17.7604C19.4888 17.7247 19.5361 17.681 19.576 17.6295L19.623 16.4477L19.6239 16.425L19.6703 15.2546C19.6349 15.1925 19.5912 15.1453 19.5394 15.1129C19.4617 15.0643 19.3603 15.0375 19.2694 15.0339Z" fill="#FFD84A"/>
<path d="M61.0518 24.9785L61.0631 24.979C61.0858 24.9799 61.1095 24.958 61.1104 24.9353L61.5295 14.3792L61.6535 11.2543C61.6544 11.2316 61.6322 11.2194 61.6094 11.2185L61.5981 11.218L61.4727 14.3769L61.0518 24.9785Z" fill="#CCCCCC"/>
<path d="M38.0498 16.1328L37.7354 24.0527L40.0988 24.1466L40.4412 15.5221C39.6068 15.709 38.8097 15.9126 38.0498 16.1328Z" fill="#CCCCCC"/>
<path d="M40.4412 15.5221L40.6451 10.3861L38.2817 10.2923L38.0498 16.1328C38.8097 15.9126 39.6068 15.709 40.4412 15.5221Z" fill="#C4C4C4"/>
<path d="M47.4506 14.3998L47.0527 24.4219L49.4162 24.5157L49.8254 14.2095C49.0115 14.2607 48.2199 14.3241 47.4506 14.3998Z" fill="#CCCCCC"/>
<path d="M49.8249 14.2102L49.9621 10.7558L47.5986 10.662L47.4502 14.4004C48.2195 14.3247 49.0111 14.2613 49.8249 14.2102Z" fill="#C4C4C4"/>
<path d="M56.8059 14.1118L56.3818 24.793L58.7453 24.8868L59.1689 14.217C58.3665 14.17 57.5789 14.1349 56.8059 14.1118Z" fill="#CCCCCC"/>
<path d="M59.1681 14.2169L59.2909 11.1262L56.9274 11.0323L56.8051 14.1117C57.5781 14.1348 58.3658 14.1699 59.1681 14.2169Z" fill="#C4C4C4"/>
<path d="M42.7585 15.0447L42.3936 24.2373L44.757 24.3311L45.1405 14.6726C44.3166 14.7841 43.5227 14.9081 42.7585 15.0447Z" fill="#CCCCCC"/>
<path d="M45.1407 14.6729L45.3036 10.5709L42.9401 10.477L42.7588 15.0449C43.5229 14.9083 44.3169 14.7843 45.1407 14.6729Z" fill="#C4C4C4"/>
<path d="M52.1395 14.1081L51.7227 24.6074L54.0861 24.7013L54.5079 14.0769C53.6962 14.075 52.9067 14.0854 52.1395 14.1081Z" fill="#CCCCCC"/>
<path d="M54.5081 14.0772L54.6326 10.9411L52.2691 10.8472L52.1396 14.1084C52.9068 14.0857 53.6963 14.0754 54.5081 14.0772Z" fill="#C4C4C4"/>
<path d="M33.3068 17.788L33.0654 23.8672L35.4289 23.961L35.7104 16.8706C34.8642 17.1632 34.063 17.469 33.3068 17.788Z" fill="#CCCCCC"/>
<path d="M35.7102 16.8706L35.9751 10.2006L33.6116 10.1067L33.3066 17.7881C34.0628 17.4691 34.864 17.1633 35.7102 16.8706Z" fill="#C4C4C4"/>
<path d="M24.373 23.5215L26.1002 23.5901L26.1656 21.9424C25.4604 22.5062 24.8701 23.0405 24.373 23.5215Z" fill="#CCCCCC"/>
<path d="M24.373 23.5219C24.8701 23.0409 25.4603 22.5066 26.1656 21.9428L26.6465 9.82995L24.2944 9.73656L23.748 23.4971L24.373 23.5219Z" fill="#C4C4C4"/>
<path d="M28.542 20.2614L28.4062 23.6816L30.7697 23.7755L30.9637 18.8894C30.0694 19.3433 29.2659 19.8008 28.542 20.2614Z" fill="#CCCCCC"/>
<path d="M30.9636 18.8897L31.316 10.0153L28.9525 9.92145L28.542 20.2617C29.2659 19.8011 30.0693 19.3436 30.9636 18.8897Z" fill="#C4C4C4"/>
<path fill-rule="evenodd" clip-rule="evenodd" d="M61.6373 10.5132C62.0463 10.5295 62.3623 10.8834 62.3465 11.2811L61.8034 24.9621C61.7871 25.3712 61.4445 25.6876 61.0354 25.6714L21.4589 24.1001C21.0499 24.0838 20.7221 23.7408 20.7383 23.3317L21.2815 9.65075C21.2973 9.25305 21.6517 8.92569 22.0607 8.94194L61.6373 10.5132ZM21.976 9.64418L21.4296 23.4047L61.063 24.9782C61.0857 24.9791 61.098 24.9569 61.0989 24.9341L61.642 11.2532C61.6429 11.2304 61.632 11.2186 61.6093 11.2177L21.976 9.64418Z" fill="#595959"/>
<path d="M21.4432 23.3598L21.4414 23.4053L21.4869 23.4071L23.748 23.4969L24.2944 9.73634L22.0332 9.64657L21.9877 9.64476L21.9864 9.67885L21.4432 23.3598Z" fill="#BCBCBC"/>
<path d="M26.165 21.9432L26.0996 23.5908L28.4063 23.6824L28.542 20.2622C27.6314 20.8406 26.8466 21.4012 26.165 21.9432Z" fill="#C4C4C4"/>
<path d="M28.5421 20.2623L28.9526 9.92205L26.646 9.83047L26.165 21.9434C26.8466 21.4014 27.6314 20.8407 28.5421 20.2623Z" fill="#BCBCBC"/>
<path d="M30.9635 18.8893L30.7695 23.7754L33.0648 23.8665L33.3062 17.7873C32.4724 18.1488 31.6915 18.5161 30.9635 18.8893Z" fill="#C4C4C4"/>
<path d="M33.3065 17.7877L33.6115 10.1063L31.3162 10.0152L30.9639 18.8896C31.6919 18.5164 32.4728 18.1491 33.3065 17.7877Z" fill="#BCBCBC"/>
<path d="M35.7102 16.8705L35.4287 23.9609L37.7354 24.0525L38.0498 16.1326C37.2287 16.3655 36.4489 16.6115 35.7102 16.8705Z" fill="#C4C4C4"/>
<path d="M38.0495 16.1332L38.2814 10.2926L35.9748 10.2011L35.71 16.8711C36.4486 16.6121 37.2285 16.3661 38.0495 16.1332Z" fill="#BCBCBC"/>
<path d="M40.441 15.522L40.0986 24.1465L42.3939 24.2376L42.7589 15.045C41.9563 15.1952 41.1837 15.3542 40.441 15.522Z" fill="#C4C4C4"/>
<path d="M42.7592 15.0454L42.9406 10.4775L40.6453 10.3864L40.4414 15.5225C41.184 15.3547 41.9566 15.1957 42.7592 15.0454Z" fill="#BCBCBC"/>
<path d="M45.1403 14.6726L44.7568 24.3311L47.0521 24.4222L47.45 14.4001C46.658 14.4749 45.8881 14.5657 45.1403 14.6726Z" fill="#C4C4C4"/>
<path d="M47.4503 14.4004L47.5988 10.662L45.3035 10.5708L45.1406 14.6729C45.8884 14.566 46.6583 14.4751 47.4503 14.4004Z" fill="#BCBCBC"/>
<path d="M49.8252 14.2104L49.416 24.5166L51.7227 24.6082L52.1395 14.1088C51.3496 14.1306 50.5781 14.1644 49.8252 14.2104Z" fill="#C4C4C4"/>
<path d="M52.1395 14.1084L52.269 10.8472L49.9623 10.7556L49.8252 14.21C50.5781 14.164 51.3496 14.1301 52.1395 14.1084Z" fill="#BCBCBC"/>
<path d="M54.5078 14.0768L54.0859 24.7012L56.3812 24.7923L56.8053 14.1111C56.0247 14.0877 55.2589 14.0763 54.5078 14.0768Z" fill="#C4C4C4"/>
<path d="M56.8053 14.1124L56.9276 11.0331L54.6323 10.942L54.5078 14.0781C55.259 14.0776 56.0248 14.089 56.8053 14.1124Z" fill="#BCBCBC"/>
<path d="M59.1687 14.2169L58.7451 24.8867L61.0518 24.9783L61.4727 14.3767C60.6861 14.3151 59.9181 14.2619 59.1687 14.2169Z" fill="#C4C4C4"/>
<path d="M61.4727 14.3767L61.5981 11.2178L59.2914 11.1263L59.1687 14.217C59.9181 14.2619 60.686 14.3152 61.4727 14.3767Z" fill="#BCBCBC"/>
<path d="M26.2953 24.3834C26.2881 24.5652 26.4299 24.7188 26.6117 24.726L30.2933 24.8721C30.4751 24.8794 30.64 24.738 30.6472 24.5561L30.6509 24.4652L26.2989 24.2925L26.2953 24.3834Z" fill="#F9A307"/>
<path d="M31.227 24.5797C31.2197 24.7615 31.3616 24.915 31.5434 24.9223L35.2249 25.0684C35.4067 25.0756 35.5603 24.9338 35.5675 24.752L35.5711 24.6611L31.2306 24.4888L31.227 24.5797Z" fill="#F9A307"/>
<path d="M46.9877 25.2056C46.9805 25.3874 47.1223 25.541 47.3155 25.5487L50.9857 25.6944C51.1675 25.7016 51.3324 25.5602 51.3396 25.3784L51.3432 25.2875L46.9913 25.1147L46.9877 25.2056Z" fill="#F9A307"/>
<path d="M51.9184 25.4009C51.9111 25.5828 52.053 25.7363 52.2348 25.7436L55.9163 25.8897C56.0981 25.8969 56.2517 25.7551 56.2589 25.5733L56.2625 25.4824L51.922 25.31L51.9184 25.4009Z" fill="#F9A307"/>
<path d="M56.8682 10.2451C56.8754 10.0633 56.7335 9.90975 56.5517 9.90253L52.8702 9.75636C52.6884 9.74914 52.5348 9.891 52.5276 10.0728L52.5244 10.1523L56.865 10.3247L56.8682 10.2451Z" fill="#F9A307"/>
<path d="M51.9479 10.0493C51.9551 9.86749 51.8019 9.71346 51.6201 9.70624L47.9499 9.56052C47.7567 9.55285 47.6031 9.69471 47.5959 9.87651L47.5928 9.95605L51.9447 10.1288L51.9479 10.0493Z" fill="#F9A307"/>
<path d="M36.1767 9.42385C36.184 9.24204 36.0421 9.08846 35.8603 9.08124L32.1788 8.93507C31.997 8.92785 31.8434 9.06971 31.8362 9.25151L31.833 9.33105L36.1736 9.50339L36.1767 9.42385Z" fill="#F9A307"/>
<path d="M31.2565 9.22801C31.2637 9.0462 31.1105 8.89217 30.9287 8.88495L27.2471 8.73878C27.0653 8.73157 26.9117 8.87342 26.9045 9.05523L26.9014 9.13477L31.2533 9.30755L31.2565 9.22801Z" fill="#F9A307"/>
</g>
<defs>
<filter id="filter0_d_3055_347560" x="0" y="0" width="78.3916" height="42.1221" filterUnits="userSpaceOnUse" color-interpolation-filters="sRGB">
<feFlood flood-opacity="0" result="BackgroundImageFix"/>
<feColorMatrix in="SourceAlpha" type="matrix" values="0 0 0 0 0 0 0 0 0 0 0 0 0 0 0 0 0 0 127 0" result="hardAlpha"/>
<feOffset dx="4" dy="4"/>
<feGaussianBlur stdDeviation="6"/>
<feComposite in2="hardAlpha" operator="out"/>
<feColorMatrix type="matrix" values="0 0 0 0 0.254902 0 0 0 0 0.254902 0 0 0 0 0.254902 0 0 0 0.25 0"/>
<feBlend mode="normal" in2="BackgroundImageFix" result="effect1_dropShadow_3055_347560"/>
<feBlend mode="normal" in="SourceGraphic" in2="effect1_dropShadow_3055_347560" result="shape"/>
</filter>
</defs>
</svg>
