<svg width="32" height="32" viewBox="0 0 32 32" fill="none" xmlns="http://www.w3.org/2000/svg">
<path fill-rule="evenodd" clip-rule="evenodd" d="M10.775 16.6961C10.5939 16.5151 10.4817 16.2652 10.4827 15.989C10.4827 15.4365 10.9296 14.9896 11.4821 14.9896L20.5179 14.9896C21.0704 14.9896 21.5173 15.4365 21.5173 15.989C21.5173 16.5415 21.0704 16.9884 20.5179 16.9884L11.4821 16.9884C11.2058 16.9893 10.956 16.8771 10.775 16.6961Z" fill="#F71717"/>
<path fill-rule="evenodd" clip-rule="evenodd" d="M10.2198 4.66669C6.84649 4.66669 4.66649 6.97735 4.66649 10.5547V21.4454C4.66649 25.0227 6.84649 27.3334 10.2198 27.3334H21.7772C25.1518 27.3334 27.3332 25.0227 27.3332 21.4454V10.5547C27.3332 6.97735 25.1518 4.66669 21.7785 4.66669H10.2198ZM21.7772 29.3334H10.2198C5.70117 29.3334 2.6665 26.1627 2.6665 21.4454V10.5547C2.6665 5.83735 5.70117 2.66669 10.2198 2.66669H21.7785C26.2972 2.66669 29.3332 5.83735 29.3332 10.5547V21.4454C29.3332 26.1627 26.2972 29.3334 21.7772 29.3334Z" fill="#F71717"/>
</svg>
