<svg width="16" height="16" viewBox="0 0 16 16" fill="none" xmlns="http://www.w3.org/2000/svg">
<path fill-rule="evenodd" clip-rule="evenodd" d="M7.5429 1.43185C7.37528 1.50045 6.15623 2.11097 4.83814 2.78322C3.88059 3.2666 2.94315 3.74637 2.40847 4.02C2.20714 4.12304 2.06292 4.19685 1.99623 4.23062C1.7448 4.36782 1.51623 4.54617 1.44766 4.66964C1.34861 4.84114 1.33337 5.36248 1.33337 7.99661C1.33337 10.6307 1.34861 11.1521 1.44766 11.3236C1.51623 11.4471 1.7448 11.6254 1.99623 11.7626C2.06292 11.7964 2.20714 11.8702 2.40846 11.9732C2.94313 12.2468 3.88058 12.7266 4.83814 13.21C6.15623 13.8823 7.39052 14.4928 7.58099 14.5682C7.80195 14.6505 8.00766 14.6848 8.15242 14.6574C8.28195 14.6368 9.72956 13.9303 11.3829 13.0934C13.9886 11.7626 14.4 11.5294 14.5219 11.3236C14.6591 11.0972 14.6667 10.8846 14.6667 7.99661C14.6667 5.10181 14.6591 4.89601 14.5219 4.66964C14.4077 4.47757 14.1639 4.3198 13.3258 3.88764C12.8403 3.64356 11.8332 3.13175 10.8957 2.65538C10.7003 2.55605 10.5079 2.45827 10.3239 2.36478C9.25718 1.82286 8.25909 1.36326 8.11433 1.34268C7.93909 1.31524 7.74099 1.34954 7.5429 1.43185ZM7.11877 2.73521C6.43007 3.09192 6.24642 3.21539 6.32294 3.27027C6.37651 3.31143 7.52433 3.8945 8.87112 4.56676L11.3198 5.78779C11.9167 5.49282 12.3299 5.28703 12.6207 5.12925C13.1028 4.88916 13.141 4.848 13.0033 4.78627C12.9191 4.74511 11.7866 4.17575 10.4781 3.51722C9.16955 2.85868 8.08294 2.30991 8.05999 2.29619C8.03703 2.28933 7.60851 2.48826 7.11877 2.73521ZM3.99668 4.31295C3.42277 4.60105 2.97129 4.86172 3.0019 4.8823C3.03251 4.90974 4.17268 5.49282 5.54242 6.17193C6.91216 6.8579 8.05233 7.41354 8.09059 7.41354C8.1212 7.41354 8.61094 7.17345 9.1772 6.88534C9.75112 6.59038 10.1873 6.32971 10.1567 6.30913C10.1261 6.28169 9.00885 5.71919 7.68503 5.06066C6.3612 4.39526 5.22103 3.83963 5.15981 3.81905C5.09859 3.79847 4.57059 4.01798 3.99668 4.31295ZM2.36677 10.8571L2.34381 8.27787C2.33616 6.8579 2.34381 5.69861 2.36677 5.69861C2.38972 5.69861 3.56051 6.27483 7.53964 8.27101L7.53199 10.8297C7.53199 12.8259 7.50903 13.3815 7.44016 13.3815C7.38659 13.3815 6.22346 12.8121 2.36677 10.8571ZM12.7355 6.16507L11.8555 6.62467C11.8172 9.24509 11.7942 9.45088 11.6795 9.56064C11.6106 9.62923 11.4422 9.68411 11.3198 9.68411C11.1897 9.68411 11.029 9.62923 10.9602 9.56064C10.8454 9.45088 10.8224 9.28625 10.8224 8.32589C10.8224 7.70851 10.7995 7.20775 10.7612 7.20775C10.7306 7.20775 10.2332 7.44784 9.65929 7.74281L8.60329 8.27101C8.60329 11.7283 8.58033 12.8739 8.54972 13.0591C8.50381 13.2992 8.51146 13.3815 8.58033 13.3815C8.6339 13.3815 9.79703 12.819 11.1668 12.133L13.6461 10.8777C13.6537 6.86476 13.6461 5.69861 13.6308 5.69861C13.6274 5.70162 13.5475 5.74288 13.4183 5.80966L13.4183 5.80967L13.4183 5.80967L13.4182 5.80971C13.2526 5.89523 13.0061 6.02258 12.7355 6.16507Z" fill="#555555"/>
</svg>
