<svg width="24" height="24" viewBox="0 0 24 24" fill="none" xmlns="http://www.w3.org/2000/svg">
<g clip-path="url(#clip0_12208_38692)">
<path d="M1.68298 15.4837L2.08033 14.0573C2.29112 13.0793 2.81187 12.2016 3.56026 11.563C4.30866 10.9244 5.24201 10.5614 6.21278 10.5312" stroke="#7B7B7B" stroke-linecap="round" stroke-linejoin="round"/>
<path d="M6.2127 10.5218C7.60256 10.5218 8.72926 9.41313 8.72926 8.04555C8.72926 6.67798 7.60256 5.56934 6.2127 5.56934C4.82284 5.56934 3.69614 6.67798 3.69614 8.04555C3.69614 9.41313 4.82284 10.5218 6.2127 10.5218Z" stroke="#7B7B7B" stroke-linecap="round" stroke-linejoin="bevel"/>
<path d="M22.3181 15.4837L21.9207 14.0573C21.7099 13.0793 21.1892 12.2016 20.4408 11.563C19.6924 10.9244 18.759 10.5614 17.7883 10.5312" stroke="#7B7B7B" stroke-linecap="round" stroke-linejoin="round"/>
<path d="M17.7882 10.5218C19.1781 10.5218 20.3048 9.41313 20.3048 8.04555C20.3048 6.67798 19.1781 5.56934 17.7882 5.56934C16.3984 5.56934 15.2717 6.67798 15.2717 8.04555C15.2717 9.41313 16.3984 10.5218 17.7882 10.5218Z" stroke="#7B7B7B" stroke-linecap="round" stroke-linejoin="bevel"/>
<path d="M7.43591 18.7551L7.83326 17.3287C9.14672 12.6222 14.7832 12.6222 16.0967 17.3287L16.494 18.7551" stroke="#7B7B7B" stroke-linecap="round" stroke-linejoin="round"/>
<path d="M11.9656 13.7923C13.3555 13.7923 14.4822 12.6836 14.4822 11.3161C14.4822 9.94848 13.3555 8.83984 11.9656 8.83984C10.5758 8.83984 9.44907 9.94848 9.44907 11.3161C9.44907 12.6836 10.5758 13.7923 11.9656 13.7923Z" stroke="#7B7B7B" stroke-linecap="round" stroke-linejoin="bevel"/>
<path d="M11.9656 13.7923C13.3555 13.7923 14.4822 12.6836 14.4822 11.3161C14.4822 9.94848 13.3555 8.83984 11.9656 8.83984C10.5758 8.83984 9.44907 9.94848 9.44907 11.3161C9.44907 12.6836 10.5758 13.7923 11.9656 13.7923Z" stroke="#7B7B7B" stroke-linecap="round" stroke-linejoin="bevel"/>
</g>
<defs>
<clipPath id="clip0_12208_38692">
<rect width="22" height="16" fill="white" transform="translate(1 4)"/>
</clipPath>
</defs>
</svg>
