<svg width="16" height="16" viewBox="0 0 16 16" fill="none" xmlns="http://www.w3.org/2000/svg">
<path d="M2.66797 12.9393V2.97835C2.66805 2.51959 2.85008 2.07945 3.17448 1.75505C3.49888 1.43064 3.93902 1.24861 4.39779 1.24854H9.91146L10.0443 1.25635C10.176 1.27226 10.3042 1.31197 10.4225 1.37354C10.5804 1.45567 10.7162 1.57479 10.8184 1.72054L13.3984 5.40544L13.4447 5.47705C13.5453 5.64733 13.599 5.842 13.599 6.04085V12.9393C13.599 13.3982 13.4163 13.8381 13.0918 14.1626C12.7673 14.4871 12.3274 14.6698 11.8685 14.6698H4.39779C3.93902 14.6697 3.49888 14.487 3.17448 14.1626C2.85012 13.8381 2.66797 13.3981 2.66797 12.9393ZM7.93945 5.72119C8.07816 5.58249 8.28686 5.54136 8.4681 5.61637C8.64937 5.69146 8.76757 5.86809 8.76758 6.06429V9.90999H9.36523L9.46289 9.91976C9.68407 9.96489 9.85025 10.1605 9.85026 10.395C9.85026 10.6295 9.68407 10.8251 9.46289 10.8703L9.36523 10.88H7.19987C6.93203 10.88 6.71484 10.6629 6.71484 10.395C6.71486 10.1272 6.93204 9.91008 7.19987 9.90999H7.79753V7.23551L7.54297 7.49007C7.35352 7.67945 7.04619 7.67949 6.85677 7.49007C6.66743 7.30064 6.66742 6.9933 6.85677 6.80387L7.93945 5.72119ZM3.63802 12.9393C3.63802 13.1409 3.71815 13.3345 3.86068 13.4771C4.00312 13.6194 4.1964 13.699 4.39779 13.6991H11.8685C12.07 13.6991 12.2637 13.6196 12.4063 13.4771C12.5488 13.3345 12.6289 13.1409 12.6289 12.9393V6.04085C12.6289 6.02666 12.6266 6.01256 12.6224 5.99919L12.6035 5.96208L10.0241 2.27718C10.0114 2.2591 9.9942 2.2444 9.97461 2.23421C9.96484 2.22915 9.95462 2.22508 9.94401 2.22249L9.91146 2.21859H4.39779C4.19633 2.21867 4.00313 2.29879 3.86068 2.44124C3.71822 2.5837 3.6381 2.7769 3.63802 2.97835V12.9393Z" fill="#555555"/>
</svg>
