<svg width="20" height="20" viewBox="0 0 20 20" fill="none" xmlns="http://www.w3.org/2000/svg">
<path d="M16.6676 16.3749L16.7319 16.3782C17.0469 16.4103 17.2926 16.6764 17.2926 16.9999C17.2925 17.3233 17.0468 17.5895 16.7319 17.6217L16.6676 17.6249H9.16759C8.82248 17.6249 8.54268 17.345 8.54259 16.9999C8.54259 16.6547 8.82243 16.3749 9.16759 16.3749H16.6676ZM11.8808 2.04711C12.0451 2.02546 12.2115 2.06991 12.343 2.17081L15.232 4.38679C15.3634 4.48768 15.4497 4.63676 15.4713 4.80102C15.4929 4.96536 15.4477 5.13174 15.3468 5.26325L7.23074 15.8419C7.16705 15.9248 7.08385 15.9908 6.98823 16.0331L3.51492 17.5696C3.30599 17.662 3.06312 17.6328 2.88178 17.4939C2.70042 17.3547 2.60897 17.1273 2.64415 16.9014L3.22928 13.149L3.24555 13.0725C3.26708 12.9976 3.30282 12.9272 3.35053 12.865L11.4666 2.28637L11.5504 2.19603C11.6426 2.11528 11.7575 2.06337 11.8808 2.04711ZM4.43859 13.4997L4.05529 15.9623L6.33637 14.9532L11.9459 7.64281L10.0481 6.18692L4.43859 13.4997ZM10.809 5.1949L12.7068 6.65079L13.9747 4.99796L12.0777 3.54206L10.809 5.1949Z" fill="currentColor"/>
</svg>
