<svg width="14" height="14" viewBox="0 0 14 14" fill="none" xmlns="http://www.w3.org/2000/svg">
<path d="M6.85482 2.3335C7.09644 2.3335 7.29232 2.52937 7.29232 2.771V6.41683H10.9382L10.9832 6.41911C11.2036 6.44164 11.3757 6.6279 11.3757 6.85433C11.3757 7.08076 11.2036 7.26702 10.9832 7.28955L10.9382 7.29183H7.29232V10.9377C7.29232 11.1793 7.09644 11.3752 6.85482 11.3752C6.61319 11.3752 6.41732 11.1793 6.41732 10.9377V7.29183H2.77148C2.52986 7.29183 2.33398 7.09595 2.33398 6.85433C2.33398 6.61271 2.52986 6.41683 2.77148 6.41683H6.41732V2.771C6.41732 2.52937 6.61319 2.3335 6.85482 2.3335Z" fill="#555555"/>
</svg>
