<svg width="21" height="20" viewBox="0 0 21 20" fill="none" xmlns="http://www.w3.org/2000/svg">
<path fill-rule="evenodd" clip-rule="evenodd" d="M7.23435 10.4349C7.12121 10.3218 7.05109 10.1656 7.05168 9.99295C7.05168 9.64764 7.33098 9.36834 7.67629 9.36834H13.3237C13.669 9.36834 13.9483 9.64764 13.9483 9.99295C13.9483 10.3383 13.669 10.6176 13.3237 10.6176H7.67629C7.50364 10.6181 7.34748 10.548 7.23435 10.4349Z" fill="#176CF7"/>
<path fill-rule="evenodd" clip-rule="evenodd" d="M10.0575 13.261C9.94433 13.1478 9.87421 12.9917 9.8748 12.819L9.87539 7.1663C9.87539 6.821 10.1547 6.54169 10.5 6.54169C10.8459 6.54228 11.1252 6.82159 11.1246 7.1663L11.124 12.819C11.124 13.1643 10.8447 13.4436 10.4994 13.4436C10.3268 13.4442 10.17 13.3735 10.0575 13.261Z" fill="#176CF7"/>
<path fill-rule="evenodd" clip-rule="evenodd" d="M6.88879 2.9165C4.78046 2.9165 3.41796 4.36067 3.41796 6.5965V13.4032C3.41796 15.639 4.78046 17.0832 6.88879 17.0832H14.1121C16.2213 17.0832 17.5846 15.639 17.5846 13.4032V6.5965C17.5846 4.36067 16.2213 2.9165 14.113 2.9165H6.88879ZM14.1121 18.3332H6.8888C4.06464 18.3332 2.16797 16.3515 2.16797 13.4032V6.5965C2.16797 3.64817 4.06464 1.6665 6.8888 1.6665H14.113C16.9371 1.6665 18.8346 3.64817 18.8346 6.5965V13.4032C18.8346 16.3515 16.9371 18.3332 14.1121 18.3332Z" fill="#176CF7"/>
</svg>
