<svg width="16" height="16" viewBox="0 0 16 16" fill="none" xmlns="http://www.w3.org/2000/svg">
<path d="M14.1673 8.00016C14.1673 7.80679 14.1 7.62045 13.9785 7.47217L13.9232 7.41097C13.7669 7.25469 13.555 7.16683 13.334 7.16683H9.83398V14.1668H13.334C13.555 14.1668 13.7669 14.079 13.9232 13.9227C14.0795 13.7664 14.1673 13.5545 14.1673 13.3335V8.00016ZM4.13411 11.3003C4.4102 11.3004 4.63411 11.5242 4.63411 11.8003C4.63405 12.0763 4.41016 12.3002 4.13411 12.3003H3.53385C3.25781 12.3002 3.03392 12.0763 3.03385 11.8003C3.03385 11.5242 3.25777 11.3004 3.53385 11.3003H4.13411ZM7.13411 11.3003L7.1849 11.3029C7.43712 11.3284 7.63411 11.5413 7.63411 11.8003C7.63405 12.0592 7.43709 12.2722 7.1849 12.2977L7.13411 12.3003H5.93425C5.65814 12.3003 5.43431 12.0764 5.43425 11.8003C5.43425 11.5242 5.6581 11.3003 5.93425 11.3003H7.13411ZM12.2005 11.3003C12.4767 11.3003 12.7005 11.5242 12.7005 11.8003C12.7005 12.0764 12.4766 12.3003 12.2005 12.3003H11.0007C10.7246 12.3003 10.5007 12.0764 10.5007 11.8003C10.5007 11.5242 10.7245 11.3003 11.0007 11.3003H12.2005ZM4.13411 8.8335C4.4102 8.83357 4.63411 9.0574 4.63411 9.3335C4.63411 9.6096 4.4102 9.83343 4.13411 9.8335H3.53385C3.25777 9.83342 3.03385 9.60959 3.03385 9.3335C3.03386 9.0574 3.25778 8.83357 3.53385 8.8335H4.13411ZM7.13411 8.8335L7.1849 8.8361C7.43712 8.86161 7.63411 9.07455 7.63411 9.3335C7.63411 9.59245 7.43712 9.80538 7.1849 9.83089L7.13411 9.8335H5.93425C5.6581 9.8335 5.43425 9.60964 5.43425 9.3335C5.43425 9.05736 5.65811 8.8335 5.93425 8.8335H7.13411ZM12.2005 8.8335L12.252 8.8361C12.504 8.86179 12.7005 9.07468 12.7005 9.3335C12.7005 9.59232 12.504 9.8052 12.252 9.83089L12.2005 9.8335H11.0007C10.7245 9.8335 10.5007 9.60964 10.5007 9.3335C10.5007 9.05736 10.7245 8.8335 11.0007 8.8335H12.2005ZM4.13411 6.3667L4.1849 6.3693C4.43709 6.3948 4.63404 6.6078 4.63411 6.8667C4.63411 7.12565 4.43712 7.33858 4.1849 7.3641L4.13411 7.3667H3.53385C3.25777 7.36663 3.03385 7.1428 3.03385 6.8667C3.03393 6.59066 3.25782 6.36677 3.53385 6.3667H4.13411ZM7.13411 6.3667L7.1849 6.3693C7.43708 6.3948 7.63404 6.6078 7.63411 6.8667C7.63411 7.12565 7.43711 7.33858 7.1849 7.3641L7.13411 7.3667H5.93425C5.6581 7.3667 5.43425 7.14284 5.43425 6.8667C5.43432 6.59062 5.65815 6.3667 5.93425 6.3667H7.13411ZM4.13411 3.8999C4.41011 3.89997 4.63397 4.12393 4.63411 4.3999C4.63411 4.676 4.4102 4.89983 4.13411 4.8999H3.53385C3.25777 4.89983 3.03385 4.676 3.03385 4.3999C3.034 4.12393 3.25786 3.89997 3.53385 3.8999H4.13411ZM7.13411 3.8999L7.1849 3.90251C7.43705 3.928 7.63398 4.14106 7.63411 4.3999C7.63411 4.65885 7.43711 4.87177 7.1849 4.8973L7.13411 4.8999H5.93425C5.6581 4.8999 5.43425 4.67604 5.43425 4.3999C5.43439 4.12388 5.65819 3.8999 5.93425 3.8999H7.13411ZM8.83398 2.66683C8.83398 2.47346 8.76666 2.28712 8.64518 2.13883L8.58984 2.07764C8.43356 1.92136 8.22166 1.8335 8.00065 1.8335H2.66732C2.47395 1.8335 2.2876 1.90082 2.13932 2.0223L2.07812 2.07764C1.92184 2.23392 1.83398 2.44582 1.83398 2.66683V13.3335C1.83398 13.5545 1.92184 13.7664 2.07812 13.9227L2.13932 13.978C2.2876 14.0995 2.47395 14.1668 2.66732 14.1668H8.83398V2.66683ZM9.83398 6.16683H13.334C13.8202 6.16683 14.2864 6.36012 14.6302 6.70394L14.752 6.83805C15.0194 7.16432 15.1673 7.57462 15.1673 8.00016V13.3335C15.1673 13.8197 14.974 14.2859 14.6302 14.6297C14.2864 14.9735 13.8202 15.1668 13.334 15.1668H2.66732C2.24177 15.1668 1.83148 15.0189 1.50521 14.7515L1.37109 14.6297C1.02728 14.2859 0.833984 13.8197 0.833984 13.3335V2.66683C0.833984 2.1806 1.02728 1.71442 1.37109 1.37061L1.50521 1.24886C1.83148 0.981446 2.24177 0.833496 2.66732 0.833496H8.00065C8.48688 0.833496 8.95306 1.02679 9.29688 1.37061L9.41862 1.50472C9.68603 1.83099 9.83398 2.24128 9.83398 2.66683V6.16683Z" fill="#555555"/>
</svg>
