<svg width="24" height="24" viewBox="0 0 24 24" fill="none" xmlns="http://www.w3.org/2000/svg">
<g clip-path="url(#clip0_3645_235392)">
<rect width="25.5" height="25.5" fill="url(#paint0_linear_3645_235392)"/>
<path d="M14.5935 8.2595C14.9681 7.70025 15.6307 7.65847 16.239 7.6582L17.0295 7.67093C18.1439 7.8119 18.9182 8.48412 19.6501 9.26098L20.2979 9.93334C20.8177 10.4643 21.3569 10.982 21.8187 11.5657C22.5072 12.4361 22.5751 13.071 22.5749 14.1122C22.5747 14.8505 22.6437 15.5476 21.9883 16.0547C21.6612 16.308 21.2685 16.3517 20.8681 16.3461C20.843 16.3458 20.8236 16.3337 20.8197 16.3595C20.2955 19.8475 16.2332 19.3584 15.9132 16.4006L12.8615 16.3837L12.461 16.384L12.375 16.3637C12.4079 16.3366 12.4648 16.3253 12.505 16.3115L12.7903 16.213C12.8101 16.1866 12.9634 16.1363 13.0035 16.117C13.8851 15.6937 14.4745 14.7569 14.5822 13.7986C14.616 13.4984 14.5959 13.1792 14.5959 12.8764L14.5954 11.5623L14.5935 8.2595ZM17.7335 9.24996C17.0286 9.3543 17.1203 9.9007 17.1199 10.4395C17.1192 11.1363 17.0695 11.7568 17.905 12.0129C18.0768 12.0655 18.3251 12.0367 18.5065 12.0371L19.5382 12.0437C19.893 12.0163 20.2324 11.7072 20.1292 11.3239L20.1241 11.3041C20.0323 10.9762 19.2128 10.2967 18.9549 10.0469C18.5978 9.70085 18.2907 9.22178 17.7335 9.24996Z" fill="url(#paint1_linear_3645_235392)"/>
<path d="M3.3059 7.28508L3.75714 7.28027C3.91972 6.61352 4.37209 6.01034 4.95782 5.6536C5.74693 5.17305 6.6197 5.21264 7.50796 5.21216L11.0775 5.20971C11.5773 5.20879 12.109 5.16482 12.5978 5.28571C13.789 5.58036 14.5576 6.51827 14.563 7.73903C14.5637 7.9041 14.5478 8.10027 14.594 8.25979L14.5962 11.5626L14.5962 12.8767C14.5962 13.1795 14.6163 13.4987 14.5826 13.7988C14.4748 14.7571 13.8854 15.694 13.0038 16.1173C12.9638 16.1366 12.8105 16.1869 12.7906 16.2133L12.5053 16.3118C12.4651 16.3256 12.4082 16.3369 12.3753 16.364L12.4613 16.383L10.7885 16.353C10.7896 16.5193 10.7894 16.6966 10.7562 16.8729C10.4223 18.6483 8.12781 19.466 6.81198 18.1265C6.48263 17.7912 6.11579 17.1854 6.09453 16.6936L6.0709 16.5236L6.06215 16.469C6.04575 16.3804 5.93003 16.4254 5.86068 16.4228C5.37283 16.4038 4.84612 16.2213 4.44458 15.9521C3.47543 15.3024 3.28285 14.2317 3.28381 13.1421L3.28473 11.6259C3.28538 11.4454 3.28276 11.2526 3.31767 11.0752L3.34003 10.9328C3.3462 10.8868 3.35648 10.866 3.38903 10.8329L3.39839 10.8238C3.29549 10.8072 3.18568 10.8192 3.08059 10.8075L3.06335 10.8055L2.62047 10.8019C2.53113 10.801 2.43073 10.8056 2.34408 10.7842L2.32652 10.7796C1.81468 10.6469 1.88293 9.91975 2.42793 9.83151C2.71484 9.78706 3.01553 9.85076 3.2972 9.80924C3.26767 9.38937 3.36501 8.72319 3.4543 8.32322C3.49897 8.31207 3.53533 8.29102 3.53817 8.24119C3.483 8.24032 3.42486 8.24242 3.37092 8.22995L3.34401 8.22326L1.97895 8.21521C1.88859 8.21424 1.7989 8.21822 1.71566 8.17727L1.69761 8.16817C1.33466 7.99624 1.31918 7.41791 1.71585 7.29059L1.73179 7.28587C1.85454 7.24846 2.05036 7.28092 2.18081 7.28154L3.3059 7.28508Z" fill="url(#paint2_linear_3645_235392)"/>
<path d="M3.34401 8.21735L1.97895 8.2149C1.88859 8.21393 1.7989 8.21792 1.71566 8.17697L1.69761 8.16787C1.33466 7.99593 1.31918 7.4176 1.71585 7.29028L1.73179 7.28556C1.85454 7.24815 2.05036 7.28062 2.18081 7.28123L3.3059 7.28477L4.855 7.28731C4.9565 7.28775 5.06321 7.28538 5.162 7.31089L5.17958 7.31518C5.56135 7.41537 5.49542 8.14214 4.97838 8.20584C4.60502 8.25182 3.73295 8.23852 3.34401 8.21735Z" fill="url(#paint3_linear_3645_235392)"/>
<path d="M2.42808 9.83243L9.61862 9.81169C9.87035 9.81174 10.2655 9.74795 10.4926 9.88471L10.5116 9.89591C10.8742 10.1162 10.8489 10.6538 10.4341 10.7792L10.4125 10.786C10.3157 10.814 10.2074 10.805 10.1074 10.8045L8.31915 10.8018L3.06351 10.804L2.62063 10.8029C2.53129 10.8019 2.43088 10.8065 2.34423 10.7852L2.32667 10.7805C1.81483 10.6478 1.88308 9.92068 2.42808 9.83243Z" fill="url(#paint4_linear_3645_235392)"/>
<path d="M7.84062 14.1253C9.19477 13.7562 10.6344 14.7355 10.7668 16.1135C10.7738 16.1865 10.7715 16.2707 10.7879 16.3414C10.7891 16.5201 10.7888 16.6973 10.7556 16.8737C10.4217 18.649 8.12723 19.4667 6.81141 18.1272C6.48206 17.792 6.11521 17.1862 6.09395 16.6943L6.07032 16.5244C6.06691 15.4688 6.79281 14.393 7.84062 14.1253Z" fill="url(#paint5_linear_3645_235392)"/>
</g>
<defs>
<linearGradient id="paint0_linear_3645_235392" x1="1.6875" y1="-8.60378e-08" x2="22.5" y2="27" gradientUnits="userSpaceOnUse">
<stop stop-color="#C7E5FD"/>
<stop offset="1" stop-color="#6BBAFB"/>
</linearGradient>
<linearGradient id="paint1_linear_3645_235392" x1="16.0307" y1="21.3713" x2="24.9766" y2="16.917" gradientUnits="userSpaceOnUse">
<stop stop-color="#176CF7"/>
<stop offset="1" stop-color="#0C36C1"/>
</linearGradient>
<linearGradient id="paint2_linear_3645_235392" x1="6.14481" y1="21.9281" x2="17.4293" y2="15.977" gradientUnits="userSpaceOnUse">
<stop stop-color="#FFBC00"/>
<stop offset="1" stop-color="#FFD14F"/>
</linearGradient>
<linearGradient id="paint3_linear_3645_235392" x1="2.85578" y1="8.46044" x2="3.58066" y2="6.83296" gradientUnits="userSpaceOnUse">
<stop stop-color="#176CF7"/>
<stop offset="1" stop-color="#0C36C1"/>
</linearGradient>
<linearGradient id="paint4_linear_3645_235392" x1="5.12724" y1="11.0392" x2="5.53798" y2="9.09476" gradientUnits="userSpaceOnUse">
<stop stop-color="#176CF7"/>
<stop offset="1" stop-color="#0C36C1"/>
</linearGradient>
<linearGradient id="paint5_linear_3645_235392" x1="7.7609" y1="19.8878" x2="11.756" y2="17.728" gradientUnits="userSpaceOnUse">
<stop stop-color="#176CF7"/>
<stop offset="1" stop-color="#0C36C1"/>
</linearGradient>
<clipPath id="clip0_3645_235392">
<rect width="24" height="24" rx="12" fill="white"/>
</clipPath>
</defs>
</svg>
