<svg width="16" height="16" viewBox="0 0 16 16" fill="none" xmlns="http://www.w3.org/2000/svg">
<path d="M4.37225 7.30555C3.97781 7.30555 3.57781 7.16111 3.27225 6.86666C2.25003 5.89444 1.83892 4.83333 2.07781 3.79444C2.36114 2.57222 3.43337 2.02777 4.37225 2.02777C5.31114 2.02777 6.38892 2.57777 6.6667 3.79444C6.90559 4.83333 6.48892 5.89444 5.47225 6.86666C5.1667 7.16111 4.77225 7.30555 4.37225 7.30555ZM2.88892 3.98333C2.67781 4.9111 3.29448 5.73333 3.85003 6.26111C4.14448 6.54444 4.60559 6.53888 4.90003 6.26111C5.45559 5.73333 6.07225 4.9111 5.85559 3.97777C5.6667 3.15555 4.93892 2.8611 4.37781 2.8611C3.81114 2.8611 3.08337 3.15555 2.88892 3.98333Z" fill="#461B02"/>
<path d="M4.3954 4.7778C4.08984 4.7778 3.83984 4.5278 3.83984 4.22224C3.83984 3.91669 4.08429 3.66669 4.3954 3.66669H4.40095C4.70651 3.66669 4.95651 3.91669 4.95651 4.22224C4.95651 4.5278 4.70651 4.7778 4.3954 4.7778Z" fill="#461B02"/>
<path d="M11.6061 13.9722C11.2116 13.9722 10.8116 13.8278 10.5005 13.5333C9.47275 12.5611 9.05608 11.5 9.30053 10.4556C9.58386 9.2389 10.6616 8.6889 11.6061 8.6889C12.5505 8.6889 13.6283 9.2389 13.9116 10.4556C14.1505 11.4945 13.7339 12.5611 12.7061 13.5278C12.4005 13.8278 12.0061 13.9722 11.6061 13.9722ZM11.6061 9.52779C11.0394 9.52779 10.3061 9.82224 10.1116 10.65C9.89497 11.5778 10.5172 12.4056 11.0728 12.9333C11.3672 13.2167 11.8339 13.2167 12.1339 12.9333C12.6894 12.4056 13.3116 11.5833 13.095 10.6556C12.9116 9.82224 12.1783 9.52779 11.6061 9.52779Z" fill="#461B02"/>
<path d="M11.6278 11.4445C11.3223 11.4445 11.0723 11.1945 11.0723 10.8889C11.0723 10.5833 11.3167 10.3333 11.6278 10.3333H11.6334C11.9389 10.3333 12.1889 10.5833 12.1889 10.8889C12.1889 11.1945 11.9334 11.4445 11.6278 11.4445Z" fill="#461B02"/>
<path d="M7.9997 12.3056H6.51081C5.86636 12.3056 5.30525 11.9167 5.08303 11.3167C4.85525 10.7167 5.02192 10.0556 5.50525 9.62779L9.94414 5.74446C10.2108 5.51112 10.2164 5.19446 10.1386 4.97779C10.0553 4.76112 9.84414 4.52779 9.48858 4.52779H7.9997C7.77192 4.52779 7.58303 4.3389 7.58303 4.11112C7.58303 3.88335 7.77192 3.69446 7.9997 3.69446H9.48858C10.133 3.69446 10.6941 4.08335 10.9164 4.68335C11.1441 5.28335 10.9775 5.94446 10.4941 6.37224L6.05525 10.2556C5.78858 10.4889 5.78303 10.8056 5.86081 11.0222C5.94414 11.2389 6.15525 11.4722 6.51081 11.4722H7.9997C8.22747 11.4722 8.41636 11.6611 8.41636 11.8889C8.41636 12.1167 8.22747 12.3056 7.9997 12.3056Z" fill="#461B02"/>
<path d="M7.9997 12.3056H6.51081C5.86636 12.3056 5.30525 11.9167 5.08303 11.3167C4.85525 10.7167 5.02192 10.0556 5.50525 9.62779L9.94414 5.74446C10.2108 5.51112 10.2164 5.19446 10.1386 4.97779C10.0553 4.76112 9.84414 4.52779 9.48858 4.52779H7.9997C7.77192 4.52779 7.58303 4.3389 7.58303 4.11112C7.58303 3.88335 7.77192 3.69446 7.9997 3.69446H9.48858C10.133 3.69446 10.6941 4.08335 10.9164 4.68335C11.1441 5.28335 10.9775 5.94446 10.4941 6.37224L6.05525 10.2556C5.78858 10.4889 5.78303 10.8056 5.86081 11.0222C5.94414 11.2389 6.15525 11.4722 6.51081 11.4722H7.9997C8.22747 11.4722 8.41636 11.6611 8.41636 11.8889C8.41636 12.1167 8.22747 12.3056 7.9997 12.3056Z" fill="#461B02"/>
</svg>