<svg width="20" height="20" viewBox="0 0 20 20" fill="none" xmlns="http://www.w3.org/2000/svg">
<path fill-rule="evenodd" clip-rule="evenodd" d="M9.9235 1.66675C10.1298 1.66934 10.3305 1.72485 10.5086 1.82544C10.686 1.92561 10.8349 2.0668 10.9448 2.23478L10.9456 2.23641L12.0776 3.95353H10.5811L9.8999 2.92163L9.89665 2.91675H4.37581C4.22277 2.91675 4.06764 2.98129 3.94694 3.10962C3.82505 3.23925 3.75005 3.42263 3.75 3.6215V14.2611C3.75 14.4601 3.82501 14.6442 3.94694 14.7738C4.06761 14.9021 4.22284 14.9667 4.37581 14.9667H4.99349V5.40047C4.99349 5.01932 5.1585 4.65355 5.45166 4.38403C5.74479 4.11467 6.14234 3.9633 6.5568 3.9633H13.4814C13.606 3.96464 13.7286 3.99347 13.8387 4.04712C13.9488 4.10087 14.0435 4.17835 14.1146 4.27254L17.3576 8.52466L16.8376 8.92261L17.3177 8.5564L17.3576 8.52466L17.3584 8.52629C17.4525 8.64507 17.502 8.78871 17.4992 8.93563V16.8971C17.4992 17.2782 17.3342 17.644 17.041 17.9135C16.7479 18.1829 16.3504 18.3342 15.9359 18.3342H6.5568C6.14228 18.3342 5.74481 18.1829 5.45166 17.9135C5.1585 17.644 4.99349 17.2782 4.99349 16.8971V16.2167H4.37581C3.8656 16.2167 3.38463 16.0003 3.0363 15.63C2.68917 15.2608 2.5 14.7676 2.5 14.2611V3.6215C2.50005 3.11508 2.68923 2.62261 3.0363 2.2535C3.38465 1.88303 3.86553 1.66675 4.37581 1.66675H9.9235ZM6.5568 5.2133C6.44139 5.2133 6.34943 5.25642 6.2972 5.30444C6.24856 5.34919 6.24349 5.3864 6.24349 5.40047V16.8971C6.24349 16.9111 6.24869 16.9484 6.2972 16.9931C6.34943 17.0411 6.44139 17.0842 6.5568 17.0842H15.9359C16.0513 17.0842 16.1432 17.0411 16.1955 16.9931C16.244 16.9484 16.2492 16.9111 16.2492 16.8971V9.13175L13.2609 5.2133H6.5568ZM17.3177 8.5564L16.8563 8.92342L17.3584 8.52629L17.3177 8.5564Z" fill="currentColor"/>
</svg>
