<svg width="14" height="14" viewBox="0 0 14 14" fill="none" xmlns="http://www.w3.org/2000/svg">
<path d="M10.1907 3.19074C10.3616 3.01989 10.6385 3.01989 10.8094 3.19074C10.9802 3.3616 10.9802 3.63854 10.8094 3.80939L7.61872 7.00007L10.8094 10.1907L10.8396 10.2238C10.9798 10.3956 10.9696 10.6492 10.8094 10.8094C10.6492 10.9696 10.3956 10.9798 10.2238 10.8396L10.1907 10.8094L7.00007 7.61872L3.80939 10.8094C3.63854 10.9802 3.3616 10.9802 3.19074 10.8094C3.01989 10.6385 3.01989 10.3616 3.19074 10.1907L6.38142 7.00007L3.19074 3.80939L3.16055 3.77635C3.02037 3.60451 3.03056 3.35093 3.19074 3.19074C3.35093 3.03056 3.60451 3.02037 3.77635 3.16055L3.80939 3.19074L7.00007 6.38142L10.1907 3.19074Z" fill="#555555"/>
</svg>
