<svg width="16" height="16" viewBox="0 0 16 16" fill="none" xmlns="http://www.w3.org/2000/svg">
<path d="M7.48516 14V2.90169L5.02292 5.4056L4.98516 5.4401C4.79011 5.60208 4.49988 5.59306 4.31524 5.41146C4.11859 5.21786 4.11596 4.90126 4.30938 4.70443L7.11081 1.85612L7.11212 1.85547L7.19936 1.77474C7.41235 1.59827 7.68127 1.5 7.96107 1.5C7.96716 1.5 7.97323 1.50121 7.9793 1.5013C7.98126 1.50128 7.9832 1.50065 7.98516 1.50065C8.00402 1.50065 8.02284 1.50252 8.04115 1.50456C8.29164 1.5215 8.52966 1.61536 8.72214 1.77474L8.81003 1.85547L8.81134 1.85612L11.6896 4.78255L11.7234 4.82096C11.8819 5.01858 11.868 5.30805 11.6837 5.48958C11.4992 5.67111 11.2089 5.68067 11.0138 5.51888L10.976 5.48372L8.48516 2.95052V14C8.48513 14.2761 8.26129 14.5 7.98516 14.5C7.70918 14.4998 7.4852 14.276 7.48516 14Z" fill="#555555"/>
</svg>
