<svg width="16" height="16" viewBox="0 0 16 16" fill="none" xmlns="http://www.w3.org/2000/svg">
<path d="M7.48509 2C7.48509 1.72396 7.70909 1.50017 7.98509 1.5C8.26123 1.5 8.48509 1.72386 8.48509 2V13.0488L10.976 10.5163L11.0137 10.4811C11.2088 10.3193 11.4991 10.3289 11.6837 10.5104C11.8802 10.7041 11.883 11.0207 11.6895 11.2174L8.81126 14.1432L8.80996 14.1445C8.60442 14.3523 8.33087 14.476 8.04043 14.4954C8.02232 14.4974 8.00372 14.4993 7.98509 14.4993C7.98313 14.4993 7.98118 14.4987 7.97923 14.4987C7.97315 14.4988 7.96709 14.5 7.961 14.5C7.64127 14.5 7.33627 14.3711 7.11204 14.1445L7.11074 14.1432L4.30931 11.2956L4.27545 11.2572C4.11709 11.0595 4.13083 10.77 4.31517 10.5885C4.49981 10.4069 4.79004 10.3979 4.98509 10.5599L5.02285 10.5944L7.48509 13.0977V2Z" fill="#555555"/>
</svg>
