<svg width="48" height="48" viewBox="0 0 48 48" fill="none" xmlns="http://www.w3.org/2000/svg">
<g clip-path="url(#clip0_3296_51067)">
<path d="M33.8029 20.6674C33.8029 20.6678 33.8029 20.6682 33.8029 20.6687C33.8029 20.6662 33.8029 20.6683 33.8028 20.6701C33.8028 20.6676 33.8027 20.6663 33.8027 20.6687C33.8027 20.5235 33.9529 22.2674 32.5652 23.6551C30.6889 25.5316 27.5635 25.2347 26.0738 23.0297C25.8496 22.6979 25.6674 22.3264 25.5422 21.9239C25.3243 21.2234 25.3522 20.6035 25.3522 20.6729C25.3522 20.5763 25.4106 21.5129 24.9354 22.4992C23.399 25.6879 18.8524 25.683 17.3184 22.4992C16.8431 21.5129 16.9016 20.5763 16.9016 20.6729C16.9016 20.6036 16.9295 21.2234 16.7117 21.9239C16.5922 22.3079 16.415 22.6819 16.18 23.0297C13.8641 26.4577 8.45126 24.8388 8.45126 20.6674C8.45126 20.6678 8.45126 20.6682 8.45126 20.6687C8.45126 20.6662 8.45126 20.6683 8.45116 20.6701C8.45116 20.6676 8.45107 20.6663 8.45107 20.6687C8.45107 20.6682 8.45107 20.6678 8.45107 20.6674C8.45107 23.0009 6.55957 24.8926 4.22585 24.8926C3.67141 24.8926 3.14238 24.7846 2.65723 24.5903C2.65723 30.7902 2.65723 31.1274 2.65723 35.1524V41.5487C2.65723 42.3043 3.2697 42.9167 4.02532 42.9167C5.3261 42.9167 36.4144 42.9167 38.2289 42.9167C38.9845 42.9167 39.597 42.3043 39.597 41.5487C39.597 41.2413 39.597 25.0123 39.597 24.5903C36.8252 25.6999 33.8029 23.6542 33.8029 20.6674Z" fill="#176CF7"/>
<path d="M7.44487 33.8933H34.808C35.5633 33.8933 36.1759 33.2807 36.1759 32.5251V24.9491C34.9717 24.3608 34.0894 23.2171 33.8614 21.8516H33.7432C33.409 23.8512 31.6716 25.3758 29.5771 25.3758C27.4825 25.3758 25.7447 23.8512 25.4107 21.8516H25.2926C24.9585 23.8512 23.2209 25.3758 21.1265 25.3758C19.0317 25.3758 17.2942 23.8512 16.9602 21.8516H16.8423C16.5081 23.8512 14.7704 25.3758 12.676 25.3758C10.5814 25.3758 8.84343 23.8512 8.50959 21.8516H8.39165C8.16356 23.217 7.28127 24.3608 6.07715 24.949V32.525C6.07687 33.2806 6.68934 33.8933 7.44487 33.8933Z" fill="#6EDCF9"/>
<path d="M7.89102 31.9695V23.25C7.47102 23.9822 6.83887 24.577 6.07715 24.9491V32.5252C6.07715 33.2808 6.68962 33.8933 7.44515 33.8933H9.81468C8.75231 33.8934 7.89102 33.0321 7.89102 31.9695Z" fill="#49B5CE"/>
<path d="M6.07715 30.2979V32.5244C6.07715 33.28 6.68962 33.8926 7.44515 33.8926H34.8082C35.5636 33.8926 36.1761 33.28 36.1761 32.5244V30.2979H6.07715Z" fill="#134368"/>
<path d="M7.89102 31.9689V30.2979H6.07715V32.5244C6.07715 33.28 6.68962 33.8926 7.44515 33.8926H9.81468C8.75231 33.8928 7.89102 33.0314 7.89102 31.9689Z" fill="#3683B2"/>
<path d="M0 18.3271V21.1506C0 23.4841 1.89159 25.3757 4.22494 25.3757C6.55884 25.3757 8.45044 23.484 8.45044 21.1506V18.3271H0Z" fill="url(#paint0_linear_3296_51067)"/>
<path d="M1.93059 21.1506V18.3271H0V21.1506C0 23.8611 2.52478 25.8867 5.19037 25.2637C3.32231 24.8269 1.93059 23.1517 1.93059 21.1506Z" fill="url(#paint1_linear_3296_51067)"/>
<path d="M8.4502 18.3271V21.1506C8.4502 23.4841 10.3422 25.3757 12.6757 25.3757C15.0089 25.3757 16.9009 23.484 16.9009 21.1506V18.3271H8.4502Z" fill="url(#paint2_linear_3296_51067)"/>
<path d="M16.9014 18.3271V21.1506C16.9014 23.4841 18.793 25.3757 21.1266 25.3757C23.46 25.3757 25.3518 23.484 25.3518 21.1506V18.3271H16.9014Z" fill="url(#paint3_linear_3296_51067)"/>
<path d="M25.3516 18.3271V21.1506C25.3516 23.4841 27.2433 25.3757 29.5771 25.3757C31.9106 25.3757 33.8022 23.484 33.8022 21.1506V18.3271H25.3516Z" fill="url(#paint4_linear_3296_51067)"/>
<path d="M33.8027 18.3271V21.1506C33.8027 23.4841 35.6945 25.3757 38.028 25.3757C40.3616 25.3757 42.2533 23.484 42.2533 21.1506V18.3271H33.8027Z" fill="url(#paint5_linear_3296_51067)"/>
<path d="M10.3808 21.1506V18.3271H8.4502V21.1506C8.4502 23.4841 10.3418 25.3757 12.6751 25.3757C13.0075 25.3757 13.3304 25.3362 13.6406 25.2637C11.7726 24.8269 10.3808 23.1517 10.3808 21.1506Z" fill="url(#paint6_linear_3296_51067)"/>
<path d="M18.832 21.1506V18.3271H16.9014V21.1506C16.9014 23.4841 18.793 25.3757 21.1263 25.3757C21.4586 25.3757 21.7815 25.3362 22.0917 25.2637C20.2238 24.8269 18.832 23.1517 18.832 21.1506Z" fill="url(#paint7_linear_3296_51067)"/>
<path d="M18.832 21.1506V18.3271H16.9014V21.1506C16.9014 23.4841 18.793 25.3757 21.1263 25.3757C21.4586 25.3757 21.7815 25.3362 22.0917 25.2637C20.2238 24.8269 18.832 23.1517 18.832 21.1506Z" fill="url(#paint8_linear_3296_51067)"/>
<path d="M27.2822 21.1506V18.3271H25.3516V21.1506C25.3516 23.8611 27.8763 25.8867 30.5418 25.2637C28.6739 24.8269 27.2822 23.1517 27.2822 21.1506Z" fill="url(#paint9_linear_3296_51067)"/>
<path d="M35.7333 21.1506V18.3271H33.8027V21.1506C33.8027 23.8611 36.3275 25.8867 38.9931 25.2637C37.125 24.8269 35.7333 23.1517 35.7333 21.1506Z" fill="url(#paint10_linear_3296_51067)"/>
<path d="M40.8749 47.9861C44.8099 47.9861 47.9998 44.7962 47.9998 40.8612C47.9998 36.9263 44.8099 33.7363 40.8749 33.7363C36.9399 33.7363 33.75 36.9263 33.75 40.8612C33.75 44.7962 36.9399 47.9861 40.8749 47.9861Z" fill="url(#paint11_linear_3296_51067)"/>
<path d="M35.7326 40.8617C35.7326 37.2633 38.4007 34.2897 41.8661 33.807C37.5527 33.2074 33.75 36.5524 33.75 40.8617C33.75 45.1638 37.5454 48.5171 41.8661 47.9164C38.4007 47.4338 35.7326 44.4601 35.7326 40.8617Z" fill="url(#paint12_linear_3296_51067)"/>
<path d="M37.7355 43.9312C37.4528 43.6484 37.4528 43.19 37.7355 42.9073L42.9913 37.6514C43.2741 37.3688 43.7325 37.3688 44.0153 37.6514C44.298 37.9343 44.298 38.3926 44.0153 38.6755L38.7594 43.9313C38.4766 44.2139 38.0183 44.2139 37.7355 43.9312Z" fill="#EAE9E8"/>
<path d="M42.9913 43.9313L37.7355 38.6755C37.4528 38.3926 37.4528 37.9343 37.7355 37.6514C38.0183 37.3688 38.4767 37.3688 38.7593 37.6514L44.0152 42.9073C44.2979 43.1901 44.2979 43.6484 44.0152 43.9312C43.7323 44.214 43.2741 44.2139 42.9913 43.9313Z" fill="#EAE9E8"/>
<path d="M38.5553 12.4312C38.5515 12.4259 37.5564 11.1777 35.8496 11.1777C34.5011 11.1777 7.64231 11.1777 6.40313 11.1777C4.6965 11.1777 3.70163 12.4261 3.69769 12.4312L0 18.3269C0.706125 18.3269 41.5508 18.3269 42.2529 18.3269L38.5553 12.4312Z" fill="url(#paint13_linear_3296_51067)"/>
<path d="M1.21453 16.3906L0 18.3271C0.706125 18.3271 41.5508 18.3271 42.2529 18.3271L41.0385 16.3906C40.377 16.3906 1.83056 16.3906 1.21453 16.3906Z" fill="url(#paint14_linear_3296_51067)"/>
<path d="M10.8595 11.1738H17.9576L16.8507 18.3232H8.64551L10.8595 11.1738Z" fill="url(#paint15_linear_3296_51067)"/>
<path d="M9.24401 16.3906L8.64551 18.3233H16.8507L17.1499 16.3906H9.24401Z" fill="url(#paint16_linear_3296_51067)"/>
<path d="M31.3942 11.1719H24.2959L25.4027 18.3212H33.608L31.3942 11.1719Z" fill="url(#paint17_linear_3296_51067)"/>
<path d="M25.4024 18.3212H33.6077L33.0098 16.3906H25.1035L25.4024 18.3212Z" fill="url(#paint18_linear_3296_51067)"/>
<path d="M33.0078 6.74952C33.0078 7.37389 32.5017 7.87977 31.8776 7.87977H10.3751C9.75099 7.87977 9.24512 7.37389 9.24512 6.74952V1.14383C9.24512 0.519641 9.75099 0.0136719 10.3751 0.0136719H31.8776C32.5018 0.0136719 33.0078 0.519734 33.0078 1.14383V6.74952Z" fill="url(#paint19_linear_3296_51067)"/>
<path d="M11.0456 6.74952V1.14383C11.0456 0.519641 11.5515 0.0136719 12.1756 0.0136719H10.3751C9.75099 0.0136719 9.24512 0.519734 9.24512 1.14383V6.74952C9.24512 7.37389 9.75099 7.87977 10.3751 7.87977H12.1756C11.5516 7.87986 11.0456 7.37389 11.0456 6.74952Z" fill="url(#paint20_linear_3296_51067)"/>
<path d="M14.9243 4.62476C14.819 4.56194 14.6832 4.58801 14.6088 4.68551C14.2545 5.14638 13.2788 5.18079 13.0014 4.32195C12.7894 3.66841 13.0945 2.6562 14.1184 2.84613C14.3325 2.88588 14.5086 2.99679 14.6162 3.13395C14.6958 3.23529 14.8409 3.25629 14.9458 3.18148C15.4426 2.82813 15.4904 2.81951 15.5103 2.69004C15.5475 2.44741 14.9281 1.81348 13.8998 1.81348C12.0082 1.81348 11.1086 3.97226 12.3624 5.34307C13.6453 6.74838 15.6559 5.5856 15.552 5.09013C15.5241 4.95635 15.47 4.95082 14.9243 4.62476Z" fill="#EAE9E8"/>
<path d="M18.8159 4.98748H17.1787V2.07823C17.1787 1.94491 17.0707 1.83691 16.9374 1.83691H16.2823C16.149 1.83691 16.041 1.94491 16.041 2.07823V5.73795C16.041 5.87126 16.149 5.97926 16.2823 5.97926H18.816C18.9493 5.97926 19.0573 5.87126 19.0573 5.73795V5.22888C19.0573 5.09548 18.9492 4.98748 18.8159 4.98748Z" fill="#EAE9E8"/>
<path d="M21.2919 1.81348C19.4464 1.81348 18.4782 3.99035 19.7516 5.3577C20.4223 6.07854 21.4186 6.15429 22.1176 5.83901C24.2139 4.89335 23.5119 1.81348 21.2919 1.81348ZM21.7063 4.90854C21.2896 5.13035 20.5943 5.01345 20.3876 4.31923C20.2471 3.84963 20.3431 3.18232 20.8516 2.91635C21.2895 2.68657 21.9713 2.84182 22.1671 3.49666C22.3096 3.97535 22.2058 4.64248 21.7063 4.90854Z" fill="#EAE9E8"/>
<path d="M24.9608 3.14955C24.7493 2.93833 25.0651 2.54139 26.1295 3.07595C26.2474 3.13539 26.3909 3.08889 26.4519 2.97198L26.7123 2.47267C26.7762 2.35014 26.7243 2.1993 26.599 2.14164C24.0582 0.983172 23.2432 3.12958 23.9805 3.91689C24.5266 4.50077 25.7017 4.43908 25.7017 4.8242C25.7017 5.15327 24.8897 4.97655 24.4608 4.77573C24.2487 4.68077 24.1943 4.6173 24.0676 4.65845C23.9416 4.69905 23.9434 4.74433 23.6517 5.33852C23.5927 5.4587 23.6428 5.6043 23.7641 5.66252C24.2175 5.87936 24.826 6.03142 25.3384 6.03142C26.9025 6.03142 27.1109 4.85111 26.8395 4.21717C26.5038 3.43333 25.2307 3.41983 24.9608 3.14955Z" fill="#EAE9E8"/>
<path d="M30.1396 4.98729H28.5665V4.33385H29.8303C29.9636 4.33385 30.0716 4.22585 30.0716 4.09254V3.65332C30.0716 3.52001 29.9636 3.41201 29.8303 3.41201H28.5665V2.8286H30.0871C30.2204 2.8286 30.3284 2.7206 30.3284 2.58729V2.07823C30.3284 1.94491 30.2204 1.83691 30.0871 1.83691H27.67C27.5367 1.83691 27.4287 1.94491 27.4287 2.07823V5.73795C27.4287 5.87126 27.5367 5.97926 27.67 5.97926H30.1396C30.2729 5.97926 30.3809 5.87126 30.3809 5.73795V5.22888C30.381 5.09529 30.2729 4.98729 30.1396 4.98729Z" fill="#EAE9E8"/>
<path d="M12.0159 11.8971C11.6161 11.8971 11.292 11.573 11.292 11.1731V7.87921C11.292 7.47927 11.6162 7.15527 12.0159 7.15527C12.4158 7.15527 12.7399 7.47937 12.7399 7.87921V11.1731C12.7399 11.5731 12.4158 11.8971 12.0159 11.8971Z" fill="#EAE9E8"/>
<path d="M30.4242 11.8971C30.0244 11.8971 29.7002 11.573 29.7002 11.1731V7.87921C29.7002 7.47927 30.0244 7.15527 30.4242 7.15527C30.8241 7.15527 31.1483 7.47937 31.1483 7.87921V11.1731C31.1483 11.5731 30.8241 11.8971 30.4242 11.8971Z" fill="#EAE9E8"/>
</g>
<defs>
<linearGradient id="paint0_linear_3296_51067" x1="3.02807" y1="27.0023" x2="9.51718" y2="22.7718" gradientUnits="userSpaceOnUse">
<stop stop-color="#770000"/>
<stop offset="0.51" stop-color="#BF0808"/>
<stop offset="1" stop-color="#770000"/>
</linearGradient>
<linearGradient id="paint1_linear_3296_51067" x1="1.85988" y1="27.0039" x2="6.75499" y2="25.0441" gradientUnits="userSpaceOnUse">
<stop stop-color="#770000"/>
<stop offset="0.51" stop-color="#BF0808"/>
<stop offset="1" stop-color="#770000"/>
</linearGradient>
<linearGradient id="paint2_linear_3296_51067" x1="8.4502" y1="21.8514" x2="16.9009" y2="21.8514" gradientUnits="userSpaceOnUse">
<stop stop-color="#D29A00"/>
<stop offset="0.35" stop-color="#FFD664"/>
<stop offset="0.69" stop-color="#D09C0C"/>
<stop offset="1" stop-color="#FFDA71"/>
</linearGradient>
<linearGradient id="paint3_linear_3296_51067" x1="19.9294" y1="27.0023" x2="26.4185" y2="22.7718" gradientUnits="userSpaceOnUse">
<stop stop-color="#770000"/>
<stop offset="0.51" stop-color="#BF0808"/>
<stop offset="1" stop-color="#770000"/>
</linearGradient>
<linearGradient id="paint4_linear_3296_51067" x1="25.3516" y1="21.8514" x2="33.8022" y2="21.8514" gradientUnits="userSpaceOnUse">
<stop stop-color="#D29A00"/>
<stop offset="0.35" stop-color="#FFD664"/>
<stop offset="0.69" stop-color="#D09C0C"/>
<stop offset="1" stop-color="#FFDA71"/>
</linearGradient>
<linearGradient id="paint5_linear_3296_51067" x1="36.8308" y1="27.0023" x2="43.32" y2="22.7718" gradientUnits="userSpaceOnUse">
<stop stop-color="#770000"/>
<stop offset="0.51" stop-color="#BF0808"/>
<stop offset="1" stop-color="#770000"/>
</linearGradient>
<linearGradient id="paint6_linear_3296_51067" x1="8.4502" y1="21.8514" x2="13.6406" y2="21.8514" gradientUnits="userSpaceOnUse">
<stop stop-color="#D29A00"/>
<stop offset="0.35" stop-color="#FFD664"/>
<stop offset="0.69" stop-color="#D09C0C"/>
<stop offset="1" stop-color="#FFDA71"/>
</linearGradient>
<linearGradient id="paint7_linear_3296_51067" x1="18.7613" y1="27.0023" x2="23.6561" y2="25.0423" gradientUnits="userSpaceOnUse">
<stop stop-color="#770000"/>
<stop offset="0.51" stop-color="#BF0808"/>
<stop offset="1" stop-color="#770000"/>
</linearGradient>
<linearGradient id="paint8_linear_3296_51067" x1="18.7613" y1="27.0023" x2="23.6561" y2="25.0423" gradientUnits="userSpaceOnUse">
<stop stop-color="#770000"/>
<stop offset="0.51" stop-color="#BF0808"/>
<stop offset="1" stop-color="#770000"/>
</linearGradient>
<linearGradient id="paint9_linear_3296_51067" x1="25.3516" y1="21.8521" x2="30.5418" y2="21.8521" gradientUnits="userSpaceOnUse">
<stop stop-color="#D29A00"/>
<stop offset="0.35" stop-color="#FFD664"/>
<stop offset="0.69" stop-color="#D09C0C"/>
<stop offset="1" stop-color="#FFDA71"/>
</linearGradient>
<linearGradient id="paint10_linear_3296_51067" x1="35.6626" y1="27.0039" x2="40.5577" y2="25.0441" gradientUnits="userSpaceOnUse">
<stop stop-color="#770000"/>
<stop offset="0.51" stop-color="#BF0808"/>
<stop offset="1" stop-color="#770000"/>
</linearGradient>
<linearGradient id="paint11_linear_3296_51067" x1="38.8562" y1="51.2746" x2="50.8908" y2="44.7303" gradientUnits="userSpaceOnUse">
<stop stop-color="#770000"/>
<stop offset="0.51" stop-color="#BF0808"/>
<stop offset="1" stop-color="#770000"/>
</linearGradient>
<linearGradient id="paint12_linear_3296_51067" x1="36.6583" y1="51.2744" x2="44.7621" y2="48.7643" gradientUnits="userSpaceOnUse">
<stop stop-color="#770000"/>
<stop offset="0.51" stop-color="#BF0808"/>
<stop offset="1" stop-color="#770000"/>
</linearGradient>
<linearGradient id="paint13_linear_3296_51067" x1="0" y1="14.7523" x2="42.2529" y2="14.7523" gradientUnits="userSpaceOnUse">
<stop stop-color="#D29A00"/>
<stop offset="0.35" stop-color="#FFD664"/>
<stop offset="0.69" stop-color="#D09C0C"/>
<stop offset="1" stop-color="#FFDA71"/>
</linearGradient>
<linearGradient id="paint14_linear_3296_51067" x1="0" y1="17.3589" x2="42.2529" y2="17.3589" gradientUnits="userSpaceOnUse">
<stop stop-color="#D29A00"/>
<stop offset="0.35" stop-color="#FFD664"/>
<stop offset="0.69" stop-color="#D09C0C"/>
<stop offset="1" stop-color="#FFDA71"/>
</linearGradient>
<linearGradient id="paint15_linear_3296_51067" x1="11.9823" y1="19.9731" x2="18.7681" y2="15.1668" gradientUnits="userSpaceOnUse">
<stop stop-color="#770000"/>
<stop offset="0.51" stop-color="#BF0808"/>
<stop offset="1" stop-color="#770000"/>
</linearGradient>
<linearGradient id="paint16_linear_3296_51067" x1="11.6929" y1="18.7693" x2="13.0765" y2="15.4584" gradientUnits="userSpaceOnUse">
<stop stop-color="#770000"/>
<stop offset="0.51" stop-color="#BF0808"/>
<stop offset="1" stop-color="#770000"/>
</linearGradient>
<linearGradient id="paint17_linear_3296_51067" x1="27.6327" y1="19.971" x2="34.4185" y2="15.1647" gradientUnits="userSpaceOnUse">
<stop stop-color="#770000"/>
<stop offset="0.51" stop-color="#BF0808"/>
<stop offset="1" stop-color="#770000"/>
</linearGradient>
<linearGradient id="paint18_linear_3296_51067" x1="28.1508" y1="18.7667" x2="29.532" y2="15.4584" gradientUnits="userSpaceOnUse">
<stop stop-color="#770000"/>
<stop offset="0.51" stop-color="#BF0808"/>
<stop offset="1" stop-color="#770000"/>
</linearGradient>
<linearGradient id="paint19_linear_3296_51067" x1="17.7601" y1="9.69502" x2="24.7906" y2="-1.85432" gradientUnits="userSpaceOnUse">
<stop stop-color="#770000"/>
<stop offset="0.51" stop-color="#BF0808"/>
<stop offset="1" stop-color="#770000"/>
</linearGradient>
<linearGradient id="paint20_linear_3296_51067" x1="10.2952" y1="9.69502" x2="13.3755" y2="9.071" gradientUnits="userSpaceOnUse">
<stop stop-color="#770000"/>
<stop offset="0.51" stop-color="#BF0808"/>
<stop offset="1" stop-color="#770000"/>
</linearGradient>
<clipPath id="clip0_3296_51067">
<rect width="48" height="48" fill="white"/>
</clipPath>
</defs>
</svg>
