<svg width="40" height="40" viewBox="0 0 40 40" fill="none" xmlns="http://www.w3.org/2000/svg">
<g clip-path="url(#clip0_1845_591336)">
<path d="M0.00308228 25.0653C0.0149326 24.6291 0.0639915 24.1937 0.152393 23.7616C0.45582 22.2787 1.20055 21.0537 2.36146 20.0816C2.68817 19.808 3.00647 19.524 3.33934 19.2583C4.05545 18.6865 4.76149 18.7326 5.42149 19.3663C5.80899 19.7384 6.12842 20.1713 6.42224 20.6191C6.5744 20.851 6.74226 21.088 6.869 21.335C7.20934 21.9994 7.65005 22.5873 7.78722 23.3621C7.91235 24.0688 7.73116 24.6863 7.20946 25.1757C6.81295 25.5476 6.40393 25.9156 5.95771 26.2233C5.06894 26.8363 4.94588 27.6089 5.28806 28.5745C5.47096 29.0906 5.73481 29.5724 6.03717 30.0279C6.60936 30.8902 7.27505 31.6812 7.99418 32.4335C8.7888 33.2649 9.77136 34.2366 10.9317 34.5018C11.5185 34.6359 12.0162 34.4733 12.4485 34.0615C12.873 33.657 13.2956 33.2487 13.7424 32.8695C14.4774 32.2455 15.2949 32.212 16.1227 32.6522C17.2365 33.2445 18.1172 34.1255 19.0298 34.9959C19.2135 35.171 19.3585 35.3961 19.4861 35.6185C19.8307 36.2193 19.7931 36.8104 19.3013 37.291C18.6286 37.9484 17.9603 38.6194 17.136 39.1003C16.0985 39.7053 14.982 40.0024 13.7805 40.0002C12.3124 39.9976 10.9618 39.5682 9.681 38.8866C8.14213 38.0677 6.81798 36.9659 5.60215 35.7305C4.19149 34.2971 2.91356 32.7546 1.86748 31.0311C1.00994 29.6182 0.343716 28.1275 0.0923729 26.4778C0.0209751 26.0082 -0.00971603 25.5363 0.00308228 25.0653Z" fill="url(#paint0_linear_1845_591336)"/>
<path d="M0.0918255 26.4775C0.343584 28.1272 1.00957 29.618 1.86735 31.0313C2.91337 32.7549 4.19095 34.297 5.60178 35.7305C6.81767 36.9659 8.1417 38.0675 9.68081 38.8862C10.9615 39.5681 12.3124 39.9976 13.78 40.0001C14.9818 40.0025 16.0981 39.705 17.1356 39.1001C17.9464 38.6272 18.6068 37.9697 19.2686 37.3227C18.9184 37.6282 18.5506 37.9111 18.1437 38.1488C17.1062 38.7537 15.9899 39.0506 14.7887 39.0488C13.3205 39.0457 11.9696 38.6162 10.689 37.935C9.14986 37.1162 7.82583 36.014 6.60994 34.7785C5.19917 33.3451 3.92153 31.803 2.87551 30.0794C2.01767 28.6668 1.35169 27.1759 1.09999 25.5262C1.02847 25.0563 0.997957 24.5846 1.01081 24.1136C1.02302 23.6773 1.0719 23.2423 1.16048 22.8097C1.3902 21.6842 1.87476 20.7073 2.60301 19.877C2.52297 19.9454 2.44232 20.0138 2.36109 20.0817C1.20018 21.0537 0.455391 22.2788 0.151728 23.7617C0.0637398 24.1937 0.014267 24.6293 0.00265312 25.0656C-0.0102043 25.5366 0.0203686 26.0083 0.0918255 26.4775Z" fill="url(#paint1_linear_1845_591336)"/>
<g clip-path="url(#clip1_1845_591336)">
<path d="M24.656 30.5591C16.2173 30.5591 9.37644 23.7182 9.37644 15.2796C9.37644 6.84089 16.2173 0 24.656 0C33.0947 0 39.9355 6.84089 39.9355 15.2796C39.9355 23.7182 33.0947 30.5591 24.656 30.5591Z" fill="#E2F2FF"/>
<path d="M25.541 6.60254H1.92385C0.68551 6.60254 -0.318359 7.60521 -0.318359 8.84206V16.1689C-0.318359 17.4057 0.68551 18.4084 1.92385 18.4084H25.541C26.7793 18.4084 27.7832 17.4057 27.7832 16.1689V8.84206C27.7832 7.60521 26.7793 6.60254 25.541 6.60254Z" fill="url(#paint2_linear_1845_591336)"/>
<path d="M29.6632 14.3222L33.8297 15.1526C33.8897 15.165 33.9518 15.1638 34.0113 15.1491C34.0708 15.1345 34.1262 15.1068 34.1737 15.068C34.2213 15.029 34.2598 14.9799 34.2861 14.9243C34.3125 14.8687 34.3262 14.8078 34.3262 14.7463V13.709C34.3267 13.3248 34.2512 12.9443 34.1039 12.5894C33.9565 12.2346 33.7404 11.9124 33.4678 11.6413C32.9247 11.0563 32.217 10.6492 31.4377 10.4737C30.7376 10.3995 30.0341 10.3619 29.3301 10.3608V13.9163C29.3295 14.0124 29.3628 14.1056 29.4242 14.1796C29.4845 14.2539 29.5692 14.3045 29.6632 14.3222Z" fill="url(#paint3_linear_1845_591336)"/>
<path d="M33.9091 15.2893C33.8728 15.2893 33.8366 15.2858 33.8011 15.2786L29.6355 14.4482C29.5122 14.4242 29.4011 14.3578 29.3216 14.2605C29.2412 14.1634 29.1976 14.0412 29.1983 13.9152V10.2307H29.3274C30.0377 10.2309 30.7473 10.269 31.4535 10.3449C32.2612 10.5216 32.995 10.9419 33.5558 11.5488C33.8408 11.8315 34.0668 12.168 34.2207 12.5385C34.3747 12.909 34.4535 13.3063 34.4527 13.7074V14.7448C34.4526 14.8253 34.4347 14.9047 34.4003 14.9775C34.3659 15.0502 34.3158 15.1146 34.2536 15.1658C34.1565 15.2455 34.0348 15.2891 33.9091 15.2893ZM29.4557 10.4901V13.9152C29.4556 13.9806 29.4783 14.0438 29.5198 14.0943C29.561 14.1457 29.6192 14.1809 29.6839 14.1934L33.8504 15.0238C33.8918 15.0325 33.9347 15.0317 33.9759 15.0216C34.017 15.0116 34.0553 14.9925 34.0881 14.9656C34.1213 14.9386 34.1481 14.9043 34.1662 14.8655C34.1844 14.8267 34.1936 14.7845 34.193 14.7417V13.7042C34.194 13.3369 34.122 12.9731 33.9812 12.6338C33.8404 12.2945 33.6336 11.9867 33.3728 11.7277C32.8508 11.16 32.1675 10.765 31.4145 10.5962C30.7643 10.5264 30.1109 10.4911 29.457 10.4901H29.4557Z" fill="url(#paint4_linear_1845_591336)"/>
<path d="M35.1364 18.982C35.1412 18.9402 35.1438 18.8981 35.144 18.856V13.7823C35.1449 13.2596 35.0424 12.7419 34.8423 12.2588C34.6422 11.7758 34.3485 11.3369 33.9781 10.9676C33.2388 10.1697 32.2742 9.61528 31.2121 9.37763C30.2587 9.27709 29.3008 9.2257 28.3421 9.22388V16.8951H28.3201V18.982H-0.129883V20.516H35.1561V18.982H35.1364ZM29.3286 10.3603C30.0327 10.3611 30.7362 10.3988 31.4363 10.4731C32.2156 10.6485 32.9234 11.0556 33.4664 11.6408C33.739 11.9118 33.9551 12.234 34.1025 12.5888C34.2498 12.9437 34.3253 13.3243 34.3247 13.7084V14.7457C34.3248 14.8073 34.3112 14.8682 34.2848 14.9239C34.2584 14.9796 34.22 15.0288 34.1722 15.0679C34.1248 15.1066 34.0693 15.1341 34.0098 15.1488C33.9503 15.1634 33.8883 15.1648 33.8283 15.1525L29.6618 14.3221C29.5677 14.3043 29.483 14.2535 29.4228 14.179C29.3613 14.1051 29.3279 14.0119 29.3286 13.9157V10.3603Z" fill="url(#paint5_linear_1845_591336)"/>
<path d="M10.9535 22.7426C12.3959 22.7426 13.5652 21.5747 13.5652 20.134C13.5652 18.6933 12.3959 17.5254 10.9535 17.5254C9.5111 17.5254 8.3418 18.6933 8.3418 20.134C8.3418 21.5747 9.5111 22.7426 10.9535 22.7426Z" fill="url(#paint6_linear_1845_591336)"/>
<path d="M10.9546 21.6103C11.7709 21.6103 12.4327 20.9493 12.4327 20.134C12.4327 19.3187 11.7709 18.6577 10.9546 18.6577C10.1383 18.6577 9.47656 19.3187 9.47656 20.134C9.47656 20.9493 10.1383 21.6103 10.9546 21.6103Z" fill="#307CFE"/>
<path d="M30.7504 22.7426C32.1928 22.7426 33.3621 21.5747 33.3621 20.134C33.3621 18.6933 32.1928 17.5254 30.7504 17.5254C29.308 17.5254 28.1387 18.6933 28.1387 20.134C28.1387 21.5747 29.308 22.7426 30.7504 22.7426Z" fill="url(#paint7_linear_1845_591336)"/>
<path d="M30.7535 21.6103C31.5698 21.6103 32.2315 20.9493 32.2315 20.134C32.2315 19.3187 31.5698 18.6577 30.7535 18.6577C29.9371 18.6577 29.2754 19.3187 29.2754 20.134C29.2754 20.9493 29.9371 21.6103 30.7535 21.6103Z" fill="#307CFE"/>
<path d="M9.46639 16.5394V8.57011C9.46639 8.49903 9.40877 8.44141 9.33769 8.44141C9.26661 8.44141 9.20898 8.49903 9.20898 8.57011V16.5394C9.20898 16.6105 9.26661 16.6681 9.33769 16.6681C9.40877 16.6681 9.46639 16.6105 9.46639 16.5394Z" fill="url(#paint8_linear_1845_591336)"/>
<path d="M10.9234 16.5394V8.57011C10.9234 8.49903 10.8658 8.44141 10.7947 8.44141C10.7236 8.44141 10.666 8.49903 10.666 8.57011V16.5394C10.666 16.6105 10.7236 16.6681 10.7947 16.6681C10.8658 16.6681 10.9234 16.6105 10.9234 16.5394Z" fill="url(#paint9_linear_1845_591336)"/>
<path d="M12.3824 16.5394V8.57011C12.3824 8.49903 12.3248 8.44141 12.2537 8.44141C12.1826 8.44141 12.125 8.49903 12.125 8.57011V16.5394C12.125 16.6105 12.1826 16.6681 12.2537 16.6681C12.3248 16.6681 12.3824 16.6105 12.3824 16.5394Z" fill="url(#paint10_linear_1845_591336)"/>
<path d="M13.8414 16.5394V8.57011C13.8414 8.49903 13.7838 8.44141 13.7127 8.44141C13.6416 8.44141 13.584 8.49903 13.584 8.57011V16.5394C13.584 16.6105 13.6416 16.6681 13.7127 16.6681C13.7838 16.6681 13.8414 16.6105 13.8414 16.5394Z" fill="url(#paint11_linear_1845_591336)"/>
<path d="M15.2984 16.5394V8.57011C15.2984 8.49903 15.2408 8.44141 15.1697 8.44141C15.0986 8.44141 15.041 8.49903 15.041 8.57011V16.5394C15.041 16.6105 15.0986 16.6681 15.1697 16.6681C15.2408 16.6681 15.2984 16.6105 15.2984 16.5394Z" fill="url(#paint12_linear_1845_591336)"/>
<path d="M16.7574 16.5394V8.57011C16.7574 8.49903 16.6998 8.44141 16.6287 8.44141C16.5576 8.44141 16.5 8.49903 16.5 8.57011V16.5394C16.5 16.6105 16.5576 16.6681 16.6287 16.6681C16.6998 16.6681 16.7574 16.6105 16.7574 16.5394Z" fill="url(#paint13_linear_1845_591336)"/>
<path d="M18.2164 16.5394V8.57011C18.2164 8.49903 18.1588 8.44141 18.0877 8.44141C18.0166 8.44141 17.959 8.49903 17.959 8.57011V16.5394C17.959 16.6105 18.0166 16.6681 18.0877 16.6681C18.1588 16.6681 18.2164 16.6105 18.2164 16.5394Z" fill="url(#paint14_linear_1845_591336)"/>
<path d="M19.6724 16.5394V8.57011C19.6724 8.49903 19.6148 8.44141 19.5437 8.44141C19.4727 8.44141 19.415 8.49903 19.415 8.57011V16.5394C19.415 16.6105 19.4727 16.6681 19.5437 16.6681C19.6148 16.6681 19.6724 16.6105 19.6724 16.5394Z" fill="url(#paint15_linear_1845_591336)"/>
<path d="M21.1305 16.5394V8.57011C21.1305 8.49903 21.0728 8.44141 21.0017 8.44141C20.9307 8.44141 20.873 8.49903 20.873 8.57011V16.5394C20.873 16.6105 20.9307 16.6681 21.0017 16.6681C21.0728 16.6681 21.1305 16.6105 21.1305 16.5394Z" fill="url(#paint16_linear_1845_591336)"/>
<path d="M22.5875 16.5394V8.57011C22.5875 8.49903 22.5299 8.44141 22.4588 8.44141C22.3877 8.44141 22.3301 8.49903 22.3301 8.57011V16.5394C22.3301 16.6105 22.3877 16.6681 22.4588 16.6681C22.5299 16.6681 22.5875 16.6105 22.5875 16.5394Z" fill="url(#paint17_linear_1845_591336)"/>
<path d="M24.0465 16.5394V8.57011C24.0465 8.49903 23.9888 8.44141 23.9178 8.44141C23.8467 8.44141 23.7891 8.49903 23.7891 8.57011V16.5394C23.7891 16.6105 23.8467 16.6681 23.9178 16.6681C23.9888 16.6681 24.0465 16.6105 24.0465 16.5394Z" fill="url(#paint18_linear_1845_591336)"/>
<path d="M25.5035 16.5394V8.57011C25.5035 8.49903 25.4459 8.44141 25.3748 8.44141C25.3037 8.44141 25.2461 8.49903 25.2461 8.57011V16.5394C25.2461 16.6105 25.3037 16.6681 25.3748 16.6681C25.4459 16.6681 25.5035 16.6105 25.5035 16.5394Z" fill="url(#paint19_linear_1845_591336)"/>
<path d="M34.594 22.8398H-0.0247784C-0.333619 22.8398 -0.583984 23.0898 -0.583984 23.3982C-0.583984 23.7065 -0.333619 23.9565 -0.0247784 23.9565H34.594C34.9028 23.9565 35.1532 23.7065 35.1532 23.3982C35.1532 23.0898 34.9028 22.8398 34.594 22.8398Z" fill="url(#paint20_linear_1845_591336)"/>
</g>
</g>
<defs>
<linearGradient id="paint0_linear_1845_591336" x1="9.85657" y1="18.8584" x2="9.85657" y2="40.0002" gradientUnits="userSpaceOnUse">
<stop stop-color="#176CF7"/>
<stop offset="1" stop-color="#0C36C1"/>
</linearGradient>
<linearGradient id="paint1_linear_1845_591336" x1="12.3639" y1="44.6439" x2="-4.22403" y2="36.0065" gradientUnits="userSpaceOnUse">
<stop stop-color="#176CF7"/>
<stop offset="1" stop-color="#0C36C1"/>
</linearGradient>
<linearGradient id="paint2_linear_1845_591336" x1="0.227168" y1="5.88605" x2="0.227168" y2="19.6401" gradientUnits="userSpaceOnUse">
<stop stop-color="#0060FF"/>
<stop offset="1" stop-color="#3581FF"/>
</linearGradient>
<linearGradient id="paint3_linear_1845_591336" x1="31.8281" y1="10.3608" x2="31.8281" y2="15.1611" gradientUnits="userSpaceOnUse">
<stop stop-color="#FBC428"/>
<stop offset="1" stop-color="#FFDF84"/>
</linearGradient>
<linearGradient id="paint4_linear_1845_591336" x1="31.0811" y1="16.4567" x2="35.4402" y2="13.9945" gradientUnits="userSpaceOnUse">
<stop stop-color="#FFBC00"/>
<stop offset="1" stop-color="#FFD14F"/>
</linearGradient>
<linearGradient id="paint5_linear_1845_591336" x1="27.9522" y1="19.3145" x2="32.6276" y2="11.2995" gradientUnits="userSpaceOnUse">
<stop stop-color="#307CFE"/>
<stop offset="1" stop-color="#1D4A98"/>
</linearGradient>
<linearGradient id="paint6_linear_1845_591336" x1="10.9535" y1="17.5254" x2="10.9535" y2="22.7426" gradientUnits="userSpaceOnUse">
<stop stop-color="#183E7F"/>
<stop offset="1" stop-color="#032A6E"/>
</linearGradient>
<linearGradient id="paint7_linear_1845_591336" x1="30.7504" y1="17.5254" x2="30.7504" y2="22.7426" gradientUnits="userSpaceOnUse">
<stop stop-color="#183E7F"/>
<stop offset="1" stop-color="#00286B"/>
</linearGradient>
<linearGradient id="paint8_linear_1845_591336" x1="9.33769" y1="8.44141" x2="9.33769" y2="16.6681" gradientUnits="userSpaceOnUse">
<stop stop-color="#FBC428"/>
<stop offset="1" stop-color="#FFDF84"/>
</linearGradient>
<linearGradient id="paint9_linear_1845_591336" x1="10.7947" y1="8.44141" x2="10.7947" y2="16.6681" gradientUnits="userSpaceOnUse">
<stop stop-color="#FBC428"/>
<stop offset="1" stop-color="#FFDF84"/>
</linearGradient>
<linearGradient id="paint10_linear_1845_591336" x1="12.2537" y1="8.44141" x2="12.2537" y2="16.6681" gradientUnits="userSpaceOnUse">
<stop stop-color="#FBC428"/>
<stop offset="1" stop-color="#FFDF84"/>
</linearGradient>
<linearGradient id="paint11_linear_1845_591336" x1="13.7127" y1="8.44141" x2="13.7127" y2="16.6681" gradientUnits="userSpaceOnUse">
<stop stop-color="#FBC428"/>
<stop offset="1" stop-color="#FFDF84"/>
</linearGradient>
<linearGradient id="paint12_linear_1845_591336" x1="15.1697" y1="8.44141" x2="15.1697" y2="16.6681" gradientUnits="userSpaceOnUse">
<stop stop-color="#FBC428"/>
<stop offset="1" stop-color="#FFDF84"/>
</linearGradient>
<linearGradient id="paint13_linear_1845_591336" x1="16.6287" y1="8.44141" x2="16.6287" y2="16.6681" gradientUnits="userSpaceOnUse">
<stop stop-color="#FBC428"/>
<stop offset="1" stop-color="#FFDF84"/>
</linearGradient>
<linearGradient id="paint14_linear_1845_591336" x1="18.0877" y1="8.44141" x2="18.0877" y2="16.6681" gradientUnits="userSpaceOnUse">
<stop stop-color="#FBC428"/>
<stop offset="1" stop-color="#FFDF84"/>
</linearGradient>
<linearGradient id="paint15_linear_1845_591336" x1="19.5437" y1="8.44141" x2="19.5437" y2="16.6681" gradientUnits="userSpaceOnUse">
<stop stop-color="#FBC428"/>
<stop offset="1" stop-color="#FFDF84"/>
</linearGradient>
<linearGradient id="paint16_linear_1845_591336" x1="21.0017" y1="8.44141" x2="21.0017" y2="16.6681" gradientUnits="userSpaceOnUse">
<stop stop-color="#FBC428"/>
<stop offset="1" stop-color="#FFDF84"/>
</linearGradient>
<linearGradient id="paint17_linear_1845_591336" x1="22.4588" y1="8.44141" x2="22.4588" y2="16.6681" gradientUnits="userSpaceOnUse">
<stop stop-color="#FBC428"/>
<stop offset="1" stop-color="#FFDF84"/>
</linearGradient>
<linearGradient id="paint18_linear_1845_591336" x1="23.9178" y1="8.44141" x2="23.9178" y2="16.6681" gradientUnits="userSpaceOnUse">
<stop stop-color="#FBC428"/>
<stop offset="1" stop-color="#FFDF84"/>
</linearGradient>
<linearGradient id="paint19_linear_1845_591336" x1="25.3748" y1="8.44141" x2="25.3748" y2="16.6681" gradientUnits="userSpaceOnUse">
<stop stop-color="#FBC428"/>
<stop offset="1" stop-color="#FFDF84"/>
</linearGradient>
<linearGradient id="paint20_linear_1845_591336" x1="16.3372" y1="21.0214" x2="16.263" y2="24.7321" gradientUnits="userSpaceOnUse">
<stop stop-color="#0C1F40"/>
<stop offset="1" stop-color="#1F50A6"/>
</linearGradient>
<clipPath id="clip0_1845_591336">
<rect width="40" height="40" fill="white" transform="matrix(-1 0 0 1 40 0)"/>
</clipPath>
<clipPath id="clip1_1845_591336">
<rect width="30.5591" height="30.5591" rx="15.2796" transform="matrix(-1 0 0 1 39.9355 0)" fill="white"/>
</clipPath>
</defs>
</svg>
