<svg width="14" height="14" viewBox="0 0 14 14" fill="none" xmlns="http://www.w3.org/2000/svg">
<path d="M4.37842 9.16296C3.97239 9.16296 3.64305 9.49182 3.64299 9.89783C3.64299 9.91156 3.64395 9.9253 3.64469 9.93884C3.64635 9.95254 3.64776 9.96637 3.64811 9.98043C3.68913 10.3476 4.00026 10.6333 4.37842 10.6333C4.71119 10.6332 4.99191 10.4119 5.08252 10.1086C5.06679 10.0635 5.05689 10.0155 5.05689 9.96505C5.05689 9.89622 5.07357 9.83158 5.10189 9.77364C5.04275 9.4269 4.74201 9.163 4.37842 9.16296ZM9.34815 9.16296C8.94213 9.16298 8.61277 9.49183 8.61271 9.89783C8.6161 9.91976 8.61841 9.94217 8.61841 9.96505C8.61841 9.96982 8.61742 9.97456 8.61727 9.97929C8.65774 10.3471 8.96958 10.6332 9.34815 10.6333C9.75421 10.6333 10.0836 10.3039 10.0836 9.89783C10.0835 9.49182 9.75417 9.16296 9.34815 9.16296ZM8.52669 7.58215V4.95886C8.51851 4.92543 8.51302 4.89057 8.51302 4.85461C8.51304 4.81858 8.51846 4.78386 8.52669 4.75037V3.96423C8.52669 3.88413 8.51121 3.80468 8.48055 3.73067C8.44992 3.65673 8.40496 3.58961 8.34839 3.533C8.29174 3.47635 8.22416 3.43149 8.15015 3.40084C8.09472 3.37789 8.03645 3.36286 7.97697 3.35697L7.91716 3.35413H2.79761C2.63582 3.35413 2.48077 3.4186 2.36637 3.533C2.25197 3.6474 2.1875 3.80245 2.1875 3.96423V8.94421C2.18752 9.10598 2.25199 9.26106 2.36637 9.37545C2.48077 9.4898 2.63586 9.55432 2.79761 9.55432H2.80615C2.96367 8.83024 3.60713 8.28796 4.37842 8.28796C5.14008 8.288 5.77638 8.81702 5.94385 9.52755H7.78272C7.95019 8.81701 8.58647 8.28798 9.34815 8.28796C10.1027 8.28796 10.7338 8.80718 10.9084 9.50761H11.8262V7.22498L11.8193 7.14465C11.8061 7.06555 11.7743 6.99028 11.7259 6.92533L10.5501 5.36161L10.5216 5.33256C10.511 5.32394 10.4993 5.31637 10.4869 5.31034C10.4623 5.29841 10.4351 5.29209 10.4077 5.29211H9.40169V7.58215C9.40169 7.82378 9.20582 8.01965 8.96419 8.01965C8.72269 8.01952 8.52669 7.82369 8.52669 7.58215ZM9.40169 4.41711H10.4071L10.5262 4.42395C10.645 4.43734 10.7611 4.47118 10.8691 4.52364C10.9771 4.57606 11.0752 4.64607 11.1591 4.731L11.2383 4.821L11.244 4.82841L12.4255 6.39954L12.426 6.40068L12.4887 6.49125C12.6257 6.70877 12.6995 6.9613 12.7012 7.21985V9.84029C12.7012 9.98411 12.6439 10.122 12.5422 10.2237C12.4405 10.3253 12.3027 10.3826 12.1589 10.3826H10.884C10.6783 11.035 10.0685 11.5083 9.34815 11.5083C8.63522 11.5083 8.03157 11.0445 7.81974 10.4025H5.90625C5.69439 11.0444 5.09126 11.5082 4.37842 11.5083C3.67552 11.5083 3.0794 11.0572 2.8597 10.4293H2.79761C2.40379 10.4293 2.02621 10.2725 1.74772 9.9941C1.46924 9.71562 1.31252 9.33804 1.3125 8.94421V3.96423C1.3125 3.57038 1.46923 3.19284 1.74772 2.91435C2.02622 2.63585 2.40376 2.47913 2.79761 2.47913H7.91716L8.06242 2.48653C8.20746 2.50081 8.34997 2.53596 8.48511 2.59192C8.66528 2.66655 8.82915 2.77645 8.96704 2.91435C9.10483 3.05218 9.2143 3.21566 9.2889 3.39571C9.36353 3.57588 9.40169 3.76922 9.40169 3.96423V4.41711Z" fill="currentColor"/>
</svg>
