<svg width="14" height="14" viewBox="0 0 14 14" fill="none" xmlns="http://www.w3.org/2000/svg">
<path fill-rule="evenodd" clip-rule="evenodd" d="M5.15799 2.57145L3.58086 2.15642C2.71681 1.92904 1.92832 2.71754 2.1557 3.58158L2.57073 5.15872L1.16213 5.9804C0.390373 6.43062 0.390374 7.54572 1.16213 7.99588L2.57073 8.81756L2.1557 10.3947C1.92832 11.2588 2.71682 12.0472 3.58086 11.8199L5.15798 11.4048L5.97973 12.8135C6.42989 13.5853 7.54499 13.5853 7.9952 12.8135L8.81689 11.4049L10.394 11.8199C11.258 12.0472 12.0465 11.2588 11.8191 10.3947L11.4041 8.81762L12.8128 7.99588C13.5846 7.54572 13.5846 6.43062 12.8128 5.9804L11.4041 5.15866L11.8191 3.58156C12.0465 2.71752 11.258 1.92902 10.394 2.15641L8.81689 2.57143L7.9952 1.1628C7.54499 0.391045 6.42989 0.391045 5.97973 1.1628L5.15799 2.57145Z" fill="#0FBB81"/>
<path d="M6.30371 8.74926C6.19463 8.74751 6.09021 8.70901 6.01134 8.6414L4.21583 7.10478C4.17489 7.06996 4.14209 7.02813 4.11935 6.98182C4.09661 6.93544 4.08438 6.88557 4.08338 6.83493C4.08238 6.78436 4.09261 6.73408 4.1135 6.68706C4.13439 6.64004 4.16551 6.59717 4.20505 6.56106C4.28537 6.48768 4.39467 6.4455 4.50936 6.44369C4.62405 6.44188 4.73494 6.48056 4.81808 6.55138L6.30015 7.81919L9.15289 4.80426C9.22738 4.72663 9.33279 4.67822 9.44665 4.66942C9.56046 4.66062 9.67363 4.69212 9.76183 4.75718C9.8054 4.78939 9.84134 4.82905 9.86764 4.87383C9.89389 4.91861 9.90999 4.96762 9.91501 5.01802C9.91997 5.06843 9.91373 5.1192 9.89658 5.16742C9.87949 5.21564 9.85184 5.26033 9.81532 5.2989L6.67961 8.61404C6.63872 8.65721 6.58774 8.69186 6.53034 8.71554C6.47299 8.73923 6.41052 8.75142 6.34729 8.7513C6.33276 8.7513 6.31824 8.7506 6.30371 8.74926Z" fill="white"/>
</svg>
