<svg width="14" height="14" viewBox="0 0 14 14" fill="none" xmlns="http://www.w3.org/2000/svg">
<path d="M5.67737 2.28774C6.32637 1.28859 7.82984 1.32182 8.422 2.38743L12.2723 9.31851L12.3242 9.41934C12.8179 10.4685 12.0553 11.7019 10.8704 11.702H3.16915C1.946 11.702 1.17264 10.3878 1.76665 9.31851L5.61756 2.38743L5.67737 2.28774ZM7.65695 2.8124C7.39645 2.34386 6.74851 2.31467 6.43958 2.72467L6.38204 2.8124L2.5317 9.74347C2.26169 10.2295 2.61318 10.827 3.16915 10.827H10.8704C11.3916 10.8269 11.733 10.3018 11.5512 9.83576L11.5079 9.74347L7.65695 2.8124ZM6.58257 8.93057V8.92373C6.58265 8.68226 6.77861 8.48636 7.02007 8.48623C7.26164 8.48623 7.45748 8.68218 7.45757 8.92373V8.93057C7.45749 9.17213 7.26164 9.36807 7.02007 9.36807C6.7786 9.36793 6.58264 9.17204 6.58257 8.93057ZM6.58257 7.1817V5.4317C6.58257 5.19016 6.77855 4.99434 7.02007 4.9942C7.26169 4.9942 7.45757 5.19008 7.45757 5.4317V7.1817C7.45757 7.42333 7.26169 7.6192 7.02007 7.6192C6.77855 7.61907 6.58257 7.42325 6.58257 7.1817Z" fill="currentColor"/>
</svg>
