<svg width="14" height="14" viewBox="0 0 14 14" fill="none" xmlns="http://www.w3.org/2000/svg">
<path d="M5.67661 2.28756C6.3256 1.28841 7.82907 1.32164 8.42124 2.38725L12.2716 9.31832L12.3234 9.41915C12.8172 10.4683 12.0545 11.7017 10.8696 11.7018H3.16839C1.94524 11.7018 1.17188 10.3876 1.76588 9.31832L5.6168 2.38725L5.67661 2.28756ZM7.65618 2.81222C7.39568 2.34367 6.74775 2.31449 6.43882 2.72449L6.38128 2.81222L2.53094 9.74329C2.26093 10.2293 2.61241 10.8268 3.16839 10.8268H10.8696C11.3908 10.8267 11.7323 10.3017 11.5504 9.83558L11.5071 9.74329L7.65618 2.81222ZM6.5818 8.93038V8.92355C6.58189 8.68208 6.77784 8.48618 7.0193 8.48605C7.26087 8.48605 7.45672 8.682 7.4568 8.92355V8.93038C7.45673 9.17194 7.26088 9.36788 7.0193 9.36788C6.77784 9.36775 6.58188 9.17186 6.5818 8.93038ZM6.5818 7.18152V5.43152C6.5818 5.18998 6.77779 4.99415 7.0193 4.99402C7.26093 4.99402 7.4568 5.1899 7.4568 5.43152V7.18152C7.4568 7.42315 7.26093 7.61902 7.0193 7.61902C6.77779 7.61889 6.5818 7.42307 6.5818 7.18152Z" fill="#FF7A00"/>
</svg>