<svg width="24" height="24" viewBox="0 0 24 24" fill="none" xmlns="http://www.w3.org/2000/svg">
<path fill-rule="evenodd" clip-rule="evenodd" d="M12.2002 10.4551C13.201 10.5057 14.1506 10.9271 14.8623 11.6406C15.6213 12.4017 16.0479 13.4338 16.0488 14.5098V14.5215C15.8294 19.8912 8.17248 19.8935 7.94924 14.5225V14.5098L7.95412 14.3086C8.00447 13.3058 8.42411 12.3543 9.13576 11.6406C9.89496 10.8795 10.925 10.4511 11.999 10.4502L12.2002 10.4551ZM13.4229 12.0996C11.8032 11.1715 9.31363 11.9758 9.20607 14.5156C9.2085 15.2562 9.50327 15.9657 10.0254 16.4893C10.549 17.0142 11.2589 17.3097 11.999 17.3105L12.2744 17.2959C12.9134 17.2317 13.5144 16.9487 13.9727 16.4893C14.4948 15.9657 14.7886 15.2562 14.791 14.5156C14.767 13.9475 14.6226 13.4669 14.3965 13.0723L12.8594 14.6006L12.8584 14.6016C12.794 14.665 12.7175 14.715 12.6338 14.749C12.5501 14.783 12.4605 14.8003 12.3701 14.7998H12.3594C12.23 14.7945 12.104 14.753 11.9971 14.6797C11.8902 14.6064 11.8063 14.504 11.7549 14.3848C11.7035 14.2654 11.6873 14.1332 11.708 14.0049C11.7288 13.8768 11.7852 13.7572 11.8711 13.6602L11.877 13.6533L11.8838 13.6475L13.4229 12.0996Z" fill="currentColor"/>
<path fill-rule="evenodd" clip-rule="evenodd" d="M21.1963 2.9502C21.3676 2.95023 21.5317 3.01842 21.6524 3.13965C21.7731 3.26099 21.8408 3.42576 21.8408 3.59668V3.59863C21.8348 4.40468 21.5137 5.17661 20.9463 5.74707C20.3789 6.31742 19.6106 6.64034 18.8076 6.64648H16.2315V7.56445H18.0469C18.9097 7.56273 19.7426 7.88237 20.3838 8.46191C20.9448 8.969 21.3245 9.64321 21.4707 10.3809L21.5186 10.7012V10.7041L22.291 19.0391C22.3165 19.293 22.2882 19.5494 22.209 19.792C22.1294 20.0356 21.9997 20.2602 21.8281 20.4502C21.6567 20.64 21.4476 20.7922 21.2139 20.8955C20.9805 20.9987 20.7277 21.0499 20.4727 21.0488L3.51565 21.0498C3.26088 21.0482 3.00863 20.9937 2.77639 20.8887C2.54426 20.7837 2.33689 20.6306 2.16701 20.4404C1.99714 20.2501 1.86877 20.0261 1.79006 19.7832C1.71137 19.5403 1.68321 19.2834 1.709 19.0293L2.48147 10.708V10.7051L2.52932 10.3848C2.67481 9.64629 3.05405 8.97074 3.61525 8.46289C4.25655 7.88265 5.08981 7.56282 5.95315 7.56445H7.76857V6.64648H5.1924C4.38941 6.64034 3.62109 6.31742 3.05373 5.74707C2.48632 5.17662 2.16519 4.40467 2.1592 3.59863V3.59668L2.1719 3.46973C2.19658 3.34587 2.25724 3.23057 2.34768 3.13965C2.46837 3.01842 2.63242 2.95024 2.80373 2.9502H21.1963ZM5.74318 8.87598C5.27319 8.91848 4.82663 9.11275 4.47268 9.43262C4.06842 9.79809 3.81325 10.3023 3.75686 10.8467L2.99611 19.1562L2.99514 19.1621C2.9867 19.2374 2.99465 19.3136 3.0176 19.3857C3.04058 19.4579 3.07774 19.5249 3.12795 19.5811C3.17814 19.6371 3.24022 19.6815 3.30861 19.7119C3.37694 19.7422 3.45084 19.7573 3.52541 19.7568H20.4766L20.585 19.7471C20.6204 19.7397 20.6552 19.7278 20.6885 19.7129C20.7551 19.6829 20.8151 19.6385 20.8633 19.583L21.0889 19.7803L20.8692 19.5762C20.9194 19.522 20.9581 19.4572 20.9815 19.3867C21.0047 19.3164 21.0127 19.2417 21.0049 19.168L21.0039 19.1641L20.2285 10.8398C20.1705 10.2976 19.915 9.79554 19.5117 9.43164C19.1075 9.06693 18.5836 8.86572 18.041 8.86719H5.94533L5.74318 8.87598ZM9.05764 7.56445H14.9424V6.64648H9.05764V7.56445ZM3.57424 4.24316C3.67976 4.51122 3.84871 4.75122 4.07033 4.93945C4.38514 5.20672 4.7838 5.35314 5.19533 5.35352H18.8047C19.2158 5.34989 19.613 5.20227 19.9278 4.93555C20.1489 4.74805 20.3184 4.50967 20.4258 4.24316H3.57424Z" fill="currentColor"/>
</svg>
