<svg width="24" height="24" viewBox="0 0 24 24" fill="none" xmlns="http://www.w3.org/2000/svg">
<rect width="24" height="24" rx="4" />
<path fill-rule="evenodd" clip-rule="evenodd" d="M18.9466 2H5.05343C3.36707 2 2 3.3998 2 5.12687V5.15986V18.874C2 20.5841 3.34188 21.9744 5.00652 22H18.9392C20.626 22 21.9935 20.6002 21.9935 18.874L22 5.12687C22 3.3998 20.6334 2 18.9466 2ZM6.70577 20.3975L5.94774 20.4058C5.03027 20.4058 4.28657 19.6527 4.28657 18.7234L4.28223 18.591V5.89516L4.287 5.21154C4.32132 4.3122 5.00508 3.58821 5.90082 3.58821H7.44165C8.83783 3.58821 9.97032 4.80137 9.97032 6.23285C9.97032 6.94035 9.69274 7.58274 9.24313 8.04977L5.31177 12.0356L8.99639 15.7845C9.47163 16.2737 9.75877 16.9169 9.75877 17.6214C9.75877 19.1549 8.3917 20.3975 6.70577 20.3975ZM18.0316 20.3849L11.1619 20.3819C11.1619 20.3819 11.9565 18.6665 11.9565 17.6049C11.9565 16.3105 11.5229 15.1538 10.8448 14.3886L8.49512 11.9953L10.8935 9.51945C11.6072 8.84885 12.0816 7.65869 12.0816 6.30317C12.0816 5.22977 11.7844 4.27877 11.3062 3.58821H12.9708C14.3674 3.58821 15.4999 4.80137 15.4999 6.23285C15.4999 6.94035 15.2227 7.58274 14.7731 8.04977L10.9169 11.994L18.926 20.1545C18.6724 20.3142 18.3522 20.3849 18.0316 20.3849ZM19.7095 17.837L13.9697 11.9922L16.7034 9.216C17.2603 8.52109 17.6131 7.47374 17.6131 6.30312C17.6131 5.22277 17.3116 4.24877 16.829 3.55777L18.0527 3.59423C18.9702 3.59423 19.7139 4.3486 19.7139 5.27746L19.7095 17.837Z" fill="#00529C"/>
</svg>
