<svg width="24" height="24" viewBox="0 0 24 24" fill="none" xmlns="http://www.w3.org/2000/svg">
<rect width="24" height="24" rx="4" />
<path d="M16.5205 9.43213V18.3558H18.608V11.668C18.608 11.1685 18.3428 9.65954 16.5205 9.43213Z" fill="#0CA49D"/>
<path d="M5.4243 16.8027C5.68977 16.8027 5.90677 16.7689 6.07536 16.7012C6.24375 16.6335 6.37556 16.5459 6.47084 16.4384C6.56586 16.3308 6.6312 16.2093 6.66692 16.0739C6.70258 15.9387 6.72038 15.8012 6.72038 15.6619C6.72038 15.5026 6.69959 15.3592 6.65789 15.2317C6.61646 15.1043 6.54501 14.9969 6.44388 14.9092C6.34295 14.8216 6.20909 14.7538 6.04262 14.706C5.87616 14.6583 5.66606 14.6344 5.41234 14.6344H4.00943V16.8027H5.4243ZM4.00943 11.1339V13.2844H5.05577C5.27762 13.2844 5.47788 13.2685 5.65624 13.2366C5.83446 13.2047 5.98618 13.149 6.11095 13.0692C6.23572 12.9897 6.331 12.8802 6.39634 12.7408C6.46168 12.6014 6.49448 12.4262 6.49448 12.2151C6.49448 12.0081 6.46865 11.8358 6.41719 11.6984C6.3656 11.561 6.28631 11.4505 6.17934 11.3668C6.07237 11.2832 5.93651 11.2235 5.77217 11.1876C5.6077 11.1518 5.41235 11.1339 5.18658 11.1339H4.00943ZM5.18658 9.62256C5.78499 9.62256 6.29435 9.67843 6.71447 9.78983C7.13445 9.90143 7.47742 10.0586 7.74302 10.2617C8.00842 10.4649 8.20158 10.7118 8.32263 11.0024C8.44342 11.2932 8.50391 11.6177 8.50391 11.9762C8.50391 12.1713 8.47615 12.3595 8.42084 12.5407C8.36526 12.7219 8.27794 12.8911 8.15909 13.0483C8.04016 13.2057 7.88757 13.3501 7.70132 13.4815C7.51493 13.6129 7.29116 13.7264 7.02961 13.8219C7.60019 13.9613 8.02237 14.1863 8.29581 14.497C8.56925 14.8076 8.70616 15.2099 8.70616 15.7036C8.70616 16.0739 8.63478 16.4185 8.49202 16.7371C8.34939 17.0557 8.14016 17.3335 7.86473 17.5703C7.58937 17.8073 7.24946 17.9925 6.84514 18.1259C6.44103 18.2594 5.97921 18.326 5.46009 18.326H2V9.62256H5.18658Z" fill="#0CA49D"/>
<path d="M14.7467 11.3906C14.6872 11.4863 14.6249 11.5579 14.5594 11.6057C14.494 11.6535 14.4098 11.6774 14.3068 11.6774C14.2156 11.6774 14.1175 11.6485 14.0125 11.5907C13.9075 11.533 13.7885 11.4683 13.6559 11.3966C13.5231 11.3249 13.3714 11.2602 13.201 11.2024C13.0307 11.1447 12.8364 11.1159 12.6183 11.1159C12.2418 11.1159 11.9614 11.1965 11.7771 11.3578C11.5928 11.519 11.5006 11.7371 11.5006 12.0119C11.5006 12.1872 11.5562 12.3325 11.6671 12.4479C11.778 12.5634 11.9238 12.663 12.1042 12.7467C12.2845 12.8302 12.4907 12.907 12.7225 12.9766C12.9543 13.0464 13.191 13.124 13.4328 13.2096C13.6746 13.2953 13.9116 13.3958 14.1433 13.5112C14.3752 13.6267 14.5814 13.774 14.7616 13.9533C14.942 14.1325 15.0876 14.3505 15.1985 14.6073C15.3094 14.8642 15.365 15.1739 15.365 15.5362C15.365 15.9386 15.2958 16.3149 15.157 16.6652C15.0182 17.0157 14.817 17.3214 14.5535 17.5822C14.2898 17.8431 13.9649 18.0481 13.5786 18.1974C13.1921 18.3468 12.7531 18.4215 12.2617 18.4215C11.9922 18.4215 11.7176 18.3936 11.4383 18.3379C11.1588 18.2821 10.8884 18.2034 10.6268 18.1018C10.3652 18.0003 10.1194 17.8799 9.88959 17.7405C9.65951 17.6011 9.45945 17.4458 9.28906 17.2745L9.88355 16.3307C9.93123 16.263 9.99351 16.2063 10.0708 16.1605C10.1481 16.1147 10.2323 16.0918 10.3237 16.0918C10.4424 16.0918 10.5622 16.1296 10.6833 16.2053C10.8041 16.281 10.9409 16.3646 11.0935 16.4562C11.246 16.5478 11.4214 16.6314 11.6196 16.7071C11.8177 16.7827 12.0516 16.8206 12.3212 16.8206C12.6857 16.8206 12.9692 16.7399 13.1713 16.5787C13.3734 16.4173 13.4744 16.1615 13.4744 15.8111C13.4744 15.6079 13.4189 15.4428 13.308 15.3152C13.1971 15.1878 13.0513 15.0823 12.8711 14.9985C12.6905 14.915 12.4855 14.8413 12.2557 14.7776C12.0258 14.714 11.7899 14.6432 11.5483 14.5655C11.3064 14.4879 11.0706 14.3923 10.8408 14.2789C10.6108 14.1653 10.4057 14.016 10.2256 13.8309C10.045 13.6456 9.89935 13.4147 9.78846 13.1379C9.67757 12.8611 9.622 12.5196 9.622 12.1134C9.622 11.787 9.68733 11.4683 9.81821 11.1576C9.94909 10.847 10.1412 10.5703 10.3948 10.3274C10.6486 10.0845 10.9598 9.8903 11.3282 9.74486C11.6968 9.59954 12.1189 9.52686 12.5946 9.52686C12.8601 9.52686 13.1187 9.54782 13.3705 9.58967C13.6221 9.63138 13.861 9.69319 14.0869 9.77483C14.3129 9.85646 14.5238 9.95404 14.72 10.0675C14.9162 10.1811 15.0915 10.3094 15.2461 10.4528L14.7467 11.3906Z" fill="#0CA49D"/>
<path d="M18.8372 6.2156C18.8326 6.14264 18.8243 6.07082 18.8134 6C19.2805 6.48439 19.9475 6.76834 20.6699 6.72248C21.0154 6.70046 21.3385 6.60487 21.6261 6.45249C21.4027 6.84417 21.2869 7.30359 21.3174 7.78779C21.3551 8.38719 21.6104 8.92037 22.0004 9.31592C21.8009 9.27554 21.593 9.25999 21.3803 9.2736C20.5351 9.32727 19.8218 9.81907 19.444 10.5147C19.2948 9.48646 18.5012 8.68715 17.5088 8.51127C18.3473 8.0995 18.8998 7.20955 18.8372 6.2156Z" fill="#F9AD3C"/>
</svg>
