<svg width="24" height="24" viewBox="0 0 24 24" fill="none" xmlns="http://www.w3.org/2000/svg">
<rect width="24" height="24" rx="4" />
<path fill-rule="evenodd" clip-rule="evenodd" d="M8.82779 18.1753L11.8589 21.9883H4.35449L8.82779 18.1753ZM7.87563 16.9976L2.00534 22L2.00293 9.69705L7.87563 16.9976ZM22.0013 4.60919C22.0013 4.60919 20.7126 3.98947 19.2155 4.07997C17.5039 4.18237 16.072 4.84917 15.2488 5.72901C14.7308 6.28176 14.1582 6.95607 13.8706 7.68838C13.4535 8.74778 13.3644 10.1476 13.3644 10.1476C13.3644 10.1476 12.7658 9.63151 12.0158 8.12758C11.1438 6.37833 10.9053 5.31869 10.7871 4.10982C10.6819 3.04897 10.847 2 10.847 2H22.0013V4.60919ZM22.0015 8.097V15.8544C22.0015 15.8544 21.308 16.125 20.7424 16.125C20.1768 16.125 19.2135 16.0398 18.0948 15.415C16.9842 14.7953 16.3695 14.0455 15.8929 13.3661C15.4096 12.675 15.0105 11.7171 14.8919 11.0267C14.7965 10.4745 14.6938 9.09695 15.249 7.97738C15.5504 7.36979 16.3591 6.32835 17.9162 6.26914C19.1854 6.21964 19.8891 6.55862 20.5342 6.91822C21.7617 7.60394 22.0015 8.097 22.0015 8.097ZM9.85433 15.3097L11.8663 13.6061C11.2251 12.774 11.0556 12.4605 10.3388 11.3863C9.60497 10.2869 8.99024 9.0773 8.46456 7.65805C7.89556 6.12064 7.75813 5.25754 7.82095 4.10982C7.89965 2.64957 8.22652 2 8.22652 2H2L2.00289 5.40896C2.00289 5.40896 6.76911 11.4766 9.85433 15.3097ZM15.6033 21.9827H22.0002V17.2446C22.0002 17.2446 20.4136 17.9839 19.3822 18.0436C18.7682 18.08 18.1722 18.104 17.2107 17.8441C16.1417 17.5556 15.5345 17.2744 14.5438 16.4443C13.748 15.7785 12.8382 14.7953 12.8382 14.7953L10.8145 16.5093C11.7534 17.676 12.4468 18.5253 12.6591 18.7538C13.5718 19.7336 13.9586 20.0937 14.5734 20.4429C15.1879 20.7928 17.241 20.7739 17.241 20.7739L15.6033 21.9827Z" fill="#E94E0F"/>
</svg>
