<svg width="24" height="24" viewBox="0 0 24 24" fill="none" xmlns="http://www.w3.org/2000/svg">
<rect width="24" height="24" rx="4" />
<path fill-rule="evenodd" clip-rule="evenodd" d="M2.02108 13.1435C2.02108 12.8442 2.01581 12.593 2 12.3691H2.54855L2.57427 12.7538H2.58966C2.71399 12.5505 2.94136 12.3101 3.36547 12.3101C3.69651 12.3101 3.95508 12.5028 4.06349 12.7912H4.07414C4.16221 12.647 4.2653 12.5402 4.38414 12.4652C4.52392 12.3638 4.6843 12.3101 4.89116 12.3101C5.30995 12.3101 5.73375 12.6038 5.73375 13.4373V14.9702H5.11326V13.5336C5.11326 13.101 4.96869 12.8442 4.66374 12.8442C4.44618 12.8442 4.28569 13.0048 4.21892 13.1918C4.20321 13.2557 4.18771 13.3359 4.18771 13.4102V14.9702H3.56701V13.4639C3.56701 13.101 3.42761 12.8442 3.13278 12.8442C2.89487 12.8442 2.73475 13.0368 2.67773 13.2181C2.65169 13.2826 2.64126 13.3571 2.64126 13.4318V14.9702H2.02108V13.1435Z" fill="#003D79"/>
<path fill-rule="evenodd" clip-rule="evenodd" d="M8.15217 14.3453C8.15217 14.5802 8.1625 14.8095 8.18838 14.9702H7.61416L7.57295 14.6819H7.55724C7.40219 14.885 7.13845 15.029 6.81269 15.029C6.30577 15.029 6.02148 14.6501 6.02148 14.2546C6.02148 13.5973 6.58495 13.2665 7.51587 13.2717V13.2288C7.51587 13.0578 7.44857 12.7749 7.0039 12.7749C6.75555 12.7749 6.49688 12.8551 6.32633 12.9671L6.20205 12.5401C6.38857 12.4224 6.71466 12.3101 7.11252 12.3101C7.91959 12.3101 8.15217 12.8392 8.15217 13.4052V14.3453ZM7.5315 13.6991C7.08167 13.6883 6.65255 13.7898 6.65255 14.1851C6.65255 14.4413 6.81282 14.559 7.01457 14.559C7.26766 14.559 7.45413 14.388 7.51084 14.2011C7.52623 14.1531 7.5315 14.0994 7.5315 14.0569V13.6991Z" fill="#003D79"/>
<path fill-rule="evenodd" clip-rule="evenodd" d="M8.59108 13.1435C8.59108 12.8442 8.58539 12.593 8.57031 12.3691H9.12835L9.15955 12.759H9.17483C9.28356 12.5562 9.55763 12.3101 9.97642 12.3101C10.4161 12.3101 10.8712 12.6038 10.8712 13.4266V14.9702H10.2352V13.5016C10.2352 13.1274 10.1007 12.8442 9.75422 12.8442C9.50081 12.8442 9.32504 13.0312 9.25763 13.2289C9.23729 13.2878 9.23191 13.3681 9.23191 13.4424V14.9702H8.59108V13.1435Z" fill="#003D79"/>
<path fill-rule="evenodd" clip-rule="evenodd" d="M13.6288 11.3237V14.2381C13.6288 14.5052 13.639 14.7941 13.6494 14.9702H13.0805L13.055 14.559H13.0445C12.8944 14.8475 12.5888 15.029 12.2221 15.029C11.6224 15.029 11.1465 14.5003 11.1465 13.699C11.1413 12.8283 11.6687 12.31 12.2737 12.31C12.6201 12.31 12.8685 12.4598 12.9821 12.6522H12.9926V11.3237H13.6288ZM12.9923 13.4529C12.9923 13.4001 12.987 13.3357 12.977 13.2824C12.92 13.026 12.7182 12.8176 12.4286 12.8176C12.0201 12.8176 11.7925 13.1917 11.7925 13.6778C11.7925 14.153 12.0201 14.5003 12.4234 14.5003C12.6819 14.5003 12.9096 14.3187 12.9716 14.0357C12.987 13.9767 12.9923 13.9127 12.9923 13.843V13.4529Z" fill="#003D79"/>
<path fill-rule="evenodd" clip-rule="evenodd" d="M14.0781 14.9702H14.72V12.3691H14.0781V14.9702Z" fill="#003D79"/>
<path fill-rule="evenodd" clip-rule="evenodd" d="M15.1693 13.2072C15.1693 12.8548 15.1639 12.6034 15.1484 12.3686H15.7019L15.7221 12.8652H15.7436C15.8675 12.4967 16.1623 12.3686 16.4311 12.3686C16.493 12.3686 16.5292 12.3577 16.5811 12.3686V12.9457C16.5292 12.935 16.4724 12.9244 16.3948 12.9244C16.0898 12.9244 15.8828 13.1271 15.826 13.4207C15.8159 13.4795 15.8055 13.5493 15.8055 13.6244V14.97H15.1693V13.2072Z" fill="#003D79"/>
<path fill-rule="evenodd" clip-rule="evenodd" d="M16.877 14.9702H17.5179V12.3691H16.877V14.9702Z" fill="#003D79"/>
<path fill-rule="evenodd" clip-rule="evenodd" d="M16.7245 9.22407C16.3395 9.45435 15.4314 9.99232 15.0924 10.1927C14.8858 10.3014 14.4073 10.3488 14.1366 9.97191C14.1318 9.9651 13.7767 9.50678 13.7622 9.48952C13.752 9.47733 13.5224 9.12559 13.0109 9.1146C12.9353 9.11274 12.5595 9.11068 12.1928 9.32593C11.7055 9.61353 10.572 10.2829 10.572 10.2829C10.5717 10.2829 10.5717 10.2835 10.5711 10.2835C10.1052 10.5588 9.74219 10.7732 9.74219 10.7732L10.1711 11.3173C10.3717 11.5747 10.8242 11.7737 11.2166 11.5411C11.2166 11.5411 12.6664 10.6739 12.6718 10.6713C13.2988 10.3161 13.7826 10.3161 14.1038 10.4483C14.392 10.5741 14.6428 10.8876 14.6428 10.8876C14.6428 10.8876 14.9705 11.3071 15.0283 11.3805C15.2148 11.6176 15.5234 11.5244 15.5234 11.5244C15.5234 11.5244 15.6378 11.511 15.8102 11.4053C15.8102 11.4053 17.2145 10.5642 17.2154 10.5639C17.6614 10.2937 18.0704 10.2432 18.2794 10.2631C18.9341 10.3246 19.1375 10.797 19.4213 11.1266C19.5885 11.3204 19.7394 11.4305 19.97 11.425C20.1216 11.4216 20.2929 11.3267 20.3181 11.3095L21.9998 10.3071C21.9998 10.3071 21.8272 10.0387 21.4739 9.62099C21.1576 9.24835 20.8216 9.41695 20.5538 9.55398C20.4413 9.61146 20.0335 9.89161 19.6296 10.087C19.3418 10.2263 18.9284 10.1844 18.7018 9.8952C18.6883 9.87762 18.3217 9.41924 18.2832 9.36284C18.1352 9.17143 17.8466 9 17.4766 9C17.2517 9 16.9964 9.06337 16.7245 9.22407Z" fill="url(#paint0_linear_5480_28015)"/>
<defs>
<linearGradient id="paint0_linear_5480_28015" x1="9.74219" y1="11.6441" x2="21.9998" y2="11.6441" gradientUnits="userSpaceOnUse">
<stop stop-color="#FFCA06"/>
<stop offset="0.330844" stop-color="#FBAA18"/>
<stop offset="0.694742" stop-color="#FFC907"/>
<stop offset="1" stop-color="#FAA619"/>
</linearGradient>
</defs>
</svg>
