<svg width="16" height="16" viewBox="0 0 16 16" fill="none" xmlns="http://www.w3.org/2000/svg">
<path d="M4.74219 10.6562C5.07779 10.6904 5.34115 10.9734 5.34115 11.3196C5.34097 11.6876 5.04251 11.9863 4.67448 11.9863C4.32952 11.9863 4.04545 11.7239 4.01107 11.388L4.00781 11.3196C4.0071 10.9497 4.30759 10.653 4.67383 10.653L4.74219 10.6562Z" fill="white"/>
<path d="M8.07682 10.6562C8.41242 10.6904 8.67578 10.9734 8.67578 11.3196C8.67561 11.6876 8.37715 11.9863 8.00911 11.9863C7.66416 11.9863 7.38008 11.7239 7.3457 11.388L7.34245 11.3196C7.34173 10.9497 7.64222 10.653 8.00846 10.653L8.07682 10.6562Z" fill="white"/>
<path d="M8.07682 7.98956C8.41242 8.02372 8.67578 8.30674 8.67578 8.65297C8.67561 9.02097 8.37715 9.31964 8.00911 9.31964C7.66416 9.31964 7.38008 9.05723 7.3457 8.72133L7.34245 8.65297C7.34173 8.28299 7.64222 7.98566 8.00846 7.98566L8.07682 7.98956Z" fill="white"/>
<path d="M11.4115 7.98956C11.7471 8.02372 12.0104 8.30674 12.0104 8.65297C12.0102 9.02097 11.7118 9.31964 11.3438 9.31964C10.9988 9.31964 10.7147 9.05723 10.6803 8.72133L10.6771 8.65297C10.6764 8.28299 10.9769 7.98566 11.3431 7.98566L11.4115 7.98956Z" fill="white"/>
<path fill-rule="evenodd" clip-rule="evenodd" d="M10.6667 0.833313C10.9428 0.833313 11.1667 1.05717 11.1667 1.33331V2.16665H12.6667C13.6795 2.16665 14.5 2.98717 14.5 3.99998V12.6666C14.5 13.6795 13.6795 14.5 12.6667 14.5H3.33333C2.32052 14.5 1.5 13.6795 1.5 12.6666V3.99998C1.5 2.98717 2.32052 2.16665 3.33333 2.16665H4.83333V1.33331C4.83333 1.05717 5.05719 0.833314 5.33333 0.833313C5.60948 0.833313 5.83333 1.05717 5.83333 1.33331V2.16665H10.1667V1.33331C10.1667 1.05717 10.3905 0.833314 10.6667 0.833313ZM2.5 12.6666C2.5 13.1272 2.87281 13.5 3.33333 13.5H12.6667C13.1272 13.5 13.5 13.1272 13.5 12.6666V6.49998H2.5V12.6666ZM3.33333 3.16665C2.87281 3.16665 2.5 3.53946 2.5 3.99998V5.49998H13.5V3.99998C13.5 3.53946 13.1272 3.16665 12.6667 3.16665H11.1667V3.99998C11.1667 4.27612 10.9428 4.49998 10.6667 4.49998C10.3905 4.49998 10.1667 4.27612 10.1667 3.99998V3.16665H5.83333V3.99998C5.83333 4.27612 5.60948 4.49998 5.33333 4.49998C5.05719 4.49998 4.83333 4.27612 4.83333 3.99998V3.16665H3.33333Z" fill="white"/>
</svg>
