<svg width="16" height="16" viewBox="0 0 16 16" fill="none" xmlns="http://www.w3.org/2000/svg">
<path fill-rule="evenodd" clip-rule="evenodd" d="M9.33269 2.1647C9.97709 2.1647 10.4999 2.68701 10.5 3.33137V3.49869H12.431C13.1808 3.49869 13.8555 3.95497 14.1341 4.65103L14.597 5.80793C14.599 5.8127 14.601 5.81742 14.6029 5.82226L15.0378 6.9095L15.0944 7.07421C15.1435 7.24149 15.1686 7.41556 15.1686 7.59048V8.65754C15.1687 8.66074 15.1693 8.6641 15.1693 8.66731C15.1693 8.66948 15.1687 8.67165 15.1686 8.67382V11.6686C15.1684 12.3128 14.6462 12.8351 14.002 12.8353H13.0794C13.0704 12.861 13.0613 12.8867 13.0508 12.9121C12.833 13.4377 12.3384 13.7918 11.7774 13.834L11.6647 13.8379C11.0959 13.8379 10.5793 13.517 10.3255 13.015L10.2787 12.9121C10.2682 12.8867 10.259 12.861 10.25 12.8353H5.7435C5.73447 12.861 5.72536 12.8867 5.71485 12.9121C5.49708 13.4377 5.00245 13.7918 4.44142 13.834L4.32879 13.8379C3.722 13.8379 3.17503 13.4726 2.94272 12.9121C2.93221 12.8867 2.92311 12.861 2.91407 12.8353H1.9961C1.35188 12.8351 0.829654 12.3128 0.829437 11.6686V3.33137C0.829587 2.6871 1.35184 2.16485 1.9961 2.1647H9.33269ZM4.32879 11.8372C4.22924 11.8372 4.1324 11.8668 4.05079 11.9212L3.97462 11.9837C3.88323 12.0751 3.83306 12.1962 3.82879 12.3203C3.82893 12.3252 3.83009 12.3303 3.83009 12.3353C3.83009 12.3368 3.82945 12.3383 3.82944 12.3398C3.82973 12.4037 3.84118 12.468 3.86655 12.5293C3.94404 12.7162 4.12643 12.8379 4.32879 12.8379L4.40366 12.8327C4.57512 12.8067 4.72329 12.6928 4.79103 12.5293C4.85871 12.3657 4.83407 12.1806 4.73113 12.041L4.6823 11.9837L4.60613 11.9212C4.52463 11.8669 4.42818 11.8373 4.32879 11.8372ZM11.6647 11.8372C11.5652 11.8372 11.4683 11.8668 11.3867 11.9212L11.3106 11.9837C11.2216 12.0727 11.1712 12.1898 11.1647 12.3105C11.1651 12.3187 11.1673 12.327 11.1673 12.3353C11.1673 12.3405 11.1655 12.3457 11.1654 12.3509C11.167 12.4111 11.1786 12.4715 11.2025 12.5293L11.2357 12.5963C11.3253 12.7449 11.4876 12.8379 11.6647 12.8379L11.7396 12.8327C11.911 12.8067 12.0592 12.6928 12.127 12.5293C12.1947 12.3656 12.1702 12.18 12.0671 12.0404L12.0182 11.9837L11.9421 11.9212C11.8606 11.8669 11.7641 11.8373 11.6647 11.8372ZM10.5 9.33397C10.5 9.36404 10.496 9.39326 10.4909 9.42186C10.4904 9.42489 10.4902 9.42797 10.4896 9.43098C10.4881 9.43877 10.485 9.44611 10.4831 9.45377C10.4772 9.47737 10.4713 9.50063 10.4622 9.52278C10.4577 9.53388 10.4513 9.54399 10.446 9.55468C10.4374 9.57201 10.4291 9.58934 10.4186 9.60546C10.4106 9.61785 10.401 9.62902 10.3919 9.64061C10.3823 9.65291 10.3727 9.66509 10.362 9.67642C10.3516 9.68739 10.3401 9.69703 10.3288 9.70702C10.3159 9.71838 10.3031 9.72958 10.2891 9.73957C10.2792 9.74662 10.2689 9.75278 10.2585 9.7591C10.242 9.76912 10.2253 9.77835 10.2077 9.78645C10.196 9.79183 10.184 9.79629 10.1719 9.80077C10.1546 9.80713 10.1372 9.8126 10.1192 9.81705C10.0967 9.82257 10.0743 9.82899 10.0508 9.83137L10 9.83397H1.82944V11.6686C1.82965 11.7605 1.90416 11.8351 1.9961 11.8353H2.91537C2.98772 11.632 3.10446 11.4428 3.26238 11.2832L3.26173 11.2825L3.26759 11.2767L3.37761 11.1771C3.64462 10.9583 3.98056 10.8372 4.32879 10.8372C4.70885 10.8373 5.0725 10.9834 5.34962 11.2415L5.35157 11.2422L5.38933 11.2767L5.46616 11.3594C5.58856 11.5016 5.68051 11.6636 5.74155 11.8353H10.252C10.3129 11.6639 10.4046 11.5021 10.5267 11.36L10.6035 11.2767L10.7136 11.1771C10.9805 10.9583 11.3165 10.8372 11.6647 10.8372C12.0448 10.8373 12.4084 10.9834 12.6856 11.2415L12.6875 11.2422L12.7253 11.2767L12.8021 11.3594C12.9245 11.5016 13.0164 11.6636 13.0775 11.8353H14.002C14.0939 11.8351 14.1684 11.7605 14.1686 11.6686V9.16731H12.3346C11.8745 9.16723 11.5014 8.79352 11.5013 8.33332V5.99934L11.5039 5.94791C11.5297 5.69593 11.7425 5.49934 12.0013 5.49934H13.3965L13.2057 5.02278C13.0791 4.70622 12.772 4.49869 12.431 4.49869H10.5V9.33397ZM1.9961 3.1647C1.90412 3.16485 1.82959 3.23939 1.82944 3.33137V8.83397H9.50001V3.33137C9.49986 3.2393 9.4248 3.1647 9.33269 3.1647H1.9961ZM12.5013 6.49934V8.16731H14.1686V7.59048C14.1686 7.51113 14.157 7.43201 14.1348 7.35611L14.1087 7.28124L13.7962 6.49934H12.5013Z" fill="white"/>
</svg>
