<svg width="16" height="16" viewBox="0 0 16 16" fill="none" xmlns="http://www.w3.org/2000/svg">
<path d="M10.651 6.1543C10.6647 6.15474 10.6785 6.15608 10.6921 6.1582L10.7077 6.16016C10.7118 6.16102 10.716 6.16241 10.7201 6.16341C10.7273 6.16519 10.7344 6.16766 10.7415 6.16992C10.751 6.17293 10.7605 6.17588 10.7695 6.17969C10.7796 6.18391 10.7891 6.18942 10.7988 6.19466C10.8072 6.19922 10.8156 6.20374 10.8236 6.20898C10.8285 6.21222 10.8331 6.21588 10.8379 6.2194C10.8491 6.22768 10.8597 6.23651 10.8698 6.24609C10.8718 6.24799 10.8743 6.24934 10.8763 6.2513C10.8791 6.25412 10.8814 6.25752 10.8841 6.26042C10.8917 6.26855 10.8989 6.27695 10.9056 6.28581C10.9119 6.29406 10.9178 6.30252 10.9232 6.3112C10.927 6.31728 10.9302 6.32374 10.9336 6.33008C10.9394 6.34093 10.9447 6.35198 10.9492 6.36328C10.9516 6.36923 10.9537 6.37539 10.9557 6.38151C10.9597 6.39349 10.9629 6.40569 10.9655 6.41797C10.9669 6.4244 10.9684 6.43094 10.9694 6.4375C10.9713 6.44978 10.9722 6.46223 10.9727 6.47461C10.9728 6.47866 10.9739 6.4829 10.974 6.48698V8.21745C10.9739 8.40142 10.8246 8.5506 10.6406 8.55078C10.4565 8.55078 10.3073 8.40153 10.3073 8.21745V7.29167L8.45312 9.14583C8.39071 9.20822 8.30569 9.24339 8.21745 9.24349C8.12909 9.24346 8.04425 9.20831 7.98177 9.14583L6.83268 7.99675L5.33789 9.49219L5.28581 9.53451C5.15647 9.61996 4.98047 9.60597 4.86654 9.49219C4.73644 9.36203 4.73645 9.15034 4.86654 9.02018L6.59701 7.29036L6.64779 7.2487C6.70208 7.21253 6.76648 7.19273 6.83268 7.19271C6.92098 7.19277 7.0059 7.22794 7.06836 7.29036L8.2168 8.4388L9.83594 6.82031H8.91016C8.72607 6.82031 8.57683 6.67107 8.57682 6.48698C8.57693 6.30298 8.72613 6.15365 8.91016 6.15365H10.6406L10.651 6.1543Z" fill="white"/>
<path fill-rule="evenodd" clip-rule="evenodd" d="M11.5638 2C12.7676 2.00003 13.7435 2.97592 13.7435 4.17969V11.5638C13.7435 12.7676 12.7676 13.7435 11.5638 13.7435H4.17969C2.97592 13.7435 2.00003 12.7676 2 11.5638V4.17969C2 2.9759 2.9759 2 4.17969 2H11.5638ZM4.17969 3C3.34409 3 3 3.34409 3 4.17969V11.3333C3.00003 12.1689 3.34411 12.6667 4.17969 12.6667H11.5638C12.3994 12.6666 12.6666 12.3994 12.6667 11.5638V4.17969C12.6667 3.34411 12.3994 3.00003 11.5638 3H4.17969Z" fill="white"/>
</svg>
