<svg width="16" height="16" viewBox="0 0 16 16" fill="none" xmlns="http://www.w3.org/2000/svg">
<path d="M2.91733 9.77219C3.16936 9.79789 3.3659 10.0108 3.3659 10.2696C3.36573 10.5283 3.16927 10.7413 2.91733 10.767L2.8659 10.7696H2.33204C1.68752 10.7696 1.16537 11.2917 1.16537 11.9363V12.6667C1.1652 12.9427 0.94141 13.1667 0.665375 13.1667C0.389339 13.1667 0.165548 12.9427 0.165375 12.6667V11.9363C0.165375 10.7394 1.13523 9.76959 2.33204 9.76959H2.8659L2.91733 9.77219Z" fill="white"/>
<path d="M13.6654 9.76959C14.8622 9.76959 15.832 10.7394 15.832 11.9363V12.6667C15.8319 12.9427 15.6081 13.1667 15.332 13.1667C15.0561 13.1666 14.8322 12.9427 14.832 12.6667V11.9363C14.832 11.2917 14.3099 10.7696 13.6654 10.7696H13.1315C12.8555 10.7696 12.6317 10.5456 12.6315 10.2696C12.6315 9.99344 12.8554 9.76959 13.1315 9.76959H13.6654Z" fill="white"/>
<path d="M9.22462 8.76568C10.7893 8.76568 12.0578 10.0343 12.058 11.599V12.6661C12.058 12.9422 11.8341 13.1661 11.558 13.1661C11.2819 13.166 11.058 12.9422 11.058 12.6661V11.599C11.0578 10.5866 10.2371 9.76568 9.22462 9.76568H6.77215C5.7597 9.76568 4.93895 10.5866 4.93881 11.599V12.6661C4.93881 12.9422 4.71495 13.1661 4.43881 13.1661C4.16267 13.1661 3.93881 12.9422 3.93881 12.6661V11.599C3.93895 10.0343 5.20742 8.76568 6.77215 8.76568H9.22462Z" fill="white"/>
<path fill-rule="evenodd" clip-rule="evenodd" d="M1.92254 5.86855C2.63505 5.28727 3.67834 5.3188 4.35678 5.95969L4.35873 5.96099L4.39649 5.9955L4.52345 6.13547C5.07643 6.81323 5.07638 7.79167 4.52345 8.46946L4.39649 8.60943C3.71959 9.28633 2.64865 9.32882 1.92254 8.73638L1.78256 8.60943C1.06069 7.88748 1.06064 6.71742 1.78256 5.9955L1.92254 5.86855ZM3.62501 6.64394C3.31398 6.39046 2.86506 6.39044 2.55405 6.64394L2.48959 6.70253C2.15819 7.03393 2.15824 7.57097 2.48959 7.9024L2.55405 7.96099C2.88738 8.23274 3.3788 8.21307 3.68946 7.9024L3.74806 7.83795C4.00157 7.52689 4.00162 7.07801 3.74806 6.76698L3.68946 6.70253L3.62501 6.64394Z" fill="white"/>
<path fill-rule="evenodd" clip-rule="evenodd" d="M11.7389 5.86855C12.4515 5.28727 13.4947 5.3188 14.1732 5.95969L14.1751 5.96099L14.2129 5.9955L14.3399 6.13547C14.8928 6.81323 14.8928 7.79167 14.3399 8.46946L14.2129 8.60943C13.536 9.28633 12.4651 9.32882 11.7389 8.73638L11.599 8.60943C10.8771 7.88748 10.877 6.71742 11.599 5.9955L11.7389 5.86855ZM13.4414 6.64394C13.1304 6.39046 12.6815 6.39044 12.3705 6.64394L12.306 6.70253C11.9746 7.03393 11.9747 7.57097 12.306 7.9024L12.3705 7.96099C12.7038 8.23274 13.1952 8.21307 13.5059 7.9024L13.5645 7.83795C13.818 7.52689 13.818 7.07801 13.5645 6.76698L13.5059 6.70253L13.4414 6.64394Z" fill="white"/>
<path fill-rule="evenodd" clip-rule="evenodd" d="M6.27149 3.4968C7.28291 2.58297 8.8442 2.61331 9.81902 3.58795L9.91082 3.6843C10.795 4.66316 10.7952 6.15734 9.91082 7.13612L9.81902 7.23183C8.84427 8.20653 7.28297 8.23731 6.27149 7.32362L6.17514 7.23183C5.16907 6.22558 5.16899 4.59415 6.17514 3.58795L6.27149 3.4968ZM8.9922 4.1869C8.41419 3.71558 7.57991 3.71547 7.00196 4.1869L6.88217 4.29498C6.26654 4.91066 6.26663 5.90907 6.88217 6.5248L7.00196 6.63287C7.62123 7.13812 8.53468 7.10206 9.11199 6.5248L9.22006 6.405C9.69156 5.82695 9.69164 4.99277 9.22006 4.41477L9.11199 4.29498L8.9922 4.1869Z" fill="white"/>
</svg>
