<svg width="24" height="25" viewBox="0 0 24 25" fill="none" xmlns="http://www.w3.org/2000/svg">
<path d="M15.59 12.9V16.97C15.59 17.33 15.55 17.67 15.46 17.98C15.09 19.45 13.87 20.37 12.19 20.37H9.47L6.45 22.38C6 22.69 5.4 22.36 5.4 21.82V20.37C4.38 20.37 3.53 20.03 2.94 19.44C2.34 18.84 2 17.99 2 16.97V12.9C2 11 3.18 9.69 5 9.52C5.13 9.51 5.26 9.5 5.4 9.5H12.19C14.23 9.5 15.59 10.86 15.59 12.9Z" fill="#461B02"/>
<path d="M17.75 16.1C19.02 16.1 20.09 15.68 20.83 14.93C21.58 14.19 22 13.12 22 11.85V6.75C22 4.4 20.1 2.5 17.75 2.5H9.25C6.9 2.5 5 4.4 5 6.75V7.5C5 7.78 5.22 8 5.5 8H12.19C14.9 8 17.09 10.19 17.09 12.9V15.6C17.09 15.88 17.31 16.1 17.59 16.1H17.75Z" fill="#461B02"/>
</svg>
