<svg width="16" height="16" viewBox="0 0 16 16" fill="none" xmlns="http://www.w3.org/2000/svg">
<path fill-rule="evenodd" clip-rule="evenodd" d="M6.54895 6.3911C7.39948 5.62267 8.71234 5.64824 9.53203 6.46792L9.60885 6.54865C10.3525 7.37173 10.3525 8.62789 9.60885 9.451L9.53203 9.53172C8.71232 10.3514 7.39948 10.377 6.54895 9.60855L6.46822 9.53172C5.62209 8.68559 5.62209 7.31406 6.46822 6.46792L6.54895 6.3911ZM8.73645 7.09488C8.30879 6.74604 7.69149 6.7461 7.2638 7.09488L7.17525 7.17495C6.71964 7.63057 6.71964 8.36908 7.17525 8.82469L7.2638 8.90477C7.72203 9.27851 8.39786 9.25183 8.82499 8.82469L8.90507 8.73615C9.25385 8.30846 9.25389 7.69116 8.90507 7.2635L8.82499 7.17495L8.73645 7.09488Z" fill="white"/>
<path fill-rule="evenodd" clip-rule="evenodd" d="M5.87187 2.2661C6.37885 2.06149 6.96369 2.17709 7.35494 2.56818L7.74947 2.96337L7.80742 3.01024C7.94955 3.1045 8.14243 3.09098 8.27031 2.96857L8.6746 2.58186L8.74557 2.5187C9.1085 2.21711 9.6042 2.12161 10.0568 2.27261L10.0574 2.27196L10.4461 2.40152L10.549 2.44058C11.0519 2.65409 11.3849 3.14962 11.3849 3.7036V4.26154C11.385 4.43918 11.5088 4.58776 11.6753 4.62482L11.7488 4.63329L12.3074 4.64566L12.4018 4.65087C12.8732 4.69331 13.292 4.97706 13.5053 5.40347L13.6889 5.77066L13.7338 5.87092C13.9385 6.37796 13.8229 6.9627 13.4318 7.35399L13.0372 7.74852C12.8942 7.89159 12.8915 8.12312 13.0314 8.26936L13.4181 8.67365L13.4812 8.74462C13.7839 9.10796 13.88 9.60384 13.7286 10.0571L13.5991 10.4451C13.4125 11.0049 12.8885 11.3838 12.2977 11.3839H11.7397C11.562 11.3839 11.4135 11.5078 11.3764 11.6743L11.3673 11.7479L11.3556 12.3065C11.3457 12.7841 11.0875 13.2196 10.6805 13.4595L10.5971 13.5044L10.2306 13.688C9.70203 13.9523 9.06404 13.8482 8.64661 13.4308L8.25208 13.0363C8.12687 12.9111 7.93404 12.8936 7.78984 12.9849L7.73124 13.0304L7.3276 13.4171C6.95973 13.7693 6.42702 13.8892 5.94348 13.7277L5.55546 13.5981C4.99568 13.4115 4.6167 12.8876 4.61666 12.2967V11.7388C4.61666 11.5612 4.49322 11.4128 4.32695 11.3755L4.25273 11.3664L3.69413 11.3546C3.21665 11.3446 2.78168 11.0864 2.54179 10.6795L2.49622 10.5962L2.31327 10.2296C2.04899 9.70108 2.15241 9.06309 2.56979 8.64566L2.96497 8.25113L3.01184 8.19383C3.0928 8.07204 3.09457 7.91249 3.0164 7.78889L2.97018 7.73029L2.58346 7.32665C2.23097 6.95846 2.11134 6.4258 2.27291 5.94253L2.40182 5.55386L2.44088 5.451C2.65438 4.94826 3.14944 4.61518 3.70325 4.61506H4.26184C4.46469 4.61484 4.62932 4.45327 4.63359 4.25113L4.64596 3.69253V3.69123L4.65117 3.59618C4.69517 3.12691 4.97735 2.7082 5.40442 2.49462L5.77161 2.31167L5.87187 2.2661ZM9.74101 3.22053C9.61073 3.17691 9.46562 3.20951 9.36536 3.30516L8.96171 3.69123C8.45631 4.17484 7.67559 4.19661 7.14531 3.76284L7.04244 3.6704L6.64791 3.27521C6.54889 3.17634 6.40412 3.14246 6.27356 3.18342L6.21822 3.20555L5.85169 3.38915C5.72876 3.45066 5.64876 3.57651 5.64531 3.71597L5.63359 4.27261C5.61778 5.01947 5.00791 5.61484 4.26184 5.61506H3.70325C3.54362 5.61519 3.40108 5.71821 3.35038 5.87027L3.22148 6.25829L3.22083 6.25959C3.17748 6.3894 3.20955 6.53365 3.30611 6.63459L3.69283 7.03889L3.78333 7.1437C4.17721 7.64746 4.16919 8.36038 3.76445 8.85529L3.672 8.95816L3.27682 9.35269C3.16367 9.4659 3.13553 9.63902 3.20715 9.78238L3.39075 10.1489L3.41679 10.1932C3.48408 10.2912 3.59505 10.3521 3.71497 10.3546L4.27421 10.367L4.41223 10.3768C5.09319 10.4595 5.61666 11.0391 5.61666 11.7388V12.2967C5.6167 12.4564 5.71973 12.5989 5.87187 12.6496L6.25989 12.7791L6.31002 12.7921C6.42681 12.814 6.54792 12.7784 6.63554 12.6945L7.03984 12.3078L7.14466 12.2173C7.68445 11.7953 8.46462 11.8348 8.95911 12.3293L9.35364 12.7238C9.46687 12.837 9.63995 12.8651 9.78333 12.7934L10.1499 12.6098L10.1941 12.5838C10.2922 12.5165 10.3531 12.4056 10.3556 12.2856L10.368 11.7264C10.3839 10.9795 10.9935 10.3839 11.7397 10.3839H12.2977C12.4573 10.3838 12.5998 10.2814 12.6505 10.1294L12.7801 9.74071L12.7931 9.69058C12.8118 9.5906 12.7883 9.48737 12.7286 9.40477L12.6954 9.36506L12.3087 8.96076C11.793 8.42165 11.8027 7.56895 12.3302 7.04149L12.7247 6.64696C12.8237 6.54791 12.8576 6.40323 12.8165 6.27261L12.7944 6.21727L12.6108 5.85074C12.5489 5.72714 12.4236 5.64788 12.2866 5.64501L11.7273 5.63329C10.9805 5.61736 10.385 5.00759 10.3849 4.26154V3.7036C10.3849 3.56394 10.3064 3.43702 10.185 3.37352L10.1303 3.35008L9.74166 3.22118L9.89986 2.74657L9.74101 3.22053Z" fill="white"/>
</svg>
