<svg width="14" height="14" viewBox="0 0 14 14" fill="none" xmlns="http://www.w3.org/2000/svg">
<path d="M7.6947 9.59635C7.69402 9.79243 7.62088 9.98046 7.49093 10.1191C7.36092 10.2578 7.18453 10.3365 7.00069 10.3372C6.90961 10.3373 6.8186 10.3177 6.73442 10.2806C6.65039 10.2435 6.57352 10.189 6.50916 10.1204C6.44474 10.0517 6.39365 9.96932 6.35876 9.87956C6.32398 9.78984 6.30604 9.69344 6.30603 9.59635H7.6947Z" fill="#EE4343"/>
<path fill-rule="evenodd" clip-rule="evenodd" d="M7.00069 3.11393C7.13859 3.11409 7.27098 3.17271 7.36853 3.27669C7.46595 3.38079 7.52145 3.52217 7.52153 3.66927V3.92057C7.99612 4.05643 8.41166 4.36466 8.69666 4.79167C8.98151 5.21868 9.11906 5.73831 9.08403 6.26107V8.11458L9.77804 8.85482V9.22526H4.2227V8.85482L4.91736 8.11328V6.26107C4.88584 5.80337 4.98644 5.34797 5.20317 4.95508L5.30278 4.79102C5.58804 4.36377 6.0046 4.05588 6.47986 3.92122V3.66927C6.47994 3.52202 6.53459 3.38082 6.6322 3.27669C6.72989 3.1725 6.86255 3.11393 7.00069 3.11393ZM6.70642 4.72331C6.43022 4.80165 6.17607 4.98392 5.99613 5.25326C5.81555 5.52376 5.72511 5.86052 5.74874 6.20378L5.75069 6.23242V8.39193H8.25069V6.23307L8.25199 6.20573C8.27506 5.86209 8.18462 5.5248 8.00395 5.25391C7.82385 4.98406 7.56895 4.80124 7.29236 4.72201L7.0033 4.63867L6.70642 4.72331Z" fill="#EE4343"/>
<path fill-rule="evenodd" clip-rule="evenodd" d="M7.00004 0.335938C10.6819 0.335938 13.6667 3.32071 13.6667 7.0026C13.6667 10.6845 10.6819 13.6693 7.00004 13.6693C3.31814 13.6693 0.333374 10.6845 0.333374 7.0026C0.333374 3.32071 3.31814 0.335938 7.00004 0.335938ZM7.00004 1.16927C3.77838 1.16927 1.16671 3.78094 1.16671 7.0026C1.16671 10.2243 3.77838 12.8359 7.00004 12.8359C10.2217 12.8359 12.8334 10.2243 12.8334 7.0026C12.8334 3.78094 10.2217 1.16927 7.00004 1.16927Z" fill="#EE4343"/>
</svg>
