<svg width="32" height="32" viewBox="0 0 32 32" fill="none" xmlns="http://www.w3.org/2000/svg">
<path d="M24.9416 24.3946C25.7669 25.22 25.7669 26.5573 24.9416 27.3813C24.1163 28.2066 22.7789 28.2066 21.9549 27.3813C21.1296 26.556 21.1296 25.2186 21.9549 24.3946C22.7803 23.5693 24.1176 23.5693 24.9416 24.3946" stroke="#FFC217" stroke-width="1.5" stroke-linecap="round" stroke-linejoin="round"/>
<path d="M10.2731 24.3949C11.0985 25.2202 11.0985 26.5575 10.2731 27.3815C9.4478 28.2069 8.11047 28.2069 7.28647 27.3815C6.46247 26.5562 6.46114 25.2189 7.28647 24.3949C8.1118 23.5709 9.4478 23.5695 10.2731 24.3949" stroke="#FFC217" stroke-width="1.5" stroke-linecap="round" stroke-linejoin="round"/>
<path d="M13.3346 5.3335H18.668C19.404 5.3335 20.0013 5.93083 20.0013 6.66683V20.0002H2.66797" stroke="#FFC217" stroke-width="1.5" stroke-linecap="round" stroke-linejoin="round"/>
<path d="M6.66797 25.8882H4.0013C3.2653 25.8882 2.66797 25.2908 2.66797 24.5548V17.3335" stroke="#FFC217" stroke-width="1.5" stroke-linecap="round" stroke-linejoin="round"/>
<path d="M20 9.3335H25.764C26.3093 9.3335 26.8 9.6655 27.0013 10.1722L29.1427 15.5242C29.268 15.8388 29.3333 16.1748 29.3333 16.5135V24.4442C29.3333 25.1802 28.736 25.7775 28 25.7775H25.5587" stroke="#FFC217" stroke-width="1.5" stroke-linecap="round" stroke-linejoin="round"/>
<path d="M21.3345 25.8935H10.8945" stroke="#FFC217" stroke-width="1.5" stroke-linecap="round" stroke-linejoin="round"/>
<path d="M29.3333 18.6668H24V13.3335H28.2667" stroke="#FFC217" stroke-width="1.5" stroke-linecap="round" stroke-linejoin="round"/>
<path d="M2.66797 5.33341H9.33464" stroke="#FFC217" stroke-width="1.5" stroke-linecap="round" stroke-linejoin="round"/>
<path d="M2.66797 9.33341H6.66797" stroke="#FFC217" stroke-width="1.5" stroke-linecap="round" stroke-linejoin="round"/>
<path d="M4.0013 13.3334H2.66797" stroke="#FFC217" stroke-width="1.5" stroke-linecap="round" stroke-linejoin="round"/>
</svg>
