<svg width="36" height="36" viewBox="0 0 36 36" fill="none" xmlns="http://www.w3.org/2000/svg">
<path d="M33 20.9938H27.75C27.3358 20.9938 27 20.658 27 20.2438V14.9938H31.8" stroke="#FFC217" stroke-width="1.5" stroke-linecap="round" stroke-linejoin="round"/>
<path d="M27.8351 27.6589C28.4786 28.3024 28.6712 29.2701 28.323 30.1109C27.9748 30.9517 27.1544 31.4999 26.2443 31.5C25.3343 31.5 24.5138 30.9519 24.1655 30.1111C23.8172 29.2704 24.0097 28.3026 24.6531 27.6591L24.6533 27.6589C25.5319 26.7803 26.9565 26.7803 27.8351 27.6589V27.6589" stroke="#FFC217" stroke-width="1.5" stroke-linecap="round" stroke-linejoin="round"/>
<path d="M11.3351 27.6589C11.9786 28.3024 12.1712 29.2701 11.823 30.1109C11.4748 30.9517 10.6544 31.4999 9.74432 31.5C8.83428 31.5 8.01382 30.9519 7.66552 30.1111C7.31722 29.2704 7.50967 28.3026 8.15313 27.6591V27.6591L8.15358 27.6586C9.03206 26.7801 10.4564 26.7801 11.3348 27.6586L11.3351 27.6589V27.6589" stroke="#FFC217" stroke-width="1.5" stroke-linecap="round" stroke-linejoin="round"/>
<path d="M24.1217 28.5H11.8652" stroke="#FFC217" stroke-width="1.5" stroke-linecap="round" stroke-linejoin="round"/>
<path d="M28.3657 28.5H31.5C32.3284 28.5 33 27.8284 33 27V18.5719C33 18.1904 32.9272 17.8125 32.7855 17.4583L30.7534 12.3795C30.2978 11.2406 29.1947 10.4938 27.9681 10.4938H22.5" stroke="#FFC217" stroke-width="1.5" stroke-linecap="round" stroke-linejoin="round"/>
<path d="M7.62238 28.5H4.5C3.67157 28.5 3 27.8284 3 27V18" stroke="#FFC217" stroke-width="1.5" stroke-linecap="round" stroke-linejoin="round"/>
<path d="M3 22.4938H21C21.8284 22.4938 22.5 21.8223 22.5 20.9938V8.99384C22.5 8.16541 21.8284 7.49384 21 7.49384H19.5" stroke="#FFC217" stroke-width="1.5" stroke-linecap="round" stroke-linejoin="round"/>
<circle cx="9" cy="9" r="6" stroke="#FFC217" stroke-width="1.5" stroke-linecap="round" stroke-linejoin="round"/>
<path d="M7.125 8.77502L8.625 10.275L10.875 8.02502" stroke="#FFC217" stroke-width="1.5" stroke-linecap="round" stroke-linejoin="round"/>
</svg>
