<svg width="36" height="36" viewBox="0 0 36 36" fill="none" xmlns="http://www.w3.org/2000/svg">
<path d="M28.0564 27.4444C28.9849 28.3729 28.9849 29.8774 28.0564 30.8044C27.1279 31.7329 25.6234 31.7329 24.6964 30.8044C23.7679 29.8759 23.7679 28.3714 24.6964 27.4444C25.6249 26.5159 27.1294 26.5159 28.0564 27.4444" stroke="#FFC217" stroke-width="2.5" stroke-linecap="round" stroke-linejoin="round"/>
<path d="M11.5558 27.4439C12.4843 28.3724 12.4843 29.8769 11.5558 30.8039C10.6273 31.7324 9.12281 31.7324 8.19581 30.8039C7.26881 29.8754 7.26731 28.3709 8.19581 27.4439C9.12431 26.5169 10.6273 26.5154 11.5558 27.4439" stroke="#FFC217" stroke-width="2.5" stroke-linecap="round" stroke-linejoin="round"/>
<path d="M15 6H21C21.828 6 22.5 6.672 22.5 7.5V22.5H3" stroke="#FFC217" stroke-width="2.5" stroke-linecap="round" stroke-linejoin="round"/>
<path d="M7.5 29.124H4.5C3.672 29.124 3 28.452 3 27.624V19.5" stroke="#FFC217" stroke-width="2.5" stroke-linecap="round" stroke-linejoin="round"/>
<path d="M22.5 10.5H28.9845C29.598 10.5 30.15 10.8735 30.3765 11.4435L32.7855 17.4645C32.9265 17.8185 33 18.1965 33 18.5775V27.4995C33 28.3275 32.328 28.9995 31.5 28.9995H28.7535" stroke="#FFC217" stroke-width="2.5" stroke-linecap="round" stroke-linejoin="round"/>
<path d="M24.0009 29.1299H12.2559" stroke="#FFC217" stroke-width="2.5" stroke-linecap="round" stroke-linejoin="round"/>
<path d="M33 21H27V15H31.8" stroke="#FFC217" stroke-width="2.5" stroke-linecap="round" stroke-linejoin="round"/>
<path d="M3 6H10.5" stroke="#FFC217" stroke-width="2.5" stroke-linecap="round" stroke-linejoin="round"/>
<path d="M3 10.5H7.5" stroke="#FFC217" stroke-width="2.5" stroke-linecap="round" stroke-linejoin="round"/>
<path d="M4.5 15H3" stroke="#FFC217" stroke-width="2.5" stroke-linecap="round" stroke-linejoin="round"/>
</svg>
