<svg width="16" height="16" viewBox="0 0 16 16" fill="none" xmlns="http://www.w3.org/2000/svg">
<path d="M1.08 8.15L2.765 4.945C2.91 4.67 3.195 4.5 3.505 4.5H7L7.5 9L1 8.5C1 8.365 1.025 8.275 1.08 8.15Z" fill="#E6E6E6"/>
<path d="M1.15527 7.99988H4.45027C4.75527 7.99988 5.00027 7.75488 5.00027 7.44988V5.55488C5.00027 5.24988 4.75527 5.00488 4.45027 5.00488H2.74027L1.15527 7.99988Z" fill="#26C9FC"/>
<path d="M1 8.5V11.115C1 11.605 1.4 12.005 1.89 12.005H14.1C14.595 12.005 15 11.6 15 11.105V8.5L11.25 7L7 8.5H1Z" fill="#FF822D"/>
<path d="M6 11.75C6 12.2141 5.81563 12.6592 5.48744 12.9874C5.15925 13.3156 4.71413 13.5 4.25 13.5C3.78587 13.5 3.34075 13.3156 3.01256 12.9874C2.68437 12.6592 2.5 12.2141 2.5 11.75C2.5 11.2859 2.68437 10.8408 3.01256 10.5126C3.34075 10.1844 3.78587 10 4.25 10C4.71413 10 5.15925 10.1844 5.48744 10.5126C5.81563 10.8408 6 11.2859 6 11.75ZM13.5 11.75C13.5 12.2141 13.3156 12.6592 12.9874 12.9874C12.6592 13.3156 12.2141 13.5 11.75 13.5C11.2859 13.5 10.8408 13.3156 10.5126 12.9874C10.1844 12.6592 10 12.2141 10 11.75C10 11.2859 10.1844 10.8408 10.5126 10.5126C10.8408 10.1844 11.2859 10 11.75 10C12.2141 10 12.6592 10.1844 12.9874 10.5126C13.3156 10.8408 13.5 11.2859 13.5 11.75Z" fill="#321B41"/>
<path d="M5 11.75C5 11.9489 4.92098 12.1397 4.78033 12.2803C4.63968 12.421 4.44891 12.5 4.25 12.5C4.05109 12.5 3.86032 12.421 3.71967 12.2803C3.57902 12.1397 3.5 11.9489 3.5 11.75C3.5 11.5511 3.57902 11.3603 3.71967 11.2197C3.86032 11.079 4.05109 11 4.25 11C4.44891 11 4.63968 11.079 4.78033 11.2197C4.92098 11.3603 5 11.5511 5 11.75ZM12.5 11.75C12.5 11.8485 12.4806 11.946 12.4429 12.037C12.4052 12.128 12.35 12.2107 12.2803 12.2803C12.2107 12.35 12.128 12.4052 12.037 12.4429C11.946 12.4806 11.8485 12.5 11.75 12.5C11.6515 12.5 11.554 12.4806 11.463 12.4429C11.372 12.4052 11.2893 12.35 11.2197 12.2803C11.15 12.2107 11.0948 12.128 11.0571 12.037C11.0194 11.946 11 11.8485 11 11.75C11 11.5511 11.079 11.3603 11.2197 11.2197C11.3603 11.079 11.5511 11 11.75 11C11.9489 11 12.1397 11.079 12.2803 11.2197C12.421 11.3603 12.5 11.5511 12.5 11.75Z" fill="#F4F4F4"/>
<path d="M14.9999 9.5H14.7499C14.3249 9.5 13.9799 9.855 13.9999 10.285C14.0199 10.69 14.3699 11 14.7749 11H14.9999V9.5Z" fill="#CA0B4A"/>
<path d="M8.5 2H13.5C14.33 2 15 2.67 15 3.5V8.5H7V3.5C7 2.67 7.67 2 8.5 2ZM1 11H1.455C1.755 11 2 10.755 2 10.455V9.545C2 9.245 1.755 9 1.455 9H1V11Z" fill="#FCD53F"/>
</svg>
