<svg width="96" height="95" viewBox="0 0 96 95" fill="none" xmlns="http://www.w3.org/2000/svg">
<g clip-path="url(#clip0_3212_35249)">
<path fill-rule="evenodd" clip-rule="evenodd" d="M85.5627 22.3263C87.0799 22.3263 88.3043 23.5531 88.3043 25.0609V30.3464C88.3043 31.8541 87.0797 33.081 85.5627 33.081L68.9555 36.6802L48.9184 33.081H44.0256C42.5139 33.081 41.2839 31.8541 41.2839 30.3464V25.0609C41.2839 23.5531 42.5139 22.3263 44.0256 22.3263H85.5627Z" fill="url(#paint0_linear_3212_35249)"/>
<path fill-rule="evenodd" clip-rule="evenodd" d="M90.4556 43.8303L74.9266 48.597L46.3882 42.155C46.2528 41.8306 46.1769 41.474 46.1769 41.0957V35.8102C46.1769 34.3024 47.4015 33.081 48.9185 33.081H85.5629H90.4556C91.9673 33.081 93.1919 34.3024 93.1919 35.8102V41.0957C93.1919 42.6088 91.9673 43.8303 90.4556 43.8303Z" fill="#FFD15B"/>
<path fill-rule="evenodd" clip-rule="evenodd" d="M87.2479 36.6804C88.7595 36.6804 89.9895 37.0695 89.9895 38.5773V43.8303H90.4554C91.9671 43.8303 93.1917 42.6088 93.1917 41.0957V35.8102C93.1917 34.3024 91.9671 33.081 90.4554 33.081H85.5627H48.9185C47.4013 33.081 46.1769 34.3024 46.1769 35.8102V36.6802H82.3606L87.2479 36.6804Z" fill="#FFC344"/>
<path fill-rule="evenodd" clip-rule="evenodd" d="M81.0927 22.3263C82.6043 22.3263 83.8343 23.5531 83.8343 25.0609V30.3464C83.8343 31.8541 82.6043 33.081 81.0927 33.081H85.5628C87.0801 33.081 88.3045 31.8541 88.3045 30.3464V25.0609C88.3045 23.5531 87.0799 22.3263 85.5628 22.3263H81.0927Z" fill="#F8B62C"/>
<path fill-rule="evenodd" clip-rule="evenodd" d="M74.9265 43.8302H90.4555H92.7583C94.27 43.8302 95.5 45.057 95.5 46.5648V51.8503C95.5 53.358 94.27 54.5849 92.7583 54.5849H83.5416L78.5838 56.871L75.4954 54.5849V45.7705C75.4954 45.057 75.2894 44.3922 74.9265 43.8302Z" fill="url(#paint1_linear_3212_35249)"/>
<path fill-rule="evenodd" clip-rule="evenodd" d="M73.5829 54.5849H83.5417C85.0534 54.5849 86.278 55.8064 86.278 57.3141V62.605C86.278 64.1127 85.0534 65.3342 83.5417 65.3342L79.1367 67.2364L73.5829 65.334V54.5849Z" fill="#FFD15B"/>
<path fill-rule="evenodd" clip-rule="evenodd" d="M75.4956 65.3341H83.5419H90.4557C91.9674 65.3341 93.192 66.5556 93.192 68.0687V73.3542C93.192 74.8619 91.9674 76.0834 90.4557 76.0834H72.9924C72.418 73.1109 72.6076 67.377 75.4956 65.3341Z" fill="url(#paint2_linear_3212_35249)"/>
<path fill-rule="evenodd" clip-rule="evenodd" d="M73.5829 65.3341V68.5767H79.7165H86.6304C88.142 68.5767 89.3666 69.7982 89.3666 71.3059V76.0834H90.4558C91.9674 76.0834 93.192 74.8619 93.192 73.3542V68.0687C93.192 66.5556 91.9674 65.3341 90.4558 65.3341H83.5419H73.5829Z" fill="#F8B62C"/>
<path fill-rule="evenodd" clip-rule="evenodd" d="M81.033 57.9897C82.5502 57.9897 83.7746 59.2165 83.7746 60.7243V64.9126C83.7746 65.0531 83.7638 65.1937 83.7421 65.3288C85.1618 65.2206 86.278 64.0426 86.278 62.605V57.3141C86.278 55.8064 85.0534 54.5849 83.5417 54.5849H73.5829V57.9897H81.033Z" fill="#FFC344"/>
<path fill-rule="evenodd" clip-rule="evenodd" d="M75.4954 46.9756H87.4537H89.7619C91.2736 46.9756 92.4982 48.2024 92.4982 49.7102V54.5849H92.7583C94.27 54.5849 95.5 53.358 95.5 51.8503V46.5648C95.5 45.057 94.27 43.8302 92.7583 43.8302H90.4555H74.9265C75.2896 44.3922 75.4954 45.057 75.4954 45.7703V46.9756Z" fill="#F8B62C"/>
<path fill-rule="evenodd" clip-rule="evenodd" d="M71.4586 72.6516C71.4586 74.1161 70.57 75.3915 69.3022 75.9536C69.1884 76.0022 69.0747 76.0454 68.9554 76.0833C68.6032 76.2022 68.2293 76.2616 67.8391 76.2616H69.3022H71.8759C72.2661 76.2616 72.6398 76.2022 72.9921 76.0833C74.4388 75.6131 75.4953 74.2512 75.4953 72.6516C75.4953 64.091 75.4953 55.536 75.4953 46.9754V45.7703C75.4953 45.0568 75.2894 44.3922 74.9264 43.8302C74.2817 42.8249 73.1547 42.1603 71.8759 42.1603H67.8608C69.1287 42.1657 70.2503 42.8305 70.8897 43.8302C71.2528 44.3922 71.4586 45.057 71.4586 45.7703V72.6516Z" fill="url(#paint3_linear_3212_35249)"/>
<path fill-rule="evenodd" clip-rule="evenodd" d="M10.3126 76.2618H69.3023V80.4123C69.3023 82.4012 67.6713 84.0225 65.6828 84.0225H4.11946C2.12558 84.0225 0.5 82.4012 0.5 80.4123V53.531C0.5 51.5421 2.12558 49.9208 4.11946 49.9208H6.69318V72.6516C6.69318 74.6351 8.32414 76.2618 10.3126 76.2618Z" fill="#00309D"/>
<path fill-rule="evenodd" clip-rule="evenodd" d="M75.4955 65.3346V72.652C75.4955 74.2516 74.439 75.6135 72.9923 76.0837C72.6401 76.2026 72.2662 76.262 71.876 76.262H69.3023H10.3127C8.32419 76.262 6.69324 74.6353 6.69324 72.6518V49.9214V45.7709C6.69324 43.782 8.32419 42.1607 10.3127 42.1607L46.388 42.1553L71.876 42.1607C73.1548 42.1607 74.2818 42.8255 74.9266 43.8306C75.2897 44.3927 75.4955 45.0575 75.4955 45.7707V54.5851V65.3346Z" fill="url(#paint4_linear_3212_35249)"/>
<path fill-rule="evenodd" clip-rule="evenodd" d="M68.1861 64.7073C65.168 64.7073 62.7243 67.1447 62.7243 70.144H19.4589C19.4589 67.1447 17.0206 64.7073 14.0081 64.7073L14.0027 53.7148C16.441 53.7148 18.5107 52.1206 19.2097 49.9209C19.3722 49.4021 19.4589 48.8455 19.4589 48.2725H62.7407C62.7353 48.8453 62.8219 49.4019 62.9845 49.9209C63.678 52.1206 65.7478 53.7148 68.1807 53.7148L68.1861 64.7073Z" fill="white" fill-opacity="0.65"/>
<path fill-rule="evenodd" clip-rule="evenodd" d="M46.2365 59.2112C46.2365 62.043 43.9337 64.3399 41.0945 64.3399C38.2552 64.3399 35.9524 62.043 35.9524 59.2112C35.9524 56.3793 38.2552 54.0825 41.0945 54.0825C43.9337 54.0825 46.2365 56.3793 46.2365 59.2112Z" fill="url(#paint5_linear_3212_35249)"/>
<circle cx="40.4" cy="24.7001" r="15.2" fill="url(#paint6_linear_3212_35249)"/>
<line x1="44.6477" y1="28.6877" x2="36.0699" y2="20.1099" stroke="white" stroke-width="3.8" stroke-linecap="round"/>
<line x1="44.5737" y1="20.1095" x2="35.9959" y2="28.6873" stroke="white" stroke-width="3.8" stroke-linecap="round"/>
</g>
<defs>
<linearGradient id="paint0_linear_3212_35249" x1="58.1329" y1="39.9926" x2="70.4624" y2="18.0295" gradientUnits="userSpaceOnUse">
<stop stop-color="#FFBC00"/>
<stop offset="1" stop-color="#FFD14F"/>
</linearGradient>
<linearGradient id="paint1_linear_3212_35249" x1="82.2987" y1="59.8804" x2="95.2672" y2="48.7548" gradientUnits="userSpaceOnUse">
<stop stop-color="#FFBC00"/>
<stop offset="1" stop-color="#FFD14F"/>
</linearGradient>
<linearGradient id="paint2_linear_3212_35249" x1="80.0635" y1="78.564" x2="90.8726" y2="67.3762" gradientUnits="userSpaceOnUse">
<stop stop-color="#FFBC00"/>
<stop offset="1" stop-color="#FFD14F"/>
</linearGradient>
<linearGradient id="paint3_linear_3212_35249" x1="70.5826" y1="84.1311" x2="78.8376" y2="83.1232" gradientUnits="userSpaceOnUse">
<stop stop-color="#176CF7"/>
<stop offset="1" stop-color="#0C36C1"/>
</linearGradient>
<linearGradient id="paint4_linear_3212_35249" x1="31.3474" y1="84.1328" x2="65.5177" y2="46.6489" gradientUnits="userSpaceOnUse">
<stop stop-color="#176CF7"/>
<stop offset="1" stop-color="#0C36C1"/>
</linearGradient>
<linearGradient id="paint5_linear_3212_35249" x1="39.6375" y1="66.7069" x2="48.3126" y2="61.9772" gradientUnits="userSpaceOnUse">
<stop stop-color="#176CF7"/>
<stop offset="1" stop-color="#0C36C1"/>
</linearGradient>
<linearGradient id="paint6_linear_3212_35249" x1="49.8999" y1="12.1198" x2="31.3101" y2="36.6849" gradientUnits="userSpaceOnUse">
<stop stop-color="#FF4E4E"/>
<stop offset="1" stop-color="#F71717"/>
</linearGradient>
<clipPath id="clip0_3212_35249">
<rect width="95" height="95" fill="white" transform="translate(0.5)"/>
</clipPath>
</defs>
</svg>
