<svg width="40" height="40" viewBox="0 0 40 40" fill="none" xmlns="http://www.w3.org/2000/svg">
<g clip-path="url(#clip0_2000_24459)">
<g clip-path="url(#clip1_2000_24459)">
<rect x="18.4546" y="29.4897" width="2.23926" height="1.27957" fill="white"/>
<circle cx="3.73898" cy="33.9682" r="0.959681" fill="white"/>
<circle cx="8.85763" cy="33.9682" r="0.959681" fill="white"/>
<circle cx="20.801" cy="33.9682" r="0.959681" fill="white"/>
<rect x="22.0801" y="29.0625" width="1.7061" height="2.23926" fill="#FFC217"/>
<path d="M18.0278 28.5313V24.1594H21.1735L23.466 28.1048V28.5313H18.0278Z" fill="white"/>
<path fill-rule="evenodd" clip-rule="evenodd" d="M17.6375 23.5154L21.0849 23.5439L21.2511 23.6672C21.365 23.7574 21.7639 24.3837 22.6424 25.8736C23.3214 27.0171 23.9007 27.9851 23.9339 28.0278C23.9862 28.08 23.9957 28.5925 24.0004 30.4715C24.0004 32.4786 23.9909 32.8724 23.9292 33.0432C23.8912 33.1524 23.7962 33.3232 23.725 33.4181C23.6538 33.513 23.4876 33.6506 23.3594 33.7265C23.2264 33.8024 23.084 33.8594 23.0365 33.8594C22.9748 33.8641 22.9558 33.8214 22.9558 33.7075C22.9558 33.6221 22.913 33.4276 22.856 33.271C22.8038 33.1144 22.6898 32.8772 22.6091 32.749C22.5237 32.6209 22.3622 32.4359 22.2435 32.3315C22.1248 32.2318 21.9016 32.0847 21.7449 32.0088C21.5787 31.9282 21.3176 31.8522 21.1276 31.8238C20.9187 31.8001 20.6813 31.8001 20.4866 31.8285C20.3156 31.8522 20.0402 31.9424 19.8693 32.0278C19.7031 32.1085 19.4514 32.284 19.3185 32.4169C19.157 32.5687 19.0098 32.7775 18.9006 33.01C18.7961 33.2283 18.7154 33.4798 18.6584 33.959H17.6375V23.5154ZM18.44 28.1654C22.2055 28.1654 22.9985 28.1512 22.9985 28.118C22.9985 28.0943 22.5426 27.3018 21.9918 26.3623L20.9804 24.6589L18.44 24.6542V28.1654ZM22.6091 30.0776C22.6139 30.4335 22.6329 30.5332 22.6993 30.5996C22.7658 30.6613 22.8703 30.6802 23.1315 30.6802H23.4733V29.494C22.9415 29.494 22.7943 29.5177 22.7183 29.5699C22.6139 29.6364 22.6044 29.6696 22.6091 30.0776ZM18.7202 30.1014C18.7249 30.1583 18.7771 30.2627 18.8436 30.3244C18.9528 30.4335 18.9956 30.443 19.4134 30.443C19.6793 30.443 19.9168 30.4193 19.988 30.3861C20.0545 30.3528 20.121 30.2722 20.1399 30.2058C20.1542 30.1441 20.1637 30.0587 20.1542 30.016C20.1494 29.978 20.1067 29.9068 20.064 29.8594C19.9975 29.7882 19.9025 29.7787 19.4277 29.7787C18.9101 29.7787 18.8674 29.7882 18.7961 29.8878C18.7534 29.9448 18.7202 30.0397 18.7202 30.1014ZM3.79113 32.3552C4.08079 32.3647 4.23273 32.3979 4.43217 32.4928C4.58412 32.5687 4.7788 32.7111 4.89751 32.8487C5.01148 32.9721 5.14443 33.1761 5.20141 33.29C5.26314 33.4276 5.31063 33.6363 5.32487 33.8594C5.33912 34.1393 5.32487 34.2722 5.2489 34.4762C5.19192 34.6233 5.0827 34.8226 4.99723 34.927C4.91651 35.0314 4.76931 35.1737 4.67434 35.2449C4.57937 35.3113 4.38468 35.4157 4.24223 35.4679C4.08553 35.5296 3.87185 35.5675 3.71041 35.5675C3.50623 35.5675 3.35428 35.5296 3.11686 35.4252C2.93642 35.3445 2.71324 35.2022 2.60877 35.1025C2.50906 35.0076 2.3666 34.7989 2.29063 34.6423C2.21466 34.4857 2.14343 34.2532 2.12444 34.1203C2.11019 33.9875 2.11969 33.7597 2.15767 33.5984C2.19566 33.4228 2.28113 33.2235 2.3856 33.0717C2.48057 32.9388 2.63252 32.768 2.72274 32.6921C2.81296 32.6162 3.00289 32.5071 3.15009 32.4454C3.36377 32.36 3.48248 32.341 3.79113 32.3552ZM3.13585 33.6696C3.08362 33.7692 3.05987 33.9021 3.06937 34.0017C3.07887 34.0966 3.1311 34.2342 3.18333 34.3101C3.23557 34.3908 3.36377 34.4952 3.46349 34.5426C3.5917 34.6043 3.70091 34.6233 3.81487 34.5996C3.90509 34.5853 4.02855 34.5379 4.09028 34.4999C4.14726 34.462 4.23748 34.3623 4.28972 34.2769C4.34195 34.1915 4.38468 34.0492 4.38468 33.9543C4.38468 33.8641 4.3467 33.717 4.29446 33.6221C4.24698 33.532 4.13302 33.4181 4.04755 33.3754C3.95733 33.3279 3.81013 33.29 3.71516 33.29C3.62019 33.29 3.47774 33.3374 3.38277 33.3991C3.29255 33.456 3.18333 33.5794 3.13585 33.6696ZM8.87194 32.36C9.12361 32.3694 9.32779 32.4122 9.47974 32.4786C9.6032 32.5355 9.80738 32.6826 9.93084 32.806C10.0543 32.9293 10.2062 33.1381 10.268 33.2662C10.344 33.4276 10.3914 33.6174 10.4057 33.8594C10.4199 34.1393 10.4057 34.2722 10.3297 34.4762C10.2727 34.6233 10.1635 34.8226 10.078 34.927C9.99732 35.0314 9.85012 35.1737 9.75515 35.2449C9.66018 35.3113 9.4655 35.4157 9.32304 35.4679C9.16634 35.5296 8.95266 35.5675 8.79122 35.5675C8.58704 35.5675 8.43509 35.5296 8.19767 35.4252C8.01723 35.3445 7.79405 35.2022 7.68959 35.1025C7.58987 35.0076 7.44742 34.7989 7.37144 34.6423C7.29547 34.4857 7.22424 34.2532 7.20525 34.1203C7.191 33.9875 7.2005 33.7597 7.23849 33.5984C7.27647 33.4228 7.36194 33.2235 7.46641 33.0717C7.56138 32.9388 7.71333 32.768 7.80355 32.6921C7.89377 32.6162 8.0837 32.5071 8.23091 32.4454C8.44933 32.3552 8.5538 32.341 8.87194 32.36ZM8.25465 33.5889C8.21666 33.6458 8.17392 33.7597 8.15493 33.8356C8.14069 33.9163 8.15018 34.0586 8.17867 34.1583C8.20716 34.2579 8.29738 34.386 8.3876 34.4525C8.46833 34.5189 8.62502 34.5853 8.72949 34.5996C8.86245 34.6186 8.97166 34.5996 9.08562 34.5379C9.17584 34.4904 9.2993 34.3813 9.36103 34.2864C9.42276 34.1915 9.4655 34.0492 9.4655 33.9543C9.4655 33.8641 9.42751 33.717 9.37527 33.6221C9.32779 33.532 9.21383 33.4181 9.12836 33.3754C9.03814 33.3279 8.89094 33.29 8.80072 33.29C8.7105 33.29 8.56329 33.3327 8.48257 33.3849C8.3971 33.4371 8.29263 33.5272 8.25465 33.5889ZM20.8854 32.36C21.1514 32.3694 21.3318 32.4074 21.479 32.4738C21.5977 32.5308 21.7782 32.6494 21.8826 32.7348C21.9871 32.825 22.1485 33.0337 22.2387 33.1998C22.3954 33.4845 22.4049 33.532 22.4049 33.9305C22.4049 34.3006 22.386 34.3955 22.2767 34.6186C22.2055 34.7656 22.101 34.9365 22.0393 34.9981C21.9776 35.0646 21.8541 35.1737 21.7639 35.2449C21.6737 35.3161 21.479 35.4157 21.3365 35.4679C21.1846 35.5296 20.9662 35.5675 20.8047 35.5675C20.5958 35.5675 20.4486 35.5296 20.1874 35.411C19.931 35.2971 19.7791 35.1879 19.6129 34.9981C19.4372 34.7989 19.3612 34.6613 19.2852 34.405C19.2093 34.1488 19.195 34.0112 19.2188 33.7882C19.2377 33.6316 19.2995 33.3991 19.3565 33.2662C19.4182 33.1381 19.5559 32.9388 19.6651 32.8297C19.7743 32.7158 19.9548 32.583 20.064 32.526C20.1732 32.4691 20.3204 32.4027 20.3869 32.3837C20.4533 32.36 20.6765 32.3505 20.8854 32.36ZM20.2302 33.6696C20.1732 33.7882 20.1542 33.8973 20.1684 34.0254C20.1827 34.1298 20.2302 34.2627 20.2682 34.3244C20.3061 34.3813 20.3869 34.462 20.4486 34.4999C20.5056 34.5426 20.6385 34.5853 20.743 34.5996C20.8759 34.6186 20.9852 34.5996 21.0991 34.5379C21.1893 34.4904 21.3128 34.3813 21.3745 34.2864C21.4363 34.1915 21.479 34.0492 21.479 33.9543C21.479 33.8641 21.441 33.717 21.3888 33.6221C21.3413 33.532 21.2273 33.4181 21.1419 33.3754C21.0516 33.3279 20.9044 33.29 20.8095 33.29C20.7145 33.29 20.5721 33.3374 20.4771 33.3991C20.3869 33.456 20.2777 33.5794 20.2302 33.6696ZM0.96582 31.2971H17.6436V33.9543H10.985L10.966 33.8499C10.9518 33.7882 10.928 33.6458 10.9138 33.5272C10.8995 33.4133 10.8188 33.1761 10.7381 33.0053C10.6479 32.8202 10.4817 32.5925 10.325 32.4359C10.1683 32.2793 9.93084 32.1085 9.7504 32.0183C9.57946 31.9377 9.30405 31.8475 9.13311 31.8238C8.95741 31.8001 8.701 31.7953 8.53955 31.819C8.38285 31.8428 8.15968 31.895 8.04097 31.9424C7.92226 31.9899 7.74182 32.08 7.63735 32.1464C7.53289 32.2129 7.35245 32.3647 7.23849 32.4833C7.12452 32.6019 6.97732 32.806 6.91084 32.9341C6.84437 33.067 6.76364 33.2805 6.7304 33.4086C6.69242 33.5414 6.66393 33.717 6.66393 33.9543H6.28405C5.92792 33.9543 5.90418 33.9495 5.88519 33.8499C5.87094 33.7882 5.85195 33.6458 5.8377 33.5272C5.82346 33.4133 5.74273 33.1761 5.65726 33.0053C5.57179 32.8297 5.3961 32.5877 5.24415 32.4359C5.08745 32.2793 4.85003 32.1085 4.66959 32.0183C4.49865 31.9377 4.22324 31.8475 4.05229 31.8238C3.8766 31.8001 3.62019 31.7953 3.45874 31.819C3.30204 31.8428 3.07887 31.895 2.96016 31.9424C2.84145 31.9899 2.66101 32.08 2.55654 32.1464C2.45208 32.2129 2.27164 32.3647 2.15767 32.4833C2.04371 32.6019 1.89651 32.806 1.83003 32.9341C1.76356 33.067 1.68283 33.2805 1.64959 33.4086C1.61161 33.5414 1.58312 33.7075 1.58312 33.7787C1.58312 33.8688 1.55937 33.9068 1.50239 33.9068C1.45491 33.9068 1.35519 33.8688 1.27447 33.8214C1.19849 33.774 1.09403 33.6553 1.05129 33.5604C0.980066 33.4133 0.96582 33.2378 0.96582 32.341V31.2971Z" fill="url(#paint0_linear_2000_24459)"/>
<path d="M17.2468 20L0.206129 20.0051L0.0134952 20.1689C-0.0951699 20.261 -0.208774 20.4146 -0.248289 20.5067C-0.297682 20.6397 -0.3125 21.6684 -0.3125 25.8805L-0.307561 31.0854C-0.100109 31.3567 0.0480705 31.4795 0.156736 31.5307C0.34443 31.6177 0.808726 31.6228 9.08209 31.6228H17.8148C17.8148 21.0389 17.8099 20.6602 17.7308 20.4811C17.6814 20.3787 17.553 20.2252 17.4444 20.1484L17.2468 20Z" fill="url(#paint1_linear_2000_24459)"/>
<path d="M1.4917 25.3936C1.4917 22.5989 1.5012 22.1196 1.56293 22.001C1.60091 21.9203 1.69113 21.8254 1.76236 21.7875C1.83359 21.7495 1.98554 21.7163 2.09475 21.7163C2.26094 21.7163 2.33217 21.7448 2.65506 22.039L2.66456 25.3035C2.6788 27.861 2.66456 28.6012 2.61708 28.7104C2.58384 28.7863 2.49836 28.8954 2.42714 28.9571C2.33692 29.033 2.2372 29.071 2.10899 29.071C2.00453 29.071 1.85258 29.033 1.7766 28.9856C1.70063 28.9381 1.60566 28.8432 1.56293 28.772C1.5012 28.6582 1.4917 28.2264 1.4917 25.3936Z" fill="white"/>
<path d="M4.62566 25.4174C4.62566 23.4957 4.64465 22.2383 4.67314 22.1291C4.70163 22.0295 4.78236 21.9014 4.86783 21.8349C4.97704 21.74 5.06726 21.7163 5.2477 21.7163C5.44713 21.7163 5.49937 21.7353 5.81276 22.0485V25.3462C5.81276 28.1789 5.80327 28.6629 5.74154 28.7863C5.70355 28.8622 5.60383 28.9571 5.52786 28.9998C5.44714 29.0378 5.31418 29.071 5.22871 29.071C5.14324 29.071 5.00078 29.0235 4.91056 28.9618C4.81085 28.8954 4.72063 28.7863 4.68739 28.6866C4.64465 28.568 4.63041 27.6949 4.62566 25.4174Z" fill="white"/>
<path d="M7.8166 25.4553C7.8071 22.8788 7.8166 22.1339 7.86408 22.0247C7.89732 21.9488 7.98754 21.8492 8.06826 21.8017C8.14424 21.7543 8.29144 21.7163 8.38641 21.7163C8.48612 21.7163 8.62858 21.7495 8.7093 21.797C8.79002 21.8444 8.88499 21.9488 8.92298 22.0342C8.98471 22.1671 8.99421 22.6606 8.99421 25.3936C8.99421 28.1457 8.98471 28.6155 8.92298 28.7388C8.88499 28.8147 8.79002 28.9239 8.7188 28.9761C8.63333 29.0378 8.51936 29.071 8.38641 29.071C8.22496 29.071 8.14899 29.0378 7.83084 28.7436L7.8166 25.4553Z" fill="white"/>
<path d="M10.9411 25.4174C10.9411 23.4957 10.9601 22.2383 10.9885 22.1291C11.017 22.0295 11.0978 21.9014 11.1832 21.8349C11.2924 21.74 11.3827 21.7163 11.5631 21.7163C11.7625 21.7163 11.8148 21.7353 12.1282 22.0485V25.3699C12.1282 28.4541 12.1234 28.6961 12.0427 28.8147C12 28.8812 11.9002 28.9666 11.829 29.0045C11.7578 29.0378 11.6296 29.071 11.5441 29.071C11.4586 29.071 11.3162 29.0235 11.226 28.9618C11.1262 28.8954 11.036 28.7863 11.0028 28.6866C10.9601 28.568 10.9458 27.6949 10.9411 25.4174Z" fill="white"/>
<path d="M14.132 25.4648C14.1225 22.6463 14.132 22.1671 14.1937 22.0342C14.2317 21.9488 14.3219 21.8444 14.3932 21.797C14.4644 21.7543 14.6068 21.7163 14.7018 21.7163C14.8015 21.7163 14.944 21.7495 15.0247 21.797C15.1054 21.8444 15.2004 21.9488 15.2384 22.0342C15.3001 22.1671 15.3049 22.6558 15.2859 28.7436L15.1054 28.9049C14.9582 29.0425 14.8917 29.071 14.7161 29.071C14.5356 29.071 14.4691 29.0425 14.1462 28.7436L14.132 25.4648Z" fill="white"/>
</g>
<g clip-path="url(#clip2_2000_24459)">
<g clip-path="url(#clip3_2000_24459)">
<path d="M30.9823 0.281771C31.1245 0.332924 31.2672 0.382561 31.4098 0.432423C32.7169 0.889871 32.7169 0.889871 33.3395 1.13428C33.3912 1.15455 33.4428 1.17483 33.496 1.19572C34.0099 1.42785 34.3628 1.87504 34.6108 2.3677C34.7573 2.75999 34.7685 3.15206 34.7681 3.56672C34.7681 3.66612 34.7686 3.7655 34.7694 3.86489C34.7715 4.14714 34.7726 4.42939 34.7729 4.71164C34.7731 4.88518 34.7742 5.0587 34.7758 5.23224C34.7763 5.29789 34.7764 5.36354 34.7761 5.4292C34.7749 5.78862 34.7867 6.06646 34.9804 6.37856C34.9804 6.4082 34.9804 6.43785 34.9804 6.4684C34.8766 6.4684 34.7728 6.4684 34.6659 6.4684C34.6648 6.49331 34.6637 6.51823 34.6625 6.5439C34.6573 6.65725 34.6518 6.77059 34.6463 6.88393C34.6436 6.94273 34.6436 6.94273 34.6409 7.00272C34.639 7.04065 34.6372 7.07858 34.6352 7.11766C34.6336 7.15248 34.6319 7.18729 34.6302 7.22317C34.6212 7.32001 34.6023 7.40808 34.5761 7.5016C34.6224 7.50438 34.6687 7.50716 34.7165 7.51003C34.9451 7.55797 35.0795 7.64902 35.2115 7.84904C35.3716 8.27311 35.2349 8.80941 35.0702 9.20863C34.9423 9.48473 34.812 9.72875 34.5761 9.92738C34.5492 9.95333 34.5223 9.97927 34.4947 10.006C34.3964 10.0621 34.3964 10.0621 34.2202 10.0683C34.1237 10.0763 34.1237 10.0763 34.037 10.1071C33.9623 10.2206 33.9247 10.299 33.8826 10.4243C33.8569 10.4904 33.831 10.5564 33.8047 10.6223C33.7914 10.6561 33.7781 10.69 33.7644 10.7249C33.698 10.8851 33.6187 11.0366 33.5345 11.188C33.5181 11.2178 33.5018 11.2477 33.4849 11.2784C33.3936 11.4375 33.2967 11.574 33.171 11.7079C32.9045 11.9935 32.7477 12.1795 32.7583 12.5855C32.7723 12.7646 32.7946 12.9396 32.8241 13.1168C32.8538 13.102 32.8834 13.0872 32.914 13.0719C33.062 13.0429 33.1312 13.0329 33.2733 13.0719C33.4501 13.2011 33.5955 13.3562 33.745 13.5155C33.7863 13.5576 33.8275 13.5997 33.87 13.6431C34.1718 13.9552 34.1718 13.9552 34.1718 14.0602C34.211 14.0703 34.211 14.0703 34.251 14.0806C34.6307 14.1811 35.0048 14.2981 35.3788 14.4182C35.4517 14.4415 35.5246 14.4645 35.5976 14.4874C36.6292 14.8103 37.5041 15.2955 38.1249 16.2164C38.1536 16.2584 38.1822 16.3003 38.2118 16.3435C38.6098 16.9545 38.8575 17.6261 38.8567 18.3595C38.857 18.4011 38.8573 18.4426 38.8576 18.4854C38.8585 18.6215 38.8587 18.7576 38.8588 18.8937C38.859 18.9889 38.8593 19.0842 38.8597 19.1794C38.8602 19.3785 38.8604 19.5776 38.8603 19.7767C38.8603 20.0314 38.8615 20.286 38.8631 20.5406C38.8641 20.7371 38.8643 20.9336 38.8642 21.1301C38.8643 21.224 38.8647 21.3178 38.8654 21.4117C38.8663 21.543 38.866 21.6744 38.8655 21.8057C38.866 21.8441 38.8665 21.8825 38.867 21.9221C38.8638 22.2294 38.7794 22.4636 38.5757 22.6961C38.5465 22.7203 38.5172 22.7445 38.4871 22.7694C38.458 22.7943 38.4288 22.8192 38.3988 22.8449C38.1984 22.983 38.0266 23.0109 37.7854 23.0112C37.7417 23.0114 37.7417 23.0114 37.6971 23.0117C37.5994 23.0121 37.5017 23.0119 37.4039 23.0117C37.3332 23.0118 37.2625 23.012 37.1918 23.0123C36.9973 23.0128 36.8029 23.0128 36.6084 23.0127C36.3987 23.0127 36.1891 23.0132 35.9794 23.0136C35.5686 23.0144 35.1577 23.0146 34.7469 23.0147C34.413 23.0147 34.0791 23.0149 33.7452 23.0152C32.7987 23.016 31.8523 23.0164 30.9058 23.0163C30.8293 23.0163 30.8293 23.0163 30.7512 23.0163C30.7001 23.0163 30.649 23.0163 30.5963 23.0163C29.7681 23.0163 28.9399 23.0171 28.1117 23.0184C27.2615 23.0197 26.4113 23.0203 25.5612 23.0202C25.0838 23.0202 24.6064 23.0204 24.129 23.0214C23.7225 23.0222 23.316 23.0224 22.9096 23.0218C22.7022 23.0215 22.4948 23.0215 22.2874 23.0223C22.0975 23.023 21.9076 23.0229 21.7177 23.0221C21.6491 23.0219 21.5804 23.0221 21.5118 23.0226C21.0995 23.0254 20.7837 23.0156 20.4597 22.7317C20.4355 22.7025 20.4113 22.6732 20.3864 22.6431C20.3615 22.614 20.3366 22.5848 20.3109 22.5548C20.1474 22.3175 20.1428 22.1042 20.1431 21.8253C20.1428 21.7843 20.1425 21.7433 20.1422 21.701C20.1413 21.5655 20.1412 21.4299 20.1411 21.2944C20.1408 21.1996 20.1405 21.1049 20.1402 21.0101C20.1396 20.8113 20.1395 20.6124 20.1395 20.4135C20.1395 20.1604 20.1383 19.9072 20.1367 19.654C20.1357 19.4581 20.1356 19.2621 20.1356 19.0662C20.1355 18.973 20.1351 18.8797 20.1344 18.7865C20.1257 17.5008 20.5327 16.4855 21.4417 15.56C22.0648 14.9352 22.8407 14.6677 23.6642 14.4035C23.7988 14.3602 23.9333 14.3165 24.0678 14.2728C24.1533 14.2451 24.2387 14.2175 24.3242 14.1899C24.3645 14.1768 24.4047 14.1638 24.4462 14.1503C24.4832 14.1385 24.5203 14.1266 24.5585 14.1144C24.5911 14.1039 24.6238 14.0934 24.6574 14.0826C24.7382 14.0602 24.7382 14.0602 24.828 14.0602C24.8449 14.0217 24.8449 14.0217 24.8621 13.9825C24.972 13.7814 25.1463 13.6278 25.3053 13.465C25.3581 13.4083 25.3581 13.4083 25.4118 13.3506C25.7085 13.0475 25.7085 13.0475 25.9269 13.0445C26.0858 13.0719 26.0858 13.0719 26.1757 13.1168C26.2825 12.5581 26.2825 12.5581 26.1194 12.0371C26.0289 11.9243 25.9303 11.8198 25.8318 11.7141C25.6693 11.5393 25.5556 11.3497 25.4429 11.1403C25.4247 11.1066 25.4066 11.073 25.3879 11.0383C25.2188 10.7188 25.0649 10.3923 24.9179 10.0621C24.8766 10.0708 24.8354 10.0795 24.7929 10.0885C24.6312 10.1093 24.5483 10.0821 24.4116 9.99424C24.152 9.77091 24.0052 9.43267 23.8847 9.11879C23.8644 9.06928 23.8644 9.06928 23.8438 9.01877C23.7582 8.78072 23.7362 8.55078 23.7331 8.29897C23.7324 8.26871 23.7318 8.23845 23.7312 8.20727C23.7335 7.9638 23.7936 7.77914 23.9605 7.59987C24.1112 7.52246 24.2555 7.52018 24.4237 7.5016C24.414 7.42925 24.414 7.42925 24.4041 7.35543C24.3957 7.29092 24.3872 7.2264 24.3788 7.16188C24.3745 7.13023 24.3702 7.09859 24.3658 7.06598C24.3399 6.86489 24.3296 6.67115 24.3339 6.4684C24.2301 6.4684 24.1264 6.4684 24.0194 6.4684C24.0408 6.4019 24.0624 6.33546 24.084 6.26906C24.096 6.23206 24.108 6.19505 24.1203 6.15693C24.1542 6.0641 24.1542 6.0641 24.1991 6.01918C24.204 5.92535 24.2057 5.83135 24.2062 5.73739C24.2064 5.70794 24.2067 5.6785 24.2069 5.64816C24.2074 5.58394 24.2078 5.51972 24.2081 5.4555C24.2086 5.35346 24.2095 5.25143 24.2105 5.14939C24.2132 4.85915 24.2156 4.56892 24.2172 4.27868C24.2181 4.10123 24.2197 3.9238 24.2217 3.74637C24.2223 3.67907 24.2227 3.61178 24.2229 3.54448C24.2246 2.79324 24.377 2.20848 24.8833 1.64017C25.1913 1.36002 25.5117 1.16964 25.9034 1.03285C25.9693 1.00895 25.9693 1.00895 26.0367 0.984574C26.1699 0.936681 26.3033 0.889557 26.4369 0.84274C26.5466 0.804199 26.6562 0.765372 26.7658 0.726515C27.0228 0.63542 27.2801 0.544849 27.5374 0.454483C27.6007 0.432203 27.6007 0.432203 27.6653 0.409473C28.85 -0.00645328 29.7728 -0.157434 30.9823 0.281771Z" fill="url(#paint2_linear_2000_24459)"/>
<path d="M30.9826 0.281771C31.1247 0.332924 31.2674 0.382561 31.41 0.432423C32.7171 0.889872 32.7171 0.889871 33.3398 1.13428C33.3914 1.15455 33.4431 1.17483 33.4963 1.19572C34.0102 1.42785 34.363 1.87504 34.6111 2.3677C34.7576 2.75999 34.7688 3.15206 34.7684 3.56672C34.7683 3.66612 34.7689 3.7655 34.7697 3.86489C34.7717 4.14714 34.7728 4.42939 34.7731 4.71164C34.7734 4.88518 34.7745 5.0587 34.7761 5.23224C34.7765 5.29789 34.7766 5.36355 34.7764 5.4292C34.7751 5.78862 34.787 6.06646 34.9806 6.37856C34.9806 6.4082 34.9806 6.43785 34.9806 6.4684C34.8769 6.4684 34.7731 6.4684 34.6662 6.4684C34.6645 6.50577 34.6645 6.50577 34.6628 6.5439C34.6576 6.65725 34.652 6.77059 34.6465 6.88393C34.6448 6.92313 34.643 6.96233 34.6412 7.00272C34.6393 7.04065 34.6374 7.07858 34.6355 7.11766C34.633 7.16989 34.633 7.16989 34.6305 7.22317C34.6214 7.32001 34.6025 7.40808 34.5763 7.5016C34.6227 7.50438 34.669 7.50716 34.7167 7.51003C34.9454 7.55797 35.0797 7.64902 35.2117 7.84905C35.3719 8.27311 35.2351 8.80941 35.0705 9.20863C34.9426 9.48473 34.8122 9.72875 34.5763 9.92738C34.5495 9.95333 34.5226 9.97927 34.4949 10.006C34.3967 10.0622 34.3967 10.0622 34.2205 10.0683C34.124 10.0763 34.124 10.0763 34.0373 10.1071C33.9626 10.2206 33.9249 10.299 33.8829 10.4243C33.8572 10.4904 33.8312 10.5564 33.805 10.6223C33.7917 10.6561 33.7784 10.69 33.7647 10.7249C33.6983 10.8851 33.6189 11.0366 33.5347 11.188C33.5184 11.2179 33.502 11.2478 33.4852 11.2786C33.3942 11.4375 33.2981 11.5725 33.1713 11.7048C32.8927 11.9787 32.8927 11.9787 32.7695 12.3355C32.7781 12.5084 32.7994 12.6785 32.8211 12.8501C32.8411 13.0642 32.8521 13.2065 32.7121 13.3786C32.5898 13.4991 32.4551 13.6 32.3131 13.696C32.2211 13.7589 32.14 13.8306 32.0579 13.9058C32.0305 13.9295 32.0031 13.9531 31.9749 13.9775C31.8521 14.0857 31.7318 14.1964 31.6115 14.3073C31.4359 14.469 31.2585 14.6282 31.0781 14.7846C30.9548 14.8933 30.834 15.0045 30.7131 15.1159C30.5367 15.2782 30.3593 15.4389 30.1772 15.5947C30.1031 15.6605 30.0313 15.7288 29.9603 15.7979C29.9385 15.8188 29.9167 15.8397 29.8943 15.8613C29.8316 15.9217 29.7695 15.9827 29.7074 16.0438C29.59 16.1266 29.59 16.1266 29.4808 16.1181C29.3531 16.0778 29.2941 16.0338 29.1989 15.9409C29.1688 15.9121 29.1387 15.8833 29.1077 15.8536C29.0769 15.8232 29.0462 15.7929 29.0145 15.7616C28.9534 15.7025 28.8923 15.6434 28.8311 15.5844C28.8007 15.555 28.7703 15.5256 28.739 15.4953C28.6194 15.3821 28.4957 15.2742 28.3712 15.1664C28.2512 15.062 28.1346 14.9543 28.0178 14.8463C27.8695 14.7098 27.7208 14.574 27.5685 14.442C27.4162 14.31 27.2676 14.1742 27.1193 14.0377C26.7807 13.71 26.7807 13.71 26.4089 13.4238C26.3142 13.3573 26.2446 13.3001 26.176 13.2067C26.1567 13.0464 26.1869 12.8964 26.2125 12.7378C26.245 12.4255 26.2565 12.2017 26.0547 11.9496C25.9562 11.8418 25.8558 11.736 25.7553 11.6301C25.6271 11.481 25.5359 11.3129 25.4432 11.1403C25.425 11.1066 25.4068 11.073 25.3881 11.0383C25.219 10.7188 25.0652 10.3923 24.9181 10.0622C24.8769 10.0708 24.8357 10.0795 24.7932 10.0885C24.6315 10.1093 24.5486 10.0821 24.4119 9.99424C24.1522 9.77091 24.0055 9.43267 23.8849 9.11879C23.8715 9.08578 23.858 9.05278 23.8441 9.01877C23.7585 8.78072 23.7364 8.55078 23.7333 8.29897C23.7327 8.26871 23.7321 8.23845 23.7314 8.20727C23.7337 7.9638 23.7938 7.77914 23.9607 7.59987C24.1115 7.52246 24.2558 7.52018 24.424 7.5016C24.4175 7.45337 24.411 7.40513 24.4044 7.35543C24.3959 7.29092 24.3875 7.2264 24.3791 7.16188C24.3748 7.13023 24.3705 7.09859 24.3661 7.06598C24.3402 6.86489 24.3299 6.67115 24.3342 6.4684C24.2304 6.4684 24.1266 6.4684 24.0197 6.4684C24.0411 6.4019 24.0626 6.33546 24.0843 6.26906C24.0963 6.23206 24.1083 6.19505 24.1206 6.15693C24.1545 6.0641 24.1545 6.0641 24.1994 6.01918C24.2043 5.92535 24.206 5.83135 24.2065 5.73739C24.2067 5.70794 24.2069 5.6785 24.2072 5.64816C24.2077 5.58394 24.208 5.51972 24.2083 5.4555C24.2089 5.35346 24.2097 5.25143 24.2107 5.14939C24.2135 4.85915 24.2159 4.56892 24.2174 4.27868C24.2184 4.10123 24.22 3.92381 24.222 3.74637C24.2226 3.67908 24.223 3.61178 24.2231 3.54448C24.2249 2.79324 24.3772 2.20848 24.8836 1.64017C25.1915 1.36002 25.512 1.16964 25.9036 1.03285C25.9476 1.01692 25.9916 1.00099 26.0369 0.984574C26.1701 0.936681 26.3036 0.889557 26.4371 0.84274C26.5468 0.804199 26.6564 0.765372 26.766 0.726515C27.0231 0.63542 27.2803 0.544849 27.5377 0.454483C27.5799 0.43963 27.6221 0.424777 27.6656 0.409473C28.8502 -0.00645328 29.7731 -0.157434 30.9826 0.281771Z" fill="#FEE0B1"/>
<path d="M30.9824 0.281771C31.1246 0.332924 31.2673 0.382561 31.4099 0.432423C32.7169 0.889871 32.7169 0.889871 33.3396 1.13428C33.3912 1.15455 33.4429 1.17483 33.4961 1.19572C34.01 1.42785 34.3629 1.87504 34.6109 2.3677C34.7574 2.75999 34.7686 3.15206 34.7682 3.56672C34.7681 3.66612 34.7687 3.7655 34.7695 3.86489C34.7715 4.14714 34.7727 4.42939 34.773 4.71164C34.7732 4.88518 34.7743 5.0587 34.7759 5.23224C34.7763 5.29789 34.7764 5.36354 34.7762 5.4292C34.775 5.78862 34.7868 6.06646 34.9805 6.37856C34.9805 6.4082 34.9805 6.43785 34.9805 6.4684C34.8767 6.4684 34.7729 6.4684 34.666 6.4684C34.6627 6.55144 34.6627 6.55144 34.6593 6.63615C34.6512 6.82896 34.6396 7.02143 34.627 7.214C34.622 7.30508 34.6207 7.39635 34.6202 7.48756C34.6121 7.63585 34.602 7.72989 34.5312 7.86098C34.3328 8.00352 34.0644 8.17543 33.8125 8.17543C33.7484 8.04714 33.7423 7.9223 33.7239 7.78008C33.72 7.74983 33.716 7.71958 33.712 7.68842C33.7037 7.62435 33.6955 7.56026 33.6874 7.49617C33.675 7.39854 33.6623 7.30096 33.6496 7.20338C33.6416 7.14106 33.6336 7.07874 33.6256 7.01641C33.6184 6.95982 33.6111 6.90322 33.6037 6.84492C33.5879 6.69301 33.5879 6.69301 33.5879 6.4684C30.8899 6.4684 28.1919 6.4684 25.4121 6.4684C25.3973 6.66111 25.3825 6.85383 25.3672 7.05238C25.3461 7.23523 25.3241 7.41747 25.2998 7.59987C25.294 7.64576 25.2881 7.69165 25.2821 7.73893C25.2763 7.78262 25.2706 7.82632 25.2647 7.87133C25.2596 7.91043 25.2545 7.94953 25.2492 7.98981C25.2324 8.08559 25.2324 8.08559 25.1875 8.17543C25.0965 8.1491 25.007 8.11783 24.918 8.08559C24.8801 8.07337 24.8422 8.06115 24.8032 8.04856C24.5001 7.93038 24.5001 7.93038 24.4215 7.75639C24.3948 7.61045 24.3852 7.47026 24.3789 7.32191C24.3743 7.24692 24.3695 7.17193 24.3647 7.09695C24.3519 6.88751 24.3423 6.67807 24.334 6.4684C24.2302 6.4684 24.1264 6.4684 24.0195 6.4684C24.0409 6.4019 24.0625 6.33546 24.0841 6.26906C24.0961 6.23206 24.1081 6.19505 24.1204 6.15693C24.1543 6.0641 24.1543 6.0641 24.1992 6.01918C24.2041 5.92535 24.2058 5.83135 24.2063 5.73739C24.2065 5.70794 24.2068 5.6785 24.207 5.64816C24.2075 5.58394 24.2079 5.51972 24.2082 5.4555C24.2087 5.35346 24.2096 5.25143 24.2106 5.14939C24.2133 4.85915 24.2157 4.56892 24.2172 4.27868C24.2182 4.10123 24.2198 3.9238 24.2218 3.74637C24.2224 3.67907 24.2228 3.61178 24.2229 3.54448C24.2247 2.79324 24.3771 2.20848 24.8834 1.64017C25.1914 1.36002 25.5118 1.16964 25.9034 1.03285C25.9474 1.01692 25.9914 1.00099 26.0367 0.984574C26.1699 0.936681 26.3034 0.889557 26.437 0.84274C26.5467 0.804199 26.6563 0.765372 26.7659 0.726515C27.0229 0.63542 27.2802 0.544849 27.5375 0.454483C27.5797 0.43963 27.6219 0.424777 27.6654 0.409473C28.8501 -0.00645328 29.7729 -0.157434 30.9824 0.281771Z" fill="url(#paint3_linear_2000_24459)"/>
<path d="M37.0918 15.1833C37.4981 15.4699 37.8465 15.8034 38.125 16.2166C38.1537 16.2585 38.1823 16.3004 38.2119 16.3436C38.6099 16.9546 38.8576 17.6262 38.8568 18.3597C38.8571 18.4012 38.8574 18.4427 38.8577 18.4855C38.8586 18.6216 38.8587 18.7577 38.8588 18.8938C38.8591 18.989 38.8594 19.0843 38.8597 19.1795C38.8603 19.3786 38.8605 19.5777 38.8604 19.7768C38.8604 20.0315 38.8616 20.2861 38.8632 20.5407C38.8642 20.7372 38.8643 20.9337 38.8643 21.1302C38.8644 21.2241 38.8648 21.3179 38.8655 21.4118C38.8664 21.5431 38.8661 21.6745 38.8656 21.8058C38.8661 21.8442 38.8666 21.8826 38.8671 21.9222C38.8639 22.2295 38.7795 22.4637 38.5758 22.6962C38.5466 22.7204 38.5173 22.7446 38.4872 22.7695C38.4435 22.8069 38.4435 22.8069 38.3989 22.845C38.2219 22.967 38.0639 23.011 37.8501 23.0106C37.8048 23.0107 37.7595 23.0108 37.7129 23.0109C37.6637 23.0106 37.6145 23.0103 37.5639 23.01C37.4856 23.01 37.4856 23.01 37.4058 23.01C37.2334 23.0099 37.0611 23.0092 36.8888 23.0085C36.7692 23.0084 36.6497 23.0082 36.5302 23.0081C36.2478 23.0079 35.9654 23.0071 35.683 23.0062C35.3615 23.0052 35.0399 23.0047 34.7183 23.0043C34.057 23.0033 33.3957 23.0018 32.7344 22.9998C32.7765 22.9148 32.8187 22.8299 32.861 22.745C32.8845 22.6977 32.908 22.6504 32.9322 22.6017C33.0385 22.3927 33.154 22.1895 33.2706 21.9862C33.3221 21.8959 33.3735 21.8055 33.4249 21.7151C33.4515 21.6682 33.4781 21.6214 33.5056 21.5731C33.6468 21.3233 33.7857 21.0721 33.9248 20.821C34.1562 20.4036 34.3896 19.9875 34.625 19.5724C34.8127 19.2409 34.9979 18.9081 35.1826 18.575C35.4138 18.1579 35.6469 17.7421 35.8822 17.3273C36.0154 17.0922 36.1476 16.8566 36.2786 16.6203C36.2935 16.5935 36.3084 16.5667 36.3237 16.539C36.3959 16.4089 36.4679 16.2787 36.5398 16.1485C36.7194 15.824 36.9036 15.5029 37.0918 15.1833Z" fill="url(#paint4_linear_2000_24459)"/>
<path d="M29.9941 4.67196C30.0355 4.67363 30.0769 4.6753 30.1196 4.67703C30.6935 4.70404 31.2549 4.78586 31.8191 4.89095C31.8639 4.89923 31.8639 4.89923 31.9096 4.90768C32.4782 5.01395 33.0316 5.16109 33.5739 5.36263C33.6101 5.37609 33.6463 5.38955 33.6837 5.40342C33.9658 5.51071 34.2306 5.63348 34.4863 5.79501C34.5209 5.81562 34.5555 5.83624 34.5911 5.85747C34.8373 6.01893 34.9196 6.1833 34.9805 6.46883C34.8767 6.46883 34.7729 6.46883 34.666 6.46883C34.6627 6.55187 34.6627 6.55187 34.6593 6.63659C34.6512 6.8294 34.6396 7.02186 34.627 7.21443C34.622 7.30551 34.6207 7.39678 34.6202 7.488C34.6121 7.63628 34.602 7.73032 34.5312 7.86141C34.3328 8.00395 34.0644 8.17586 33.8125 8.17586C33.7484 8.04758 33.7423 7.92273 33.7239 7.78052C33.718 7.73514 33.718 7.73514 33.712 7.68885C33.7037 7.62478 33.6955 7.5607 33.6874 7.49661C33.675 7.39898 33.6623 7.3014 33.6496 7.20381C33.6416 7.14149 33.6336 7.07917 33.6256 7.01685C33.6184 6.96025 33.6111 6.90366 33.6037 6.84535C33.5879 6.69344 33.5879 6.69344 33.5879 6.46883C30.8899 6.46883 28.1919 6.46883 25.4121 6.46883C25.3973 6.66155 25.3825 6.85426 25.3672 7.05282C25.3461 7.23567 25.3241 7.4179 25.2998 7.6003C25.294 7.64619 25.2881 7.69209 25.2821 7.73937C25.2763 7.78306 25.2706 7.82675 25.2647 7.87176C25.2596 7.91086 25.2545 7.94996 25.2492 7.99024C25.2324 8.08602 25.2324 8.08602 25.1875 8.17586C25.0965 8.14953 25.007 8.11826 24.918 8.08602C24.8801 8.0738 24.8422 8.06158 24.8032 8.049C24.5001 7.93082 24.5001 7.93082 24.4215 7.75683C24.3948 7.61088 24.3852 7.47069 24.3789 7.32235C24.3743 7.24736 24.3695 7.17237 24.3647 7.09739C24.3519 6.88794 24.3423 6.6785 24.334 6.46883C24.2302 6.46883 24.1264 6.46883 24.0195 6.46883C24.073 6.16265 24.1634 6.03471 24.4182 5.85397C25.1502 5.37725 26.004 5.13092 26.8496 4.94149C26.901 4.92956 26.9523 4.91763 27.0053 4.90534C27.9757 4.70093 29.0046 4.63002 29.9941 4.67196Z" fill="url(#paint5_linear_2000_24459)"/>
<path d="M29.9941 4.67196C30.0355 4.67363 30.0769 4.6753 30.1196 4.67703C30.6935 4.70404 31.2549 4.78586 31.8191 4.89095C31.8639 4.89923 31.8639 4.89923 31.9096 4.90768C32.4782 5.01395 33.0316 5.16109 33.5739 5.36263C33.6101 5.37609 33.6463 5.38955 33.6837 5.40342C33.9658 5.51071 34.2306 5.63348 34.4863 5.79501C34.5209 5.81562 34.5555 5.83624 34.5911 5.85747C34.8373 6.01893 34.9196 6.1833 34.9805 6.46883C34.8767 6.46883 34.7729 6.46883 34.666 6.46883C34.6627 6.55187 34.6627 6.55187 34.6593 6.63659C34.6512 6.8294 34.6396 7.02186 34.627 7.21443C34.622 7.30551 34.6207 7.39678 34.6202 7.488C34.6121 7.63628 34.602 7.73032 34.5312 7.86141C34.3328 8.00395 34.0644 8.17586 33.8125 8.17586C33.7484 8.04758 33.7423 7.92273 33.7239 7.78052C33.718 7.73514 33.718 7.73514 33.712 7.68885C33.7037 7.62478 33.6955 7.5607 33.6874 7.49661C33.675 7.39898 33.6623 7.3014 33.6496 7.20381C33.6416 7.14149 33.6336 7.07917 33.6256 7.01685C33.6184 6.96025 33.6111 6.90366 33.6037 6.84535C33.5879 6.69344 33.5879 6.69344 33.5879 6.46883C30.8899 6.46883 28.1919 6.46883 25.4121 6.46883C25.3973 6.66155 25.3825 6.85426 25.3672 7.05282C25.3461 7.23567 25.3241 7.4179 25.2998 7.6003C25.294 7.64619 25.2881 7.69209 25.2821 7.73937C25.2763 7.78306 25.2706 7.82675 25.2647 7.87176C25.2596 7.91086 25.2545 7.94996 25.2492 7.99024C25.2324 8.08602 25.2324 8.08602 25.1875 8.17586C25.0965 8.14953 25.007 8.11826 24.918 8.08602C24.8801 8.0738 24.8422 8.06158 24.8032 8.049C24.5001 7.93082 24.5001 7.93082 24.4215 7.75683C24.3948 7.61088 24.3852 7.47069 24.3789 7.32235C24.3743 7.24736 24.3695 7.17237 24.3647 7.09739C24.3519 6.88794 24.3423 6.6785 24.334 6.46883C24.2302 6.46883 24.1264 6.46883 24.0195 6.46883C24.073 6.16265 24.1634 6.03471 24.4182 5.85397C25.1502 5.37725 26.004 5.13092 26.8496 4.94149C26.901 4.92956 26.9523 4.91763 27.0053 4.90534C27.9757 4.70093 29.0046 4.63002 29.9941 4.67196Z" fill="url(#paint6_linear_2000_24459)"/>
<path d="M33.1663 13.0424C33.411 13.1109 33.5775 13.3413 33.7451 13.5216C33.7867 13.565 33.8283 13.6083 33.8701 13.6515C33.9715 13.7572 34.0721 13.8636 34.1719 13.9708C34.115 14.0896 34.0534 14.1976 33.9774 14.3051C33.9463 14.3493 33.9463 14.3493 33.9145 14.3944C33.8919 14.426 33.8694 14.4577 33.8462 14.4902C33.8225 14.5237 33.7988 14.5571 33.7743 14.5916C33.5699 14.8787 33.3612 15.1626 33.1515 15.446C32.9726 15.6878 32.7952 15.9308 32.6193 16.1748C32.5955 16.2077 32.5718 16.2405 32.5474 16.2744C32.4227 16.4472 32.2985 16.6205 32.1748 16.7941C32.1491 16.83 32.1234 16.8659 32.0969 16.9029C32.0483 16.9708 31.9999 17.0388 31.9517 17.1069C31.5292 17.6965 31.5292 17.6965 31.2997 17.8088C30.8794 17.7488 30.4439 17.1206 30.1514 16.8262C30.0924 16.767 30.0335 16.7078 29.9745 16.6487C29.8312 16.5049 29.688 16.3609 29.5449 16.2169C29.6066 16.0768 29.676 15.987 29.7881 15.8833C29.8186 15.8549 29.8492 15.8265 29.8806 15.7973C29.9125 15.7681 29.9444 15.7388 29.9773 15.7087C30.0082 15.68 30.039 15.6514 30.0708 15.6218C30.2542 15.452 30.4407 15.2863 30.6293 15.1223C30.7489 15.0174 30.8656 14.9098 30.9824 14.8019C31.158 14.6401 31.3354 14.481 31.5159 14.3246C31.6391 14.2159 31.76 14.1046 31.8809 13.9933C32.1353 13.7592 32.392 13.5285 32.6586 13.3082C32.7765 13.2171 32.7765 13.2171 32.8411 13.1257C32.944 13.0505 33.0409 13.0406 33.1663 13.0424Z" fill="url(#paint7_linear_2000_24459)"/>
<path d="M25.9212 13.0388C26.0853 13.0719 26.1523 13.0934 26.2684 13.2096C26.2981 13.2383 26.3278 13.2671 26.3585 13.2968C26.4014 13.3412 26.4014 13.3412 26.4453 13.3864C26.4848 13.426 26.4848 13.426 26.5252 13.4663C26.5772 13.5183 26.629 13.5705 26.6806 13.623C26.7881 13.7287 26.9016 13.8264 27.0158 13.9248C27.1419 14.0353 27.2653 14.1487 27.3887 14.2624C27.5369 14.3989 27.6856 14.5347 27.8379 14.6667C28.0145 14.8197 28.1861 14.978 28.358 15.1363C28.5097 15.2757 28.6635 15.4122 28.8192 15.5471C29.0342 15.7368 29.2442 15.9323 29.4551 16.1267C29.3951 16.2594 29.3291 16.3542 29.2274 16.458C29.1995 16.4866 29.1715 16.5152 29.1428 16.5447C29.1127 16.5751 29.0825 16.6055 29.0515 16.6368C29.0203 16.6683 28.9892 16.6999 28.9571 16.7324C28.8912 16.7989 28.8252 16.8653 28.7591 16.9316C28.6582 17.0331 28.5581 17.1354 28.458 17.2377C28.3939 17.3023 28.3296 17.3668 28.2654 17.4313C28.2356 17.462 28.2058 17.4926 28.1751 17.5242C28.0448 17.6533 27.9576 17.7341 27.781 17.7916C27.6219 17.7879 27.545 17.7274 27.4318 17.6194C27.2565 17.42 27.109 17.2005 26.9584 16.9823C26.8456 16.82 26.7296 16.6601 26.6138 16.5001C26.5893 16.4662 26.5648 16.4323 26.5396 16.3974C26.334 16.1131 26.126 15.8307 25.9174 15.5486C25.7086 15.2656 25.5021 14.981 25.297 14.6953C25.1433 14.4816 24.9868 14.2703 24.8281 14.0603C24.9341 13.819 25.1237 13.6512 25.3054 13.465C25.3406 13.4273 25.3757 13.3895 25.4119 13.3506C25.7087 13.0475 25.7087 13.0475 25.9212 13.0388Z" fill="url(#paint8_linear_2000_24459)"/>
<path d="M30.4436 1.21283C30.4815 1.22534 30.5194 1.23784 30.5585 1.25073C30.9908 1.40338 31.3289 1.67305 31.5666 2.06634C31.7003 2.36395 31.6844 2.64808 31.5738 2.94986C31.367 3.36558 30.9884 3.62939 30.561 3.7832C30.4177 3.82813 30.2743 3.86978 30.1291 3.90814C30.0868 3.91994 30.0868 3.91994 30.0436 3.93197C29.3554 4.08611 28.6131 3.93348 28.015 3.57965C27.6669 3.33729 27.429 3.0733 27.344 2.65033C27.3124 2.35062 27.3795 2.12052 27.5488 1.8749C28.2134 1.06102 29.483 0.840791 30.4436 1.21283Z" fill="url(#paint9_linear_2000_24459)"/>
<path d="M30.4436 1.21283C30.4815 1.22534 30.5194 1.23784 30.5585 1.25073C30.9908 1.40338 31.3289 1.67305 31.5666 2.06634C31.7003 2.36395 31.6844 2.64808 31.5738 2.94986C31.367 3.36558 30.9884 3.62939 30.561 3.7832C30.4177 3.82813 30.2743 3.86978 30.1291 3.90814C30.0868 3.91994 30.0868 3.91994 30.0436 3.93197C29.3554 4.08611 28.6131 3.93348 28.015 3.57965C27.6669 3.33729 27.429 3.0733 27.344 2.65033C27.3124 2.35062 27.3795 2.12052 27.5488 1.8749C28.2134 1.06102 29.483 0.840791 30.4436 1.21283Z" fill="url(#paint10_linear_2000_24459)"/>
<path d="M32.6895 12.2185C32.8584 12.4911 32.8951 12.8984 32.8242 13.2068C32.7027 13.4151 32.5059 13.5546 32.3129 13.6933C32.2226 13.7586 32.1403 13.831 32.0577 13.9059C32.0303 13.9296 32.003 13.9533 31.9747 13.9777C31.8519 14.0858 31.7317 14.1966 31.6113 14.3074C31.4362 14.4687 31.2592 14.6275 31.0793 14.7834C30.8642 14.9732 30.6542 15.1687 30.4434 15.363C30.4285 15.3334 30.4137 15.3037 30.3984 15.2732C30.3683 15.2678 30.3382 15.2624 30.3072 15.2569C30.1182 15.2163 29.9621 15.1302 29.792 15.0402C29.7549 15.0205 29.7178 15.0009 29.6796 14.9807C28.6415 14.4184 27.7185 13.6893 26.8945 12.8474C27.0533 12.8474 27.1021 12.8839 27.2343 12.9681C28.2714 13.6082 29.4284 13.7676 30.6172 13.5007C31.4157 13.297 32.1267 12.8109 32.6895 12.2185Z" fill="#FCC78E"/>
<path d="M26.2657 12.2185C26.3102 12.2574 26.3547 12.2963 26.4005 12.3364C26.5485 12.4642 26.7028 12.5789 26.8632 12.6905C26.9395 12.7576 26.9395 12.7576 26.9785 12.8383C27.0551 12.9873 27.1726 13.0957 27.2905 13.2124C27.3165 13.2382 27.3424 13.264 27.3692 13.2905C27.6053 13.5206 27.856 13.723 28.1226 13.9163C28.1989 13.9716 28.2746 14.0277 28.3502 14.0838C28.9617 14.5336 29.6751 15.0321 30.3985 15.2732C30.3047 15.4822 30.1592 15.6124 29.9942 15.7673C29.9484 15.8112 29.9484 15.8112 29.9016 15.8559C29.871 15.8841 29.8404 15.9124 29.8089 15.9414C29.781 15.9672 29.7531 15.9931 29.7244 16.0197C29.6161 16.0948 29.542 16.1204 29.4102 16.1267C29.3322 16.0734 29.3322 16.0734 29.2614 15.9919C29.1553 15.8762 29.0496 15.7683 28.9301 15.6663C28.7729 15.5307 28.6195 15.3914 28.4669 15.2507C28.3186 15.1142 28.17 14.9784 28.0177 14.8464C27.8411 14.6934 27.6694 14.5351 27.4976 14.3769C27.3456 14.2372 27.1916 14.1005 27.0355 13.9654C26.886 13.8333 26.7397 13.6977 26.5936 13.562C26.4894 13.4656 26.3934 13.3822 26.2715 13.3086C26.1603 13.1902 26.1617 13.1635 26.1622 13.0073C26.1674 12.9305 26.1739 12.8538 26.1815 12.7772C26.1843 12.7385 26.187 12.6997 26.1899 12.6597C26.2021 12.5029 26.2157 12.3685 26.2657 12.2185Z" fill="#FED5A2"/>
<path d="M33.5879 6.46851C33.9437 6.46851 34.2995 6.46851 34.666 6.46851C34.6474 6.90373 34.6474 6.90373 34.6346 7.09741C34.6261 7.22821 34.6209 7.35645 34.6202 7.48767C34.6121 7.63596 34.602 7.73 34.5312 7.86108C34.3328 8.00363 34.0644 8.17554 33.8125 8.17554C33.7484 8.04725 33.7423 7.92241 33.7239 7.78019C33.718 7.73481 33.718 7.73481 33.712 7.68852C33.7037 7.62445 33.6955 7.56037 33.6874 7.49628C33.675 7.39865 33.6623 7.30107 33.6496 7.20349C33.6416 7.14117 33.6336 7.07884 33.6256 7.01652C33.6148 6.93163 33.6148 6.93163 33.6037 6.84502C33.5879 6.69312 33.5879 6.69312 33.5879 6.46851Z" fill="#424242"/>
<path d="M24.334 6.46851C24.6898 6.46851 25.0455 6.46851 25.4121 6.46851C25.3887 6.84803 25.3484 7.22293 25.2998 7.59998C25.2939 7.64616 25.2881 7.69234 25.282 7.73993C25.2763 7.78333 25.2706 7.82672 25.2647 7.87144C25.257 7.93008 25.257 7.93008 25.2492 7.98992C25.2324 8.08569 25.2324 8.08569 25.1875 8.17554C25.0965 8.1492 25.007 8.11793 24.918 8.08569C24.8801 8.07348 24.8422 8.06126 24.8032 8.04867C24.5001 7.93049 24.5001 7.93049 24.4215 7.7565C24.3948 7.61055 24.3852 7.47036 24.3789 7.32202C24.3743 7.24703 24.3695 7.17204 24.3647 7.09706C24.3515 6.88754 24.343 6.67842 24.334 6.46851Z" fill="#424242"/>
<path d="M29.5029 19.3813C29.6682 19.413 29.7188 19.4481 29.8145 19.5863C29.8622 19.7407 29.8622 19.7407 29.8594 19.9008C29.7515 20.0545 29.6848 20.115 29.5001 20.1534C29.317 20.1153 29.251 20.05 29.1407 19.9008C29.1126 19.766 29.1126 19.766 29.1407 19.6312C29.2524 19.4801 29.3165 19.4156 29.5029 19.3813Z" fill="url(#paint11_linear_2000_24459)"/>
<path d="M29.5029 19.3813C29.6682 19.413 29.7188 19.4481 29.8145 19.5863C29.8622 19.7407 29.8622 19.7407 29.8594 19.9008C29.7515 20.0545 29.6848 20.115 29.5001 20.1534C29.317 20.1153 29.251 20.05 29.1407 19.9008C29.1126 19.766 29.1126 19.766 29.1407 19.6312C29.2524 19.4801 29.3165 19.4156 29.5029 19.3813Z" fill="url(#paint12_linear_2000_24459)"/>
<path d="M29.5029 17.5845C29.6682 17.6161 29.7188 17.6512 29.8145 17.7894C29.8622 17.9438 29.8622 17.9438 29.8594 18.1039C29.7515 18.2576 29.6848 18.3181 29.5001 18.3566C29.317 18.3184 29.251 18.2531 29.1407 18.1039C29.1126 17.9691 29.1126 17.9691 29.1407 17.8344C29.2524 17.6833 29.3165 17.6187 29.5029 17.5845Z" fill="url(#paint13_linear_2000_24459)"/>
<path d="M29.5029 17.5845C29.6682 17.6161 29.7188 17.6512 29.8145 17.7894C29.8622 17.9438 29.8622 17.9438 29.8594 18.1039C29.7515 18.2576 29.6848 18.3181 29.5001 18.3566C29.317 18.3184 29.251 18.2531 29.1407 18.1039C29.1126 17.9691 29.1126 17.9691 29.1407 17.8344C29.2524 17.6833 29.3165 17.6187 29.5029 17.5845Z" fill="url(#paint14_linear_2000_24459)"/>
</g>
</g>
<path d="M13.2451 12L15.1201 10.1245M15.1201 10.1245L13.2451 8.24951M15.1201 10.1245H6.87012V15.75" stroke="#144FAF" stroke-width="2" stroke-linecap="round" stroke-linejoin="round"/>
<path d="M28.7451 28L26.8701 29.875M26.8701 29.875L28.7451 31.75M26.8701 29.875H35.1201V24.2495" stroke="#144FAE" stroke-width="2" stroke-linecap="round" stroke-linejoin="round"/>
</g>
<defs>
<linearGradient id="paint0_linear_2000_24459" x1="12.4831" y1="23.5154" x2="12.4831" y2="35.5675" gradientUnits="userSpaceOnUse">
<stop stop-color="#00286A"/>
<stop offset="1" stop-color="#2B7CFF"/>
</linearGradient>
<linearGradient id="paint1_linear_2000_24459" x1="8.75116" y1="20" x2="8.75116" y2="31.6228" gradientUnits="userSpaceOnUse">
<stop stop-color="#FFCF4A"/>
<stop offset="1" stop-color="#E5A900"/>
</linearGradient>
<linearGradient id="paint2_linear_2000_24459" x1="29.5006" y1="0.0166016" x2="29.5006" y2="23.0229" gradientUnits="userSpaceOnUse">
<stop stop-color="#FFCF4A"/>
<stop offset="1" stop-color="#E5A900"/>
</linearGradient>
<linearGradient id="paint3_linear_2000_24459" x1="29.5" y1="0.0166016" x2="29.5" y2="8.17543" gradientUnits="userSpaceOnUse">
<stop stop-color="#FFCF4A"/>
<stop offset="1" stop-color="#E5A900"/>
</linearGradient>
<linearGradient id="paint4_linear_2000_24459" x1="36.9346" y1="14.3748" x2="35.8007" y2="23.0109" gradientUnits="userSpaceOnUse">
<stop stop-color="#FFCF4A"/>
<stop offset="1" stop-color="#E5A900"/>
</linearGradient>
<linearGradient id="paint5_linear_2000_24459" x1="29.5" y1="4.6604" x2="29.5" y2="8.17586" gradientUnits="userSpaceOnUse">
<stop stop-color="#FBC428"/>
<stop offset="1" stop-color="#FFDF84"/>
</linearGradient>
<linearGradient id="paint6_linear_2000_24459" x1="29.5" y1="4.6604" x2="29.5" y2="8.17586" gradientUnits="userSpaceOnUse">
<stop stop-color="#85B3FF"/>
<stop offset="1" stop-color="#2172F8"/>
</linearGradient>
<linearGradient id="paint7_linear_2000_24459" x1="31.8584" y1="13.0422" x2="31.8584" y2="17.8088" gradientUnits="userSpaceOnUse">
<stop stop-color="#1A5AC4"/>
<stop offset="1" stop-color="#2B7CFF"/>
</linearGradient>
<linearGradient id="paint8_linear_2000_24459" x1="27.1416" y1="13.0388" x2="27.1416" y2="17.7916" gradientUnits="userSpaceOnUse">
<stop stop-color="#1A5AC4"/>
<stop offset="1" stop-color="#2B7CFF"/>
</linearGradient>
<linearGradient id="paint9_linear_2000_24459" x1="29.4991" y1="1.0376" x2="29.4991" y2="3.99185" gradientUnits="userSpaceOnUse">
<stop stop-color="#FBC428"/>
<stop offset="1" stop-color="#FFDF84"/>
</linearGradient>
<linearGradient id="paint10_linear_2000_24459" x1="29.4991" y1="1.0376" x2="29.4991" y2="3.99185" gradientUnits="userSpaceOnUse">
<stop stop-color="#85B3FF"/>
<stop offset="1" stop-color="#2172F8"/>
</linearGradient>
<linearGradient id="paint11_linear_2000_24459" x1="29.49" y1="19.3813" x2="29.49" y2="20.1534" gradientUnits="userSpaceOnUse">
<stop stop-color="#FBC428"/>
<stop offset="1" stop-color="#FFDF84"/>
</linearGradient>
<linearGradient id="paint12_linear_2000_24459" x1="29.49" y1="19.3813" x2="29.49" y2="20.1534" gradientUnits="userSpaceOnUse">
<stop stop-color="#85B3FF"/>
<stop offset="1" stop-color="#2172F8"/>
</linearGradient>
<linearGradient id="paint13_linear_2000_24459" x1="29.49" y1="17.5845" x2="29.49" y2="18.3566" gradientUnits="userSpaceOnUse">
<stop stop-color="#FBC428"/>
<stop offset="1" stop-color="#FFDF84"/>
</linearGradient>
<linearGradient id="paint14_linear_2000_24459" x1="29.49" y1="17.5845" x2="29.49" y2="18.3566" gradientUnits="userSpaceOnUse">
<stop stop-color="#85B3FF"/>
<stop offset="1" stop-color="#2172F8"/>
</linearGradient>
<clipPath id="clip0_2000_24459">
<rect width="40" height="40" fill="white"/>
</clipPath>
<clipPath id="clip1_2000_24459">
<rect width="24" height="24" fill="white" transform="translate(0 16)"/>
</clipPath>
<clipPath id="clip2_2000_24459">
<rect width="22" height="22" fill="white" transform="translate(18)"/>
</clipPath>
<clipPath id="clip3_2000_24459">
<rect width="23" height="23" fill="white" transform="translate(18)"/>
</clipPath>
</defs>
</svg>
