<svg width="40" height="40" viewBox="0 0 40 40" fill="none" xmlns="http://www.w3.org/2000/svg">
<rect x="31.0166" y="21.6616" width="3.22358" height="1.84204" fill="white"/>
<circle cx="9.83173" cy="28.1086" r="1.38153" fill="white"/>
<circle cx="17.2009" cy="28.1086" r="1.38153" fill="white"/>
<circle cx="34.3942" cy="28.1086" r="1.38153" fill="white"/>
<rect x="36.2358" y="21.0464" width="2.45606" height="3.22358" fill="#FFC217"/>
<path d="M30.4023 20.2814V13.9878H34.9307L38.231 19.6674V20.2814H30.4023Z" fill="white"/>
<path fill-rule="evenodd" clip-rule="evenodd" d="M29.84 13.061L34.8028 13.102L35.042 13.2796C35.2061 13.4094 35.7803 14.3111 37.0449 16.4559C38.0224 18.1021 38.8563 19.4956 38.9042 19.557C38.9794 19.6322 38.9931 20.3699 38.9999 23.0749C38.9999 25.9642 38.9862 26.5312 38.8974 26.7771C38.8427 26.9342 38.706 27.1801 38.6034 27.3167C38.5009 27.4533 38.2616 27.6514 38.0771 27.7607C37.8857 27.87 37.6806 27.952 37.6122 27.952C37.5234 27.9588 37.496 27.8973 37.496 27.7334C37.496 27.6104 37.4345 27.3304 37.3525 27.105C37.2773 26.8796 37.1132 26.538 36.997 26.3536C36.874 26.1692 36.6416 25.9028 36.4707 25.7525C36.2998 25.609 35.9785 25.3973 35.7529 25.288C35.5137 25.1719 35.1377 25.0626 34.8643 25.0216C34.5635 24.9875 34.2217 24.9875 33.9415 25.0284C33.6954 25.0626 33.2989 25.1924 33.0528 25.3153C32.8136 25.4314 32.4513 25.6842 32.2599 25.8754C32.0275 26.094 31.8156 26.3946 31.6583 26.7293C31.508 27.0435 31.3917 27.4055 31.3097 28.0954H29.84V13.061ZM30.9953 19.7551C36.416 19.7551 37.5576 19.7346 37.5576 19.6868C37.5576 19.6527 36.9013 18.5119 36.1084 17.1595L34.6524 14.7072L30.9953 14.7004V19.7551ZM36.997 22.5079C37.0039 23.0202 37.0312 23.1637 37.1269 23.2593C37.2226 23.3481 37.373 23.3754 37.749 23.3754H38.2411V21.6677C37.4755 21.6677 37.2636 21.7019 37.1543 21.777C37.0039 21.8727 36.9902 21.9205 36.997 22.5079ZM31.3986 22.5421C31.4054 22.624 31.4806 22.7743 31.5763 22.8631C31.7335 23.0202 31.795 23.0339 32.3966 23.0339C32.7794 23.0339 33.1212 22.9997 33.2237 22.9519C33.3194 22.9041 33.4151 22.788 33.4425 22.6923C33.463 22.6035 33.4766 22.4806 33.463 22.4191C33.4561 22.3645 33.3946 22.262 33.3331 22.1937C33.2374 22.0912 33.1007 22.0776 32.4171 22.0776C31.672 22.0776 31.6105 22.0912 31.5079 22.2347C31.4464 22.3166 31.3986 22.4533 31.3986 22.5421ZM9.90709 25.7866C10.3241 25.8003 10.5428 25.8481 10.8299 25.9847C11.0487 26.094 11.3289 26.299 11.4998 26.497C11.6639 26.6746 11.8553 26.9684 11.9373 27.1323C12.0262 27.3304 12.0945 27.6309 12.115 27.952C12.1355 28.355 12.115 28.5463 12.0057 28.84C11.9236 29.0517 11.7664 29.3386 11.6434 29.4889C11.5272 29.6392 11.3153 29.8441 11.1785 29.9466C11.0418 30.0422 10.7616 30.1925 10.5565 30.2676C10.3309 30.3564 10.0233 30.411 9.79089 30.411C9.49695 30.411 9.27821 30.3564 8.93642 30.2061C8.67667 30.09 8.35539 29.8851 8.205 29.7416C8.06145 29.605 7.85638 29.3045 7.74701 29.079C7.63764 28.8536 7.5351 28.5189 7.50776 28.3277C7.48725 28.1364 7.50092 27.8085 7.55561 27.5763C7.61029 27.3236 7.73334 27.0367 7.88372 26.8181C8.02044 26.6268 8.23918 26.3809 8.36906 26.2716C8.49894 26.1623 8.77237 26.0052 8.98427 25.9164C9.29188 25.7935 9.46277 25.7662 9.90709 25.7866ZM8.96377 27.6788C8.88857 27.8222 8.85439 28.0135 8.86807 28.1569C8.88174 28.2935 8.95693 28.4916 9.03212 28.6009C9.10732 28.717 9.29188 28.8673 9.43543 28.9356C9.61999 29.0244 9.77722 29.0517 9.94127 29.0176C10.0712 28.9971 10.2489 28.9288 10.3377 28.8741C10.4198 28.8195 10.5497 28.676 10.6248 28.5531C10.7 28.4301 10.7616 28.2252 10.7616 28.0886C10.7616 27.9588 10.7069 27.7471 10.6317 27.6104C10.5633 27.4807 10.3993 27.3167 10.2762 27.2552C10.1463 27.1869 9.93444 27.1323 9.79772 27.1323C9.66101 27.1323 9.45594 27.2006 9.31922 27.2894C9.18934 27.3714 9.03212 27.549 8.96377 27.6788ZM17.2213 25.7935C17.5836 25.8071 17.8775 25.8686 18.0963 25.9642C18.274 26.0462 18.5679 26.258 18.7457 26.4356C18.9234 26.6132 19.1421 26.9137 19.231 27.0981C19.3404 27.3304 19.4087 27.6036 19.4292 27.952C19.4497 28.355 19.4292 28.5463 19.3199 28.84C19.2378 29.0517 19.0806 29.3386 18.9576 29.4889C18.8414 29.6392 18.6295 29.8441 18.4928 29.9466C18.356 30.0422 18.0758 30.1925 17.8707 30.2676C17.6451 30.3564 17.3375 30.411 17.1051 30.411C16.8112 30.411 16.5924 30.3564 16.2506 30.2061C15.9909 30.09 15.6696 29.8851 15.5192 29.7416C15.3757 29.605 15.1706 29.3045 15.0612 29.079C14.9519 28.8536 14.8493 28.5189 14.822 28.3277C14.8015 28.1364 14.8151 27.8085 14.8698 27.5763C14.9245 27.3236 15.0476 27.0367 15.1979 26.8181C15.3347 26.6268 15.5534 26.3809 15.6833 26.2716C15.8132 26.1623 16.0866 26.0052 16.2985 25.9164C16.6129 25.7866 16.7633 25.7662 17.2213 25.7935ZM16.3327 27.5626C16.278 27.6446 16.2165 27.8085 16.1891 27.9178C16.1686 28.0339 16.1823 28.2389 16.2233 28.3823C16.2643 28.5258 16.3942 28.7102 16.5241 28.8058C16.6403 28.9015 16.8659 28.9971 17.0162 29.0176C17.2076 29.0449 17.3649 29.0176 17.5289 28.9288C17.6588 28.8605 17.8365 28.7034 17.9254 28.5667C18.0143 28.4301 18.0758 28.2252 18.0758 28.0886C18.0758 27.9588 18.0211 27.7471 17.9459 27.6104C17.8775 27.4807 17.7135 27.3167 17.5904 27.2552C17.4606 27.1869 17.2487 27.1323 17.1188 27.1323C16.9889 27.1323 16.777 27.1938 16.6608 27.2689C16.5377 27.344 16.3874 27.4738 16.3327 27.5626ZM34.5157 25.7935C34.8985 25.8071 35.1582 25.8618 35.3701 25.9574C35.541 26.0394 35.8008 26.2101 35.9512 26.3331C36.1015 26.4629 36.334 26.7634 36.4638 27.0025C36.6894 27.4124 36.7031 27.4807 36.7031 28.0544C36.7031 28.5872 36.6758 28.7239 36.5185 29.0449C36.416 29.2566 36.2656 29.5026 36.1767 29.5914C36.0879 29.687 35.9101 29.8441 35.7803 29.9466C35.6504 30.049 35.3701 30.1925 35.1651 30.2676C34.9463 30.3564 34.6319 30.411 34.3995 30.411C34.0987 30.411 33.8868 30.3564 33.5108 30.1856C33.1417 30.0217 32.9229 29.8646 32.6837 29.5914C32.4308 29.3045 32.3214 29.1064 32.212 28.7375C32.1027 28.3687 32.0822 28.1706 32.1163 27.8495C32.1437 27.6241 32.2325 27.2894 32.3146 27.0981C32.4034 26.9137 32.6017 26.6268 32.7589 26.4697C32.9161 26.3058 33.1759 26.1145 33.3331 26.0326C33.4903 25.9506 33.7022 25.855 33.7979 25.8276C33.8936 25.7935 34.2149 25.7798 34.5157 25.7935ZM33.5723 27.6788C33.4903 27.8495 33.463 28.0066 33.4835 28.1911C33.504 28.3413 33.5723 28.5326 33.627 28.6214C33.6817 28.7034 33.7979 28.8195 33.8868 28.8741C33.9688 28.9356 34.1602 28.9971 34.3106 29.0176C34.502 29.0449 34.6592 29.0176 34.8233 28.9288C34.9531 28.8605 35.1309 28.7034 35.2197 28.5667C35.3086 28.4301 35.3701 28.2252 35.3701 28.0886C35.3701 27.9588 35.3154 27.7471 35.2402 27.6104C35.1719 27.4807 35.0078 27.3167 34.8848 27.2552C34.7549 27.1869 34.543 27.1323 34.4063 27.1323C34.2696 27.1323 34.0645 27.2006 33.9278 27.2894C33.7979 27.3714 33.6407 27.549 33.5723 27.6788ZM5.83984 24.2634H29.8488V28.0886H20.2632L20.2359 27.9383C20.2154 27.8495 20.1812 27.6446 20.1607 27.4738C20.1402 27.3099 20.024 26.9684 19.9077 26.7225C19.7779 26.4561 19.5386 26.1282 19.313 25.9028C19.0875 25.6774 18.7457 25.4314 18.4859 25.3017C18.2398 25.1855 17.8434 25.0558 17.5973 25.0216C17.3444 24.9875 16.9752 24.9806 16.7428 25.0148C16.5172 25.0489 16.196 25.1241 16.0251 25.1924C15.8542 25.2607 15.5944 25.3905 15.444 25.4861C15.2936 25.5817 15.0339 25.8003 14.8698 25.9711C14.7058 26.1418 14.4939 26.4356 14.3982 26.62C14.3025 26.8113 14.1863 27.1186 14.1384 27.3031C14.0837 27.4943 14.0427 27.7471 14.0427 28.0886H13.4958C12.9832 28.0886 12.949 28.0818 12.9216 27.9383C12.9011 27.8495 12.8738 27.6446 12.8533 27.4738C12.8328 27.3099 12.7166 26.9684 12.5935 26.7225C12.4705 26.4697 12.2176 26.1214 11.9988 25.9028C11.7732 25.6774 11.4315 25.4314 11.1717 25.3017C10.9256 25.1855 10.5291 25.0558 10.2831 25.0216C10.0301 24.9875 9.66101 24.9806 9.42859 25.0148C9.20302 25.0489 8.88174 25.1241 8.71084 25.1924C8.53995 25.2607 8.28019 25.3905 8.12981 25.4861C7.97942 25.5817 7.71967 25.8003 7.55561 25.9711C7.39155 26.1418 7.17964 26.4356 7.08394 26.62C6.98824 26.8113 6.87204 27.1186 6.82419 27.3031C6.7695 27.4943 6.72849 27.7334 6.72849 27.8359C6.72849 27.9656 6.69431 28.0203 6.61228 28.0203C6.54392 28.0203 6.40037 27.9656 6.28417 27.8973C6.17479 27.829 6.02441 27.6583 5.96289 27.5216C5.86035 27.3099 5.83984 27.0572 5.83984 25.7662V24.2634Z" fill="url(#paint0_linear_2000_129060)"/>
<path d="M29.2779 8L4.74661 8.00737L4.46929 8.24313C4.31286 8.37575 4.14932 8.59678 4.09244 8.7294C4.02133 8.92096 4 10.4019 4 16.4654L4.00711 23.9583C4.30575 24.3488 4.51907 24.5256 4.6755 24.5993C4.9457 24.7245 5.61409 24.7319 17.5242 24.7319H30.0956C30.0956 9.49563 30.0885 8.95043 29.9748 8.69256C29.9037 8.54521 29.7188 8.32418 29.5624 8.21366L29.2779 8Z" fill="url(#paint1_linear_2000_129060)"/>
<path d="M6.59668 15.7655C6.59668 11.7422 6.61035 11.0523 6.69922 10.8815C6.7539 10.7654 6.88378 10.6288 6.98632 10.5741C7.08885 10.5195 7.30759 10.4717 7.46482 10.4717C7.70407 10.4717 7.8066 10.5127 8.27143 10.9362L8.2851 15.6357C8.30561 19.3174 8.2851 20.383 8.21674 20.5401C8.16889 20.6494 8.04585 20.8065 7.94332 20.8953C7.81344 21.0046 7.66989 21.0593 7.48532 21.0593C7.33494 21.0593 7.11619 21.0046 7.00682 20.9363C6.89745 20.868 6.76074 20.7314 6.69922 20.6289C6.61035 20.465 6.59668 19.8434 6.59668 15.7655Z" fill="white"/>
<path d="M11.1083 15.7996C11.1083 13.0332 11.1356 11.2231 11.1766 11.066C11.2176 10.9225 11.3338 10.7381 11.4569 10.6424C11.6141 10.5058 11.744 10.4717 12.0037 10.4717C12.2908 10.4717 12.366 10.499 12.8172 10.9498V15.6972C12.8172 19.7751 12.8035 20.4718 12.7146 20.6494C12.66 20.7587 12.5164 20.8953 12.407 20.9568C12.2908 21.0115 12.0994 21.0593 11.9764 21.0593C11.8533 21.0593 11.6483 20.991 11.5184 20.9022C11.3748 20.8065 11.245 20.6494 11.1971 20.506C11.1356 20.3352 11.1151 19.0784 11.1083 15.7996Z" fill="white"/>
<path d="M15.7019 15.8543C15.6882 12.1452 15.7019 11.0728 15.7702 10.9157C15.8181 10.8064 15.9479 10.6629 16.0641 10.5946C16.1735 10.5263 16.3854 10.4717 16.5221 10.4717C16.6657 10.4717 16.8708 10.5195 16.987 10.5878C17.1032 10.6561 17.2399 10.8064 17.2946 10.9293C17.3834 11.1206 17.3971 11.831 17.3971 15.7655C17.3971 19.7273 17.3834 20.4035 17.2946 20.5811C17.2399 20.6904 17.1032 20.8475 17.0006 20.9227C16.8776 21.0115 16.7135 21.0593 16.5221 21.0593C16.2897 21.0593 16.1804 21.0115 15.7224 20.588L15.7019 15.8543Z" fill="white"/>
<path d="M20.1998 15.7996C20.1998 13.0332 20.2271 11.2231 20.2681 11.066C20.3091 10.9225 20.4253 10.7381 20.5484 10.6424C20.7056 10.5058 20.8355 10.4717 21.0952 10.4717C21.3823 10.4717 21.4575 10.499 21.9087 10.9498V15.7313C21.9087 20.1713 21.9019 20.5197 21.7856 20.6904C21.7241 20.786 21.5806 20.909 21.478 20.9636C21.3755 21.0115 21.1909 21.0593 21.0679 21.0593C20.9448 21.0593 20.7398 20.991 20.6099 20.9022C20.4663 20.8065 20.3365 20.6494 20.2886 20.506C20.2271 20.3352 20.2066 19.0784 20.1998 15.7996Z" fill="white"/>
<path d="M24.7934 15.8679C24.7797 11.8105 24.7934 11.1206 24.8822 10.9293C24.9369 10.8064 25.0668 10.6561 25.1693 10.5878C25.2719 10.5263 25.4769 10.4717 25.6136 10.4717C25.7572 10.4717 25.9623 10.5195 26.0785 10.5878C26.1947 10.6561 26.3314 10.8064 26.3861 10.9293C26.4749 11.1206 26.4818 11.8242 26.4544 20.588L26.1947 20.8202C25.9828 21.0183 25.8871 21.0593 25.6342 21.0593C25.3744 21.0593 25.2787 21.0183 24.8139 20.588L24.7934 15.8679Z" fill="white"/>
<circle cx="7.5" cy="26.5" r="5.5" fill="url(#paint2_linear_2000_129060)"/>
<path d="M5 26.5002H7.50004M7.50004 26.5002H10M7.50004 26.5002L7.49987 29M7.50004 26.5002L7.49987 24" stroke="white" stroke-width="1.50006" stroke-linecap="round" stroke-linejoin="round"/>
<defs>
<linearGradient id="paint0_linear_2000_129060" x1="17.7222" y1="34.4149" x2="35.1661" y2="16.2852" gradientUnits="userSpaceOnUse">
<stop stop-color="#176CF7"/>
<stop offset="1" stop-color="#0C36C1"/>
</linearGradient>
<linearGradient id="paint1_linear_2000_129060" x1="17.0478" y1="8" x2="17.0478" y2="24.7319" gradientUnits="userSpaceOnUse">
<stop stop-color="#FFCF4A"/>
<stop offset="1" stop-color="#E5A900"/>
</linearGradient>
<linearGradient id="paint2_linear_2000_129060" x1="5.94167" y1="34.5385" x2="15.2316" y2="29.4867" gradientUnits="userSpaceOnUse">
<stop stop-color="#176CF7"/>
<stop offset="1" stop-color="#0C36C1"/>
</linearGradient>
</defs>
</svg>
