<svg width="40" height="41" viewBox="0 0 40 41" fill="none" xmlns="http://www.w3.org/2000/svg">
<circle cx="8.99862" cy="31.2362" r="1.18417" fill="white"/>
<circle cx="15.315" cy="31.2362" r="1.18417" fill="white"/>
<circle cx="30.0514" cy="31.2362" r="1.18417" fill="white"/>
<rect x="31.6309" y="25.1826" width="2.1052" height="2.76307" fill="#FFC217"/>
<path d="M26.6309 24.5269V19.1323H30.5123L33.3412 24.0006V24.5269H26.6309Z" fill="white"/>
<path fill-rule="evenodd" clip-rule="evenodd" d="M26.1487 18.3381L30.4025 18.3733L30.6076 18.5255C30.7482 18.6367 31.2404 19.4096 32.3243 21.248C33.1622 22.659 33.877 23.8534 33.918 23.9061C33.9825 23.9705 33.9942 24.6029 34.0001 26.9214C34.0001 29.398 33.9883 29.884 33.9122 30.0948C33.8653 30.2294 33.7481 30.4402 33.6602 30.5573C33.5723 30.6744 33.3673 30.8442 33.2091 30.9379C33.045 31.0315 32.8692 31.1018 32.8106 31.1018C32.7345 31.1077 32.711 31.055 32.711 30.9144C32.711 30.8091 32.6583 30.569 32.588 30.3758C32.5235 30.1826 32.3829 29.8898 32.2833 29.7318C32.1778 29.5737 31.9786 29.3453 31.8322 29.2165C31.6857 29.0936 31.4103 28.9121 31.2169 28.8184C31.0119 28.7189 30.6896 28.6252 30.4552 28.5901C30.1974 28.5608 29.9045 28.5608 29.6643 28.5959C29.4533 28.6252 29.1135 28.7364 28.9026 28.8418C28.6975 28.9413 28.387 29.158 28.2229 29.3219C28.0237 29.5093 27.8421 29.7669 27.7073 30.0538C27.5784 30.3231 27.4788 30.6334 27.4085 31.2248H26.1487V18.3381ZM27.1389 24.0759C31.7853 24.0759 32.7638 24.0584 32.7638 24.0174C32.7638 23.9881 32.2013 23.0103 31.5216 21.8511L30.2736 19.7492L27.1389 19.7433V24.0759ZM32.2833 26.4355C32.2892 26.8746 32.3126 26.9975 32.3946 27.0795C32.4767 27.1556 32.6056 27.179 32.9278 27.179H33.3497V25.7153C32.6935 25.7153 32.5118 25.7446 32.4181 25.809C32.2892 25.8909 32.2775 25.9319 32.2833 26.4355ZM27.4846 26.4647C27.4905 26.535 27.5549 26.6638 27.637 26.7399C27.7717 26.8746 27.8245 26.8863 28.3401 26.8863C28.6682 26.8863 28.9612 26.857 29.049 26.816C29.1311 26.775 29.2131 26.6755 29.2365 26.5935C29.2541 26.5174 29.2658 26.412 29.2541 26.3593C29.2483 26.3125 29.1955 26.2247 29.1428 26.1661C29.0608 26.0783 28.9436 26.0666 28.3577 26.0666C27.719 26.0666 27.6663 26.0783 27.5784 26.2013C27.5257 26.2715 27.4846 26.3886 27.4846 26.4647ZM9.06336 29.2458C9.42077 29.2575 9.60827 29.2985 9.85435 29.4156C10.0418 29.5093 10.2821 29.6849 10.4286 29.8547C10.5692 30.0069 10.7332 30.2587 10.8035 30.3992C10.8797 30.569 10.9383 30.8266 10.9559 31.1018C10.9735 31.4472 10.9559 31.6112 10.8621 31.8629C10.7918 32.0444 10.6571 32.2903 10.5516 32.4192C10.452 32.548 10.2704 32.7236 10.1532 32.8114C10.036 32.8934 9.79576 33.0222 9.61999 33.0866C9.42663 33.1627 9.16297 33.2096 8.96376 33.2096C8.71181 33.2096 8.52432 33.1627 8.23136 33.0339C8.00871 32.9344 7.73333 32.7587 7.60443 32.6358C7.48138 32.5187 7.30561 32.2611 7.21186 32.0679C7.11811 31.8746 7.03023 31.5878 7.00679 31.4238C6.98921 31.2599 7.00093 30.9788 7.0478 30.7798C7.09468 30.5632 7.20014 30.3172 7.32904 30.1299C7.44623 29.966 7.63372 29.7552 7.74505 29.6615C7.85637 29.5678 8.09074 29.4332 8.27237 29.357C8.53604 29.2517 8.68252 29.2282 9.06336 29.2458ZM8.2548 30.8676C8.19034 30.9906 8.16105 31.1545 8.17277 31.2774C8.18449 31.3945 8.24894 31.5643 8.31339 31.658C8.37784 31.7576 8.53604 31.8864 8.65908 31.9449C8.81728 32.021 8.95204 32.0444 9.09266 32.0152C9.20398 31.9976 9.35632 31.9391 9.43249 31.8922C9.5028 31.8454 9.61413 31.7224 9.67858 31.617C9.74303 31.5116 9.79576 31.336 9.79576 31.2189C9.79576 31.1077 9.74889 30.9262 9.68444 30.8091C9.62585 30.6978 9.48522 30.5573 9.37976 30.5046C9.26844 30.4461 9.0868 30.3992 8.96962 30.3992C8.85243 30.3992 8.67666 30.4578 8.55947 30.5339C8.44815 30.6041 8.31339 30.7564 8.2548 30.8676ZM15.3327 29.2517C15.6432 29.2634 15.8952 29.3161 16.0827 29.398C16.235 29.4683 16.4869 29.6498 16.6393 29.802C16.7916 29.9542 16.9791 30.2119 17.0553 30.3699C17.149 30.569 17.2076 30.8032 17.2252 31.1018C17.2428 31.4472 17.2252 31.6112 17.1315 31.8629C17.0612 32.0444 16.9264 32.2903 16.8209 32.4192C16.7213 32.548 16.5397 32.7236 16.4225 32.8114C16.3053 32.8934 16.0651 33.0222 15.8893 33.0866C15.696 33.1627 15.4323 33.2096 15.2331 33.2096C14.9811 33.2096 14.7936 33.1627 14.5007 33.0339C14.278 32.9344 14.0027 32.7587 13.8738 32.6358C13.7507 32.5187 13.5749 32.2611 13.4812 32.0679C13.3874 31.8746 13.2996 31.5878 13.2761 31.4238C13.2585 31.2599 13.2703 30.9788 13.3171 30.7798C13.364 30.5632 13.4695 30.3172 13.5984 30.1299C13.7156 29.966 13.9031 29.7552 14.0144 29.6615C14.1257 29.5678 14.3601 29.4332 14.5417 29.357C14.8112 29.2458 14.9401 29.2282 15.3327 29.2517ZM14.571 30.7681C14.5241 30.8383 14.4714 30.9788 14.448 31.0725C14.4304 31.1721 14.4421 31.3477 14.4773 31.4707C14.5124 31.5936 14.6237 31.7517 14.7351 31.8337C14.8347 31.9156 15.028 31.9976 15.1569 32.0152C15.321 32.0386 15.4557 32.0152 15.5964 31.9391C15.7077 31.8805 15.86 31.7458 15.9362 31.6287C16.0124 31.5116 16.0651 31.336 16.0651 31.2189C16.0651 31.1077 16.0182 30.9262 15.9538 30.8091C15.8952 30.6978 15.7546 30.5573 15.6491 30.5046C15.5378 30.4461 15.3561 30.3992 15.2448 30.3992C15.1335 30.3992 14.9518 30.4519 14.8522 30.5163C14.7468 30.5807 14.6179 30.692 14.571 30.7681ZM30.1564 29.2517C30.4845 29.2634 30.7072 29.3102 30.8888 29.3922C31.0353 29.4624 31.258 29.6088 31.3869 29.7142C31.5158 29.8254 31.715 30.083 31.8263 30.288C32.0196 30.6393 32.0314 30.6978 32.0314 31.1896C32.0314 31.6463 32.0079 31.7634 31.8732 32.0386C31.7853 32.2201 31.6564 32.4309 31.5802 32.507C31.504 32.5889 31.3517 32.7236 31.2404 32.8114C31.1291 32.8993 30.8888 33.0222 30.713 33.0866C30.5256 33.1627 30.256 33.2096 30.0568 33.2096C29.799 33.2096 29.6174 33.1627 29.2951 33.0164C28.9787 32.8758 28.7912 32.7412 28.5862 32.507C28.3694 32.2611 28.2756 32.0913 28.1819 31.7751C28.0881 31.459 28.0706 31.2892 28.0999 31.014C28.1233 30.8208 28.1995 30.5339 28.2698 30.3699C28.3459 30.2119 28.5159 29.966 28.6506 29.8313C28.7854 29.6908 29.008 29.5268 29.1428 29.4566C29.2776 29.3863 29.4592 29.3043 29.5412 29.2809C29.6232 29.2517 29.8986 29.2399 30.1564 29.2517ZM29.3479 30.8676C29.2776 31.014 29.2541 31.1486 29.2717 31.3067C29.2893 31.4355 29.3479 31.5995 29.3947 31.6756C29.4416 31.7458 29.5412 31.8454 29.6174 31.8922C29.6877 31.9449 29.8517 31.9976 29.9807 32.0152C30.1447 32.0386 30.2795 32.0152 30.4201 31.9391C30.5314 31.8805 30.6838 31.7458 30.7599 31.6287C30.8361 31.5116 30.8888 31.336 30.8888 31.2189C30.8888 31.1077 30.842 30.9262 30.7775 30.8091C30.7189 30.6978 30.5783 30.5573 30.4728 30.5046C30.3615 30.4461 30.1799 30.3992 30.0627 30.3992C29.9455 30.3992 29.7697 30.4578 29.6525 30.5339C29.5412 30.6041 29.4065 30.7564 29.3479 30.8676ZM5.57715 27.9402H26.1562V31.2189H17.94L17.9166 31.0901C17.899 31.014 17.8697 30.8383 17.8521 30.692C17.8346 30.5514 17.735 30.2587 17.6354 30.0479C17.524 29.8196 17.319 29.5385 17.1256 29.3453C16.9322 29.1521 16.6393 28.9413 16.4166 28.8301C16.2057 28.7306 15.8659 28.6193 15.6549 28.5901C15.4382 28.5608 15.1218 28.5549 14.9225 28.5842C14.7292 28.6135 14.4538 28.6779 14.3073 28.7364C14.1609 28.795 13.9382 28.9062 13.8093 28.9882C13.6804 29.0702 13.4578 29.2575 13.3171 29.4039C13.1765 29.5503 12.9949 29.802 12.9128 29.9601C12.8308 30.124 12.7312 30.3875 12.6902 30.5456C12.6433 30.7095 12.6082 30.9262 12.6082 31.2189H12.1394C11.7 31.2189 11.6707 31.213 11.6473 31.0901C11.6297 31.014 11.6062 30.8383 11.5887 30.692C11.5711 30.5514 11.4715 30.2587 11.366 30.0479C11.2606 29.8313 11.0438 29.5327 10.8563 29.3453C10.6629 29.1521 10.37 28.9413 10.1473 28.8301C9.93638 28.7306 9.59655 28.6193 9.38562 28.5901C9.16883 28.5608 8.85243 28.5549 8.65322 28.5842C8.45987 28.6135 8.18449 28.6779 8.03801 28.7364C7.89153 28.795 7.66888 28.9062 7.53998 28.9882C7.41107 29.0702 7.18842 29.2575 7.0478 29.4039C6.90718 29.5503 6.72555 29.802 6.64352 29.9601C6.56149 30.124 6.46189 30.3875 6.42087 30.5456C6.374 30.7095 6.33884 30.9144 6.33884 31.0023C6.33884 31.1135 6.30955 31.1603 6.23924 31.1603C6.18064 31.1603 6.0576 31.1135 5.958 31.055C5.86425 30.9964 5.73535 30.85 5.68261 30.7329C5.59473 30.5514 5.57715 30.3348 5.57715 29.2282V27.9402Z" fill="url(#paint0_linear_685_137897)"/>
<path d="M25.6668 14L4.63995 14.0063L4.40225 14.2084C4.26817 14.3221 4.12799 14.5115 4.07923 14.6252C4.01828 14.7894 4 16.0587 4 21.2561L4.00609 27.6786C4.26207 28.0133 4.44492 28.1648 4.579 28.228C4.8106 28.3353 5.38351 28.3416 15.5922 28.3416H26.3677C26.3677 15.282 26.3616 14.8147 26.2641 14.5936C26.2031 14.4673 26.0447 14.2779 25.9106 14.1831L25.6668 14Z" fill="url(#paint1_linear_685_137897)"/>
<path d="M6.22559 20.6562C6.22559 17.2077 6.2373 16.6163 6.31347 16.4699C6.36035 16.3704 6.47167 16.2533 6.55956 16.2065C6.64745 16.1596 6.83494 16.1187 6.9697 16.1187C7.17477 16.1187 7.26266 16.1538 7.66109 16.5168L7.6728 20.545C7.69038 23.7007 7.6728 24.6141 7.61421 24.7488C7.5732 24.8424 7.46773 24.9771 7.37985 25.0532C7.26852 25.1469 7.14548 25.1937 6.98728 25.1937C6.85838 25.1937 6.67088 25.1469 6.57714 25.0883C6.48339 25.0298 6.36621 24.9127 6.31347 24.8249C6.2373 24.6844 6.22559 24.1516 6.22559 20.6562Z" fill="white"/>
<path d="M10.0926 20.6855C10.0926 18.3142 10.1161 16.7627 10.1512 16.628C10.1864 16.5051 10.286 16.347 10.3915 16.265C10.5262 16.1479 10.6376 16.1187 10.8602 16.1187C11.1063 16.1187 11.1707 16.1421 11.5574 16.5285V20.5976C11.5574 24.093 11.5457 24.6902 11.4696 24.8424C11.4227 24.9361 11.2996 25.0532 11.2059 25.1059C11.1063 25.1528 10.9422 25.1937 10.8368 25.1937C10.7313 25.1937 10.5555 25.1352 10.4442 25.0591C10.3212 24.9771 10.2098 24.8424 10.1688 24.7195C10.1161 24.5731 10.0985 23.4958 10.0926 20.6855Z" fill="white"/>
<path d="M14.03 20.7323C14.0183 17.5531 14.03 16.6339 14.0886 16.4992C14.1296 16.4055 14.241 16.2826 14.3406 16.224C14.4343 16.1655 14.6159 16.1187 14.7331 16.1187C14.8562 16.1187 15.0319 16.1596 15.1315 16.2182C15.2312 16.2767 15.3483 16.4055 15.3952 16.5109C15.4714 16.6749 15.4831 17.2838 15.4831 20.6562C15.4831 24.052 15.4714 24.6317 15.3952 24.7839C15.3483 24.8776 15.2312 25.0122 15.1433 25.0766C15.0378 25.1528 14.8972 25.1937 14.7331 25.1937C14.5339 25.1937 14.4402 25.1528 14.0476 24.7897L14.03 20.7323Z" fill="white"/>
<path d="M17.8854 20.6855C17.8854 18.3142 17.9088 16.7627 17.944 16.628C17.9791 16.5051 18.0787 16.347 18.1842 16.265C18.3189 16.1479 18.4303 16.1187 18.6529 16.1187C18.899 16.1187 18.9635 16.1421 19.3502 16.5285V20.6269C19.3502 24.4326 19.3443 24.7312 19.2447 24.8776C19.192 24.9595 19.0689 25.0649 18.981 25.1118C18.8931 25.1528 18.7349 25.1937 18.6295 25.1937C18.524 25.1937 18.3482 25.1352 18.2369 25.0591C18.1139 24.9771 18.0025 24.8424 17.9615 24.7195C17.9088 24.5731 17.8912 23.4958 17.8854 20.6855Z" fill="white"/>
<path d="M21.8227 20.744C21.811 17.2662 21.8227 16.6749 21.8989 16.5109C21.9458 16.4055 22.0571 16.2767 22.145 16.2182C22.2329 16.1655 22.4087 16.1187 22.5258 16.1187C22.6489 16.1187 22.8247 16.1596 22.9243 16.2182C23.0239 16.2767 23.1411 16.4055 23.1879 16.5109C23.2641 16.6749 23.27 17.2779 23.2465 24.7897L23.0239 24.9888C22.8422 25.1586 22.7602 25.1937 22.5434 25.1937C22.3208 25.1937 22.2387 25.1586 21.8403 24.7897L21.8227 20.744Z" fill="white"/>
<g clip-path="url(#clip0_685_137897)">
<rect x="28.0957" y="10.0952" width="6.80952" height="6.28571" fill="url(#paint2_linear_685_137897)"/>
<path d="M33.4207 8.91675H29.5799C27.9116 8.91675 26.917 9.91133 26.917 11.5797V15.4205C26.917 17.0888 27.9116 18.0834 29.5799 18.0834H33.4207C35.0891 18.0834 36.0837 17.0888 36.0837 15.4205V11.5797C36.0837 9.91133 35.0891 8.91675 33.4207 8.91675ZM30.5699 14.8292L29.5387 15.8605C29.4699 15.9292 29.3828 15.9613 29.2957 15.9613C29.2087 15.9613 29.117 15.9292 29.0528 15.8605L28.7091 15.5167C28.5716 15.3838 28.5716 15.1638 28.7091 15.0309C28.842 14.898 29.0574 14.898 29.1949 15.0309L29.2957 15.1317L30.0841 14.3434C30.217 14.2105 30.4324 14.2105 30.5699 14.3434C30.7028 14.4763 30.7028 14.6963 30.5699 14.8292ZM30.5699 11.6209L29.5387 12.6522C29.4699 12.7209 29.3828 12.753 29.2957 12.753C29.2087 12.753 29.117 12.7209 29.0528 12.6522L28.7091 12.3084C28.5716 12.1755 28.5716 11.9555 28.7091 11.8226C28.842 11.6897 29.0574 11.6897 29.1949 11.8226L29.2957 11.9234L30.0841 11.1351C30.217 11.0022 30.4324 11.0022 30.5699 11.1351C30.7028 11.268 30.7028 11.488 30.5699 11.6209ZM34.0487 15.6176H31.6424C31.4545 15.6176 31.2987 15.4617 31.2987 15.2738C31.2987 15.0859 31.4545 14.9301 31.6424 14.9301H34.0487C34.2412 14.9301 34.3924 15.0859 34.3924 15.2738C34.3924 15.4617 34.2412 15.6176 34.0487 15.6176ZM34.0487 12.4092H31.6424C31.4545 12.4092 31.2987 12.2534 31.2987 12.0655C31.2987 11.8776 31.4545 11.7217 31.6424 11.7217H34.0487C34.2412 11.7217 34.3924 11.8776 34.3924 12.0655C34.3924 12.2534 34.2412 12.4092 34.0487 12.4092Z" fill="url(#paint3_linear_685_137897)"/>
</g>
<defs>
<linearGradient id="paint0_linear_685_137897" x1="19.7886" y1="18.3381" x2="19.7886" y2="33.2096" gradientUnits="userSpaceOnUse">
<stop stop-color="#00286A"/>
<stop offset="1" stop-color="#2B7CFF"/>
</linearGradient>
<linearGradient id="paint1_linear_685_137897" x1="15.1838" y1="14" x2="15.1838" y2="28.3416" gradientUnits="userSpaceOnUse">
<stop stop-color="#FFCF4A"/>
<stop offset="1" stop-color="#E5A900"/>
</linearGradient>
<linearGradient id="paint2_linear_685_137897" x1="30.5358" y1="17.8315" x2="36.0675" y2="14.5727" gradientUnits="userSpaceOnUse">
<stop stop-color="#176CF7"/>
<stop offset="1" stop-color="#0C36C1"/>
</linearGradient>
<linearGradient id="paint3_linear_685_137897" x1="30.2017" y1="20.1988" x2="37.9434" y2="15.989" gradientUnits="userSpaceOnUse">
<stop stop-color="#FFBC00"/>
<stop offset="1" stop-color="#FFD14F"/>
</linearGradient>
<clipPath id="clip0_685_137897">
<rect width="11" height="11" fill="white" transform="translate(26 8)"/>
</clipPath>
</defs>
</svg>
