<svg width="20" height="20" viewBox="0 0 20 20" fill="none" xmlns="http://www.w3.org/2000/svg">
<path d="M13.6932 9.50196C16.0077 9.50196 17.8849 11.3785 17.8851 13.693C17.8851 16.0077 16.0079 17.8849 13.6932 17.8849C11.3787 17.8847 9.50212 16.0076 9.50212 13.693C9.50232 11.3787 11.3788 9.50216 13.6932 9.50196ZM3.58822 12.4333C3.8181 12.4335 4.00481 12.62 4.00488 12.8499C4.00493 14.3057 5.18516 15.4867 6.6416 15.4867H6.85645L6.65218 15.2824L6.59847 15.2173C6.49171 15.0556 6.50996 14.8356 6.65218 14.6932C6.79457 14.5508 7.01454 14.5327 7.17627 14.6395L7.24137 14.6932L8.1569 15.6087L8.16178 15.6152C8.1776 15.6317 8.19195 15.6493 8.20492 15.6681L8.21061 15.6746C8.21158 15.6761 8.21209 15.678 8.21305 15.6795C8.22122 15.6923 8.22826 15.7057 8.23503 15.7194C8.23691 15.7232 8.23896 15.727 8.24072 15.7308C8.24355 15.737 8.24636 15.7432 8.24886 15.7495C8.25275 15.7593 8.25547 15.7695 8.25863 15.7796C8.26226 15.7913 8.26663 15.8027 8.26921 15.8146C8.27197 15.8274 8.27333 15.8405 8.2749 15.8537C8.27548 15.8583 8.27693 15.8629 8.27734 15.8675C8.27777 15.8726 8.2771 15.8779 8.27734 15.883C8.27769 15.8897 8.27978 15.8965 8.27979 15.9033C8.27976 15.9084 8.27753 15.9137 8.27734 15.9188C8.27713 15.9255 8.2779 15.9324 8.27734 15.9391C8.27674 15.9459 8.27501 15.9527 8.27409 15.9595C8.27301 15.9674 8.27153 15.9753 8.27002 15.9831C8.26648 16.0016 8.26144 16.0196 8.25537 16.0376C8.25391 16.0419 8.2529 16.0464 8.2513 16.0506C8.24492 16.0676 8.2372 16.0841 8.22852 16.1003C8.2254 16.106 8.22212 16.1117 8.21875 16.1174C8.21567 16.1225 8.21394 16.1286 8.21061 16.1336L8.19434 16.1523C8.18667 16.1626 8.17848 16.1722 8.16992 16.1816L8.1569 16.1987L7.24137 17.1143C7.07867 17.2769 6.81489 17.2769 6.65218 17.1143C6.4897 16.9515 6.48958 16.6877 6.65218 16.5251L6.85726 16.32H6.6416C4.72477 16.32 3.17078 14.7658 3.17074 12.8499C3.17081 12.6199 3.35814 12.4333 3.58822 12.4333ZM13.6932 10.2718C11.8037 10.272 10.2722 11.8035 10.272 13.693C10.272 15.5828 11.8035 17.1149 13.6932 17.1151C15.583 17.1151 17.1152 15.5829 17.1152 13.693C17.115 11.8034 15.5829 10.2718 13.6932 10.2718ZM12.4367 15.1725C12.3418 15.3622 12.1106 15.4386 11.9207 15.3442C11.7307 15.2492 11.6532 15.0183 11.7482 14.8283L12.4367 15.1725ZM15.6398 14.8283C15.7344 15.0179 15.6574 15.249 15.4681 15.3442C15.2783 15.4391 15.0473 15.3621 14.9521 15.1725L15.6398 14.8283ZM13.694 11.4119C13.8394 11.4123 13.9732 11.4951 14.0382 11.6252L15.6398 14.8283L15.2956 15L14.9521 15.1725L14.7764 14.8202H12.6125L12.4367 15.1725L12.0924 15L11.7482 14.8283L13.3506 11.6252L13.3774 11.578C13.4486 11.4753 13.5668 11.412 13.694 11.4119ZM12.9974 14.0511H14.3914L13.694 12.6563L12.9974 14.0511ZM7.70117 2.11507C9.16258 2.11508 10.3468 3.30015 10.3468 4.76156V7.70101C10.3468 9.16242 9.16258 10.3467 7.70117 10.3467H4.76172C3.30031 10.3467 2.11524 9.16242 2.11523 7.70101V4.76156C2.11523 3.30015 3.30031 2.11507 4.76172 2.11507H7.70117ZM4.76172 2.88493C3.72514 2.88493 2.88509 3.72498 2.88509 4.76156V7.70101C2.88509 8.73759 3.72514 9.57764 4.76172 9.57764H7.70117C8.73775 9.57764 9.5778 8.73759 9.5778 7.70101V4.76156C9.5778 3.72498 8.73775 2.88493 7.70117 2.88493H4.76172ZM6.23145 4.48975C6.44362 4.48997 6.61629 4.66247 6.61637 4.87468V5.00326H6.94759C6.96288 5.00141 6.97819 4.99837 6.99398 4.99837C7.00976 4.99838 7.02507 5.00141 7.04036 5.00326H7.75407L7.83138 5.01058C8.00667 5.0464 8.13895 5.20151 8.139 5.38737C8.1388 5.57311 8.00659 5.72838 7.83138 5.76416L7.75407 5.7723H7.35205C7.29024 6.22234 7.12069 6.63766 6.87354 6.99219C7.09175 7.19983 7.34415 7.32739 7.6084 7.36247L7.75814 7.37305L7.83545 7.38037C8.01065 7.41623 8.14298 7.57139 8.14307 7.75716C8.14307 7.943 8.01067 8.09806 7.83545 8.13395L7.75814 8.14209L7.62956 8.13802C7.13642 8.10514 6.69817 7.88398 6.34945 7.55453C5.89719 7.92027 5.32887 8.14209 4.70475 8.14209C4.49244 8.14209 4.31999 7.97026 4.31982 7.75798C4.31982 7.54556 4.49234 7.37305 4.70475 7.37305C5.22761 7.37305 5.7057 7.1499 6.05241 6.78711C6.07056 6.76047 6.09305 6.73668 6.11833 6.71468C6.34316 6.45464 6.50443 6.13227 6.57243 5.7723H4.70882C4.49654 5.7723 4.32411 5.5996 4.32389 5.38737C4.32394 5.175 4.49644 5.00326 4.70882 5.00326H5.84733V4.87468C5.84742 4.66236 6.01912 4.4898 6.23145 4.48975ZM12.8241 2.83122C12.9856 2.72481 13.205 2.74313 13.3473 2.88493C13.4897 3.02731 13.5078 3.2473 13.401 3.40902L13.3473 3.47412L13.1423 3.6792H13.3587C15.2753 3.6792 16.8283 5.23374 16.8288 7.14925C16.8287 7.37931 16.6422 7.56592 16.4121 7.56592C16.1822 7.56568 15.9955 7.37916 15.9954 7.14925C15.995 5.69383 14.8149 4.51254 13.3587 4.51254H13.1431L13.3473 4.7168L13.401 4.78272C13.5076 4.94434 13.4894 5.16368 13.3473 5.30599C13.205 5.44826 12.9857 5.46631 12.8241 5.3597L12.7581 5.30599L11.8467 4.39453C11.8263 4.3746 11.8073 4.35237 11.7913 4.32862L11.7889 4.32536C11.7599 4.28117 11.7399 4.23221 11.7295 4.18213C11.7283 4.17642 11.728 4.17002 11.7271 4.16423C11.724 4.14521 11.7218 4.12567 11.7214 4.10645C11.7212 4.1032 11.7206 4.09912 11.7205 4.09587C11.7206 4.0914 11.7212 4.08648 11.7214 4.08203C11.722 4.06555 11.7237 4.04873 11.7262 4.03239C11.7281 4.02045 11.7299 4.00817 11.7327 3.99658C11.7353 3.98649 11.7392 3.97641 11.7425 3.96647C11.746 3.9557 11.7487 3.94428 11.7531 3.93392L11.7596 3.9209C11.7629 3.91376 11.7672 3.90673 11.771 3.89974C11.7778 3.88703 11.784 3.87358 11.7922 3.86149L11.7954 3.85824C11.801 3.85029 11.8079 3.84308 11.8141 3.83545C11.8234 3.82389 11.8319 3.8112 11.8426 3.80046L12.7581 2.88493L12.8241 2.83122Z" fill="currentColor"/>
</svg>
