<svg width="20" height="20" viewBox="0 0 20 20" fill="none" xmlns="http://www.w3.org/2000/svg">
<path d="M17.7077 8.125H2.29102V14.1667C2.29102 15.2022 3.13048 16.0417 4.16602 16.0417H15.8327C16.8682 16.0417 17.7077 15.2022 17.7077 14.1667V8.125ZM9.16602 12.7083C9.51119 12.7083 9.79102 12.9882 9.79102 13.3333C9.79102 13.6785 9.51119 13.9583 9.16602 13.9583H4.16602C3.82084 13.9583 3.54102 13.6785 3.54102 13.3333C3.54102 12.9882 3.82084 12.7083 4.16602 12.7083H9.16602ZM15.8327 12.7083C16.1779 12.7083 16.4577 12.9882 16.4577 13.3333C16.4577 13.6785 16.1779 13.9583 15.8327 13.9583H14.5827C14.2375 13.9583 13.9577 13.6785 13.9577 13.3333C13.9577 12.9882 14.2375 12.7083 14.5827 12.7083H15.8327ZM6.66602 10.625C7.01119 10.625 7.29102 10.9048 7.29102 11.25C7.29102 11.5952 7.01119 11.875 6.66602 11.875H4.16602C3.82084 11.875 3.54102 11.5952 3.54102 11.25C3.54102 10.9048 3.82084 10.625 4.16602 10.625H6.66602ZM17.7077 5.83333C17.7077 4.7978 16.8682 3.95833 15.8327 3.95833H4.16602C3.13048 3.95833 2.29102 4.7978 2.29102 5.83333V6.875H17.7077V5.83333ZM18.9577 14.1667C18.9577 15.8926 17.5586 17.2917 15.8327 17.2917H4.16602C2.44013 17.2917 1.04102 15.8926 1.04102 14.1667V5.83333C1.04102 4.10744 2.44013 2.70833 4.16602 2.70833H15.8327C17.5586 2.70833 18.9577 4.10744 18.9577 5.83333V14.1667Z" fill="currentColor"/>
</svg>
