<svg width="24" height="24" viewBox="0 0 24 24" fill="none" xmlns="http://www.w3.org/2000/svg">
<rect width="24" height="24" rx="4" />
<path fill-rule="evenodd" clip-rule="evenodd" d="M8.67679 9.3974L8.66895 9.54914L11.6044 12.9622L11.7099 12.9789L11.7231 12.9723L11.7746 12.878L10.5227 8.72494L10.3103 8.58301L8.67679 9.3974Z" fill="#0096B8"/>
<path fill-rule="evenodd" clip-rule="evenodd" d="M11.6044 12.9623L11.7097 12.9791L9.54497 9.715L8.66895 9.54932L11.6044 12.9623Z" fill="#005675"/>
<path fill-rule="evenodd" clip-rule="evenodd" d="M10.3109 8.58301L9.5625 9.45616L9.86812 9.58858L10.5233 8.72508V8.72494L10.3109 8.58301Z" fill="#0BBBEF"/>
<path fill-rule="evenodd" clip-rule="evenodd" d="M9.86719 9.58845L11.7231 12.9722L11.7746 12.8776L10.5228 8.7251L9.86719 9.58845Z" fill="#007290"/>
<path fill-rule="evenodd" clip-rule="evenodd" d="M13.2232 8.59172L11.9678 14.2081L12.012 14.3135L12.0331 14.3229L12.1753 14.286L15.2903 9.60942L15.2868 9.36544L13.3886 8.50049L13.2232 8.59172Z" fill="#81B73E"/>
<path fill-rule="evenodd" clip-rule="evenodd" d="M14.0256 9.71622L12.0332 14.3229L12.175 14.286L15.2902 9.60938L14.0256 9.71622Z" fill="#69931D"/>
<path fill-rule="evenodd" clip-rule="evenodd" d="M11.9668 14.2078L12.0112 14.3132L13.6665 9.52066L13.2222 8.5918L11.9668 14.2078Z" fill="#277933"/>
<path fill-rule="evenodd" clip-rule="evenodd" d="M15.2857 9.36572L13.9531 9.38279L14.0249 9.71648L15.2893 9.60956L15.2859 9.36572H15.2857Z" fill="#AECC53"/>
<path fill-rule="evenodd" clip-rule="evenodd" d="M13.2227 8.59199L13.6665 9.52071L13.9535 9.38299L13.388 8.50098L13.2227 8.59199Z" fill="#69931D"/>
<path fill-rule="evenodd" clip-rule="evenodd" d="M12.994 7L10.5641 7.02593L10.4883 7.17011L11.8309 11.0056L11.9107 11.0587L11.913 11.0591L11.987 11.0168L13.1511 7.1614L12.994 7Z" fill="#E4032E"/>
<path fill-rule="evenodd" clip-rule="evenodd" d="M10.4883 7.17007L11.8309 11.0055L11.9102 11.0588L11.4299 7.63443L10.4883 7.16992V7.17007Z" fill="#791B15"/>
<path fill-rule="evenodd" clip-rule="evenodd" d="M11.8867 7.63528L11.913 11.0593L11.9869 11.0166L13.151 7.16162L11.8867 7.63528Z" fill="#B51227"/>
<path fill-rule="evenodd" clip-rule="evenodd" d="M14.9043 17.3498C14.9062 17.3096 14.9085 17.2454 14.9104 17.1578V15.471L14.9052 15.3074C14.904 15.2727 14.9024 15.2491 14.9007 15.2364C14.899 15.2233 14.8964 15.212 14.8927 15.2018C14.8806 15.1603 14.854 15.1309 14.814 15.113C14.777 15.0967 14.7223 15.0888 14.6514 15.0883V15.0311L15.568 15.0308C15.7013 15.0313 15.8216 15.0403 15.929 15.0586C16.0365 15.0765 16.123 15.1014 16.1893 15.1332C16.3808 15.2288 16.4755 15.3896 16.4744 15.618C16.4767 15.9451 16.2721 16.1536 15.8486 16.2075L15.7776 16.2195C15.8728 16.2232 16.0015 16.2563 16.0615 16.2711C16.121 16.2855 16.1793 16.3083 16.2365 16.3396C16.4612 16.4583 16.5719 16.6479 16.5697 16.9106C16.5708 17.2292 16.423 17.4362 16.1229 17.5341C16.0574 17.5539 15.9751 17.5693 15.8758 17.5807C15.776 17.592 15.6679 17.5977 15.551 17.5979H14.6514V17.5404C14.7574 17.5391 14.8302 17.522 14.8625 17.4821C14.8759 17.4687 14.8855 17.4537 14.8918 17.4367C14.8982 17.4194 14.9022 17.3897 14.9043 17.3498ZM15.1865 15.1098V16.1802H15.5442C15.9601 16.1776 16.1755 15.9961 16.1778 15.6325C16.1807 15.2795 15.9538 15.1072 15.5135 15.1098H15.1865ZM16.2495 16.8817C16.247 16.6325 16.1613 16.456 15.9901 16.3572C15.938 16.3296 15.8721 16.3081 15.7927 16.2928C15.7136 16.2776 15.6261 16.27 15.5305 16.2697H15.1865V17.5192H15.5305C15.7798 17.5203 15.962 17.4714 16.0743 17.369C16.1311 17.3195 16.1743 17.253 16.2043 17.1693C16.2341 17.0855 16.249 16.9894 16.2495 16.8817Z" fill="black"/>
<path fill-rule="evenodd" clip-rule="evenodd" d="M17.8819 17.5246C17.8632 17.486 17.8501 17.44 17.8446 17.3223L17.8429 17.2877L17.8209 17.314C17.7946 17.3447 17.7689 17.372 17.7439 17.3949C17.7185 17.4179 17.6891 17.4416 17.6562 17.4655C17.5839 17.5214 17.5142 17.5608 17.4474 17.5837C17.3805 17.6066 17.3052 17.6176 17.2212 17.6168C17.075 17.6176 16.9628 17.5811 16.8826 17.5094C16.8378 17.4671 16.8025 17.4138 16.7766 17.3491C16.7511 17.2845 16.7378 17.2152 16.7373 17.1406C16.7389 16.8659 16.8993 16.6889 17.2276 16.6103C17.3145 16.5891 17.4062 16.5717 17.5027 16.5583C17.5994 16.5446 17.7093 16.5334 17.8319 16.5247L17.8446 16.2851C17.8446 16.2032 17.841 16.1367 17.8334 16.0863C17.8258 16.0351 17.8131 15.9905 17.7954 15.9529C17.7468 15.8531 17.6474 15.8053 17.504 15.8053C17.2737 15.8039 17.149 15.9193 17.136 16.148C17.1348 16.1845 17.1315 16.2103 17.1269 16.2255C17.1225 16.2402 17.115 16.251 17.1045 16.2589C17.0815 16.2752 17.045 16.2844 16.9928 16.2851C16.8798 16.2867 16.8376 16.2515 16.8395 16.1922C16.8402 16.1302 16.8598 16.0701 16.8991 16.0122C16.9386 15.9542 16.9934 15.9035 17.0643 15.8607C17.1917 15.7864 17.355 15.7486 17.5551 15.7477C17.7741 15.7486 17.921 15.8005 18.0012 15.9004C18.0338 15.9422 18.0578 15.9941 18.0734 16.0569C18.0891 16.1194 18.097 16.199 18.0969 16.2956L18.0966 16.3159L18.0948 16.4096L18.09 16.6571L18.0866 16.9972L18.0832 17.1619C18.0836 17.2394 18.0866 17.2984 18.0919 17.3646C18.0968 17.429 18.1187 17.5009 18.1678 17.5199C18.2188 17.5398 18.2681 17.5477 18.3618 17.5483C18.4305 17.547 18.4835 17.5385 18.5194 17.5225C18.5603 17.5044 18.5855 17.4655 18.5965 17.4104C18.607 17.3567 18.6115 17.2748 18.6105 17.1653V16.2053C18.6127 16.0745 18.5983 15.9826 18.5629 15.9345C18.5282 15.8878 18.4638 15.8675 18.3753 15.8686V15.8173L18.8627 15.7803V16.1882L18.8881 16.1405C18.9602 16.0057 19.042 15.9101 19.1332 15.8529C19.2243 15.7956 19.3384 15.7669 19.4758 15.7686C19.6827 15.7654 19.8265 15.8381 19.9107 15.9836C19.9417 16.0325 19.9641 16.091 19.9775 16.1599C19.9909 16.2287 19.9977 16.3165 19.9972 16.4236V17.1653C19.996 17.2759 20.0003 17.3583 20.0105 17.4119C20.021 17.4671 20.0457 17.5057 20.0868 17.5233C20.1209 17.5383 20.2001 17.5462 20.2676 17.5479C20.3309 17.5462 20.3798 17.5377 20.4133 17.5225C20.4532 17.5041 20.4774 17.4652 20.4876 17.4104C20.4976 17.3566 20.5019 17.2748 20.5006 17.1653V15.4213C20.5019 15.3213 20.4979 15.2472 20.4884 15.1994C20.4784 15.1494 20.4539 15.1153 20.4139 15.1003C20.3792 15.0875 20.3271 15.0814 20.2587 15.0811V15.0302L20.7656 15.0029C20.7593 15.1213 20.7545 15.2421 20.7511 15.3659C20.7478 15.4948 20.7461 15.6075 20.7461 15.7039V16.8755L21.3045 16.2326C21.3835 16.1407 21.4268 16.0635 21.4274 16.0015C21.4314 15.9154 21.3487 15.8765 21.2127 15.8694V15.8184H21.9385V15.8701C21.8949 15.8754 21.857 15.8838 21.8247 15.8954C21.7896 15.908 21.7537 15.9261 21.7169 15.9495C21.6797 15.9731 21.6483 15.9949 21.6231 16.0146C21.5973 16.0348 21.5669 16.0637 21.5321 16.101C21.4972 16.1384 21.4465 16.1948 21.38 16.2707L21.1957 16.4793L21.6782 17.277C21.7333 17.3715 21.7839 17.4382 21.8305 17.476C21.8749 17.5123 21.9316 17.5356 21.9999 17.5467V17.5987H21.5585C21.5465 17.573 21.5297 17.5393 21.5084 17.4981L21.4383 17.3634L21.3845 17.2619L21.0275 16.6505L20.7469 16.9807L20.7461 17.1653C20.7448 17.2748 20.7491 17.3567 20.7593 17.4104C20.7696 17.4655 20.7941 17.5041 20.8346 17.5225C20.8701 17.5385 20.9227 17.547 20.9912 17.5483V17.5987H19.4997V17.5483C19.6007 17.5453 19.6702 17.5281 19.6979 17.4891C19.7091 17.4742 19.7175 17.4571 19.7236 17.4379C19.7294 17.4187 19.733 17.3938 19.7347 17.3634C19.7367 17.3394 19.7388 17.3047 19.741 17.2593C19.7436 17.2136 19.7448 17.1823 19.745 17.1656V16.4451C19.7457 16.2676 19.7275 16.136 19.6893 16.0524C19.631 15.9209 19.5261 15.8549 19.3772 15.8544C19.2111 15.8539 19.0788 15.9369 18.9807 16.101C18.9437 16.1631 18.915 16.2337 18.8942 16.3125C18.8737 16.3912 18.8629 16.469 18.8627 16.5452V17.1653C18.8615 17.2759 18.8658 17.3583 18.8759 17.4119C18.8864 17.4671 18.9112 17.5057 18.9523 17.5233C18.9883 17.539 19.0417 17.547 19.1114 17.5483V17.5987H18.3778C18.3128 17.601 18.1887 17.6045 18.1273 17.6036C18.0628 17.6026 18.0318 17.5955 17.9731 17.5908C17.921 17.5747 17.8991 17.5606 17.8819 17.5246ZM17.0165 17.1298C17.0177 17.2467 17.0447 17.3415 17.0987 17.4129C17.1528 17.4849 17.2259 17.5219 17.3162 17.5235C17.4074 17.5223 17.4938 17.4972 17.5742 17.449C17.6547 17.4004 17.7182 17.3354 17.7641 17.2551C17.7921 17.2038 17.8125 17.138 17.8253 17.0578C17.838 16.9785 17.8443 16.8795 17.8443 16.7611V16.5772C17.6809 16.5922 17.564 16.6084 17.4792 16.6274C17.3936 16.6463 17.3181 16.6733 17.2522 16.709C17.0961 16.7905 17.0177 16.9318 17.0165 17.1298Z" fill="black"/>
<path fill-rule="evenodd" clip-rule="evenodd" d="M2.66443 16.5174V17.1559C2.66316 17.2583 2.66878 17.3345 2.68117 17.3842C2.69375 17.4338 2.72071 17.4666 2.76248 17.4826C2.80406 17.4986 2.8682 17.5079 2.95445 17.5094V17.5987H2V17.5094C2.08124 17.5079 2.14139 17.4986 2.18062 17.4826C2.2196 17.4666 2.24481 17.4338 2.25635 17.3842C2.26778 17.3345 2.27304 17.2583 2.27183 17.1559V15.4771C2.27292 15.3746 2.2679 15.2984 2.25684 15.2488C2.24572 15.1989 2.22136 15.1658 2.18412 15.1492C2.14676 15.1327 2.0894 15.123 2.01203 15.1201V15.0308H2.92115C3.22761 15.0295 3.45217 15.0862 3.59471 15.2012C3.7373 15.3163 3.80778 15.4973 3.80609 15.745C3.80718 16.0927 3.67824 16.3204 3.41947 16.4281C3.35201 16.4557 3.26594 16.4775 3.16142 16.4932C3.05667 16.509 2.94037 16.5171 2.8124 16.5174H2.66443ZM2.66463 16.4179H2.82179C3.01057 16.417 3.14941 16.3704 3.23857 16.277C3.28699 16.2232 3.32368 16.1523 3.34883 16.0648C3.37373 15.9776 3.38642 15.8778 3.38655 15.7654C3.38558 15.3426 3.20926 15.1309 2.85806 15.1303H2.66463V16.4179Z" fill="black"/>
<path fill-rule="evenodd" clip-rule="evenodd" d="M5.3432 16.625H4.23279C4.23388 16.7495 4.24083 16.854 4.25352 16.9383C4.26616 17.0224 4.28653 17.0993 4.31445 17.1691C4.40669 17.3951 4.54917 17.508 4.74199 17.508C4.85116 17.5072 4.95011 17.4736 5.03903 17.4066C5.12776 17.3397 5.20169 17.2433 5.26051 17.118L5.33915 17.1726C5.26184 17.3344 5.16736 17.4531 5.05583 17.529C4.94431 17.6047 4.8083 17.6423 4.64757 17.6414C4.39485 17.638 4.16231 17.5532 4.01675 17.3869C3.87108 17.2206 3.79685 16.9927 3.79395 16.7037C3.79685 16.4124 3.86866 16.1821 4.00932 16.0124C4.14986 15.8428 4.37429 15.7561 4.6162 15.7524C4.77705 15.7528 4.9324 15.7913 5.04266 15.868C5.15291 15.9445 5.23421 16.0566 5.28662 16.2042C5.30372 16.2531 5.31678 16.309 5.32555 16.3724C5.33437 16.4354 5.3403 16.5197 5.3432 16.625ZM4.23538 16.526H4.93003C4.92719 16.4203 4.92187 16.3353 4.91389 16.2709C4.9061 16.2063 4.89352 16.1488 4.87666 16.0981C4.8179 15.9185 4.72784 15.8294 4.60634 15.831C4.47003 15.8324 4.36842 15.9326 4.30139 16.1322C4.28422 16.184 4.27056 16.2407 4.26004 16.3022C4.24964 16.3637 4.24136 16.4382 4.23538 16.526Z" fill="black"/>
<path fill-rule="evenodd" clip-rule="evenodd" d="M5.41345 15.8014L6.0294 15.7568C6.03272 15.8215 6.03514 15.8755 6.03683 15.9194C6.03853 15.9635 6.03931 16.0021 6.03931 16.0358V16.139C6.17314 15.8819 6.33478 15.7521 6.52422 15.75C6.60606 15.7516 6.67261 15.7767 6.72363 15.8251C6.77477 15.8737 6.80112 15.9359 6.80264 16.0116C6.80149 16.0746 6.77936 16.1251 6.73633 16.1631C6.69335 16.2009 6.63677 16.2207 6.56683 16.2214C6.48269 16.2243 6.43137 16.1878 6.41281 16.1114C6.40066 16.0641 6.38815 16.0321 6.3751 16.015C6.36216 15.9979 6.34312 15.99 6.31773 15.9909H6.31126C6.24677 15.9966 6.18565 16.0504 6.12769 16.1529C6.10157 16.2038 6.08193 16.26 6.06881 16.3217C6.05569 16.3835 6.04917 16.4547 6.04917 16.5351V17.172C6.04784 17.2736 6.05261 17.3485 6.06325 17.3968C6.07383 17.4448 6.09801 17.4763 6.13548 17.4914C6.17314 17.5061 6.23159 17.5144 6.31126 17.5163V17.5988H5.40039V17.5163C5.47462 17.5165 5.52969 17.509 5.56535 17.4935C5.60126 17.478 5.62435 17.4457 5.63498 17.3968C5.64574 17.3474 5.65046 17.2726 5.64949 17.172V16.2181C5.65239 16.0762 5.63897 15.984 5.60887 15.9414C5.57877 15.8989 5.51367 15.8797 5.41345 15.8842V15.8014Z" fill="black"/>
<path fill-rule="evenodd" clip-rule="evenodd" d="M7.53418 15.7568L7.53751 16.0977C7.67019 15.8682 7.86023 15.7524 8.10764 15.75C8.35922 15.7484 8.51439 15.8687 8.57284 16.1117C8.64393 15.9864 8.72529 15.8947 8.8165 15.8367C8.90772 15.7781 9.01434 15.7492 9.13633 15.75C9.32915 15.751 9.47114 15.8178 9.56235 15.9496C9.5979 15.9998 9.62341 16.0607 9.63846 16.133C9.65369 16.2054 9.66106 16.2992 9.66064 16.4145V17.172C9.65949 17.2726 9.66433 17.3474 9.67497 17.3965C9.68561 17.4457 9.70888 17.478 9.74454 17.4935C9.78045 17.509 9.83545 17.5166 9.90968 17.516V17.5988H9.02166V17.516C9.09268 17.5166 9.14539 17.509 9.17979 17.4935C9.21424 17.478 9.23667 17.4457 9.24682 17.3965C9.25734 17.3474 9.26193 17.2726 9.26097 17.172V16.4179C9.26175 16.237 9.24048 16.1064 9.1975 16.0263C9.1544 15.946 9.08489 15.9068 8.9889 15.9084C8.87368 15.906 8.77643 15.9691 8.69736 16.0977C8.62918 16.2049 8.59521 16.321 8.59569 16.4455V17.172C8.59472 17.2726 8.59938 17.3474 8.60977 17.3965C8.62029 17.4457 8.64296 17.478 8.67778 17.4935C8.71271 17.509 8.76609 17.5166 8.83826 17.516V17.5988H7.96009V17.516C8.03106 17.5166 8.08383 17.509 8.11828 17.4935C8.15267 17.478 8.17504 17.4457 8.18526 17.3965C8.19565 17.3474 8.20043 17.2726 8.19922 17.172V16.4145C8.20091 16.0736 8.11248 15.9049 7.93386 15.9084C7.82276 15.9126 7.72955 15.968 7.65459 16.0744C7.57946 16.181 7.54041 16.3139 7.53751 16.473V17.172C7.53648 17.2737 7.54107 17.3493 7.55147 17.3982C7.56181 17.4472 7.58411 17.4793 7.61851 17.4943C7.65296 17.5093 7.70561 17.5166 7.7767 17.516V17.5988H6.88867V17.516C6.96302 17.5166 7.01785 17.5093 7.05375 17.4943C7.08948 17.4793 7.11275 17.4472 7.12339 17.3982C7.13409 17.3493 7.13886 17.2737 7.13765 17.172V16.2149C7.14116 16.0747 7.12774 15.984 7.09752 15.9425C7.06741 15.9008 7.00001 15.8816 6.89532 15.8842V15.8015L7.53418 15.7568Z" fill="black"/>
<path fill-rule="evenodd" clip-rule="evenodd" d="M12.2398 15.9145V17.0644C12.2397 17.1392 12.2424 17.2012 12.2476 17.2503C12.2529 17.2994 12.2612 17.3406 12.2726 17.3742C12.2864 17.4127 12.3079 17.4433 12.3368 17.4665C12.3659 17.4893 12.398 17.5011 12.433 17.5016C12.5031 17.5006 12.5795 17.4649 12.6625 17.3951L12.7084 17.4809C12.5768 17.597 12.4272 17.6543 12.2595 17.6532C12.0787 17.6503 11.9554 17.587 11.8892 17.4638C11.8762 17.4365 11.8662 17.4055 11.859 17.3704C11.8519 17.3354 11.8469 17.2884 11.8441 17.2288C11.8413 17.1694 11.8399 17.0893 11.84 16.9887V15.9145H11.6533V15.8113C11.7248 15.8083 11.7852 15.7926 11.8348 15.7639C11.8845 15.7351 11.9277 15.6902 11.9647 15.6287C11.9936 15.582 12.0176 15.5299 12.0363 15.473C12.055 15.4159 12.0716 15.345 12.0859 15.2602L12.2497 15.2432C12.2476 15.2886 12.2456 15.3348 12.2442 15.3818C12.2428 15.4286 12.2416 15.485 12.241 15.5509C12.2402 15.6168 12.2398 15.7014 12.2398 15.8041H12.6364V15.9145H12.2398Z" fill="black"/>
<path fill-rule="evenodd" clip-rule="evenodd" d="M11.6514 17.5257V17.5985C11.5556 17.6051 11.5169 17.6051 11.4161 17.6051C11.3362 17.6051 11.2533 17.6037 11.1846 17.5767C11.1421 17.5599 11.1184 17.5454 11.0867 17.5105C11.0646 17.4735 11.0505 17.4713 11.0434 17.3687C10.9588 17.4648 10.8708 17.5351 10.7793 17.5806C10.6876 17.6258 10.589 17.6481 10.4832 17.6476C10.3259 17.6458 10.2029 17.6003 10.114 17.5108C10.0252 17.4212 9.98021 17.298 9.97852 17.1415C9.97797 16.846 10.1527 16.6624 10.5027 16.5906C10.6606 16.5584 10.8396 16.5366 11.0401 16.525V16.3013C11.0418 16.1221 11.0237 15.9979 10.9861 15.9288C10.9483 15.8597 10.8812 15.8267 10.7846 15.8298C10.6819 15.8274 10.6087 15.8666 10.565 15.9467C10.5492 15.9745 10.5375 16.006 10.5302 16.0421C10.523 16.0777 10.517 16.1274 10.5126 16.1912C10.51 16.2527 10.4931 16.2962 10.4618 16.322C10.4305 16.348 10.3809 16.3606 10.3127 16.3601C10.1609 16.3588 10.0845 16.306 10.0834 16.2017C10.0839 16.1408 10.1018 16.0824 10.1371 16.0273C10.1723 15.9719 10.2222 15.9233 10.2866 15.8813C10.423 15.7931 10.6021 15.7494 10.824 15.7505C11.0495 15.7494 11.2111 15.7964 11.3088 15.8918C11.3529 15.9354 11.3852 15.991 11.4059 16.0586C11.4266 16.1263 11.4368 16.213 11.4366 16.3189L11.4332 16.6183L11.43 16.9177C11.4274 17.016 11.4262 17.0779 11.4268 17.1036C11.4256 17.2279 11.4293 17.3185 11.4379 17.3755C11.4465 17.4328 11.456 17.458 11.4916 17.489C11.5542 17.5266 11.6079 17.5255 11.6514 17.5257ZM11.0403 16.8696V16.6046C10.8057 16.6212 10.6393 16.6668 10.541 16.7412C10.4429 16.8158 10.3952 16.9319 10.3981 17.0898C10.3991 17.2137 10.4233 17.312 10.4707 17.3847C10.5179 17.4575 10.5822 17.4945 10.6635 17.496C10.7301 17.4955 10.7917 17.4753 10.8482 17.4354C10.9047 17.3957 10.949 17.34 10.9813 17.2689C11.0023 17.2253 11.0175 17.1722 11.0269 17.1091C11.036 17.0461 11.0405 16.9663 11.0403 16.8696Z" fill="black"/>
<path fill-rule="evenodd" clip-rule="evenodd" d="M14.4738 17.526V17.5987C14.3779 17.6053 14.3392 17.6056 14.2384 17.6056C14.1584 17.6056 14.0758 17.6042 14.0069 17.5772C13.9644 17.5604 13.9407 17.5462 13.9091 17.5107C13.8869 17.474 13.8727 17.4718 13.8657 17.3692C13.7811 17.465 13.6931 17.5356 13.6016 17.5811C13.5099 17.626 13.4112 17.6486 13.3055 17.6481C13.1482 17.6462 13.0252 17.6006 12.9364 17.5112C12.8476 17.4217 12.8025 17.2985 12.8008 17.142C12.8003 16.8465 12.9751 16.6629 13.325 16.5912C13.4829 16.5589 13.662 16.5371 13.8624 16.5255V16.3018C13.864 16.1226 13.846 15.9984 13.8084 15.929C13.7707 15.8599 13.7034 15.8272 13.6068 15.8303C13.5042 15.828 13.431 15.8671 13.3873 15.9471C13.3715 15.975 13.3598 16.0065 13.3525 16.0425C13.3453 16.0782 13.3394 16.1278 13.335 16.1917C13.3324 16.2529 13.3154 16.2965 13.2841 16.3225C13.2529 16.3485 13.2032 16.3611 13.135 16.3606C12.9832 16.3593 12.9068 16.3065 12.9057 16.2022C12.9061 16.1412 12.9241 16.0829 12.9594 16.0278C12.9946 15.9724 13.0445 15.9238 13.1089 15.882C13.2453 15.7936 13.4245 15.7499 13.6463 15.751C13.8717 15.7499 14.0334 15.7969 14.1312 15.8923C14.1752 15.9359 14.2076 15.9916 14.2282 16.0591C14.2488 16.1268 14.2591 16.2135 14.2588 16.3191L14.2556 16.6188L14.2524 16.9182C14.2497 17.0164 14.2485 17.0784 14.249 17.1041C14.2479 17.2283 14.2516 17.319 14.2601 17.376C14.2689 17.4332 14.2782 17.4585 14.3139 17.4895C14.3764 17.5271 14.4302 17.5257 14.4738 17.526ZM13.8627 16.8702V16.6048C13.6281 16.6217 13.4617 16.6673 13.3634 16.7417C13.2651 16.8163 13.2175 16.9323 13.2205 17.0902C13.2215 17.2142 13.2457 17.3124 13.293 17.3852C13.3403 17.4579 13.4047 17.495 13.4859 17.4965C13.5526 17.496 13.6141 17.4758 13.6706 17.4358C13.727 17.3962 13.7714 17.3405 13.8036 17.2694C13.8248 17.2257 13.8399 17.1727 13.8492 17.1096C13.8584 17.0466 13.863 16.9668 13.8627 16.8702Z" fill="black"/>
</svg>
