<svg width="7" height="13" viewBox="0 0 7 13" fill="none" xmlns="http://www.w3.org/2000/svg">
<path d="M1.62519 6.44212C1.6252 6.34672 1.66525 6.24437 1.75459 6.16054L6.29967 1.95888C6.55306 1.72456 6.56814 1.32934 6.33385 1.07591C6.09953 0.822457 5.70433 0.806593 5.45088 1.04092L0.906606 5.24258L0.904978 5.2442L0.786977 5.36546C0.526235 5.66135 0.375195 6.04036 0.375193 6.44212C0.375193 6.90113 0.572243 7.33051 0.904978 7.64004L0.906606 7.64166L5.5762 11.9589C5.82966 12.193 6.22491 12.1773 6.45918 11.9239C6.69332 11.6704 6.67757 11.2752 6.42418 11.0409L1.75459 6.7237C1.66525 6.63987 1.62519 6.53752 1.62519 6.44212Z" fill="currentColor"/>
</svg>
