<svg width="16" height="16" viewBox="0 0 16 16" fill="none" xmlns="http://www.w3.org/2000/svg">
<path fill-rule="evenodd" clip-rule="evenodd" d="M7.60324 11.5422C7.60324 11.0412 7.60901 9.702 7.59591 9.53699C7.60733 7.54428 6.07035 6.13859 5.09935 6.24818C4.42745 6.30314 3.86423 6.56141 3.56201 7.30437C3.28166 7.99679 3.53231 8.91778 4.464 9.13389C5.46012 9.36599 6.04198 9.55909 6.46298 9.83153C6.97883 10.165 7.39995 10.8023 7.41113 11.543" fill="#0060AF"/>
<path fill-rule="evenodd" clip-rule="evenodd" d="M7.18606 11.5431C7.1893 10.9009 6.80906 10.333 6.31208 10.0278C5.87124 9.7581 5.27941 9.58098 4.32464 9.35262C4.0295 9.28146 3.72079 9.12337 3.62521 8.92188C3.3724 9.16201 3.32647 9.70189 3.37095 10.0175C3.42265 10.3825 3.87527 10.9843 4.55678 11.0079C4.97297 11.0236 5.49917 10.9234 5.7515 10.8729C6.18681 10.7843 6.87554 11.0413 6.98517 11.5423" fill="#0060AF"/>
<path fill-rule="evenodd" clip-rule="evenodd" d="M7.95393 3.14258C6.79828 3.14258 5.80023 3.86095 5.80372 5.10401C5.80733 6.14933 6.6991 6.70893 7.01744 7.10863C7.49831 7.71095 7.75858 8.42388 7.78551 9.51475C7.80667 10.3829 7.80558 11.2402 7.81027 11.5441H8.06525C8.06093 11.2262 8.04939 10.3161 8.06249 9.4879C8.0798 8.39669 8.34945 7.71095 8.83056 7.10863C9.15166 6.70893 10.0426 6.14933 10.0445 5.10401C10.049 3.86095 9.05128 3.14258 7.89683 3.14258" fill="#0060AF"/>
<path fill-rule="evenodd" clip-rule="evenodd" d="M8.24896 11.5422C8.24896 11.0412 8.24295 9.702 8.25581 9.53699C8.24451 7.54428 9.78053 6.13859 10.7524 6.24818C11.4243 6.30314 11.9868 6.56141 12.29 7.30437C12.5699 7.99679 12.318 8.91778 11.3875 9.13389C10.3906 9.36599 9.80963 9.55909 9.38754 9.83153C8.87229 10.165 8.48062 10.8023 8.4686 11.543" fill="#0060AF"/>
<path fill-rule="evenodd" clip-rule="evenodd" d="M8.66409 11.5431C8.66048 10.9009 9.04061 10.333 9.53615 10.0278C9.97891 9.7581 10.5713 9.58098 11.5253 9.35262C11.821 9.28146 12.1294 9.12337 12.2233 8.92188C12.4773 9.16201 12.5232 9.70189 12.4786 10.0175C12.4259 10.3825 11.9744 10.9843 11.2941 11.0079C10.8781 11.0236 10.3491 10.9234 10.0978 10.8729C9.66418 10.7843 8.97353 11.0413 8.86341 11.5423" fill="#0060AF"/>
<path fill-rule="evenodd" clip-rule="evenodd" d="M9.02128 13.6146L8.87354 12.5975L9.23046 12.5465C9.31726 12.5354 9.42305 12.5497 9.46537 12.6009C9.51213 12.6545 9.52644 12.6988 9.53545 12.7691C9.54904 12.8561 9.52235 12.9565 9.41848 13.0066V13.0097C9.53437 13.0097 9.60446 13.0882 9.6249 13.2208C9.62778 13.2489 9.63668 13.3164 9.62778 13.3729C9.60422 13.5072 9.51934 13.5504 9.3758 13.5694L9.02128 13.6146ZM9.25151 13.4326C9.29382 13.4268 9.33674 13.4246 9.37028 13.4045C9.42174 13.3728 9.41705 13.3053 9.40983 13.255C9.39204 13.1447 9.36151 13.1027 9.23732 13.12L9.15918 13.1313L9.20871 13.4381L9.25151 13.4326ZM9.17623 12.9625C9.22348 12.9554 9.28743 12.9499 9.31412 12.9077C9.32819 12.8794 9.34598 12.857 9.3342 12.7942C9.31965 12.7199 9.29356 12.6736 9.19318 12.6916L9.09977 12.7057L9.13668 12.9664L9.17623 12.9625Z" fill="#0060AF"/>
<path fill-rule="evenodd" clip-rule="evenodd" d="M10.567 13.0039C10.5698 13.0228 10.5731 13.0439 10.5743 13.0628C10.6031 13.2482 10.567 13.4019 10.3458 13.4442C10.0187 13.5034 9.9561 13.312 9.89863 13.0439L9.86798 12.8987C9.8229 12.6423 9.80354 12.4481 10.1224 12.3881C10.3021 12.3573 10.4209 12.4247 10.4703 12.5933C10.478 12.6185 10.4876 12.6433 10.4912 12.6687L10.2956 12.7068C10.273 12.6433 10.2431 12.5301 10.1551 12.5396C9.99709 12.5576 10.0493 12.7428 10.0655 12.8203L10.1243 13.0988C10.142 13.183 10.1771 13.3175 10.3137 13.2915C10.4247 13.2706 10.3763 13.1076 10.3664 13.0407" fill="#0060AF"/>
<path fill-rule="evenodd" clip-rule="evenodd" d="M10.882 13.3117L10.8145 12.2592L11.0771 12.1836L11.6281 13.099L11.4212 13.1574L11.2906 12.9247L11.0609 12.9898L11.0906 13.2543L10.882 13.3117ZM11.0414 12.8198L11.2075 12.7745L10.987 12.3486L11.0414 12.8198Z" fill="#0060AF"/>
<path fill-rule="evenodd" clip-rule="evenodd" d="M4.39061 12.5157C4.47284 12.2676 4.54642 12.0848 4.8603 12.166C5.02825 12.2103 5.13236 12.28 5.12743 12.4639C5.12659 12.5048 5.11228 12.5466 5.1029 12.587L4.90755 12.5362C4.93316 12.4346 4.94939 12.354 4.81667 12.3155C4.66327 12.2758 4.62588 12.4512 4.60472 12.5269L4.52526 12.8028C4.50001 12.8847 4.46972 13.0201 4.60472 13.0551C4.71628 13.0834 4.78385 12.9802 4.82424 12.8295L4.68767 12.7953L4.73492 12.6357L5.05626 12.7331L4.9037 13.2649L4.75584 13.2271L4.78914 13.1146H4.78493C4.71677 13.2067 4.63381 13.2163 4.56108 13.203C4.23974 13.1212 4.27328 12.9232 4.34998 12.6587" fill="#0060AF"/>
<path fill-rule="evenodd" clip-rule="evenodd" d="M5.58609 12.9657L5.48932 13.3984L5.27148 13.354L5.50362 12.3438L5.87498 12.4227C6.09233 12.467 6.15797 12.5582 6.12719 12.7461C6.10964 12.8538 6.05326 12.9699 5.91561 12.9605L5.91417 12.9588C6.03054 12.9971 6.0404 13.0525 6.02008 13.148C6.0113 13.1888 5.95083 13.4356 5.99255 13.4755L5.99399 13.5059L5.76858 13.4504C5.75921 13.382 5.79119 13.259 5.80381 13.1907C5.81643 13.1305 5.83675 13.0455 5.77183 13.0136C5.7211 12.988 5.7021 12.9893 5.64464 12.9769L5.58609 12.9657ZM5.62386 12.8092L5.77053 12.8465C5.85961 12.8587 5.90914 12.8152 5.92669 12.7137C5.94256 12.6206 5.922 12.5844 5.84206 12.5663L5.68481 12.5362L5.62386 12.8092Z" fill="#0060AF"/>
<path fill-rule="evenodd" clip-rule="evenodd" d="M6.98429 12.5683L7.19972 12.5918L7.10691 13.3022C7.06183 13.5273 6.9695 13.6257 6.70671 13.595C6.43934 13.563 6.37587 13.4484 6.39198 13.2214L6.48551 12.5117L6.70262 12.5351L6.60945 13.2288C6.59947 13.3042 6.58108 13.4158 6.72318 13.4294C6.84929 13.4385 6.8779 13.3596 6.8922 13.2617" fill="#0060AF"/>
<path fill-rule="evenodd" clip-rule="evenodd" d="M7.43604 13.6348L7.50095 12.6191L7.91474 12.636C8.11046 12.6452 8.16155 12.7957 8.15554 12.9394C8.14977 13.0268 8.12091 13.1243 8.04013 13.1773C7.97389 13.2223 7.88865 13.2329 7.80979 13.2293L7.67491 13.2223L7.64798 13.6479L7.43604 13.6348ZM7.6818 13.0673L7.79144 13.0731C7.88052 13.0762 7.93955 13.043 7.94724 12.9197C7.95169 12.8014 7.90409 12.7812 7.78868 12.7764L7.70188 12.7736L7.6818 13.0673Z" fill="#0060AF"/>
<path fill-rule="evenodd" clip-rule="evenodd" d="M8.00076 14.5704C6.24402 14.5704 4.43884 14.1625 2.63593 13.3559L2.59169 13.3354L2.57054 13.2929C1.76147 11.683 1.3335 9.92224 1.3335 8.19947C1.3335 6.47919 1.74392 4.7937 2.55346 3.18595L2.57582 3.14323L2.62091 3.12192C4.28869 2.37715 6.08269 2 7.95508 2C9.69908 2 11.5618 2.41987 13.3408 3.21655L13.3864 3.2357L13.4076 3.27922C14.232 4.91881 14.6668 6.67921 14.6668 8.37354C14.6668 10.0611 14.2493 11.7481 13.4238 13.3867L13.4021 13.4297L13.3562 13.4496C11.7138 14.1825 9.86185 14.5704 8.00076 14.5704ZM2.80255 13.1351C4.55388 13.9119 6.30077 14.304 8.00052 14.304C9.80282 14.304 11.5951 13.9326 13.1908 13.2286C13.9834 11.6408 14.3852 10.0067 14.3852 8.37354C14.3852 6.73361 13.9658 5.02795 13.1726 3.43652C11.4462 2.67146 9.64318 2.26576 7.95484 2.26576C6.1422 2.26576 4.40469 2.62817 2.78741 3.34326C2.01104 4.90148 1.61589 6.53439 1.61589 8.19948C1.61589 9.86751 2.02643 11.574 2.80255 13.1351Z" fill="#0060AF"/>
</svg>
