<svg width="24" height="24" viewBox="0 0 24 24" fill="none" xmlns="http://www.w3.org/2000/svg">
<rect width="24" height="24" rx="4" fill="white"/>
<path fill-rule="evenodd" clip-rule="evenodd" d="M11.4041 17.3123C11.4041 16.5608 11.4128 14.552 11.3931 14.3045C11.4103 11.3154 9.10479 9.20691 7.64829 9.37129C6.64045 9.45373 5.79562 9.84113 5.34228 10.9556C4.92176 11.9942 5.29774 13.3757 6.69527 13.6999C8.18945 14.048 9.06223 14.3377 9.69373 14.7463C10.4675 15.2466 11.0992 16.2024 11.116 17.3135" fill="#0060AF"/>
<path fill-rule="evenodd" clip-rule="evenodd" d="M10.7784 17.3132C10.7832 16.3499 10.2129 15.498 9.46738 15.0403C8.80613 14.6357 7.91838 14.37 6.48623 14.0275C6.04352 13.9207 5.58045 13.6836 5.43709 13.3813C5.05786 13.7416 4.98898 14.5514 5.0557 15.0248C5.13324 15.5723 5.81217 16.475 6.83444 16.5103C7.45873 16.5339 8.24802 16.3837 8.62652 16.3079C9.27948 16.1749 10.3126 16.5605 10.477 17.312" fill="#0060AF"/>
<path fill-rule="evenodd" clip-rule="evenodd" d="M11.9304 4.7124C10.1969 4.7124 8.69986 5.78996 8.70509 7.65456C8.7105 9.22253 10.0482 10.0619 10.5257 10.6615C11.247 11.565 11.6374 12.6344 11.6778 14.2707C11.7095 15.5729 11.7079 16.8589 11.7149 17.3146H12.0974C12.0909 16.8378 12.0736 15.4727 12.0932 14.2304C12.1192 12.5936 12.5237 11.565 13.2454 10.6615C13.727 10.0619 15.0634 9.22253 15.0663 7.65456C15.073 5.78996 13.5764 4.7124 11.8448 4.7124" fill="#0060AF"/>
<path fill-rule="evenodd" clip-rule="evenodd" d="M12.3732 17.3123C12.3732 16.5608 12.3642 14.552 12.3835 14.3045C12.3665 11.3154 14.6706 9.20691 16.1283 9.37129C17.1362 9.45373 17.9799 9.84113 18.4347 10.9556C18.8547 11.9942 18.4767 13.3757 17.081 13.6999C15.5857 14.048 14.7142 14.3377 14.0811 14.7463C13.3082 15.2466 12.7207 16.2024 12.7027 17.3135" fill="#0060AF"/>
<path fill-rule="evenodd" clip-rule="evenodd" d="M12.9961 17.3132C12.9907 16.3499 13.5609 15.498 14.3042 15.0403C14.9684 14.6357 15.857 14.37 17.2879 14.0275C17.7315 13.9207 18.194 13.6836 18.3349 13.3813C18.7159 13.7416 18.7848 14.5514 18.7179 15.0248C18.6389 15.5723 17.9616 16.475 16.9411 16.5103C16.3172 16.5339 15.5236 16.3837 15.1467 16.3079C14.4963 16.1749 13.4603 16.5605 13.2951 17.312" fill="#0060AF"/>
<path fill-rule="evenodd" clip-rule="evenodd" d="M13.5322 20.4234L13.3105 18.8977L13.8459 18.8212C13.9761 18.8046 14.1348 18.826 14.1983 18.9028C14.2684 18.9832 14.2899 19.0497 14.3034 19.1551C14.3238 19.2856 14.2838 19.4362 14.128 19.5114V19.516C14.3018 19.516 14.4069 19.6338 14.4376 19.8326C14.4419 19.8748 14.4553 19.9761 14.4419 20.0608C14.4066 20.2622 14.2793 20.3271 14.064 20.3555L13.5322 20.4234ZM13.8775 20.1503C13.941 20.1416 14.0054 20.1384 14.0557 20.1082C14.1328 20.0607 14.1258 19.9594 14.115 19.8839C14.0883 19.7185 14.0425 19.6555 13.8562 19.6815L13.739 19.6985L13.8133 20.1586L13.8775 20.1503ZM13.7646 19.4452C13.8355 19.4345 13.9314 19.4264 13.9714 19.363C13.9925 19.3206 14.0192 19.287 14.0015 19.1928C13.9797 19.0813 13.9406 19.0119 13.79 19.0388L13.6499 19.06L13.7053 19.451L13.7646 19.4452Z" fill="#0060AF"/>
<path fill-rule="evenodd" clip-rule="evenodd" d="M15.8501 19.5059C15.8542 19.5343 15.8591 19.5659 15.8609 19.5943C15.9042 19.8724 15.8501 20.1029 15.5183 20.1663C15.0276 20.2552 14.9337 19.9681 14.8475 19.5659L14.8015 19.3481C14.7339 18.9634 14.7048 18.6721 15.1831 18.5822C15.4526 18.5359 15.6308 18.6371 15.7049 18.89C15.7165 18.9277 15.7309 18.965 15.7363 19.003L15.4429 19.0602C15.409 18.965 15.3641 18.7951 15.2321 18.8094C14.9952 18.8365 15.0734 19.1142 15.0978 19.2305L15.1859 19.6481C15.2124 19.7744 15.2651 19.9762 15.4701 19.9373C15.6366 19.9058 15.5639 19.6614 15.5491 19.5611" fill="#0060AF"/>
<path fill-rule="evenodd" clip-rule="evenodd" d="M16.323 19.9671L16.2217 18.3883L16.6157 18.2749L17.4421 19.6481L17.1318 19.7356L16.936 19.3866L16.5913 19.4842L16.6359 19.881L16.323 19.9671ZM16.5622 19.2292L16.8112 19.1613L16.4805 18.5224L16.5622 19.2292Z" fill="#0060AF"/>
<path fill-rule="evenodd" clip-rule="evenodd" d="M6.58568 18.7736C6.70902 18.4015 6.81938 18.1273 7.29021 18.249C7.54213 18.3154 7.69829 18.42 7.6909 18.6959C7.68964 18.7572 7.66818 18.82 7.65411 18.8805L7.36108 18.8043C7.39949 18.6519 7.42384 18.531 7.22475 18.4732C6.99466 18.4137 6.93858 18.6768 6.90684 18.7904L6.78764 19.2041C6.74978 19.327 6.70433 19.5302 6.90684 19.5827C7.07418 19.625 7.17553 19.4703 7.23612 19.2443L7.03126 19.1929L7.10213 18.9536L7.58415 19.0996L7.35531 19.8974L7.13351 19.8406L7.18346 19.6719H7.17715C7.0749 19.81 6.95048 19.8244 6.84138 19.8045C6.35937 19.6818 6.40968 19.3848 6.52473 18.9881" fill="#0060AF"/>
<path fill-rule="evenodd" clip-rule="evenodd" d="M8.37816 19.4475L8.233 20.0966L7.90625 20.0301L8.25446 18.5146L8.81149 18.6331C9.13752 18.6996 9.23598 18.8363 9.18981 19.1181C9.16349 19.2798 9.07891 19.4538 8.87244 19.4397L8.87028 19.4372C9.04483 19.4946 9.05962 19.5778 9.02914 19.7211C9.01598 19.7822 8.92527 20.1525 8.98785 20.2123L8.99001 20.2579L8.6519 20.1746C8.63783 20.0721 8.6858 19.8875 8.70474 19.7851C8.72367 19.6947 8.75414 19.5672 8.65677 19.5194C8.58067 19.481 8.55218 19.4829 8.46598 19.4644L8.37816 19.4475ZM8.43481 19.2128L8.65481 19.2687C8.78843 19.2871 8.86273 19.2218 8.88906 19.0695C8.91286 18.9299 8.88202 18.8756 8.76211 18.8485L8.52624 18.8033L8.43481 19.2128Z" fill="#0060AF"/>
<path fill-rule="evenodd" clip-rule="evenodd" d="M10.4759 18.8529L10.7991 18.8882L10.6599 19.9537C10.5923 20.2915 10.4538 20.439 10.0596 20.393C9.65853 20.345 9.56332 20.173 9.58748 19.8325L9.72777 18.7681L10.0534 18.8031L9.91369 19.8438C9.89872 19.9568 9.87113 20.1242 10.0843 20.1446C10.2734 20.1582 10.3164 20.0399 10.3378 19.893" fill="#0060AF"/>
<path fill-rule="evenodd" clip-rule="evenodd" d="M11.1543 20.4512L11.2517 18.9277L11.8724 18.9531C12.1659 18.9668 12.2426 19.1926 12.2336 19.4081C12.2249 19.5392 12.1816 19.6855 12.0604 19.7649C11.9611 19.8324 11.8332 19.8484 11.7149 19.843L11.5126 19.8324L11.4722 20.4709L11.1543 20.4512ZM11.5229 19.6L11.6874 19.6087C11.821 19.6133 11.9096 19.5635 11.9211 19.3786C11.9278 19.2011 11.8564 19.1708 11.6833 19.1637L11.5531 19.1594L11.5229 19.6Z" fill="#0060AF"/>
<path fill-rule="evenodd" clip-rule="evenodd" d="M12.0009 21.8556C9.36579 21.8556 6.65801 21.2438 3.95366 20.0338L3.8873 20.0031L3.85556 19.9393C2.64196 17.5245 2 14.8834 2 12.2992C2 9.71878 2.61563 7.19055 3.82995 4.77893L3.86349 4.71484L3.93112 4.68288C6.43278 3.56572 9.12379 3 11.9324 3C14.5484 3 17.3425 3.62981 20.011 4.82482L20.0793 4.85355L20.1111 4.91883C21.3478 7.37821 22 10.0188 22 12.5603C22 15.0916 21.3737 17.6222 20.1354 20.0801L20.103 20.1445L20.0341 20.1744C17.5705 21.2737 14.7925 21.8556 12.0009 21.8556ZM4.20359 19.7027C6.83058 20.8678 9.4509 21.456 12.0005 21.456C14.704 21.456 17.3925 20.8989 19.786 19.843C20.9748 17.4612 21.5775 15.01 21.5775 12.5603C21.5775 10.1004 20.9485 7.54193 19.7587 5.15478C17.1691 4.00719 14.4645 3.39864 11.932 3.39864C9.21305 3.39864 6.6068 3.94226 4.18086 5.01488C3.01632 7.35222 2.42358 9.80158 2.42358 12.2992C2.42358 14.8013 3.0394 17.361 4.20359 19.7027Z" fill="#0060AF"/>
</svg>
