<svg width="20" height="20" viewBox="0 0 20 20" fill="none" xmlns="http://www.w3.org/2000/svg">
<path d="M14.375 4.81437C14.375 4.699 14.3528 4.58534 14.3107 4.4799C14.2685 4.37432 14.2074 4.27932 14.1317 4.20076C14.056 4.12232 13.9671 4.06127 13.8713 4.0201C13.7995 3.98932 13.7244 3.97013 13.6483 3.96232L13.5718 3.95825H6.42822C6.22276 3.95835 6.02082 4.04269 5.86833 4.20076C5.79257 4.27932 5.73146 4.37432 5.68929 4.4799C5.6472 4.58534 5.62505 4.699 5.625 4.81437V15.4255L9.62809 12.46L9.71436 12.4063C9.92329 12.2988 10.1785 12.3167 10.3719 12.46L14.375 15.4255V4.81437ZM15.625 16.6666C15.625 16.9027 15.4916 17.1187 15.2808 17.2249C15.0964 17.3176 14.8803 17.3125 14.7021 17.2159L14.6281 17.1687L10 13.7393L5.37191 17.1687C5.18233 17.3091 4.92999 17.3308 4.71924 17.2249C4.50839 17.1187 4.375 16.9027 4.375 16.6666V4.81437C4.37505 4.54102 4.42668 4.26974 4.52799 4.01603C4.6294 3.76216 4.77874 3.52981 4.96826 3.33325C5.3514 2.93592 5.87622 2.70835 6.42822 2.70825H13.5718L13.7752 2.71883C13.9779 2.73956 14.1764 2.7911 14.3644 2.87183C14.6152 2.97954 14.8421 3.13663 15.0317 3.33325C15.2213 3.52981 15.3706 3.76216 15.472 4.01603C15.5733 4.26974 15.625 4.54102 15.625 4.81437V16.6666Z" fill="currentColor"/>
</svg>
