<svg width="16" height="16" viewBox="0 0 16 16" fill="none" xmlns="http://www.w3.org/2000/svg">
<path d="M14.1654 6.53125H1.83203V12.6699C1.83219 13.1273 2.20418 13.5 2.66536 13.5H13.332C13.7932 13.5 14.1652 13.1273 14.1654 12.6699V6.53125ZM7.57227 9.51562H8.57227V8.52018H7.57227V9.51562ZM3.73893 9.51562H4.73893V8.52018H3.73893V9.51562ZM14.1654 4.6875C14.1654 4.22994 13.7933 3.85677 13.332 3.85677H2.66536C2.20408 3.85677 1.83203 4.22994 1.83203 4.6875V5.53125H14.1654V4.6875ZM5.73893 9.68294C5.73892 10.1437 5.36467 10.5155 4.9056 10.5156H3.57227C3.11308 10.5156 2.73894 10.1438 2.73893 9.68294V8.35286C2.73893 7.89199 3.11308 7.52018 3.57227 7.52018H4.9056C5.36468 7.52031 5.73893 7.89207 5.73893 8.35286V9.68294ZM9.57227 9.68294C9.57226 10.1437 9.19803 10.5155 8.73893 10.5156H7.4056C6.94641 10.5156 6.57227 10.1438 6.57227 9.68294V8.35286C6.57227 7.89199 6.94641 7.52018 7.4056 7.52018H8.73893C9.19803 7.52029 9.57227 7.89206 9.57227 8.35286V9.68294ZM15.1654 12.6699C15.1652 13.6817 14.3434 14.5 13.332 14.5H2.66536C1.65399 14.5 0.832192 13.6817 0.832031 12.6699V4.6875C0.832031 3.67557 1.65389 2.85677 2.66536 2.85677H3.53841V2C3.53841 1.72395 3.7624 1.50015 4.03841 1.5C4.31455 1.5 4.53841 1.72386 4.53841 2V2.85677H11.6257V2C11.6257 1.72386 11.8495 1.5 12.1257 1.5C12.4017 1.50016 12.6257 1.72396 12.6257 2V2.85677H13.332C14.3435 2.85677 15.1654 3.67557 15.1654 4.6875V12.6699Z" fill="#555555"/>
</svg>
