<svg width="20" height="20" viewBox="0 0 20 20" fill="none" xmlns="http://www.w3.org/2000/svg">
<path d="M8.32845 5.2889C8.31775 5.18047 8.29054 5.07415 8.2487 4.97314C8.19289 4.83844 8.11168 4.71565 8.00863 4.61263L8.00618 4.611L6.85465 3.44971C6.75171 3.3466 6.62945 3.26542 6.49495 3.20964C6.36051 3.15391 6.21647 3.125 6.07096 3.125C5.92544 3.12501 5.78142 3.15389 5.64697 3.20964C5.51246 3.26543 5.39023 3.34739 5.28727 3.45052L5.28483 3.45215L3.1958 5.52409L3.19661 5.5249C3.15701 5.56429 3.13237 5.61647 3.12663 5.6722C3.12104 5.72715 3.13412 5.78218 3.16406 5.82845L3.71663 6.63981C6.34158 10.3905 9.60218 13.6527 13.3504 16.2793L14.161 16.8327L14.1634 16.8343L14.1992 16.8538C14.237 16.8707 14.2788 16.8782 14.3205 16.8742C14.3619 16.8702 14.4014 16.8554 14.4352 16.8319L14.467 16.805L16.5413 14.7298L16.6162 14.6484C16.687 14.5638 16.7449 14.469 16.7879 14.3669C16.8452 14.2306 16.875 14.0842 16.875 13.9364C16.875 13.7885 16.8452 13.6421 16.7879 13.5059C16.7306 13.3696 16.6469 13.2462 16.5413 13.1429L15.3573 11.958C15.2543 11.8549 15.132 11.7729 14.9976 11.7171C14.8966 11.6753 14.7901 11.6488 14.6818 11.6382L14.5736 11.6325C14.428 11.6325 14.2833 11.6613 14.1488 11.7171C14.0143 11.7729 13.892 11.8549 13.7891 11.958L13.7866 11.9605L13.0062 12.7327C12.8032 12.9334 12.4901 12.9715 12.2453 12.8247C10.1492 11.5678 8.39436 9.81407 7.1346 7.71891C6.98615 7.47193 7.02583 7.15584 7.23063 6.95313L8.01025 6.18083C8.11231 6.07825 8.19327 5.95654 8.2487 5.82275C8.30447 5.68807 8.33333 5.54376 8.33333 5.39795L8.32845 5.2889ZM9.57194 5.62988C9.54919 5.86035 9.49243 6.08654 9.40348 6.30127C9.28483 6.58768 9.11086 6.8479 8.8916 7.06706L8.88997 7.0695L8.46598 7.48779C9.50896 9.08998 10.8755 10.4555 12.4788 11.4958L12.9045 11.075L13.0762 10.9188C13.2551 10.7717 13.4555 10.6522 13.6702 10.5632C13.9566 10.4444 14.2636 10.3825 14.5736 10.3825L14.8047 10.3939C15.0353 10.4166 15.262 10.474 15.4769 10.5632C15.763 10.6819 16.023 10.8558 16.2419 11.075L17.4154 12.2493L17.5749 12.4219C17.7255 12.6019 17.8489 12.8036 17.9403 13.0208C18.0621 13.3105 18.125 13.6221 18.125 13.9364C18.125 14.2505 18.062 14.5615 17.9403 14.8511C17.8193 15.1387 17.6418 15.3989 17.4194 15.6177L17.4202 15.6185L15.3467 17.6937L15.3459 17.6929C15.1014 17.9349 14.781 18.0858 14.4385 18.1185C14.096 18.151 13.7526 18.0643 13.4668 17.8727C8.96652 14.8835 5.10928 11.0227 2.12239 6.51937L2.12158 6.51855C1.93201 6.23095 1.84781 5.88624 1.88314 5.54362C1.91847 5.201 2.07097 4.88071 2.31527 4.63786L4.4043 2.5651C4.62287 2.34668 4.88221 2.17326 5.16764 2.05485C5.45397 1.93608 5.76099 1.87501 6.07096 1.875C6.38094 1.875 6.68795 1.93608 6.97428 2.05485C7.18913 2.14397 7.38933 2.26412 7.56836 2.4113L7.74007 2.56755L7.74088 2.56836L8.89404 3.73047C9.11258 3.9493 9.2851 4.20889 9.40348 4.49463C9.52212 4.78102 9.58332 5.08795 9.58333 5.39795L9.57194 5.62988Z" fill="currentColor"/>
</svg>
