<svg width="24" height="25" viewBox="0 0 24 25" fill="none" xmlns="http://www.w3.org/2000/svg">
<path d="M9.99383 6.84668C9.98098 6.71656 9.94833 6.58898 9.89812 6.46777C9.83116 6.30613 9.7337 6.15878 9.61004 6.03516L9.60711 6.0332L8.22527 4.63965C8.10174 4.51592 7.95502 4.41851 7.79363 4.35156C7.6323 4.28469 7.45945 4.25 7.28484 4.25C7.11022 4.25001 6.9374 4.28467 6.77605 4.35156C6.61464 4.41852 6.46796 4.51687 6.34441 4.64062L6.34148 4.64258L3.83465 7.12891L3.83562 7.12988C3.7881 7.17715 3.75854 7.23977 3.75164 7.30664C3.74493 7.37258 3.76064 7.43862 3.79656 7.49414L4.45965 8.46777C7.60958 12.9686 11.5223 16.8832 16.0202 20.0352L16.9929 20.6992L16.9958 20.7012L17.0387 20.7246C17.0841 20.7449 17.1343 20.7538 17.1843 20.749C17.2339 20.7443 17.2813 20.7265 17.322 20.6982L17.36 20.666L19.8493 18.1758L19.9391 18.0781C20.0241 17.9766 20.0936 17.8628 20.1452 17.7402C20.2139 17.5768 20.2497 17.401 20.2497 17.2236C20.2497 17.0462 20.214 16.8705 20.1452 16.707C20.0764 16.5435 19.976 16.3954 19.8493 16.2715L18.4284 14.8496C18.3049 14.7259 18.1581 14.6275 17.9968 14.5605C17.8756 14.5103 17.7479 14.4786 17.6179 14.4658L17.488 14.459C17.3132 14.459 17.1396 14.4936 16.9782 14.5605C16.8168 14.6275 16.6701 14.7259 16.5466 14.8496L16.5436 14.8525L15.6071 15.7793C15.3636 16.0201 14.9877 16.0658 14.694 15.8896C12.1787 14.3813 10.0729 12.2769 8.56121 9.7627C8.38307 9.46632 8.43069 9.08701 8.67644 8.84375L9.61199 7.91699C9.73446 7.7939 9.83162 7.64784 9.89812 7.4873C9.96505 7.32569 9.99969 7.15251 9.99969 6.97754L9.99383 6.84668ZM11.486 7.25586C11.4587 7.53242 11.3906 7.80385 11.2839 8.06152C11.1415 8.40522 10.9327 8.71748 10.6696 8.98047L10.6677 8.9834L10.1589 9.48535C11.4104 11.408 13.0503 13.0466 14.9743 14.2949L15.485 13.79L15.6911 13.6025C15.9058 13.4261 16.1463 13.2827 16.404 13.1758C16.7476 13.0333 17.116 12.959 17.488 12.959L17.7653 12.9727C18.0421 12.9999 18.3141 13.0688 18.572 13.1758C18.9153 13.3183 19.2272 13.5269 19.4899 13.79L20.8981 15.1992L21.0895 15.4062C21.2703 15.6223 21.4184 15.8644 21.528 16.125C21.6742 16.4726 21.7497 16.8465 21.7497 17.2236C21.7497 17.6006 21.6741 17.9738 21.528 18.3213C21.3828 18.6665 21.1699 18.9786 20.903 19.2412L20.904 19.2422L18.4157 21.7324L18.4147 21.7314C18.1213 22.0219 17.7369 22.203 17.3259 22.2422C16.9149 22.2812 16.5028 22.1771 16.1598 21.9473C10.7595 18.3602 6.13083 13.7273 2.54656 8.32324L2.54559 8.32227C2.3181 7.97714 2.21706 7.56349 2.25945 7.15234C2.30185 6.74121 2.48485 6.35686 2.77801 6.06543L5.28484 3.57812C5.54713 3.31602 5.85834 3.10791 6.20086 2.96582C6.54445 2.8233 6.91288 2.75001 7.28484 2.75C7.65682 2.75 8.02522 2.82329 8.36883 2.96582C8.62664 3.07276 8.86688 3.21695 9.08172 3.39355L9.28777 3.58105L9.28875 3.58203L10.6725 4.97656C10.9348 5.23916 11.1418 5.55067 11.2839 5.89355C11.4262 6.23722 11.4997 6.60554 11.4997 6.97754L11.486 7.25586Z" fill="currentColor"/>
</svg>
