<svg width="24" height="25" viewBox="0 0 24 25" fill="none" xmlns="http://www.w3.org/2000/svg">
<path d="M8.63238 3.89012L8.1341 3.32956V3.32956L8.63238 3.89012ZM15.3676 3.89012L15.8659 3.32956L15.3676 3.89012ZM15.1519 3.69834L14.6536 4.2589L15.1519 3.69834ZM8.84813 3.69834L9.3464 4.2589V4.2589L8.84813 3.69834ZM4.06107 21.9418L4.50191 21.335L4.06107 21.9418ZM2.95491 20.8356L3.56168 20.3948L2.95491 20.8356ZM21.0451 20.8356L20.4383 20.3948L21.0451 20.8356ZM19.9389 21.9418L19.4981 21.335L19.9389 21.9418ZM21.25 8.88161V13.8967H22.75V8.88161H21.25ZM13 22.1467H11V23.6467H13V22.1467ZM2.75 13.8967V8.88161H1.25V13.8967H2.75ZM14.6536 4.2589L14.8694 4.45068L15.8659 3.32956L15.6501 3.13778L14.6536 4.2589ZM9.13065 4.45068L9.3464 4.2589L8.34986 3.13778L8.1341 3.32956L9.13065 4.45068ZM5.98493 5.64668C7.14458 5.64668 8.26391 5.22111 9.13065 4.45068L8.1341 3.32956C7.54195 3.85593 6.77721 4.14668 5.98493 4.14668V5.64668ZM14.8694 4.45068C15.7361 5.22111 16.8554 5.64668 18.0151 5.64668V4.14668C17.2228 4.14668 16.4581 3.85593 15.8659 3.32956L14.8694 4.45068ZM15.6501 3.13778C13.5685 1.28741 10.4315 1.28741 8.34986 3.13778L9.3464 4.2589C10.8597 2.9137 13.1403 2.9137 14.6536 4.2589L15.6501 3.13778ZM11 22.1467C9.10843 22.1467 7.74999 22.1456 6.69804 22.0317C5.66013 21.9192 5.00992 21.7041 4.50191 21.335L3.62023 22.5485C4.42656 23.1344 5.37094 23.3967 6.53648 23.5229C7.68798 23.6477 9.14184 23.6467 11 23.6467V22.1467ZM1.25 13.8967C1.25 15.7548 1.24897 17.2087 1.37373 18.3602C1.50001 19.5257 1.76232 20.4701 2.34815 21.2764L3.56168 20.3948C3.19259 19.8868 2.97745 19.2365 2.865 18.1986C2.75103 17.1467 2.75 15.7882 2.75 13.8967H1.25ZM4.50191 21.335C4.14111 21.0729 3.82382 20.7556 3.56168 20.3948L2.34815 21.2764C2.70281 21.7646 3.13209 22.1939 3.62023 22.5485L4.50191 21.335ZM21.25 13.8967C21.25 15.7882 21.249 17.1467 21.135 18.1986C21.0225 19.2365 20.8074 19.8868 20.4383 20.3948L21.6518 21.2764C22.2377 20.4701 22.5 19.5257 22.6263 18.3602C22.751 17.2087 22.75 15.7548 22.75 13.8967H21.25ZM13 23.6467C14.8582 23.6467 16.312 23.6477 17.4635 23.5229C18.6291 23.3967 19.5734 23.1344 20.3798 22.5485L19.4981 21.335C18.9901 21.7041 18.3399 21.9192 17.302 22.0317C16.25 22.1456 14.8916 22.1467 13 22.1467V23.6467ZM20.4383 20.3948C20.1762 20.7556 19.8589 21.0729 19.4981 21.335L20.3798 22.5485C20.8679 22.1939 21.2972 21.7646 21.6518 21.2764L20.4383 20.3948ZM22.75 8.88161C22.75 6.26658 20.6301 4.14668 18.0151 4.14668V5.64668C19.8017 5.64668 21.25 7.09501 21.25 8.88161H22.75ZM2.75 8.88161C2.75 7.09501 4.19833 5.64668 5.98493 5.64668V4.14668C3.3699 4.14668 1.25 6.26658 1.25 8.88161H2.75ZM7.25 13.8967C7.25 16.52 9.37665 18.6467 12 18.6467V17.1467C10.2051 17.1467 8.75 15.6916 8.75 13.8967H7.25ZM12 18.6467C14.6234 18.6467 16.75 16.52 16.75 13.8967H15.25C15.25 15.6916 13.7949 17.1467 12 17.1467V18.6467ZM16.75 13.8967C16.75 11.2733 14.6234 9.14668 12 9.14668V10.6467C13.7949 10.6467 15.25 12.1018 15.25 13.8967H16.75ZM12 9.14668C9.37665 9.14668 7.25 11.2733 7.25 13.8967H8.75C8.75 12.1018 10.2051 10.6467 12 10.6467V9.14668Z" fill="#555555"/>
<path d="M17 8.89648C17 9.44877 17.4477 9.89648 18 9.89648C18.5523 9.89648 19 9.44877 19 8.89648C19 8.3442 18.5523 7.89648 18 7.89648C17.4477 7.89648 17 8.3442 17 8.89648Z" fill="#555555"/>
</svg>
