<svg width="41" height="40" viewBox="0 0 41 40" fill="none" xmlns="http://www.w3.org/2000/svg">
<g clip-path="url(#clip0_2139_54648)">
<path fill-rule="evenodd" clip-rule="evenodd" d="M8.96719 2.12036C8.78775 2.12035 8.61082 2.1626 8.45074 2.24368C8.29065 2.32476 8.15191 2.4424 8.04575 2.58707C7.93958 2.73174 7.86897 2.89938 7.83964 3.07641C7.81031 3.25344 7.82308 3.43489 7.87691 3.60607L8.12834 4.40607H4.39578C4.09268 4.40607 3.80199 4.52648 3.58766 4.7408C3.37334 4.95513 3.25293 5.24582 3.25293 5.54892V32.9774C3.25293 33.2805 3.37334 33.5712 3.58766 33.7855C3.80199 33.9998 4.09268 34.1202 4.39578 34.1202H24.9671C25.2702 34.1202 25.5609 33.9998 25.7753 33.7855C25.9896 33.5712 26.11 33.2805 26.11 32.9774V5.54892C26.11 5.24582 25.9896 4.95513 25.7753 4.7408C25.5609 4.52648 25.2702 4.40607 24.9671 4.40607H21.2369L21.4883 3.60607C21.5422 3.43471 21.5549 3.25305 21.5255 3.07584C21.496 2.89864 21.4252 2.73087 21.3188 2.58614C21.2124 2.44142 21.0733 2.32383 20.9129 2.2429C20.7526 2.16198 20.5754 2.11999 20.3957 2.12036H8.96719ZM10.5215 4.40607H18.8414L18.126 6.69177H11.2369L10.5215 4.40607ZM21.5386 15.8346H7.82434V13.5489H21.5386V15.8346ZM21.5386 21.5489H7.82434V19.2632H21.5386V21.5489ZM7.82434 27.2631H16.9672V24.9774H7.82434V27.2631Z" fill="url(#paint0_linear_2139_54648)"/>
<path d="M29.389 30.7121L31.2418 32.5649C31.3589 32.682 31.508 32.7406 31.689 32.7406C31.87 32.7406 32.0191 32.682 32.1362 32.5649C32.2533 32.4478 32.3119 32.2987 32.3119 32.1177C32.3119 31.9367 32.2533 31.7876 32.1362 31.6705L30.2834 29.8177L32.1362 27.9649C32.2533 27.8477 32.3119 27.6987 32.3119 27.5176C32.3119 27.3366 32.2533 27.1875 32.1362 27.0704C32.0191 26.9533 31.87 26.8947 31.689 26.8947C31.508 26.8947 31.3589 26.9533 31.2418 27.0704L29.389 28.9232L27.5362 27.0704C27.419 26.9533 27.27 26.8947 27.0889 26.8947C26.9079 26.8947 26.7588 26.9533 26.6417 27.0704C26.5246 27.1875 26.466 27.3366 26.466 27.5176C26.466 27.6987 26.5246 27.8477 26.6417 27.9649L28.4945 29.8177L26.6417 31.6705C26.5246 31.7876 26.466 31.9367 26.466 32.1177C26.466 32.2987 26.5246 32.4478 26.6417 32.5649C26.7588 32.682 26.9079 32.7406 27.0889 32.7406C27.27 32.7406 27.419 32.682 27.5362 32.5649L29.389 30.7121ZM29.389 36.2066C28.5052 36.2066 27.6746 36.0388 26.8973 35.7032C26.1199 35.3675 25.4438 34.9124 24.8688 34.3379C24.2938 33.7633 23.8387 33.0871 23.5035 32.3094C23.1682 31.5316 23.0004 30.701 23 29.8177C22.9996 28.9343 23.1674 28.1037 23.5035 27.326C23.8395 26.5482 24.2946 25.8721 24.8688 25.2975C25.4429 24.7229 26.1191 24.2678 26.8973 23.9322C27.6754 23.5965 28.506 23.4287 29.389 23.4287C30.2719 23.4287 31.1025 23.5965 31.8806 23.9322C32.6588 24.2678 33.335 24.7229 33.9091 25.2975C34.4833 25.8721 34.9386 26.5482 35.2751 27.326C35.6116 28.1037 35.7792 28.9343 35.7779 29.8177C35.7766 30.701 35.6088 31.5316 35.2745 32.3094C34.9401 33.0871 34.485 33.7633 33.9091 34.3379C33.3333 34.9124 32.6571 35.3678 31.8806 35.7038C31.1042 36.0399 30.2736 36.2075 29.389 36.2066Z" fill="url(#paint1_linear_2139_54648)"/>
</g>
<defs>
<linearGradient id="paint0_linear_2139_54648" x1="11.4434" y1="41.5048" x2="33.1765" y2="33.0632" gradientUnits="userSpaceOnUse">
<stop stop-color="#176CF7"/>
<stop offset="1" stop-color="#0C36C1"/>
</linearGradient>
<linearGradient id="paint1_linear_2139_54648" x1="27.5788" y1="39.1554" x2="38.3703" y2="33.2871" gradientUnits="userSpaceOnUse">
<stop stop-color="#770000"/>
<stop offset="0.51" stop-color="#BF0808"/>
<stop offset="1" stop-color="#770000"/>
</linearGradient>
<clipPath id="clip0_2139_54648">
<rect width="40" height="40" fill="white" transform="translate(0.666992)"/>
</clipPath>
</defs>
</svg>
