<svg width="16" height="17" viewBox="0 0 16 17" fill="none" xmlns="http://www.w3.org/2000/svg">
<g clip-path="url(#clip0_10521_15953)">
<path d="M2.68164 3.25H13.3027C13.3102 3.25033 13.3177 3.25185 13.3252 3.25195C13.4788 3.25408 13.6277 3.31775 13.7393 3.43262C13.8512 3.54787 13.916 3.70528 13.916 3.87207V10.0889C13.916 10.2151 13.879 10.3362 13.8125 10.4375L13.7363 10.5322C13.6231 10.647 13.4722 10.709 13.3174 10.709H7.91504C7.67943 10.709 7.45905 10.8196 7.31836 11.0039L7.26367 11.0879L5.84863 13.5654L4.44141 11.0859C4.32489 10.8807 4.11977 10.744 3.88965 10.7129L3.78906 10.7061H2.68164C2.56569 10.706 2.45185 10.6713 2.35449 10.6055L2.2627 10.5283C2.14915 10.4129 2.08301 10.2542 2.08301 10.0859V3.87012L2.09473 3.74609C2.11066 3.66534 2.14219 3.58902 2.18652 3.52148L2.2627 3.42773C2.34751 3.34157 2.45342 3.28474 2.56641 3.26172L2.68164 3.25Z" stroke="currentColor" stroke-width="1.5" stroke-linecap="round" stroke-linejoin="round"/>
<path d="M4 5.83331H8" stroke="currentColor" stroke-width="1.5" stroke-linecap="round" stroke-linejoin="round"/>
<path d="M4 8.5L11.3333 8.5" stroke="currentColor" stroke-width="1.5" stroke-linecap="round" stroke-linejoin="round"/>
</g>
<defs>
<clipPath id="clip0_10521_15953">
<rect width="16" height="16" fill="white" transform="translate(0 0.5)"/>
</clipPath>
</defs>
</svg>
