<svg width="24" height="24" viewBox="0 0 24 24" fill="none" xmlns="http://www.w3.org/2000/svg">
<path d="M14.2498 11.9307C14.2498 11.8162 14.2017 11.6934 14.0945 11.5928L8.64039 6.55078C8.33632 6.26959 8.31823 5.79533 8.59938 5.49121C8.88057 5.18707 9.3548 5.16803 9.65895 5.44922L15.1121 10.4912L15.114 10.4932L15.2556 10.6387C15.5685 10.9937 15.7498 11.4486 15.7498 11.9307C15.7498 12.4815 15.5133 12.9967 15.114 13.3682L15.1121 13.3701L9.50856 18.5508C9.2044 18.8318 8.73011 18.8129 8.44899 18.5088C8.16802 18.2046 8.18691 17.7303 8.49098 17.4492L14.0945 12.2686C14.2017 12.168 14.2498 12.0451 14.2498 11.9307Z" fill="currentColor"/>
</svg>
