<svg width="16" height="16" viewBox="0 0 16 16" fill="none" xmlns="http://www.w3.org/2000/svg">
<path d="M7.9537 5.5C8.2751 5.5 8.57831 5.62084 8.81502 5.82943L8.91203 5.92383L8.91333 5.92513L12.3671 9.66081L12.3997 9.69987C12.5521 9.90239 12.5292 10.1914 12.3391 10.3672C12.1489 10.5429 11.8591 10.5429 11.6692 10.375L11.6327 10.3392L8.18026 6.60482L8.12687 6.55794C8.07178 6.51835 8.01122 6.5 7.9537 6.5C7.87694 6.5 7.7944 6.53249 7.72713 6.60482L4.36711 10.2396L3.63273 9.56055L6.99406 5.92513L6.99536 5.92383L7.09237 5.82943C7.32908 5.62083 7.63229 5.5 7.9537 5.5ZM4.36711 10.2396C4.17964 10.4423 3.86347 10.4544 3.66073 10.2669C3.45797 10.0795 3.44527 9.76331 3.63273 9.56055L4.36711 10.2396Z" fill="#176CF7"/>
</svg>
