<svg width="24" height="24" viewBox="0 0 24 24" fill="none" xmlns="http://www.w3.org/2000/svg">
<path d="M11.9869 16.2043C16.4616 16.2043 20.0891 12.5769 20.0891 8.10216C20.0891 3.62746 16.4616 0 11.9869 0C7.51222 0 3.88477 3.62746 3.88477 8.10216C3.88477 12.5769 7.51222 16.2043 11.9869 16.2043Z" fill="url(#paint0_linear_3296_49378)"/>
<path d="M13.6574 13.2834L10.979 2.67341C9.99323 2.2978 9.7942 0.747734 10.4987 0.136719C6.73491 0.835578 3.88477 4.13572 3.88477 8.10195C3.88477 12.5766 7.51223 16.2041 11.9869 16.2041C12.8729 16.2041 13.7255 16.0614 14.5235 15.7985C13.1358 15.3082 13.0604 13.8782 13.6574 13.2834Z" fill="url(#paint1_linear_3296_49378)"/>
<path d="M11.9862 2.40527C11.4936 2.40527 11.0156 2.46785 10.5597 2.58537C6.4511 5.59943 8.14395 12.4582 13.2514 13.6579C15.7888 13.0825 17.6831 10.8137 17.6831 8.10218C17.6831 4.95588 15.1326 2.40527 11.9862 2.40527Z" fill="#FFF0CE"/>
<path d="M10.5604 2.58496C8.10448 3.2182 6.29004 5.44809 6.29004 8.10177C6.29004 11.2481 8.84065 13.7987 11.987 13.7987C12.4219 13.7987 12.8452 13.7498 13.2521 13.6575C10.15 12.3125 8.93505 5.28904 10.5604 2.58496Z" fill="#FFDDB9"/>
<path d="M20.1099 15.6029C17.9524 15.5342 14.7134 15.4482 11.9999 15.4482C11.5418 15.4482 11.0685 15.4507 10.5881 15.4551C7.10082 16.6913 6.80959 22.3219 11.41 23.9991C11.6088 24 11.8059 24.0004 11.9999 24.0004C14.7134 24.0004 17.9524 23.9145 20.1099 23.8458C21.4459 23.8031 22.5066 22.7076 22.5066 21.3709V18.0778C22.5065 16.7411 21.4459 15.6455 20.1099 15.6029Z" fill="url(#paint2_linear_3296_49378)"/>
<path d="M11.4099 23.9991C9.0984 22.7596 8.6469 17.3535 10.588 15.4551C8.22329 15.4767 5.68309 15.5457 3.88988 15.6029C2.55385 15.6455 1.49316 16.741 1.49316 18.0777V21.3708C1.49316 22.7076 2.55385 23.8031 3.88988 23.8457C5.89309 23.9095 8.82835 23.9882 11.4099 23.9991Z" fill="url(#paint3_linear_3296_49378)"/>
<path d="M12.6298 7.45898L14.6458 9.47494C15.0009 9.83011 15.0009 10.4059 14.6458 10.761C14.2906 11.1162 13.7149 11.1162 13.3597 10.761L11.3438 8.74509L12.6298 7.45898Z" fill="url(#paint4_linear_3296_49378)"/>
<path d="M12.6298 7.45877C12.9849 7.8139 12.9849 8.38971 12.6298 8.74484L11.3385 10.0361C10.9835 10.3912 10.4076 10.3913 10.0525 10.036C9.69735 9.68088 9.69735 9.10507 10.0525 8.74995L11.3438 7.45868C11.6988 7.1037 12.2746 7.10351 12.6298 7.45877Z" fill="url(#paint5_linear_3296_49378)"/>
<path d="M7.33204 21.6138C6.98929 21.6138 6.96866 21.6102 6.94321 21.6058C6.77455 21.5768 6.65137 21.4305 6.65137 21.2594V18.1396C6.65137 17.9454 6.80873 17.7881 7.00293 17.7881C7.19713 17.7881 7.35449 17.9454 7.35449 18.1396V20.9104C7.5622 20.9102 7.83777 20.9093 8.09427 20.9078H8.09629C8.28951 20.9078 8.44673 21.0639 8.4478 21.2574C8.44888 21.4515 8.29241 21.6098 8.09821 21.6109C7.74163 21.6129 7.49868 21.6138 7.33204 21.6138Z" fill="white"/>
<path d="M17.4111 20.9102H16.459V20.0665H17.3149C17.5091 20.0665 17.6665 19.9091 17.6665 19.7149C17.6665 19.5207 17.5091 19.3633 17.3149 19.3633H16.459V18.5195H17.4111C17.6053 18.5195 17.7626 18.3622 17.7626 18.168C17.7626 17.9738 17.6053 17.8164 17.4111 17.8164H16.1074C15.9132 17.8164 15.7559 17.9738 15.7559 18.168V21.2618C15.7559 21.456 15.9132 21.6134 16.1074 21.6134H17.4111C17.6053 21.6134 17.7626 21.456 17.7626 21.2618C17.7626 21.0676 17.6053 20.9102 17.4111 20.9102Z" fill="white"/>
<path d="M18.6878 21.6139C18.595 21.6139 18.506 21.5773 18.4401 21.5119C18.374 21.4462 18.3365 21.3569 18.3362 21.2636C18.3362 21.2636 18.3323 20.1652 18.3323 19.744C18.3323 19.3985 18.3301 18.2331 18.3301 18.233C18.3299 18.1397 18.3669 18.0501 18.4328 17.9841C18.4987 17.918 18.5883 17.8809 18.6816 17.8809H19.5398C20.482 17.8809 21.115 18.631 21.115 19.7474C21.115 20.8094 20.4657 21.5916 19.5711 21.6072C19.3268 21.6115 18.7151 21.6139 18.6891 21.614C18.6887 21.6139 18.6883 21.6139 18.6878 21.6139ZM19.0339 18.5839C19.0345 18.9566 19.0354 19.521 19.0354 19.744C19.0354 20.011 19.037 20.5507 19.0382 20.909C19.2248 20.9079 19.4397 20.9062 19.5588 20.9042C19.9834 20.8967 20.4118 20.5361 20.4118 19.7473C20.4118 19.1849 20.1828 18.5839 19.5398 18.5839H19.0339Z" fill="white"/>
<path d="M4.79652 21.6136C3.74184 21.6136 2.88379 20.7555 2.88379 19.7008C2.88379 18.6461 3.74184 17.7881 4.79652 17.7881C5.17977 17.7881 5.54962 17.9011 5.86621 18.1149C6.02713 18.2236 6.06941 18.4421 5.96076 18.6031C5.85206 18.7639 5.63357 18.8062 5.47265 18.6976C5.27277 18.5626 5.03896 18.4913 4.79652 18.4913C4.12954 18.4913 3.58691 19.0339 3.58691 19.7009C3.58691 20.3679 4.12954 20.9105 4.79652 20.9105C5.04529 20.9105 5.25487 20.8362 5.41959 20.6895C5.45165 20.661 5.48231 20.6293 5.51066 20.5954C5.6354 20.4466 5.85716 20.4272 6.00595 20.5519C6.15473 20.6767 6.17418 20.8984 6.04945 21.0472C5.99924 21.1071 5.94463 21.1634 5.88716 21.2146C5.59406 21.4756 5.2169 21.6136 4.79652 21.6136Z" fill="white"/>
<path d="M13.9846 21.6596C13.4683 21.6596 12.9642 21.4434 12.636 21.0813C12.5056 20.9374 12.5165 20.7151 12.6604 20.5847C12.8042 20.4544 13.0266 20.4652 13.157 20.6091C13.3541 20.8266 13.6635 20.9564 13.9846 20.9564C14.3066 20.9564 14.5342 20.7597 14.5681 20.5695C14.6147 20.3086 14.2801 20.1551 14.134 20.1013C13.6509 19.9231 13.2221 19.7322 13.204 19.7241C13.1872 19.7166 13.1709 19.7077 13.1553 19.6976C12.8389 19.4913 12.6759 19.1294 12.7298 18.7532C12.7875 18.3512 13.0821 18.0235 13.4985 17.898C14.3316 17.647 15.0183 18.2133 15.0471 18.2375C15.1958 18.3624 15.2149 18.5842 15.09 18.7328C14.9656 18.8809 14.7449 18.9006 14.5963 18.777C14.5851 18.768 14.1621 18.4324 13.7013 18.5713C13.4796 18.6381 13.4348 18.7905 13.4258 18.853C13.412 18.9492 13.4473 19.0381 13.5207 19.0953C13.6254 19.1412 13.9877 19.2978 14.3773 19.4416C15.1426 19.7238 15.3352 20.2731 15.2602 20.6931C15.1603 21.2532 14.6237 21.6596 13.9846 21.6596Z" fill="white"/>
<path d="M10.3493 21.6595C9.29462 21.6595 8.43652 20.8014 8.43652 19.7467C8.43652 18.692 9.29462 17.834 10.3493 17.834C11.404 17.834 12.262 18.692 12.262 19.7467C12.262 20.8014 11.404 21.6595 10.3493 21.6595ZM10.3493 18.5372C9.68227 18.5372 9.13965 19.0798 9.13965 19.7468C9.13965 20.4137 9.68227 20.9564 10.3493 20.9564C11.0163 20.9564 11.5589 20.4138 11.5589 19.7468C11.5589 19.0798 11.0162 18.5372 10.3493 18.5372Z" fill="white"/>
<path d="M11.9873 4.3459C11.7931 4.3459 11.6357 4.18751 11.6357 3.99434C11.6357 3.82024 11.7633 3.6791 11.9184 3.64976C12.135 3.60528 12.3389 3.77318 12.3389 3.99434C12.3389 4.18807 12.181 4.3459 11.9873 4.3459Z" fill="url(#paint6_linear_3296_49378)"/>
<path d="M7.55454 8.23726C7.46956 8.03204 7.59167 7.80311 7.81048 7.75778C8.02592 7.71503 8.23048 7.87904 8.23048 8.10273C8.23048 8.26604 8.11854 8.41154 7.94782 8.44731C7.78559 8.48022 7.6159 8.39101 7.55454 8.23726Z" fill="url(#paint7_linear_3296_49378)"/>
<path d="M11.9873 12.5614C11.7928 12.5614 11.6357 12.4036 11.6357 12.2098C11.6357 11.9855 11.8424 11.8223 12.0562 11.8653C12.2323 11.9025 12.3389 12.0525 12.3389 12.2098C12.3389 12.4035 12.1818 12.5614 11.9873 12.5614Z" fill="url(#paint8_linear_3296_49378)"/>
<path d="M16.0947 8.45377C15.9008 8.45377 15.7432 8.29664 15.7432 8.10267C15.7432 7.93636 15.8578 7.79259 16.0258 7.75772C16.2434 7.71497 16.4463 7.88091 16.4463 8.10267C16.4463 8.29097 16.2934 8.45377 16.0947 8.45377Z" fill="url(#paint9_linear_3296_49378)"/>
<defs>
<linearGradient id="paint0_linear_3296_49378" x1="3.88477" y1="8.10216" x2="20.0891" y2="8.10216" gradientUnits="userSpaceOnUse">
<stop stop-color="#D29A00"/>
<stop offset="0.35" stop-color="#FFD664"/>
<stop offset="0.69" stop-color="#D09C0C"/>
<stop offset="1" stop-color="#FFDA71"/>
</linearGradient>
<linearGradient id="paint1_linear_3296_49378" x1="3.88477" y1="8.17042" x2="14.5235" y2="8.17042" gradientUnits="userSpaceOnUse">
<stop stop-color="#D29A00"/>
<stop offset="0.35" stop-color="#FFD664"/>
<stop offset="0.69" stop-color="#D09C0C"/>
<stop offset="1" stop-color="#FFDA71"/>
</linearGradient>
<linearGradient id="paint2_linear_3296_49378" x1="13.1744" y1="25.974" x2="21.753" y2="18.0409" gradientUnits="userSpaceOnUse">
<stop stop-color="#770000"/>
<stop offset="0.51" stop-color="#BF0808"/>
<stop offset="1" stop-color="#770000"/>
</linearGradient>
<linearGradient id="paint3_linear_3296_49378" x1="5.04666" y1="25.9708" x2="12.8069" y2="21.0728" gradientUnits="userSpaceOnUse">
<stop stop-color="#770000"/>
<stop offset="0.51" stop-color="#BF0808"/>
<stop offset="1" stop-color="#770000"/>
</linearGradient>
<linearGradient id="paint4_linear_3296_49378" x1="12.6224" y1="11.8509" x2="15.6361" y2="10.2121" gradientUnits="userSpaceOnUse">
<stop stop-color="#770000"/>
<stop offset="0.51" stop-color="#BF0808"/>
<stop offset="1" stop-color="#770000"/>
</linearGradient>
<linearGradient id="paint5_linear_3296_49378" x1="10.9006" y1="11.0201" x2="13.5271" y2="9.59185" gradientUnits="userSpaceOnUse">
<stop stop-color="#770000"/>
<stop offset="0.51" stop-color="#BF0808"/>
<stop offset="1" stop-color="#770000"/>
</linearGradient>
<linearGradient id="paint6_linear_3296_49378" x1="11.6357" y1="3.99424" x2="12.3389" y2="3.99424" gradientUnits="userSpaceOnUse">
<stop stop-color="#D29A00"/>
<stop offset="0.35" stop-color="#FFD664"/>
<stop offset="0.69" stop-color="#D09C0C"/>
<stop offset="1" stop-color="#FFDA71"/>
</linearGradient>
<linearGradient id="paint7_linear_3296_49378" x1="7.52734" y1="8.10254" x2="8.23048" y2="8.10254" gradientUnits="userSpaceOnUse">
<stop stop-color="#D29A00"/>
<stop offset="0.35" stop-color="#FFD664"/>
<stop offset="0.69" stop-color="#D09C0C"/>
<stop offset="1" stop-color="#FFDA71"/>
</linearGradient>
<linearGradient id="paint8_linear_3296_49378" x1="11.6357" y1="12.2099" x2="12.3389" y2="12.2099" gradientUnits="userSpaceOnUse">
<stop stop-color="#D29A00"/>
<stop offset="0.35" stop-color="#FFD664"/>
<stop offset="0.69" stop-color="#D09C0C"/>
<stop offset="1" stop-color="#FFDA71"/>
</linearGradient>
<linearGradient id="paint9_linear_3296_49378" x1="15.7432" y1="8.10237" x2="16.4463" y2="8.10237" gradientUnits="userSpaceOnUse">
<stop stop-color="#D29A00"/>
<stop offset="0.35" stop-color="#FFD664"/>
<stop offset="0.69" stop-color="#D09C0C"/>
<stop offset="1" stop-color="#FFDA71"/>
</linearGradient>
</defs>
</svg>
