<svg width="41" height="40" viewBox="0 0 41 40" fill="none" xmlns="http://www.w3.org/2000/svg">
<path d="M25.4521 4.38465C26.3581 5.2286 26.9119 6.30499 27.502 7.37751C27.7699 7.86386 28.0471 8.34427 28.3281 8.82313C28.4193 8.97866 28.5104 9.1342 28.6016 9.28974C28.6472 9.3676 28.6928 9.44546 28.7398 9.52568C28.9818 9.93999 29.2214 10.3557 29.4609 10.7714C29.5096 10.8558 29.5582 10.9401 29.6083 11.0271C29.7069 11.1982 29.8055 11.3692 29.904 11.5403C30.1484 11.9645 30.3931 12.3884 30.6377 12.8124C30.7354 12.9817 30.833 13.1509 30.9307 13.3202C30.979 13.404 31.0273 13.4878 31.0771 13.5741C32.7861 16.5363 34.4951 19.4986 36.2041 22.4608C36.2525 22.5446 36.3008 22.6285 36.3506 22.7148C36.4481 22.8838 36.5456 23.0527 36.643 23.2217C36.9401 23.7366 37.2372 24.2514 37.5346 24.7661C37.6814 25.0204 37.8279 25.2749 37.9744 25.5294C38.1563 25.8451 38.3392 26.1602 38.5231 26.4748C39.2162 27.6648 39.8173 28.8315 39.8955 30.2343C39.9017 30.3358 39.9017 30.3358 39.908 30.4393C39.9616 32.154 39.348 33.7677 38.2549 35.078C38.195 35.1534 38.135 35.2289 38.0733 35.3066C37.0892 36.4817 35.4977 37.1996 33.993 37.3656C33.397 37.4183 32.8065 37.433 32.2084 37.4322C32.1072 37.4324 32.0059 37.4326 31.9016 37.4327C31.6232 37.4332 31.3447 37.4332 31.0663 37.4331C30.765 37.4331 30.4637 37.4335 30.1623 37.4339C29.5729 37.4346 28.9835 37.4348 28.3941 37.4348C27.9146 37.4349 27.4351 37.435 26.9555 37.4353C25.5934 37.4359 24.2313 37.4363 22.8692 37.4362C22.7958 37.4362 22.7225 37.4362 22.647 37.4362C22.5736 37.4362 22.5002 37.4362 22.4246 37.4362C21.2359 37.4362 20.0471 37.4369 18.8584 37.438C17.6353 37.4392 16.4122 37.4397 15.1891 37.4396C14.5034 37.4396 13.8178 37.4398 13.1321 37.4407C12.5482 37.4414 11.9643 37.4416 11.3804 37.441C11.0831 37.4408 10.7858 37.4408 10.4884 37.4414C7.93261 37.4469 5.61673 37.2995 3.69044 35.4376C2.42233 34.1471 1.80252 32.4355 1.74609 30.6395C1.79394 28.3967 3.0425 26.5757 4.14294 24.7026C4.43381 24.2075 4.72116 23.7104 5.00781 23.2128C5.05644 23.1284 5.10506 23.044 5.15516 22.9571C5.25375 22.786 5.35232 22.6149 5.45089 22.4438C5.69526 22.0197 5.93993 21.5957 6.18457 21.1718C6.28223 21.0025 6.37988 20.8332 6.47754 20.6639C8.62598 16.94 10.7744 13.216 12.9229 9.49208C12.9712 9.40819 13.0196 9.3243 13.0695 9.23786C13.1666 9.06958 13.2637 8.90133 13.3609 8.7331C13.5873 8.34116 13.8133 7.94898 14.0375 7.55579C14.1162 7.41777 14.1951 7.27983 14.274 7.14192C14.3725 6.96977 14.4707 6.79746 14.5685 6.62495C15.6015 4.82205 16.9803 3.36979 19.0309 2.80995C21.3377 2.23533 23.6657 2.79796 25.4521 4.38465ZM18.958 14.2186C18.6151 14.7504 18.5555 15.228 18.5536 15.8533C18.553 15.9238 18.5525 15.9942 18.552 16.0667C18.5505 16.2997 18.5495 16.5327 18.5488 16.7656C18.5484 16.8454 18.5481 16.9252 18.5478 17.0073C18.5462 17.4297 18.5451 17.852 18.5443 18.2744C18.5435 18.7094 18.5408 19.1444 18.5377 19.5794C18.5356 19.9149 18.535 20.2504 18.5347 20.586C18.5343 20.7463 18.5334 20.9065 18.532 21.0668C18.5079 22.4976 18.5079 22.4976 19.2067 23.7081C19.7176 24.1399 20.3226 24.3424 20.9893 24.2968C21.5871 24.1718 22.0796 23.9074 22.4736 23.4374C22.8837 22.8013 22.9542 22.1899 22.9537 21.4487C22.954 21.385 22.9543 21.3213 22.9545 21.2557C22.9553 21.0464 22.9554 20.8372 22.9555 20.6279C22.9558 20.4815 22.956 20.3351 22.9563 20.1887C22.9568 19.8823 22.9569 19.5759 22.9569 19.2694C22.9569 18.8781 22.9579 18.4868 22.9593 18.0955C22.9601 17.7933 22.9603 17.491 22.9603 17.1887C22.9603 17.0445 22.9607 16.9003 22.9613 16.7561C22.9621 16.5538 22.9618 16.3516 22.9614 16.1494C22.9618 16.0907 22.9622 16.032 22.9627 15.9715C22.9582 15.1955 22.7861 14.5661 22.2557 13.9882C21.8056 13.5605 21.3406 13.36 20.7207 13.3251C20.0188 13.3544 19.4153 13.6959 18.958 14.2186ZM18.958 28.203C18.5916 28.7807 18.5082 29.3216 18.5674 29.9999C18.7163 30.5757 19.0891 31.1096 19.59 31.4336C20.1539 31.7255 20.7228 31.8186 21.3481 31.6707C21.984 31.448 22.4459 31.0419 22.7422 30.4345C22.9951 29.7752 22.9765 29.2471 22.708 28.5936C22.4302 28.0689 21.985 27.6346 21.4238 27.4266C20.4756 27.1669 19.6052 27.4617 18.958 28.203Z" fill="url(#paint0_linear_2139_54665)"/>
<defs>
<linearGradient id="paint0_linear_2139_54665" x1="15.4219" y1="45.4842" x2="46.2523" y2="27.1247" gradientUnits="userSpaceOnUse">
<stop stop-color="#AE0000"/>
<stop offset="1" stop-color="#FF0000"/>
</linearGradient>
</defs>
</svg>
