<svg width="12" height="15" viewBox="0 0 12 15" fill="none" xmlns="http://www.w3.org/2000/svg">
<path d="M5.29395 0.833496C8.21765 0.833496 10.5876 3.18964 10.5879 6.09619C10.5879 7.48616 10.0445 8.74902 9.15918 9.68994L11.8457 13.0269C12.0889 13.3295 12.0396 13.7711 11.7354 14.0132C11.4311 14.2552 10.9868 14.2061 10.7432 13.9038L8.06738 10.5796C7.26075 11.074 6.31107 11.3599 5.29395 11.3599C2.37016 11.3598 0 9.00289 0 6.09619C0.000247339 3.1897 2.37032 0.833585 5.29395 0.833496ZM5.29395 2.23682C3.15001 2.2369 1.41236 3.96483 1.41211 6.09619C1.41211 8.22776 3.14986 9.95646 5.29395 9.95654C7.43811 9.95654 9.17676 8.22781 9.17676 6.09619C9.17651 3.96478 7.43795 2.23682 5.29395 2.23682Z" fill="currentColor"/>
</svg>
