<svg width="142" height="115" viewBox="0 0 142 115" fill="none" xmlns="http://www.w3.org/2000/svg">
<path d="M102.049 81.8916H75.5964H73.8074L81.8581 93.9951L110.228 92.1924L102.049 81.8916Z" fill="white" stroke="white"/>
<path d="M117.485 12.0576C117.545 12.055 117.666 12.0738 117.807 12.207C117.824 12.2232 117.838 12.2378 117.849 12.249C117.852 12.2646 117.857 12.2837 117.861 12.3076C117.918 12.6823 117.93 13.3851 117.93 15.0293C117.93 16.6182 117.916 17.3411 117.859 17.7441C117.848 17.8214 117.837 17.8675 117.831 17.8916C117.82 17.9039 117.804 17.924 117.778 17.9521C117.676 18.0621 117.575 18.0859 117.51 18.084C117.464 18.0826 117.412 18.0681 117.36 18.0244L117.308 17.9697C117.238 17.8791 117.228 17.8535 117.225 17.8467C117.22 17.834 117.195 17.7726 117.171 17.5957C117.114 17.1877 117.096 16.4962 117.096 15.0654C117.096 13.6343 117.114 12.9423 117.171 12.5342C117.195 12.357 117.22 12.2958 117.225 12.2832C117.228 12.2764 117.238 12.2508 117.308 12.1602H117.309C117.373 12.0791 117.432 12.06 117.485 12.0576ZM28.6755 2.60547C28.695 2.61517 28.73 2.63465 28.781 2.67285C28.8973 2.75997 28.9382 2.82457 28.9509 2.84863C28.9611 2.86791 28.967 2.88648 28.9666 2.92285C28.9653 3.01478 28.9097 3.31407 28.4968 3.79492L27.6189 4.81738L26.7615 5.81543L27.6394 6.79492L28.5056 7.76172C28.8626 8.16023 28.9317 8.45873 28.9382 8.59961C28.9448 8.7407 28.8973 8.79414 28.8855 8.80566C28.876 8.81497 28.8441 8.8445 28.7468 8.83496C28.6431 8.8247 28.37 8.75413 27.9988 8.36816L27.1404 7.47559L26.1287 6.42383L25.0496 7.40527L24.0691 8.29785L24.0681 8.29883C23.6316 8.69614 23.3061 8.80187 23.1521 8.81738C23.0824 8.82436 23.0452 8.81386 23.0261 8.80664C23.0073 8.79948 22.9671 8.78057 22.9099 8.71875L22.825 8.6123C22.8165 8.59893 22.8119 8.58942 22.8093 8.58398L22.8103 8.58301C22.8198 8.51224 22.8985 8.23887 23.3503 7.70703L24.2693 6.625L25.1169 5.62793L24.2429 4.65332L23.324 3.62793C22.8862 3.13968 22.831 2.82589 22.8279 2.74414C22.8489 2.72759 22.8906 2.6992 22.9656 2.66797C23.0358 2.63878 23.1064 2.62792 23.2341 2.66797C23.3906 2.7171 23.6517 2.85502 24.0007 3.19336L24.8181 3.98535L25.8162 4.95215L26.8562 4.03223L27.7683 3.22559C28.3074 2.74875 28.5822 2.63018 28.6755 2.60547ZM116.271 1.5C117.133 1.5 117.489 1.52677 117.676 1.56738C117.738 1.58109 117.743 1.58881 117.727 1.58008C117.734 1.58494 117.759 1.60247 117.807 1.64844V1.64941C117.835 1.67585 117.855 1.69529 117.868 1.70898C117.881 1.76997 117.9 1.89332 117.913 2.13574C117.925 2.38259 117.93 2.70411 117.93 3.14648C117.93 3.60326 117.926 3.92908 117.913 4.17773C117.9 4.42888 117.881 4.54603 117.868 4.59863C117.867 4.60128 117.866 4.60336 117.865 4.60547C117.853 4.62156 117.817 4.66982 117.71 4.77832C117.673 4.81509 117.641 4.84344 117.614 4.86816C117.607 4.86685 117.599 4.86674 117.592 4.86523C117.44 4.83578 117.293 4.7505 117.191 4.6416C117.111 4.55522 117.098 4.49969 117.096 4.49512C117.095 4.07271 117.005 3.38645 116.388 2.8623C115.92 2.4636 115.327 2.34244 114.988 2.27832C114.65 2.2145 114.586 2.05875 114.577 2.03223C114.569 2.008 114.565 1.97615 114.576 1.93164C114.587 1.88759 114.623 1.80088 114.733 1.68945V1.68848C114.814 1.60746 114.854 1.57513 114.869 1.56348C114.87 1.5631 114.872 1.56292 114.874 1.5625C114.926 1.54973 115.041 1.53069 115.283 1.51758C115.522 1.50459 115.835 1.5 116.271 1.5ZM43.0681 1.5C43.5142 1.5 43.8345 1.50463 44.0798 1.51758C44.3277 1.53066 44.4466 1.55028 44.5017 1.56348C44.5038 1.56398 44.5058 1.56402 44.5076 1.56445C44.5234 1.57694 44.5641 1.60957 44.6423 1.68848V1.68945C44.7529 1.80087 44.7883 1.88765 44.7996 1.93164C44.8109 1.97615 44.8067 2.008 44.7986 2.03223C44.7899 2.05837 44.7252 2.21435 44.3875 2.27832H44.3865C44.0473 2.34247 43.4548 2.46367 42.9861 2.8623C42.3694 3.38685 42.2795 4.07383 42.2781 4.49609C42.2756 4.50518 42.2608 4.55958 42.1843 4.6416C42.1082 4.72322 42.0062 4.79165 41.8962 4.83301L41.7839 4.86523C41.7756 4.86686 41.7671 4.86675 41.7595 4.86816C41.7332 4.84364 41.7018 4.81461 41.6658 4.77832C41.558 4.66973 41.5213 4.62169 41.5095 4.60547C41.5089 4.6033 41.5083 4.60046 41.5076 4.59766C41.4952 4.54733 41.4747 4.43446 41.4617 4.19043C41.4487 3.94779 41.4451 3.62939 41.4451 3.18262C41.4451 2.31464 41.4713 1.95258 41.5125 1.76074C41.5266 1.6949 41.5346 1.68753 41.5271 1.70117C41.5223 1.70994 41.5295 1.69002 41.5964 1.61816L41.5974 1.61914C41.6214 1.59338 41.6388 1.57359 41.6521 1.56055C41.7117 1.5477 41.832 1.52975 42.0662 1.51758C42.3103 1.5049 42.6289 1.5 43.0681 1.5ZM54.4324 1.5C55.9681 1.5 56.661 1.51512 57.0457 1.57129C57.1115 1.58091 57.1526 1.58984 57.1755 1.5957L57.2351 1.64941C57.3385 1.74737 57.3449 1.81645 57.3445 1.84961C57.344 1.8809 57.3338 1.95671 57.2615 2.06055L57.1658 2.17383C57.1089 2.23119 57.0718 2.26381 57.0515 2.28223C57.039 2.28502 57.0225 2.2902 57.0007 2.29395C56.6778 2.34951 56.0707 2.36328 54.5593 2.36328C53.1799 2.36328 52.5167 2.34409 52.1267 2.28809C51.9608 2.26425 51.9042 2.24103 51.8933 2.23633L51.7732 2.15332C51.7317 2.12041 51.6651 2.02993 51.656 1.87207C51.6482 1.73447 51.6901 1.64032 51.7283 1.59082C51.7547 1.58538 51.7923 1.57734 51.8435 1.57031C52.2374 1.5163 52.9433 1.5 54.4324 1.5ZM67.0808 1.5C68.5879 1.5 69.3035 1.51606 69.7029 1.57031C69.7568 1.57764 69.7959 1.58619 69.823 1.5918C69.8954 1.66871 69.9273 1.72581 69.9402 1.75684C69.9531 1.78801 69.9535 1.80513 69.9529 1.81543C69.9523 1.82586 69.9413 1.95941 69.7078 2.1709C69.5952 2.27283 69.5814 2.27339 69.6003 2.26367C69.625 2.25115 69.6069 2.26907 69.4666 2.29102C69.1088 2.34692 68.4683 2.36328 67.0105 2.36328C65.4884 2.36328 64.8757 2.3497 64.5496 2.29395C64.5263 2.28997 64.5087 2.28417 64.4958 2.28125C64.4753 2.26257 64.4391 2.22981 64.3835 2.17383C64.2283 2.01732 64.2146 1.90806 64.2136 1.87402C64.2128 1.84352 64.2178 1.75411 64.3445 1.61816L64.3435 1.61719C64.3583 1.60129 64.372 1.58903 64.3826 1.57812C64.3957 1.57562 64.4116 1.57226 64.4304 1.56934C64.792 1.51313 65.4727 1.5 67.0808 1.5ZM92.2585 1.5C93.7938 1.5 94.4862 1.51516 94.8708 1.57129C94.9372 1.58097 94.9788 1.58983 95.0017 1.5957L95.0613 1.64941C95.1645 1.74729 95.1711 1.81646 95.1707 1.84961C95.17 1.89138 95.1519 2.01262 94.9919 2.17383H94.991C94.9351 2.2301 94.8992 2.26262 94.8787 2.28125C94.8658 2.28414 94.8488 2.29002 94.8259 2.29395C94.4999 2.34976 93.8874 2.36328 92.365 2.36328C90.9068 2.36328 90.2656 2.34696 89.908 2.29102C89.7673 2.26899 89.7501 2.25083 89.7751 2.26367C89.7941 2.27339 89.7794 2.27287 89.6667 2.1709H89.6658C89.4327 1.95962 89.4222 1.82559 89.4216 1.81543C89.4211 1.80515 89.4215 1.78789 89.4343 1.75684C89.4472 1.72571 89.4796 1.6681 89.5525 1.59082C89.5789 1.58534 89.6166 1.57746 89.6687 1.57031C90.0626 1.51626 90.769 1.5 92.2585 1.5ZM104.907 1.5C106.414 1.5 107.13 1.51603 107.529 1.57031C107.582 1.5775 107.62 1.58624 107.647 1.5918C107.685 1.64152 107.727 1.73524 107.719 1.87207C107.71 2.02963 107.644 2.12026 107.602 2.15332H107.601C107.512 2.2239 107.488 2.23396 107.482 2.23633C107.472 2.24065 107.416 2.26395 107.248 2.28809C106.858 2.34407 106.195 2.36328 104.816 2.36328C103.304 2.36328 102.697 2.34955 102.374 2.29395C102.351 2.28998 102.334 2.28511 102.321 2.28223C102.301 2.26356 102.265 2.22991 102.21 2.17383C102.054 2.01728 102.041 1.90806 102.04 1.87402C102.039 1.84353 102.044 1.75412 102.171 1.61816L102.17 1.61719C102.185 1.60129 102.198 1.58902 102.209 1.57812C102.222 1.57563 102.238 1.57224 102.257 1.56934C102.618 1.51317 103.299 1.5 104.907 1.5ZM79.6873 1.5C81.3165 1.5 81.9605 1.51125 82.3015 1.56934C82.3259 1.57349 82.3443 1.5781 82.3572 1.58105C82.3805 1.60228 82.4234 1.64377 82.4968 1.71777C82.5339 1.75516 82.5637 1.78737 82.5886 1.81445C82.5868 1.82419 82.5859 1.83473 82.5837 1.8457C82.5594 1.96856 82.5353 2.0573 82.5193 2.12109C82.3891 2.14641 82.1741 2.17715 81.8269 2.19727C81.3083 2.22731 80.616 2.23437 79.656 2.23438C77.9631 2.23438 77.2375 2.2232 76.8611 2.16992C76.7933 2.08274 76.7624 2.02036 76.7498 1.98535C76.7374 1.95098 76.739 1.93689 76.739 1.93652C76.7391 1.9343 76.7401 1.9184 76.7566 1.88477C76.7754 1.8464 76.818 1.7791 76.907 1.68945V1.68848C76.9615 1.63349 76.9968 1.60083 77.0173 1.58203C77.0321 1.57874 77.0526 1.57381 77.0798 1.56934C77.429 1.51197 78.0834 1.5 79.6873 1.5Z" fill="#002D84" stroke="#003183" stroke-width="3"/>
<rect width="3.19142" height="35.3677" rx="1.59571" transform="matrix(1 -0.000715877 0.000705127 1 122.313 40.7363)" fill="white"/>
<rect width="3.19142" height="3.08568" rx="1.54284" transform="matrix(1 -0.000715877 0.000705127 1 122.325 35.375)" fill="white"/>
<path fill-rule="evenodd" clip-rule="evenodd" d="M31.9695 64.0614V19.6172C31.9695 18.5126 32.8649 17.6172 33.9695 17.6172H68.6967C69.4605 17.6172 70.1955 17.9085 70.7519 18.4318L80.1714 27.29C80.7278 27.8133 81.4628 28.1046 82.2266 28.1046H128.106C129.21 28.1046 130.106 29 130.106 30.1046V100.018L34.9433 97.771L31.9695 64.0614ZM79.5497 70.0537C85.2981 70.0537 89.9581 65.3583 89.9581 59.5663C89.9581 53.7742 85.2981 49.0789 79.5497 49.0789C73.8013 49.0789 69.1414 53.7742 69.1414 59.5663C69.1414 65.3583 73.8013 70.0537 79.5497 70.0537Z" fill="url(#paint0_linear_701_88381)"/>
<path d="M98.4471 64.0605H4.33721C2.63048 64.0605 1.70797 66.0608 2.81598 67.359L30.7953 100.14C31.5416 101.014 32.6281 101.526 33.7776 101.543L127.345 102.95C129.037 102.975 129.994 101.019 128.935 99.6992L101.568 65.5587C100.809 64.6117 99.6609 64.0605 98.4471 64.0605Z" fill="url(#paint1_linear_701_88381)"/>
<path d="M81.9246 93.2811L74.1727 83.6678C73.6452 83.0136 74.1108 82.04 74.9511 82.04H101.642C102.247 82.04 102.819 82.3138 103.199 82.7846L110.951 92.3979C111.478 93.0521 111.013 94.0257 110.172 94.0257H83.4815C82.8767 94.0257 82.3043 93.7519 81.9246 93.2811Z" fill="url(#paint2_linear_701_88381)"/>
<rect x="60.2214" y="85.0361" width="7.43456" height="2.9964" rx="1.4982" fill="url(#paint3_linear_701_88381)"/>
<rect x="55.7605" y="89.5312" width="11.8953" height="2.9964" rx="1.4982" fill="url(#paint4_linear_701_88381)"/>
<ellipse cx="126.387" cy="99.2682" rx="15.6126" ry="15.7311" fill="url(#paint5_linear_701_88381)"/>
<line x1="1.5" y1="-1.5" x2="14.9256" y2="-1.5" transform="matrix(-0.704427 -0.709776 0.704427 -0.709776 133.51 103.396)" stroke="white" stroke-width="3" stroke-linecap="round"/>
<line x1="1.5" y1="-1.5" x2="14.9256" y2="-1.5" transform="matrix(-0.704427 0.709776 -0.704427 -0.709776 130.673 91.7363)" stroke="white" stroke-width="3" stroke-linecap="round"/>
<rect x="40.1472" y="8.98926" width="2.97382" height="7.49101" rx="1.48691" fill="#003183"/>
<defs>
<linearGradient id="paint0_linear_701_88381" x1="115.237" y1="28.1192" x2="74.6926" y2="83.2606" gradientUnits="userSpaceOnUse">
<stop stop-color="#5193FF"/>
<stop offset="1" stop-color="#045FF2"/>
</linearGradient>
<linearGradient id="paint1_linear_701_88381" x1="34.9431" y1="100.017" x2="96.8251" y2="70.4195" gradientUnits="userSpaceOnUse">
<stop stop-color="#FFC00E"/>
<stop offset="1" stop-color="#FECE48"/>
</linearGradient>
<linearGradient id="paint2_linear_701_88381" x1="92.5617" y1="82.04" x2="92.5617" y2="94.0257" gradientUnits="userSpaceOnUse">
<stop stop-color="#176CF7"/>
<stop offset="1" stop-color="#0C36C1"/>
</linearGradient>
<linearGradient id="paint3_linear_701_88381" x1="60.2214" y1="88.0325" x2="66.9226" y2="85.8157" gradientUnits="userSpaceOnUse">
<stop stop-color="#0060FF"/>
<stop offset="1" stop-color="#3581FF"/>
</linearGradient>
<linearGradient id="paint4_linear_701_88381" x1="55.017" y1="94.0259" x2="63.2161" y2="90.3271" gradientUnits="userSpaceOnUse">
<stop stop-color="#0060FF"/>
<stop offset="1" stop-color="#3581FF"/>
</linearGradient>
<linearGradient id="paint5_linear_701_88381" x1="136.145" y1="86.2483" x2="116.866" y2="111.531" gradientUnits="userSpaceOnUse">
<stop stop-color="#FF4E4E"/>
<stop offset="1" stop-color="#F71717"/>
</linearGradient>
</defs>
</svg>
