<svg width="16" height="16" viewBox="0 0 16 16" fill="none" xmlns="http://www.w3.org/2000/svg">
<path d="M10.2223 11.2038C11.1436 11.2038 11.9158 11.8331 12.1377 12.6849H14.6657C14.9417 12.685 15.1657 12.9088 15.1657 13.1849C15.1657 13.461 14.9417 13.6848 14.6657 13.6849H12.1377C11.916 14.5369 11.1437 15.1667 10.2223 15.1667C9.30102 15.1666 8.52934 14.5368 8.30761 13.6849H1.33365C1.05751 13.6849 0.833643 13.461 0.833649 13.1849C0.833674 12.9088 1.05752 12.6849 1.33365 12.6849H8.30761C8.52946 11.8332 9.30115 11.2039 10.2223 11.2038ZM10.2223 12.2038C9.68046 12.2039 9.2413 12.643 9.2412 13.1849C9.2412 13.7268 9.6804 14.1666 10.2223 14.1667C10.7603 14.1667 11.1963 13.7336 11.2028 13.1973V13.1719C11.1957 12.636 10.7599 12.2038 10.2223 12.2038ZM5.03677 6.01888C5.95806 6.01888 6.7303 6.64817 6.95214 7.5H14.6663L14.7178 7.5026C14.9698 7.5282 15.1662 7.7412 15.1663 8C15.1663 8.25887 14.9699 8.47178 14.7178 8.4974L14.6663 8.5H6.95214C6.73038 9.35194 5.95814 9.98177 5.03677 9.98177C4.11555 9.98162 3.34379 9.35184 3.12206 8.5H1.33365C1.05751 8.5 0.833658 8.27614 0.833649 8C0.83375 7.72395 1.05757 7.50001 1.33365 7.5H3.12206C3.34387 6.64827 4.11563 6.01903 5.03677 6.01888ZM5.03677 7.01888C4.49496 7.01905 4.05572 7.45816 4.05565 8C4.05565 8.54189 4.49492 8.9816 5.03677 8.98177C5.57877 8.98177 6.01854 8.542 6.01854 8C6.01848 7.45805 5.57873 7.01888 5.03677 7.01888ZM9.48143 0.833984C10.4026 0.834077 11.1743 1.46342 11.3961 2.3151L14.6663 2.31576C14.9425 2.31576 15.1663 2.53961 15.1663 2.81576C15.1662 3.09175 14.9424 3.31576 14.6663 3.31576L11.3961 3.3151C11.1744 4.16703 10.4027 4.79678 9.48143 4.79687C8.55995 4.79687 7.78707 4.16721 7.56542 3.3151L1.33365 3.31576L1.28222 3.31315C1.03033 3.28743 0.833812 3.0744 0.833649 2.81576C0.833646 2.53961 1.05751 2.31576 1.33365 2.31576L7.56542 2.3151C7.78724 1.46325 8.56013 0.833984 9.48143 0.833984ZM9.48143 1.83398C8.93952 1.83398 8.4998 2.27322 8.49966 2.8151C8.49966 3.3571 8.93943 3.79687 9.48143 3.79687C10.0233 3.79676 10.4626 3.35704 10.4626 2.8151C10.4624 2.27329 10.0233 1.83409 9.48143 1.83398Z" fill="currentColor"/>
</svg>
