<svg width="17" height="16" viewBox="0 0 17 16" fill="none" xmlns="http://www.w3.org/2000/svg">
<path fill-rule="evenodd" clip-rule="evenodd" d="M5.83594 2.66634L6.7026 1.58301C6.82927 1.42501 7.0206 1.33301 7.22327 1.33301H9.7826C9.98527 1.33301 10.1766 1.42501 10.3033 1.58301L11.1693 2.66634V2.66634V3.33301C11.1693 3.70101 10.8706 3.99967 10.5026 3.99967H6.5026C6.1346 3.99967 5.83594 3.70101 5.83594 3.33301V2.66634V2.66634H5.83594Z" stroke="#7B7B7B" stroke-linecap="round" stroke-linejoin="round"/>
<path d="M5.83594 11.3333H7.16927" stroke="#7B7B7B" stroke-linecap="round" stroke-linejoin="round"/>
<path d="M5.83594 5.99935H11.1693" stroke="#7B7B7B" stroke-linecap="round" stroke-linejoin="round"/>
<path d="M5.83594 8.66634H8.5026" stroke="#7B7B7B" stroke-linecap="round" stroke-linejoin="round"/>
<path d="M10.738 13.9993H4.5013C3.76464 13.9993 3.16797 13.4027 3.16797 12.666V3.99935C3.16797 3.26268 3.76464 2.66602 4.5013 2.66602H5.83464" stroke="#7B7B7B" stroke-linecap="round" stroke-linejoin="round"/>
<path d="M11.168 2.66602H12.5013C13.238 2.66602 13.8346 3.26268 13.8346 3.99935V9.69068" stroke="#7B7B7B" stroke-linecap="round" stroke-linejoin="round"/>
<path d="M13.6871 11.4072L12.2057 12.8886L11.3164 11.9999" stroke="#7B7B7B" stroke-linecap="round" stroke-linejoin="round"/>
<path d="M12.5026 14.6663C11.0299 14.6663 9.83594 13.4723 9.83594 11.9997C9.83594 10.527 11.0299 9.33301 12.5026 9.33301C13.9759 9.33301 15.1693 10.527 15.1693 11.9997C15.1693 13.4723 13.9759 14.6663 12.5026 14.6663" stroke="#7B7B7B" stroke-linecap="round" stroke-linejoin="round"/>
</svg>
