<svg width="17" height="16" viewBox="0 0 17 16" fill="none" xmlns="http://www.w3.org/2000/svg">
<path fill-rule="evenodd" clip-rule="evenodd" d="M6.16797 2.66634L7.03464 1.58301C7.1613 1.42501 7.35264 1.33301 7.5553 1.33301H10.1146C10.3173 1.33301 10.5086 1.42501 10.6353 1.58301L11.5013 2.66634V2.66634V3.33301C11.5013 3.70101 11.2026 3.99967 10.8346 3.99967H6.83464C6.46664 3.99967 6.16797 3.70101 6.16797 3.33301V2.66634V2.66634H6.16797Z" stroke="#7B7B7B" stroke-linecap="round" stroke-linejoin="round"/>
<path d="M7.278 6.22168L6.16667 7.33301L5.5 6.66635" stroke="#7B7B7B" stroke-linecap="round" stroke-linejoin="round"/>
<path d="M9.5 11.9993H11.5" stroke="#7B7B7B" stroke-linecap="round" stroke-linejoin="round"/>
<path d="M9.5 6.66634H11.5" stroke="#7B7B7B" stroke-linecap="round" stroke-linejoin="round"/>
<path d="M7.278 8.88867L6.16667 10L5.5 9.33334" stroke="#7B7B7B" stroke-linecap="round" stroke-linejoin="round"/>
<path d="M9.5 9.33333H11.5" stroke="#7B7B7B" stroke-linecap="round" stroke-linejoin="round"/>
<path d="M11.5 2.66602H12.8333C13.57 2.66602 14.1667 3.26268 14.1667 3.99935V13.3327C14.1667 14.0694 13.57 14.666 12.8333 14.666H4.83333C4.09667 14.666 3.5 14.0694 3.5 13.3327V3.99935C3.5 3.26268 4.09667 2.66602 4.83333 2.66602H6.16667" stroke="#7B7B7B" stroke-linecap="round" stroke-linejoin="round"/>
</svg>
