<svg width="17" height="16" viewBox="0 0 17 16" fill="none" xmlns="http://www.w3.org/2000/svg">
<path d="M10.8854 11.5026C11.1373 11.5284 11.3339 11.7412 11.3339 12C11.3339 12.2587 11.1373 12.4716 10.8854 12.4974L10.834 12.5H8.83399C8.55786 12.5 8.33402 12.2761 8.334 12C8.334 11.7239 8.55785 11.5 8.83399 11.5H10.834L10.8854 11.5026ZM6.25851 8.53516C6.45377 8.3399 6.77027 8.3399 6.96553 8.53516C7.16075 8.73042 7.16077 9.04694 6.96553 9.24219L5.85422 10.3535C5.76046 10.4473 5.6333 10.5 5.50071 10.5C5.36812 10.5 5.24096 10.4473 5.1472 10.3535L4.48054 9.68685L4.44604 9.64909C4.28584 9.4527 4.29748 9.16289 4.48054 8.97982C4.66361 8.79675 4.95342 8.78511 5.1498 8.94531L5.18756 8.97982L5.50071 9.29297L6.25851 8.53516ZM10.8854 8.83594C11.1373 8.86171 11.3339 9.07457 11.3339 9.33333C11.3339 9.59208 11.1373 9.80497 10.8854 9.83073L10.834 9.83333H8.83399C8.55786 9.83333 8.33402 9.60946 8.334 9.33333C8.334 9.05719 8.55785 8.83333 8.83399 8.83333H10.834L10.8854 8.83594ZM6.25851 5.86849C6.45377 5.67323 6.77027 5.67323 6.96553 5.86849C7.16075 6.06376 7.16077 6.38027 6.96553 6.57552L5.85422 7.68685C5.76046 7.78061 5.6333 7.83332 5.50071 7.83333C5.36812 7.83333 5.24096 7.78059 5.1472 7.68685L4.48054 7.02018L4.44604 6.98242C4.28584 6.78604 4.29748 6.49622 4.48054 6.31315C4.66361 6.13009 4.95342 6.11844 5.1498 6.27865L5.18756 6.31315L5.50071 6.6263L6.25851 5.86849ZM10.8854 6.16927C11.1373 6.19504 11.3339 6.40791 11.3339 6.66667C11.3339 6.92542 11.1373 7.1383 10.8854 7.16406L10.834 7.16667H8.83399C8.55786 7.16667 8.33402 6.94279 8.334 6.66667C8.334 6.39053 8.55785 6.16667 8.83399 6.16667H10.834L10.8854 6.16927Z" fill="#7B7B7B"/>
<path fill-rule="evenodd" clip-rule="evenodd" d="M9.44727 0.833313C9.80185 0.833313 10.1366 0.994605 10.3581 1.27081L11.0749 2.16665H12.1673C13.1801 2.16665 14.0007 2.98717 14.0007 3.99998V13.3333C14.0007 14.3461 13.1801 15.1666 12.1673 15.1666H4.16732C3.15451 15.1666 2.33398 14.3461 2.33398 13.3333V3.99998C2.33398 2.98717 3.15451 2.16665 4.16732 2.16665H5.25977L5.97656 1.27081L6.0651 1.17251C6.28238 0.956551 6.57769 0.833313 6.88802 0.833313H9.44727ZM4.16732 3.16665C3.70679 3.16665 3.33398 3.53946 3.33398 3.99998V13.3333C3.33398 13.7938 3.70679 14.1666 4.16732 14.1666H12.1673C12.6278 14.1666 13.0007 13.7938 13.0007 13.3333V3.99998C13.0007 3.53946 12.6278 3.16665 12.1673 3.16665H11.334V3.33331C11.334 3.97746 10.8115 4.49998 10.1673 4.49998H6.16732C5.52318 4.49998 5.00065 3.97746 5.00065 3.33331V3.16665H4.16732ZM6.88802 1.83331C6.83745 1.83331 6.78906 1.85562 6.75716 1.89516L6.75781 1.89581L6.00065 2.84178V3.33331C6.00065 3.42517 6.07546 3.49998 6.16732 3.49998H10.1673C10.2592 3.49998 10.334 3.42517 10.334 3.33331V2.84178L9.57747 1.89581C9.54557 1.85648 9.4977 1.83331 9.44727 1.83331H6.88802Z" fill="#7B7B7B"/>
</svg>