<svg width="56" height="16" viewBox="0 0 56 16" fill="none" xmlns="http://www.w3.org/2000/svg">
<rect width="56" height="16" rx="4" fill="#F1F1F1"/>
<path fill-rule="evenodd" clip-rule="evenodd" d="M25.1423 5.33329L25.1436 5.33329L25.1423 5.99994L25.1423 5.33329ZM10.637 5.33329C10.637 6.06793 10.0449 6.66658 9.31829 6.66658C8.5917 6.66658 7.99962 6.06793 7.99962 5.33329C7.99962 4.59732 8.5917 4.00001 9.31829 4.00001C10.0449 4.00001 10.637 4.59732 10.637 5.33329ZM10.637 10.6664C10.637 11.4011 10.0449 11.9997 9.31829 11.9997C8.5917 11.9997 7.99962 11.4011 7.99962 10.6664C7.99962 9.93046 8.5917 9.33315 9.31829 9.33315C10.0449 9.33315 10.637 9.93046 10.637 10.6664ZM15.9116 5.33328C15.9116 6.06792 15.3195 6.66657 14.5929 6.66657C13.8664 6.66657 13.2743 6.06792 13.2743 5.33328C13.2743 4.59731 13.8664 4 14.5929 4C15.3195 4 15.9116 4.59731 15.9116 5.33328ZM15.9116 10.6664C15.9116 11.4011 15.3195 11.9997 14.5929 11.9997C13.8664 11.9997 13.2743 11.4011 13.2743 10.6664C13.2743 9.93045 13.8664 9.33314 14.5929 9.33314C15.3195 9.33314 15.9116 9.93045 15.9116 10.6664ZM21.1863 5.33328C21.1863 6.06792 20.5942 6.66657 19.8676 6.66657C19.141 6.66657 18.549 6.06792 18.549 5.33328C18.549 4.59731 19.141 4 19.8676 4C20.5942 4 21.1863 4.59731 21.1863 5.33328ZM21.1863 10.6664C21.1863 11.4011 20.5942 11.9997 19.8676 11.9997C19.141 11.9997 18.549 11.4011 18.549 10.6664C18.549 9.93045 19.141 9.33314 19.8676 9.33314C20.5942 9.33314 21.1863 9.93045 21.1863 10.6664ZM26.4609 5.33328C26.4609 6.06792 25.8689 6.66657 25.1423 6.66657C24.4157 6.66657 23.8236 6.06792 23.8236 5.33328C23.8236 4.59731 24.4157 4 25.1423 4C25.8689 4 26.4609 4.59732 26.4609 5.33328ZM26.4609 10.6658C26.4609 11.4004 25.8689 11.999 25.1423 11.999C24.4157 11.999 23.8236 11.4004 23.8236 10.6658C23.8236 9.93113 24.4157 9.33247 25.1423 9.33247C25.8689 9.33247 26.4609 9.93114 26.4609 10.6658Z" fill="black"/>
<path fill-rule="evenodd" clip-rule="evenodd" d="M46.6813 5.33329L46.6827 5.33329L46.6813 5.99994L46.6813 5.33329ZM32.176 5.33329C32.176 6.06793 31.5839 6.66658 30.8574 6.66658C30.1308 6.66658 29.5387 6.06793 29.5387 5.33329C29.5387 4.59732 30.1308 4.00001 30.8574 4.00001C31.5839 4.00001 32.176 4.59732 32.176 5.33329ZM32.176 10.6664C32.176 11.4011 31.5839 11.9997 30.8574 11.9997C30.1308 11.9997 29.5387 11.4011 29.5387 10.6664C29.5387 9.93046 30.1308 9.33315 30.8574 9.33315C31.5839 9.33315 32.176 9.93046 32.176 10.6664ZM37.4507 5.33328C37.4507 6.06792 36.8586 6.66657 36.132 6.66657C35.4054 6.66657 34.8133 6.06792 34.8133 5.33328C34.8133 4.59731 35.4054 4 36.132 4C36.8586 4 37.4507 4.59731 37.4507 5.33328ZM37.4507 10.6664C37.4507 11.4011 36.8586 11.9997 36.132 11.9997C35.4054 11.9997 34.8133 11.4011 34.8133 10.6664C34.8133 9.93045 35.4054 9.33314 36.132 9.33314C36.8586 9.33314 37.4507 9.93045 37.4507 10.6664ZM42.7254 5.33328C42.7254 6.06792 42.1333 6.66657 41.4067 6.66657C40.6801 6.66657 40.088 6.06792 40.088 5.33328C40.088 4.59731 40.6801 4 41.4067 4C42.1333 4 42.7254 4.59731 42.7254 5.33328ZM42.7254 10.6664C42.7254 11.4011 42.1333 11.9997 41.4067 11.9997C40.6801 11.9997 40.088 11.4011 40.088 10.6664C40.088 9.93045 40.6801 9.33314 41.4067 9.33314C42.1333 9.33314 42.7254 9.93045 42.7254 10.6664ZM48 5.33328C48 6.06792 47.4079 6.66657 46.6813 6.66657C45.9547 6.66657 45.3627 6.06792 45.3627 5.33328C45.3627 4.59731 45.9547 4 46.6813 4C47.4079 4 48 4.59732 48 5.33328ZM48 10.6658C48 11.4004 47.4079 11.999 46.6813 11.999C45.9547 11.999 45.3627 11.4004 45.3627 10.6658C45.3627 9.93113 45.9547 9.33247 46.6813 9.33247C47.4079 9.33247 48 9.93114 48 10.6658Z" fill="black"/>
</svg>
