<svg width="12" height="12" viewBox="0 0 12 12" fill="none" xmlns="http://www.w3.org/2000/svg">
<path d="M5.5 5.5L6.5 6.5" stroke="#461B02" stroke-width="0.8" stroke-linecap="round"/>
<path d="M6.5 5.5L5.5 6.5" stroke="#461B02" stroke-width="0.8" stroke-linecap="round"/>
<path d="M7.5 5.5L8.5 6.5" stroke="#461B02" stroke-width="0.8" stroke-linecap="round"/>
<path d="M8.5 5.5L7.5 6.5" stroke="#461B02" stroke-width="0.8" stroke-linecap="round"/>
<path d="M3.5 5.5L4.5 6.5" stroke="#461B02" stroke-width="0.8" stroke-linecap="round"/>
<path d="M4.5 5.5L3.5 6.5" stroke="#461B02" stroke-width="0.8" stroke-linecap="round"/>
<path d="M3.5 3.5H3C2.44772 3.5 2 3.94772 2 4.5V7.5C2 8.05228 2.44772 8.5 3 8.5H3.5" stroke="#461B02" stroke-width="0.8" stroke-linecap="round"/>
<path d="M8.5 3.5H9C9.55228 3.5 10 3.94772 10 4.5V7.5C10 8.05228 9.55228 8.5 9 8.5H8.5" stroke="#461B02" stroke-width="0.8" stroke-linecap="round"/>
</svg>
