<svg width="16" height="16" viewBox="0 0 16 16" fill="none" xmlns="http://www.w3.org/2000/svg">
<path fill-rule="evenodd" clip-rule="evenodd" d="M8.13315 6.97005C8.80036 7.0038 9.4334 7.28471 9.90789 7.76042C10.4139 8.26783 10.6983 8.95587 10.6989 9.67318V9.68099C10.5526 13.2608 5.448 13.2624 5.29917 9.68164V9.67318L5.30242 9.53906C5.33599 8.87051 5.61575 8.23617 6.09018 7.76042C6.59632 7.25298 7.28304 6.96743 7.99904 6.9668L8.13315 6.97005ZM8.94826 8.06641C7.86849 7.44764 6.20876 7.98386 6.13706 9.67708C6.13868 10.1708 6.33519 10.6438 6.68328 10.9928C7.03234 11.3428 7.50562 11.5398 7.99904 11.5404L8.18263 11.5306C8.60862 11.4878 9.0093 11.2991 9.31479 10.9928C9.6629 10.6438 9.85874 10.1708 9.86036 9.67708C9.84432 9.29836 9.74806 8.9779 9.59734 8.71484L8.5726 9.73372L8.57195 9.73438C8.52901 9.7767 8.47804 9.81002 8.42221 9.83268C8.36639 9.85534 8.30667 9.86688 8.24643 9.86654H8.23927C8.15298 9.863 8.06904 9.83531 7.99774 9.78646C7.92646 9.73758 7.87051 9.66932 7.83628 9.58984C7.80202 9.51025 7.79123 9.42216 7.80503 9.33659C7.81885 9.2512 7.85647 9.17148 7.91375 9.10677L7.91766 9.10221L7.92221 9.09831L8.94826 8.06641Z" fill="currentColor"/>
<path fill-rule="evenodd" clip-rule="evenodd" d="M14.1305 1.9668C14.2448 1.96682 14.3541 2.01228 14.4346 2.0931C14.515 2.174 14.5602 2.28384 14.5602 2.39779V2.39909C14.5562 2.93645 14.3422 3.45108 13.9639 3.83138C13.5856 4.21161 13.0734 4.42689 12.5381 4.43099H10.8207V5.04297H12.0309C12.6061 5.04182 13.1614 5.25491 13.5889 5.64128C13.9629 5.97933 14.216 6.42881 14.3135 6.92057L14.3454 7.13411V7.13607L14.8604 12.6927C14.8774 12.862 14.8585 13.0329 14.8057 13.1947C14.7526 13.357 14.6661 13.5068 14.5518 13.6335C14.4375 13.76 14.2981 13.8614 14.1423 13.9303C13.9867 13.9991 13.8182 14.0333 13.6481 14.0326L2.34344 14.0332C2.17359 14.0322 2.00543 13.9958 1.8506 13.9258C1.69585 13.8558 1.5576 13.7538 1.44435 13.627C1.3311 13.5001 1.24552 13.3507 1.19305 13.1888C1.14059 13.0269 1.12181 12.8556 1.13901 12.6862L1.65398 7.13867V7.13672L1.68589 6.92318C1.78288 6.43086 2.03571 5.9805 2.40984 5.64193C2.83738 5.2551 3.39288 5.04188 3.96844 5.04297H5.17872V4.43099H3.46128C2.92595 4.42689 2.41374 4.21161 2.0355 3.83138C1.65722 3.45108 1.44314 2.93645 1.43914 2.39909V2.39779L1.4476 2.31315C1.46406 2.23058 1.5045 2.15372 1.56479 2.0931C1.64526 2.01228 1.75462 1.96682 1.86883 1.9668H14.1305ZM3.82846 5.91732C3.51514 5.94565 3.21743 6.07517 2.98146 6.28841C2.71195 6.53206 2.54184 6.86823 2.50425 7.23112L1.99708 12.7708L1.99643 12.7747C1.9908 12.8249 1.9961 12.8758 2.01141 12.9238C2.02673 12.9719 2.0515 13.0166 2.08497 13.054C2.11844 13.0914 2.15982 13.121 2.20542 13.1413C2.25097 13.1615 2.30023 13.1715 2.34995 13.1712H13.6507L13.723 13.1647C13.7466 13.1598 13.7698 13.1519 13.792 13.1419C13.8364 13.1219 13.8764 13.0923 13.9085 13.0553L14.0589 13.1868L13.9124 13.0508C13.9459 13.0146 13.9717 12.9715 13.9873 12.9245C14.0028 12.8776 14.0081 12.8278 14.0029 12.7786L14.0023 12.776L13.4854 7.22656C13.4467 6.86506 13.2764 6.53036 13.0075 6.28776C12.738 6.04462 12.3888 5.91048 12.027 5.91146H3.96323L3.82846 5.91732ZM6.0381 5.04297H9.96128V4.43099H6.0381V5.04297ZM2.3825 2.82878C2.45285 3.00748 2.56548 3.16748 2.71323 3.29297C2.9231 3.47114 3.18887 3.56876 3.46323 3.56901H12.5361C12.8102 3.56659 13.075 3.46818 13.2848 3.29036C13.4323 3.16537 13.5453 3.00644 13.6169 2.82878H2.3825Z" fill="currentColor"/>
</svg>
