<svg width="16" height="16" viewBox="0 0 16 16" fill="none" xmlns="http://www.w3.org/2000/svg">
<path d="M10.6667 6.16659C10.9427 6.16676 11.1667 6.39055 11.1667 6.66659C11.1667 7.50636 10.8327 8.31167 10.2389 8.90552C9.68223 9.46222 8.93951 9.79047 8.1569 9.82935L8 9.83325C7.16022 9.83325 6.35492 9.49928 5.76107 8.90552C5.1672 8.31165 4.83333 7.50644 4.83333 6.66659C4.83333 6.39044 5.05719 6.16659 5.33333 6.16659C5.60933 6.16676 5.83333 6.39055 5.83333 6.66659C5.83333 7.24122 6.06177 7.79216 6.4681 8.19849C6.87441 8.60471 7.42544 8.83325 8 8.83325L8.10742 8.83065C8.64283 8.80401 9.15104 8.57935 9.5319 8.19849C9.93813 7.79217 10.1667 7.24114 10.1667 6.66659C10.1667 6.39044 10.3905 6.16659 10.6667 6.16659Z" fill="currentColor"/>
<path fill-rule="evenodd" clip-rule="evenodd" d="M12 0.833252C12.1573 0.833252 12.3053 0.907345 12.3997 1.03312L14.3997 3.69979C14.4023 3.7032 14.4038 3.70738 14.4062 3.71086C14.4137 3.72137 14.4204 3.73231 14.4271 3.74341C14.4351 3.7568 14.4425 3.77039 14.4492 3.78442C14.4557 3.79784 14.4615 3.8114 14.4668 3.82544C14.473 3.84189 14.478 3.85856 14.4824 3.87557C14.4856 3.88787 14.4893 3.90003 14.4915 3.91268C14.4924 3.91767 14.4934 3.92263 14.4941 3.92765C14.4976 3.95128 14.5 3.97534 14.5 3.99992V13.3333C14.5 13.8195 14.3067 14.2857 13.9629 14.6295C13.6191 14.9733 13.1529 15.1666 12.6667 15.1666H3.33333C2.8471 15.1666 2.38093 14.9733 2.03711 14.6295C1.69329 14.2857 1.5 13.8195 1.5 13.3333V3.99992C1.5 3.97538 1.50179 3.95125 1.50521 3.92765L1.50651 3.91984C1.50704 3.91656 1.50787 3.91334 1.50846 3.91007C1.5097 3.90326 1.51151 3.89661 1.51302 3.88989C1.51895 3.86372 1.52641 3.83795 1.53646 3.81307C1.53865 3.80764 1.5406 3.80213 1.54297 3.79679C1.55283 3.77464 1.56509 3.7536 1.57812 3.73299C1.58258 3.72596 1.587 3.71895 1.5918 3.71216C1.59467 3.70808 1.59726 3.70379 1.60026 3.69979L3.60026 1.03312L3.63802 0.9882C3.73178 0.889827 3.86241 0.833252 4 0.833252H12ZM2.5 13.3333C2.5 13.5543 2.58786 13.7662 2.74414 13.9224C2.90042 14.0787 3.11232 14.1666 3.33333 14.1666H12.6667C12.8877 14.1666 13.0996 14.0787 13.2559 13.9224C13.4121 13.7662 13.5 13.5543 13.5 13.3333V4.49992H2.5V13.3333ZM2.99935 3.49992H13.0007L11.75 1.83325H4.25L2.99935 3.49992Z" fill="currentColor"/>
</svg>
