<svg width="18" height="18" viewBox="0 0 18 18" fill="none" xmlns="http://www.w3.org/2000/svg">
<path fill-rule="evenodd" clip-rule="evenodd" d="M8.93979 1.55488L1.58229 7.43549C1.56589 7.45082 1.55279 7.46936 1.54382 7.48994C1.53484 7.51053 1.53017 7.53273 1.53009 7.55519L1.46979 14.8749C1.46979 15.2728 1.62785 15.6544 1.90922 15.9358C2.19058 16.2171 2.57218 16.3752 2.97009 16.3752L15.0301 16.4805C15.428 16.4805 15.8096 16.3224 16.091 16.0411C16.3723 15.7597 16.5304 15.3781 16.5304 14.9802V7.55519C16.5298 7.53203 16.524 7.50929 16.5136 7.4886C16.5032 7.46791 16.4883 7.44977 16.4701 7.43549L9.11979 1.55488C9.09504 1.53275 9.06299 1.52051 9.02979 1.52051C8.99658 1.52051 8.96454 1.53275 8.93979 1.55488Z" stroke="#176CF7" stroke-width="1.5" stroke-linecap="square" stroke-linejoin="round"/>
<path d="M11.7001 10.5752H6.30007C6.17581 10.5752 6.07507 10.6759 6.07507 10.8002V16.2002C6.07507 16.3245 6.17581 16.4252 6.30007 16.4252H11.7001C11.8243 16.4252 11.9251 16.3245 11.9251 16.2002V10.8002C11.9251 10.6759 11.8243 10.5752 11.7001 10.5752Z" stroke="#176CF7" stroke-width="1.5" stroke-linejoin="round"/>
</svg>
