<svg width="14" height="15" viewBox="0 0 14 15" fill="none" xmlns="http://www.w3.org/2000/svg">
<path d="M6.91041 12.75C5.98884 11.7663 5.17946 10.6912 4.496 9.54296C3.91276 8.67361 3.51156 7.70393 3.31475 6.68791C3.1616 6.08864 3.17343 5.46157 3.34909 4.868C3.52475 4.27443 3.85823 3.73467 4.31691 3.30152C5.01371 2.64491 5.94662 2.26888 6.92393 2.25069C7.90123 2.23251 8.84868 2.57355 9.57158 3.20374C10.2664 3.80849 10.6968 4.64259 10.7762 5.53862C10.7782 5.54082 10.7798 5.54339 10.7808 5.54617C10.7818 5.54895 10.7822 5.55189 10.782 5.55483C10.782 5.56544 10.782 5.57606 10.782 5.58723C10.7878 5.67216 10.7913 5.75485 10.7913 5.84033V5.85877C10.7913 5.92693 10.7913 5.99342 10.7843 6.06158C10.7607 6.43129 10.6766 6.79516 10.5352 7.13991C10.3417 7.69207 10.1149 8.23306 9.85625 8.76019C9.3483 9.80084 8.70694 10.7768 7.947 11.6655C7.62654 12.0481 7.28027 12.4108 6.91041 12.75ZM7.00025 4.26978C6.72287 4.27275 6.45261 4.35426 6.22349 4.50404C5.99437 4.65382 5.81663 4.86517 5.71266 5.1115C5.60868 5.35782 5.58311 5.6281 5.63917 5.88831C5.69523 6.14852 5.8304 6.38703 6.02768 6.57381C6.22496 6.7606 6.47553 6.88731 6.74783 6.93799C7.02014 6.98867 7.30201 6.96106 7.55797 6.85863C7.81392 6.7562 8.03252 6.58354 8.18624 6.36237C8.33996 6.1412 8.42193 5.88142 8.42183 5.61573C8.41921 5.25682 8.26807 4.91356 8.00157 4.66124C7.73508 4.40892 7.37497 4.26814 7.00025 4.26978Z" stroke="#555555" stroke-width="1.5"/>
</svg>
