<svg width="16" height="16" viewBox="0 0 16 16" fill="none" xmlns="http://www.w3.org/2000/svg">
<path d="M12.0646 5.43093L12.0568 5.34434C11.9726 4.39576 11.5168 3.50812 10.7736 2.86127V2.86062C9.997 2.18363 8.97501 1.8143 7.91746 1.83393C6.85999 1.8536 5.85365 2.26003 5.10561 2.96479L5.10626 2.96544C4.61582 3.42861 4.26137 4.00367 4.07501 4.63341C3.91197 5.18431 3.88198 5.762 3.98582 6.32351L4.03855 6.56309L4.04506 6.59174C4.25558 7.67851 4.67112 8.71983 5.27162 9.66466L5.39402 9.85281L5.40183 9.86388L5.40899 9.87559C6.1295 11.086 6.96937 12.2273 7.91615 13.2851C8.21149 12.9929 8.49282 12.6877 8.7586 12.3704L8.76186 12.3665L9.08933 11.9719C9.83697 11.0398 10.4765 10.0322 10.9962 8.96739V8.96674L11.2169 8.49994C11.4303 8.0305 11.6223 7.55239 11.7925 7.067L11.8016 7.04226C11.9516 6.67644 12.0409 6.29102 12.0659 5.89968L12.0665 5.88992L12.0678 5.88015C12.0732 5.82757 12.0737 5.77276 12.0737 5.68679V5.66466C12.0737 5.58739 12.0695 5.51092 12.0646 5.43093ZM7.99753 3.27013L8.10561 3.27208C8.64458 3.2952 9.16052 3.50868 9.55157 3.87885C9.96937 4.27442 10.2108 4.81746 10.215 5.38992V5.39317L10.2091 5.55203C10.1808 5.91977 10.0537 6.27376 9.84128 6.57937C9.59867 6.92844 9.25612 7.19836 8.85886 7.35737C8.46179 7.51627 8.02539 7.55873 7.60431 7.48041C7.18318 7.40203 6.79255 7.20549 6.48321 6.9127C6.1736 6.61957 5.9586 6.24206 5.86928 5.82742C5.78001 5.41279 5.82078 4.98227 5.98582 4.59109C6.15086 4.20009 6.43176 3.86778 6.7892 3.63406C7.14653 3.40046 7.56632 3.27473 7.99493 3.27013H7.99753ZM8.00339 4.27013C7.76358 4.27308 7.53159 4.34333 7.33673 4.47065C7.14149 4.59828 6.99348 4.77655 6.90769 4.97976C6.82202 5.18272 6.80126 5.40414 6.84714 5.61713C6.89309 5.83025 7.00438 6.02866 7.17071 6.18614C7.3373 6.34385 7.55153 6.45347 7.78725 6.49734C8.02296 6.54116 8.26684 6.51712 8.48712 6.42898C8.70732 6.34086 8.89209 6.19353 9.02032 6.00906C9.14769 5.8258 9.21437 5.61287 9.21498 5.39708L9.20847 5.2877C9.18035 5.03356 9.0611 4.79198 8.86407 4.60541C8.63843 4.39177 8.32939 4.269 8.00339 4.27013ZM13.0737 5.68679C13.0737 5.76055 13.0728 5.85835 13.0633 5.96283L13.0639 5.96349C13.0319 6.4639 12.9184 6.95607 12.7274 7.42182C12.4892 8.09785 12.2108 8.76001 11.894 9.40554L11.8947 9.40619C11.2639 10.6984 10.4674 11.9094 9.52488 13.0123L9.52553 13.013C9.12504 13.4911 8.69227 13.9444 8.22996 14.3684L7.86472 14.7031L7.52683 14.3417C6.39429 13.1328 5.39881 11.8116 4.55743 10.4003C3.82244 9.30213 3.31618 8.07686 3.06589 6.79226C2.86367 5.9874 2.88032 5.146 3.11602 4.34955C3.35345 3.5473 3.80331 2.82008 4.41941 2.23823L4.42006 2.23757L4.59845 2.07742C5.50883 1.29785 6.67951 0.85663 7.89858 0.833928C9.19883 0.809734 10.463 1.26336 11.4305 2.10671L11.6011 2.26231C12.4165 3.0424 12.9283 4.07391 13.0444 5.18354C13.0543 5.22092 13.0605 5.25931 13.062 5.29812V5.34304C13.0689 5.44815 13.0737 5.55401 13.0737 5.66466V5.68679Z" fill="#555555"/>
</svg>
