<svg width="20" height="20" viewBox="0 0 20 20" fill="none" xmlns="http://www.w3.org/2000/svg">
<path d="M10.0013 18.3334C9.51006 18.3334 9.11256 17.935 9.11256 17.4437V16.4945C8.55556 16.4179 8.01319 16.2688 7.49258 16.0488C6.72478 15.7244 6.03573 15.2594 5.44417 14.6678C4.85262 14.0763 4.38762 13.3863 4.06325 12.6194C3.82868 12.0638 3.67474 11.4844 3.60329 10.8888H2.55671C2.06546 10.8888 1.66797 10.4904 1.66797 10.0001C1.66797 9.50884 2.06546 9.11134 2.55671 9.11134H3.63374C3.71425 8.59349 3.85783 8.08893 4.06325 7.60292C4.38762 6.83512 4.85262 6.14607 5.44417 5.55451C6.03573 4.96202 6.72478 4.49796 7.49258 4.17265C8.01319 3.95261 8.55556 3.80348 9.11256 3.72688V2.55549C9.11256 2.06424 9.51006 1.66675 10.0013 1.66675C10.4916 1.66675 10.89 2.06424 10.89 2.55549V3.72692C11.4467 3.80353 11.9886 3.95265 12.5091 4.17265C13.2769 4.49796 13.9659 4.96202 14.5575 5.55451C15.15 6.14607 15.614 6.83512 15.9384 7.60292C16.1444 8.08893 16.2882 8.59349 16.3688 9.11134H17.445C17.9362 9.11134 18.3346 9.50884 18.3346 10.0001C18.3346 10.4904 17.9362 10.8888 17.445 10.8888H16.3993C16.3278 11.4844 16.1736 12.0638 15.9384 12.6194C15.614 13.3863 15.15 14.0763 14.5575 14.6678C13.9659 15.2594 13.2769 15.7244 12.5091 16.0488C11.9886 16.2688 11.4467 16.4179 10.89 16.4945V17.4437C10.89 17.935 10.4916 18.3334 10.0013 18.3334ZM10.0013 13.2222C10.4916 13.2222 10.89 13.6197 10.89 14.111V15.1445C13.034 14.7669 14.722 13.0481 15.0533 10.8888H14.1122C13.6209 10.8888 13.2235 10.4904 13.2235 10.0001C13.2235 9.50884 13.6209 9.11134 14.1122 9.11134H15.0143C14.6052 7.05673 12.9603 5.44227 10.89 5.07785V5.8892C10.89 6.3795 10.4916 6.77793 10.0013 6.77793C9.51006 6.77793 9.11256 6.3795 9.11256 5.8892V5.07785C7.04233 5.44227 5.39736 7.05673 4.98832 9.11134H5.89042C6.38072 9.11134 6.77916 9.50884 6.77916 10.0001C6.77916 10.4904 6.38072 10.8888 5.89042 10.8888H4.94925C5.28061 13.0481 6.96859 14.7669 9.11256 15.1445V14.111C9.11256 13.6197 9.51006 13.2222 10.0013 13.2222Z" fill="#176CF7"/>
</svg>
