<svg width="24" height="25" viewBox="0 0 24 25" fill="none" xmlns="http://www.w3.org/2000/svg">
<g clip-path="url(#clip0_7010_38545)">
<path d="M12 7.5C13.375 7.5 14.5 6.375 14.5 5C14.5 3.625 13.375 2.5 12 2.5C10.625 2.5 9.5 3.625 9.5 5C9.5 6.375 10.625 7.5 12 7.5ZM12 10C10.625 10 9.5 11.125 9.5 12.5C9.5 13.875 10.625 15 12 15C13.375 15 14.5 13.875 14.5 12.5C14.5 11.125 13.375 10 12 10ZM12 17.5C10.625 17.5 9.5 18.625 9.5 20C9.5 21.375 10.625 22.5 12 22.5C13.375 22.5 14.5 21.375 14.5 20C14.5 18.625 13.375 17.5 12 17.5Z" fill="#555555"/>
</g>
<defs>
<clipPath id="clip0_7010_38545">
<rect width="24" height="24" fill="white" transform="translate(0 0.5)"/>
</clipPath>
</defs>
</svg>
