<svg width="16" height="16" viewBox="0 0 16 16" fill="none" xmlns="http://www.w3.org/2000/svg">
<path fill-rule="evenodd" clip-rule="evenodd" d="M7.99996 9.2736C8.73634 9.2736 9.33329 8.67665 9.33329 7.94027C9.33329 7.20389 8.73634 6.60693 7.99996 6.60693C7.26358 6.60693 6.66663 7.20389 6.66663 7.94027C6.66663 8.67665 7.26358 9.2736 7.99996 9.2736Z" stroke="currentColor" stroke-linecap="round" stroke-linejoin="round"/>
<path fill-rule="evenodd" clip-rule="evenodd" d="M13.2027 12.1421V12.1421C11.5327 11.8081 9.81 11.8494 8.158 12.2621L8 12.3021C6.244 12.7408 4.41267 12.7848 2.638 12.4294L2.536 12.4088C2.224 12.3468 2 12.0728 2 11.7554V4.52943C2 4.10876 2.38467 3.79343 2.79733 3.87543V3.87543C4.46733 4.20943 6.19 4.1681 7.842 3.75543L8.15733 3.67676C9.80933 3.2641 11.5327 3.22276 13.202 3.55676L13.4633 3.60876C13.776 3.67143 14 3.94476 14 4.26276V11.4888C14 11.9094 13.6153 12.2248 13.2027 12.1421V12.1421Z" stroke="currentColor" stroke-linecap="round" stroke-linejoin="round"/>
<path d="M12 5.38406C11.556 5.34339 11.1113 5.32539 10.6666 5.33672" stroke="currentColor" stroke-linecap="round" stroke-linejoin="round"/>
<path d="M4 10.6196C4.444 10.6603 4.88867 10.6776 5.33333 10.667" stroke="currentColor" stroke-linecap="round" stroke-linejoin="round"/>
</svg>
