<svg width="33" height="32" viewBox="0 0 33 32" fill="none" xmlns="http://www.w3.org/2000/svg">
<g clip-path="url(#clip0_3087_247105)">
<path fill-rule="evenodd" clip-rule="evenodd" d="M8.17969 9.99268C7.90469 9.99268 7.67969 10.2167 7.67969 10.4927V20.9927C7.67969 21.8212 8.34969 22.4927 9.17969 22.4927H29.6797C30.5097 22.4927 31.1797 21.8212 31.1797 20.9927V15.9942C31.1797 14.4022 30.5497 12.8757 29.4197 11.7502C28.2947 10.6252 26.7697 9.99268 25.1797 9.99268C24.3047 9.99268 8.17969 9.99268 8.17969 9.99268Z" fill="url(#paint0_linear_3087_247105)"/>
<path d="M26.7583 24.5027C28.1393 24.5027 29.2588 23.3832 29.2588 22.0022C29.2588 20.6212 28.1393 19.5017 26.7583 19.5017C25.3773 19.5017 24.2578 20.6212 24.2578 22.0022C24.2578 23.3832 25.3773 24.5027 26.7583 24.5027Z" fill="#414141"/>
<path d="M26.7583 23.0027C27.3109 23.0027 27.7588 22.5548 27.7588 22.0022C27.7588 21.4496 27.3109 21.0017 26.7583 21.0017C26.2058 21.0017 25.7578 21.4496 25.7578 22.0022C25.7578 22.5548 26.2058 23.0027 26.7583 23.0027Z" fill="#B3B3B3"/>
<path d="M13.2583 24.5027C14.6393 24.5027 15.7588 23.3832 15.7588 22.0022C15.7588 20.6212 14.6393 19.5017 13.2583 19.5017C11.8773 19.5017 10.7578 20.6212 10.7578 22.0022C10.7578 23.3832 11.8773 24.5027 13.2583 24.5027Z" fill="#414141"/>
<path fill-rule="evenodd" clip-rule="evenodd" d="M25.6797 10.5156C26.9547 10.6321 28.1547 11.1911 29.0697 12.1041C30.0997 13.1356 30.6797 14.5351 30.6797 15.9941V16.4926H27.5397C27.0447 16.4926 26.5747 16.2966 26.2247 15.9481C25.8747 15.5991 25.6797 15.1261 25.6797 14.6331V10.5156Z" fill="url(#paint1_linear_3087_247105)"/>
<path fill-rule="evenodd" clip-rule="evenodd" d="M24.1797 8.99268C24.1797 8.59468 24.0197 8.21317 23.7397 7.93217C23.4597 7.65067 23.0797 7.49268 22.6797 7.49268C19.8797 7.49268 11.9797 7.49268 9.17969 7.49268C8.77969 7.49268 8.39969 7.65067 8.11969 7.93217C7.83969 8.21317 7.67969 8.59468 7.67969 8.99268V18.4927H23.6797C23.9547 18.4927 24.1797 18.2687 24.1797 17.9927V8.99268Z" fill="url(#paint2_linear_3087_247105)"/>
<path fill-rule="evenodd" clip-rule="evenodd" d="M25.6797 10.0137C27.0897 10.1317 28.4147 10.7437 29.4197 11.7502C30.5497 12.8757 31.1797 14.4022 31.1797 15.9942V16.4927H27.5397C27.0447 16.4927 26.5747 16.2967 26.2247 15.9482C25.8747 15.5992 25.6797 15.1262 25.6797 14.6332V10.0137Z" fill="url(#paint3_linear_3087_247105)"/>
<path d="M13.2583 23.0027C13.8109 23.0027 14.2588 22.5548 14.2588 22.0022C14.2588 21.4496 13.8109 21.0017 13.2583 21.0017C12.7058 21.0017 12.2578 21.4496 12.2578 22.0022C12.2578 22.5548 12.7058 23.0027 13.2583 23.0027Z" fill="#B3B3B3"/>
<path fill-rule="evenodd" clip-rule="evenodd" d="M8.28128 10.6146H1.14883C0.790906 10.6146 0.50042 10.2999 0.50042 9.91216C0.50042 9.52441 0.790906 9.20972 1.14883 9.20972H8.28128C8.6392 9.20972 8.92969 9.52441 8.92969 9.91216C8.92969 10.2999 8.6392 10.6146 8.28128 10.6146Z" fill="url(#paint4_linear_3087_247105)"/>
<path fill-rule="evenodd" clip-rule="evenodd" d="M8.43033 12.9561H3.18545C2.82355 12.9561 2.52984 12.6763 2.52984 12.3317C2.52984 11.987 2.82355 11.7073 3.18545 11.7073H8.43033C8.79222 11.7073 9.08594 11.987 9.08594 12.3317C9.08594 12.6763 8.79222 12.9561 8.43033 12.9561Z" fill="url(#paint5_linear_3087_247105)"/>
<path fill-rule="evenodd" clip-rule="evenodd" d="M8.2607 15.4536H4.91575C4.54659 15.4536 4.24676 15.1739 4.24676 14.8292C4.24676 14.4846 4.54659 14.2048 4.91575 14.2048H8.2607C8.62986 14.2048 8.92969 14.4846 8.92969 14.8292C8.92969 15.1739 8.62986 15.4536 8.2607 15.4536Z" fill="url(#paint6_linear_3087_247105)"/>
</g>
<defs>
<linearGradient id="paint0_linear_3087_247105" x1="13.9198" y1="21.5311" x2="26.6005" y2="18.1558" gradientUnits="userSpaceOnUse">
<stop stop-color="#FBC428"/>
<stop offset="1" stop-color="#FFDF84"/>
</linearGradient>
<linearGradient id="paint1_linear_3087_247105" x1="25.7768" y1="10.1529" x2="25.7768" y2="17.1162" gradientUnits="userSpaceOnUse">
<stop stop-color="#0060FF"/>
<stop offset="1" stop-color="#3581FF"/>
</linearGradient>
<linearGradient id="paint2_linear_3087_247105" x1="15.9297" y1="7.49268" x2="15.9297" y2="18.4927" gradientUnits="userSpaceOnUse">
<stop stop-color="#176CF7"/>
<stop offset="1" stop-color="#0C36C1"/>
</linearGradient>
<linearGradient id="paint3_linear_3087_247105" x1="25.7865" y1="9.62047" x2="25.7865" y2="17.1686" gradientUnits="userSpaceOnUse">
<stop stop-color="#0060FF"/>
<stop offset="1" stop-color="#3581FF"/>
</linearGradient>
<linearGradient id="paint4_linear_3087_247105" x1="6.69141" y1="10.5065" x2="3.86229" y2="8.1032" gradientUnits="userSpaceOnUse">
<stop stop-color="#FBC428"/>
<stop offset="1" stop-color="#FFDF84"/>
</linearGradient>
<linearGradient id="paint5_linear_3087_247105" x1="7.34505" y1="12.86" x2="4.90491" y2="11.0462" gradientUnits="userSpaceOnUse">
<stop stop-color="#FBC428"/>
<stop offset="1" stop-color="#FFDF84"/>
</linearGradient>
<linearGradient id="paint6_linear_3087_247105" x1="7.6862" y1="15.3576" x2="5.57529" y2="14.2368" gradientUnits="userSpaceOnUse">
<stop stop-color="#FBC428"/>
<stop offset="1" stop-color="#FFDF84"/>
</linearGradient>
<clipPath id="clip0_3087_247105">
<rect width="32" height="32" fill="white" transform="translate(0.5)"/>
</clipPath>
</defs>
</svg>
