<svg width="120" height="24" viewBox="0 0 120 24" fill="none" xmlns="http://www.w3.org/2000/svg">
<g clip-path="url(#clip0_4357_21886)">
<path d="M45.6572 11.8327C45.6572 14.1731 44.9605 16.4608 43.6553 18.4068C42.35 20.3526 40.4948 21.8693 38.3243 22.7648C36.1537 23.6604 33.7653 23.8947 31.4611 23.438C29.1569 22.9813 27.0403 21.8543 25.3791 20.1994C23.718 18.5444 22.5867 16.4359 22.1285 14.1406C21.6703 11.8452 21.9057 9.46597 22.8049 7.30385C23.7041 5.14172 25.2267 3.29376 27.1802 1.99368C29.1338 0.693605 31.4305 -0.000200947 33.7798 4.36568e-08C35.3397 4.36568e-08 36.8844 0.306062 38.3255 0.900711C39.7667 1.49536 41.0761 2.36695 42.1791 3.46572C43.2822 4.5645 44.1571 5.86892 44.754 7.30454C45.351 8.74015 45.6583 10.2788 45.6583 11.8327" fill="#176CF7"/>
<path d="M1.67404 6.02607C1.9501 6.02256 2.22247 6.08953 2.46517 6.22065C2.70786 6.35173 2.91279 6.54262 3.06039 6.77505C4.2288 6.13984 5.57277 5.90011 6.88985 6.09202C8.20689 6.28393 9.42565 6.89708 10.3625 7.83899C11.1881 6.99318 12.2458 6.40882 13.4033 6.15904C14.5607 5.90925 15.7664 6.00516 16.8694 6.43476C17.9723 6.86436 18.9236 7.60854 19.604 8.57413C20.2844 9.53976 20.6637 10.6839 20.6944 11.8632V17.3263C20.6808 17.7564 20.4973 18.1638 20.1838 18.4599C19.8703 18.756 19.4522 18.9168 19.0204 18.9075C18.808 18.9117 18.597 18.8741 18.3993 18.7968C18.2016 18.7195 18.0212 18.6041 17.8684 18.4572C17.7156 18.3103 17.5935 18.1348 17.509 17.9407C17.4244 17.7466 17.3792 17.5379 17.3759 17.3263V11.8642C17.3759 11.1551 17.0931 10.4751 16.5898 9.97365C16.0864 9.47224 15.4038 9.19056 14.6919 9.19056C13.9801 9.19056 13.2974 9.47224 12.7941 9.97365C12.2907 10.4751 12.008 11.1551 12.008 11.8642V17.3263C12.0046 17.5379 11.9594 17.7466 11.8749 17.9407C11.7904 18.1348 11.6682 18.3103 11.5155 18.4572C11.3627 18.6041 11.1822 18.7195 10.9845 18.7968C10.7869 18.8741 10.5758 18.9117 10.3635 18.9075C9.93127 18.9174 9.51262 18.7568 9.19872 18.4606C8.88482 18.1645 8.70107 17.7568 8.68744 17.3263V11.8642C8.68744 11.1551 8.40468 10.4751 7.90133 9.97365C7.39798 9.47224 6.71532 9.19056 6.00347 9.19056C5.29163 9.19056 4.60896 9.47224 4.10562 9.97365C3.60228 10.4751 3.31951 11.1551 3.31951 11.8642V17.3263C3.31619 17.5379 3.27097 17.7466 3.18645 17.9407C3.10193 18.1348 2.97978 18.3103 2.82698 18.4572C2.67419 18.6041 2.49378 18.7195 2.2961 18.7968C2.09842 18.8741 1.88737 18.9117 1.67506 18.9075C1.243 18.9171 0.824613 18.7564 0.510922 18.4602C0.19723 18.1642 0.013608 17.7566 0 17.3263V7.60933C0.0130813 7.17885 0.196332 6.77099 0.509861 6.47445C0.82339 6.17791 1.24181 6.01679 1.67404 6.02607Z" fill="#461B02"/>
<path d="M46.8672 12.4678C46.8778 11.6106 47.0581 10.7639 47.3977 9.97605C47.7373 9.1883 48.2294 8.4749 48.846 7.87679C49.4622 7.27868 50.1915 6.8075 50.9907 6.49028C51.7904 6.17307 52.6448 6.016 53.5052 6.0281C54.7154 6.02833 55.9024 6.35602 56.9402 6.97624C57.0695 6.68297 57.285 6.43554 57.5578 6.26634C57.8312 6.09714 58.149 6.01411 58.4701 6.0281C58.6828 6.0238 58.8941 6.06133 59.0919 6.13854C59.2893 6.21576 59.47 6.33114 59.6229 6.4781C59.7758 6.625 59.8981 6.80057 59.9829 6.9947C60.0672 7.18887 60.1126 7.39771 60.1158 7.60933V17.3263C60.1126 17.5379 60.0672 17.7467 59.9829 17.9409C59.8981 18.135 59.7758 18.3106 59.6229 18.4575C59.47 18.6045 59.2893 18.7199 59.0919 18.7971C58.8941 18.8743 58.6828 18.9118 58.4701 18.9075C58.149 18.9215 57.8312 18.8385 57.5578 18.6693C57.285 18.5001 57.0695 18.2526 56.9402 17.9594C55.9024 18.5797 54.7154 18.9074 53.5052 18.9075C52.6448 18.9196 51.7904 18.7625 50.9907 18.4453C50.1915 18.1281 49.4622 17.657 48.846 17.0588C48.2294 16.4607 47.7373 15.7474 47.3977 14.9596C47.0581 14.1718 46.8778 13.3251 46.8672 12.4678ZM50.186 12.4678C50.1776 13.1201 50.3643 13.7601 50.722 14.3066C51.0797 14.853 51.5921 15.2814 52.1944 15.5372C52.7972 15.7931 53.4621 15.8648 54.1056 15.7435C54.7492 15.6221 55.3418 15.3131 55.8088 14.8556C56.2754 14.3981 56.5955 13.8128 56.728 13.174C56.8601 12.5351 56.7989 11.8714 56.552 11.2672C56.3055 10.663 55.8839 10.1454 55.3413 9.78022C54.7983 9.415 54.1594 9.21862 53.5043 9.21594C53.072 9.21207 52.6429 9.29311 52.2422 9.45451C51.8414 9.61587 51.4763 9.85443 51.1682 10.1565C50.8601 10.4585 50.6145 10.8181 50.4459 11.2147C50.2777 11.6113 50.1892 12.0371 50.186 12.4678Z" fill="#461B02"/>
<path d="M62.3672 13.0715V3.95712C62.3806 3.52701 62.5641 3.11963 62.8778 2.82355C63.191 2.52746 63.6094 2.36658 64.0412 2.3759C64.2534 2.3716 64.4646 2.40913 64.6625 2.48635C64.8603 2.56358 65.041 2.67897 65.1939 2.82589C65.3468 2.97282 65.4691 3.14839 65.5534 3.34253C65.6382 3.53666 65.6832 3.74552 65.6864 3.95712V5.99972H67.7649C67.9798 5.99206 68.1944 6.02764 68.3955 6.10439C68.5961 6.1811 68.7795 6.29741 68.9348 6.4463C69.0895 6.59524 69.2127 6.77367 69.2971 6.97107C69.3809 7.16847 69.4245 7.38069 69.4245 7.59516C69.4245 7.8096 69.3809 8.02186 69.2971 8.21921C69.2127 8.41661 69.0895 8.59509 68.9348 8.74398C68.7795 8.89287 68.5961 9.00918 68.3955 9.08589C68.1944 9.16264 67.9798 9.19823 67.7649 9.19061H65.6864V13.0725C65.692 13.7771 65.9774 14.4507 66.4805 14.946C66.9837 15.4412 67.6634 15.7176 68.3704 15.7146H69.6112C69.828 15.7037 70.0453 15.7369 70.2492 15.8122C70.4531 15.8874 70.6393 16.0031 70.7968 16.1524C70.9544 16.3016 71.0799 16.4812 71.1656 16.6802C71.2514 16.8792 71.2954 17.0935 71.2954 17.3101C71.2954 17.5266 71.2514 17.741 71.1656 17.94C71.0799 18.139 70.9544 18.3186 70.7968 18.4678C70.6393 18.617 70.4531 18.7328 70.2492 18.8081C70.0453 18.8833 69.828 18.9165 69.6112 18.9055H68.3704C67.5916 18.9151 66.8188 18.7717 66.0955 18.4835C65.3723 18.1954 64.713 17.7681 64.1556 17.2261C63.5982 16.6842 63.1534 16.0382 62.8467 15.325C62.54 14.6118 62.3774 13.8453 62.3681 13.0695" fill="#461B02"/>
<path d="M67.4203 6.02808H58.3828V9.1712H67.4203V6.02808Z" fill="#461B02"/>
<path d="M27.7754 11.4465C27.7791 11.2313 27.8254 11.0189 27.9115 10.8215C27.9977 10.6241 28.122 10.4455 28.2775 10.2961C28.433 10.1466 28.6165 10.0291 28.8176 9.95027C29.0187 9.87144 29.2334 9.8329 29.4494 9.83682C29.664 9.83331 29.8771 9.87236 30.0764 9.9516C30.2757 10.0309 30.4572 10.1489 30.6103 10.2986C30.7634 10.4485 30.8851 10.6271 30.9683 10.8241C31.0515 11.0211 31.0945 11.2327 31.0949 11.4465V13.0724C31.0949 13.7815 31.3777 14.4616 31.881 14.963C32.3844 15.4644 33.067 15.7461 33.7789 15.7461C34.4907 15.7461 35.1734 15.4644 35.6767 14.963C36.1801 14.4616 36.4628 13.7815 36.4628 13.0724V11.4465C36.4665 11.2313 36.5128 11.0189 36.599 10.8215C36.6851 10.6241 36.8095 10.4455 36.965 10.2961C37.1204 10.1466 37.3039 10.0291 37.505 9.95027C37.7061 9.87144 37.9208 9.8329 38.1369 9.83682C38.3514 9.83345 38.5644 9.87259 38.7635 9.95193C38.9627 10.0313 39.1441 10.1492 39.2971 10.299C39.4501 10.4488 39.5717 10.6273 39.6548 10.8243C39.738 11.0213 39.781 11.2328 39.7813 11.4465V13.0724C39.7459 14.635 39.0979 16.1217 37.976 17.2144C36.8541 18.307 35.3474 18.9188 33.7784 18.9188C32.2094 18.9188 30.7026 18.307 29.5807 17.2144C28.4588 16.1217 27.8108 14.635 27.7754 13.0724V11.4465Z" fill="#FFC217"/>
<path d="M31.1213 7.42633C31.1213 7.75577 31.0233 8.07779 30.8396 8.35167C30.6558 8.62559 30.3947 8.83905 30.0892 8.9651C29.7837 9.09119 29.4475 9.12414 29.1232 9.0599C28.7988 8.99565 28.5009 8.83702 28.2671 8.60408C28.0332 8.37114 27.874 8.07437 27.8095 7.75125C27.745 7.42817 27.7781 7.09328 27.9046 6.78894C28.0312 6.4846 28.2455 6.22448 28.5204 6.04148C28.7954 5.85843 29.1187 5.76077 29.4493 5.76077C29.8928 5.76077 30.3181 5.93625 30.6316 6.24862C30.9452 6.56094 31.1213 6.98459 31.1213 7.42633Z" fill="#FFC217"/>
<path d="M39.7834 7.42633C39.7834 7.75577 39.6854 8.07779 39.5017 8.35167C39.3179 8.62559 39.0568 8.83905 38.7513 8.9651C38.4458 9.09119 38.1096 9.12414 37.7853 9.0599C37.4609 8.99565 37.163 8.83702 36.9292 8.60408C36.6953 8.37114 36.5361 8.07437 36.4716 7.75125C36.4071 7.42817 36.4402 7.09328 36.5667 6.78894C36.6933 6.4846 36.9076 6.22448 37.1825 6.04148C37.4575 5.85843 37.7808 5.76077 38.1114 5.76077C38.5549 5.76077 38.9802 5.93625 39.2937 6.24862C39.6073 6.56094 39.7834 6.98459 39.7834 7.42633Z" fill="#FFC217"/>
<path d="M78.7805 6C79.2207 6 79.6015 6.15988 79.9235 6.47958C80.2451 6.79929 80.4058 7.17789 80.4058 7.61538C80.4058 8.05288 80.2451 8.43148 79.9235 8.75118C79.6015 9.07089 79.2207 9.23077 78.7805 9.23077C78.3232 9.23077 77.8997 9.31491 77.5101 9.48318C77.1209 9.65146 76.7734 9.88703 76.4685 10.1899C76.1808 10.476 75.9524 10.8125 75.7828 11.1995C75.6137 11.5866 75.5289 12.0072 75.5289 12.4615V17.3077C75.5289 17.7452 75.3682 18.1238 75.0461 18.4435C74.7246 18.7632 74.3433 18.9231 73.9031 18.9231C73.463 18.9231 73.0817 18.7632 72.7601 18.4435C72.4381 18.1238 72.2773 17.7452 72.2773 17.3077V12.4615C72.2773 11.5697 72.4469 10.7368 72.7856 9.96272C73.1243 9.17188 73.5899 8.48197 74.1825 7.89305C74.7751 7.30408 75.4613 6.84134 76.2401 6.50483C77.0361 6.16828 77.8826 6 78.7805 6Z" fill="#461B02"/>
<path d="M80.1855 12.4615C80.1855 11.5697 80.3551 10.7368 80.6938 9.96272C81.0325 9.17188 81.4981 8.48197 82.0907 7.89305C82.6838 7.30408 83.3695 6.84134 84.1483 6.50483C84.9443 6.16828 85.7913 6 86.6887 6C87.5862 6 88.4243 6.16828 89.2036 6.50483C89.9996 6.84134 90.6937 7.30408 91.2862 7.89305C91.8793 8.48197 92.3449 9.17188 92.6836 9.96272C93.0223 10.7368 93.1914 11.5697 93.1914 12.4615V17.3077C93.1914 17.7452 93.0306 18.1238 92.7091 18.4435C92.3871 18.7632 92.0062 18.9231 91.5656 18.9231C91.2269 18.9231 90.9225 18.8389 90.6515 18.6707C90.3971 18.4856 90.2025 18.25 90.0672 17.964C89.5761 18.2668 89.0424 18.5024 88.4669 18.6707C87.9082 18.8389 87.3151 18.9231 86.6887 18.9231C85.7913 18.9231 84.9443 18.7548 84.1483 18.4183C83.3695 18.0817 82.6838 17.619 82.0907 17.03C81.4981 16.4411 81.0325 15.7596 80.6938 14.9856C80.3551 14.1947 80.1855 13.3534 80.1855 12.4615ZM83.4371 12.4615C83.4371 12.9159 83.5219 13.3365 83.691 13.7236C83.8606 14.1106 84.089 14.4555 84.3772 14.7584C84.6821 15.0445 85.0291 15.2716 85.4188 15.4399C85.8079 15.6082 86.2314 15.6923 86.6887 15.6923C87.146 15.6923 87.5695 15.6082 87.9587 15.4399C88.3483 15.2716 88.687 15.0445 88.9747 14.7584C89.2796 14.4555 89.5168 14.1106 89.6859 13.7236C89.8555 13.3365 89.9403 12.9159 89.9403 12.4615C89.9403 12.0072 89.8555 11.5866 89.6859 11.1995C89.5168 10.8125 89.2796 10.476 88.9747 10.1899C88.687 9.88703 88.3483 9.65146 87.9587 9.48318C87.5695 9.31491 87.146 9.23077 86.6887 9.23077C86.2314 9.23077 85.8079 9.31491 85.4188 9.48318C85.0291 9.65146 84.6821 9.88703 84.3772 10.1899C84.089 10.476 83.8606 10.8125 83.691 11.1995C83.5219 11.5866 83.4371 12.0072 83.4371 12.4615Z" fill="#461B02"/>
<path d="M107.412 17.3077C107.412 17.7452 107.251 18.1238 106.929 18.4435C106.608 18.7632 106.226 18.9231 105.786 18.9231C105.346 18.9231 104.965 18.7632 104.643 18.4435C104.321 18.1238 104.161 17.7452 104.161 17.3077V12.4615C104.161 12.0072 104.076 11.5866 103.907 11.1995C103.737 10.8125 103.5 10.476 103.195 10.1899C102.907 9.88703 102.569 9.65146 102.179 9.48318C101.79 9.31491 101.366 9.23077 100.909 9.23077C100.452 9.23077 100.029 9.31491 99.639 9.48318C99.2493 9.65146 98.9023 9.88703 98.5974 10.1899C98.3097 10.476 98.0808 10.8125 97.9117 11.1995C97.7422 11.5866 97.6578 12.0072 97.6578 12.4615V17.3077C97.6578 17.7452 97.4966 18.1238 97.1751 18.4435C96.853 18.7632 96.4722 18.9231 96.032 18.9231C95.5914 18.9231 95.2106 18.7632 94.8886 18.4435C94.567 18.1238 94.4062 17.7452 94.4062 17.3077V12.4615C94.4062 11.5697 94.5754 10.7368 94.914 9.96272C95.2527 9.17188 95.7184 8.48197 96.3114 7.89305C96.904 7.30408 97.5897 6.84134 98.369 6.50483C99.165 6.16828 100.012 6 100.909 6C101.806 6 102.645 6.16828 103.424 6.50483C104.22 6.84134 104.914 7.30408 105.507 7.89305C106.1 8.48197 106.565 9.17188 106.904 9.96272C107.243 10.7368 107.412 11.5697 107.412 12.4615V17.3077Z" fill="#461B02"/>
<path d="M115.935 15.6923C116.172 15.6923 116.367 15.6166 116.519 15.4651C116.672 15.3137 116.748 15.1202 116.748 14.8846C116.748 14.649 116.672 14.4555 116.519 14.3041C116.367 14.1527 116.172 14.0769 115.935 14.0769H112.683C112.125 14.0769 111.6 13.976 111.109 13.774C110.617 13.5553 110.186 13.2608 109.813 12.8906C109.441 12.5204 109.144 12.0913 108.924 11.6034C108.721 11.1154 108.619 10.5937 108.619 10.0385C108.619 9.48318 108.721 8.96155 108.924 8.47357C109.144 7.98558 109.441 7.55649 109.813 7.18629C110.186 6.81609 110.617 6.53003 111.109 6.32811C111.6 6.10938 112.125 6 112.683 6H117.561C118.001 6 118.382 6.15988 118.704 6.47958C119.025 6.79929 119.187 7.17789 119.187 7.61538C119.187 8.05288 119.025 8.43148 118.704 8.75118C118.382 9.07089 118.001 9.23077 117.561 9.23077H112.683C112.446 9.23077 112.252 9.30651 112.099 9.45794C111.947 9.60937 111.871 9.80289 111.871 10.0385C111.871 10.274 111.947 10.4676 112.099 10.619C112.252 10.7704 112.446 10.8462 112.683 10.8462H115.935C116.494 10.8462 117.019 10.9555 117.51 11.1743C118.001 11.3762 118.433 11.6622 118.805 12.0324C119.178 12.4026 119.466 12.8317 119.669 13.3197C119.889 13.8077 119.999 14.3293 119.999 14.8846C119.999 15.4399 119.889 15.9615 119.669 16.4495C119.466 16.9375 119.178 17.3666 118.805 17.7368C118.433 18.107 118.001 18.4014 117.51 18.6202C117.019 18.8221 116.494 18.9231 115.935 18.9231H110.245C109.804 18.9231 109.423 18.7632 109.102 18.4435C108.78 18.1238 108.619 17.7452 108.619 17.3077C108.619 16.8702 108.78 16.4916 109.102 16.1719C109.423 15.8522 109.804 15.6923 110.245 15.6923H115.935Z" fill="#461B02"/>
</g>
<defs>
<clipPath id="clip0_4357_21886">
<rect width="120" height="24" fill="white"/>
</clipPath>
</defs>
</svg>
