<svg width="33" height="32" viewBox="0 0 33 32" fill="none" xmlns="http://www.w3.org/2000/svg">
<path fill-rule="evenodd" clip-rule="evenodd" d="M18.4526 6.14893H1.90625V16.7233C1.90625 17.3491 2.41016 17.8562 3.03441 17.8562H17.3244C17.9487 17.8562 18.4526 17.3491 18.4526 16.7233V6.14893Z" fill="#CDE0FF"/>
<path fill-rule="evenodd" clip-rule="evenodd" d="M8.25391 14.5947C7.97891 14.5947 7.75391 14.8187 7.75391 15.0947V25.5947C7.75391 26.4232 8.42391 27.0947 9.25391 27.0947H29.7539C30.5839 27.0947 31.2539 26.4232 31.2539 25.5947V20.5962C31.2539 19.0042 30.6239 17.4777 29.4939 16.3522C28.3689 15.2272 26.8439 14.5947 25.2539 14.5947C24.3789 14.5947 8.25391 14.5947 8.25391 14.5947Z" fill="url(#paint0_linear_5003_120367)"/>
<path d="M26.8325 29.105C28.2135 29.105 29.333 27.9855 29.333 26.6045C29.333 25.2235 28.2135 24.104 26.8325 24.104C25.4515 24.104 24.332 25.2235 24.332 26.6045C24.332 27.9855 25.4515 29.105 26.8325 29.105Z" fill="#414141"/>
<path d="M26.8325 27.605C27.3851 27.605 27.833 27.1571 27.833 26.6045C27.833 26.0519 27.3851 25.604 26.8325 25.604C26.28 25.604 25.832 26.0519 25.832 26.6045C25.832 27.1571 26.28 27.605 26.8325 27.605Z" fill="#B3B3B3"/>
<path d="M13.3325 29.105C14.7135 29.105 15.833 27.9855 15.833 26.6045C15.833 25.2235 14.7135 24.104 13.3325 24.104C11.9515 24.104 10.832 25.2235 10.832 26.6045C10.832 27.9855 11.9515 29.105 13.3325 29.105Z" fill="#414141"/>
<path fill-rule="evenodd" clip-rule="evenodd" d="M25.7539 15.1182C27.0289 15.2347 28.2289 15.7937 29.1439 16.7067C30.1739 17.7382 30.7539 19.1377 30.7539 20.5967V21.0952H27.6139C27.1189 21.0952 26.6489 20.8992 26.2989 20.5507C25.9489 20.2017 25.7539 19.7287 25.7539 19.2357V15.1182Z" fill="url(#paint1_linear_5003_120367)"/>
<path fill-rule="evenodd" clip-rule="evenodd" d="M24.2539 13.5947C24.2539 13.1967 24.0939 12.8152 23.8139 12.5342C23.5339 12.2527 23.1539 12.0947 22.7539 12.0947C19.9539 12.0947 12.0539 12.0947 9.25391 12.0947C8.85391 12.0947 8.47391 12.2527 8.19391 12.5342C7.91391 12.8152 7.75391 13.1967 7.75391 13.5947V23.0947H23.7539C24.0289 23.0947 24.2539 22.8707 24.2539 22.5947V13.5947Z" fill="url(#paint2_linear_5003_120367)"/>
<path fill-rule="evenodd" clip-rule="evenodd" d="M25.7539 14.6157C27.1639 14.7337 28.4889 15.3457 29.4939 16.3522C30.6239 17.4777 31.2539 19.0042 31.2539 20.5962V21.0947H27.6139C27.1189 21.0947 26.6489 20.8987 26.2989 20.5502C25.9489 20.2012 25.7539 19.7282 25.7539 19.2352V14.6157Z" fill="url(#paint3_linear_5003_120367)"/>
<path d="M13.3325 27.605C13.8851 27.605 14.333 27.1571 14.333 26.6045C14.333 26.0519 13.8851 25.604 13.3325 25.604C12.78 25.604 12.332 26.0519 12.332 26.6045C12.332 27.1571 12.78 27.605 13.3325 27.605Z" fill="#B3B3B3"/>
<path fill-rule="evenodd" clip-rule="evenodd" d="M10.2539 16.0947H15.7539C16.0299 16.0947 16.2539 15.8707 16.2539 15.5947C16.2539 15.3187 16.0299 15.0947 15.7539 15.0947H10.2539C9.97791 15.0947 9.75391 15.3187 9.75391 15.5947C9.75391 15.8707 9.97791 16.0947 10.2539 16.0947Z" fill="url(#paint4_linear_5003_120367)"/>
<path fill-rule="evenodd" clip-rule="evenodd" d="M10.1873 18.0947H14.1858C14.4617 18.0947 14.6856 17.8707 14.6856 17.5947C14.6856 17.3187 14.4617 17.0947 14.1858 17.0947H10.1873C9.91142 17.0947 9.6875 17.3187 9.6875 17.5947C9.6875 17.8707 9.91142 18.0947 10.1873 18.0947Z" fill="url(#paint5_linear_5003_120367)"/>
<path fill-rule="evenodd" clip-rule="evenodd" d="M10.356 20.0947H12.8585C13.1347 20.0947 13.359 19.8707 13.359 19.5947C13.359 19.3187 13.1347 19.0947 12.8585 19.0947H10.356C10.0798 19.0947 9.85547 19.3187 9.85547 19.5947C9.85547 19.8707 10.0798 20.0947 10.356 20.0947Z" fill="url(#paint6_linear_5003_120367)"/>
<path fill-rule="evenodd" clip-rule="evenodd" d="M18.4526 6.61753V5.10115C18.4526 4.47299 17.9487 3.96387 17.3244 3.96387H3.03441C2.41016 3.96387 1.90625 4.47299 1.90625 5.10115V6.61753H18.4526Z" fill="url(#paint7_linear_5003_120367)"/>
<path fill-rule="evenodd" clip-rule="evenodd" d="M4.7283 5.44244C4.87802 5.44244 5.02134 5.38309 5.12741 5.27736C5.23311 5.17121 5.29255 5.02786 5.29255 4.87825C5.29255 4.51801 5.29255 3.734 5.29255 3.37376C5.29255 3.22414 5.23311 3.0808 5.12741 2.97465C5.02134 2.86891 4.87802 2.80957 4.7283 2.80957C4.57859 2.80957 4.43527 2.86891 4.3292 2.97465C4.22349 3.0808 4.16406 3.22414 4.16406 3.37376V4.87825C4.16406 5.02786 4.22349 5.17121 4.3292 5.27736C4.43527 5.38309 4.57859 5.44244 4.7283 5.44244Z" fill="#461B02"/>
<path fill-rule="evenodd" clip-rule="evenodd" d="M5.29022 9.20496H6.04255C6.25019 9.20496 6.41871 9.03644 6.41871 8.8288C6.41871 8.62116 6.25019 8.45264 6.04255 8.45264H5.29022C5.08258 8.45264 4.91406 8.62116 4.91406 8.8288C4.91406 9.03644 5.08258 9.20496 5.29022 9.20496Z" fill="#515151"/>
<path fill-rule="evenodd" clip-rule="evenodd" d="M5.29022 11.0853H6.04255C6.25019 11.0853 6.41871 10.9168 6.41871 10.7092C6.41871 10.5015 6.25019 10.333 6.04255 10.333H5.29022C5.08258 10.333 4.91406 10.5015 4.91406 10.7092C4.91406 10.9168 5.08258 11.0853 5.29022 11.0853Z" fill="#515151"/>
<path fill-rule="evenodd" clip-rule="evenodd" d="M5.29022 12.9662H6.04255C6.25019 12.9662 6.41871 12.7977 6.41871 12.59C6.41871 12.3824 6.25019 12.2139 6.04255 12.2139H5.29022C5.08258 12.2139 4.91406 12.3824 4.91406 12.59C4.91406 12.7977 5.08258 12.9662 5.29022 12.9662Z" fill="#515151"/>
<path fill-rule="evenodd" clip-rule="evenodd" d="M5.29022 14.847H6.04255C6.25019 14.847 6.41871 14.6785 6.41871 14.4709C6.41871 14.2632 6.25019 14.0947 6.04255 14.0947H5.29022C5.08258 14.0947 4.91406 14.2632 4.91406 14.4709C4.91406 14.6785 5.08258 14.847 5.29022 14.847Z" fill="#515151"/>
<path fill-rule="evenodd" clip-rule="evenodd" d="M8.30194 9.20496H9.05427C9.26191 9.20496 9.43043 9.03644 9.43043 8.8288C9.43043 8.62116 9.26191 8.45264 9.05427 8.45264H8.30194C8.0943 8.45264 7.92578 8.62116 7.92578 8.8288C7.92578 9.03644 8.0943 9.20496 8.30194 9.20496Z" fill="#515151"/>
<path fill-rule="evenodd" clip-rule="evenodd" d="M8.30194 11.0853H9.05427C9.26191 11.0853 9.43043 10.9168 9.43043 10.7092C9.43043 10.5015 9.26191 10.333 9.05427 10.333H8.30194C8.0943 10.333 7.92578 10.5015 7.92578 10.7092C7.92578 10.9168 8.0943 11.0853 8.30194 11.0853Z" fill="#515151"/>
<path fill-rule="evenodd" clip-rule="evenodd" d="M11.3098 9.20496H12.0621C12.2697 9.20496 12.4382 9.03644 12.4382 8.8288C12.4382 8.62116 12.2697 8.45264 12.0621 8.45264H11.3098C11.1021 8.45264 10.9336 8.62116 10.9336 8.8288C10.9336 9.03644 11.1021 9.20496 11.3098 9.20496Z" fill="#414141"/>
<path fill-rule="evenodd" clip-rule="evenodd" d="M14.3215 9.20496H15.0738C15.2814 9.20496 15.45 9.03644 15.45 8.8288C15.45 8.62116 15.2814 8.45264 15.0738 8.45264H14.3215C14.1138 8.45264 13.9453 8.62116 13.9453 8.8288C13.9453 9.03644 14.1138 9.20496 14.3215 9.20496Z" fill="#414141"/>
<path fill-rule="evenodd" clip-rule="evenodd" d="M11.3098 11.0853H12.0621C12.2697 11.0853 12.4382 10.9168 12.4382 10.7092C12.4382 10.5015 12.2697 10.333 12.0621 10.333H11.3098C11.1021 10.333 10.9336 10.5015 10.9336 10.7092C10.9336 10.9168 11.1021 11.0853 11.3098 11.0853Z" fill="#414141"/>
<path fill-rule="evenodd" clip-rule="evenodd" d="M14.3215 11.0853H15.0738C15.2814 11.0853 15.45 10.9168 15.45 10.7092C15.45 10.5015 15.2814 10.333 15.0738 10.333H14.3215C14.1138 10.333 13.9453 10.5015 13.9453 10.7092C13.9453 10.9168 14.1138 11.0853 14.3215 11.0853Z" fill="#414141"/>
<path fill-rule="evenodd" clip-rule="evenodd" d="M15.6346 5.44244C15.7843 5.44244 15.9276 5.38309 16.0337 5.27736C16.1394 5.17121 16.1988 5.02786 16.1988 4.87825C16.1988 4.51801 16.1988 3.734 16.1988 3.37376C16.1988 3.22414 16.1394 3.0808 16.0337 2.97465C15.9276 2.86891 15.7843 2.80957 15.6346 2.80957C15.4848 2.80957 15.3415 2.86891 15.2354 2.97465C15.1297 3.0808 15.0703 3.22414 15.0703 3.37376V4.87825C15.0703 5.02786 15.1297 5.17121 15.2354 5.27736C15.3415 5.38309 15.4848 5.44244 15.6346 5.44244Z" fill="#461B02"/>
<defs>
<linearGradient id="paint0_linear_5003_120367" x1="13.994" y1="26.1332" x2="26.6748" y2="22.7579" gradientUnits="userSpaceOnUse">
<stop stop-color="#FBC428"/>
<stop offset="1" stop-color="#FFDF84"/>
</linearGradient>
<linearGradient id="paint1_linear_5003_120367" x1="25.851" y1="14.7554" x2="25.851" y2="21.7187" gradientUnits="userSpaceOnUse">
<stop stop-color="#0060FF"/>
<stop offset="1" stop-color="#3581FF"/>
</linearGradient>
<linearGradient id="paint2_linear_5003_120367" x1="16.0039" y1="12.0947" x2="16.0039" y2="23.0947" gradientUnits="userSpaceOnUse">
<stop stop-color="#176CF7"/>
<stop offset="1" stop-color="#0C36C1"/>
</linearGradient>
<linearGradient id="paint3_linear_5003_120367" x1="25.8607" y1="14.2225" x2="25.8607" y2="21.7706" gradientUnits="userSpaceOnUse">
<stop stop-color="#0060FF"/>
<stop offset="1" stop-color="#3581FF"/>
</linearGradient>
<linearGradient id="paint4_linear_5003_120367" x1="11.4799" y1="16.0178" x2="13.5135" y2="14.1463" gradientUnits="userSpaceOnUse">
<stop stop-color="#FBC428"/>
<stop offset="1" stop-color="#FFDF84"/>
</linearGradient>
<linearGradient id="paint5_linear_5003_120367" x1="11.0147" y1="18.0178" x2="12.9391" y2="16.656" gradientUnits="userSpaceOnUse">
<stop stop-color="#FBC428"/>
<stop offset="1" stop-color="#FFDF84"/>
</linearGradient>
<linearGradient id="paint6_linear_5003_120367" x1="10.7858" y1="20.0178" x2="12.4105" y2="19.2119" gradientUnits="userSpaceOnUse">
<stop stop-color="#FBC428"/>
<stop offset="1" stop-color="#FFDF84"/>
</linearGradient>
<linearGradient id="paint7_linear_5003_120367" x1="7.83536" y1="7.22991" x2="9.28423" y2="2.31721" gradientUnits="userSpaceOnUse">
<stop stop-color="#FFBC00"/>
<stop offset="1" stop-color="#FFD14F"/>
</linearGradient>
</defs>
</svg>
