<svg width="24" height="25" viewBox="0 0 24 25" fill="none" xmlns="http://www.w3.org/2000/svg">
<path d="M16.0005 4.5H18.0005C18.5309 4.5 19.0396 4.71071 19.4147 5.08579C19.7898 5.46086 20.0005 5.96957 20.0005 6.5V20.5C20.0005 21.0304 19.7898 21.5391 19.4147 21.9142C19.0396 22.2893 18.5309 22.5 18.0005 22.5H6.00049C5.47006 22.5 4.96135 22.2893 4.58627 21.9142C4.2112 21.5391 4.00049 21.0304 4.00049 20.5V6.5C4.00049 5.96957 4.2112 5.46086 4.58627 5.08579C4.96135 4.71071 5.47006 4.5 6.00049 4.5H8.00049" fill="white"/>
<path d="M8 10.5L16 10.5M8 14.5L16 14.5M8 18.5L12 18.5" stroke="#C22716" stroke-width="1.5" stroke-linecap="round" stroke-linejoin="round"/>
<path d="M14.9995 2.5H8.99951C8.44723 2.5 7.99951 2.94772 7.99951 3.5V5.5C7.99951 6.05228 8.44723 6.5 8.99951 6.5H14.9995C15.5518 6.5 15.9995 6.05228 15.9995 5.5V3.5C15.9995 2.94772 15.5518 2.5 14.9995 2.5Z" stroke="white" stroke-width="1.5" stroke-linecap="round" stroke-linejoin="round"/>
</svg>
