<svg width="17" height="16" viewBox="0 0 17 16" fill="none" xmlns="http://www.w3.org/2000/svg">
<path fill-rule="evenodd" clip-rule="evenodd" d="M6.2595 2.14651L14.3009 6.29691C14.5212 6.41061 14.6602 6.63714 14.6619 6.88507C14.6636 7.133 14.5276 7.36139 14.3089 7.47807L11.3076 9.07873C10.921 9.28496 10.4578 9.28821 10.0684 9.0874L2.02907 4.93568C1.80875 4.82198 1.66968 4.59544 1.66798 4.34752C1.66632 4.09959 1.80231 3.87119 2.02107 3.75452L5.02232 2.15385C5.40858 1.94874 5.87084 1.946 6.2595 2.14651Z" stroke="#7B7B7B" stroke-linecap="round" stroke-linejoin="round"/>
<path fill-rule="evenodd" clip-rule="evenodd" d="M10.0704 2.14651L2.02907 6.29691C1.80875 6.41061 1.66968 6.63714 1.66798 6.88507C1.66632 7.133 1.80231 7.36139 2.02107 7.47807L5.02232 9.07873C5.40889 9.28496 5.87209 9.28821 6.2615 9.0874L14.3009 4.93568C14.5212 4.82198 14.6602 4.59544 14.6619 4.34752C14.6636 4.09959 14.5276 3.87119 14.3089 3.75452L11.3076 2.15385C10.9214 1.94874 10.4591 1.946 10.0704 2.14651Z" stroke="#7B7B7B" stroke-linecap="round" stroke-linejoin="round"/>
<path d="M12.9003 8.22754V10.8526C12.9003 11.3453 12.6288 11.798 12.194 12.0298L8.79259 13.8459C8.40033 14.055 7.92966 14.055 7.5374 13.8459L4.13598 12.0298C3.70121 11.798 3.42969 11.3453 3.42969 10.8526V8.22754" stroke="#7B7B7B" stroke-linecap="round" stroke-linejoin="round"/>
<path d="M8.1616 14.0033V8.10352" stroke="#7B7B7B" stroke-linecap="round" stroke-linejoin="round"/>
</svg>
