<svg width="20" height="21" viewBox="0 0 20 21" fill="none" xmlns="http://www.w3.org/2000/svg">
<path d="M9.98697 1.9707C12.5443 1.9707 14.6022 3.98342 14.6022 6.46777V7.74512C16.0374 8.19309 17.0835 9.49224 17.0836 11.0439V15.1582C17.0836 17.0794 15.4906 18.6376 13.527 18.6377H6.47427C4.50974 18.6377 2.91666 17.0794 2.91666 15.1582V11.0439C2.91685 9.49224 3.96378 8.19309 5.3981 7.74512V6.46777C5.40657 3.98353 7.4637 1.97087 9.98697 1.9707ZM9.99576 11.458C9.58942 11.458 9.25961 11.7804 9.25943 12.1777V14.0166C9.2595 14.4223 9.58934 14.7451 9.99576 14.7451C10.4106 14.7451 10.7408 14.4223 10.7409 14.0166V12.1777C10.7407 11.7804 10.4106 11.458 9.99576 11.458ZM10.0045 3.41992C8.28558 3.41992 6.88802 4.77838 6.87955 6.45117V7.56543H13.1208V6.46777C13.1208 4.7868 11.7234 3.42009 10.0045 3.41992Z" fill="#EC6300"/>
</svg>
