<svg width="16" height="16" viewBox="0 0 16 16" fill="none" xmlns="http://www.w3.org/2000/svg">
<path d="M11.9256 13.7993L13.5828 12.1411C13.7148 12.0119 13.8198 11.8576 13.8914 11.6872C13.9631 11.5168 14 11.3338 14 11.149C14 10.9641 13.9631 10.7812 13.8914 10.6108C13.8198 10.4404 13.7148 10.2861 13.5828 10.1568L12.6398 9.21325C12.511 9.08424 12.3581 8.98189 12.1897 8.91205C12.0214 8.84222 11.8409 8.80628 11.6587 8.80628C11.4765 8.80628 11.296 8.84222 11.1277 8.91205C10.9593 8.98189 10.8064 9.08424 10.6776 9.21325L10.0536 9.83074C8.44696 8.86736 7.10166 7.52358 6.13606 5.91765L6.76008 5.30016C6.88902 5.17129 6.9913 5.01825 7.06109 4.84979C7.13087 4.68134 7.16679 4.50077 7.16679 4.31842C7.16679 4.13606 7.13087 3.9555 7.06109 3.78704C6.9913 3.61859 6.88902 3.46555 6.76008 3.33668L5.83791 2.40697C5.70912 2.27795 5.55618 2.1756 5.38784 2.10577C5.21949 2.03594 5.03904 2 4.8568 2C4.67457 2 4.49412 2.03594 4.32577 2.10577C4.15743 2.1756 4.00449 2.27795 3.8757 2.40697L2.20469 4.06518C2.09112 4.17808 2.02009 4.32683 2.00366 4.48618C1.98723 4.64552 2.02641 4.80565 2.11456 4.93938C4.46766 8.4872 7.50647 11.528 11.052 13.8826C11.1849 13.9717 11.3444 14.012 11.5037 13.9969C11.6629 13.9817 11.812 13.9119 11.9256 13.7993Z" stroke="#461B02" stroke-linecap="round" stroke-linejoin="round"/>
</svg>
