<svg width="20" height="18" viewBox="0 0 20 18" fill="none" xmlns="http://www.w3.org/2000/svg">
<path fill-rule="evenodd" clip-rule="evenodd" d="M19 15V6C19 4.895 18.105 4 17 4H15L13.487 1.484C13.306 1.184 12.981 1 12.63 1H7.326C6.97 1 6.641 1.189 6.462 1.496L5 4H3C1.895 4 1 4.895 1 6V15C1 16.105 1.895 17 3 17H17C18.105 17 19 16.105 19 15ZM12.8785 12.8062C14.4355 11.2492 14.4355 8.72478 12.8785 7.16777C11.3215 5.61074 8.79705 5.61074 7.24003 7.16777C5.68301 8.72478 5.68301 11.2492 7.24003 12.8062C8.79705 14.3633 11.3215 14.3633 12.8785 12.8062Z" fill="#868686"/>
<path d="M15 4L14.3573 4.38651C14.4929 4.61205 14.7368 4.75 15 4.75V4ZM13.487 1.484L14.1297 1.09749L14.1292 1.09656L13.487 1.484ZM6.462 1.496L7.10968 1.87416L7.10991 1.87377L6.462 1.496ZM5 4V4.75C5.26664 4.75 5.51324 4.60843 5.64768 4.37816L5 4ZM12.8785 7.16777L12.3482 7.69809L12.3482 7.6981L12.8785 7.16777ZM12.8785 12.8062L12.3482 12.2759L12.3482 12.2759L12.8785 12.8062ZM7.24003 7.16777L7.77036 7.6981L7.24003 7.16777ZM7.24003 12.8062L7.77036 12.2759L7.77036 12.2759L7.24003 12.8062ZM19 6H18.25V15H19H19.75V6H19ZM17 4V4.75C17.6908 4.75 18.25 5.30921 18.25 6H19H19.75C19.75 4.48079 18.5192 3.25 17 3.25V4ZM15 4V4.75H17V4V3.25H15V4ZM13.487 1.484L12.8443 1.87051L14.3573 4.38651L15 4L15.6427 3.61349L14.1297 1.09749L13.487 1.484ZM12.63 1V1.75C12.7177 1.75 12.7993 1.79603 12.8448 1.87144L13.487 1.484L14.1292 1.09656C13.8127 0.571967 13.2443 0.25 12.63 0.25V1ZM7.326 1V1.75H12.63V1V0.25H7.326V1ZM6.462 1.496L7.10991 1.87377C7.15438 1.7975 7.23652 1.75 7.326 1.75V1V0.25C6.70348 0.25 6.12762 0.580499 5.81409 1.11823L6.462 1.496ZM5 4L5.64768 4.37816L7.10968 1.87416L6.462 1.496L5.81432 1.11784L4.35232 3.62184L5 4ZM3 4V4.75H5V4V3.25H3V4ZM1 6H1.75C1.75 5.30921 2.30921 4.75 3 4.75V4V3.25C1.48079 3.25 0.25 4.48079 0.25 6H1ZM1 15H1.75V6H1H0.25V15H1ZM3 17V16.25C2.30921 16.25 1.75 15.6908 1.75 15H1H0.25C0.25 16.5192 1.48079 17.75 3 17.75V17ZM17 17V16.25H3V17V17.75H17V17ZM19 15H18.25C18.25 15.6908 17.6908 16.25 17 16.25V17V17.75C18.5192 17.75 19.75 16.5192 19.75 15H19ZM12.8785 7.16777L12.3482 7.6981C13.6123 8.96222 13.6123 11.0118 12.3482 12.2759L12.8785 12.8062L13.4088 13.3366C15.2587 11.4867 15.2587 8.48735 13.4088 6.63743L12.8785 7.16777ZM7.24003 7.16777L7.77036 7.6981C9.03449 6.43397 11.084 6.43397 12.3482 7.69809L12.8785 7.16777L13.4088 6.63744C11.5589 4.78752 8.55961 4.78752 6.7097 6.63743L7.24003 7.16777ZM7.24003 12.8062L7.77036 12.2759C6.50623 11.0118 6.50623 8.96222 7.77036 7.6981L7.24003 7.16777L6.7097 6.63743C4.85979 8.48735 4.85979 11.4867 6.7097 13.3366L7.24003 12.8062ZM12.8785 12.8062L12.3482 12.2759C11.084 13.54 9.03449 13.54 7.77036 12.2759L7.24003 12.8062L6.7097 13.3366C8.55961 15.1865 11.5589 15.1865 13.4088 13.3366L12.8785 12.8062Z" fill="#868686"/>
</svg>
