<svg width="123" height="36" viewBox="0 0 123 36" fill="none" xmlns="http://www.w3.org/2000/svg">
<path d="M118.444 36H4.55556C2.05114 36 0 33.9739 0 31.5V4.5C0 2.02613 2.05114 3.33786e-06 4.55556 3.33786e-06H118.444C120.949 3.33786e-06 123 2.02613 123 4.5V31.5C123 33.9739 120.949 36 118.444 36Z" fill="black"/>
<path d="M118.444 0.721127C120.554 0.721127 122.27 2.4165 122.27 4.5V31.5C122.27 33.5835 120.554 35.2789 118.444 35.2789H4.55556C2.44633 35.2789 0.730027 33.5835 0.730027 31.5V4.5C0.730027 2.4165 2.44633 0.721127 4.55556 0.721127H118.444ZM118.444 3.33786e-06H4.55556C2.05114 3.33786e-06 0 2.02613 0 4.5V31.5C0 33.9739 2.05114 36 4.55556 36H118.444C120.949 36 123 33.9739 123 31.5V4.5C123 2.02613 120.949 3.33786e-06 118.444 3.33786e-06Z" fill="#A6A6A6"/>
<path d="M9.50651 6.78486C9.23887 7.06162 9.08398 7.49249 9.08398 8.05049V27.954C9.08398 28.512 9.23887 28.9429 9.50651 29.2196L9.57257 29.2804L20.8635 18.1316V17.8684L9.57257 6.71962L9.50651 6.78486Z" fill="url(#paint0_linear_1439_144176)"/>
<path d="M24.6228 21.8497L20.8633 18.1316V17.8684L24.6273 14.1502L24.7116 14.1986L29.1692 16.704C30.4413 17.415 30.4413 18.585 29.1692 19.3005L24.7116 21.8014L24.6228 21.8497Z" fill="url(#paint1_linear_1439_144176)"/>
<path d="M24.7112 21.8014L20.8629 18L9.50586 29.2196C9.92839 29.6584 10.6174 29.7112 11.401 29.2725L24.7112 21.8014Z" fill="url(#paint2_linear_1439_144176)"/>
<path d="M24.7112 14.1986L11.401 6.7275C10.6174 6.29325 9.92839 6.34613 9.50586 6.78488L20.8629 18L24.7112 14.1986Z" fill="url(#paint3_linear_1439_144176)"/>
<path d="M43.2017 9.21937C43.2017 9.97087 42.9739 10.5727 42.5252 11.0216C42.0093 11.5537 41.3373 11.8215 40.5139 11.8215C39.7269 11.8215 39.055 11.5492 38.5038 11.0126C37.9514 10.4681 37.6758 9.79987 37.6758 9C37.6758 8.20012 37.9514 7.53187 38.5038 6.99187C39.055 6.45075 39.7269 6.1785 40.5139 6.1785C40.9057 6.1785 41.2792 6.25837 41.6357 6.40687C41.991 6.5565 42.2803 6.759 42.4899 7.00875L42.0138 7.4835C41.6482 7.05712 41.1505 6.84675 40.5139 6.84675C39.9399 6.84675 39.4422 7.04475 39.0197 7.44412C38.6017 7.84462 38.3921 8.36325 38.3921 9C38.3921 9.63675 38.6017 10.1599 39.0197 10.5604C39.4422 10.9552 39.9399 11.1577 40.5139 11.1577C41.1232 11.1577 41.6357 10.9552 42.04 10.5559C42.3065 10.2915 42.458 9.927 42.4978 9.46125H40.5139V8.811H43.1607C43.1926 8.95162 43.2017 9.08775 43.2017 9.21937Z" fill="white" stroke="white" stroke-width="0.16" stroke-miterlimit="10"/>
<path d="M47.401 6.96487H44.9148V8.67487H47.1561V9.32512H44.9148V11.0351H47.401V11.6977H44.2109V6.30225H47.401V6.96487Z" fill="white" stroke="white" stroke-width="0.16" stroke-miterlimit="10"/>
<path d="M50.3636 11.6977H49.6597V6.96487H48.1348V6.30225H51.8897V6.96487H50.3636V11.6977Z" fill="white" stroke="white" stroke-width="0.16" stroke-miterlimit="10"/>
<path d="M54.6074 11.6977V6.30225H55.3101V11.6977H54.6074Z" fill="white" stroke="white" stroke-width="0.16" stroke-miterlimit="10"/>
<path d="M58.4261 11.6977H57.7279V6.96487H56.1973V6.30225H59.9567V6.96487H58.4261V11.6977Z" fill="white" stroke="white" stroke-width="0.16" stroke-miterlimit="10"/>
<path d="M67.0641 11.0036C66.5254 11.5492 65.858 11.8215 65.0619 11.8215C64.2613 11.8215 63.5939 11.5492 63.0552 11.0036C62.5176 10.4591 62.25 9.79087 62.25 9C62.25 8.20912 62.5176 7.54087 63.0552 6.99637C63.5939 6.45075 64.2613 6.1785 65.0619 6.1785C65.8534 6.1785 66.5208 6.45075 67.0595 7.00087C67.6016 7.54987 67.8693 8.21362 67.8693 9C67.8693 9.79087 67.6016 10.4591 67.0641 11.0036ZM63.5757 10.5514C63.9811 10.9552 64.4742 11.1577 65.0619 11.1577C65.645 11.1577 66.1427 10.9552 66.5436 10.5514C66.9479 10.1475 67.1529 9.62887 67.1529 9C67.1529 8.37112 66.9479 7.8525 66.5436 7.44862C66.1427 7.04475 65.645 6.84225 65.0619 6.84225C64.4742 6.84225 63.9811 7.04475 63.5757 7.44862C63.1714 7.8525 62.9664 8.37112 62.9664 9C62.9664 9.62887 63.1714 10.1475 63.5757 10.5514Z" fill="white" stroke="white" stroke-width="0.16" stroke-miterlimit="10"/>
<path d="M68.8574 11.6977V6.30225H69.7116L72.3675 10.4985H72.3982L72.3675 9.46124V6.30225H73.0702V11.6977H72.3367L69.5556 7.2945H69.5248L69.5556 8.33624V11.6977H68.8574Z" fill="white" stroke="white" stroke-width="0.16" stroke-miterlimit="10"/>
<path d="M62.0791 19.5773C59.9392 19.5773 58.191 21.186 58.191 23.4056C58.191 25.6073 59.9392 27.2329 62.0791 27.2329C64.2237 27.2329 65.9718 25.6073 65.9718 23.4056C65.9718 21.186 64.2237 19.5773 62.0791 19.5773ZM62.0791 25.7254C60.9049 25.7254 59.8947 24.768 59.8947 23.4056C59.8947 22.0253 60.9049 21.0848 62.0791 21.0848C63.2533 21.0848 64.2681 22.0253 64.2681 23.4056C64.2681 24.768 63.2533 25.7254 62.0791 25.7254ZM53.5955 19.5773C51.451 19.5773 49.7074 21.186 49.7074 23.4056C49.7074 25.6073 51.451 27.2329 53.5955 27.2329C55.7389 27.2329 57.4837 25.6073 57.4837 23.4056C57.4837 21.186 55.7389 19.5773 53.5955 19.5773ZM53.5955 25.7254C52.4202 25.7254 51.4066 24.768 51.4066 23.4056C51.4066 22.0253 52.4202 21.0848 53.5955 21.0848C54.7697 21.0848 55.7799 22.0253 55.7799 23.4056C55.7799 24.768 54.7697 25.7254 53.5955 25.7254ZM43.5004 20.7506V22.3774H47.433C47.318 23.2864 47.0105 23.9546 46.539 24.4204C45.965 24.9829 45.071 25.6073 43.5004 25.6073C41.0803 25.6073 39.1852 23.6779 39.1852 21.2873C39.1852 18.8966 41.0803 16.9673 43.5004 16.9673C44.809 16.9673 45.7611 17.4724 46.4638 18.1271L47.6244 16.9808C46.6415 16.0538 45.334 15.3416 43.5004 15.3416C40.1817 15.3416 37.3926 18.009 37.3926 21.2873C37.3926 24.5655 40.1817 27.2329 43.5004 27.2329C45.2942 27.2329 46.6415 26.6524 47.7007 25.5634C48.786 24.4913 49.1243 22.9838 49.1243 21.7665C49.1243 21.3885 49.0924 21.0409 49.0354 20.7506H43.5004ZM84.7806 22.0118C84.4606 21.1556 83.4731 19.5773 81.4619 19.5773C79.4688 19.5773 77.8095 21.1286 77.8095 23.4056C77.8095 25.5499 79.4517 27.2329 81.6532 27.2329C83.4333 27.2329 84.4606 26.1608 84.8831 25.5364L83.562 24.6668C83.1212 25.3035 82.521 25.7254 81.6532 25.7254C80.7911 25.7254 80.1726 25.335 79.7763 24.5655L84.9594 22.4471L84.7806 22.0118ZM79.4962 23.2864C79.4517 21.8104 80.6567 21.0544 81.52 21.0544C82.1965 21.0544 82.7705 21.3885 82.9618 21.8666L79.4962 23.2864ZM75.2834 27H76.9872V15.75H75.2834V27ZM72.4931 20.43H72.4362C72.0535 19.9823 71.3235 19.5773 70.3987 19.5773C68.458 19.5773 66.6837 21.2603 66.6837 23.418C66.6837 25.5634 68.458 27.2329 70.3987 27.2329C71.3235 27.2329 72.0535 26.8245 72.4362 26.3633H72.4931V26.9123C72.4931 28.3759 71.7016 29.1623 70.4249 29.1623C69.384 29.1623 68.7382 28.4198 68.4717 27.7954L66.99 28.4063C67.4171 29.421 68.548 30.6698 70.4249 30.6698C72.4225 30.6698 74.1081 29.5088 74.1081 26.6839V19.8101H72.4931V20.43ZM70.5445 25.7254C69.3703 25.7254 68.3874 24.7545 68.3874 23.418C68.3874 22.0691 69.3703 21.0848 70.5445 21.0848C71.7016 21.0848 72.6138 22.0691 72.6138 23.418C72.6138 24.7545 71.7016 25.7254 70.5445 25.7254ZM92.7574 15.75H88.6824V27H90.3816V22.7374H92.7574C94.6445 22.7374 96.4952 21.3885 96.4952 19.2431C96.4952 17.0989 94.6399 15.75 92.7574 15.75ZM92.8018 21.1725H90.3816V17.3149H92.8018C94.0705 17.3149 94.7948 18.3555 94.7948 19.2431C94.7948 20.1139 94.0705 21.1725 92.8018 21.1725ZM103.306 19.5559C102.078 19.5559 100.801 20.0914 100.276 21.2783L101.784 21.9026C102.109 21.2783 102.706 21.0758 103.337 21.0758C104.218 21.0758 105.112 21.5989 105.126 22.5225V22.6406C104.818 22.4651 104.16 22.2053 103.35 22.2053C101.726 22.2053 100.071 23.0884 100.071 24.7365C100.071 26.244 101.402 27.2149 102.897 27.2149C104.04 27.2149 104.671 26.7053 105.068 26.1124H105.126V26.982H106.767V22.6665C106.767 20.6719 105.259 19.5559 103.306 19.5559ZM103.101 25.7209C102.545 25.7209 101.771 25.4486 101.771 24.768C101.771 23.8973 102.736 23.5631 103.572 23.5631C104.321 23.5631 104.671 23.7263 105.126 23.9411C104.992 24.9829 104.085 25.7209 103.101 25.7209ZM112.746 19.8023L110.793 24.6791H110.735L108.715 19.8023H106.883L109.917 26.6175L108.186 30.4099H109.961L114.637 19.8023H112.746ZM97.4291 27H99.1329V15.75H97.4291V27Z" fill="white"/>
<defs>
<linearGradient id="paint0_linear_1439_144176" x1="19.861" y1="28.1613" x2="4.75799" y2="12.8718" gradientUnits="userSpaceOnUse">
<stop stop-color="#00A0FF"/>
<stop offset="0.0066" stop-color="#00A1FF"/>
<stop offset="0.2601" stop-color="#00BEFF"/>
<stop offset="0.5122" stop-color="#00D2FF"/>
<stop offset="0.7604" stop-color="#00DFFF"/>
<stop offset="1" stop-color="#00E3FF"/>
</linearGradient>
<linearGradient id="paint1_linear_1439_144176" x1="30.8257" y1="17.9987" x2="8.77967" y2="17.9987" gradientUnits="userSpaceOnUse">
<stop stop-color="#FFE000"/>
<stop offset="0.4087" stop-color="#FFBD00"/>
<stop offset="0.7754" stop-color="#FFA500"/>
<stop offset="1" stop-color="#FF9C00"/>
</linearGradient>
<linearGradient id="paint2_linear_1439_144176" x1="22.6186" y1="15.9335" x2="2.13764" y2="-4.80028" gradientUnits="userSpaceOnUse">
<stop stop-color="#FF3A44"/>
<stop offset="1" stop-color="#C31162"/>
</linearGradient>
<linearGradient id="paint3_linear_1439_144176" x1="6.64707" y1="35.8414" x2="15.7927" y2="26.5829" gradientUnits="userSpaceOnUse">
<stop stop-color="#32A071"/>
<stop offset="0.0685" stop-color="#2DA771"/>
<stop offset="0.4762" stop-color="#15CF74"/>
<stop offset="0.8009" stop-color="#06E775"/>
<stop offset="1" stop-color="#00F076"/>
</linearGradient>
</defs>
</svg>
