<svg width="32" height="32" viewBox="0 0 32 32" fill="none" xmlns="http://www.w3.org/2000/svg">
<path fill-rule="evenodd" clip-rule="evenodd" d="M10.775 16.6961C10.5939 16.5151 10.4817 16.2652 10.4827 15.989C10.4827 15.4365 10.9296 14.9896 11.4821 14.9896L20.5179 14.9896C21.0704 14.9896 21.5173 15.4365 21.5173 15.989C21.5173 16.5415 21.0704 16.9884 20.5179 16.9884L11.4821 16.9884C11.2058 16.9893 10.956 16.8771 10.775 16.6961Z" fill="currentColor"/>
<path fill-rule="evenodd" clip-rule="evenodd" d="M15.292 21.2173C15.1109 21.0363 14.9987 20.7864 14.9997 20.5102L15.0006 11.4658C15.0006 10.9133 15.4475 10.4664 16 10.4664C16.5534 10.4674 17.0003 10.9143 16.9994 11.4658L16.9984 20.5102C16.9984 21.0627 16.5515 21.5095 15.9991 21.5095C15.7228 21.5105 15.472 21.3974 15.292 21.2173Z" fill="currentColor"/>
<path fill-rule="evenodd" clip-rule="evenodd" d="M10.2199 4.66669C6.84661 4.66669 4.66661 6.97735 4.66661 10.5547V21.4454C4.66661 25.0227 6.84661 27.3334 10.2199 27.3334H21.7773C25.1519 27.3334 27.3333 25.0227 27.3333 21.4454V10.5547C27.3333 6.97735 25.1519 4.66669 21.7786 4.66669H10.2199ZM21.7773 29.3334H10.22C5.70129 29.3334 2.66663 26.1627 2.66663 21.4454V10.5547C2.66663 5.83735 5.70129 2.66669 10.22 2.66669H21.7786C26.2973 2.66669 29.3333 5.83735 29.3333 10.5547V21.4454C29.3333 26.1627 26.2973 29.3334 21.7773 29.3334Z" fill="currentColor"/>
</svg>
