<svg width="16" height="16" viewBox="0 0 16 16" fill="none" xmlns="http://www.w3.org/2000/svg">
<path d="M8.17123 5.37012C8.35527 5.18809 8.64497 5.17822 8.8405 5.33952L8.87826 5.37402L11.0371 7.55371H11.0365C11.1331 7.65012 11.2091 7.76462 11.2604 7.88965C11.3123 8.01603 11.3385 8.15135 11.3385 8.28744L11.3379 8.29525C11.3392 8.31019 11.3406 8.32553 11.3405 8.34082C11.3403 8.383 11.3329 8.42348 11.3229 8.46257C11.3101 8.53877 11.29 8.61395 11.2604 8.68587C11.2092 8.81065 11.1329 8.92423 11.0365 9.02051L11.0371 9.02116L8.8418 11.2373C8.64749 11.4335 8.33097 11.4355 8.13477 11.2412C7.93863 11.047 7.93738 10.7304 8.13151 10.5342L9.81446 8.83431L2.49805 8.80501L2.44662 8.80241C2.19473 8.77567 1.99897 8.56185 2 8.30306C2.00122 8.02703 2.22591 7.80394 2.50196 7.80501L9.90821 7.83496L8.16732 6.07715L8.13347 6.03939C7.97415 5.84222 7.98725 5.55232 8.17123 5.37012ZM5.0586 5.96322V3.2347L5.07292 3.04785C5.09647 2.86221 5.14787 2.68054 5.22592 2.50944C5.33 2.28136 5.47897 2.07649 5.66342 1.90592C5.8479 1.73533 6.06433 1.60232 6.30013 1.514C6.53215 1.4271 6.77884 1.38588 7.0267 1.3903V1.38965H11.4206V1.3903C11.6684 1.38588 11.9151 1.4271 12.1471 1.514C12.3829 1.60232 12.5994 1.73534 12.7839 1.90592C12.9683 2.07649 13.1173 2.28136 13.2214 2.50944C13.3254 2.73758 13.3824 2.98424 13.3887 3.2347V12.7653C13.3825 13.0158 13.3255 13.2624 13.2214 13.4906C13.1173 13.7187 12.9683 13.9235 12.7839 14.0941C12.5994 14.2646 12.3829 14.3977 12.1471 14.486C11.9151 14.5729 11.6684 14.6141 11.4206 14.6097V14.611H7.02409V14.6097C6.77621 14.6141 6.52958 14.5729 6.29753 14.486C6.06172 14.3977 5.8453 14.2647 5.66081 14.0941C5.47634 13.9235 5.32739 13.7187 5.22331 13.4906C5.14523 13.3194 5.0932 13.1379 5.06967 12.9521L5.05599 12.7653C5.05589 12.7612 5.05534 12.757 5.05534 12.7529V10.0368C5.05546 9.76082 5.27937 9.5369 5.55534 9.53678C5.83141 9.53678 6.05522 9.76074 6.05534 10.0368V12.7406L6.06185 12.8265C6.07268 12.9119 6.09657 12.9957 6.13282 13.0752C6.18125 13.1814 6.25099 13.2788 6.3392 13.3604C6.42739 13.4419 6.53229 13.5065 6.64779 13.5498C6.76341 13.5931 6.88776 13.614 7.01237 13.611H11.4323C11.5569 13.614 11.6806 13.5931 11.7962 13.5498C11.9117 13.5065 12.0166 13.4419 12.1048 13.3604C12.1931 13.2788 12.2634 13.1814 12.3119 13.0752C12.3584 12.973 12.3843 12.8636 12.3887 12.7529V3.24707C12.3843 3.1364 12.3585 3.02702 12.3119 2.9248C12.2634 2.81862 12.193 2.72188 12.1048 2.6403C12.0166 2.55868 11.9118 2.49349 11.7962 2.4502C11.7095 2.41774 11.6182 2.39823 11.5254 2.3916L11.4323 2.389C11.4284 2.38909 11.4245 2.38965 11.4206 2.38965H7.0267L7.01498 2.389C6.89045 2.38601 6.7666 2.40695 6.65105 2.4502C6.53545 2.49349 6.43071 2.55868 6.34245 2.6403C6.25424 2.72188 6.18386 2.81862 6.13542 2.9248C6.08882 3.02702 6.063 3.13639 6.0586 3.24707V5.96322C6.0586 6.23928 5.83463 6.46309 5.5586 6.46322C5.28246 6.46322 5.0586 6.23936 5.0586 5.96322Z" fill="currentColor"/>
</svg>
