<svg width="20" height="20" viewBox="0 0 20 20" fill="none" xmlns="http://www.w3.org/2000/svg">
<g clip-path="url(#clip0_4661_58261)">
<path d="M13.2243 5.493C13.2243 3.71838 11.8034 2.2915 10.0659 2.2915C8.32852 2.29166 6.90836 3.71847 6.90836 5.493C6.90855 7.26736 8.32864 8.69353 10.0659 8.69368C11.8033 8.69368 13.2241 7.26746 13.2243 5.493ZM14.4743 5.493C14.4741 7.28943 13.4171 8.84129 11.8921 9.54329C14.2615 10.2221 16.3545 12.19 17.3315 15.3506L17.4447 15.742L18.103 18.1696L18.1169 18.2323C18.1684 18.5447 17.9758 18.8515 17.6636 18.9362C17.3513 19.0209 17.0299 18.8535 16.9165 18.5578L16.897 18.4967L16.2386 16.07L16.1377 15.7225C15.0486 12.1919 12.4779 10.5256 10 10.5256C7.44223 10.5256 4.78531 12.3012 3.76139 16.07L3.10302 18.4967C3.01266 18.8299 2.66956 19.0265 2.33642 18.9362C2.0033 18.8458 1.80663 18.5027 1.89697 18.1696L2.55534 15.742L2.66845 15.3506C3.65647 12.1545 5.78544 10.1768 8.18766 9.51969C6.69082 8.80651 5.6585 7.26883 5.65836 5.493C5.65836 3.04149 7.62487 1.04166 10.0659 1.0415C12.5071 1.0415 14.4743 3.04139 14.4743 5.493Z" fill="currentColor"/>
</g>
<defs>
<clipPath id="clip0_4661_58261">
<rect width="20" height="20" fill="white"/>
</clipPath>
</defs>
</svg>
