<svg width="16" height="16" viewBox="0 0 16 16" fill="none" xmlns="http://www.w3.org/2000/svg">
<g clip-path="url(#clip0_2131_368092)">
<path d="M10.5794 4.39445C10.5794 2.97475 9.44274 1.83325 8.05272 1.83325C6.6628 1.83338 5.52668 2.97483 5.52668 4.39445C5.52683 5.81394 6.6629 6.95487 8.05272 6.955C9.44265 6.955 10.5793 5.81402 10.5794 4.39445ZM11.5794 4.39445C11.5793 5.83159 10.7337 7.07308 9.51366 7.63468C11.4091 8.17774 13.0836 9.75208 13.8652 12.2805L13.9557 12.5937L14.4824 14.5357L14.4935 14.5859C14.5347 14.8358 14.3806 15.0812 14.1308 15.149C13.881 15.2168 13.6239 15.0828 13.5332 14.8463L13.5176 14.7974L12.9909 12.856L12.9101 12.578C12.0388 9.75358 9.98229 8.42049 7.99998 8.42049C5.95377 8.42049 3.82823 9.84104 3.0091 12.856L2.48241 14.7974C2.41012 15.0639 2.13563 15.2213 1.86913 15.149C1.60263 15.0767 1.44529 14.8022 1.51756 14.5357L2.04426 12.5937L2.13475 12.2805C2.92517 9.72363 4.62834 8.14147 6.55012 7.6158C5.35265 7.04526 4.52679 5.81511 4.52668 4.39445C4.52668 2.43324 6.09989 0.833378 8.05272 0.833252C10.0057 0.833252 11.5794 2.43316 11.5794 4.39445Z" fill="currentColor"/>
</g>
<defs>
<clipPath id="clip0_2131_368092">
<rect width="16" height="16" fill="white"/>
</clipPath>
</defs>
</svg>
