<svg width="22" height="22" viewBox="0 0 22 22" fill="none" xmlns="http://www.w3.org/2000/svg">
<path d="M10.1789 20.6257V19.2259C6.17509 18.8413 2.99071 15.657 2.60617 11.6531H1.20632C0.755823 11.6531 0.390625 11.2879 0.390625 10.8374C0.390625 10.3869 0.755823 10.0217 1.20632 10.0217H2.60617C2.99072 6.01783 6.17504 2.83238 10.1789 2.44788V1.04909C10.1789 0.598597 10.5441 0.233398 10.9946 0.233398C11.4451 0.233398 11.8103 0.598597 11.8103 1.04909V2.44788C15.8142 2.83238 18.9986 6.01783 19.3831 10.0217H20.783C21.2335 10.0217 21.5987 10.3869 21.5987 10.8374C21.5987 11.2879 21.2335 11.6531 20.783 11.6531H19.3831C18.9986 15.657 15.8142 18.8413 11.8103 19.2259V20.6257C11.8103 21.0762 11.4451 21.4414 10.9946 21.4414C10.5441 21.4414 10.1789 21.0762 10.1789 20.6257ZM10.9946 4.03997C7.24051 4.03997 4.19719 7.08329 4.19719 10.8374C4.19719 14.5915 7.24051 17.6349 10.9946 17.6349C14.7488 17.6349 17.7921 14.5915 17.7921 10.8374C17.7921 7.08329 14.7488 4.03997 10.9946 4.03997ZM13.4417 10.8374C13.4417 9.48593 12.3461 8.39033 10.9946 8.39033C9.64315 8.39033 8.54756 9.48593 8.54756 10.8374C8.54756 12.1889 9.64315 13.2845 10.9946 13.2845C12.3461 13.2845 13.4417 12.1889 13.4417 10.8374ZM15.0731 10.8374C15.0731 13.0899 13.2471 14.9159 10.9946 14.9159C8.74216 14.9159 6.91617 13.0899 6.91617 10.8374C6.91617 8.58494 8.74216 6.75895 10.9946 6.75895C13.2471 6.75895 15.0731 8.58494 15.0731 10.8374Z" fill="#176CF7"/>
</svg>
