<svg width="28" height="28" viewBox="0 0 28 28" fill="none" xmlns="http://www.w3.org/2000/svg">
<g clip-path="url(#clip0_4301_58810)">
<rect width="29.75" height="29.75" fill="url(#paint0_linear_4301_58810)"/>
<path fill-rule="evenodd" clip-rule="evenodd" d="M21.8457 14.9753L20.6394 16.1817C20.3818 16.4392 20.2369 16.7894 20.2369 17.1543V18.8574C20.2369 19.6192 19.6191 20.237 18.8573 20.237H17.1543C16.7894 20.237 16.4401 20.3818 16.1816 20.6394L14.9753 21.8457C14.4363 22.3847 13.5637 22.3847 13.0247 21.8457L11.8183 20.6394C11.5607 20.3818 11.2105 20.237 10.8457 20.237H9.14259C8.38084 20.237 7.763 19.6192 7.763 18.8574V17.1543C7.763 16.7894 7.61809 16.4402 7.36051 16.1817L6.15425 14.9753C5.61525 14.4363 5.61525 13.5637 6.15425 13.0247L7.36051 11.8183C7.61809 11.5607 7.763 11.2106 7.763 10.8457V9.14256C7.763 8.38081 8.38084 7.763 9.14259 7.763H10.8457C11.2105 7.763 11.5598 7.61815 11.8183 7.36056L13.0247 6.15425C13.5637 5.61525 14.4363 5.61525 14.9753 6.15425L16.1816 7.36056C16.4392 7.61815 16.7894 7.763 17.1543 7.763H18.8573C19.6191 7.763 20.2369 8.38081 20.2369 9.14256V10.8457C20.2369 11.2106 20.3818 11.5598 20.6394 11.8183L21.8457 13.0247C22.3847 13.5637 22.3847 14.4363 21.8457 14.9753Z" fill="url(#paint1_linear_4301_58810)"/>
<path d="M11.7086 16.9785C11.5326 16.9785 11.3565 16.9116 11.2227 16.7768C10.9541 16.5083 10.9541 16.0728 11.2227 15.8043L15.806 11.2209C16.0746 10.9523 16.5101 10.9523 16.7787 11.2209C17.0472 11.4895 17.0472 11.9249 16.7787 12.1935L12.1953 16.7768C12.0606 16.9116 11.8846 16.9785 11.7086 16.9785ZM12.6436 11.7077C12.6436 11.2017 12.2338 10.791 11.7269 10.791H11.7177C11.2117 10.791 10.8057 11.2017 10.8057 11.7077C10.8057 12.2137 11.2209 12.6243 11.7269 12.6243C12.2329 12.6243 12.6436 12.2137 12.6436 11.7077ZM17.2269 16.291C17.2269 15.785 16.8172 15.3743 16.3103 15.3743H16.3011C15.7951 15.3743 15.389 15.785 15.389 16.291C15.389 16.797 15.8043 17.2077 16.3103 17.2077C16.8163 17.2077 17.2269 16.797 17.2269 16.291Z" fill="url(#paint2_linear_4301_58810)"/>
</g>
<defs>
<linearGradient id="paint0_linear_4301_58810" x1="1.96875" y1="-1.00377e-07" x2="26.25" y2="31.5" gradientUnits="userSpaceOnUse">
<stop stop-color="#C7E5FD"/>
<stop offset="1" stop-color="#6BBAFB"/>
</linearGradient>
<linearGradient id="paint1_linear_4301_58810" x1="11.6625" y1="26.0577" x2="25.5974" y2="18.48" gradientUnits="userSpaceOnUse">
<stop stop-color="#176CF7"/>
<stop offset="1" stop-color="#0C36C1"/>
</linearGradient>
<linearGradient id="paint2_linear_4301_58810" x1="13.1066" y1="18.6885" x2="18.5279" y2="15.7383" gradientUnits="userSpaceOnUse">
<stop stop-color="#FFBC00"/>
<stop offset="1" stop-color="#FFD14F"/>
</linearGradient>
<clipPath id="clip0_4301_58810">
<rect width="28" height="28" rx="14" fill="white"/>
</clipPath>
</defs>
</svg>
