<svg width="16" height="16" viewBox="0 0 16 16" fill="none" xmlns="http://www.w3.org/2000/svg">
<path d="M7.65855 5.40513C8.04451 5.40518 8.4271 5.48238 8.78293 5.63188C9.09416 5.76271 9.38039 5.94683 9.62788 6.17539L9.73191 6.27609L9.76659 6.31544C9.92831 6.51821 9.91376 6.81482 9.72457 7.00033C9.53537 7.18572 9.23849 7.19455 9.03901 7.02901L9.00033 6.993L8.86295 6.86629C8.7198 6.74668 8.55873 6.64877 8.38613 6.57619C8.15594 6.47948 7.90823 6.42952 7.65855 6.42948C7.40886 6.42951 7.16119 6.47948 6.93098 6.57619C6.7008 6.67296 6.4922 6.81466 6.31744 6.993L3.58186 9.72858C3.22526 10.0853 3.02501 10.5693 3.02501 11.0737C3.02515 11.578 3.22527 12.0622 3.58186 12.4188C3.9385 12.7753 4.42272 12.9756 4.92698 12.9757C5.43125 12.9756 5.91545 12.7753 6.27209 12.4188L6.61354 12.0774C6.81354 11.8774 7.13776 11.8774 7.33778 12.0774C7.53746 12.2774 7.53768 12.6017 7.33778 12.8016L6.99633 13.143C6.44759 13.6917 5.70292 13.9999 4.92698 14C4.15105 13.9999 3.40636 13.6916 2.85762 13.143C2.30893 12.5943 2.00014 11.8497 2 11.0737C2 10.2976 2.30892 9.55315 2.85762 9.00433L5.5892 6.27276C5.85864 5.99868 6.17984 5.78082 6.53418 5.63188C6.89002 5.48238 7.27258 5.40517 7.65855 5.40513Z" fill="white"/>
<path d="M11.073 2C11.8491 2 12.5936 2.30886 13.1424 2.85762C13.6911 3.40638 13.9993 4.15097 13.9993 4.92698C13.9992 5.70297 13.6911 6.44759 13.1424 6.99633L10.4141 9.72391L10.4148 9.72457C10.1446 10.0003 9.82168 10.2192 9.46582 10.3688C9.10989 10.5183 8.72752 10.5955 8.34145 10.5955C7.95537 10.5955 7.57301 10.5183 7.21707 10.3688C6.90572 10.2379 6.61969 10.0539 6.37212 9.82527L6.26809 9.72457L6.23341 9.68523C6.07153 9.48246 6.08686 9.1859 6.27609 9.00033C6.46558 8.81477 6.76221 8.80605 6.96165 8.97232L7.00033 9.00767L7.13705 9.13438C7.28029 9.25407 7.44115 9.35188 7.61387 9.42447C7.84417 9.52123 8.09165 9.57119 8.34145 9.57119C8.59125 9.57119 8.83872 9.52123 9.06902 9.42447C9.29916 9.32775 9.50781 9.18594 9.68256 9.00767L12.4181 6.27209C12.7747 5.91545 12.9749 5.4313 12.975 4.92698C12.9749 4.42265 12.7747 3.93852 12.4181 3.58186C12.0614 3.2252 11.5775 3.02501 11.073 3.02501C10.6315 3.02501 10.2058 3.17841 9.86729 3.45582L9.72791 3.58186L9.38646 3.92331C9.18649 4.1231 8.86219 4.1231 8.66222 3.92331C8.46239 3.72334 8.46242 3.39905 8.66222 3.19907L9.00367 2.85762L9.10904 2.75759C9.64586 2.27161 10.3455 2 11.073 2Z" fill="white"/>
</svg>
