<svg width="17" height="16" viewBox="0 0 17 16" fill="none" xmlns="http://www.w3.org/2000/svg">
<g clip-path="url(#clip0_5003_190263)">
<path d="M13.2939 13.8895L11.172 12.3037C11.1464 12.2834 11.1143 12.2724 11.0813 12.2724C11.0483 12.2724 11.0162 12.2834 10.9906 12.3037L8.9811 13.9817C8.95501 14.0035 8.92177 14.0155 8.8874 14.0155C8.85303 14.0155 8.81979 14.0035 8.7937 13.9817L6.51504 12.3029C6.49095 12.2818 6.4597 12.2701 6.4273 12.2701C6.3949 12.2701 6.36365 12.2818 6.33956 12.3029L4.37438 13.8804C4.35262 13.8958 4.32702 13.9052 4.30026 13.9076C4.27349 13.91 4.24655 13.9054 4.22226 13.8942C4.19796 13.883 4.1772 13.8656 4.16215 13.8439C4.14711 13.8222 4.13832 13.797 4.13672 13.7708V3.17655C4.13672 2.85286 4.26865 2.54242 4.50348 2.31353C4.73831 2.08464 5.05681 1.95605 5.38891 1.95605H12.2743C12.4387 1.95605 12.6016 1.98762 12.7535 2.04896C12.9054 2.1103 13.0435 2.2002 13.1597 2.31353C13.276 2.42686 13.3682 2.56141 13.4312 2.70949C13.4941 2.85757 13.5265 3.01628 13.5265 3.17655V13.7791C13.5262 13.8052 13.5184 13.8306 13.5041 13.8526C13.4898 13.8747 13.4694 13.8923 13.4454 13.9037C13.4213 13.9151 13.3945 13.9197 13.3679 13.9171C13.3413 13.9144 13.316 13.9046 13.2948 13.8887L13.2939 13.8895Z" stroke="#461B02" stroke-linecap="round" stroke-linejoin="round"/>
<path d="M5.75781 4.46387H10.7649" stroke="#461B02" stroke-linecap="round" stroke-linejoin="round"/>
<path d="M5.75781 6.90332H8.88745" stroke="#461B02" stroke-linecap="round" stroke-linejoin="round"/>
<path d="M5.75781 9.34375H11.391" stroke="#461B02" stroke-linecap="round" stroke-linejoin="round"/>
</g>
<defs>
<clipPath id="clip0_5003_190263">
<rect width="10.6667" height="13.3333" fill="white" transform="translate(3.5 1.33301)"/>
</clipPath>
</defs>
</svg>
