<svg width="16" height="17" viewBox="0 0 16 17" fill="none" xmlns="http://www.w3.org/2000/svg">
<path d="M2.10777 3.48014C3.72373 1.86418 6.29845 1.79131 8.00088 3.26154C9.70221 1.79131 12.2769 1.86418 13.8929 3.48014C15.5059 5.09322 15.5814 7.66164 14.1193 9.36411L8.94315 14.5582C8.44608 15.0552 7.65428 15.0778 7.13048 14.6259L7.05755 14.5582L1.88129 9.36411C0.419201 7.66164 0.494694 5.09322 2.10777 3.48014ZM3.05057 4.42295C1.91247 5.56105 1.87996 7.38604 2.95303 8.56344L3.05057 8.66558L8.00035 13.6153L11.5354 10.0793L9.17881 7.72278L8.47175 8.42991C7.69068 9.21091 6.42435 9.21091 5.6433 8.42991C4.86225 7.64884 4.86225 6.38251 5.6433 5.60146L7.04408 4.1998C5.90229 3.28573 4.24752 3.3276 3.15275 4.3254L3.05057 4.42295ZM8.70741 6.30857C8.96775 6.04822 9.38988 6.04822 9.65021 6.30857L12.4782 9.13651L12.9501 8.66558C14.1216 7.49404 14.1216 5.59452 12.9501 4.42295C11.8119 3.28485 9.98695 3.25234 8.80961 4.3254L8.70741 4.42295L6.58611 6.54427C6.34435 6.78602 6.32709 7.16726 6.53431 7.42891L6.58611 7.48711C6.82788 7.72884 7.20908 7.74611 7.47075 7.53891L7.52895 7.48711L8.70741 6.30857Z" fill="#461B02"/>
</svg>
