<svg width="210" height="221" viewBox="0 0 210 221" fill="none" xmlns="http://www.w3.org/2000/svg">
<path d="M72.8495 144.907C113.083 144.907 145.699 112.469 145.699 72.4537C145.699 32.4386 113.083 0 72.8495 0C32.6158 0 0 32.4386 0 72.4537C0 112.469 32.6158 144.907 72.8495 144.907Z" fill="#FFC217"/>
<path d="M72.8504 144.176C112.678 144.176 144.964 112.065 144.964 72.4543C144.964 32.8434 112.678 0.732422 72.8504 0.732422C33.0231 0.732422 0.736694 32.8434 0.736694 72.4543C0.736694 112.065 33.0231 144.176 72.8504 144.176Z" stroke="#FFC217"/>
<path d="M69.8445 56.0079L108.462 27.6484L147.528 56.0079H177.615V77.8892L208.824 100.445V201.936C208.824 201.936 211.068 213.775 204.782 217.788C198.497 221.801 193.781 220.918 193.781 220.918H20.2197C20.2197 220.918 9.89134 219.574 8.9936 211.536C8.09586 203.497 8.9936 100.439 8.9936 100.439L38.856 77.8863V56.005L69.8445 56.0079Z" fill="#183E7F"/>
<path d="M108.906 34.0879L138.929 55.8978H78.0815L108.906 34.0879Z" fill="#176CF7"/>
<path d="M177.66 84.1855L202.372 102.025L177.66 123.428V84.1855Z" fill="#0A4FC0"/>
<path d="M44.6244 61.4023H172.429V127.361L127.524 166.358C127.524 166.358 114.698 155.842 106.717 157.05C98.736 158.257 95.7118 161.257 93.0671 162.99C91.5209 163.999 90.0552 165.125 88.6829 166.358L44.8407 128.244L44.6244 61.4023Z" fill="white"/>
<path d="M108.508 153.698C130.69 153.698 148.673 135.813 148.673 113.75C148.673 91.6879 130.69 73.8027 108.508 73.8027C86.3245 73.8027 68.3417 91.6879 68.3417 113.75C68.3417 135.813 86.3245 153.698 108.508 153.698Z" fill="#176CF7"/>
<path d="M108.508 151.502C129.472 151.502 146.466 134.6 146.466 113.75C146.466 92.9002 129.472 75.998 108.508 75.998C87.5441 75.998 70.5496 92.9002 70.5496 113.75C70.5496 134.6 87.5441 151.502 108.508 151.502Z" stroke="#183E7F" stroke-width="3"/>
<path d="M15.0822 101.818L39.5299 84.1445V123.393L15.0822 101.818Z" fill="#0A4FC0"/>
<path d="M197.263 215.859C197.263 215.859 202.576 215.599 203.241 210.71C203.906 205.822 204.039 107.645 204.039 107.645L132.43 169.881L197.263 215.859Z" fill="#176CF7"/>
<path d="M12.7247 107.645L83.8819 169.832L19.9791 215.868C19.9791 215.868 13.9344 214.321 13.5871 209.681C13.2397 205.041 12.7247 107.645 12.7247 107.645Z" fill="#176CF7"/>
<path d="M29.6062 215.858H187.986L121.662 168.256C121.662 168.256 111.495 158.025 101.154 164.462C90.8119 170.9 29.6062 215.858 29.6062 215.858Z" fill="#004CC9"/>
<path d="M23.9623 125.173C23.9623 123.84 22.8758 122.76 21.5355 122.76C20.1952 122.76 19.1086 123.84 19.1086 125.173V178.271C19.1086 179.604 20.1952 180.685 21.5355 180.685C22.8758 180.685 23.9623 179.604 23.9623 178.271V125.173Z" fill="white"/>
<path d="M23.9623 186.318C23.9623 184.985 22.8758 183.904 21.5355 183.904C20.1952 183.904 19.1086 184.985 19.1086 186.318V199.19C19.1086 200.523 20.1952 201.603 21.5355 201.603C22.8758 201.603 23.9623 200.523 23.9623 199.19V186.318Z" fill="white"/>
<path d="M49.225 206.399C47.85 207.393 47.5455 209.307 48.5449 210.674C49.5442 212.042 51.469 212.345 52.8439 211.351L95.1642 180.758C96.5392 179.765 96.8437 177.85 95.8443 176.483C94.845 175.115 92.9202 174.812 91.5453 175.806L49.225 206.399Z" fill="white"/>
<path d="M99.0154 170.74C97.6404 171.734 97.336 173.649 98.3353 175.016C99.3346 176.384 101.259 176.686 102.634 175.693L110.102 170.294C111.477 169.301 111.781 167.386 110.782 166.019C109.783 164.651 107.858 164.348 106.483 165.342L99.0154 170.74Z" fill="white"/>
<path d="M145.878 168.113C144.486 167.142 142.567 167.478 141.591 168.862C140.616 170.247 140.953 172.156 142.345 173.126L185.189 202.99C186.581 203.96 188.5 203.624 189.475 202.24C190.451 200.856 190.113 198.947 188.721 197.976L145.878 168.113Z" fill="white"/>
<path d="M108.619 150.449C102.737 150.449 97.0988 149.152 91.8605 146.593C87.2635 144.348 83.098 141.136 79.7421 137.26C80.1759 136.338 80.6403 135.434 81.1293 134.561C82.3301 132.419 83.7069 130.407 85.2212 128.582C86.7306 126.763 88.389 125.113 90.1501 123.679C91.9173 122.239 93.8063 121.003 95.7652 120.004C97.7472 118.993 99.8206 118.217 101.928 117.696C102.119 117.649 102.319 117.602 102.52 117.557L108.583 116.207L114.647 117.585C114.808 117.622 114.965 117.659 115.115 117.696C117.222 118.217 119.296 118.993 121.277 120.004C123.237 121.003 125.126 122.239 126.892 123.679C128.653 125.113 130.312 126.762 131.821 128.582C133.336 130.407 134.712 132.419 135.914 134.562C136.428 135.48 136.916 136.433 137.369 137.407C130.12 145.712 119.717 150.449 108.619 150.449ZM108.587 116.196L103.019 113.448C100.945 112.424 99.1924 110.852 97.9511 108.902C96.6776 106.901 96.0045 104.584 96.0045 102.202C96.0045 95.2844 101.663 89.6562 108.619 89.6562C115.575 89.6562 121.234 95.2844 121.234 102.202C121.234 104.594 120.555 106.919 119.272 108.926C118.02 110.883 116.255 112.455 114.166 113.474L108.587 116.196Z" fill="#FFCC06"/>
<path d="M108.619 148.254C118.589 148.254 127.964 144.196 134.735 137.033C134.493 136.558 134.243 136.09 133.985 135.631C132.849 133.604 131.548 131.703 130.119 129.98C128.7 128.27 127.144 126.722 125.493 125.377C123.848 124.036 122.091 122.886 120.27 121.958C118.439 121.024 116.526 120.308 114.582 119.827C114.446 119.794 114.303 119.76 114.155 119.726L108.578 118.458L103.003 119.7C102.818 119.741 102.635 119.784 102.46 119.828C100.517 120.308 98.6035 121.024 96.7725 121.958C94.9528 122.886 93.1956 124.036 91.5488 125.378C89.8984 126.722 88.3423 128.27 86.9241 129.98C85.4945 131.703 84.1936 133.604 83.0579 135.63C82.8254 136.045 82.5986 136.468 82.3785 136.896C85.3603 140.073 88.9321 142.717 92.8337 144.623C97.7666 147.032 103.078 148.254 108.619 148.254ZM108.592 113.748L113.194 111.503C114.918 110.662 116.376 109.364 117.409 107.748C118.467 106.094 119.026 104.176 119.026 102.203C119.026 96.4953 114.358 91.8521 108.619 91.8521C102.881 91.8521 98.2122 96.4953 98.2122 102.203C98.2122 104.168 98.767 106.079 99.8166 107.728C100.842 109.338 102.289 110.637 104.001 111.482L108.592 113.748ZM108.619 152.645C95.8931 152.645 84.5457 146.775 77.1644 137.609C77.7785 136.193 78.4594 134.817 79.201 133.493C80.4666 131.235 81.9192 129.113 83.5186 127.185C85.1197 125.255 86.8803 123.505 88.7516 121.981C90.6407 120.441 92.6614 119.119 94.7581 118.05C96.892 116.963 99.125 116.127 101.395 115.566C101.609 115.513 101.823 115.463 102.038 115.415C97.1538 113.004 93.7971 107.993 93.7971 102.203C93.7971 94.061 100.433 87.4609 108.619 87.4609C116.805 87.4609 123.442 94.061 123.442 102.203C123.442 108.018 120.056 113.046 115.139 115.445C115.309 115.484 115.478 115.524 115.647 115.566C117.918 116.127 120.151 116.963 122.284 118.05C124.381 119.119 126.402 120.441 128.291 121.981C130.163 123.505 131.924 125.256 133.524 127.185C135.124 129.113 136.576 131.235 137.842 133.493C138.611 134.865 139.315 136.295 139.947 137.766C132.562 146.842 121.272 152.645 108.619 152.645Z" fill="#183E7F"/>
<path d="M79.0902 103.579C79.0902 103.579 83.1314 91.4885 94.3649 86.0859" stroke="white" stroke-width="2" stroke-linecap="round"/>
<path d="M77.7353 109.277C77.8689 108.769 78.0331 108.174 78.2105 107.565" stroke="white" stroke-width="2" stroke-linecap="round"/>
<path d="M144.025 105.984C151.771 105.984 158.051 99.739 158.051 92.0351C158.051 84.3312 151.771 78.0859 144.025 78.0859C136.279 78.0859 130 84.3312 130 92.0351C130 99.739 136.279 105.984 144.025 105.984Z" fill="white" stroke="#F71717" stroke-width="2"/>
<path d="M141.414 100C141.364 100 141.313 99.9977 141.263 99.9926C140.948 99.965 140.647 99.8515 140.393 99.6644C140.139 99.4774 139.943 99.2242 139.825 98.9329L137.976 94.3396C137.958 94.2945 137.926 94.2557 137.886 94.2284C137.845 94.2012 137.797 94.1866 137.748 94.1865C137.521 94.1918 137.294 94.1518 137.082 94.0689C136.871 93.986 136.677 93.8619 136.515 93.7038C136.352 93.5458 136.222 93.357 136.134 93.1485C136.046 92.94 136 92.7161 136 92.4899C136 92.2637 136.046 92.0398 136.134 91.8313C136.222 91.6229 136.352 91.434 136.515 91.276C136.677 91.1179 136.871 90.9938 137.082 90.9109C137.294 90.828 137.521 90.788 137.748 90.7933C138.481 90.7906 139.198 91.0076 139.804 91.4158C140.411 91.8241 140.88 92.4046 141.149 93.0816L141.742 94.5573L147.837 84.8027C147.956 84.6132 148.111 84.4488 148.293 84.3187C148.475 84.1886 148.682 84.0955 148.9 84.0447C149.119 83.9939 149.346 83.9863 149.567 84.0224C149.789 84.0586 150.001 84.1377 150.192 84.2553C150.383 84.3729 150.548 84.5267 150.679 84.7079C150.81 84.8891 150.904 85.0941 150.955 85.3112C151.006 85.5284 151.014 85.7534 150.977 85.9735C150.941 86.1936 150.861 86.4044 150.743 86.5939L142.864 99.2003C142.711 99.4452 142.497 99.6472 142.244 99.7871C141.99 99.927 141.705 100 141.414 100Z" fill="#F71717"/>
</svg>
