<svg width="16" height="17" viewBox="0 0 16 17" fill="none" xmlns="http://www.w3.org/2000/svg">
<path d="M11.8667 5.61995C13.0449 5.61995 14.0001 4.65288 14.0001 3.45994C14.0001 2.267 13.0449 1.29993 11.8667 1.29993C10.6885 1.29993 9.7334 2.267 9.7334 3.45994C9.7334 4.65288 10.6885 5.61995 11.8667 5.61995Z" stroke="currentColor" stroke-linecap="round" stroke-linejoin="round"/>
<path d="M3.33353 10.6602C4.51174 10.6602 5.46687 9.6931 5.46687 8.50016C5.46687 7.30722 4.51174 6.34015 3.33353 6.34015C2.15532 6.34015 1.2002 7.30722 1.2002 8.50016C1.2002 9.6931 2.15532 10.6602 3.33353 10.6602Z" stroke="currentColor" stroke-linecap="round" stroke-linejoin="round"/>
<path d="M11.8667 15.7004C13.0449 15.7004 14.0001 14.7333 14.0001 13.5404C14.0001 12.3474 13.0449 11.3804 11.8667 11.3804C10.6885 11.3804 9.7334 12.3474 9.7334 13.5404C9.7334 14.7333 10.6885 15.7004 11.8667 15.7004Z" stroke="currentColor" stroke-linecap="round" stroke-linejoin="round"/>
<path d="M5.17578 9.58722L10.0327 12.4528" stroke="currentColor" stroke-linecap="round" stroke-linejoin="round"/>
<path d="M10.0256 4.54779L5.17578 7.4134" stroke="currentColor" stroke-linecap="round" stroke-linejoin="round"/>
</svg>
