<svg width="20" height="20" viewBox="0 0 20 20" fill="none" xmlns="http://www.w3.org/2000/svg">
<path d="M8.25 2.40405C9.37042 1.94534 10.6266 1.94536 11.7471 2.40405L15.9131 4.10913H15.9141L16.0801 4.1853C16.8933 4.59227 17.4149 5.42544 17.415 6.34546V9.31812C17.415 13.3323 14.5099 17.0572 10.5498 18.1355L10.1631 18.2322C10.0548 18.2565 9.94223 18.2565 9.83398 18.2322C5.67787 17.2979 2.58203 13.4618 2.58203 9.31812V6.34546L2.58887 6.16284C2.65748 5.25631 3.2319 4.45715 4.08398 4.10913L8.25 2.40503V2.40405Z" stroke="#555555" stroke-width="1.5" stroke-linecap="round" stroke-linejoin="round"/>
<path d="M12.707 8.4375L9.58203 11.5625L7.70703 9.6875" stroke="#555555" stroke-width="1.5" stroke-linecap="round" stroke-linejoin="round"/>
</svg>
