<svg width="17" height="16" viewBox="0 0 17 16" fill="none" xmlns="http://www.w3.org/2000/svg">
<path d="M12.1466 3.64656C12.3418 3.4513 12.6583 3.4513 12.8536 3.64656C13.0489 3.84182 13.0489 4.15833 12.8536 4.35359L9.20711 8.00008L12.8536 11.6466L12.8881 11.6843C13.0483 11.8807 13.0367 12.1705 12.8536 12.3536C12.6705 12.5367 12.3807 12.5483 12.1843 12.3881L12.1466 12.3536L8.50008 8.70711L4.85359 12.3536C4.65833 12.5489 4.34182 12.5489 4.14656 12.3536C3.9513 12.1583 3.9513 11.8418 4.14656 11.6466L7.79305 8.00008L4.14656 4.35359L4.11206 4.31583C3.95185 4.11945 3.96349 3.82963 4.14656 3.64656C4.32963 3.46349 4.61945 3.45185 4.81583 3.61206L4.85359 3.64656L8.50008 7.29305L12.1466 3.64656Z" fill="white"/>
</svg>