<svg width="40" height="40" viewBox="0 0 40 40" fill="none" xmlns="http://www.w3.org/2000/svg">
<path fill-rule="evenodd" clip-rule="evenodd" d="M16.4602 6.48706L17.7415 3.89249C18.1617 3.03946 19.0308 2.49902 19.9823 2.49902C20.9338 2.49902 21.8028 3.03946 22.223 3.89249L23.5043 6.48706L26.3679 6.90384C27.3091 7.04009 28.0912 7.69961 28.3854 8.60416C28.6797 9.50986 28.4347 10.5026 27.7534 11.1667L25.6809 13.1865L26.1698 16.0386C26.3313 16.9764 25.9454 17.9245 25.176 18.4832C24.4065 19.042 23.3852 19.1164 22.5436 18.6733L19.9823 17.3268L17.4209 18.6733C16.5793 19.1164 15.558 19.042 14.7885 18.4832C14.0191 17.9245 13.6332 16.9764 13.7947 16.0386L14.2836 13.1865L12.2112 11.1667C11.5299 10.5026 11.2848 9.50986 11.5791 8.60416C11.8734 7.69961 12.6554 7.04009 13.5966 6.90384L16.4602 6.48706ZM6.68538 25.0177L7.96549 22.4232C8.38685 21.5701 9.25591 21.0297 10.2074 21.0297C11.1589 21.0297 12.0268 21.5701 12.4482 22.4232L13.7294 25.0177L16.5931 25.4345C17.5343 25.5708 18.3163 26.2303 18.6106 27.1348C18.9037 28.0405 18.6586 29.0333 17.9774 29.6974L15.9061 31.7171L16.395 34.5693C16.5553 35.5071 16.1706 36.4551 15.4 37.0139C14.6305 37.5727 13.6103 37.6471 12.7688 37.204L10.2074 35.8575L7.64604 37.204C6.80332 37.6471 5.78312 37.5727 5.01368 37.0139C4.24424 36.4551 3.85837 35.5071 4.01867 34.5693L4.50873 31.7171L2.43628 29.6974C1.75501 29.0333 1.50998 28.0405 1.80424 27.1348C2.09736 26.2303 2.88055 25.5708 3.82174 25.4345L6.68538 25.0177ZM26.2351 25.0177L27.5164 22.4232C27.9377 21.5701 28.8056 21.0297 29.7571 21.0297C30.7086 21.0297 31.5777 21.5701 31.999 22.4232L33.2792 25.0177L36.1428 25.4345C37.084 25.5708 37.8672 26.2303 38.1603 27.1348C38.4546 28.0405 38.2095 29.0333 37.5282 29.6974L35.4558 31.7171L35.9459 34.5693C36.1062 35.5071 35.7203 36.4551 34.9508 37.0139C34.1814 37.5727 33.1612 37.6471 32.3185 37.204L29.7571 35.8575L27.1958 37.204C26.3542 37.6471 25.334 37.5727 24.5646 37.0139C23.794 36.4551 23.4093 35.5071 23.5696 34.5693L24.0585 31.7171L21.9872 29.6974C21.3059 29.0333 21.0609 28.0405 21.354 27.1348C21.6482 26.2303 22.4303 25.5708 23.3715 25.4345L26.2351 25.0177Z" fill="url(#paint0_linear_2139_54627)"/>
<defs>
<linearGradient id="paint0_linear_2139_54627" x1="1.68164" y1="19.9951" x2="38.2829" y2="19.9951" gradientUnits="userSpaceOnUse">
<stop stop-color="#D29A00"/>
<stop offset="0.35" stop-color="#FFD664"/>
<stop offset="0.69" stop-color="#D09C0C"/>
<stop offset="1" stop-color="#FFDA71"/>
</linearGradient>
</defs>
</svg>
