<svg width="20" height="21" viewBox="0 0 20 21" fill="none" xmlns="http://www.w3.org/2000/svg">
<path fill-rule="evenodd" clip-rule="evenodd" d="M6.4426 17.8609C6.02004 18.0814 5.50883 18.0426 5.12444 17.7607C4.74005 17.4788 4.54934 17.003 4.63268 16.5336L5.30712 12.6679L2.46761 9.94672C2.12053 9.61573 1.99333 9.11539 2.14019 8.65882C2.28705 8.20225 2.6821 7.8699 3.15706 7.80333L7.09954 7.23976L8.87945 3.68912C9.09048 3.26329 9.52466 2.9939 9.99991 2.9939C10.4752 2.9939 10.9093 3.26329 11.1204 3.68912L12.9003 7.23976L16.8428 7.80333C17.3177 7.8699 17.7128 8.20225 17.8596 8.65882C18.0065 9.11539 17.8793 9.61573 17.5322 9.94672L14.6927 12.6679L15.3671 16.5345C15.4505 17.0038 15.2598 17.4797 14.8754 17.7615C14.491 18.0434 13.9798 18.0823 13.5572 17.8617L9.99991 16.0234L6.4426 17.8609Z" fill="#FEA010"/>
</svg>
