<svg width="17" height="16" viewBox="0 0 17 16" fill="none" xmlns="http://www.w3.org/2000/svg">
<path d="M14 10.1667H6.33334V12.5H12.3665C12.7482 12.5 13.0046 12.4998 13.2018 12.4837C13.3932 12.4681 13.4846 12.4396 13.5449 12.4089L13.6022 12.377C13.7328 12.2969 13.839 12.1821 13.9089 12.0449L13.9316 11.9928C13.9532 11.9327 13.972 11.8453 13.9837 11.7018C13.9998 11.5046 14 11.2482 14 10.8665V10.1667ZM6.33334 9.16667H14V6.83334H6.33334V9.16667ZM3 9.16667H5.33334V6.83334H3V9.16667ZM3 10.8665C3 11.2482 3.00016 11.5046 3.01628 11.7018C3.03192 11.8932 3.0604 11.9846 3.09115 12.0449L3.12305 12.1022C3.20312 12.2328 3.3179 12.339 3.45508 12.4089L3.50716 12.4316C3.56733 12.4532 3.65468 12.472 3.79818 12.4837C3.99543 12.4998 4.25185 12.5 4.63347 12.5H5.33334V10.1667H3V10.8665ZM14 5.13347C14 4.75185 13.9998 4.49543 13.9837 4.29818C13.972 4.15468 13.9532 4.06733 13.9316 4.00716L13.9089 3.95508C13.839 3.8179 13.7328 3.70312 13.6022 3.62305L13.5449 3.59115C13.4846 3.5604 13.3932 3.53192 13.2018 3.51628C13.0046 3.50016 12.7482 3.5 12.3665 3.5H6.33334V5.83334H14V5.13347ZM3 5.83334H5.33334V3.5H4.63347C4.25185 3.5 3.99543 3.50016 3.79818 3.51628C3.65468 3.52801 3.56733 3.5468 3.50716 3.56836L3.45508 3.59115C3.31787 3.66107 3.2031 3.76723 3.12305 3.89779L3.09115 3.95508C3.06039 4.01544 3.03192 4.10685 3.01628 4.29818C3.00016 4.49543 3 4.75185 3 5.13347V5.83334ZM15 10.8665C15 11.2317 15.0007 11.5358 14.9805 11.7832C14.9624 12.0048 14.9254 12.2145 14.8398 12.4141L14.8001 12.4987C14.6464 12.8006 14.4122 13.053 14.125 13.2292L13.9987 13.3001C13.7739 13.4146 13.5364 13.4598 13.2832 13.4805C13.0358 13.5007 12.7317 13.5 12.3665 13.5H4.63347C4.26835 13.5 3.96422 13.5007 3.7168 13.4805C3.49521 13.4624 3.28553 13.4254 3.08594 13.3398L3.0013 13.3001C2.69939 13.1463 2.44698 12.9122 2.27084 12.625L2.19987 12.4987C2.0854 12.2739 2.04022 12.0364 2.01953 11.7832C1.99932 11.5358 2 11.2317 2 10.8665V5.13347C2 4.76835 1.99932 4.46422 2.01953 4.2168C2.04022 3.96365 2.0854 3.72607 2.19987 3.5013L2.27084 3.375C2.44699 3.08779 2.69943 2.85368 3.0013 2.69987L3.08594 2.66016C3.28553 2.57456 3.49521 2.53764 3.7168 2.51953C3.96422 2.49932 4.26835 2.5 4.63347 2.5H12.3665C12.7317 2.5 13.0358 2.49932 13.2832 2.51953C13.5364 2.54022 13.7739 2.5854 13.9987 2.69987L14.125 2.77084C14.4122 2.94698 14.6463 3.19939 14.8001 3.5013L14.8398 3.58594C14.9254 3.78553 14.9624 3.99521 14.9805 4.2168C15.0007 4.46422 15 4.76835 15 5.13347V10.8665Z" fill="currentColor"/>
</svg>
