<svg width="20" height="21" viewBox="0 0 20 21" fill="none" xmlns="http://www.w3.org/2000/svg">
<path d="M3.54167 16.4001V4.48926C3.54167 3.92837 3.76492 3.38986 4.16179 2.99349C4.5586 2.59731 5.0968 2.375 5.65756 2.375H12.2583L12.4227 2.38477C12.5856 2.40441 12.7442 2.45355 12.8906 2.52962C13.037 2.60569 13.1683 2.70707 13.278 2.8291L13.3805 2.95768V2.9585L16.4697 7.36442L16.5267 7.45312C16.6514 7.66368 16.7179 7.90453 16.7179 8.15055V16.4001C16.7179 16.9609 16.4946 17.4987 16.0978 17.895C15.701 18.2913 15.1629 18.5143 14.6021 18.5143H5.65756C5.0967 18.5143 4.55862 18.2913 4.16179 17.895C3.76493 17.4987 3.54168 16.9609 3.54167 16.4001ZM13.2414 13.1554C13.5864 13.1556 13.8664 13.4354 13.8664 13.7804C13.8663 14.1254 13.5863 14.4052 13.2414 14.4054H6.75944C6.41439 14.4054 6.13457 14.1255 6.13444 13.7804C6.13444 13.4353 6.41431 13.1555 6.75944 13.1554H13.2414ZM13.2414 10.8141L13.3049 10.8174C13.62 10.8494 13.8664 11.1155 13.8664 11.4391C13.8664 11.7627 13.62 12.0289 13.3049 12.0609L13.2414 12.0641H6.75944C6.41433 12.0641 6.13447 11.7842 6.13444 11.4391C6.13444 11.094 6.41431 10.8142 6.75944 10.8141H13.2414ZM13.2414 8.22135L13.3049 8.22461C13.6199 8.25655 13.8662 8.52289 13.8664 8.84635C13.8664 9.17 13.6201 9.43696 13.3049 9.46891L13.2414 9.47135H6.75944C6.41431 9.4713 6.13444 9.1915 6.13444 8.84635C6.13466 8.50139 6.41444 8.22141 6.75944 8.22135H13.2414ZM11.2964 5.63509L11.3607 5.63835C11.6757 5.67042 11.9213 5.93666 11.9214 6.26009C11.9214 6.58362 11.6757 6.84973 11.3607 6.88184L11.2964 6.88509H6.75944C6.41431 6.88504 6.13444 6.60524 6.13444 6.26009C6.13458 5.91506 6.4144 5.63515 6.75944 5.63509H11.2964ZM4.79167 16.4001C4.79168 16.6288 4.88263 16.8484 5.04476 17.0104C5.20706 17.1725 5.4277 17.2643 5.65756 17.2643H14.6021C14.8318 17.2643 15.0518 17.1725 15.214 17.0104C15.3763 16.8483 15.4679 16.6289 15.4679 16.4001V8.15055C15.4679 8.13837 15.4659 8.12626 15.4622 8.11475L15.446 8.08219L12.3568 3.67627V3.67546C12.3458 3.66012 12.3313 3.64763 12.3145 3.63883C12.3059 3.63441 12.2969 3.63054 12.2876 3.62826L12.2583 3.625H5.65756C5.4277 3.625 5.20706 3.716 5.04476 3.87809C4.88249 4.04016 4.79167 4.26039 4.79167 4.48926V16.4001Z" fill="currentColor"/>
</svg>
