<svg width="24" height="24" viewBox="0 0 24 24" fill="none" xmlns="http://www.w3.org/2000/svg">
<path d="M18.5 16.5C18.9142 16.5 19.25 16.8358 19.25 17.25C19.25 17.6642 18.9142 18 18.5 18H17.2041C17.2974 18.2639 17.2405 18.5691 17.0293 18.7803C16.7548 19.0545 16.3208 19.0718 16.0264 18.832L15.9688 18.7803L14.9697 17.7803L14.918 17.7227C14.9108 17.7138 14.9052 17.7034 14.8984 17.6943C14.8849 17.676 14.8722 17.6572 14.8604 17.6377C14.8475 17.6166 14.8357 17.5953 14.8252 17.5732C14.8154 17.5529 14.8068 17.5321 14.7988 17.5107C14.7898 17.4863 14.7828 17.4616 14.7764 17.4365C14.761 17.3767 14.75 17.3147 14.75 17.25C14.75 17.2408 14.7507 17.2317 14.751 17.2227C14.7512 17.2165 14.7516 17.2103 14.752 17.2041C14.7543 17.1651 14.7595 17.127 14.7676 17.0898C14.773 17.0649 14.782 17.041 14.79 17.0166C14.8117 16.9507 14.8389 16.8875 14.877 16.8311C14.888 16.8147 14.9026 16.8008 14.915 16.7852C15.0052 16.6719 15.126 16.5862 15.2666 16.54C15.291 16.532 15.3149 16.523 15.3398 16.5176C15.377 16.5095 15.4151 16.5043 15.4541 16.502C15.4603 16.5016 15.4665 16.5012 15.4727 16.501C15.4817 16.5007 15.4908 16.5 15.5 16.5H18.5Z" fill="#555555"/>
<path d="M16.9717 13.2197C17.2463 12.9456 17.6802 12.928 17.9746 13.168L18.0322 13.2197L19.0312 14.2197L19.083 14.2773C19.0901 14.2861 19.0949 14.2967 19.1016 14.3057C19.1152 14.3242 19.1277 14.3435 19.1396 14.3633C19.1518 14.3834 19.1628 14.4039 19.1729 14.4248C19.1829 14.4455 19.1921 14.4666 19.2002 14.4883C19.2094 14.513 19.2171 14.5381 19.2236 14.5635C19.239 14.6232 19.25 14.6855 19.25 14.75C19.25 14.7588 19.2484 14.7677 19.248 14.7764C19.2478 14.7828 19.2475 14.7894 19.2471 14.7959C19.2447 14.8345 19.2394 14.8723 19.2314 14.9092C19.2259 14.9344 19.2171 14.9588 19.209 14.9834C19.1511 15.1591 19.0315 15.3041 18.874 15.3955C18.8478 15.4107 18.8224 15.4267 18.7949 15.4385C18.7839 15.4432 18.772 15.446 18.7607 15.4502C18.727 15.4628 18.6931 15.4739 18.6582 15.4814C18.6213 15.4894 18.5836 15.4948 18.5449 15.4971C18.5387 15.4974 18.5326 15.4978 18.5264 15.498C18.5176 15.4984 18.5088 15.5 18.5 15.5H15.5C15.0859 15.5 14.7502 15.164 14.75 14.75C14.75 14.3358 15.0858 14 15.5 14H16.7959C16.7025 13.736 16.7603 13.431 16.9717 13.2197Z" fill="#555555"/>
<path fill-rule="evenodd" clip-rule="evenodd" d="M19 10.25C21.0711 10.25 22.75 11.9289 22.75 14V18C22.75 20.0711 21.0711 21.75 19 21.75H15C12.9289 21.75 11.25 20.0711 11.25 18V14C11.25 11.9289 12.9289 10.25 15 10.25H19ZM15 11.75C13.7574 11.75 12.75 12.7574 12.75 14V18C12.75 19.2426 13.7574 20.25 15 20.25H19C20.2426 20.25 21.25 19.2426 21.25 18V14C21.25 12.7574 20.2426 11.75 19 11.75H15Z" fill="#555555"/>
<path d="M16.5 2.25C18.2949 2.25 19.75 3.70507 19.75 5.5V8C19.75 8.41421 19.4142 8.75 19 8.75C18.5858 8.75 18.25 8.41421 18.25 8V5.5C18.25 4.5335 17.4665 3.75 16.5 3.75H4.5C3.5335 3.75 2.75 4.5335 2.75 5.5V13.5C2.75 14.4665 3.5335 15.25 4.5 15.25H9C9.41421 15.25 9.75 15.5858 9.75 16C9.75 16.4142 9.41421 16.75 9 16.75H4.5C2.70507 16.75 1.25 15.2949 1.25 13.5V5.5C1.25 3.70507 2.70507 2.25 4.5 2.25H16.5Z" fill="#555555"/>
<path d="M6 12.25C6.41421 12.25 6.75 12.5858 6.75 13C6.75 13.4142 6.41421 13.75 6 13.75H5C4.58579 13.75 4.25 13.4142 4.25 13C4.25 12.5858 4.58579 12.25 5 12.25H6Z" fill="#555555"/>
<path d="M9.65918 6.36035C10.7104 6.07881 11.8277 6.34333 12.6396 7.05371L12.7979 7.20215L12.8496 7.25879C13.09 7.55337 13.0725 7.98808 12.7979 8.2627C12.5234 8.53696 12.0894 8.55428 11.7949 8.31445L11.7373 8.2627L11.6523 8.18262C11.2151 7.80004 10.613 7.65788 10.0469 7.80957C9.44313 7.97142 8.97142 8.44313 8.80957 9.04688C8.65788 9.61299 8.80004 10.2151 9.18262 10.6523L9.2627 10.7373L9.31445 10.7949C9.55428 11.0894 9.53696 11.5234 9.2627 11.7979C8.98808 12.0725 8.55337 12.09 8.25879 11.8496L8.20215 11.7979L8.05371 11.6396C7.34333 10.8277 7.07881 9.71041 7.36035 8.65918C7.66087 7.53763 8.53763 6.66087 9.65918 6.36035Z" fill="#555555"/>
<path d="M16 5.25C16.4142 5.25 16.75 5.58579 16.75 6C16.75 6.41421 16.4142 6.75 16 6.75H15C14.5858 6.75 14.25 6.41421 14.25 6C14.25 5.58579 14.5858 5.25 15 5.25H16Z" fill="#555555"/>
</svg>
