<svg width="12" height="12" viewBox="0 0 12 12" fill="none" xmlns="http://www.w3.org/2000/svg">
<path d="M3.75293 7.854C3.40491 7.854 3.12261 8.13588 3.12256 8.48389C3.12256 8.49566 3.12339 8.50743 3.12402 8.51904C3.12544 8.53079 3.12665 8.54264 3.12695 8.55469C3.16211 8.86944 3.42879 9.11426 3.75293 9.11426C4.03816 9.11423 4.27878 8.92454 4.35645 8.66455C4.34296 8.62588 4.33447 8.58477 4.33447 8.5415C4.33447 8.48251 4.34877 8.4271 4.37305 8.37744C4.32235 8.08023 4.06458 7.85403 3.75293 7.854ZM8.0127 7.854C7.66468 7.85401 7.38238 8.13588 7.38232 8.48389C7.38523 8.50268 7.38721 8.52189 7.38721 8.5415C7.38721 8.54559 7.38636 8.54965 7.38623 8.55371C7.42092 8.86895 7.68821 9.11425 8.0127 9.11426C8.36075 9.11426 8.64307 8.83194 8.64307 8.48389C8.64301 8.13588 8.36072 7.854 8.0127 7.854ZM7.30859 6.49902V4.25049C7.30158 4.22183 7.29688 4.19195 7.29688 4.16113C7.29689 4.13025 7.30154 4.10049 7.30859 4.07178V3.39795C7.30859 3.32929 7.29532 3.26119 7.26904 3.19775C7.24279 3.13438 7.20425 3.07684 7.15576 3.02832C7.10721 2.97977 7.04928 2.94132 6.98584 2.91504C6.93833 2.89537 6.88839 2.88248 6.8374 2.87744L6.78613 2.875H2.39795C2.25928 2.875 2.12638 2.93026 2.02832 3.02832C1.93026 3.12638 1.875 3.25928 1.875 3.39795V7.6665C1.87501 7.80516 1.93028 7.93809 2.02832 8.03613C2.12637 8.13415 2.25931 8.18945 2.39795 8.18945H2.40527C2.54029 7.56881 3.09183 7.104 3.75293 7.104C4.40578 7.10403 4.95118 7.55748 5.09473 8.1665H6.6709C6.81445 7.55747 7.35983 7.10401 8.0127 7.104C8.65942 7.104 9.20039 7.54905 9.3501 8.14941H10.1367V6.19287L10.1309 6.12402C10.1195 6.05622 10.0922 5.9917 10.0508 5.93604L9.04297 4.5957L9.01855 4.5708C9.00942 4.56341 8.99941 4.55692 8.98877 4.55176C8.96766 4.54153 8.94436 4.53611 8.9209 4.53613H8.05859V6.49902C8.05859 6.70613 7.8907 6.87402 7.68359 6.87402C7.47659 6.87391 7.30859 6.70606 7.30859 6.49902ZM8.05859 3.78613H8.92041L9.02246 3.79199C9.1243 3.80347 9.22377 3.83247 9.31641 3.87744C9.40891 3.92237 9.49301 3.98238 9.56494 4.05518L9.63281 4.13232L9.6377 4.13867L10.6504 5.48535L10.6509 5.48633L10.7046 5.56396C10.8221 5.75041 10.8853 5.96686 10.8867 6.18848V8.43457C10.8867 8.55785 10.8376 8.67602 10.7505 8.76318C10.6633 8.85033 10.5451 8.89941 10.4219 8.89941H9.3291C9.15279 9.45864 8.63018 9.86426 8.0127 9.86426C7.40162 9.86425 6.8842 9.46675 6.70264 8.9165H5.0625C4.8809 9.46667 4.36394 9.86423 3.75293 9.86426C3.15045 9.86426 2.63948 9.47766 2.45117 8.93945H2.39795C2.0604 8.93945 1.73675 8.80507 1.49805 8.56641C1.25935 8.32771 1.12501 8.00407 1.125 7.6665V3.39795C1.125 3.06036 1.25934 2.73676 1.49805 2.49805C1.73676 2.25934 2.06036 2.125 2.39795 2.125H6.78613L6.91064 2.13135C7.03496 2.14359 7.15711 2.17372 7.27295 2.22168C7.42738 2.28565 7.56784 2.37985 7.68604 2.49805C7.80414 2.61619 7.89797 2.75631 7.96191 2.91064C8.02588 3.06508 8.05859 3.23079 8.05859 3.39795V3.78613Z" fill="#461B02"/>
</svg>
