<svg width="14" height="15" viewBox="0 0 14 15" fill="none" xmlns="http://www.w3.org/2000/svg">
<path d="M4.37842 9.41235C3.97239 9.41235 3.64305 9.74121 3.64299 10.1472C3.64299 10.161 3.64395 10.1747 3.64469 10.1882C3.64635 10.2019 3.64776 10.2158 3.64811 10.2298C3.68913 10.597 4.00026 10.8827 4.37842 10.8827C4.71119 10.8826 4.99191 10.6613 5.08252 10.358C5.06679 10.3129 5.05689 10.2649 5.05689 10.2144C5.05689 10.1456 5.07357 10.081 5.10189 10.023C5.04275 9.67629 4.74201 9.41239 4.37842 9.41235ZM9.34815 9.41235C8.94213 9.41237 8.61277 9.74122 8.61271 10.1472C8.6161 10.1691 8.61841 10.1916 8.61841 10.2144C8.61841 10.2192 8.61742 10.2239 8.61727 10.2287C8.65774 10.5965 8.96958 10.8826 9.34815 10.8827C9.75421 10.8827 10.0836 10.5533 10.0836 10.1472C10.0835 9.74121 9.75417 9.41235 9.34815 9.41235ZM8.52669 7.83154V5.20825C8.51851 5.17482 8.51302 5.13996 8.51302 5.104C8.51304 5.06797 8.51846 5.03325 8.52669 4.99976V4.21362C8.52669 4.13351 8.51121 4.05407 8.48055 3.98006C8.44992 3.90612 8.40496 3.839 8.34839 3.78239C8.29174 3.72574 8.22416 3.68088 8.15015 3.65023C8.09472 3.62728 8.03645 3.61225 7.97697 3.60636L7.91716 3.60352H2.79761C2.63582 3.60352 2.48077 3.66799 2.36637 3.78239C2.25197 3.89679 2.1875 4.05184 2.1875 4.21362V9.1936C2.18752 9.35537 2.25199 9.51045 2.36637 9.62484C2.48077 9.73919 2.63586 9.80371 2.79761 9.80371H2.80615C2.96367 9.07963 3.60713 8.53735 4.37842 8.53735C5.14008 8.53739 5.77638 9.06641 5.94385 9.77694H7.78272C7.95019 9.0664 8.58647 8.53736 9.34815 8.53735C10.1027 8.53735 10.7338 9.05657 10.9084 9.757H11.8262V7.47437L11.8193 7.39404C11.8061 7.31494 11.7743 7.23967 11.7259 7.17472L10.5501 5.611L10.5216 5.58195C10.511 5.57333 10.4993 5.56576 10.4869 5.55973C10.4623 5.5478 10.4351 5.54148 10.4077 5.5415H9.40169V7.83154C9.40169 8.07317 9.20582 8.26904 8.96419 8.26904C8.72269 8.26891 8.52669 8.07308 8.52669 7.83154ZM9.40169 4.6665H10.4071L10.5262 4.67334C10.645 4.68673 10.7611 4.72057 10.8691 4.77303C10.9771 4.82545 11.0752 4.89545 11.1591 4.98039L11.2383 5.07039L11.244 5.0778L12.4255 6.64893L12.426 6.65007L12.4887 6.74064C12.6257 6.95816 12.6995 7.21069 12.7012 7.46924V10.0897C12.7012 10.2335 12.6439 10.3714 12.5422 10.4731C12.4405 10.5747 12.3027 10.632 12.1589 10.632H10.884C10.6783 11.2844 10.0685 11.7577 9.34815 11.7577C8.63522 11.7576 8.03157 11.2939 7.81974 10.6519H5.90625C5.69439 11.2938 5.09126 11.7576 4.37842 11.7577C3.67552 11.7577 3.0794 11.3066 2.8597 10.6787H2.79761C2.40379 10.6787 2.02621 10.5219 1.74772 10.2435C1.46924 9.96501 1.31252 9.58743 1.3125 9.1936V4.21362C1.3125 3.81977 1.46923 3.44223 1.74772 3.16374C2.02622 2.88524 2.40376 2.72852 2.79761 2.72852H7.91716L8.06242 2.73592C8.20746 2.7502 8.34997 2.78535 8.48511 2.84131C8.66528 2.91594 8.82915 3.02584 8.96704 3.16374C9.10483 3.30157 9.2143 3.46505 9.2889 3.6451C9.36353 3.82527 9.40169 4.01861 9.40169 4.21362V4.6665Z" fill="#461B02"/>
</svg>
