<svg width="94" height="94" viewBox="0 0 94 94" fill="none" xmlns="http://www.w3.org/2000/svg">
  <!-- Main truck body -->
  <rect x="15" y="35" width="50" height="25" rx="2" fill="url(#paint0_linear)"/>
  
  <!-- Truck cabin -->
  <rect x="65" y="42" width="18" height="18" rx="2" fill="url(#paint1_linear)"/>
  
  <!-- Truck front -->
  <rect x="83" y="45" width="8" height="15" rx="1" fill="#3DECFF"/>
  
  <!-- Wheels -->
  <circle cx="30" cy="65" r="5" fill="#00043D"/>
  <circle cx="30" cy="65" r="2.5" fill="#EDF0FF"/>
  
  <circle cx="70" cy="65" r="5" fill="#00043D"/>
  <circle cx="70" cy="65" r="2.5" fill="#EDF0FF"/>
  
  <!-- Speed lines -->
  <rect x="5" y="38" width="8" height="2" rx="1" fill="url(#paint2_linear)"/>
  <rect x="5" y="43" width="6" height="2" rx="1" fill="url(#paint1_linear)"/>
  <rect x="5" y="48" width="10" height="2" rx="1" fill="url(#paint0_linear)"/>
  
  <!-- Red X circle -->
  <circle cx="25" cy="45" r="10" fill="#EF4444"/>
  <path d="M20 40L30 50M30 40L20 50" stroke="white" stroke-width="2" stroke-linecap="round"/>
  
  <defs>
    <linearGradient id="paint0_linear" x1="15" y1="35" x2="65" y2="60" gradientUnits="userSpaceOnUse">
      <stop stop-color="#FFBC00"/>
      <stop offset="1" stop-color="#FFD14F"/>
    </linearGradient>
    <linearGradient id="paint1_linear" x1="65" y1="42" x2="83" y2="60" gradientUnits="userSpaceOnUse">
      <stop stop-color="#176CF7"/>
      <stop offset="1" stop-color="#0C36C1"/>
    </linearGradient>
    <linearGradient id="paint2_linear" x1="5" y1="38" x2="13" y2="40" gradientUnits="userSpaceOnUse">
      <stop stop-color="#176CF7"/>
      <stop offset="1" stop-color="#0C36C1"/>
    </linearGradient>
  </defs>
</svg>