<svg width="16" height="16" viewBox="0 0 16 16" fill="none" xmlns="http://www.w3.org/2000/svg">
<path d="M5.00391 11.7301C4.53988 11.7301 4.16348 12.1059 4.16341 12.5699C4.16341 12.5856 4.16452 12.6013 4.16536 12.6168C4.16725 12.6325 4.16887 12.6483 4.16927 12.6643C4.21615 13.084 4.57172 13.4104 5.00391 13.4104C5.38422 13.4104 5.70504 13.1575 5.80859 12.8108C5.79062 12.7593 5.7793 12.7045 5.7793 12.6468C5.7793 12.5681 5.79836 12.4942 5.83073 12.428C5.76314 12.0317 5.41944 11.7301 5.00391 11.7301ZM10.6836 11.7301C10.2196 11.7301 9.84317 12.1059 9.8431 12.5699C9.84697 12.595 9.84961 12.6206 9.84961 12.6468C9.84961 12.6522 9.84848 12.6576 9.84831 12.663C9.89456 13.0834 10.251 13.4104 10.6836 13.4104C11.1477 13.4104 11.5241 13.034 11.5241 12.5699C11.524 12.1059 11.1476 11.7301 10.6836 11.7301ZM9.74479 9.92346V6.92542C9.73545 6.88721 9.72917 6.84736 9.72917 6.80627C9.72919 6.76509 9.73538 6.72542 9.74479 6.68713V5.7887C9.74479 5.69714 9.72709 5.60635 9.69206 5.52177C9.65705 5.43727 9.60567 5.36056 9.54102 5.29586C9.47628 5.23112 9.39904 5.17985 9.31445 5.14482C9.25111 5.11859 9.18452 5.10141 9.11654 5.09469L9.04818 5.09143H3.19727C3.01237 5.09143 2.83517 5.16512 2.70443 5.29586C2.57368 5.4266 2.5 5.6038 2.5 5.7887V11.4801C2.50002 11.665 2.5737 11.8422 2.70443 11.9729C2.83516 12.1036 3.01241 12.1774 3.19727 12.1774H3.20703C3.38706 11.3498 4.12244 10.7301 5.00391 10.7301C5.87437 10.7301 6.60158 11.3347 6.79297 12.1468H8.89453C9.08593 11.3347 9.81311 10.7301 10.6836 10.7301C11.5459 10.7301 12.2672 11.3235 12.4668 12.124H13.5156V9.51526L13.5078 9.42346C13.4927 9.33305 13.4563 9.24704 13.401 9.17281L12.0573 7.3857L12.0247 7.3525C12.0126 7.34265 11.9992 7.33399 11.985 7.32711C11.9569 7.31347 11.9258 7.30624 11.8945 7.30627H10.7448V9.92346C10.7448 10.1996 10.5209 10.4235 10.2448 10.4235C9.96878 10.4233 9.74479 10.1995 9.74479 9.92346ZM10.7448 6.30627H11.8939L12.0299 6.31409C12.1657 6.32939 12.2984 6.36806 12.4219 6.42802C12.5452 6.48792 12.6573 6.56793 12.7533 6.665L12.8438 6.76786L12.8503 6.77633L14.2005 8.5719L14.2012 8.5732L14.2728 8.67672C14.4294 8.92531 14.5137 9.21391 14.5156 9.5094V12.5042C14.5156 12.6686 14.4502 12.8261 14.334 12.9423C14.2178 13.0585 14.0602 13.124 13.8958 13.124H12.4388C12.2037 13.8696 11.5069 14.4104 10.6836 14.4104C9.86882 14.4104 9.17893 13.8804 8.93685 13.1468H6.75C6.50787 13.8803 5.81859 14.4104 5.00391 14.4104C4.2006 14.4104 3.51931 13.895 3.26823 13.1774H3.19727C2.74719 13.1774 2.31567 12.9982 1.9974 12.68C1.67913 12.3617 1.50002 11.9302 1.5 11.4801V5.7887C1.5 5.33858 1.67912 4.90711 1.9974 4.58883C2.31567 4.27055 2.74715 4.09143 3.19727 4.09143H9.04818L9.21419 4.09989C9.37995 4.11621 9.54282 4.15639 9.69727 4.22034C9.90317 4.30563 10.0905 4.43123 10.248 4.58883C10.4055 4.74635 10.5306 4.93318 10.6159 5.13896C10.7012 5.34487 10.7448 5.56582 10.7448 5.7887V6.30627Z" fill="#461B02"/>
<path d="M8.28744 4.36436C8.28744 4.88423 8.14186 5.37637 7.88539 5.79226C7.73983 6.0418 7.55269 6.26361 7.33781 6.44383C6.8526 6.88052 6.2149 7.13698 5.51481 7.13698C4.5028 7.13698 3.62251 6.59632 3.14423 5.79226C2.88776 5.37637 2.74219 4.88423 2.74219 4.36436C2.74219 3.49098 3.14422 2.70772 3.78192 2.20171C4.2602 1.82048 4.86324 1.59174 5.51481 1.59174C7.04669 1.59174 8.28744 2.83248 8.28744 4.36436Z" fill="#FFC217" stroke="#461B02" stroke-miterlimit="10" stroke-linecap="round" stroke-linejoin="round"/>
<path d="M6.25747 5.08554L4.79492 3.62299" stroke="#461B02" stroke-miterlimit="10" stroke-linecap="round" stroke-linejoin="round"/>
<path d="M6.23404 3.64319L4.77148 5.10574" stroke="#461B02" stroke-miterlimit="10" stroke-linecap="round" stroke-linejoin="round"/>
</svg>