<svg width="16" height="16" viewBox="0 0 16 16" fill="none" xmlns="http://www.w3.org/2000/svg">
<path fill-rule="evenodd" clip-rule="evenodd" d="M11.807 3.34116C12.1447 3.37723 12.4584 3.53459 12.6944 3.78256C12.9633 4.06536 13.111 4.44366 13.111 4.83334V5.33334H13.8005C13.9651 5.33319 14.127 5.37242 14.2732 5.44662C14.3829 5.5024 14.4813 5.57685 14.5648 5.66537L14.6436 5.75847L15.7256 7.27084L15.7263 7.27149L15.7868 7.36329C15.9188 7.58301 15.9894 7.83594 15.9913 8.09311V10.597C15.9913 10.7487 15.9334 10.8988 15.8246 11.013C15.7286 11.1136 15.5988 11.1792 15.4568 11.194L15.3956 11.1973H14.473C14.2118 11.7414 13.6573 12.1184 13.0134 12.1185C12.318 12.1184 11.7267 11.6792 11.4971 11.0638H10.0062C9.77656 11.6793 9.18414 12.1184 8.48865 12.1185C7.80245 12.1183 7.21738 11.6905 6.98149 11.0879C6.5938 11.0837 6.22705 10.9213 5.96001 10.6413C5.8735 10.5505 5.80113 10.4489 5.74061 10.3412L1.59608 12.0801L1.5479 12.097C1.30572 12.1708 1.0421 12.0508 0.941779 11.8125C0.834975 11.5579 0.954784 11.2644 1.20936 11.1576L5.54269 9.33985V4.83334C5.54269 4.44311 5.69037 4.06416 5.96001 3.78126C6.23049 3.49766 6.60324 3.33343 6.99647 3.33334H11.6612L11.807 3.34116ZM8.48865 9.87892C8.14648 9.8792 7.86893 10.1566 7.86886 10.4987C7.86904 10.8407 8.14655 11.1182 8.48865 11.1185C8.83091 11.1184 9.10892 10.8408 9.1091 10.4987C9.10903 10.1565 8.83098 9.87902 8.48865 9.87892ZM13.0134 9.87892C12.6711 9.87903 12.3937 10.1565 12.3936 10.4987C12.3936 10.5066 12.394 10.5144 12.3943 10.5221C12.3954 10.536 12.3988 10.5497 12.3988 10.5638C12.3988 10.566 12.3975 10.5682 12.3975 10.5703C12.4332 10.8787 12.6954 11.1184 13.0134 11.1185C13.3556 11.1184 13.6337 10.8408 13.6338 10.4987C13.6338 10.1565 13.3557 9.87903 13.0134 9.87892ZM6.99647 4.33334C6.88421 4.33343 6.77096 4.3802 6.68397 4.47136C6.59619 4.56349 6.54269 4.69335 6.54269 4.83334V9.5892C6.54271 9.72916 6.59621 9.85907 6.68397 9.95118C6.75234 10.0228 6.83737 10.0657 6.92485 10.0814C7.10898 9.38923 7.73858 8.87915 8.48865 8.87892C9.23249 8.879 9.85834 9.38054 10.0485 10.0638H11.4548C11.645 9.38062 12.2696 8.87901 13.0134 8.87892C13.8049 8.87901 14.4632 9.44672 14.6045 10.1973H14.9913V8.10027L14.9854 8.03256C14.9747 7.96595 14.9489 7.90366 14.9118 7.85157L13.8435 6.35873L13.8207 6.3379C13.8139 6.33444 13.8072 6.33339 13.8018 6.33334H13.111V8.28907C13.111 8.56503 12.887 8.78883 12.611 8.78907C12.3351 8.7889 12.1111 8.56508 12.111 8.28907V4.83334C12.111 4.69356 12.0573 4.56413 11.9698 4.47202C11.9047 4.40362 11.825 4.36 11.7419 4.34246L11.6586 4.33334H6.99647Z" fill="currentColor"/>
<path fill-rule="evenodd" clip-rule="evenodd" d="M3.37537 6.01173C3.69803 5.91503 4.04085 6.08062 4.16248 6.40366L5.05506 8.7767L5.07589 8.84181C5.15699 9.14773 5.01422 9.47655 4.7354 9.62631L4.6742 9.65561L2.45285 10.5742L2.38904 10.5977C2.08794 10.6877 1.76917 10.5497 1.62928 10.2682L1.60259 10.2051L0.709357 7.83269C0.587834 7.50969 0.730526 7.14361 1.02902 6.98308L1.09087 6.95379L3.31157 6.03452L3.37537 6.01173ZM1.75102 7.76238L2.40923 9.51108L4.01404 8.84702L3.35584 7.09832L1.75102 7.76238Z" fill="currentColor"/>
</svg>
