<svg width="24" height="25" viewBox="0 0 24 25" fill="none" xmlns="http://www.w3.org/2000/svg">
<path fill-rule="evenodd" clip-rule="evenodd" d="M2.02148 13.169C2.02148 10.7898 3.89542 8.84788 6.24772 8.73886L6.45648 8.73403H7.38948C7.8037 8.73403 8.13948 9.06981 8.13948 9.48403C8.13948 9.86372 7.85733 10.1775 7.49125 10.2272L7.38948 10.234H6.45648C4.89358 10.234 3.61575 11.456 3.52647 12.9966L3.52148 13.169L3.52148 18.044C3.52148 19.6061 4.74362 20.8838 6.28406 20.973L6.45648 20.978H17.5865C19.1493 20.978 20.4272 19.7561 20.5165 18.2164L20.5215 18.044V13.159C20.5215 11.6017 19.3039 10.328 17.7693 10.239L17.5975 10.234H16.6545C16.2403 10.234 15.9045 9.89824 15.9045 9.48403C15.9045 9.10433 16.1866 8.79054 16.5527 8.74087L16.6545 8.73403H17.5975C19.9687 8.73403 21.9046 10.6008 22.0164 12.9447L22.0215 13.159V18.044C22.0215 20.4225 20.1474 22.3642 17.7952 22.4732L17.5865 22.478H6.45648C4.07743 22.478 2.13535 20.6043 2.02631 18.2527L2.02148 18.044V13.169ZM11.4797 2.17182C11.6162 2.02928 11.8084 1.94053 12.0214 1.94053C12.2365 1.94053 12.4304 2.03107 12.5672 2.17612L15.4687 5.08959C15.761 5.38308 15.76 5.85795 15.4665 6.15025C15.1997 6.41596 14.783 6.43932 14.4898 6.22086L14.4059 6.14807L12.7714 4.508L12.7714 14.7315C12.7714 15.1457 12.4356 15.4815 12.0214 15.4815C11.6417 15.4815 11.3279 15.1994 11.2782 14.8333L11.2714 14.7315L11.2714 4.50632L9.63779 6.14798C9.37212 6.41483 8.95551 6.43997 8.66142 6.22277L8.57714 6.15034C8.31028 5.88466 8.28514 5.46805 8.50234 5.17396L8.57478 5.08968L11.4797 2.17182Z" fill="#555555"/>
<path d="M6.24772 8.73886L6.24194 8.48886L6.23615 8.48912L6.24772 8.73886ZM6.45648 8.73403V8.48396L6.4507 8.48409L6.45648 8.73403ZM7.49125 10.2272L7.50804 10.4766L7.51648 10.476L7.52486 10.4749L7.49125 10.2272ZM7.38948 10.234V10.484H7.39788L7.40626 10.4835L7.38948 10.234ZM3.52647 12.9966L3.27678 12.9821L3.27657 12.9894L3.52647 12.9966ZM3.52148 13.169L3.27148 13.1618V13.169H3.52148ZM6.28406 20.973L6.26959 21.2227L6.27684 21.2229L6.28406 20.973ZM6.45648 20.978L6.44926 21.228H6.45648V20.978ZM20.5165 18.2164L20.7662 18.2309L20.7664 18.2236L20.5165 18.2164ZM20.5215 18.044L20.7715 18.0513V18.044H20.5215ZM17.7693 10.239L17.7837 9.98931L17.7765 9.9891L17.7693 10.239ZM17.5975 10.234L17.6047 9.98403H17.5975V10.234ZM16.5527 8.74087L16.5359 8.49144L16.5275 8.49201L16.5191 8.49314L16.5527 8.74087ZM16.6545 8.73403V8.48403H16.6461L16.6377 8.48459L16.6545 8.73403ZM22.0164 12.9447L22.2664 12.9387L22.2661 12.9328L22.0164 12.9447ZM22.0215 13.159H22.2716L22.2714 13.1531L22.0215 13.159ZM17.7952 22.4732L17.801 22.7232L17.8068 22.7229L17.7952 22.4732ZM17.5865 22.478V22.7281L17.5923 22.728L17.5865 22.478ZM2.02631 18.2527L1.77631 18.2585L1.77658 18.2643L2.02631 18.2527ZM2.02148 18.044H1.77142L1.77155 18.0498L2.02148 18.044ZM11.4797 2.17182L11.6569 2.34823L11.6602 2.34475L11.4797 2.17182ZM12.5672 2.17612L12.3852 2.34769L12.39 2.35254L12.5672 2.17612ZM15.4687 5.08959L15.2916 5.266V5.266L15.4687 5.08959ZM15.4665 6.15025L15.6429 6.32738L15.4665 6.15025ZM14.4898 6.22086L14.3261 6.40976L14.3331 6.41581L14.3405 6.42132L14.4898 6.22086ZM14.4059 6.14807L14.2288 6.32454L14.2352 6.331L14.2421 6.33697L14.4059 6.14807ZM12.7714 4.508L12.9485 4.33152L12.5214 3.90298V4.508H12.7714ZM11.2782 14.8333L11.0288 14.8501L11.0294 14.8585L11.0305 14.8669L11.2782 14.8333ZM11.2714 14.7315H11.0214V14.7399L11.0219 14.7483L11.2714 14.7315ZM11.2714 4.50632H11.5214V3.90066L11.0942 4.32998L11.2714 4.50632ZM9.63779 6.14798L9.81496 6.32436L9.815 6.32432L9.63779 6.14798ZM8.66142 6.22277L8.49847 6.41237L8.50547 6.41838L8.51289 6.42387L8.66142 6.22277ZM8.57714 6.15034L8.40075 6.32751L8.40724 6.33397L8.41419 6.33994L8.57714 6.15034ZM8.50234 5.17396L8.31274 5.01101L8.30673 5.01801L8.30124 5.02544L8.50234 5.17396ZM8.57478 5.08968L8.39761 4.9133L8.39114 4.91979L8.38518 4.92673L8.57478 5.08968ZM6.23615 8.48912C3.75104 8.6043 1.77148 10.6556 1.77148 13.169H2.27148C2.27148 10.924 4.03979 9.09146 6.2593 8.98859L6.23615 8.48912ZM6.4507 8.48409L6.24194 8.48892L6.2535 8.98879L6.46227 8.98396L6.4507 8.48409ZM7.38948 8.48403H6.45648V8.98403H7.38948V8.48403ZM8.38948 9.48403C8.38948 8.93174 7.94177 8.48403 7.38948 8.48403V8.98403C7.66563 8.98403 7.88948 9.20788 7.88948 9.48403H8.38948ZM7.52486 10.4749C8.01321 10.4087 8.38948 9.99049 8.38948 9.48403H7.88948C7.88948 9.73695 7.70145 9.94637 7.45765 9.97945L7.52486 10.4749ZM7.40626 10.4835L7.50804 10.4766L7.47447 9.97774L7.3727 9.98459L7.40626 10.4835ZM6.45648 10.484H7.38948V9.98403H6.45648V10.484ZM3.77605 13.0111C3.85771 11.602 5.02681 10.484 6.45648 10.484V9.98403C4.76035 9.98403 3.37378 11.3101 3.27689 12.9821L3.77605 13.0111ZM3.77138 13.1762L3.77636 13.0038L3.27657 12.9894L3.27159 13.1618L3.77138 13.1762ZM3.77148 18.044L3.77148 13.169H3.27148L3.27148 18.044H3.77148ZM6.29852 20.7235C4.88946 20.6418 3.77148 19.4728 3.77148 18.044H3.27148C3.27148 19.7394 4.59777 21.1257 6.2696 21.2226L6.29852 20.7235ZM6.46371 20.7281L6.29128 20.7231L6.27684 21.2229L6.44926 21.2279L6.46371 20.7281ZM17.5865 20.728H6.45648V21.228H17.5865V20.728ZM20.2669 18.2019C20.1853 19.6101 19.0161 20.728 17.5865 20.728V21.228C19.2824 21.228 20.6692 19.9021 20.7661 18.2308L20.2669 18.2019ZM20.2716 18.0368L20.2666 18.2091L20.7664 18.2236L20.7714 18.0513L20.2716 18.0368ZM20.2715 13.159V18.044H20.7715V13.159H20.2715ZM17.7548 10.4886C19.1579 10.5699 20.2715 11.7348 20.2715 13.159H20.7715C20.7715 11.4685 19.4499 10.086 17.7837 9.98941L17.7548 10.4886ZM17.5903 10.4839L17.762 10.4889L17.7765 9.9891L17.6047 9.98413L17.5903 10.4839ZM16.6545 10.484H17.5975V9.98403H16.6545V10.484ZM15.6545 9.48403C15.6545 10.0363 16.1022 10.484 16.6545 10.484V9.98403C16.3783 9.98403 16.1545 9.76017 16.1545 9.48403H15.6545ZM16.5191 8.49314C16.0308 8.55939 15.6545 8.97756 15.6545 9.48403H16.1545C16.1545 9.2311 16.3425 9.02168 16.5863 8.98861L16.5191 8.49314ZM16.6377 8.48459L16.5359 8.49144L16.5695 8.99031L16.6713 8.98346L16.6377 8.48459ZM17.5975 8.48403H16.6545V8.98403H17.5975V8.48403ZM22.2661 12.9328C22.148 10.4563 20.1029 8.48403 17.5975 8.48403V8.98403C19.8346 8.98403 21.6612 10.7453 21.7667 12.9566L22.2661 12.9328ZM22.2714 13.1531L22.2663 12.9387L21.7665 12.9506L21.7716 13.165L22.2714 13.1531ZM22.2715 18.044V13.159H21.7715V18.044H22.2715ZM17.8068 22.7229C20.2917 22.6078 22.2715 20.5567 22.2715 18.044H21.7715C21.7715 20.2882 20.003 22.1206 17.7837 22.2235L17.8068 22.7229ZM17.5923 22.728L17.801 22.7231L17.7895 22.2233L17.5807 22.2281L17.5923 22.728ZM6.45648 22.728H17.5865V22.228H6.45648V22.728ZM1.77658 18.2643C1.89177 20.7487 3.94328 22.728 6.45648 22.728V22.228C4.21158 22.228 2.37892 20.4598 2.27604 18.2411L1.77658 18.2643ZM1.77155 18.0498L1.77638 18.2585L2.27625 18.2469L2.27142 18.0382L1.77155 18.0498ZM1.77148 13.169L1.77148 18.044H2.27148V13.169H1.77148ZM12.0214 1.69053C11.7375 1.69053 11.4809 1.80917 11.2991 1.99889L11.6602 2.34475C11.7516 2.2494 11.8794 2.19053 12.0214 2.19053V1.69053ZM12.7491 2.00463C12.5671 1.81156 12.3082 1.69053 12.0214 1.69053V2.19053C12.1648 2.19053 12.2938 2.25058 12.3853 2.34762L12.7491 2.00463ZM12.39 2.35254L15.2916 5.266L15.6458 4.91318L12.7443 1.99971L12.39 2.35254ZM15.2916 5.266C15.4864 5.46166 15.4858 5.77824 15.2901 5.97311L15.6429 6.32738C16.0343 5.93766 16.0356 5.3045 15.6458 4.91317L15.2916 5.266ZM15.2901 5.97311C15.1124 6.15009 14.8345 6.1659 14.6392 6.0204L14.3405 6.42132C14.7315 6.71274 15.287 6.68183 15.6429 6.32738L15.2901 5.97311ZM14.6536 6.03195L14.5696 5.95916L14.2421 6.33697L14.3261 6.40976L14.6536 6.03195ZM14.5829 5.97159L12.9485 4.33152L12.5943 4.68447L14.2288 6.32454L14.5829 5.97159ZM13.0214 14.7315L13.0214 4.508H12.5214L12.5214 14.7315H13.0214ZM12.0214 15.7315C12.5737 15.7315 13.0214 15.2838 13.0214 14.7315H12.5214C12.5214 15.0077 12.2975 15.2315 12.0214 15.2315V15.7315ZM11.0305 14.8669C11.0967 15.3552 11.5149 15.7315 12.0214 15.7315V15.2315C11.7685 15.2315 11.559 15.0435 11.526 14.7997L11.0305 14.8669ZM11.0219 14.7483L11.0288 14.8501L11.5277 14.8165L11.5208 14.7147L11.0219 14.7483ZM11.0214 4.50632L11.0214 14.7315H11.5214L11.5214 4.50632H11.0214ZM11.0942 4.32998L9.46058 5.97163L9.815 6.32432L11.4486 4.68266L11.0942 4.32998ZM9.46062 5.97159C9.28366 6.14934 9.00582 6.16633 8.80994 6.02167L8.51289 6.42387C8.90521 6.7136 9.46057 6.68033 9.81496 6.32436L9.46062 5.97159ZM8.82436 6.03316L8.74008 5.96073L8.41419 6.33994L8.49847 6.41237L8.82436 6.03316ZM8.75352 5.97317C8.57577 5.79621 8.55878 5.51836 8.70345 5.32248L8.30124 5.02544C8.01151 5.41775 8.04478 5.97312 8.40075 6.32751L8.75352 5.97317ZM8.69194 5.3369L8.76438 5.25263L8.38518 4.92673L8.31274 5.01101L8.69194 5.3369ZM8.75195 5.26606L11.6569 2.3482L11.3025 1.99544L8.39761 4.9133L8.75195 5.26606Z" fill="#555555"/>
</svg>
