<svg width="16" height="16" viewBox="0 0 16 16" fill="none" xmlns="http://www.w3.org/2000/svg">
<path d="M2.83333 2.33325C2.83333 2.16965 2.82907 1.98636 2.83594 1.84237C2.8428 1.69875 2.86192 1.50624 2.95443 1.32739C3.06213 1.11923 3.23771 0.986129 3.44531 0.913981C3.62939 0.850042 3.83938 0.833252 4.05273 0.833252H12.5788C13.6093 0.833252 14.5 1.62453 14.5 2.66659V13.3333C14.5 14.3753 13.6093 15.1666 12.5788 15.1666H4.05273C3.83938 15.1666 3.62939 15.1498 3.44531 15.0859C3.23771 15.0137 3.06213 14.8806 2.95443 14.6724C2.86192 14.4936 2.8428 14.3011 2.83594 14.1575C2.82907 14.0135 2.83333 13.8302 2.83333 13.6666V11.5305H2C1.72386 11.5305 1.5 11.3067 1.5 11.0305C1.50017 10.7545 1.72396 10.5305 2 10.5305H2.83333V5.31242H2C1.72386 5.31242 1.5 5.08856 1.5 4.81242C1.50012 4.53638 1.72393 4.31242 2 4.31242H2.83333V2.33325ZM6.6582 10.8352C6.58218 11.1006 6.30513 11.2542 6.03971 11.1783C5.77425 11.1023 5.62058 10.8253 5.69661 10.5598L6.6582 10.8352ZM9.60612 6.64836C9.60609 6.20006 9.22157 5.80209 8.70312 5.802C8.18459 5.802 7.79951 6.20001 7.79948 6.64836C7.79948 7.09672 8.18457 7.49536 8.70312 7.49536C9.22159 7.49527 9.60612 7.09667 9.60612 6.64836ZM10.6061 6.64836C10.6061 7.13497 10.4134 7.56921 10.1042 7.8951C10.6955 8.25029 11.184 8.84123 11.4479 9.64901L11.4902 9.78573L11.7116 10.5598C11.7876 10.8252 11.6345 11.1022 11.3691 11.1783C11.1037 11.2543 10.8267 11.1006 10.7507 10.8352L10.5286 10.0618L10.4655 9.8658C10.1214 8.92346 9.38949 8.50384 8.70378 8.50383C8.0181 8.50383 7.28699 8.92355 6.94336 9.8658L6.87956 10.0611L6.6582 10.8352L5.69661 10.5598L5.91797 9.78573L5.96029 9.64901C6.22363 8.8418 6.71147 8.25104 7.30208 7.89575C6.99255 7.5698 6.79948 7.13522 6.79948 6.64836C6.79951 5.60926 7.67158 4.802 8.70312 4.802C9.7346 4.80209 10.6061 5.60932 10.6061 6.64836ZM3.83333 4.31242H4.52604C4.80211 4.31242 5.02592 4.53638 5.02604 4.81242C5.02604 5.08856 4.80218 5.31242 4.52604 5.31242H3.83333V10.5305H4.52604L4.57747 10.5331C4.8295 10.5587 5.02588 10.7718 5.02604 11.0305C5.02604 11.2894 4.8296 11.503 4.57747 11.5286L4.52604 11.5305H3.83333V13.6666C3.83333 13.8712 3.82927 13.9974 3.83464 14.1099C3.83545 14.127 3.83812 14.1416 3.83919 14.1542C3.88384 14.1603 3.95195 14.1666 4.05273 14.1666H12.5788C13.1179 14.1666 13.5 13.764 13.5 13.3333V2.66659C13.5 2.23588 13.1179 1.83325 12.5788 1.83325H4.05273C3.95201 1.83325 3.88384 1.83889 3.83919 1.84497C3.8381 1.85776 3.83547 1.87256 3.83464 1.88989C3.82927 2.00244 3.83333 2.12866 3.83333 2.33325V4.31242Z" fill="currentColor"/>
</svg>
