<svg width="42" height="43" viewBox="0 0 42 43" fill="none" xmlns="http://www.w3.org/2000/svg">
<path d="M7.98633 16.2832H31.6113C32.3075 16.2832 32.9752 16.5598 33.4675 17.052C33.9598 17.5443 34.2363 18.212 34.2363 18.9082V21.5332H7.98633C7.29013 21.5332 6.62246 21.2566 6.13017 20.7644C5.63789 20.2721 5.36133 19.6044 5.36133 18.9082C5.36133 18.212 5.63789 17.5443 6.13017 17.052C6.62246 16.5598 7.29013 16.2832 7.98633 16.2832Z" fill="url(#paint0_linear_2139_13287)"/>
<path d="M19.7988 28.752C25.2354 28.752 29.6426 24.3448 29.6426 18.9082C29.6426 13.4717 25.2354 9.06445 19.7988 9.06445C14.3623 9.06445 9.95508 13.4717 9.95508 18.9082C9.95508 24.3448 14.3623 28.752 19.7988 28.752Z" fill="#FFD54F"/>
<path d="M29.6426 18.9082C29.6416 21.5186 28.6042 24.0219 26.7584 25.8677C24.9125 27.7136 22.4093 28.751 19.7988 28.752C19.3597 28.7514 18.9212 28.7207 18.4863 28.6601C20.8481 28.3433 23.0147 27.1801 24.5836 25.3866C26.1526 23.5931 27.0174 21.2911 27.0174 18.9082C27.0174 16.5253 26.1526 14.2233 24.5836 12.4298C23.0147 10.6363 20.8481 9.47314 18.4863 9.15633C18.9212 9.09566 19.3597 9.06497 19.7988 9.06445C22.4093 9.06541 24.9125 10.1028 26.7584 11.9487C28.6042 13.7945 29.6416 16.2978 29.6426 18.9082Z" fill="#FFCA28"/>
<path d="M19.7988 26.127C23.7856 26.127 27.0176 22.895 27.0176 18.9082C27.0176 14.9214 23.7856 11.6895 19.7988 11.6895C15.812 11.6895 12.5801 14.9214 12.5801 18.9082C12.5801 22.895 15.812 26.127 19.7988 26.127Z" fill="#FFB74D"/>
<path d="M18.2667 20.0616L17.3777 18.4593H17.2445V20.0616H16V15.7148H17.9618C18.3217 15.7148 18.6265 15.7754 18.8761 15.8966C19.1257 16.0178 19.3141 16.1842 19.4413 16.3956C19.5697 16.612 19.6357 16.858 19.6323 17.1077C19.6323 17.4039 19.5486 17.6639 19.3813 17.8877C19.214 18.1116 18.9694 18.2712 18.6476 18.3666L19.6571 20.062L18.2667 20.0616ZM17.2445 17.6322H17.8603C18.0295 17.6322 18.1569 17.5932 18.2424 17.5151C18.3278 17.4371 18.3701 17.3241 18.3691 17.1761C18.3691 17.037 18.3258 16.927 18.239 16.8462C18.1523 16.7653 18.0263 16.7252 17.8613 16.7258H17.2445V17.6322ZM21.8539 16.7012C22.0317 16.6066 22.2412 16.5594 22.4826 16.5596C22.7559 16.5567 23.0241 16.6317 23.2541 16.7752C23.4847 16.9191 23.6667 17.1246 23.7999 17.3918C23.9331 17.6589 23.9998 17.9713 24 18.329C24 18.6866 23.9333 19 23.7999 19.2693C23.6665 19.5385 23.4846 19.7451 23.2541 19.8891C23.0244 20.0328 22.7565 20.108 22.4833 20.1056C22.2421 20.1056 22.0337 20.0584 21.8579 19.964C21.6872 19.874 21.5438 19.7422 21.442 19.5816V21.7148H20.1968V16.6027H21.4413V17.0836C21.5401 16.9219 21.6829 16.7896 21.8539 16.7012ZM22.5492 17.802C22.4893 17.7422 22.4176 17.6947 22.3384 17.6624C22.2592 17.6301 22.1741 17.6136 22.0882 17.6139C22.0023 17.6142 21.9173 17.6312 21.8383 17.664C21.7593 17.6969 21.688 17.7448 21.6285 17.805C21.5037 17.9325 21.4413 18.1072 21.4413 18.329C21.4413 18.5552 21.5037 18.7319 21.6285 18.8593C21.6879 18.9199 21.7594 18.9682 21.8387 19.001C21.918 19.0339 22.0033 19.0507 22.0895 19.0504C22.1757 19.0501 22.2609 19.0327 22.34 18.9994C22.419 18.966 22.4902 18.9173 22.5492 18.8563C22.6741 18.7266 22.7366 18.5508 22.7366 18.329C22.7366 18.103 22.6741 17.9273 22.5492 17.802Z" fill="url(#paint1_linear_2139_13287)"/>
<path d="M21.1111 26.0088C20.0703 26.1995 19.0003 26.159 17.9768 25.8902C16.9534 25.6214 16.0016 25.1309 15.1888 24.4534C14.3759 23.7759 13.722 22.9281 13.2732 21.9698C12.8244 21.0115 12.5918 19.9663 12.5918 18.9082C12.5918 17.8501 12.8244 16.8049 13.2732 15.8466C13.722 14.8883 14.3759 14.0405 15.1888 13.363C16.0016 12.6855 16.9534 12.195 17.9768 11.9262C19.0003 11.6574 20.0703 11.6169 21.1111 11.8076C19.4522 12.1148 17.9533 12.9932 16.8744 14.2902C15.7955 15.5873 15.2048 17.2211 15.2048 18.9082C15.2048 20.5953 15.7955 22.2292 16.8744 23.5262C17.9533 24.8232 19.4522 25.7016 21.1111 26.0088Z" fill="#FFA726"/>
<path d="M36.8613 24.1582V38.5957C36.8613 39.2919 36.5848 39.9596 36.0925 40.4519C35.6002 40.9441 34.9325 41.2207 34.2363 41.2207H7.98633C7.29013 41.2207 6.62246 40.9441 6.13017 40.4519C5.63789 39.9596 5.36133 39.2919 5.36133 38.5957V18.9082C5.36123 19.2529 5.42907 19.5943 5.56095 19.9129C5.69284 20.2314 5.88619 20.5208 6.12996 20.7646C6.37373 21.0083 6.66315 21.2017 6.98167 21.3336C7.30019 21.4655 7.64158 21.5333 7.98633 21.5332H34.2363C34.9325 21.5332 35.6002 21.8098 36.0925 22.302C36.5848 22.7943 36.8613 23.462 36.8613 24.1582Z" fill="url(#paint2_linear_2139_13287)"/>
<path d="M36.8613 24.1582V38.5957C36.8614 38.9405 36.7936 39.2818 36.6617 39.6004C36.5298 39.9189 36.3365 40.2083 36.0927 40.4521C35.8489 40.6958 35.5595 40.8892 35.241 41.0211C34.9225 41.153 34.5811 41.2208 34.2363 41.2207H7.98633C7.64158 41.2208 7.30019 41.153 6.98167 41.0211C6.66315 40.8892 6.37373 40.6958 6.12996 40.4521C5.88619 40.2083 5.69284 39.9189 5.56095 39.6004C5.42907 39.2818 5.36123 38.9405 5.36133 38.5957V38.3595C5.60687 38.64 5.90958 38.8648 6.24914 39.0187C6.5887 39.1726 6.95726 39.2522 7.33008 39.252H30.9551C31.2998 39.252 31.6412 39.1842 31.9597 39.0523C32.2783 38.9204 32.5677 38.7271 32.8114 38.4833C33.0552 38.2395 33.2486 37.9501 33.3805 37.6316C33.5123 37.3131 33.5802 36.9717 33.5801 36.627V23.502C33.5803 23.1291 33.5008 22.7606 33.3468 22.421C33.1929 22.0815 32.9681 21.7787 32.6876 21.5332H34.2363C34.5811 21.5331 34.9225 21.6009 35.241 21.7328C35.5595 21.8647 35.8489 22.0581 36.0927 22.3018C36.3365 22.5456 36.5298 22.835 36.6617 23.1535C36.7936 23.4721 36.8614 23.8135 36.8613 24.1582Z" fill="url(#paint3_linear_2139_13287)"/>
<path d="M32.2676 34.6582H37.5176C37.6916 34.6582 37.8585 34.5891 37.9816 34.466C38.1047 34.3429 38.1738 34.176 38.1738 34.002V28.752C38.1738 28.5779 38.1047 28.411 37.9816 28.2879C37.8585 28.1648 37.6916 28.0957 37.5176 28.0957H32.2676C31.3973 28.0957 30.5627 28.4414 29.9474 29.0568C29.332 29.6721 28.9863 30.5067 28.9863 31.377C28.9863 32.2472 29.332 33.0818 29.9474 33.6971C30.5627 34.3125 31.3973 34.6582 32.2676 34.6582Z" fill="url(#paint4_linear_2139_13287)"/>
<path d="M38.1738 28.752V34.002C38.1733 34.1758 38.104 34.3425 37.9811 34.4654C37.8581 34.5884 37.6915 34.6577 37.5176 34.6582H32.2676C31.8363 34.6595 31.409 34.5755 31.0104 34.4111C30.6117 34.2467 30.2494 34.005 29.9445 33.7001C29.6395 33.3951 29.3979 33.0329 29.2334 32.6342C29.069 32.2355 28.985 31.8082 28.9863 31.377C29.0779 31.5025 29.1788 31.621 29.2882 31.7313C29.9057 32.345 30.7408 32.6894 31.6113 32.6895H32.9238C33.1825 32.6898 33.4386 32.6391 33.6777 32.5403C33.9167 32.4415 34.1338 32.2965 34.3167 32.1136C34.4996 31.9307 34.6446 31.7135 34.7434 31.4745C34.8423 31.2355 34.8929 30.9793 34.8926 30.7207V28.0957H37.5176C37.6915 28.0962 37.8581 28.1655 37.9811 28.2885C38.104 28.4114 38.1733 28.5781 38.1738 28.752Z" fill="url(#paint5_linear_2139_13287)"/>
<path d="M19.7988 7.0957C19.6248 7.0957 19.4579 7.02656 19.3348 6.90349C19.2117 6.78042 19.1426 6.6135 19.1426 6.43945V3.1582C19.1426 2.98415 19.2117 2.81724 19.3348 2.69416C19.4579 2.57109 19.6248 2.50195 19.7988 2.50195C19.9729 2.50195 20.1398 2.57109 20.2629 2.69416C20.3859 2.81724 20.4551 2.98415 20.4551 3.1582V6.43945C20.4551 6.6135 20.3859 6.78042 20.2629 6.90349C20.1398 7.02656 19.9729 7.0957 19.7988 7.0957Z" fill="url(#paint6_linear_2139_13287)"/>
<path d="M13.2363 8.4082C13.0623 8.4082 12.8954 8.33906 12.7723 8.21599C12.6492 8.09292 12.5801 7.926 12.5801 7.75195V4.4707C12.5801 4.29665 12.6492 4.12974 12.7723 4.00666C12.8954 3.88359 13.0623 3.81445 13.2363 3.81445C13.4104 3.81445 13.5773 3.88359 13.7004 4.00666C13.8234 4.12974 13.8926 4.29665 13.8926 4.4707V7.75195C13.8926 7.926 13.8234 8.09292 13.7004 8.21599C13.5773 8.33906 13.4104 8.4082 13.2363 8.4082Z" fill="url(#paint7_linear_2139_13287)"/>
<path d="M26.3613 8.4082C26.1873 8.4082 26.0204 8.33906 25.8973 8.21599C25.7742 8.09292 25.7051 7.926 25.7051 7.75195V4.4707C25.7051 4.29665 25.7742 4.12974 25.8973 4.00666C26.0204 3.88359 26.1873 3.81445 26.3613 3.81445C26.5354 3.81445 26.7023 3.88359 26.8254 4.00666C26.9484 4.12974 27.0176 4.29665 27.0176 4.4707V7.75195C27.0176 7.926 26.9484 8.09292 26.8254 8.21599C26.7023 8.33906 26.5354 8.4082 26.3613 8.4082Z" fill="url(#paint8_linear_2139_13287)"/>
<defs>
<linearGradient id="paint0_linear_2139_13287" x1="15.7082" y1="22.7447" x2="18.8854" y2="13.2424" gradientUnits="userSpaceOnUse">
<stop stop-color="#AE0000"/>
<stop offset="1" stop-color="#FF0000"/>
</linearGradient>
<linearGradient id="paint1_linear_2139_13287" x1="18.8667" y1="23.0995" x2="24.6045" y2="18.9392" gradientUnits="userSpaceOnUse">
<stop stop-color="#AE0000"/>
<stop offset="1" stop-color="#FF0000"/>
</linearGradient>
<linearGradient id="paint2_linear_2139_13287" x1="16.6488" y1="46.3697" x2="38.3366" y2="29.72" gradientUnits="userSpaceOnUse">
<stop stop-color="#AE0000"/>
<stop offset="1" stop-color="#FF0000"/>
</linearGradient>
<linearGradient id="paint3_linear_2139_13287" x1="16.6488" y1="45.764" x2="36.2673" y2="28.6947" gradientUnits="userSpaceOnUse">
<stop stop-color="#AE0000"/>
<stop offset="1" stop-color="#FF0000"/>
</linearGradient>
<linearGradient id="paint4_linear_2139_13287" x1="28.9863" y1="31.377" x2="38.1738" y2="31.377" gradientUnits="userSpaceOnUse">
<stop stop-color="#D29A00"/>
<stop offset="0.35" stop-color="#FFD664"/>
<stop offset="0.69" stop-color="#D09C0C"/>
<stop offset="1" stop-color="#FFDA71"/>
</linearGradient>
<linearGradient id="paint5_linear_2139_13287" x1="28.9863" y1="31.377" x2="38.1738" y2="31.377" gradientUnits="userSpaceOnUse">
<stop stop-color="#D29A00"/>
<stop offset="0.35" stop-color="#FFD664"/>
<stop offset="0.69" stop-color="#D09C0C"/>
<stop offset="1" stop-color="#FFDA71"/>
</linearGradient>
<linearGradient id="paint6_linear_2139_13287" x1="19.6129" y1="8.1558" x2="21.0153" y2="7.93791" gradientUnits="userSpaceOnUse">
<stop stop-color="#B8B8B8"/>
<stop offset="0.51" stop-color="#F4F4F4"/>
<stop offset="1" stop-color="#C1C1C1"/>
</linearGradient>
<linearGradient id="paint7_linear_2139_13287" x1="13.0504" y1="9.4683" x2="14.4528" y2="9.25041" gradientUnits="userSpaceOnUse">
<stop stop-color="#B8B8B8"/>
<stop offset="0.51" stop-color="#F4F4F4"/>
<stop offset="1" stop-color="#C1C1C1"/>
</linearGradient>
<linearGradient id="paint8_linear_2139_13287" x1="26.1754" y1="9.4683" x2="27.5778" y2="9.25041" gradientUnits="userSpaceOnUse">
<stop stop-color="#B8B8B8"/>
<stop offset="0.51" stop-color="#F4F4F4"/>
<stop offset="1" stop-color="#C1C1C1"/>
</linearGradient>
</defs>
</svg>
