<svg width="16" height="17" viewBox="0 0 16 17" fill="none" xmlns="http://www.w3.org/2000/svg">
<path d="M6.48738 3.11791C7.22909 1.97603 8.94734 2.014 9.6241 3.23184L14.0245 11.1531L14.0837 11.2683C14.648 12.4674 13.7764 13.8769 12.4223 13.877H3.62084C2.22295 13.877 1.33911 12.3751 2.01798 11.1531L6.41902 3.23184L6.48738 3.11791ZM8.74975 3.71752C8.45204 3.18204 7.71154 3.14869 7.35847 3.61726L7.29272 3.71752L2.89233 11.6387C2.58374 12.1942 2.98544 12.877 3.62084 12.877H12.4223C13.0179 12.8769 13.4082 12.2769 13.2003 11.7442L13.1508 11.6387L8.74975 3.71752ZM7.52189 10.7097V10.7019C7.52199 10.4259 7.74593 10.202 8.02189 10.2019C8.29797 10.2019 8.52179 10.4258 8.52189 10.7019V10.7097C8.5218 10.9858 8.29798 11.2097 8.02189 11.2097C7.74593 11.2096 7.52197 10.9857 7.52189 10.7097ZM7.52189 8.71101V6.71101C7.52189 6.43496 7.74587 6.21116 8.02189 6.21101C8.29803 6.21101 8.52189 6.43487 8.52189 6.71101V8.71101C8.52189 8.98715 8.29803 9.21101 8.02189 9.21101C7.74587 9.21086 7.52189 8.98706 7.52189 8.71101Z" fill="#EE4343"/>
</svg>
