<svg width="15" height="14" viewBox="0 0 15 14" fill="none" xmlns="http://www.w3.org/2000/svg">
<path d="M6.17661 2.28774C6.8256 1.28859 8.32907 1.32182 8.92124 2.38743L12.7716 9.31851L12.8234 9.41934C13.3172 10.4685 12.5545 11.7019 11.3696 11.702H3.66839C2.44524 11.702 1.67188 10.3878 2.26588 9.31851L6.1168 2.38743L6.17661 2.28774ZM8.15618 2.8124C7.89568 2.34386 7.24775 2.31467 6.93882 2.72467L6.88128 2.8124L3.03094 9.74347C2.76093 10.2295 3.11241 10.827 3.66839 10.827H11.3696C11.8908 10.8269 12.2323 10.3018 12.0504 9.83576L12.0071 9.74347L8.15618 2.8124ZM7.0818 8.93057V8.92373C7.08189 8.68226 7.27784 8.48636 7.5193 8.48623C7.76087 8.48623 7.95672 8.68218 7.9568 8.92373V8.93057C7.95673 9.17213 7.76088 9.36807 7.5193 9.36807C7.27784 9.36793 7.08188 9.17204 7.0818 8.93057ZM7.0818 7.1817V5.4317C7.0818 5.19016 7.27779 4.99434 7.5193 4.9942C7.76093 4.9942 7.9568 5.19008 7.9568 5.4317V7.1817C7.9568 7.42333 7.76093 7.6192 7.5193 7.6192C7.27779 7.61907 7.0818 7.42325 7.0818 7.1817Z" fill="white"/>
</svg>
