<svg width="20" height="20" viewBox="0 0 20 20" fill="none" xmlns="http://www.w3.org/2000/svg">
<path d="M8.10886 3.26799C9.03599 1.84064 11.1838 1.88811 12.0298 3.41041L17.5302 13.3119L17.6043 13.456C18.3097 14.9548 17.2202 16.7168 15.5275 16.7169H4.52569C2.77833 16.7169 1.67353 14.8394 2.52211 13.3119L8.02341 3.41041L8.10886 3.26799ZM10.9368 4.01751C10.5647 3.34816 9.63905 3.30646 9.19773 3.89218L9.11553 4.01751L3.61504 13.919C3.22931 14.6134 3.73144 15.4669 4.52569 15.4669H15.5275C16.272 15.4668 16.7598 14.7167 16.5 14.0509L16.4381 13.919L10.9368 4.01751ZM9.40199 12.7577V12.748C9.40212 12.403 9.68205 12.1232 10.027 12.123C10.3721 12.123 10.6519 12.4029 10.652 12.748V12.7577C10.6519 13.1028 10.3721 13.3827 10.027 13.3827C9.68204 13.3826 9.4021 13.1027 9.40199 12.7577ZM9.40199 10.2594V7.75937C9.40199 7.41431 9.68197 7.13456 10.027 7.13437C10.3722 7.13437 10.652 7.41419 10.652 7.75937V10.2594C10.652 10.6045 10.3722 10.8844 10.027 10.8844C9.68197 10.8842 9.40199 10.6044 9.40199 10.2594Z" fill="currentColor"/>
</svg>
