<svg width="17" height="17" viewBox="0 0 17 17" fill="none" xmlns="http://www.w3.org/2000/svg">
<path d="M6.62361 3.07104C7.36532 1.92915 9.08357 1.96713 9.76033 3.18497L14.1607 11.1062L14.22 11.2214C14.7843 12.4205 13.9127 13.8301 12.5585 13.8302H3.75707C2.35918 13.8302 1.47534 12.3282 2.15421 11.1062L6.55525 3.18497L6.62361 3.07104ZM8.88598 3.67065C8.58827 3.13517 7.84777 3.10181 7.49471 3.57039L7.42895 3.67065L3.02856 11.5919C2.71997 12.1473 3.12167 12.8302 3.75707 12.8302H12.5585C13.1541 12.8301 13.5444 12.23 13.3365 11.6973L13.287 11.5919L8.88598 3.67065ZM7.65812 10.6628V10.655C7.65822 10.3791 7.88216 10.1552 8.15812 10.155C8.4342 10.155 8.65802 10.379 8.65812 10.655V10.6628C8.65803 10.9389 8.43421 11.1628 8.15812 11.1628C7.88216 11.1627 7.6582 10.9388 7.65812 10.6628ZM7.65812 8.66414V6.66414C7.65812 6.38809 7.8821 6.16429 8.15812 6.16414C8.43426 6.16414 8.65812 6.38799 8.65812 6.66414V8.66414C8.65812 8.94028 8.43426 9.16414 8.15812 9.16414C7.8821 9.16399 7.65812 8.94019 7.65812 8.66414Z" fill="#FF7A00"/>
</svg>
