<svg width="24" height="24" viewBox="0 0 24 24" fill="none" xmlns="http://www.w3.org/2000/svg">
<g clip-path="url(#clip0_2433_45461)">
<path d="M20.5019 3.48769C18.2457 1.23993 15.2457 0.00137141 12.0494 0C5.46299 0 0.102956 5.33475 0.100319 11.8919C0.0995518 13.9879 0.649635 16.034 1.6952 17.8375L0 24L6.33436 22.3464C8.0796 23.294 10.0446 23.7933 12.0443 23.7941H12.0494H12.0494C18.6348 23.7941 23.9957 18.4584 23.9984 11.9016C23.9995 8.72364 22.7577 5.73561 20.5019 3.48769ZM12.0494 21.7855H12.0456C10.2631 21.7846 8.51525 21.3081 6.99067 20.4075L6.62784 20.1933L2.8689 21.1745L3.87249 17.527L3.63609 17.1531C2.64185 15.5792 2.11698 13.7603 2.11772 11.8927C2.11991 6.44257 6.57497 2.00867 12.0532 2.00867C14.706 2.00976 17.1994 3.03926 19.0746 4.90753C20.9497 6.77579 21.9816 9.25937 21.9809 11.9007C21.9785 17.351 17.5233 21.7855 12.0494 21.7855Z" fill="#E0E0E0"/>
<path d="M0.549805 23.3153L2.16757 17.4343C1.16951 15.7131 0.644653 13.7604 0.645283 11.7605C0.6479 5.50302 5.76314 0.412109 12.0482 0.412109C15.0986 0.413481 17.9616 1.5954 20.1142 3.74054C22.2673 5.88566 23.4523 8.737 23.451 11.7694C23.4484 18.0271 18.3329 23.1184 12.0486 23.1184C12.0482 23.1184 12.0489 23.1184 12.0486 23.1184H12.0435C10.1352 23.1178 8.2601 22.6409 6.5947 21.7372L0.549805 23.3153Z" fill="url(#paint0_linear_2433_45461)"/>
<path fill-rule="evenodd" clip-rule="evenodd" d="M9.09961 6.84272C8.87854 6.35338 8.64579 6.34359 8.43547 6.33503C8.26344 6.32768 8.0665 6.32813 7.86988 6.32813C7.6731 6.32813 7.35333 6.40176 7.08291 6.69579C6.81233 6.98982 6.0498 7.70062 6.0498 9.14626C6.0498 10.5921 7.10751 11.989 7.25494 12.1852C7.40252 12.3812 9.2967 15.4427 12.2965 16.6204C14.7897 17.5993 15.297 17.4046 15.8382 17.3556C16.3793 17.3066 17.5843 16.6449 17.8303 15.9588C18.0762 15.2727 18.0762 14.6847 18.0024 14.5618C17.9286 14.4393 17.7319 14.3659 17.4367 14.2189C17.1415 14.072 15.6906 13.361 15.42 13.2631C15.1494 13.1651 14.9526 13.1161 14.7559 13.4103C14.5591 13.7042 13.9938 14.3659 13.8216 14.5618C13.6494 14.7582 13.4772 14.7826 13.1821 14.6357C12.8869 14.4883 11.9363 14.1784 10.8087 13.1773C9.93132 12.3986 9.33897 11.4368 9.16679 11.1426C8.9946 10.8487 9.14833 10.6895 9.29639 10.543C9.4289 10.4114 9.59156 10.2 9.73915 10.0285C9.88642 9.85687 9.93561 9.73442 10.034 9.5385C10.1324 9.34227 10.0832 9.17071 10.0094 9.02377C9.93561 8.87684 9.36203 7.42373 9.09961 6.84272Z" fill="white"/>
<path d="M20.4052 3.44962C18.1749 1.22766 15.2094 0.00334413 12.0498 0.00195312C5.53895 0.00195312 0.240447 5.27546 0.23783 11.7574C0.237063 13.8293 0.780829 15.8519 1.81439 17.6347L0.138672 23.7264L6.40032 22.0918C8.12555 23.0285 10.068 23.5221 12.0447 23.5229H12.0497H12.0498C18.5596 23.5229 23.8588 18.2484 23.8616 11.7668C23.8627 8.62546 22.6351 5.67174 20.4052 3.44962ZM12.0498 21.5374H12.046C10.284 21.5365 8.55616 21.0655 7.04909 20.1752L6.69042 19.9635L2.97463 20.9334L3.96668 17.3278L3.73301 16.9582C2.75018 15.4023 2.23133 13.6043 2.23209 11.7581C2.23424 6.37061 6.63815 1.9876 12.0535 1.9876C14.6759 1.98868 17.1406 3.00636 18.9944 4.85318C20.8479 6.7 21.868 9.15506 21.8672 11.7661C21.8649 17.1538 17.4608 21.5374 12.0498 21.5374Z" fill="white"/>
</g>
<defs>
<linearGradient id="paint0_linear_2433_45461" x1="12.0004" y1="23.3153" x2="12.0004" y2="0.412148" gradientUnits="userSpaceOnUse">
<stop stop-color="#20B038"/>
<stop offset="1" stop-color="#60D66A"/>
</linearGradient>
<clipPath id="clip0_2433_45461">
<rect width="24" height="24" fill="white"/>
</clipPath>
</defs>
</svg>
