<svg width="12" height="11" viewBox="0 0 12 11" fill="none" xmlns="http://www.w3.org/2000/svg">
<path d="M5.1875 0.187188C7.62245 -0.186123 10.0149 1.14913 10.9653 3.44402L11.0522 3.66717C11.8663 5.90781 11.1036 8.42175 9.18164 9.83221L8.98535 9.96941C6.9199 11.3493 4.18903 11.1295 2.37207 9.466L2.19922 9.30047C1.25423 8.35538 0.697103 7.09484 0.631348 5.76629L0.625 5.50018C0.625185 2.93605 2.43676 0.728759 4.95166 0.228692L5.1875 0.187188ZM7.60889 3.35955C7.75528 3.21314 7.99269 3.21319 8.13916 3.35955C8.28556 3.50595 8.28552 3.74336 8.13916 3.88982L6.52979 5.49969L8.13965 7.10906C8.28608 7.25543 8.28641 7.49285 8.14014 7.63934C7.99372 7.78581 7.75634 7.78574 7.60986 7.63934L6 6.02996L4.39014 7.63934C4.24366 7.78575 4.00628 7.78581 3.85986 7.63934C3.71351 7.49287 3.71344 7.25546 3.85986 7.10906L5.46924 5.49969L3.85986 3.88982L3.83398 3.8615C3.71387 3.71423 3.72262 3.49684 3.85986 3.35955C3.99716 3.22231 4.21455 3.21358 4.36182 3.33367L4.39014 3.35955L5.99951 4.96941L7.60889 3.35955ZM1.38086 5.72918C1.43744 6.87232 1.91639 7.957 2.72949 8.7702L2.87842 8.91277C4.44185 10.3441 6.79166 10.5332 8.56885 9.34588L8.73779 9.22772C10.3915 8.01406 11.0476 5.85095 10.3472 3.92303L10.2725 3.73064C9.4546 1.75608 7.39592 0.607627 5.30078 0.928887L5.09766 0.964532C2.93376 1.39488 1.37516 3.29391 1.375 5.50018L1.38086 5.72918Z" fill="currentColor"/>
</svg>
