<svg width="16" height="16" viewBox="0 0 16 16" fill="none" xmlns="http://www.w3.org/2000/svg">
<path d="M8.52863 2.52719C8.7727 2.28311 9.1587 2.26805 9.42055 2.48161L9.47133 2.52719L14.4713 7.52719C14.7317 7.78754 14.7317 8.20955 14.4713 8.4699L9.47133 13.4699C9.21098 13.7302 8.78898 13.7302 8.52863 13.4699C8.26828 13.2095 8.26828 12.7875 8.52863 12.5272L12.3906 8.66521H1.99998C1.63179 8.66521 1.33331 8.36673 1.33331 7.99854C1.33331 7.63035 1.63179 7.33187 1.99998 7.33187H12.3906L8.52863 3.4699L8.48305 3.41911C8.26949 3.15727 8.28455 2.77126 8.52863 2.52719Z" fill="#555555"/>
</svg>
