<svg width="17" height="16" viewBox="0 0 17 16" fill="none" xmlns="http://www.w3.org/2000/svg">
<path fill-rule="evenodd" clip-rule="evenodd" d="M8.63364 6.97201C9.30085 7.00576 9.93389 7.28666 10.4084 7.76237C10.9144 8.26978 11.1988 8.95782 11.1994 9.67513V9.68294C11.0531 13.2628 5.94848 13.2643 5.79966 9.68359V9.67513L5.80291 9.54102C5.83648 8.87246 6.11624 8.23812 6.59067 7.76237C7.0968 7.25493 7.78352 6.96939 8.49953 6.96875L8.63364 6.97201ZM9.44874 8.06836C8.36898 7.4496 6.70925 7.98581 6.63755 9.67904C6.63917 10.1727 6.83567 10.6457 7.18377 10.9948C7.53283 11.3448 8.00611 11.5417 8.49953 11.5423L8.68312 11.5326C9.10911 11.4898 9.50979 11.3011 9.81528 10.9948C10.1634 10.6457 10.3592 10.1727 10.3609 9.67904C10.3448 9.30032 10.2485 8.97985 10.0978 8.7168L9.07309 9.73568L9.07244 9.73633C9.0295 9.77865 8.97853 9.81197 8.9227 9.83464C8.86688 9.85729 8.80715 9.86884 8.74692 9.86849H8.73976C8.65347 9.86496 8.56953 9.83726 8.49822 9.78841C8.42694 9.73953 8.371 9.67127 8.33676 9.5918C8.30251 9.5122 8.29172 9.42412 8.30551 9.33854C8.31934 9.25316 8.35696 9.17343 8.41424 9.10872L8.41815 9.10417L8.4227 9.10026L9.44874 8.06836Z" fill="#461B02"/>
<path fill-rule="evenodd" clip-rule="evenodd" d="M14.631 1.96875C14.7452 1.96878 14.8546 2.01423 14.9351 2.09505C15.0155 2.17595 15.0607 2.28579 15.0607 2.39974V2.40104C15.0567 2.93841 14.8427 3.45303 14.4644 3.83333C14.0861 4.21357 13.5739 4.42885 13.0386 4.43294H11.3211V5.04492H12.5314C13.1066 5.04377 13.6619 5.25686 14.0894 5.64323C14.4633 5.98129 14.7165 6.43076 14.814 6.92253L14.8459 7.13607V7.13802L15.3609 12.6947C15.3779 12.864 15.359 13.0349 15.3062 13.1966C15.2531 13.359 15.1666 13.5087 15.0523 13.6354C14.938 13.762 14.7986 13.8634 14.6428 13.9323C14.4872 14.0011 14.3187 14.0352 14.1486 14.0345L2.84393 14.0352C2.67408 14.0341 2.50592 13.9978 2.35109 13.9277C2.19634 13.8577 2.05809 13.7557 1.94484 13.6289C1.83159 13.5021 1.74601 13.3527 1.69354 13.1908C1.64108 13.0288 1.6223 12.8576 1.6395 12.6882L2.15447 7.14062V7.13867L2.18637 6.92513C2.28337 6.43281 2.5362 5.98245 2.91033 5.64388C3.33786 5.25705 3.89337 5.04383 4.46893 5.04492H5.67921V4.43294H3.96176C3.42643 4.42884 2.91423 4.21357 2.53598 3.83333C2.15771 3.45303 1.94362 2.9384 1.93963 2.40104V2.39974L1.94809 2.3151C1.96455 2.23253 2.00499 2.15567 2.06528 2.09505C2.14575 2.01423 2.25511 1.96878 2.36932 1.96875H14.631ZM4.32895 5.91927C4.01563 5.9476 3.71791 6.07712 3.48195 6.29036C3.21244 6.53401 3.04233 6.87018 3.00473 7.23307L2.49757 12.7728L2.49692 12.7767C2.49129 12.8269 2.49659 12.8777 2.5119 12.9258C2.52722 12.9739 2.55199 13.0186 2.58546 13.056C2.61893 13.0934 2.66031 13.123 2.70591 13.1432C2.75146 13.1634 2.80072 13.1735 2.85044 13.1732H14.1512L14.2235 13.1667C14.2471 13.1617 14.2703 13.1538 14.2925 13.1439C14.3369 13.1239 14.3769 13.0943 14.409 13.0573L14.5594 13.1888L14.4129 13.0527C14.4464 13.0166 14.4722 12.9735 14.4878 12.9264C14.5033 12.8796 14.5086 12.8298 14.5034 12.7806L14.5028 12.778L13.9859 7.22852C13.9472 6.86701 13.7769 6.53231 13.508 6.28971C13.2385 6.04658 12.8893 5.91243 12.5275 5.91341H4.46372L4.32895 5.91927ZM6.53859 5.04492H10.4618V4.43294H6.53859V5.04492ZM2.88299 2.83073C2.95334 3.00943 3.06597 3.16943 3.21372 3.29492C3.42359 3.4731 3.68936 3.57071 3.96372 3.57096H13.0366C13.3107 3.56855 13.5755 3.47014 13.7853 3.29232C13.9328 3.16732 14.0458 3.0084 14.1174 2.83073H2.88299Z" fill="#461B02"/>
</svg>
