<svg width="16" height="17" viewBox="0 0 16 17" fill="none" xmlns="http://www.w3.org/2000/svg">
<path d="M6.91659 1.41495C10.1632 0.917201 13.3531 2.69754 14.6204 5.7574L14.7362 6.05492C15.8217 9.04245 14.8047 12.3944 12.2421 14.275L11.9804 14.4579C9.22645 16.2977 5.58529 16.0048 3.16268 13.7867L2.93221 13.566C1.67222 12.3059 0.929389 10.6252 0.841715 8.85375L0.833252 8.49893C0.833499 5.0801 3.24893 2.13704 6.60213 1.47029L6.91659 1.41495ZM10.1451 5.64477C10.3403 5.44956 10.6568 5.44962 10.8521 5.64477C11.0473 5.83997 11.0473 6.15651 10.8521 6.3518L8.7063 8.49828L10.8528 10.6441C11.048 10.8393 11.0485 11.1558 10.8534 11.3511C10.6582 11.5464 10.3417 11.5464 10.1464 11.3511L7.99992 9.20531L5.85343 11.3511C5.65813 11.5464 5.34163 11.5464 5.1464 11.3511C4.95127 11.1559 4.95117 10.8393 5.1464 10.6441L7.29224 8.49828L5.1464 6.3518L5.1119 6.31404C4.95174 6.11767 4.96342 5.82782 5.1464 5.64477C5.32947 5.46178 5.61932 5.45013 5.81567 5.61026L5.85343 5.64477L7.99927 7.79125L10.1451 5.64477ZM1.84106 8.80427C1.91651 10.3285 2.5551 11.7747 3.63924 12.859L3.83781 13.0491C5.92238 14.9575 9.05546 15.2096 11.425 13.6265L11.6503 13.469C13.8552 11.8508 14.7301 8.96664 13.7961 6.39607L13.6965 6.13956C12.606 3.50681 9.86115 1.97553 7.06763 2.40388L6.79679 2.45141C3.9116 3.0252 1.83346 5.55724 1.83325 8.49893L1.84106 8.80427Z" fill="#555555"/>
</svg>
