<svg width="210" height="221" viewBox="0 0 210 221" fill="none" xmlns="http://www.w3.org/2000/svg">
<path d="M72.8495 144.907C113.083 144.907 145.699 112.469 145.699 72.4537C145.699 32.4386 113.083 0 72.8495 0C32.6158 0 0 32.4386 0 72.4537C0 112.469 32.6158 144.907 72.8495 144.907Z" fill="#FFC217"/>
<path d="M72.85 144.176C112.677 144.176 144.964 112.065 144.964 72.4543C144.964 32.8434 112.677 0.732422 72.85 0.732422C33.0227 0.732422 0.736328 32.8434 0.736328 72.4543C0.736328 112.065 33.0227 144.176 72.85 144.176Z" stroke="#FFC217"/>
<path d="M69.8447 56.0079L108.462 27.6484L147.528 56.0079H177.615V77.8892L208.824 100.445V201.936C208.824 201.936 211.068 213.775 204.783 217.788C198.497 221.801 193.781 220.918 193.781 220.918H20.2198C20.2198 220.918 9.89146 219.574 8.99372 211.536C8.09598 203.497 8.99372 100.439 8.99372 100.439L38.8562 77.8863V56.005L69.8447 56.0079Z" fill="#183E7F"/>
<path d="M108.907 34.0879L138.929 55.8978H78.082L108.907 34.0879Z" fill="#176CF7"/>
<path d="M177.66 84.1855L202.372 102.025L177.66 123.428V84.1855Z" fill="#0A4FC0"/>
<path d="M44.624 61.4023H172.428V127.361L127.524 166.358C127.524 166.358 114.698 155.842 106.717 157.05C98.7356 158.257 95.7114 161.257 93.0668 162.99C91.5205 163.999 90.0548 165.125 88.6826 166.358L44.8403 128.244L44.624 61.4023Z" fill="white"/>
<path d="M108.508 153.698C130.691 153.698 148.673 135.813 148.673 113.75C148.673 91.6879 130.691 73.8027 108.508 73.8027C86.3247 73.8027 68.3418 91.6879 68.3418 113.75C68.3418 135.813 86.3247 153.698 108.508 153.698Z" fill="#176CF7"/>
<path d="M108.508 151.502C129.472 151.502 146.466 134.6 146.466 113.75C146.466 92.9002 129.472 75.998 108.508 75.998C87.5443 75.998 70.5498 92.9002 70.5498 113.75C70.5498 134.6 87.5443 151.502 108.508 151.502Z" stroke="#183E7F" stroke-width="3"/>
<path d="M15.082 101.818L39.5298 84.1445V123.393L15.082 101.818Z" fill="#0A4FC0"/>
<path d="M197.263 215.859C197.263 215.859 202.576 215.599 203.242 210.71C203.907 205.822 204.039 107.645 204.039 107.645L132.431 169.881L197.263 215.859Z" fill="#176CF7"/>
<path d="M12.7246 107.645L83.8818 169.832L19.9789 215.868C19.9789 215.868 13.9343 214.321 13.5869 209.681C13.2396 205.041 12.7246 107.645 12.7246 107.645Z" fill="#176CF7"/>
<path d="M29.6064 215.858H187.986L121.662 168.256C121.662 168.256 111.496 158.025 101.154 164.462C90.8122 170.9 29.6064 215.858 29.6064 215.858Z" fill="#004CC9"/>
<path d="M23.9621 125.173C23.9621 123.84 22.8756 122.76 21.5352 122.76C20.1949 122.76 19.1084 123.84 19.1084 125.173V178.271C19.1084 179.604 20.1949 180.685 21.5352 180.685C22.8756 180.685 23.9621 179.604 23.9621 178.271V125.173Z" fill="white"/>
<path d="M23.9621 186.318C23.9621 184.985 22.8756 183.904 21.5352 183.904C20.1949 183.904 19.1084 184.985 19.1084 186.318V199.19C19.1084 200.523 20.1949 201.603 21.5352 201.603C22.8756 201.603 23.9621 200.523 23.9621 199.19V186.318Z" fill="white"/>
<path d="M49.2251 206.399C47.8502 207.393 47.5457 209.307 48.545 210.674C49.5444 212.042 51.4691 212.345 52.8441 211.351L95.1643 180.758C96.5393 179.765 96.8438 177.85 95.8444 176.483C94.8451 175.115 92.9203 174.812 91.5454 175.806L49.2251 206.399Z" fill="white"/>
<path d="M99.0151 170.74C97.6402 171.734 97.3357 173.649 98.3351 175.016C99.3344 176.384 101.259 176.686 102.634 175.693L110.102 170.294C111.477 169.301 111.781 167.386 110.782 166.019C109.782 164.651 107.858 164.348 106.483 165.342L99.0151 170.74Z" fill="white"/>
<path d="M145.878 168.113C144.486 167.142 142.567 167.478 141.592 168.862C140.616 170.247 140.954 172.156 142.346 173.126L185.189 202.99C186.581 203.96 188.5 203.624 189.476 202.24C190.451 200.856 190.114 198.947 188.722 197.976L145.878 168.113Z" fill="white"/>
<path d="M108.618 150.449C102.736 150.449 97.098 149.152 91.8596 146.593C87.2627 144.348 83.0971 141.136 79.7412 137.26C80.1751 136.338 80.6395 135.434 81.1285 134.561C82.3293 132.419 83.7061 130.407 85.2204 128.582C86.7298 126.763 88.3881 125.113 90.1492 123.679C91.9165 122.239 93.8055 121.003 95.7643 120.004C97.7463 118.993 99.8197 118.217 101.927 117.696C102.118 117.649 102.318 117.602 102.52 117.557L108.582 116.207L114.646 117.585C114.807 117.622 114.965 117.659 115.114 117.696C117.222 118.217 119.295 118.993 121.276 120.004C123.236 121.003 125.125 122.239 126.891 123.679C128.652 125.113 130.311 126.762 131.821 128.582C133.335 130.407 134.712 132.419 135.913 134.562C136.427 135.48 136.915 136.433 137.369 137.407C130.12 145.712 119.717 150.449 108.618 150.449ZM108.586 116.196L103.018 113.448C100.944 112.424 99.1915 110.852 97.9503 108.902C96.6768 106.901 96.0036 104.584 96.0036 102.202C96.0036 95.2844 101.663 89.6562 108.618 89.6562C115.574 89.6562 121.233 95.2844 121.233 102.202C121.233 104.594 120.554 106.919 119.271 108.926C118.019 110.883 116.254 112.455 114.166 113.474L108.586 116.196Z" fill="#FFCC06"/>
<path d="M108.619 148.254C118.589 148.254 127.964 144.196 134.734 137.033C134.492 136.558 134.242 136.09 133.985 135.631C132.849 133.604 131.548 131.703 130.119 129.98C128.7 128.27 127.144 126.722 125.492 125.377C123.847 124.036 122.09 122.886 120.27 121.958C118.439 121.024 116.526 120.308 114.582 119.827C114.446 119.794 114.302 119.76 114.154 119.726L108.578 118.458L103.003 119.7C102.818 119.741 102.635 119.784 102.46 119.828C100.517 120.308 98.6032 121.024 96.7722 121.958C94.9524 122.886 93.1952 124.036 91.5484 125.378C89.898 126.722 88.342 128.27 86.9237 129.98C85.4942 131.703 84.1932 133.604 83.0575 135.63C82.825 136.045 82.5983 136.468 82.3781 136.896C85.3599 140.073 88.9317 142.717 92.8333 144.623C97.7663 147.032 103.077 148.254 108.619 148.254ZM108.592 113.748L113.194 111.503C114.918 110.662 116.375 109.364 117.409 107.748C118.467 106.094 119.026 104.176 119.026 102.203C119.026 96.4953 114.357 91.8521 108.619 91.8521C102.88 91.8521 98.2118 96.4953 98.2118 102.203C98.2118 104.168 98.7666 106.079 99.8162 107.728C100.841 109.338 102.288 110.637 104.001 111.482L108.592 113.748ZM108.619 152.645C95.8928 152.645 84.5453 146.775 77.1641 137.609C77.7781 136.193 78.459 134.817 79.2007 133.493C80.4662 131.235 81.9189 129.113 83.5182 127.185C85.1193 125.255 86.8799 123.505 88.7513 121.981C90.6403 120.441 92.6611 119.119 94.7578 118.05C96.8916 116.963 99.1246 116.127 101.395 115.566C101.608 115.513 101.823 115.463 102.038 115.415C97.1535 113.004 93.7967 107.993 93.7967 102.203C93.7967 94.061 100.433 87.4609 108.619 87.4609C116.805 87.4609 123.441 94.061 123.441 102.203C123.441 108.018 120.056 113.046 115.138 115.445C115.308 115.484 115.478 115.524 115.647 115.566C117.918 116.127 120.151 116.963 122.284 118.05C124.381 119.119 126.402 120.441 128.291 121.981C130.163 123.505 131.923 125.256 133.524 127.185C135.123 129.113 136.576 131.235 137.841 133.493C138.611 134.865 139.314 136.295 139.946 137.766C132.562 146.842 121.271 152.645 108.619 152.645Z" fill="#183E7F"/>
<path d="M79.0898 103.579C79.0898 103.579 83.131 91.4885 94.3646 86.0859" stroke="white" stroke-width="2" stroke-linecap="round"/>
<path d="M77.7357 109.277C77.8694 108.769 78.0336 108.174 78.211 107.565" stroke="white" stroke-width="2" stroke-linecap="round"/>
<path d="M144.025 105.984C151.771 105.984 158.051 99.739 158.051 92.0351C158.051 84.3312 151.771 78.0859 144.025 78.0859C136.279 78.0859 130 84.3312 130 92.0351C130 99.739 136.279 105.984 144.025 105.984Z" fill="white" stroke="#F71717" stroke-width="2"/>
<path d="M147.71 95.7091L140.29 88.2891" stroke="#F71717" stroke-width="2" stroke-linecap="round" stroke-linejoin="bevel"/>
<path d="M147.71 88.2891L140.29 95.7091" stroke="#F71717" stroke-width="2" stroke-linecap="round" stroke-linejoin="bevel"/>
</svg>
