<svg width="200" height="36" viewBox="0 0 200 36" fill="none" xmlns="http://www.w3.org/2000/svg">
<path d="M68.857 17.913C68.857 21.4557 67.8065 24.9189 65.8383 27.8646C63.8702 30.8103 61.0727 33.1063 57.7997 34.4622C54.5267 35.818 50.9252 36.173 47.4505 35.482C43.9758 34.7911 40.784 33.0853 38.2787 30.5805C35.7734 28.0756 34.0671 24.8841 33.3756 21.4095C32.6841 17.9349 33.0384 14.3333 34.3937 11.0601C35.749 7.78685 38.0445 4.98901 40.9899 3.02034C43.9353 1.05168 47.3983 0.000593323 50.941 0C55.6918 0 60.2481 1.88726 63.6074 5.2466C66.9668 8.60594 68.854 13.1622 68.854 17.913" fill="#FFC217"/>
<path d="M2.525 9.12362C2.94077 9.11827 3.35099 9.21938 3.71664 9.41735C4.08229 9.61531 4.3912 9.90354 4.614 10.2546C6.37604 9.29301 8.40288 8.93016 10.3891 9.22073C12.3753 9.5113 14.2133 10.4396 15.626 11.8656C16.8721 10.5873 18.4672 9.70463 20.2121 9.32779C21.957 8.95094 23.7743 9.09667 25.4368 9.74677C27.0993 10.3969 28.5334 11.5225 29.5599 12.983C30.5863 14.4435 31.1595 16.1742 31.208 17.9586V26.2286C31.1876 26.8802 30.9108 27.4973 30.4377 27.9458C29.9647 28.3943 29.3337 28.6379 28.682 28.6236C28.3617 28.6302 28.0432 28.5735 27.7449 28.4567C27.4466 28.3399 27.1743 28.1653 26.9437 27.9429C26.7131 27.7206 26.5286 27.4548 26.401 27.161C26.2734 26.8671 26.2051 26.5509 26.2 26.2306V17.9606C26.2 16.8865 25.7733 15.8564 25.0138 15.0968C24.2543 14.3373 23.2241 13.9106 22.15 13.9106C21.0759 13.9106 20.0457 14.3373 19.2862 15.0968C18.5267 15.8564 18.1 16.8865 18.1 17.9606V26.2306C18.0949 26.5503 18.0268 26.8659 17.8997 27.1593C17.7725 27.4527 17.5887 27.7181 17.3588 27.9404C17.1289 28.1627 16.8574 28.3374 16.5599 28.4547C16.2624 28.5719 15.9447 28.6293 15.625 28.6236C14.9737 28.6379 14.3431 28.3946 13.8703 27.9464C13.3975 27.4983 13.1207 26.8817 13.1 26.2306V17.9606C13.1 16.8865 12.6733 15.8564 11.9138 15.0968C11.1543 14.3373 10.1241 13.9106 9.05 13.9106C7.97587 13.9106 6.94574 14.3373 6.18622 15.0968C5.42669 15.8564 5 16.8865 5 17.9606V26.2306C4.99492 26.5503 4.92684 26.8659 4.79965 27.1593C4.67247 27.4527 4.48867 27.7181 4.25878 27.9404C4.0289 28.1627 3.75743 28.3374 3.45993 28.4547C3.16242 28.5719 2.84472 28.6293 2.525 28.6236C1.8738 28.6376 1.24336 28.3942 0.770597 27.9462C0.297832 27.4981 0.0209196 26.8816 0 26.2306L0 11.5236C0.0191115 10.8714 0.295233 10.2531 0.768195 9.80357C1.24116 9.35402 1.87263 9.10962 2.525 9.12362Z" fill="white"/>
<path d="M70.6812 18.8743C70.6973 17.5766 70.9692 16.2948 71.4812 15.1023C71.9932 13.9098 72.7352 12.8299 73.6649 11.9244C74.5947 11.019 75.6938 10.3057 76.8994 9.82537C78.105 9.34506 79.3935 9.10715 80.6912 9.12526C82.516 9.12578 84.3065 9.62213 85.8712 10.5613C86.0661 10.1175 86.3906 9.74291 86.8021 9.48668C87.2136 9.23044 87.6929 9.10447 88.1772 9.12526C88.4974 9.1189 88.8158 9.17585 89.114 9.29283C89.4122 9.40982 89.6844 9.58454 89.9149 9.80697C90.1454 10.0294 90.3297 10.2952 90.4573 10.589C90.5848 10.8828 90.6531 11.199 90.6582 11.5193V26.2303C90.6531 26.5506 90.5848 26.8667 90.4573 27.1605C90.3297 27.4544 90.1454 27.7201 89.9149 27.9426C89.6844 28.165 89.4122 28.3397 89.114 28.4567C88.8158 28.5737 88.4974 28.6306 88.1772 28.6243C87.6929 28.6451 87.2136 28.5191 86.8021 28.2628C86.3906 28.0066 86.0661 27.6321 85.8712 27.1883C84.3066 28.1276 82.5161 28.624 80.6912 28.6243C79.3935 28.6424 78.105 28.4045 76.8994 27.9242C75.6938 27.4438 74.5947 26.7306 73.6649 25.8251C72.7352 24.9196 71.9932 23.8397 71.4812 22.6472C70.9692 21.4547 70.6973 20.1729 70.6812 18.8753V18.8743ZM75.6862 18.8753C75.6731 19.8628 75.9537 20.832 76.4924 21.6598C77.0311 22.4875 77.8036 23.1366 78.7119 23.5246C79.6201 23.9125 80.6232 24.0219 81.5937 23.8388C82.5642 23.6557 83.4584 23.1884 84.1629 22.4962C84.8674 21.804 85.3503 20.9181 85.5504 19.9509C85.7505 18.9838 85.6587 17.979 85.2867 17.0641C84.9147 16.1491 84.2793 15.3654 83.4611 14.8122C82.6429 14.2591 81.6788 13.9615 80.6912 13.9573C80.0395 13.9513 79.3932 14.0739 78.7889 14.3178C78.1847 14.5618 77.6344 14.9225 77.1696 15.3792C76.7048 15.8359 76.3346 16.3798 76.08 16.9796C75.8255 17.5795 75.6916 18.2236 75.6862 18.8753Z" fill="white"/>
<path d="M94.0547 19.7883V5.98832C94.0751 5.33722 94.3517 4.7205 94.8243 4.2722C95.2969 3.82391 95.9274 3.5803 96.5787 3.59432C96.899 3.58796 97.2173 3.64491 97.5155 3.76189C97.8137 3.87888 98.0859 4.0536 98.3164 4.27603C98.5469 4.49846 98.7312 4.76422 98.8588 5.05806C98.9863 5.3519 99.0546 5.66803 99.0597 5.98832V9.07832H102.194C102.515 9.07178 102.834 9.12943 103.133 9.24788C103.432 9.36634 103.704 9.54322 103.934 9.76816C104.163 9.99311 104.346 10.2616 104.47 10.5579C104.595 10.8542 104.659 11.1724 104.659 11.4938C104.659 11.8152 104.595 12.1334 104.47 12.4297C104.346 12.726 104.163 12.9945 103.934 13.2195C103.704 13.4444 103.432 13.6213 103.133 13.7398C102.834 13.8582 102.515 13.9159 102.194 13.9093H99.0597V19.7853C99.0676 20.8521 99.4982 21.8721 100.257 22.6219C101.016 23.3718 102.041 23.7901 103.108 23.7853H104.98C105.306 23.7705 105.632 23.8219 105.938 23.9366C106.244 24.0513 106.524 24.2268 106.76 24.4526C106.996 24.6784 107.184 24.9497 107.313 25.2502C107.441 25.5506 107.508 25.874 107.508 26.2008C107.508 26.5276 107.441 26.851 107.313 27.1515C107.184 27.452 106.996 27.7233 106.76 27.949C106.524 28.1748 106.244 28.3503 105.938 28.465C105.632 28.5797 105.306 28.6312 104.98 28.6163H103.108C101.933 28.6309 100.767 28.4138 99.6764 27.9777C98.5857 27.5415 97.5916 26.8947 96.7509 26.0743C95.9102 25.2538 95.2394 24.2758 94.7768 23.196C94.3142 22.1163 94.0688 20.9559 94.0547 19.7813" fill="white"/>
<path d="M109.113 26.1883V17.9613C109.139 15.5845 110.107 13.315 111.804 11.6506C113.501 9.98619 115.789 9.0626 118.166 9.08234C119.389 9.07806 120.6 9.31845 121.729 9.78935C122.858 10.2602 123.881 10.9522 124.738 11.8243C125.987 10.5436 127.586 9.66014 129.334 9.28476C131.083 8.90938 132.904 9.05882 134.568 9.71431C136.232 10.3698 137.666 11.5022 138.689 12.9693C139.712 14.4365 140.279 16.1731 140.319 17.9613V26.1883C140.313 26.5141 140.244 26.8356 140.114 27.1344C139.984 27.4332 139.796 27.7035 139.562 27.9298C139.328 28.1562 139.051 28.3341 138.748 28.4534C138.445 28.5727 138.121 28.6312 137.795 28.6253C137.471 28.6306 137.15 28.5716 136.85 28.4515C136.549 28.3315 136.275 28.1529 136.044 27.9261C135.814 27.6993 135.63 27.4289 135.505 27.1306C135.379 26.8322 135.315 26.512 135.314 26.1883V17.9613C135.314 16.8872 134.887 15.8571 134.128 15.0976C133.368 14.338 132.338 13.9113 131.264 13.9113C130.19 13.9113 129.16 14.338 128.4 15.0976C127.641 15.8571 127.214 16.8872 127.214 17.9613V26.1883C127.214 26.512 127.149 26.8322 127.023 27.1306C126.898 27.4289 126.714 27.6993 126.484 27.9261C126.253 28.1529 125.979 28.3315 125.678 28.4515C125.378 28.5716 125.057 28.6306 124.733 28.6253C124.407 28.6313 124.083 28.573 123.78 28.4537C123.477 28.3344 123.2 28.1565 122.965 27.9302C122.731 27.7039 122.543 27.4335 122.413 27.1347C122.283 26.8358 122.214 26.5142 122.208 26.1883V17.9613C122.208 16.8872 121.781 15.8571 121.022 15.0976C120.262 14.338 119.232 13.9113 118.158 13.9113C117.084 13.9113 116.054 14.338 115.294 15.0976C114.535 15.8571 114.108 16.8872 114.108 17.9613V26.1883C114.108 26.512 114.043 26.8322 113.917 27.1306C113.792 27.4289 113.608 27.6993 113.378 27.9261C113.147 28.1529 112.873 28.3315 112.573 28.4515C112.272 28.5716 111.951 28.6306 111.627 28.6253C111.301 28.6312 110.978 28.5727 110.674 28.4534C110.371 28.3341 110.094 28.1562 109.86 27.9298C109.626 27.7035 109.438 27.4332 109.308 27.1344C109.178 26.8356 109.109 26.5141 109.103 26.1883" fill="white"/>
<path d="M143.241 11.5204C143.247 11.1946 143.316 10.873 143.446 10.574C143.576 10.2751 143.763 10.0047 143.998 9.77828C144.232 9.55186 144.509 9.37386 144.812 9.25446C145.116 9.13506 145.439 9.0766 145.765 9.08243C146.089 9.07712 146.41 9.13624 146.711 9.25635C147.012 9.37646 147.285 9.55515 147.516 9.78203C147.747 10.0089 147.93 10.2794 148.056 10.5779C148.181 10.8763 148.246 11.1967 148.246 11.5204V19.7934C148.246 20.8676 148.673 21.8977 149.432 22.6572C150.192 23.4167 151.222 23.8434 152.296 23.8434C153.37 23.8434 154.4 23.4167 155.16 22.6572C155.92 21.8977 156.346 20.8676 156.346 19.7934V11.5234C156.352 11.1975 156.421 10.8758 156.551 10.5768C156.681 10.2778 156.869 10.0074 157.103 9.78092C157.338 9.55448 157.615 9.3765 157.918 9.25716C158.221 9.13782 158.545 9.07947 158.871 9.08543C159.195 9.08012 159.516 9.13924 159.817 9.25935C160.118 9.37946 160.391 9.55815 160.622 9.78503C160.853 10.0119 161.036 10.2824 161.162 10.5809C161.287 10.8793 161.352 11.1997 161.352 11.5234V19.7934C161.291 22.1541 160.311 24.3976 158.62 26.0458C156.929 27.6939 154.661 28.6163 152.299 28.6163C149.938 28.6163 147.67 27.6939 145.979 26.0458C144.287 24.3976 143.307 22.1541 143.246 19.7934L143.241 11.5204Z" fill="white"/>
<path d="M163.655 18.8751C163.707 16.2604 164.783 13.7706 166.65 11.94C168.518 10.1094 171.029 9.08398 173.644 9.08398C176.259 9.08398 178.77 10.1094 180.638 11.94C182.505 13.7706 183.581 16.2604 183.633 18.8751V26.1871C183.633 26.5107 183.568 26.831 183.442 27.1293C183.317 27.4276 183.133 27.6981 182.903 27.9248C182.672 28.1516 182.398 28.3302 182.098 28.4503C181.797 28.5703 181.476 28.6294 181.152 28.6241C180.669 28.636 180.193 28.5063 179.783 28.2509C179.373 27.9956 179.047 27.6257 178.845 27.1871C177.279 28.1212 175.49 28.6175 173.666 28.6241C171.047 28.6538 168.523 27.6445 166.647 25.8173C164.771 23.9901 163.695 21.4938 163.655 18.8751ZM173.666 23.7931C174.641 23.7802 175.591 23.4791 176.395 22.9276C177.199 22.376 177.822 21.5988 178.185 20.6938C178.549 19.7888 178.636 18.7965 178.436 17.842C178.237 16.8875 177.759 16.0134 177.063 15.3299C176.368 14.6464 175.485 14.1841 174.528 14.0012C173.57 13.8183 172.579 13.923 171.681 14.3021C170.782 14.6812 170.016 15.3177 169.479 16.1315C168.941 16.9453 168.657 17.8999 168.661 18.8751C168.677 20.1896 169.212 21.4445 170.15 22.3659C171.087 23.2872 172.351 23.8003 173.666 23.7931Z" fill="white"/>
<path d="M186.55 19.7883V5.98832C186.57 5.33722 186.847 4.7205 187.319 4.2722C187.792 3.82391 188.423 3.5803 189.074 3.59432C189.394 3.58796 189.712 3.64491 190.011 3.76189C190.309 3.87888 190.581 4.0536 190.812 4.27603C191.042 4.49846 191.226 4.76422 191.354 5.05806C191.481 5.3519 191.55 5.66803 191.555 5.98832V9.07832H194.689C195.01 9.07178 195.33 9.12943 195.628 9.24788C195.927 9.36634 196.199 9.54322 196.429 9.76816C196.658 9.99311 196.841 10.2616 196.965 10.5579C197.09 10.8542 197.154 11.1724 197.154 11.4938C197.154 11.8152 197.09 12.1334 196.965 12.4297C196.841 12.726 196.658 12.9945 196.429 13.2195C196.199 13.4444 195.927 13.6213 195.628 13.7398C195.33 13.8582 195.01 13.9159 194.689 13.9093H191.555V19.7853C191.563 20.8521 191.993 21.8721 192.752 22.6219C193.511 23.3718 194.536 23.7901 195.603 23.7853H197.475C197.801 23.7705 198.127 23.8219 198.433 23.9366C198.739 24.0513 199.019 24.2268 199.255 24.4526C199.491 24.6784 199.68 24.9497 199.808 25.2502C199.936 25.5506 200.003 25.874 200.003 26.2008C200.003 26.5276 199.936 26.851 199.808 27.1515C199.68 27.452 199.491 27.7233 199.255 27.949C199.019 28.1748 198.739 28.3503 198.433 28.465C198.127 28.5797 197.801 28.6312 197.475 28.6163H195.603C194.428 28.6309 193.262 28.4138 192.172 27.9777C191.081 27.5415 190.087 26.8947 189.246 26.0743C188.405 25.2538 187.735 24.2758 187.272 23.196C186.809 22.1163 186.564 20.9559 186.55 19.7813" fill="white"/>
<path d="M101.677 9.125H88.0479V13.883H101.677V9.125Z" fill="white"/>
<path d="M41.889 17.331C41.8945 17.0051 41.9641 16.6835 42.094 16.3846C42.2238 16.0857 42.4113 15.8153 42.6457 15.5888C42.8801 15.3624 43.1569 15.1844 43.4601 15.065C43.7634 14.9456 44.0872 14.8872 44.413 14.893C44.7367 14.8877 45.0582 14.9468 45.3588 15.0669C45.6593 15.187 45.9331 15.3657 46.1639 15.5926C46.3948 15.8195 46.5783 16.09 46.7036 16.3885C46.8289 16.6869 46.8937 17.0073 46.894 17.331V19.79C46.894 20.8641 47.3207 21.8943 48.0803 22.6538C48.8398 23.4133 49.8699 23.84 50.944 23.84C52.0182 23.84 53.0483 23.4133 53.8078 22.6538C54.5673 21.8943 54.994 20.8641 54.994 19.79V17.331C54.9995 17.005 55.0692 16.6834 55.1991 16.3844C55.329 16.0854 55.5166 15.8149 55.7511 15.5885C55.9856 15.3621 56.2624 15.1841 56.5658 15.0647C56.8692 14.9454 57.1931 14.887 57.519 14.893C57.8427 14.8877 58.1642 14.9468 58.4648 15.0669C58.7654 15.187 59.039 15.3657 59.2699 15.5926C59.5008 15.8195 59.6843 16.09 59.8096 16.3885C59.935 16.6869 59.9997 17.0073 60 17.331V19.79C59.9393 22.1506 58.9588 24.3942 57.2676 26.0424C55.5765 27.6905 53.3085 28.6129 50.947 28.6129C48.5856 28.6129 46.3176 27.6905 44.6264 26.0424C42.9353 24.3942 41.9548 22.1506 41.894 19.79L41.889 17.331Z" fill="white"/>
<path d="M46.9331 11.2437C46.9331 11.7423 46.7853 12.2297 46.5083 12.6442C46.2312 13.0588 45.8375 13.3819 45.3769 13.5728C44.9162 13.7636 44.4093 13.8135 43.9203 13.7162C43.4313 13.6189 42.9821 13.3788 42.6295 13.0263C42.2769 12.6737 42.0368 12.2245 41.9396 11.7355C41.8423 11.2465 41.8922 10.7396 42.083 10.2789C42.2738 9.81826 42.5969 9.42453 43.0115 9.14752C43.4261 8.87051 43.9135 8.72266 44.4121 8.72266C45.0807 8.72266 45.7219 8.98826 46.1947 9.46104C46.6675 9.93382 46.9331 10.575 46.9331 11.2437Z" fill="white"/>
<path d="M59.9971 11.2437C59.9971 11.7423 59.8492 12.2297 59.5722 12.6442C59.2952 13.0588 58.9015 13.3819 58.4408 13.5728C57.9802 13.7636 57.4733 13.8135 56.9843 13.7162C56.4952 13.6189 56.046 13.3788 55.6935 13.0263C55.3409 12.6737 55.1008 12.2245 55.0035 11.7355C54.9062 11.2465 54.9562 10.7396 55.147 10.2789C55.3378 9.81826 55.6609 9.42453 56.0755 9.14752C56.4901 8.87051 56.9775 8.72266 57.4761 8.72266C58.1447 8.72266 58.7859 8.98826 59.2587 9.46104C59.7315 9.93382 59.9971 10.575 59.9971 11.2437Z" fill="white"/>
<path d="M41.889 17.331C41.8945 17.0051 41.9641 16.6835 42.094 16.3846C42.2238 16.0857 42.4113 15.8153 42.6457 15.5888C42.8801 15.3624 43.1569 15.1844 43.4601 15.065C43.7634 14.9456 44.0872 14.8872 44.413 14.893C44.7367 14.8877 45.0582 14.9468 45.3588 15.0669C45.6593 15.187 45.9331 15.3657 46.1639 15.5926C46.3948 15.8195 46.5783 16.09 46.7036 16.3885C46.8289 16.6869 46.8937 17.0073 46.894 17.331V19.79C46.894 20.8641 47.3207 21.8943 48.0803 22.6538C48.8398 23.4133 49.8699 23.84 50.944 23.84C52.0182 23.84 53.0483 23.4133 53.8078 22.6538C54.5673 21.8943 54.994 20.8641 54.994 19.79V17.331C54.9995 17.005 55.0692 16.6834 55.1991 16.3844C55.329 16.0854 55.5166 15.8149 55.7511 15.5885C55.9856 15.3621 56.2624 15.1841 56.5658 15.0647C56.8692 14.9454 57.1931 14.887 57.519 14.893C57.8427 14.8877 58.1642 14.9468 58.4648 15.0669C58.7654 15.187 59.039 15.3657 59.2699 15.5926C59.5008 15.8195 59.6843 16.09 59.8096 16.3885C59.935 16.6869 59.9997 17.0073 60 17.331V19.79C59.9393 22.1506 58.9588 24.3942 57.2676 26.0424C55.5765 27.6905 53.3085 28.6129 50.947 28.6129C48.5856 28.6129 46.3176 27.6905 44.6264 26.0424C42.9353 24.3942 41.9548 22.1506 41.894 19.79L41.889 17.331Z" fill="#176CF7"/>
<path d="M46.9331 11.2437C46.9331 11.7423 46.7853 12.2297 46.5083 12.6442C46.2312 13.0588 45.8375 13.3819 45.3769 13.5728C44.9162 13.7636 44.4093 13.8135 43.9203 13.7162C43.4313 13.6189 42.9821 13.3788 42.6295 13.0263C42.2769 12.6737 42.0368 12.2245 41.9396 11.7355C41.8423 11.2465 41.8922 10.7396 42.083 10.2789C42.2738 9.81826 42.5969 9.42453 43.0115 9.14752C43.4261 8.87051 43.9135 8.72266 44.4121 8.72266C45.0807 8.72266 45.7219 8.98826 46.1947 9.46104C46.6675 9.93382 46.9331 10.575 46.9331 11.2437Z" fill="#176CF7"/>
<path d="M59.9971 11.2437C59.9971 11.7423 59.8492 12.2297 59.5722 12.6442C59.2952 13.0588 58.9015 13.3819 58.4408 13.5728C57.9802 13.7636 57.4733 13.8135 56.9843 13.7162C56.4952 13.6189 56.046 13.3788 55.6935 13.0263C55.3409 12.6737 55.1008 12.2245 55.0035 11.7355C54.9062 11.2465 54.9562 10.7396 55.147 10.2789C55.3378 9.81826 55.6609 9.42453 56.0755 9.14752C56.4901 8.87051 56.9775 8.72266 57.4761 8.72266C58.1447 8.72266 58.7859 8.98826 59.2587 9.46104C59.7315 9.93382 59.9971 10.575 59.9971 11.2437Z" fill="#176CF7"/>
</svg>
