<svg width="16" height="16" viewBox="0 0 16 16" fill="none" xmlns="http://www.w3.org/2000/svg">
<path d="M10.6673 4.66671H5.33398" stroke="white" stroke-linecap="round" stroke-linejoin="round"/>
<path d="M10.754 7.33333H5.33398" stroke="white" stroke-linecap="round" stroke-linejoin="round"/>
<path fill-rule="evenodd" clip-rule="evenodd" d="M2.66602 12.794V2.66667C2.66602 2.29867 2.96468 2 3.33268 2H12.666C13.034 2 13.3327 2.29867 13.3327 2.66667V12.794C13.3327 13.042 13.072 13.2027 12.85 13.092L11.5547 12.444L9.92602 13.2587C9.83202 13.3053 9.72202 13.3053 9.62802 13.2587L7.99935 12.4447L6.37068 13.2593C6.27668 13.306 6.16668 13.306 6.07268 13.2593L4.44402 12.4447L3.14868 13.0927C2.92668 13.2027 2.66602 13.042 2.66602 12.794Z" stroke="white" stroke-linecap="round" stroke-linejoin="round"/>
<path d="M8.66732 9.99996H5.33398" stroke="white" stroke-linecap="round" stroke-linejoin="round"/>
</svg>
