<svg width="16" height="16" viewBox="0 0 16 16" fill="none" xmlns="http://www.w3.org/2000/svg">
<path fill-rule="evenodd" clip-rule="evenodd" d="M11.6432 2.00065C12.1798 2.00061 12.6947 2.21308 13.0742 2.59245C13.4538 2.97192 13.6673 3.48673 13.6673 4.02344V9.27214L13.6576 9.47266C13.6117 9.93589 13.4068 10.3716 13.0749 10.7038C12.6955 11.0833 12.1805 11.2967 11.6439 11.2969H9.58529L9.75651 12.6673H10.1204L10.1712 12.6699C10.4234 12.6954 10.6204 12.9084 10.6204 13.1673C10.6203 13.4262 10.4234 13.6392 10.1712 13.6647L10.1204 13.6673H5.54883C5.27283 13.6672 5.04893 13.4433 5.04883 13.1673C5.04888 12.8913 5.2728 12.6674 5.54883 12.6673H5.91146L6.08333 11.2969H4.02344C2.90602 11.2968 2.00019 10.3908 2 9.27344V4.02344C2.00011 2.90597 2.90597 2.00011 4.02344 2L11.6432 2.00065ZM6.91992 12.6673H8.7487L8.57682 11.2969H7.09115L6.91992 12.6673ZM3 9.27344C3.00019 9.83855 3.45831 10.2968 4.02344 10.2969H11.6439C11.9153 10.2967 12.176 10.1887 12.3678 9.99675C12.5596 9.80474 12.6674 9.54418 12.6673 9.27279V8.92643H3V9.27344ZM4.02344 3C3.45826 3.00011 3.00011 3.45826 3 4.02344V7.92643H12.6673V4.02344C12.6673 3.75202 12.5591 3.4914 12.3672 3.29948C12.1992 3.13158 11.9785 3.02839 11.7441 3.00521L11.6432 3H4.02344Z" fill="white"/>
</svg>
