<svg width="16" height="16" viewBox="0 0 16 16" fill="none" xmlns="http://www.w3.org/2000/svg">
<path d="M8.00002 11.5C8.27616 11.5 8.50002 11.7239 8.50002 12C8.50002 12.2762 8.27616 12.5 8.00002 12.5H5.33335C5.05721 12.5 4.83335 12.2762 4.83335 12C4.83335 11.7239 5.05721 11.5 5.33335 11.5H8.00002Z" fill="white"/>
<path d="M10.6667 8.83334C10.9428 8.83334 11.1667 9.0572 11.1667 9.33334C11.1667 9.60949 10.9428 9.83334 10.6667 9.83334H5.33335C5.05721 9.83334 4.83335 9.60949 4.83335 9.33334C4.83335 9.0572 5.05721 8.83334 5.33335 8.83334H10.6667Z" fill="white"/>
<path d="M10.6667 6.16668C10.9428 6.16668 11.1667 6.39053 11.1667 6.66668C11.1667 6.94282 10.9428 7.16668 10.6667 7.16668H5.33335C5.05721 7.16668 4.83335 6.94282 4.83335 6.66668C4.83335 6.39053 5.05721 6.16668 5.33335 6.16668H10.6667Z" fill="white"/>
<path fill-rule="evenodd" clip-rule="evenodd" d="M10 0.833344C10.6442 0.833519 11.1667 1.35579 11.1667 2.00001V2.16668H12.0007C12.4868 2.16676 12.9532 2.36005 13.2969 2.70379C13.6406 3.04759 13.834 3.51386 13.834 4.00001V13.3333C13.834 13.8195 13.6406 14.2858 13.2969 14.6296C12.9532 14.9733 12.4868 15.1666 12.0007 15.1667H4.00067C3.51452 15.1667 3.04825 14.9733 2.70445 14.6296C2.36063 14.2858 2.16669 13.8196 2.16669 13.3333V4.00001C2.16669 3.51378 2.36063 3.0476 2.70445 2.70379C3.04825 2.36007 3.51452 2.16668 4.00067 2.16668H4.83335V2.00001C4.83335 1.35568 5.35569 0.833344 6.00002 0.833344H10ZM4.00067 3.16668C3.77973 3.16668 3.56774 3.25464 3.41148 3.41082C3.2552 3.5671 3.16734 3.779 3.16734 4.00001V13.3333C3.16734 13.5544 3.2552 13.7663 3.41148 13.9225C3.56774 14.0787 3.77973 14.1667 4.00067 14.1667H12.0007C12.2216 14.1666 12.4337 14.0787 12.5899 13.9225C12.746 13.7663 12.834 13.5543 12.834 13.3333V4.00001C12.834 3.77907 12.746 3.56708 12.5899 3.41082C12.4337 3.25461 12.2216 3.16676 12.0007 3.16668H11.1667V3.33334C11.1667 3.97757 10.6442 4.49983 10 4.50001H6.00002C5.35569 4.50001 4.83335 3.97768 4.83335 3.33334V3.16668H4.00067ZM6.00002 1.83334C5.90797 1.83334 5.83335 1.90796 5.83335 2.00001V2.65366C5.83346 2.65798 5.834 2.66232 5.834 2.66668C5.834 2.67081 5.83345 2.67493 5.83335 2.67905V3.33334C5.83335 3.42539 5.90797 3.50001 6.00002 3.50001H10C10.0919 3.49983 10.1667 3.42528 10.1667 3.33334V2.00001C10.1667 1.90807 10.0919 1.83352 10 1.83334H6.00002Z" fill="white"/>
</svg>
