<svg width="24" height="25" viewBox="0 0 24 25" fill="none" xmlns="http://www.w3.org/2000/svg">
<path d="M16.0005 4.50012H18.0005C18.5309 4.50012 19.0396 4.71084 19.4147 5.08591C19.7898 5.46098 20.0005 5.96969 20.0005 6.50012V20.5001C20.0005 21.0306 19.7898 21.5393 19.4147 21.9143C19.0396 22.2894 18.5309 22.5001 18.0005 22.5001H6.00049C5.47006 22.5001 4.96135 22.2894 4.58627 21.9143C4.2112 21.5393 4.00049 21.0306 4.00049 20.5001V6.50012C4.00049 5.96969 4.2112 5.46098 4.58627 5.08591C4.96135 4.71084 5.47006 4.50012 6.00049 4.50012H8.00049" fill="#461B02"/>
<path d="M8 10.5H16M8 14.5L16 14.5M8 18.5L12 18.5" stroke="#FFC217" stroke-width="1.5" stroke-linecap="round" stroke-linejoin="round"/>
<path d="M14.9995 2.49988H8.99951C8.44723 2.49988 7.99951 2.94759 7.99951 3.49988V5.49988C7.99951 6.05216 8.44723 6.49988 8.99951 6.49988H14.9995C15.5518 6.49988 15.9995 6.05216 15.9995 5.49988V3.49988C15.9995 2.94759 15.5518 2.49988 14.9995 2.49988Z" stroke="#461B02" stroke-width="1.5" stroke-linecap="round" stroke-linejoin="round"/>
</svg>
